<?xml version="1.0" encoding="UTF-8"?>
<svg id="Layer_1" data-name="Layer 1" xmlns="http://www.w3.org/2000/svg" version="1.1" xmlns:ev="http://www.w3.org/2001/xml-events" viewBox="0 0 296 296">
  <defs>
    <style>
      .cls-1 {
        fill: #000;
        stroke-width: 0px;
      }
    </style>
  </defs>
  <rect id="p" class="cls-1" x="32" y="32" width="8" height="8"/>
  <rect id="p-2" data-name="p" class="cls-1" x="32" y="40" width="8" height="8"/>
  <rect id="p-3" data-name="p" class="cls-1" x="32" y="48" width="8" height="8"/>
  <rect id="p-4" data-name="p" class="cls-1" x="32" y="56" width="8" height="8"/>
  <rect id="p-5" data-name="p" class="cls-1" x="32" y="64" width="8" height="8"/>
  <rect id="p-6" data-name="p" class="cls-1" x="32" y="72" width="8" height="8"/>
  <rect id="p-7" data-name="p" class="cls-1" x="32" y="80" width="8" height="8"/>
  <rect id="p-8" data-name="p" class="cls-1" x="32" y="96" width="8" height="8"/>
  <rect id="p-9" data-name="p" class="cls-1" x="32" y="104" width="8" height="8"/>
  <rect id="p-10" data-name="p" class="cls-1" x="32" y="112" width="8" height="8"/>
  <rect id="p-11" data-name="p" class="cls-1" x="32" y="120" width="8" height="8"/>
  <rect id="p-12" data-name="p" class="cls-1" x="32" y="152" width="8" height="8"/>
  <rect id="p-13" data-name="p" class="cls-1" x="32" y="208" width="8" height="8"/>
  <rect id="p-14" data-name="p" class="cls-1" x="32" y="216" width="8" height="8"/>
  <rect id="p-15" data-name="p" class="cls-1" x="32" y="224" width="8" height="8"/>
  <rect id="p-16" data-name="p" class="cls-1" x="32" y="232" width="8" height="8"/>
  <rect id="p-17" data-name="p" class="cls-1" x="32" y="240" width="8" height="8"/>
  <rect id="p-18" data-name="p" class="cls-1" x="32" y="248" width="8" height="8"/>
  <rect id="p-19" data-name="p" class="cls-1" x="32" y="256" width="8" height="8"/>
  <rect id="p-20" data-name="p" class="cls-1" x="40" y="32" width="8" height="8"/>
  <rect id="p-21" data-name="p" class="cls-1" x="40" y="80" width="8" height="8"/>
  <rect id="p-22" data-name="p" class="cls-1" x="40" y="120" width="8" height="8"/>
  <rect id="p-23" data-name="p" class="cls-1" x="40" y="128" width="8" height="8"/>
  <rect id="p-24" data-name="p" class="cls-1" x="40" y="152" width="8" height="8"/>
  <rect id="p-25" data-name="p" class="cls-1" x="40" y="160" width="8" height="8"/>
  <rect id="p-26" data-name="p" class="cls-1" x="40" y="208" width="8" height="8"/>
  <rect id="p-27" data-name="p" class="cls-1" x="40" y="256" width="8" height="8"/>
  <rect id="p-28" data-name="p" class="cls-1" x="48" y="32" width="8" height="8"/>
  <rect id="p-29" data-name="p" class="cls-1" x="48" y="48" width="8" height="8"/>
  <rect id="p-30" data-name="p" class="cls-1" x="48" y="56" width="8" height="8"/>
  <rect id="p-31" data-name="p" class="cls-1" x="48" y="64" width="8" height="8"/>
  <rect id="p-32" data-name="p" class="cls-1" x="48" y="80" width="8" height="8"/>
  <rect id="p-33" data-name="p" class="cls-1" x="48" y="104" width="8" height="8"/>
  <rect id="p-34" data-name="p" class="cls-1" x="48" y="128" width="8" height="8"/>
  <rect id="p-35" data-name="p" class="cls-1" x="48" y="136" width="8" height="8"/>
  <rect id="p-36" data-name="p" class="cls-1" x="48" y="144" width="8" height="8"/>
  <rect id="p-37" data-name="p" class="cls-1" x="48" y="152" width="8" height="8"/>
  <rect id="p-38" data-name="p" class="cls-1" x="48" y="176" width="8" height="8"/>
  <rect id="p-39" data-name="p" class="cls-1" x="48" y="184" width="8" height="8"/>
  <rect id="p-40" data-name="p" class="cls-1" x="48" y="208" width="8" height="8"/>
  <rect id="p-41" data-name="p" class="cls-1" x="48" y="224" width="8" height="8"/>
  <rect id="p-42" data-name="p" class="cls-1" x="48" y="232" width="8" height="8"/>
  <rect id="p-43" data-name="p" class="cls-1" x="48" y="240" width="8" height="8"/>
  <rect id="p-44" data-name="p" class="cls-1" x="48" y="256" width="8" height="8"/>
  <rect id="p-45" data-name="p" class="cls-1" x="56" y="32" width="8" height="8"/>
  <rect id="p-46" data-name="p" class="cls-1" x="56" y="48" width="8" height="8"/>
  <rect id="p-47" data-name="p" class="cls-1" x="56" y="56" width="8" height="8"/>
  <rect id="p-48" data-name="p" class="cls-1" x="56" y="64" width="8" height="8"/>
  <rect id="p-49" data-name="p" class="cls-1" x="56" y="80" width="8" height="8"/>
  <rect id="p-50" data-name="p" class="cls-1" x="56" y="96" width="8" height="8"/>
  <rect id="p-51" data-name="p" class="cls-1" x="56" y="120" width="8" height="8"/>
  <rect id="p-52" data-name="p" class="cls-1" x="56" y="136" width="8" height="8"/>
  <rect id="p-53" data-name="p" class="cls-1" x="56" y="144" width="8" height="8"/>
  <rect id="p-54" data-name="p" class="cls-1" x="56" y="160" width="8" height="8"/>
  <rect id="p-55" data-name="p" class="cls-1" x="56" y="208" width="8" height="8"/>
  <rect id="p-56" data-name="p" class="cls-1" x="56" y="224" width="8" height="8"/>
  <rect id="p-57" data-name="p" class="cls-1" x="56" y="232" width="8" height="8"/>
  <rect id="p-58" data-name="p" class="cls-1" x="56" y="240" width="8" height="8"/>
  <rect id="p-59" data-name="p" class="cls-1" x="56" y="256" width="8" height="8"/>
  <rect id="p-60" data-name="p" class="cls-1" x="64" y="32" width="8" height="8"/>
  <rect id="p-61" data-name="p" class="cls-1" x="64" y="48" width="8" height="8"/>
  <rect id="p-62" data-name="p" class="cls-1" x="64" y="56" width="8" height="8"/>
  <rect id="p-63" data-name="p" class="cls-1" x="64" y="64" width="8" height="8"/>
  <rect id="p-64" data-name="p" class="cls-1" x="64" y="80" width="8" height="8"/>
  <rect id="p-65" data-name="p" class="cls-1" x="64" y="96" width="8" height="8"/>
  <rect id="p-66" data-name="p" class="cls-1" x="64" y="104" width="8" height="8"/>
  <rect id="p-67" data-name="p" class="cls-1" x="64" y="144" width="8" height="8"/>
  <rect id="p-68" data-name="p" class="cls-1" x="64" y="160" width="8" height="8"/>
  <rect id="p-69" data-name="p" class="cls-1" x="64" y="168" width="8" height="8"/>
  <rect id="p-70" data-name="p" class="cls-1" x="64" y="176" width="8" height="8"/>
  <rect id="p-71" data-name="p" class="cls-1" x="64" y="184" width="8" height="8"/>
  <rect id="p-72" data-name="p" class="cls-1" x="64" y="192" width="8" height="8"/>
  <rect id="p-73" data-name="p" class="cls-1" x="64" y="208" width="8" height="8"/>
  <rect id="p-74" data-name="p" class="cls-1" x="64" y="224" width="8" height="8"/>
  <rect id="p-75" data-name="p" class="cls-1" x="64" y="232" width="8" height="8"/>
  <rect id="p-76" data-name="p" class="cls-1" x="64" y="240" width="8" height="8"/>
  <rect id="p-77" data-name="p" class="cls-1" x="64" y="256" width="8" height="8"/>
  <rect id="p-78" data-name="p" class="cls-1" x="72" y="32" width="8" height="8"/>
  <rect id="p-79" data-name="p" class="cls-1" x="72" y="80" width="8" height="8"/>
  <rect id="p-80" data-name="p" class="cls-1" x="72" y="96" width="8" height="8"/>
  <rect id="p-81" data-name="p" class="cls-1" x="72" y="112" width="8" height="8"/>
  <rect id="p-82" data-name="p" class="cls-1" x="72" y="120" width="8" height="8"/>
  <rect id="p-83" data-name="p" class="cls-1" x="72" y="144" width="8" height="8"/>
  <rect id="p-84" data-name="p" class="cls-1" x="72" y="152" width="8" height="8"/>
  <rect id="p-85" data-name="p" class="cls-1" x="72" y="160" width="8" height="8"/>
  <rect id="p-86" data-name="p" class="cls-1" x="72" y="168" width="8" height="8"/>
  <rect id="p-87" data-name="p" class="cls-1" x="72" y="176" width="8" height="8"/>
  <rect id="p-88" data-name="p" class="cls-1" x="72" y="208" width="8" height="8"/>
  <rect id="p-89" data-name="p" class="cls-1" x="72" y="256" width="8" height="8"/>
  <rect id="p-90" data-name="p" class="cls-1" x="80" y="32" width="8" height="8"/>
  <rect id="p-91" data-name="p" class="cls-1" x="80" y="40" width="8" height="8"/>
  <rect id="p-92" data-name="p" class="cls-1" x="80" y="48" width="8" height="8"/>
  <rect id="p-93" data-name="p" class="cls-1" x="80" y="56" width="8" height="8"/>
  <rect id="p-94" data-name="p" class="cls-1" x="80" y="64" width="8" height="8"/>
  <rect id="p-95" data-name="p" class="cls-1" x="80" y="72" width="8" height="8"/>
  <rect id="p-96" data-name="p" class="cls-1" x="80" y="80" width="8" height="8"/>
  <rect id="p-97" data-name="p" class="cls-1" x="80" y="96" width="8" height="8"/>
  <rect id="p-98" data-name="p" class="cls-1" x="80" y="112" width="8" height="8"/>
  <rect id="p-99" data-name="p" class="cls-1" x="80" y="128" width="8" height="8"/>
  <rect id="p-100" data-name="p" class="cls-1" x="80" y="144" width="8" height="8"/>
  <rect id="p-101" data-name="p" class="cls-1" x="80" y="160" width="8" height="8"/>
  <rect id="p-102" data-name="p" class="cls-1" x="80" y="176" width="8" height="8"/>
  <rect id="p-103" data-name="p" class="cls-1" x="80" y="192" width="8" height="8"/>
  <rect id="p-104" data-name="p" class="cls-1" x="80" y="208" width="8" height="8"/>
  <rect id="p-105" data-name="p" class="cls-1" x="80" y="216" width="8" height="8"/>
  <rect id="p-106" data-name="p" class="cls-1" x="80" y="224" width="8" height="8"/>
  <rect id="p-107" data-name="p" class="cls-1" x="80" y="232" width="8" height="8"/>
  <rect id="p-108" data-name="p" class="cls-1" x="80" y="240" width="8" height="8"/>
  <rect id="p-109" data-name="p" class="cls-1" x="80" y="248" width="8" height="8"/>
  <rect id="p-110" data-name="p" class="cls-1" x="80" y="256" width="8" height="8"/>
  <rect id="p-111" data-name="p" class="cls-1" x="88" y="96" width="8" height="8"/>
  <rect id="p-112" data-name="p" class="cls-1" x="88" y="104" width="8" height="8"/>
  <rect id="p-113" data-name="p" class="cls-1" x="88" y="112" width="8" height="8"/>
  <rect id="p-114" data-name="p" class="cls-1" x="88" y="120" width="8" height="8"/>
  <rect id="p-115" data-name="p" class="cls-1" x="88" y="128" width="8" height="8"/>
  <rect id="p-116" data-name="p" class="cls-1" x="88" y="136" width="8" height="8"/>
  <rect id="p-117" data-name="p" class="cls-1" x="88" y="144" width="8" height="8"/>
  <rect id="p-118" data-name="p" class="cls-1" x="88" y="152" width="8" height="8"/>
  <rect id="p-119" data-name="p" class="cls-1" x="88" y="168" width="8" height="8"/>
  <rect id="p-120" data-name="p" class="cls-1" x="88" y="176" width="8" height="8"/>
  <rect id="p-121" data-name="p" class="cls-1" x="88" y="184" width="8" height="8"/>
  <rect id="p-122" data-name="p" class="cls-1" x="96" y="32" width="8" height="8"/>
  <rect id="p-123" data-name="p" class="cls-1" x="96" y="40" width="8" height="8"/>
  <rect id="p-124" data-name="p" class="cls-1" x="96" y="48" width="8" height="8"/>
  <rect id="p-125" data-name="p" class="cls-1" x="96" y="64" width="8" height="8"/>
  <rect id="p-126" data-name="p" class="cls-1" x="96" y="80" width="8" height="8"/>
  <rect id="p-127" data-name="p" class="cls-1" x="96" y="96" width="8" height="8"/>
  <rect id="p-128" data-name="p" class="cls-1" x="96" y="112" width="8" height="8"/>
  <rect id="p-129" data-name="p" class="cls-1" x="96" y="120" width="8" height="8"/>
  <rect id="p-130" data-name="p" class="cls-1" x="96" y="128" width="8" height="8"/>
  <rect id="p-131" data-name="p" class="cls-1" x="96" y="136" width="8" height="8"/>
  <rect id="p-132" data-name="p" class="cls-1" x="96" y="176" width="8" height="8"/>
  <rect id="p-133" data-name="p" class="cls-1" x="96" y="192" width="8" height="8"/>
  <rect id="p-134" data-name="p" class="cls-1" x="96" y="200" width="8" height="8"/>
  <rect id="p-135" data-name="p" class="cls-1" x="96" y="208" width="8" height="8"/>
  <rect id="p-136" data-name="p" class="cls-1" x="96" y="216" width="8" height="8"/>
  <rect id="p-137" data-name="p" class="cls-1" x="96" y="224" width="8" height="8"/>
  <rect id="p-138" data-name="p" class="cls-1" x="96" y="232" width="8" height="8"/>
  <rect id="p-139" data-name="p" class="cls-1" x="96" y="256" width="8" height="8"/>
  <rect id="p-140" data-name="p" class="cls-1" x="104" y="48" width="8" height="8"/>
  <rect id="p-141" data-name="p" class="cls-1" x="104" y="112" width="8" height="8"/>
  <rect id="p-142" data-name="p" class="cls-1" x="104" y="120" width="8" height="8"/>
  <rect id="p-143" data-name="p" class="cls-1" x="104" y="128" width="8" height="8"/>
  <rect id="p-144" data-name="p" class="cls-1" x="104" y="152" width="8" height="8"/>
  <rect id="p-145" data-name="p" class="cls-1" x="104" y="160" width="8" height="8"/>
  <rect id="p-146" data-name="p" class="cls-1" x="104" y="168" width="8" height="8"/>
  <rect id="p-147" data-name="p" class="cls-1" x="104" y="176" width="8" height="8"/>
  <rect id="p-148" data-name="p" class="cls-1" x="104" y="192" width="8" height="8"/>
  <rect id="p-149" data-name="p" class="cls-1" x="104" y="208" width="8" height="8"/>
  <rect id="p-150" data-name="p" class="cls-1" x="104" y="216" width="8" height="8"/>
  <rect id="p-151" data-name="p" class="cls-1" x="104" y="224" width="8" height="8"/>
  <rect id="p-152" data-name="p" class="cls-1" x="104" y="232" width="8" height="8"/>
  <rect id="p-153" data-name="p" class="cls-1" x="104" y="248" width="8" height="8"/>
  <rect id="p-154" data-name="p" class="cls-1" x="112" y="40" width="8" height="8"/>
  <rect id="p-155" data-name="p" class="cls-1" x="112" y="64" width="8" height="8"/>
  <rect id="p-156" data-name="p" class="cls-1" x="112" y="80" width="8" height="8"/>
  <rect id="p-157" data-name="p" class="cls-1" x="112" y="136" width="8" height="8"/>
  <rect id="p-158" data-name="p" class="cls-1" x="112" y="152" width="8" height="8"/>
  <rect id="p-159" data-name="p" class="cls-1" x="112" y="168" width="8" height="8"/>
  <rect id="p-160" data-name="p" class="cls-1" x="112" y="176" width="8" height="8"/>
  <rect id="p-161" data-name="p" class="cls-1" x="112" y="184" width="8" height="8"/>
  <rect id="p-162" data-name="p" class="cls-1" x="112" y="216" width="8" height="8"/>
  <rect id="p-163" data-name="p" class="cls-1" x="112" y="248" width="8" height="8"/>
  <rect id="p-164" data-name="p" class="cls-1" x="120" y="40" width="8" height="8"/>
  <rect id="p-165" data-name="p" class="cls-1" x="120" y="48" width="8" height="8"/>
  <rect id="p-166" data-name="p" class="cls-1" x="120" y="64" width="8" height="8"/>
  <rect id="p-167" data-name="p" class="cls-1" x="120" y="72" width="8" height="8"/>
  <rect id="p-168" data-name="p" class="cls-1" x="120" y="104" width="8" height="8"/>
  <rect id="p-169" data-name="p" class="cls-1" x="120" y="112" width="8" height="8"/>
  <rect id="p-170" data-name="p" class="cls-1" x="120" y="128" width="8" height="8"/>
  <rect id="p-171" data-name="p" class="cls-1" x="120" y="136" width="8" height="8"/>
  <rect id="p-172" data-name="p" class="cls-1" x="120" y="152" width="8" height="8"/>
  <rect id="p-173" data-name="p" class="cls-1" x="120" y="160" width="8" height="8"/>
  <rect id="p-174" data-name="p" class="cls-1" x="120" y="184" width="8" height="8"/>
  <rect id="p-175" data-name="p" class="cls-1" x="120" y="200" width="8" height="8"/>
  <rect id="p-176" data-name="p" class="cls-1" x="120" y="208" width="8" height="8"/>
  <rect id="p-177" data-name="p" class="cls-1" x="120" y="224" width="8" height="8"/>
  <rect id="p-178" data-name="p" class="cls-1" x="120" y="232" width="8" height="8"/>
  <rect id="p-179" data-name="p" class="cls-1" x="120" y="248" width="8" height="8"/>
  <rect id="p-180" data-name="p" class="cls-1" x="120" y="256" width="8" height="8"/>
  <rect id="p-181" data-name="p" class="cls-1" x="128" y="32" width="8" height="8"/>
  <rect id="p-182" data-name="p" class="cls-1" x="128" y="40" width="8" height="8"/>
  <rect id="p-183" data-name="p" class="cls-1" x="128" y="56" width="8" height="8"/>
  <rect id="p-184" data-name="p" class="cls-1" x="128" y="64" width="8" height="8"/>
  <rect id="p-185" data-name="p" class="cls-1" x="128" y="72" width="8" height="8"/>
  <rect id="p-186" data-name="p" class="cls-1" x="128" y="80" width="8" height="8"/>
  <rect id="p-187" data-name="p" class="cls-1" x="128" y="96" width="8" height="8"/>
  <rect id="p-188" data-name="p" class="cls-1" x="128" y="144" width="8" height="8"/>
  <rect id="p-189" data-name="p" class="cls-1" x="128" y="152" width="8" height="8"/>
  <rect id="p-190" data-name="p" class="cls-1" x="128" y="168" width="8" height="8"/>
  <rect id="p-191" data-name="p" class="cls-1" x="128" y="184" width="8" height="8"/>
  <rect id="p-192" data-name="p" class="cls-1" x="128" y="200" width="8" height="8"/>
  <rect id="p-193" data-name="p" class="cls-1" x="128" y="208" width="8" height="8"/>
  <rect id="p-194" data-name="p" class="cls-1" x="128" y="216" width="8" height="8"/>
  <rect id="p-195" data-name="p" class="cls-1" x="128" y="224" width="8" height="8"/>
  <rect id="p-196" data-name="p" class="cls-1" x="128" y="232" width="8" height="8"/>
  <rect id="p-197" data-name="p" class="cls-1" x="128" y="256" width="8" height="8"/>
  <rect id="p-198" data-name="p" class="cls-1" x="136" y="32" width="8" height="8"/>
  <rect id="p-199" data-name="p" class="cls-1" x="136" y="40" width="8" height="8"/>
  <rect id="p-200" data-name="p" class="cls-1" x="136" y="48" width="8" height="8"/>
  <rect id="p-201" data-name="p" class="cls-1" x="136" y="64" width="8" height="8"/>
  <rect id="p-202" data-name="p" class="cls-1" x="136" y="72" width="8" height="8"/>
  <rect id="p-203" data-name="p" class="cls-1" x="136" y="96" width="8" height="8"/>
  <rect id="p-204" data-name="p" class="cls-1" x="136" y="128" width="8" height="8"/>
  <rect id="p-205" data-name="p" class="cls-1" x="136" y="152" width="8" height="8"/>
  <rect id="p-206" data-name="p" class="cls-1" x="136" y="176" width="8" height="8"/>
  <rect id="p-207" data-name="p" class="cls-1" x="136" y="184" width="8" height="8"/>
  <rect id="p-208" data-name="p" class="cls-1" x="136" y="192" width="8" height="8"/>
  <rect id="p-209" data-name="p" class="cls-1" x="136" y="200" width="8" height="8"/>
  <rect id="p-210" data-name="p" class="cls-1" x="136" y="208" width="8" height="8"/>
  <rect id="p-211" data-name="p" class="cls-1" x="136" y="216" width="8" height="8"/>
  <rect id="p-212" data-name="p" class="cls-1" x="136" y="224" width="8" height="8"/>
  <rect id="p-213" data-name="p" class="cls-1" x="136" y="240" width="8" height="8"/>
  <rect id="p-214" data-name="p" class="cls-1" x="136" y="256" width="8" height="8"/>
  <rect id="p-215" data-name="p" class="cls-1" x="144" y="32" width="8" height="8"/>
  <rect id="p-216" data-name="p" class="cls-1" x="144" y="40" width="8" height="8"/>
  <rect id="p-217" data-name="p" class="cls-1" x="144" y="48" width="8" height="8"/>
  <rect id="p-218" data-name="p" class="cls-1" x="144" y="56" width="8" height="8"/>
  <rect id="p-219" data-name="p" class="cls-1" x="144" y="72" width="8" height="8"/>
  <rect id="p-220" data-name="p" class="cls-1" x="144" y="80" width="8" height="8"/>
  <rect id="p-221" data-name="p" class="cls-1" x="144" y="88" width="8" height="8"/>
  <rect id="p-222" data-name="p" class="cls-1" x="144" y="96" width="8" height="8"/>
  <rect id="p-223" data-name="p" class="cls-1" x="144" y="104" width="8" height="8"/>
  <rect id="p-224" data-name="p" class="cls-1" x="144" y="112" width="8" height="8"/>
  <rect id="p-225" data-name="p" class="cls-1" x="144" y="120" width="8" height="8"/>
  <rect id="p-226" data-name="p" class="cls-1" x="144" y="128" width="8" height="8"/>
  <rect id="p-227" data-name="p" class="cls-1" x="144" y="144" width="8" height="8"/>
  <rect id="p-228" data-name="p" class="cls-1" x="144" y="152" width="8" height="8"/>
  <rect id="p-229" data-name="p" class="cls-1" x="144" y="176" width="8" height="8"/>
  <rect id="p-230" data-name="p" class="cls-1" x="144" y="232" width="8" height="8"/>
  <rect id="p-231" data-name="p" class="cls-1" x="144" y="240" width="8" height="8"/>
  <rect id="p-232" data-name="p" class="cls-1" x="144" y="256" width="8" height="8"/>
  <rect id="p-233" data-name="p" class="cls-1" x="152" y="32" width="8" height="8"/>
  <rect id="p-234" data-name="p" class="cls-1" x="152" y="40" width="8" height="8"/>
  <rect id="p-235" data-name="p" class="cls-1" x="152" y="56" width="8" height="8"/>
  <rect id="p-236" data-name="p" class="cls-1" x="152" y="64" width="8" height="8"/>
  <rect id="p-237" data-name="p" class="cls-1" x="152" y="96" width="8" height="8"/>
  <rect id="p-238" data-name="p" class="cls-1" x="152" y="120" width="8" height="8"/>
  <rect id="p-239" data-name="p" class="cls-1" x="152" y="144" width="8" height="8"/>
  <rect id="p-240" data-name="p" class="cls-1" x="152" y="160" width="8" height="8"/>
  <rect id="p-241" data-name="p" class="cls-1" x="152" y="184" width="8" height="8"/>
  <rect id="p-242" data-name="p" class="cls-1" x="152" y="208" width="8" height="8"/>
  <rect id="p-243" data-name="p" class="cls-1" x="152" y="224" width="8" height="8"/>
  <rect id="p-244" data-name="p" class="cls-1" x="152" y="248" width="8" height="8"/>
  <rect id="p-245" data-name="p" class="cls-1" x="160" y="80" width="8" height="8"/>
  <rect id="p-246" data-name="p" class="cls-1" x="160" y="96" width="8" height="8"/>
  <rect id="p-247" data-name="p" class="cls-1" x="160" y="152" width="8" height="8"/>
  <rect id="p-248" data-name="p" class="cls-1" x="160" y="176" width="8" height="8"/>
  <rect id="p-249" data-name="p" class="cls-1" x="160" y="184" width="8" height="8"/>
  <rect id="p-250" data-name="p" class="cls-1" x="160" y="200" width="8" height="8"/>
  <rect id="p-251" data-name="p" class="cls-1" x="160" y="208" width="8" height="8"/>
  <rect id="p-252" data-name="p" class="cls-1" x="160" y="216" width="8" height="8"/>
  <rect id="p-253" data-name="p" class="cls-1" x="160" y="224" width="8" height="8"/>
  <rect id="p-254" data-name="p" class="cls-1" x="160" y="232" width="8" height="8"/>
  <rect id="p-255" data-name="p" class="cls-1" x="160" y="240" width="8" height="8"/>
  <rect id="p-256" data-name="p" class="cls-1" x="160" y="256" width="8" height="8"/>
  <rect id="p-257" data-name="p" class="cls-1" x="168" y="56" width="8" height="8"/>
  <rect id="p-258" data-name="p" class="cls-1" x="168" y="64" width="8" height="8"/>
  <rect id="p-259" data-name="p" class="cls-1" x="168" y="72" width="8" height="8"/>
  <rect id="p-260" data-name="p" class="cls-1" x="168" y="96" width="8" height="8"/>
  <rect id="p-261" data-name="p" class="cls-1" x="168" y="120" width="8" height="8"/>
  <rect id="p-262" data-name="p" class="cls-1" x="168" y="136" width="8" height="8"/>
  <rect id="p-263" data-name="p" class="cls-1" x="168" y="168" width="8" height="8"/>
  <rect id="p-264" data-name="p" class="cls-1" x="168" y="176" width="8" height="8"/>
  <rect id="p-265" data-name="p" class="cls-1" x="168" y="200" width="8" height="8"/>
  <rect id="p-266" data-name="p" class="cls-1" x="168" y="224" width="8" height="8"/>
  <rect id="p-267" data-name="p" class="cls-1" x="168" y="256" width="8" height="8"/>
  <rect id="p-268" data-name="p" class="cls-1" x="176" y="32" width="8" height="8"/>
  <rect id="p-269" data-name="p" class="cls-1" x="176" y="72" width="8" height="8"/>
  <rect id="p-270" data-name="p" class="cls-1" x="176" y="80" width="8" height="8"/>
  <rect id="p-271" data-name="p" class="cls-1" x="176" y="112" width="8" height="8"/>
  <rect id="p-272" data-name="p" class="cls-1" x="176" y="120" width="8" height="8"/>
  <rect id="p-273" data-name="p" class="cls-1" x="176" y="128" width="8" height="8"/>
  <rect id="p-274" data-name="p" class="cls-1" x="176" y="136" width="8" height="8"/>
  <rect id="p-275" data-name="p" class="cls-1" x="176" y="160" width="8" height="8"/>
  <rect id="p-276" data-name="p" class="cls-1" x="176" y="176" width="8" height="8"/>
  <rect id="p-277" data-name="p" class="cls-1" x="176" y="192" width="8" height="8"/>
  <rect id="p-278" data-name="p" class="cls-1" x="176" y="200" width="8" height="8"/>
  <rect id="p-279" data-name="p" class="cls-1" x="176" y="216" width="8" height="8"/>
  <rect id="p-280" data-name="p" class="cls-1" x="176" y="232" width="8" height="8"/>
  <rect id="p-281" data-name="p" class="cls-1" x="176" y="240" width="8" height="8"/>
  <rect id="p-282" data-name="p" class="cls-1" x="176" y="256" width="8" height="8"/>
  <rect id="p-283" data-name="p" class="cls-1" x="184" y="40" width="8" height="8"/>
  <rect id="p-284" data-name="p" class="cls-1" x="184" y="64" width="8" height="8"/>
  <rect id="p-285" data-name="p" class="cls-1" x="184" y="104" width="8" height="8"/>
  <rect id="p-286" data-name="p" class="cls-1" x="184" y="128" width="8" height="8"/>
  <rect id="p-287" data-name="p" class="cls-1" x="184" y="144" width="8" height="8"/>
  <rect id="p-288" data-name="p" class="cls-1" x="184" y="168" width="8" height="8"/>
  <rect id="p-289" data-name="p" class="cls-1" x="184" y="176" width="8" height="8"/>
  <rect id="p-290" data-name="p" class="cls-1" x="184" y="184" width="8" height="8"/>
  <rect id="p-291" data-name="p" class="cls-1" x="184" y="208" width="8" height="8"/>
  <rect id="p-292" data-name="p" class="cls-1" x="184" y="216" width="8" height="8"/>
  <rect id="p-293" data-name="p" class="cls-1" x="184" y="224" width="8" height="8"/>
  <rect id="p-294" data-name="p" class="cls-1" x="184" y="240" width="8" height="8"/>
  <rect id="p-295" data-name="p" class="cls-1" x="184" y="248" width="8" height="8"/>
  <rect id="p-296" data-name="p" class="cls-1" x="184" y="256" width="8" height="8"/>
  <rect id="p-297" data-name="p" class="cls-1" x="192" y="32" width="8" height="8"/>
  <rect id="p-298" data-name="p" class="cls-1" x="192" y="48" width="8" height="8"/>
  <rect id="p-299" data-name="p" class="cls-1" x="192" y="72" width="8" height="8"/>
  <rect id="p-300" data-name="p" class="cls-1" x="192" y="80" width="8" height="8"/>
  <rect id="p-301" data-name="p" class="cls-1" x="192" y="112" width="8" height="8"/>
  <rect id="p-302" data-name="p" class="cls-1" x="192" y="120" width="8" height="8"/>
  <rect id="p-303" data-name="p" class="cls-1" x="192" y="128" width="8" height="8"/>
  <rect id="p-304" data-name="p" class="cls-1" x="192" y="144" width="8" height="8"/>
  <rect id="p-305" data-name="p" class="cls-1" x="192" y="152" width="8" height="8"/>
  <rect id="p-306" data-name="p" class="cls-1" x="192" y="160" width="8" height="8"/>
  <rect id="p-307" data-name="p" class="cls-1" x="192" y="168" width="8" height="8"/>
  <rect id="p-308" data-name="p" class="cls-1" x="192" y="176" width="8" height="8"/>
  <rect id="p-309" data-name="p" class="cls-1" x="192" y="184" width="8" height="8"/>
  <rect id="p-310" data-name="p" class="cls-1" x="192" y="192" width="8" height="8"/>
  <rect id="p-311" data-name="p" class="cls-1" x="192" y="200" width="8" height="8"/>
  <rect id="p-312" data-name="p" class="cls-1" x="192" y="208" width="8" height="8"/>
  <rect id="p-313" data-name="p" class="cls-1" x="192" y="216" width="8" height="8"/>
  <rect id="p-314" data-name="p" class="cls-1" x="192" y="224" width="8" height="8"/>
  <rect id="p-315" data-name="p" class="cls-1" x="192" y="256" width="8" height="8"/>
  <rect id="p-316" data-name="p" class="cls-1" x="200" y="96" width="8" height="8"/>
  <rect id="p-317" data-name="p" class="cls-1" x="200" y="144" width="8" height="8"/>
  <rect id="p-318" data-name="p" class="cls-1" x="200" y="152" width="8" height="8"/>
  <rect id="p-319" data-name="p" class="cls-1" x="200" y="176" width="8" height="8"/>
  <rect id="p-320" data-name="p" class="cls-1" x="200" y="184" width="8" height="8"/>
  <rect id="p-321" data-name="p" class="cls-1" x="200" y="192" width="8" height="8"/>
  <rect id="p-322" data-name="p" class="cls-1" x="200" y="224" width="8" height="8"/>
  <rect id="p-323" data-name="p" class="cls-1" x="200" y="240" width="8" height="8"/>
  <rect id="p-324" data-name="p" class="cls-1" x="200" y="248" width="8" height="8"/>
  <rect id="p-325" data-name="p" class="cls-1" x="208" y="32" width="8" height="8"/>
  <rect id="p-326" data-name="p" class="cls-1" x="208" y="40" width="8" height="8"/>
  <rect id="p-327" data-name="p" class="cls-1" x="208" y="48" width="8" height="8"/>
  <rect id="p-328" data-name="p" class="cls-1" x="208" y="56" width="8" height="8"/>
  <rect id="p-329" data-name="p" class="cls-1" x="208" y="64" width="8" height="8"/>
  <rect id="p-330" data-name="p" class="cls-1" x="208" y="72" width="8" height="8"/>
  <rect id="p-331" data-name="p" class="cls-1" x="208" y="80" width="8" height="8"/>
  <rect id="p-332" data-name="p" class="cls-1" x="208" y="112" width="8" height="8"/>
  <rect id="p-333" data-name="p" class="cls-1" x="208" y="128" width="8" height="8"/>
  <rect id="p-334" data-name="p" class="cls-1" x="208" y="136" width="8" height="8"/>
  <rect id="p-335" data-name="p" class="cls-1" x="208" y="144" width="8" height="8"/>
  <rect id="p-336" data-name="p" class="cls-1" x="208" y="176" width="8" height="8"/>
  <rect id="p-337" data-name="p" class="cls-1" x="208" y="192" width="8" height="8"/>
  <rect id="p-338" data-name="p" class="cls-1" x="208" y="208" width="8" height="8"/>
  <rect id="p-339" data-name="p" class="cls-1" x="208" y="224" width="8" height="8"/>
  <rect id="p-340" data-name="p" class="cls-1" x="208" y="256" width="8" height="8"/>
  <rect id="p-341" data-name="p" class="cls-1" x="216" y="32" width="8" height="8"/>
  <rect id="p-342" data-name="p" class="cls-1" x="216" y="80" width="8" height="8"/>
  <rect id="p-343" data-name="p" class="cls-1" x="216" y="120" width="8" height="8"/>
  <rect id="p-344" data-name="p" class="cls-1" x="216" y="128" width="8" height="8"/>
  <rect id="p-345" data-name="p" class="cls-1" x="216" y="136" width="8" height="8"/>
  <rect id="p-346" data-name="p" class="cls-1" x="216" y="144" width="8" height="8"/>
  <rect id="p-347" data-name="p" class="cls-1" x="216" y="160" width="8" height="8"/>
  <rect id="p-348" data-name="p" class="cls-1" x="216" y="184" width="8" height="8"/>
  <rect id="p-349" data-name="p" class="cls-1" x="216" y="192" width="8" height="8"/>
  <rect id="p-350" data-name="p" class="cls-1" x="216" y="224" width="8" height="8"/>
  <rect id="p-351" data-name="p" class="cls-1" x="216" y="240" width="8" height="8"/>
  <rect id="p-352" data-name="p" class="cls-1" x="216" y="248" width="8" height="8"/>
  <rect id="p-353" data-name="p" class="cls-1" x="216" y="256" width="8" height="8"/>
  <rect id="p-354" data-name="p" class="cls-1" x="224" y="32" width="8" height="8"/>
  <rect id="p-355" data-name="p" class="cls-1" x="224" y="48" width="8" height="8"/>
  <rect id="p-356" data-name="p" class="cls-1" x="224" y="56" width="8" height="8"/>
  <rect id="p-357" data-name="p" class="cls-1" x="224" y="64" width="8" height="8"/>
  <rect id="p-358" data-name="p" class="cls-1" x="224" y="80" width="8" height="8"/>
  <rect id="p-359" data-name="p" class="cls-1" x="224" y="96" width="8" height="8"/>
  <rect id="p-360" data-name="p" class="cls-1" x="224" y="104" width="8" height="8"/>
  <rect id="p-361" data-name="p" class="cls-1" x="224" y="112" width="8" height="8"/>
  <rect id="p-362" data-name="p" class="cls-1" x="224" y="136" width="8" height="8"/>
  <rect id="p-363" data-name="p" class="cls-1" x="224" y="152" width="8" height="8"/>
  <rect id="p-364" data-name="p" class="cls-1" x="224" y="168" width="8" height="8"/>
  <rect id="p-365" data-name="p" class="cls-1" x="224" y="176" width="8" height="8"/>
  <rect id="p-366" data-name="p" class="cls-1" x="224" y="192" width="8" height="8"/>
  <rect id="p-367" data-name="p" class="cls-1" x="224" y="200" width="8" height="8"/>
  <rect id="p-368" data-name="p" class="cls-1" x="224" y="208" width="8" height="8"/>
  <rect id="p-369" data-name="p" class="cls-1" x="224" y="216" width="8" height="8"/>
  <rect id="p-370" data-name="p" class="cls-1" x="224" y="224" width="8" height="8"/>
  <rect id="p-371" data-name="p" class="cls-1" x="224" y="240" width="8" height="8"/>
  <rect id="p-372" data-name="p" class="cls-1" x="224" y="248" width="8" height="8"/>
  <rect id="p-373" data-name="p" class="cls-1" x="232" y="32" width="8" height="8"/>
  <rect id="p-374" data-name="p" class="cls-1" x="232" y="48" width="8" height="8"/>
  <rect id="p-375" data-name="p" class="cls-1" x="232" y="56" width="8" height="8"/>
  <rect id="p-376" data-name="p" class="cls-1" x="232" y="64" width="8" height="8"/>
  <rect id="p-377" data-name="p" class="cls-1" x="232" y="80" width="8" height="8"/>
  <rect id="p-378" data-name="p" class="cls-1" x="232" y="120" width="8" height="8"/>
  <rect id="p-379" data-name="p" class="cls-1" x="232" y="136" width="8" height="8"/>
  <rect id="p-380" data-name="p" class="cls-1" x="232" y="160" width="8" height="8"/>
  <rect id="p-381" data-name="p" class="cls-1" x="232" y="176" width="8" height="8"/>
  <rect id="p-382" data-name="p" class="cls-1" x="232" y="184" width="8" height="8"/>
  <rect id="p-383" data-name="p" class="cls-1" x="232" y="192" width="8" height="8"/>
  <rect id="p-384" data-name="p" class="cls-1" x="232" y="200" width="8" height="8"/>
  <rect id="p-385" data-name="p" class="cls-1" x="232" y="208" width="8" height="8"/>
  <rect id="p-386" data-name="p" class="cls-1" x="232" y="224" width="8" height="8"/>
  <rect id="p-387" data-name="p" class="cls-1" x="232" y="248" width="8" height="8"/>
  <rect id="p-388" data-name="p" class="cls-1" x="232" y="256" width="8" height="8"/>
  <rect id="p-389" data-name="p" class="cls-1" x="240" y="32" width="8" height="8"/>
  <rect id="p-390" data-name="p" class="cls-1" x="240" y="48" width="8" height="8"/>
  <rect id="p-391" data-name="p" class="cls-1" x="240" y="56" width="8" height="8"/>
  <rect id="p-392" data-name="p" class="cls-1" x="240" y="64" width="8" height="8"/>
  <rect id="p-393" data-name="p" class="cls-1" x="240" y="80" width="8" height="8"/>
  <rect id="p-394" data-name="p" class="cls-1" x="240" y="96" width="8" height="8"/>
  <rect id="p-395" data-name="p" class="cls-1" x="240" y="104" width="8" height="8"/>
  <rect id="p-396" data-name="p" class="cls-1" x="240" y="112" width="8" height="8"/>
  <rect id="p-397" data-name="p" class="cls-1" x="240" y="136" width="8" height="8"/>
  <rect id="p-398" data-name="p" class="cls-1" x="240" y="144" width="8" height="8"/>
  <rect id="p-399" data-name="p" class="cls-1" x="240" y="152" width="8" height="8"/>
  <rect id="p-400" data-name="p" class="cls-1" x="240" y="168" width="8" height="8"/>
  <rect id="p-401" data-name="p" class="cls-1" x="240" y="184" width="8" height="8"/>
  <rect id="p-402" data-name="p" class="cls-1" x="240" y="192" width="8" height="8"/>
  <rect id="p-403" data-name="p" class="cls-1" x="240" y="240" width="8" height="8"/>
  <rect id="p-404" data-name="p" class="cls-1" x="240" y="248" width="8" height="8"/>
  <rect id="p-405" data-name="p" class="cls-1" x="248" y="32" width="8" height="8"/>
  <rect id="p-406" data-name="p" class="cls-1" x="248" y="80" width="8" height="8"/>
  <rect id="p-407" data-name="p" class="cls-1" x="248" y="96" width="8" height="8"/>
  <rect id="p-408" data-name="p" class="cls-1" x="248" y="104" width="8" height="8"/>
  <rect id="p-409" data-name="p" class="cls-1" x="248" y="136" width="8" height="8"/>
  <rect id="p-410" data-name="p" class="cls-1" x="248" y="168" width="8" height="8"/>
  <rect id="p-411" data-name="p" class="cls-1" x="248" y="192" width="8" height="8"/>
  <rect id="p-412" data-name="p" class="cls-1" x="248" y="216" width="8" height="8"/>
  <rect id="p-413" data-name="p" class="cls-1" x="248" y="224" width="8" height="8"/>
  <rect id="p-414" data-name="p" class="cls-1" x="248" y="232" width="8" height="8"/>
  <rect id="p-415" data-name="p" class="cls-1" x="248" y="240" width="8" height="8"/>
  <rect id="p-416" data-name="p" class="cls-1" x="256" y="32" width="8" height="8"/>
  <rect id="p-417" data-name="p" class="cls-1" x="256" y="40" width="8" height="8"/>
  <rect id="p-418" data-name="p" class="cls-1" x="256" y="48" width="8" height="8"/>
  <rect id="p-419" data-name="p" class="cls-1" x="256" y="56" width="8" height="8"/>
  <rect id="p-420" data-name="p" class="cls-1" x="256" y="64" width="8" height="8"/>
  <rect id="p-421" data-name="p" class="cls-1" x="256" y="72" width="8" height="8"/>
  <rect id="p-422" data-name="p" class="cls-1" x="256" y="80" width="8" height="8"/>
  <rect id="p-423" data-name="p" class="cls-1" x="256" y="96" width="8" height="8"/>
  <rect id="p-424" data-name="p" class="cls-1" x="256" y="120" width="8" height="8"/>
  <rect id="p-425" data-name="p" class="cls-1" x="256" y="128" width="8" height="8"/>
  <rect id="p-426" data-name="p" class="cls-1" x="256" y="136" width="8" height="8"/>
  <rect id="p-427" data-name="p" class="cls-1" x="256" y="144" width="8" height="8"/>
  <rect id="p-428" data-name="p" class="cls-1" x="256" y="152" width="8" height="8"/>
  <rect id="p-429" data-name="p" class="cls-1" x="256" y="176" width="8" height="8"/>
  <rect id="p-430" data-name="p" class="cls-1" x="256" y="240" width="8" height="8"/>
  <rect id="p-431" data-name="p" class="cls-1" x="256" y="248" width="8" height="8"/>
</svg>