<?xml version="1.0" encoding="UTF-8"?>
<svg id="Layer_1" data-name="Layer 1" xmlns="http://www.w3.org/2000/svg" viewBox="0 0 1238.6 1215.94">
  <defs>
    <style>
      .cls-1 {
        fill: #fff;
        stroke-width: 0px;
      }
    </style>
  </defs>
  <g>
    <path class="cls-1" d="M1004.95,594.73c7.2,0,10.65-1.95,10.65-7.05s-3.45-6.9-10.65-6.9h-69.6l-19.95-26.1h87.15c30.45,0,43.05,12.3,43.05,31.2,0,17.25-11.85,28.8-37.65,28.8h-54.6c-7.35,0-10.65,2.1-10.65,7.2s3.3,7.35,10.65,7.35h75.9l19.95,25.8h-93.45c-30.6,0-43.05-12.3-43.05-32.85,0-18.3,13.2-27.45,37.65-27.45h54.6Z"/>
    <path class="cls-1" d="M777.11,554.68h30.9v35.55h59.7v-35.55h31.2v100.35h-31.2v-38.7h-59.7v38.7h-30.9v-100.35Z"/>
    <path class="cls-1" d="M515.51,603.88c0-28.95,25.35-49.2,60.45-49.2h47.4l19.8,26.1h-67.2c-16.8,0-29.7,10.35-29.7,24.45s12.45,24,29.7,24h36v-36.75h31.2v62.55h-67.2c-34.8,0-60.45-22.05-60.45-51.15Z"/>
    <path class="cls-1" d="M429.56,553.03c48.9,0,73.35,15.9,73.35,51.75s-24.45,51.9-73.35,51.9-73.35-16.05-73.35-51.9,24.6-51.75,73.35-51.75ZM429.56,630.58c31.2,0,42.45-4.2,42.45-25.8s-11.25-25.65-42.45-25.65-42.45,4.05-42.45,25.65,11.25,25.8,42.45,25.8Z"/>
    <path class="cls-1" d="M229.76,646.03c-3.75,6.6-9.15,10.65-17.1,10.65s-14.7-4.5-17.4-13.8l-25.95-88.2h30.3l9.45,34.95c3,11.1,5.25,19.65,6.9,27.6,3.15-6.75,6.6-13.8,14.1-27.6l13.35-25.35c5.25-9.9,10.5-11.25,18-11.25s12.45,1.35,17.7,11.25l13.5,25.2c6.9,13.05,10.8,20.7,14.1,27.75,1.5-8.1,3.6-16.35,6.75-27.6l9.45-34.95h31.05l-25.5,88.2c-2.7,9.3-9.6,13.8-17.4,13.8s-13.5-4.2-17.1-10.65l-16.05-28.5c-8.7-15.45-12.75-22.8-15.9-30-3.45,7.2-7.5,14.7-16.2,30.15l-16.05,28.35Z"/>
  </g>
  <polygon class="cls-1" points="659.26 682.52 671.47 642.38 670.21 620.11 664.96 602.6 664.96 567.58 676.92 545.41 712.52 519.34 748.12 545.41 760.08 567.58 760.08 602.6 754.83 620.11 753.57 642.38 765.78 682.52 733.24 628.86 746.95 612.17 744.33 595.01 719.82 605.81 719.33 624 705.71 624 705.23 605.81 680.71 595.01 678.09 612.17 691.8 628.86 659.26 682.52"/>
</svg>