<?xml version="1.0" encoding="UTF-8"?>
<svg id="Layer_1" data-name="Layer 1" xmlns="http://www.w3.org/2000/svg" viewBox="0 0 1238.6 1215.94">
  <defs>
    <style>
      .cls-1 {
        fill: #fff;
        stroke-width: 0px;
      }
    </style>
  </defs>
  <g>
    <path class="cls-1" d="M269.35,594.73c24.45,0,37.65,9.15,37.65,27.45,0,20.55-12.45,32.85-43.05,32.85h-93.45l19.95-25.8h75.9c7.35,0,10.65-2.1,10.65-7.35s-3.3-7.2-10.65-7.2h-54.6c-25.8,0-37.65-11.55-37.65-28.8,0-18.9,12.6-31.2,43.05-31.2h87.15l-19.95,26.1h-69.6c-7.2,0-10.65,1.8-10.65,6.9s3.45,7.05,10.65,7.05h54.6Z"/>
    <path class="cls-1" d="M442.6,655.02h-30.9v-38.7h-59.7v38.7h-31.2v-100.35h31.2v35.55h59.7v-35.55h30.9v100.35Z"/>
    <path class="cls-1" d="M643.75,655.02h-67.2v-62.55h31.2v36.75h36c17.25,0,29.7-9.6,29.7-24s-12.9-24.45-29.7-24.45h-67.2l19.8-26.1h47.4c35.1,0,60.45,20.25,60.45,49.2s-25.65,51.15-60.45,51.15Z"/>
    <path class="cls-1" d="M863.49,604.78c0,35.85-24.6,51.9-73.35,51.9s-73.35-16.05-73.35-51.9,24.45-51.75,73.35-51.75,73.35,15.9,73.35,51.75ZM832.6,604.78c0-21.6-11.25-25.65-42.45-25.65s-42.45,4.05-42.45,25.65,11.25,25.8,42.45,25.8,42.45-4.2,42.45-25.8Z"/>
    <path class="cls-1" d="M973.9,617.68c-8.7-15.45-12.75-22.95-16.2-30.15-3.15,7.2-7.2,14.55-15.9,30l-16.05,28.5c-3.6,6.45-9,10.65-17.1,10.65s-14.7-4.5-17.4-13.8l-25.5-88.2h31.05l9.45,34.95c3.15,11.25,5.25,19.5,6.75,27.6,3.3-7.05,7.2-14.7,14.1-27.75l13.5-25.2c5.25-9.9,10.35-11.25,17.7-11.25s12.75,1.35,18,11.25l13.35,25.35c7.5,13.8,10.95,20.85,14.1,27.6,1.65-7.95,3.9-16.5,6.9-27.6l9.45-34.95h30.3l-25.95,88.2c-2.7,9.3-9.6,13.8-17.4,13.8s-13.35-4.05-17.1-10.65l-16.05-28.35Z"/>
  </g>
  <polygon class="cls-1" points="560.44 682.52 548.23 642.38 549.5 620.11 554.75 602.6 554.75 567.58 542.79 545.41 507.19 519.34 471.59 545.41 459.62 567.58 459.62 602.6 464.87 620.11 466.14 642.38 453.93 682.52 486.47 628.86 472.75 612.17 475.38 595.01 499.89 605.81 500.38 624 513.99 624 514.48 605.81 538.99 595.01 541.62 612.17 527.9 628.86 560.44 682.52"/>
</svg>