G04 #@! TF.GenerationSoftware,KiCad,Pcbnew,8.0.7*
G04 #@! TF.CreationDate,2025-01-26T00:40:12-05:00*
G04 #@! TF.ProjectId,shadow,73686164-6f77-42e6-9b69-6361645f7063,rev?*
G04 #@! TF.SameCoordinates,Original*
G04 #@! TF.FileFunction,Soldermask,Bot*
G04 #@! TF.FilePolarity,Negative*
%FSLAX46Y46*%
G04 Gerber Fmt 4.6, Leading zero omitted, Abs format (unit mm)*
G04 Created by KiCad (PCBNEW 8.0.7) date 2025-01-26 00:40:12*
%MOMM*%
%LPD*%
G01*
G04 APERTURE LIST*
G04 Aperture macros list*
%AMRoundRect*
0 Rectangle with rounded corners*
0 $1 Rounding radius*
0 $2 $3 $4 $5 $6 $7 $8 $9 X,Y pos of 4 corners*
0 Add a 4 corners polygon primitive as box body*
4,1,4,$2,$3,$4,$5,$6,$7,$8,$9,$2,$3,0*
0 Add four circle primitives for the rounded corners*
1,1,$1+$1,$2,$3*
1,1,$1+$1,$4,$5*
1,1,$1+$1,$6,$7*
1,1,$1+$1,$8,$9*
0 Add four rect primitives between the rounded corners*
20,1,$1+$1,$2,$3,$4,$5,0*
20,1,$1+$1,$4,$5,$6,$7,0*
20,1,$1+$1,$6,$7,$8,$9,0*
20,1,$1+$1,$8,$9,$2,$3,0*%
G04 Aperture macros list end*
%ADD10R,1.700000X1.700000*%
%ADD11O,1.700000X1.700000*%
%ADD12RoundRect,0.250000X0.600000X0.750000X-0.600000X0.750000X-0.600000X-0.750000X0.600000X-0.750000X0*%
%ADD13O,1.700000X2.000000*%
%ADD14C,2.000000*%
%ADD15C,7.500000*%
%ADD16R,1.600000X1.600000*%
%ADD17O,1.600000X1.600000*%
%ADD18C,0.700000*%
%ADD19O,0.900000X2.400000*%
%ADD20O,0.900000X1.700000*%
%ADD21R,2.000000X2.000000*%
%ADD22RoundRect,0.100000X-0.130000X-0.100000X0.130000X-0.100000X0.130000X0.100000X-0.130000X0.100000X0*%
%ADD23RoundRect,0.250000X-0.375000X-0.625000X0.375000X-0.625000X0.375000X0.625000X-0.375000X0.625000X0*%
%ADD24RoundRect,0.250000X0.325000X0.650000X-0.325000X0.650000X-0.325000X-0.650000X0.325000X-0.650000X0*%
%ADD25R,1.000000X1.500000*%
%ADD26RoundRect,0.100000X0.130000X0.100000X-0.130000X0.100000X-0.130000X-0.100000X0.130000X-0.100000X0*%
%ADD27RoundRect,0.100000X-0.100000X0.130000X-0.100000X-0.130000X0.100000X-0.130000X0.100000X0.130000X0*%
%ADD28RoundRect,0.250000X0.312500X0.625000X-0.312500X0.625000X-0.312500X-0.625000X0.312500X-0.625000X0*%
%ADD29RoundRect,0.250000X-0.312500X-0.625000X0.312500X-0.625000X0.312500X0.625000X-0.312500X0.625000X0*%
%ADD30RoundRect,0.250000X0.625000X-0.312500X0.625000X0.312500X-0.625000X0.312500X-0.625000X-0.312500X0*%
%ADD31RoundRect,0.250000X0.650000X-0.325000X0.650000X0.325000X-0.650000X0.325000X-0.650000X-0.325000X0*%
%ADD32RoundRect,0.100000X0.100000X-0.130000X0.100000X0.130000X-0.100000X0.130000X-0.100000X-0.130000X0*%
G04 APERTURE END LIST*
D10*
X162052000Y-99060000D03*
D11*
X162052000Y-101600000D03*
X162052000Y-104140000D03*
X162052000Y-106680000D03*
D10*
X96037000Y-86360000D03*
D11*
X96037000Y-83820000D03*
X96037000Y-81280000D03*
X96037000Y-78740000D03*
D12*
X128230000Y-115570000D03*
D13*
X125730000Y-115570000D03*
D10*
X96037000Y-99060000D03*
D11*
X96037000Y-96520000D03*
X96037000Y-93980000D03*
X96037000Y-91440000D03*
D10*
X96037000Y-73660000D03*
D11*
X96037000Y-71120000D03*
X96037000Y-68580000D03*
X96037000Y-66040000D03*
D10*
X156972000Y-60960000D03*
D11*
X156972000Y-63500000D03*
X156972000Y-66040000D03*
X156972000Y-68580000D03*
D10*
X110490000Y-109220000D03*
D11*
X107950000Y-109220000D03*
X105410000Y-109220000D03*
X102870000Y-109220000D03*
D10*
X107950000Y-114300000D03*
D11*
X105410000Y-114300000D03*
X102870000Y-114300000D03*
D10*
X156972000Y-86360000D03*
D11*
X156972000Y-88900000D03*
X156972000Y-91440000D03*
X156972000Y-93980000D03*
D14*
X146277000Y-112812000D03*
X152777000Y-112812000D03*
X146277000Y-117312000D03*
X152777000Y-117312000D03*
D10*
X138430000Y-68580000D03*
D11*
X138430000Y-71120000D03*
X138430000Y-73660000D03*
X138430000Y-76200000D03*
X138430000Y-78740000D03*
X138430000Y-81280000D03*
X138430000Y-83820000D03*
X138430000Y-86360000D03*
X138430000Y-88900000D03*
X138430000Y-91440000D03*
X138430000Y-93980000D03*
X138430000Y-96520000D03*
X138430000Y-99060000D03*
X138430000Y-101600000D03*
X138430000Y-104140000D03*
D14*
X121870000Y-50328000D03*
X128370000Y-50328000D03*
X121870000Y-54828000D03*
X128370000Y-54828000D03*
D15*
X100330000Y-121920000D03*
D10*
X112557000Y-114300000D03*
D11*
X115097000Y-114300000D03*
X117637000Y-114300000D03*
X120177000Y-114300000D03*
D15*
X158750000Y-121920000D03*
D10*
X162052000Y-73660000D03*
D11*
X162052000Y-76200000D03*
X162052000Y-78740000D03*
X162052000Y-81280000D03*
D10*
X162052000Y-86360000D03*
D11*
X162052000Y-88900000D03*
X162052000Y-91440000D03*
X162052000Y-93980000D03*
D10*
X129057000Y-124460000D03*
D11*
X131597000Y-124460000D03*
D14*
X133427000Y-112812000D03*
X139927000Y-112812000D03*
X133427000Y-117312000D03*
X139927000Y-117312000D03*
D15*
X100330000Y-53340000D03*
D10*
X133350000Y-55855000D03*
D11*
X135890000Y-55855000D03*
X138430000Y-55855000D03*
X140970000Y-55855000D03*
D16*
X147574000Y-123190000D03*
D17*
X139954000Y-123190000D03*
D18*
X110817000Y-119495200D03*
X111667000Y-119495200D03*
X112517000Y-119495200D03*
X113367000Y-119495200D03*
X114217000Y-119495200D03*
X115067000Y-119495200D03*
X115917000Y-119495200D03*
X116767000Y-119495200D03*
X116767000Y-120845200D03*
X115917000Y-120845200D03*
X115067000Y-120845200D03*
X114217000Y-120845200D03*
X113367000Y-120845200D03*
X112517000Y-120845200D03*
X111667000Y-120845200D03*
X110817000Y-120845200D03*
D19*
X109467000Y-120475200D03*
D20*
X109467000Y-123855200D03*
D19*
X118117000Y-120475200D03*
D20*
X118117000Y-123855200D03*
D10*
X113030000Y-68580000D03*
D11*
X113030000Y-71120000D03*
X113030000Y-73660000D03*
X113030000Y-76200000D03*
X113030000Y-78740000D03*
X113030000Y-81280000D03*
X113030000Y-83820000D03*
X113030000Y-86360000D03*
X113030000Y-88900000D03*
X113030000Y-91440000D03*
X113030000Y-93980000D03*
X113030000Y-96520000D03*
X113030000Y-99060000D03*
X113030000Y-101600000D03*
X113030000Y-104140000D03*
D10*
X162052000Y-60960000D03*
D11*
X162052000Y-63500000D03*
X162052000Y-66040000D03*
X162052000Y-68580000D03*
D15*
X129540000Y-86360000D03*
D10*
X156997000Y-73660000D03*
D11*
X156997000Y-76200000D03*
X156997000Y-78740000D03*
X156997000Y-81280000D03*
D10*
X120650000Y-68610000D03*
D11*
X120650000Y-71150000D03*
X120650000Y-73690000D03*
X120650000Y-76230000D03*
X120650000Y-78770000D03*
X120650000Y-81310000D03*
X120650000Y-83850000D03*
X120650000Y-86390000D03*
X120650000Y-88930000D03*
X120650000Y-91470000D03*
X120650000Y-94010000D03*
X120650000Y-96550000D03*
X120650000Y-99090000D03*
X120650000Y-101630000D03*
X120650000Y-104170000D03*
D15*
X158750000Y-53340000D03*
D10*
X96037000Y-111760000D03*
D11*
X96037000Y-109220000D03*
X96037000Y-106680000D03*
X96037000Y-104140000D03*
D10*
X146050000Y-68580000D03*
D11*
X146050000Y-71120000D03*
X146050000Y-73660000D03*
X146050000Y-76200000D03*
X146050000Y-78740000D03*
X146050000Y-81280000D03*
X146050000Y-83820000D03*
X146050000Y-86360000D03*
X146050000Y-88900000D03*
X146050000Y-91440000D03*
X146050000Y-93980000D03*
X146050000Y-96520000D03*
X146050000Y-99060000D03*
X146050000Y-101600000D03*
X146050000Y-104140000D03*
D10*
X156972000Y-99060000D03*
D11*
X156972000Y-101600000D03*
X156972000Y-104140000D03*
X156972000Y-106680000D03*
D10*
X133350000Y-50800000D03*
D11*
X135890000Y-50800000D03*
X138430000Y-50800000D03*
X140970000Y-50800000D03*
D21*
X106683800Y-60985400D03*
D14*
X111683800Y-60985400D03*
D22*
X105623000Y-75438000D03*
X106263000Y-75438000D03*
D23*
X100736000Y-78740000D03*
X103536000Y-78740000D03*
D24*
X127992000Y-73660000D03*
X125042000Y-73660000D03*
D25*
X149409000Y-59436000D03*
X148109000Y-59436000D03*
D26*
X142676000Y-61214000D03*
X142036000Y-61214000D03*
X100258000Y-66294000D03*
X99618000Y-66294000D03*
D24*
X99239600Y-62230000D03*
X96289600Y-62230000D03*
D22*
X128737000Y-78105000D03*
X129377000Y-78105000D03*
D27*
X109372000Y-83155000D03*
X109372000Y-83795000D03*
D26*
X99242000Y-98806000D03*
X98602000Y-98806000D03*
D24*
X103657000Y-83820000D03*
X100707000Y-83820000D03*
D26*
X99217000Y-101600000D03*
X98577000Y-101600000D03*
D25*
X149407000Y-62230000D03*
X148107000Y-62230000D03*
D26*
X123027000Y-53340000D03*
X122387000Y-53340000D03*
D23*
X132102000Y-74295000D03*
X134902000Y-74295000D03*
D24*
X150598000Y-51816000D03*
X147648000Y-51816000D03*
D26*
X119562000Y-53340000D03*
X118922000Y-53340000D03*
D28*
X153379500Y-80645000D03*
X150454500Y-80645000D03*
D26*
X153446000Y-69850000D03*
X152806000Y-69850000D03*
X142367000Y-64135000D03*
X141727000Y-64135000D03*
X103469000Y-91694000D03*
X102829000Y-91694000D03*
X150967000Y-69845000D03*
X150327000Y-69845000D03*
D24*
X101576000Y-70866000D03*
X98626000Y-70866000D03*
X116152000Y-56220000D03*
X113202000Y-56220000D03*
D28*
X153379500Y-85090000D03*
X150454500Y-85090000D03*
D26*
X108102000Y-88646000D03*
X107462000Y-88646000D03*
D25*
X105226000Y-98806000D03*
X103926000Y-98806000D03*
D29*
X121879500Y-59055000D03*
X124804500Y-59055000D03*
D26*
X150962000Y-72009000D03*
X150322000Y-72009000D03*
D24*
X131040000Y-62230000D03*
X128090000Y-62230000D03*
D26*
X118085000Y-116840000D03*
X117445000Y-116840000D03*
D24*
X103657000Y-81280000D03*
X100707000Y-81280000D03*
X137517000Y-59690000D03*
X134567000Y-59690000D03*
D28*
X128930000Y-68199000D03*
X126005000Y-68199000D03*
D22*
X134162000Y-78232000D03*
X134802000Y-78232000D03*
D29*
X113828100Y-64617600D03*
X116753100Y-64617600D03*
D25*
X149409000Y-65024000D03*
X148109000Y-65024000D03*
D27*
X109057000Y-65720000D03*
X109057000Y-66360000D03*
D26*
X143002000Y-57785000D03*
X142362000Y-57785000D03*
D24*
X133641500Y-68199000D03*
X130691500Y-68199000D03*
D30*
X119126000Y-63754000D03*
X119126000Y-60829000D03*
D31*
X110607300Y-58474400D03*
X110607300Y-55524400D03*
D25*
X105211000Y-101600000D03*
X103911000Y-101600000D03*
D22*
X130642000Y-80010000D03*
X131282000Y-80010000D03*
X108900000Y-75438000D03*
X109540000Y-75438000D03*
D26*
X125887000Y-78105000D03*
X125247000Y-78105000D03*
X146304000Y-54483000D03*
X145664000Y-54483000D03*
D31*
X105537000Y-67997600D03*
X105537000Y-65047600D03*
D26*
X107401000Y-91694000D03*
X106761000Y-91694000D03*
D27*
X109499000Y-78740000D03*
X109499000Y-79380000D03*
D32*
X102133000Y-66269000D03*
X102133000Y-65629000D03*
D26*
X140136000Y-62992000D03*
X139496000Y-62992000D03*
D25*
X105211000Y-104394000D03*
X103911000Y-104394000D03*
D26*
X153827000Y-55245000D03*
X153187000Y-55245000D03*
X103200600Y-60071000D03*
X102560600Y-60071000D03*
X153421000Y-72009000D03*
X152781000Y-72009000D03*
M02*
