G04 #@! TF.GenerationSoftware,KiCad,Pcbnew,8.0.7*
G04 #@! TF.CreationDate,2025-01-26T00:40:11-05:00*
G04 #@! TF.ProjectId,shadow,73686164-6f77-42e6-9b69-6361645f7063,rev?*
G04 #@! TF.SameCoordinates,Original*
G04 #@! TF.FileFunction,Copper,L2,Bot*
G04 #@! TF.FilePolarity,Positive*
%FSLAX46Y46*%
G04 Gerber Fmt 4.6, Leading zero omitted, Abs format (unit mm)*
G04 Created by KiCad (PCBNEW 8.0.7) date 2025-01-26 00:40:11*
%MOMM*%
%LPD*%
G01*
G04 APERTURE LIST*
G04 Aperture macros list*
%AMRoundRect*
0 Rectangle with rounded corners*
0 $1 Rounding radius*
0 $2 $3 $4 $5 $6 $7 $8 $9 X,Y pos of 4 corners*
0 Add a 4 corners polygon primitive as box body*
4,1,4,$2,$3,$4,$5,$6,$7,$8,$9,$2,$3,0*
0 Add four circle primitives for the rounded corners*
1,1,$1+$1,$2,$3*
1,1,$1+$1,$4,$5*
1,1,$1+$1,$6,$7*
1,1,$1+$1,$8,$9*
0 Add four rect primitives between the rounded corners*
20,1,$1+$1,$2,$3,$4,$5,0*
20,1,$1+$1,$4,$5,$6,$7,0*
20,1,$1+$1,$6,$7,$8,$9,0*
20,1,$1+$1,$8,$9,$2,$3,0*%
G04 Aperture macros list end*
G04 #@! TA.AperFunction,ComponentPad*
%ADD10R,1.700000X1.700000*%
G04 #@! TD*
G04 #@! TA.AperFunction,ComponentPad*
%ADD11O,1.700000X1.700000*%
G04 #@! TD*
G04 #@! TA.AperFunction,ComponentPad*
%ADD12RoundRect,0.250000X0.600000X0.750000X-0.600000X0.750000X-0.600000X-0.750000X0.600000X-0.750000X0*%
G04 #@! TD*
G04 #@! TA.AperFunction,ComponentPad*
%ADD13O,1.700000X2.000000*%
G04 #@! TD*
G04 #@! TA.AperFunction,ComponentPad*
%ADD14C,2.000000*%
G04 #@! TD*
G04 #@! TA.AperFunction,ComponentPad*
%ADD15C,7.500000*%
G04 #@! TD*
G04 #@! TA.AperFunction,ComponentPad*
%ADD16C,0.400000*%
G04 #@! TD*
G04 #@! TA.AperFunction,ComponentPad*
%ADD17R,1.600000X1.600000*%
G04 #@! TD*
G04 #@! TA.AperFunction,ComponentPad*
%ADD18O,1.600000X1.600000*%
G04 #@! TD*
G04 #@! TA.AperFunction,ComponentPad*
%ADD19C,0.700000*%
G04 #@! TD*
G04 #@! TA.AperFunction,ComponentPad*
%ADD20O,0.900000X2.400000*%
G04 #@! TD*
G04 #@! TA.AperFunction,ComponentPad*
%ADD21O,0.900000X1.700000*%
G04 #@! TD*
G04 #@! TA.AperFunction,ComponentPad*
%ADD22R,2.000000X2.000000*%
G04 #@! TD*
G04 #@! TA.AperFunction,SMDPad,CuDef*
%ADD23RoundRect,0.100000X-0.130000X-0.100000X0.130000X-0.100000X0.130000X0.100000X-0.130000X0.100000X0*%
G04 #@! TD*
G04 #@! TA.AperFunction,SMDPad,CuDef*
%ADD24RoundRect,0.250000X-0.375000X-0.625000X0.375000X-0.625000X0.375000X0.625000X-0.375000X0.625000X0*%
G04 #@! TD*
G04 #@! TA.AperFunction,SMDPad,CuDef*
%ADD25RoundRect,0.250000X0.325000X0.650000X-0.325000X0.650000X-0.325000X-0.650000X0.325000X-0.650000X0*%
G04 #@! TD*
G04 #@! TA.AperFunction,SMDPad,CuDef*
%ADD26R,1.000000X1.500000*%
G04 #@! TD*
G04 #@! TA.AperFunction,SMDPad,CuDef*
%ADD27RoundRect,0.100000X0.130000X0.100000X-0.130000X0.100000X-0.130000X-0.100000X0.130000X-0.100000X0*%
G04 #@! TD*
G04 #@! TA.AperFunction,SMDPad,CuDef*
%ADD28RoundRect,0.100000X-0.100000X0.130000X-0.100000X-0.130000X0.100000X-0.130000X0.100000X0.130000X0*%
G04 #@! TD*
G04 #@! TA.AperFunction,SMDPad,CuDef*
%ADD29RoundRect,0.250000X0.312500X0.625000X-0.312500X0.625000X-0.312500X-0.625000X0.312500X-0.625000X0*%
G04 #@! TD*
G04 #@! TA.AperFunction,SMDPad,CuDef*
%ADD30RoundRect,0.250000X-0.312500X-0.625000X0.312500X-0.625000X0.312500X0.625000X-0.312500X0.625000X0*%
G04 #@! TD*
G04 #@! TA.AperFunction,SMDPad,CuDef*
%ADD31RoundRect,0.250000X0.625000X-0.312500X0.625000X0.312500X-0.625000X0.312500X-0.625000X-0.312500X0*%
G04 #@! TD*
G04 #@! TA.AperFunction,SMDPad,CuDef*
%ADD32RoundRect,0.250000X0.650000X-0.325000X0.650000X0.325000X-0.650000X0.325000X-0.650000X-0.325000X0*%
G04 #@! TD*
G04 #@! TA.AperFunction,SMDPad,CuDef*
%ADD33RoundRect,0.100000X0.100000X-0.130000X0.100000X0.130000X-0.100000X0.130000X-0.100000X-0.130000X0*%
G04 #@! TD*
G04 #@! TA.AperFunction,ViaPad*
%ADD34C,0.600000*%
G04 #@! TD*
G04 #@! TA.AperFunction,Conductor*
%ADD35C,0.200000*%
G04 #@! TD*
G04 APERTURE END LIST*
D10*
X162052000Y-99060000D03*
D11*
X162052000Y-101600000D03*
X162052000Y-104140000D03*
X162052000Y-106680000D03*
D10*
X96037000Y-86360000D03*
D11*
X96037000Y-83820000D03*
X96037000Y-81280000D03*
X96037000Y-78740000D03*
D12*
X128230000Y-115570000D03*
D13*
X125730000Y-115570000D03*
D10*
X96037000Y-99060000D03*
D11*
X96037000Y-96520000D03*
X96037000Y-93980000D03*
X96037000Y-91440000D03*
D10*
X96037000Y-73660000D03*
D11*
X96037000Y-71120000D03*
X96037000Y-68580000D03*
X96037000Y-66040000D03*
D10*
X156972000Y-60960000D03*
D11*
X156972000Y-63500000D03*
X156972000Y-66040000D03*
X156972000Y-68580000D03*
D10*
X110490000Y-109220000D03*
D11*
X107950000Y-109220000D03*
X105410000Y-109220000D03*
X102870000Y-109220000D03*
D10*
X107950000Y-114300000D03*
D11*
X105410000Y-114300000D03*
X102870000Y-114300000D03*
D10*
X156972000Y-86360000D03*
D11*
X156972000Y-88900000D03*
X156972000Y-91440000D03*
X156972000Y-93980000D03*
D14*
X146277000Y-112812000D03*
X152777000Y-112812000D03*
X146277000Y-117312000D03*
X152777000Y-117312000D03*
D10*
X138430000Y-68580000D03*
D11*
X138430000Y-71120000D03*
X138430000Y-73660000D03*
X138430000Y-76200000D03*
X138430000Y-78740000D03*
X138430000Y-81280000D03*
X138430000Y-83820000D03*
X138430000Y-86360000D03*
X138430000Y-88900000D03*
X138430000Y-91440000D03*
X138430000Y-93980000D03*
X138430000Y-96520000D03*
X138430000Y-99060000D03*
X138430000Y-101600000D03*
X138430000Y-104140000D03*
D14*
X121870000Y-50328000D03*
X128370000Y-50328000D03*
X121870000Y-54828000D03*
X128370000Y-54828000D03*
D15*
X100330000Y-121920000D03*
D10*
X112557000Y-114300000D03*
D11*
X115097000Y-114300000D03*
X117637000Y-114300000D03*
X120177000Y-114300000D03*
D15*
X158750000Y-121920000D03*
D10*
X162052000Y-73660000D03*
D11*
X162052000Y-76200000D03*
X162052000Y-78740000D03*
X162052000Y-81280000D03*
D10*
X162052000Y-86360000D03*
D11*
X162052000Y-88900000D03*
X162052000Y-91440000D03*
X162052000Y-93980000D03*
D16*
X124830000Y-62265000D03*
X125730000Y-62265000D03*
X125280000Y-62865000D03*
X124830000Y-63465000D03*
X125730000Y-63465000D03*
X105928200Y-72064400D03*
X104628200Y-72064400D03*
X105928200Y-70764400D03*
X104628200Y-70764400D03*
X105928200Y-69464400D03*
X104628200Y-69464400D03*
D10*
X129057000Y-124460000D03*
D11*
X131597000Y-124460000D03*
D14*
X133427000Y-112812000D03*
X139927000Y-112812000D03*
X133427000Y-117312000D03*
X139927000Y-117312000D03*
D15*
X100330000Y-53340000D03*
D10*
X133350000Y-55855000D03*
D11*
X135890000Y-55855000D03*
X138430000Y-55855000D03*
X140970000Y-55855000D03*
D17*
X147574000Y-123190000D03*
D18*
X139954000Y-123190000D03*
D19*
X110817000Y-119495200D03*
X111667000Y-119495200D03*
X112517000Y-119495200D03*
X113367000Y-119495200D03*
X114217000Y-119495200D03*
X115067000Y-119495200D03*
X115917000Y-119495200D03*
X116767000Y-119495200D03*
X116767000Y-120845200D03*
X115917000Y-120845200D03*
X115067000Y-120845200D03*
X114217000Y-120845200D03*
X113367000Y-120845200D03*
X112517000Y-120845200D03*
X111667000Y-120845200D03*
X110817000Y-120845200D03*
D20*
X109467000Y-120475200D03*
D21*
X109467000Y-123855200D03*
D20*
X118117000Y-120475200D03*
D21*
X118117000Y-123855200D03*
D10*
X113030000Y-68580000D03*
D11*
X113030000Y-71120000D03*
X113030000Y-73660000D03*
X113030000Y-76200000D03*
X113030000Y-78740000D03*
X113030000Y-81280000D03*
X113030000Y-83820000D03*
X113030000Y-86360000D03*
X113030000Y-88900000D03*
X113030000Y-91440000D03*
X113030000Y-93980000D03*
X113030000Y-96520000D03*
X113030000Y-99060000D03*
X113030000Y-101600000D03*
X113030000Y-104140000D03*
D10*
X162052000Y-60960000D03*
D11*
X162052000Y-63500000D03*
X162052000Y-66040000D03*
X162052000Y-68580000D03*
D15*
X129540000Y-86360000D03*
D10*
X156997000Y-73660000D03*
D11*
X156997000Y-76200000D03*
X156997000Y-78740000D03*
X156997000Y-81280000D03*
D10*
X120650000Y-68610000D03*
D11*
X120650000Y-71150000D03*
X120650000Y-73690000D03*
X120650000Y-76230000D03*
X120650000Y-78770000D03*
X120650000Y-81310000D03*
X120650000Y-83850000D03*
X120650000Y-86390000D03*
X120650000Y-88930000D03*
X120650000Y-91470000D03*
X120650000Y-94010000D03*
X120650000Y-96550000D03*
X120650000Y-99090000D03*
X120650000Y-101630000D03*
X120650000Y-104170000D03*
D15*
X158750000Y-53340000D03*
D10*
X96037000Y-111760000D03*
D11*
X96037000Y-109220000D03*
X96037000Y-106680000D03*
X96037000Y-104140000D03*
D10*
X146050000Y-68580000D03*
D11*
X146050000Y-71120000D03*
X146050000Y-73660000D03*
X146050000Y-76200000D03*
X146050000Y-78740000D03*
X146050000Y-81280000D03*
X146050000Y-83820000D03*
X146050000Y-86360000D03*
X146050000Y-88900000D03*
X146050000Y-91440000D03*
X146050000Y-93980000D03*
X146050000Y-96520000D03*
X146050000Y-99060000D03*
X146050000Y-101600000D03*
X146050000Y-104140000D03*
D10*
X156972000Y-99060000D03*
D11*
X156972000Y-101600000D03*
X156972000Y-104140000D03*
X156972000Y-106680000D03*
D10*
X133350000Y-50800000D03*
D11*
X135890000Y-50800000D03*
X138430000Y-50800000D03*
X140970000Y-50800000D03*
D22*
X106683800Y-60985400D03*
D14*
X111683800Y-60985400D03*
D23*
X105623000Y-75438000D03*
X106263000Y-75438000D03*
D24*
X100736000Y-78740000D03*
X103536000Y-78740000D03*
D25*
X127992000Y-73660000D03*
X125042000Y-73660000D03*
D26*
X149409000Y-59436000D03*
X148109000Y-59436000D03*
D27*
X142676000Y-61214000D03*
X142036000Y-61214000D03*
X100258000Y-66294000D03*
X99618000Y-66294000D03*
D25*
X99239600Y-62230000D03*
X96289600Y-62230000D03*
D23*
X128737000Y-78105000D03*
X129377000Y-78105000D03*
D28*
X109372000Y-83155000D03*
X109372000Y-83795000D03*
D27*
X99242000Y-98806000D03*
X98602000Y-98806000D03*
D25*
X103657000Y-83820000D03*
X100707000Y-83820000D03*
D27*
X99217000Y-101600000D03*
X98577000Y-101600000D03*
D26*
X149407000Y-62230000D03*
X148107000Y-62230000D03*
D27*
X123027000Y-53340000D03*
X122387000Y-53340000D03*
D24*
X132102000Y-74295000D03*
X134902000Y-74295000D03*
D25*
X150598000Y-51816000D03*
X147648000Y-51816000D03*
D27*
X119562000Y-53340000D03*
X118922000Y-53340000D03*
D29*
X153379500Y-80645000D03*
X150454500Y-80645000D03*
D27*
X153446000Y-69850000D03*
X152806000Y-69850000D03*
X142367000Y-64135000D03*
X141727000Y-64135000D03*
X103469000Y-91694000D03*
X102829000Y-91694000D03*
X150967000Y-69845000D03*
X150327000Y-69845000D03*
D25*
X101576000Y-70866000D03*
X98626000Y-70866000D03*
X116152000Y-56220000D03*
X113202000Y-56220000D03*
D29*
X153379500Y-85090000D03*
X150454500Y-85090000D03*
D27*
X108102000Y-88646000D03*
X107462000Y-88646000D03*
D26*
X105226000Y-98806000D03*
X103926000Y-98806000D03*
D30*
X121879500Y-59055000D03*
X124804500Y-59055000D03*
D27*
X150962000Y-72009000D03*
X150322000Y-72009000D03*
D25*
X131040000Y-62230000D03*
X128090000Y-62230000D03*
D27*
X118085000Y-116840000D03*
X117445000Y-116840000D03*
D25*
X103657000Y-81280000D03*
X100707000Y-81280000D03*
X137517000Y-59690000D03*
X134567000Y-59690000D03*
D29*
X128930000Y-68199000D03*
X126005000Y-68199000D03*
D23*
X134162000Y-78232000D03*
X134802000Y-78232000D03*
D30*
X113828100Y-64617600D03*
X116753100Y-64617600D03*
D26*
X149409000Y-65024000D03*
X148109000Y-65024000D03*
D28*
X109057000Y-65720000D03*
X109057000Y-66360000D03*
D27*
X143002000Y-57785000D03*
X142362000Y-57785000D03*
D25*
X133641500Y-68199000D03*
X130691500Y-68199000D03*
D31*
X119126000Y-63754000D03*
X119126000Y-60829000D03*
D32*
X110607300Y-58474400D03*
X110607300Y-55524400D03*
D26*
X105211000Y-101600000D03*
X103911000Y-101600000D03*
D23*
X130642000Y-80010000D03*
X131282000Y-80010000D03*
X108900000Y-75438000D03*
X109540000Y-75438000D03*
D27*
X125887000Y-78105000D03*
X125247000Y-78105000D03*
X146304000Y-54483000D03*
X145664000Y-54483000D03*
D32*
X105537000Y-67997600D03*
X105537000Y-65047600D03*
D27*
X107401000Y-91694000D03*
X106761000Y-91694000D03*
D28*
X109499000Y-78740000D03*
X109499000Y-79380000D03*
D33*
X102133000Y-66269000D03*
X102133000Y-65629000D03*
D27*
X140136000Y-62992000D03*
X139496000Y-62992000D03*
D26*
X105211000Y-104394000D03*
X103911000Y-104394000D03*
D27*
X153827000Y-55245000D03*
X153187000Y-55245000D03*
X103200600Y-60071000D03*
X102560600Y-60071000D03*
X153421000Y-72009000D03*
X152781000Y-72009000D03*
D34*
X117837800Y-60088900D03*
X115360700Y-60206400D03*
X148666400Y-83768900D03*
X127942300Y-60383400D03*
X123906900Y-65254500D03*
X124898100Y-67004400D03*
X107967700Y-90473600D03*
X128883400Y-66481200D03*
X121852900Y-63754000D03*
X120911600Y-57981300D03*
X116558000Y-80040000D03*
X119014800Y-90212300D03*
X116044000Y-59223400D03*
X118672800Y-59223400D03*
X109604200Y-72013500D03*
X129540000Y-65860800D03*
X147788600Y-88372100D03*
X153938700Y-71144300D03*
X148764100Y-73085200D03*
X150376100Y-69104400D03*
X142827200Y-69845000D03*
X142827200Y-90215300D03*
X149243100Y-76200000D03*
X149844800Y-71383900D03*
X150550500Y-78186100D03*
X152239500Y-64669400D03*
X153298700Y-65277000D03*
X136756600Y-95173100D03*
X99005900Y-95173100D03*
X130088000Y-60170600D03*
X125519900Y-65257200D03*
X124795200Y-92710000D03*
X104321400Y-94539300D03*
X106586600Y-110577600D03*
X110074400Y-83113200D03*
X99798100Y-69349700D03*
X109433500Y-68031900D03*
X107985500Y-54077600D03*
X109818500Y-99767700D03*
X100183400Y-86955000D03*
X100183400Y-97081600D03*
X103719700Y-106053900D03*
X109216800Y-98867300D03*
X109457300Y-84590800D03*
X107884200Y-102978900D03*
X107969300Y-102172900D03*
X99571200Y-95798200D03*
X99468800Y-84026400D03*
X113554300Y-53475900D03*
X103001400Y-107308900D03*
X144908600Y-54455000D03*
X143418300Y-65024000D03*
X147773100Y-57060000D03*
X103929800Y-93688300D03*
X105630100Y-100073200D03*
X104004800Y-102997000D03*
X102242700Y-92207000D03*
X97590400Y-91987100D03*
X97791300Y-104394000D03*
X153484500Y-58384300D03*
X134382000Y-61774800D03*
X115217000Y-54728600D03*
X101001500Y-65517400D03*
X101417400Y-64260700D03*
X101417400Y-60167900D03*
X134382000Y-72873400D03*
X106019600Y-74727800D03*
X108153200Y-67997600D03*
X109847300Y-66360000D03*
X132140800Y-62992000D03*
X132406900Y-78894400D03*
X133129300Y-66328000D03*
X131403400Y-65085200D03*
X135833200Y-57856600D03*
X135833200Y-80745100D03*
X107573200Y-86940700D03*
X105278200Y-66511500D03*
X127329900Y-77730300D03*
X105278200Y-78740000D03*
X119487100Y-59497100D03*
X131805200Y-69016500D03*
D35*
X111667000Y-120726400D02*
X111667000Y-120845200D01*
X112223200Y-120170200D02*
X111667000Y-120726400D01*
X115323300Y-120170200D02*
X112223200Y-120170200D01*
X115917000Y-119576500D02*
X115323300Y-120170200D01*
X115917000Y-119495200D02*
X115917000Y-119576500D01*
X115478200Y-60088900D02*
X115360700Y-60206400D01*
X117837800Y-60088900D02*
X115478200Y-60088900D01*
X113628700Y-58474400D02*
X110607300Y-58474400D01*
X115360700Y-60206400D02*
X113628700Y-58474400D01*
X150454500Y-85090000D02*
X150454500Y-83768900D01*
X134748300Y-122088300D02*
X128230000Y-115570000D01*
X145370600Y-122088300D02*
X134748300Y-122088300D01*
X146472300Y-123190000D02*
X145370600Y-122088300D01*
X147574000Y-123190000D02*
X146472300Y-123190000D01*
X150454500Y-83768900D02*
X150454500Y-80645000D01*
X150454500Y-83768900D02*
X148666400Y-83768900D01*
X119968900Y-61764800D02*
X121324800Y-60408900D01*
X119363200Y-61764800D02*
X119968900Y-61764800D01*
X116753100Y-64374900D02*
X119363200Y-61764800D01*
X116753100Y-64617600D02*
X116753100Y-64374900D01*
X117135800Y-56220000D02*
X116152000Y-56220000D01*
X121324800Y-60408900D02*
X117135800Y-56220000D01*
X117390000Y-65254500D02*
X123906900Y-65254500D01*
X116753100Y-64617600D02*
X117390000Y-65254500D01*
X121436800Y-60383400D02*
X127942300Y-60383400D01*
X121411200Y-60409000D02*
X121436800Y-60383400D01*
X121324800Y-60409000D02*
X121411200Y-60409000D01*
X121324800Y-60408900D02*
X121324800Y-60409000D01*
X114495900Y-67004400D02*
X124898100Y-67004400D01*
X111011500Y-63520000D02*
X114495900Y-67004400D01*
X97579600Y-63520000D02*
X111011500Y-63520000D01*
X96289600Y-62230000D02*
X97579600Y-63520000D01*
X138430000Y-50800000D02*
X139581700Y-50800000D01*
X146050000Y-71120000D02*
X147201700Y-71120000D01*
X141196100Y-52682900D02*
X139581700Y-51068500D01*
X144748600Y-52682900D02*
X141196100Y-52682900D01*
X146304000Y-54238300D02*
X144748600Y-52682900D01*
X146304000Y-54483000D02*
X146304000Y-54238300D01*
X139581700Y-51068500D02*
X139581700Y-50800000D01*
X144743700Y-63281700D02*
X149407000Y-63281700D01*
X142676000Y-61214000D02*
X144743700Y-63281700D01*
X156972000Y-66040000D02*
X155820300Y-66040000D01*
X105211000Y-101600000D02*
X105211000Y-104394000D01*
X96037000Y-106680000D02*
X97188700Y-106680000D01*
X149407000Y-62230000D02*
X149407000Y-62755800D01*
X149407000Y-62755800D02*
X149407000Y-63281700D01*
X149409000Y-62757800D02*
X149409000Y-65024000D01*
X149407000Y-62755800D02*
X149409000Y-62757800D01*
X148799600Y-61178300D02*
X149407000Y-61178300D01*
X148109000Y-60487700D02*
X148799600Y-61178300D01*
X148109000Y-59436000D02*
X148109000Y-60487700D01*
X149407000Y-62230000D02*
X149407000Y-61178300D01*
X103657000Y-83820000D02*
X103657000Y-81280000D01*
X103657000Y-81280000D02*
X106197000Y-78740000D01*
X106197000Y-78740000D02*
X109499000Y-78740000D01*
X104259000Y-76802000D02*
X105623000Y-75438000D01*
X102674000Y-76802000D02*
X104259000Y-76802000D01*
X100736000Y-78740000D02*
X102674000Y-76802000D01*
X104259000Y-76802000D02*
X106197000Y-78740000D01*
X155820300Y-67475700D02*
X155820300Y-66040000D01*
X153446000Y-69850000D02*
X155820300Y-67475700D01*
X138430000Y-71120000D02*
X146050000Y-71120000D01*
X149409000Y-65024000D02*
X150210700Y-65024000D01*
X105410000Y-109220000D02*
X106561700Y-109220000D01*
X99728700Y-78740000D02*
X100736000Y-78740000D01*
X97188700Y-81280000D02*
X99728700Y-78740000D01*
X96037000Y-81280000D02*
X97188700Y-81280000D01*
X156972000Y-104140000D02*
X162052000Y-104140000D01*
X156997000Y-78740000D02*
X162052000Y-78740000D01*
X162052000Y-66040000D02*
X156972000Y-66040000D01*
X162052000Y-91440000D02*
X156972000Y-91440000D01*
X153446000Y-70322500D02*
X152986300Y-70782200D01*
X153446000Y-69850000D02*
X153446000Y-70322500D01*
X147539500Y-70782200D02*
X147201700Y-71120000D01*
X152986300Y-70782200D02*
X147539500Y-70782200D01*
X105211000Y-104394000D02*
X105211000Y-105445700D01*
X105410000Y-109220000D02*
X104258300Y-109220000D01*
X101430900Y-75438000D02*
X105623000Y-75438000D01*
X97188700Y-71195800D02*
X101430900Y-75438000D01*
X97188700Y-70595400D02*
X97188700Y-71195800D01*
X96325000Y-69731700D02*
X97188700Y-70595400D01*
X96037000Y-69731700D02*
X96325000Y-69731700D01*
X96037000Y-68580000D02*
X96037000Y-69731700D01*
X108102000Y-88320300D02*
X108102000Y-88646000D01*
X103657000Y-83875300D02*
X108102000Y-88320300D01*
X103657000Y-83820000D02*
X103657000Y-83875300D01*
X106561700Y-109524700D02*
X106561700Y-109220000D01*
X111337000Y-114300000D02*
X106561700Y-109524700D01*
X111405300Y-114300000D02*
X111337000Y-114300000D01*
X112557000Y-114300000D02*
X111405300Y-114300000D01*
X98423000Y-105445700D02*
X97188700Y-106680000D01*
X105211000Y-105445700D02*
X98423000Y-105445700D01*
X105211000Y-101600000D02*
X106012700Y-101600000D01*
X103926000Y-98806000D02*
X103926000Y-97754300D01*
X107401000Y-91694000D02*
X107401000Y-91168200D01*
X107967700Y-90601500D02*
X107967700Y-90473600D01*
X107401000Y-91168200D02*
X107967700Y-90601500D01*
X108102000Y-90339300D02*
X108102000Y-88646000D01*
X107967700Y-90473600D02*
X108102000Y-90339300D01*
X153421000Y-71685500D02*
X153421000Y-72009000D01*
X152986300Y-71250800D02*
X153421000Y-71685500D01*
X152986300Y-70782200D02*
X152986300Y-71250800D01*
X106474800Y-101137900D02*
X106012700Y-101600000D01*
X106474800Y-98361000D02*
X106474800Y-101137900D01*
X105868100Y-97754300D02*
X106474800Y-98361000D01*
X103926000Y-97754300D02*
X105868100Y-97754300D01*
X115261700Y-53340000D02*
X118922000Y-53340000D01*
X114122400Y-54479300D02*
X115261700Y-53340000D01*
X109895900Y-54479300D02*
X114122400Y-54479300D01*
X106683800Y-57691400D02*
X109895900Y-54479300D01*
X106683800Y-60985400D02*
X106683800Y-57691400D01*
X137893600Y-52756600D02*
X139581700Y-51068500D01*
X119288300Y-52756600D02*
X137893600Y-52756600D01*
X118922000Y-53122900D02*
X119288300Y-52756600D01*
X118922000Y-53340000D02*
X118922000Y-53122900D01*
X102751900Y-93980000D02*
X96037000Y-93980000D01*
X105563700Y-91168200D02*
X102751900Y-93980000D01*
X107401000Y-91168200D02*
X105563700Y-91168200D01*
X151226700Y-66040000D02*
X155820300Y-66040000D01*
X150210700Y-65024000D02*
X151226700Y-66040000D01*
X104258300Y-108932000D02*
X104258300Y-109220000D01*
X103394600Y-108068300D02*
X104258300Y-108932000D01*
X98577000Y-108068300D02*
X103394600Y-108068300D01*
X97188700Y-106680000D02*
X98577000Y-108068300D01*
X150972000Y-69850000D02*
X152806000Y-69850000D01*
X150967000Y-69845000D02*
X150972000Y-69850000D01*
X152781000Y-72009000D02*
X150962000Y-72009000D01*
X109372000Y-79507000D02*
X109372000Y-83155000D01*
X109499000Y-79380000D02*
X109372000Y-79507000D01*
X106263000Y-75438000D02*
X108900000Y-75438000D01*
X127722800Y-66481200D02*
X128883400Y-66481200D01*
X126005000Y-68199000D02*
X127722800Y-66481200D01*
X119126000Y-63754000D02*
X121852900Y-63754000D01*
X120911600Y-58087100D02*
X120911600Y-57981300D01*
X121879500Y-59055000D02*
X120911600Y-58087100D01*
X129429300Y-80040000D02*
X116558000Y-80040000D01*
X129951700Y-80562400D02*
X129429300Y-80040000D01*
X134759000Y-80562400D02*
X129951700Y-80562400D01*
X137750100Y-77571300D02*
X134759000Y-80562400D01*
X150786600Y-77571300D02*
X137750100Y-77571300D01*
X153379500Y-80164200D02*
X150786600Y-77571300D01*
X153379500Y-80645000D02*
X153379500Y-80164200D01*
X118672800Y-59223400D02*
X116044000Y-59223400D01*
X121021100Y-90212300D02*
X119014800Y-90212300D01*
X121267900Y-90459100D02*
X121021100Y-90212300D01*
X132741600Y-90459100D02*
X121267900Y-90459100D01*
X135452400Y-87748300D02*
X132741600Y-90459100D01*
X150721200Y-87748300D02*
X135452400Y-87748300D01*
X153379500Y-85090000D02*
X150721200Y-87748300D01*
X109004000Y-72613700D02*
X109604200Y-72013500D01*
X103323700Y-72613700D02*
X109004000Y-72613700D01*
X101576000Y-70866000D02*
X103323700Y-72613700D01*
X115071300Y-65860800D02*
X129540000Y-65860800D01*
X113828100Y-64617600D02*
X115071300Y-65860800D01*
X112259600Y-63049100D02*
X113828100Y-64617600D01*
X100058700Y-63049100D02*
X112259600Y-63049100D01*
X99239600Y-62230000D02*
X100058700Y-63049100D01*
X114211700Y-96550000D02*
X114181700Y-96520000D01*
X120650000Y-96550000D02*
X114211700Y-96550000D01*
X113030000Y-96520000D02*
X114181700Y-96520000D01*
X114211700Y-73690000D02*
X114181700Y-73660000D01*
X120650000Y-73690000D02*
X114211700Y-73690000D01*
X113030000Y-73660000D02*
X114181700Y-73660000D01*
X114211700Y-101630000D02*
X114181700Y-101600000D01*
X120650000Y-101630000D02*
X114211700Y-101630000D01*
X113030000Y-101600000D02*
X114181700Y-101600000D01*
X114211700Y-86390000D02*
X114181700Y-86360000D01*
X120650000Y-86390000D02*
X114211700Y-86390000D01*
X113030000Y-86360000D02*
X114181700Y-86360000D01*
X114211700Y-78770000D02*
X114181700Y-78740000D01*
X120650000Y-78770000D02*
X114211700Y-78770000D01*
X113030000Y-78740000D02*
X114181700Y-78740000D01*
X114211700Y-71150000D02*
X114181700Y-71120000D01*
X120650000Y-71150000D02*
X114211700Y-71150000D01*
X113030000Y-71120000D02*
X114181700Y-71120000D01*
X114211700Y-76230000D02*
X114181700Y-76200000D01*
X120650000Y-76230000D02*
X114211700Y-76230000D01*
X113030000Y-76200000D02*
X114181700Y-76200000D01*
X114211700Y-104170000D02*
X114181700Y-104140000D01*
X120650000Y-104170000D02*
X114211700Y-104170000D01*
X113030000Y-104140000D02*
X114181700Y-104140000D01*
X113030000Y-93980000D02*
X114181700Y-93980000D01*
X114211700Y-94010000D02*
X114181700Y-93980000D01*
X120650000Y-94010000D02*
X114211700Y-94010000D01*
X114211700Y-68610000D02*
X114181700Y-68580000D01*
X120650000Y-68610000D02*
X114211700Y-68610000D01*
X113030000Y-68580000D02*
X114181700Y-68580000D01*
X146050000Y-104140000D02*
X138430000Y-104140000D01*
X146050000Y-86360000D02*
X138430000Y-86360000D01*
X146050000Y-83820000D02*
X138430000Y-83820000D01*
X146050000Y-81280000D02*
X138430000Y-81280000D01*
X128370000Y-50328000D02*
X121870000Y-50328000D01*
X146050000Y-68580000D02*
X138430000Y-68580000D01*
X146050000Y-88900000D02*
X138430000Y-88900000D01*
X139927000Y-112812000D02*
X133427000Y-112812000D01*
X146050000Y-93980000D02*
X138430000Y-93980000D01*
X146050000Y-101600000D02*
X138430000Y-101600000D01*
X146050000Y-99060000D02*
X138430000Y-99060000D01*
X146050000Y-96520000D02*
X138430000Y-96520000D01*
X152777000Y-112812000D02*
X146277000Y-112812000D01*
X146050000Y-91440000D02*
X138430000Y-91440000D01*
X146050000Y-76200000D02*
X138430000Y-76200000D01*
X146050000Y-78740000D02*
X138430000Y-78740000D01*
X153808200Y-88372100D02*
X147788600Y-88372100D01*
X155820300Y-86360000D02*
X153808200Y-88372100D01*
X156972000Y-86360000D02*
X155820300Y-86360000D01*
X158384600Y-71144300D02*
X160900300Y-73660000D01*
X153938700Y-71144300D02*
X158384600Y-71144300D01*
X162052000Y-73660000D02*
X160900300Y-73660000D01*
X156997000Y-73660000D02*
X155845300Y-73660000D01*
X155270500Y-73085200D02*
X148764100Y-73085200D01*
X155845300Y-73660000D02*
X155270500Y-73085200D01*
X114211700Y-91470000D02*
X114181700Y-91440000D01*
X120650000Y-91470000D02*
X114211700Y-91470000D01*
X113030000Y-91440000D02*
X114181700Y-91440000D01*
X150327000Y-69845000D02*
X142827200Y-69845000D01*
X150327000Y-69153500D02*
X150376100Y-69104400D01*
X150327000Y-69845000D02*
X150327000Y-69153500D01*
X133468900Y-91470000D02*
X120650000Y-91470000D01*
X134723600Y-90215300D02*
X133468900Y-91470000D01*
X142827200Y-90215300D02*
X134723600Y-90215300D01*
X156997000Y-76200000D02*
X149243100Y-76200000D01*
X113030000Y-88900000D02*
X114181700Y-88900000D01*
X149844800Y-71531800D02*
X149844800Y-71383900D01*
X150322000Y-72009000D02*
X149844800Y-71531800D01*
X120650000Y-88930000D02*
X121801700Y-88930000D01*
X148844900Y-79891700D02*
X150550500Y-78186100D01*
X137961100Y-79891700D02*
X148844900Y-79891700D01*
X136213600Y-81639200D02*
X137961100Y-79891700D01*
X128518700Y-81639200D02*
X136213600Y-81639200D01*
X121801700Y-88356200D02*
X128518700Y-81639200D01*
X121801700Y-88930000D02*
X121801700Y-88356200D01*
X114211700Y-88930000D02*
X114181700Y-88900000D01*
X120650000Y-88930000D02*
X114211700Y-88930000D01*
X162052000Y-63500000D02*
X160900300Y-63500000D01*
X159730900Y-64669400D02*
X152239500Y-64669400D01*
X160900300Y-63500000D02*
X159730900Y-64669400D01*
X162052000Y-60960000D02*
X160900300Y-60960000D01*
X151956800Y-65277000D02*
X153298700Y-65277000D01*
X151617000Y-64937200D02*
X151956800Y-65277000D01*
X151617000Y-64401900D02*
X151617000Y-64937200D01*
X153907200Y-62111700D02*
X151617000Y-64401900D01*
X159748600Y-62111700D02*
X153907200Y-62111700D01*
X160900300Y-60960000D02*
X159748600Y-62111700D01*
X136756600Y-95173100D02*
X99005900Y-95173100D01*
X106150700Y-92710000D02*
X124795200Y-92710000D01*
X104321400Y-94539300D02*
X106150700Y-92710000D01*
X129252800Y-61005800D02*
X130088000Y-60170600D01*
X127481100Y-61005800D02*
X129252800Y-61005800D01*
X126811900Y-61675000D02*
X127481100Y-61005800D01*
X126811900Y-63965200D02*
X126811900Y-61675000D01*
X125519900Y-65257200D02*
X126811900Y-63965200D01*
X96037000Y-109220000D02*
X97188700Y-109220000D01*
X98546300Y-110577600D02*
X106586600Y-110577600D01*
X97188700Y-109220000D02*
X98546300Y-110577600D01*
X114211700Y-81310000D02*
X114181700Y-81280000D01*
X120650000Y-81310000D02*
X114211700Y-81310000D01*
X113605900Y-81280000D02*
X114181700Y-81280000D01*
X113605900Y-81280000D02*
X113030000Y-81280000D01*
X109540000Y-76926200D02*
X109540000Y-75438000D01*
X112742100Y-80128300D02*
X109540000Y-76926200D01*
X113030000Y-80128300D02*
X112742100Y-80128300D01*
X113030000Y-81280000D02*
X113030000Y-80704100D01*
X113030000Y-80704100D02*
X113030000Y-80128300D01*
X110620900Y-83113200D02*
X110074400Y-83113200D01*
X113030000Y-80704100D02*
X110620900Y-83113200D01*
X135890000Y-50800000D02*
X134738300Y-50800000D01*
X107446600Y-70018800D02*
X109433500Y-68031900D01*
X104360600Y-70018800D02*
X107446600Y-70018800D01*
X103691500Y-69349700D02*
X104360600Y-70018800D01*
X99798100Y-69349700D02*
X103691500Y-69349700D01*
X113855900Y-54077600D02*
X107985500Y-54077600D01*
X115646600Y-52286900D02*
X113855900Y-54077600D01*
X134043200Y-52286900D02*
X115646600Y-52286900D01*
X134738300Y-51591800D02*
X134043200Y-52286900D01*
X134738300Y-50800000D02*
X134738300Y-51591800D01*
X96037000Y-86360000D02*
X97188700Y-86360000D01*
X97783700Y-86955000D02*
X100183400Y-86955000D01*
X97188700Y-86360000D02*
X97783700Y-86955000D01*
X100384300Y-96880700D02*
X100183400Y-97081600D01*
X106328500Y-96880700D02*
X100384300Y-96880700D01*
X109215500Y-99767700D02*
X106328500Y-96880700D01*
X109818500Y-99767700D02*
X109215500Y-99767700D01*
X120177000Y-114300000D02*
X119025300Y-114300000D01*
X111067100Y-106053900D02*
X103719700Y-106053900D01*
X119025300Y-114012100D02*
X111067100Y-106053900D01*
X119025300Y-114300000D02*
X119025300Y-114012100D01*
X96037000Y-96520000D02*
X97188700Y-96520000D01*
X97237400Y-96471300D02*
X97188700Y-96520000D01*
X106820800Y-96471300D02*
X97237400Y-96471300D01*
X109216800Y-98867300D02*
X106820800Y-96471300D01*
X114211700Y-83850000D02*
X114181700Y-83820000D01*
X120650000Y-83850000D02*
X114211700Y-83850000D01*
X113030000Y-83820000D02*
X114181700Y-83820000D01*
X113030000Y-83820000D02*
X111878300Y-83820000D01*
X109457300Y-83820000D02*
X109457300Y-84590800D01*
X109397000Y-83820000D02*
X109457300Y-83820000D01*
X109372000Y-83795000D02*
X109397000Y-83820000D01*
X109457300Y-83820000D02*
X111878300Y-83820000D01*
X96037000Y-99060000D02*
X97188700Y-99060000D01*
X98557900Y-97690800D02*
X97188700Y-99060000D01*
X103116800Y-97690800D02*
X98557900Y-97690800D01*
X103497600Y-97310000D02*
X103116800Y-97690800D01*
X105995000Y-97310000D02*
X103497600Y-97310000D01*
X107367600Y-98682600D02*
X105995000Y-97310000D01*
X107367600Y-102462300D02*
X107367600Y-98682600D01*
X107884200Y-102978900D02*
X107367600Y-102462300D01*
X97395100Y-84026400D02*
X99468800Y-84026400D01*
X97188700Y-83820000D02*
X97395100Y-84026400D01*
X96037000Y-83820000D02*
X97188700Y-83820000D01*
X108323200Y-102172900D02*
X107969300Y-102172900D01*
X110457500Y-100038600D02*
X108323200Y-102172900D01*
X110457500Y-99232400D02*
X110457500Y-100038600D01*
X107023300Y-95798200D02*
X110457500Y-99232400D01*
X99571200Y-95798200D02*
X107023300Y-95798200D01*
X133350000Y-50800000D02*
X132198300Y-50800000D01*
X115211400Y-51818800D02*
X113554300Y-53475900D01*
X131179500Y-51818800D02*
X115211400Y-51818800D01*
X132198300Y-50800000D02*
X131179500Y-51818800D01*
X117637000Y-114300000D02*
X116485300Y-114300000D01*
X116485300Y-114012000D02*
X116485300Y-114300000D01*
X115621600Y-113148300D02*
X116485300Y-114012000D01*
X112257300Y-113148300D02*
X115621600Y-113148300D01*
X109220000Y-110111000D02*
X112257300Y-113148300D01*
X109220000Y-108859300D02*
X109220000Y-110111000D01*
X107669600Y-107308900D02*
X109220000Y-108859300D01*
X103001400Y-107308900D02*
X107669600Y-107308900D01*
X145636000Y-54455000D02*
X144908600Y-54455000D01*
X145664000Y-54483000D02*
X145636000Y-54455000D01*
X148109000Y-65024000D02*
X143418300Y-65024000D01*
X141727000Y-64356900D02*
X141727000Y-64135000D01*
X142394100Y-65024000D02*
X141727000Y-64356900D01*
X143418300Y-65024000D02*
X142394100Y-65024000D01*
X148107000Y-62230000D02*
X147305300Y-62230000D01*
X144955400Y-59880100D02*
X147305300Y-62230000D01*
X144225000Y-59880100D02*
X144955400Y-59880100D01*
X142362000Y-58017100D02*
X144225000Y-59880100D01*
X142362000Y-57785000D02*
X142362000Y-58017100D01*
X147773100Y-57062400D02*
X147773100Y-57060000D01*
X144955400Y-59880100D02*
X147773100Y-57062400D01*
X105924100Y-91694000D02*
X103929800Y-93688300D01*
X106761000Y-91694000D02*
X105924100Y-91694000D01*
X105226000Y-98806000D02*
X106027700Y-98806000D01*
X105630100Y-99881700D02*
X105630100Y-100073200D01*
X101152100Y-99881700D02*
X105630100Y-99881700D01*
X99573000Y-98302600D02*
X101152100Y-99881700D01*
X98911500Y-98302600D02*
X99573000Y-98302600D01*
X98602000Y-98612100D02*
X98911500Y-98302600D01*
X98602000Y-98806000D02*
X98602000Y-98612100D01*
X106027700Y-99747300D02*
X106027700Y-98806000D01*
X105893300Y-99881700D02*
X106027700Y-99747300D01*
X105630100Y-99881700D02*
X105893300Y-99881700D01*
X102606900Y-101097600D02*
X103109300Y-101600000D01*
X98888400Y-101097600D02*
X102606900Y-101097600D01*
X98577000Y-101409000D02*
X98888400Y-101097600D01*
X98577000Y-101600000D02*
X98577000Y-101409000D01*
X103911000Y-101600000D02*
X103510200Y-101600000D01*
X103510200Y-101600000D02*
X103109300Y-101600000D01*
X104004800Y-102094600D02*
X104004800Y-102997000D01*
X103510200Y-101600000D02*
X104004800Y-102094600D01*
X102535900Y-91987100D02*
X102242700Y-91987100D01*
X102829000Y-91694000D02*
X102535900Y-91987100D01*
X102242700Y-91987100D02*
X102242700Y-92207000D01*
X103911000Y-104394000D02*
X97791300Y-104394000D01*
X102242700Y-91987100D02*
X97590400Y-91987100D01*
X149409000Y-59436000D02*
X149409000Y-58384300D01*
X153187000Y-55245000D02*
X153187000Y-58384300D01*
X149409000Y-58384300D02*
X153187000Y-58384300D01*
X153187000Y-58384300D02*
X153484500Y-58384300D01*
X133926800Y-62230000D02*
X134382000Y-61774800D01*
X131040000Y-62230000D02*
X133926800Y-62230000D01*
X119562000Y-53340000D02*
X122387000Y-53340000D01*
X118380800Y-54728600D02*
X115217000Y-54728600D01*
X119562000Y-53547400D02*
X118380800Y-54728600D01*
X119562000Y-53340000D02*
X119562000Y-53547400D01*
X103200600Y-60310500D02*
X103200600Y-60071000D01*
X102741500Y-60769600D02*
X103200600Y-60310500D01*
X95945400Y-60769600D02*
X102741500Y-60769600D01*
X95396900Y-61318100D02*
X95945400Y-60769600D01*
X95396900Y-63106900D02*
X95396900Y-61318100D01*
X98584000Y-66294000D02*
X95396900Y-63106900D01*
X99618000Y-66294000D02*
X98584000Y-66294000D01*
X102463700Y-60167900D02*
X102560600Y-60071000D01*
X101417400Y-60167900D02*
X102463700Y-60167900D01*
X102021400Y-65517400D02*
X101417400Y-65517400D01*
X102133000Y-65629000D02*
X102021400Y-65517400D01*
X101417400Y-65517400D02*
X101001500Y-65517400D01*
X101417400Y-65517400D02*
X101417400Y-64260700D01*
X134382000Y-73775000D02*
X134382000Y-72873400D01*
X134902000Y-74295000D02*
X134382000Y-73775000D01*
X107742400Y-74727800D02*
X106019600Y-74727800D01*
X112537000Y-69933200D02*
X107742400Y-74727800D01*
X131303100Y-69933200D02*
X112537000Y-69933200D01*
X134243300Y-72873400D02*
X131303100Y-69933200D01*
X134382000Y-72873400D02*
X134243300Y-72873400D01*
X118117000Y-116872000D02*
X118117000Y-120475200D01*
X118085000Y-116840000D02*
X118117000Y-116872000D01*
X118117000Y-123855200D02*
X118117000Y-122703500D01*
X109467000Y-123855200D02*
X109467000Y-122703500D01*
X109467000Y-122703500D02*
X118117000Y-122703500D01*
X132102000Y-74295000D02*
X132102000Y-77719800D01*
X129762200Y-77719800D02*
X129377000Y-78105000D01*
X132102000Y-77719800D02*
X129762200Y-77719800D01*
X131467000Y-73660000D02*
X127992000Y-73660000D01*
X132102000Y-74295000D02*
X131467000Y-73660000D01*
X105537000Y-67997600D02*
X108153200Y-67997600D01*
X134802000Y-78040900D02*
X134480900Y-77719800D01*
X134802000Y-78232000D02*
X134802000Y-78040900D01*
X134480900Y-77719800D02*
X132102000Y-77719800D01*
X135847300Y-76353400D02*
X134480900Y-77719800D01*
X135847300Y-73437400D02*
X135847300Y-76353400D01*
X132028100Y-69618200D02*
X135847300Y-73437400D01*
X131556100Y-69618200D02*
X132028100Y-69618200D01*
X131446900Y-69509000D02*
X131556100Y-69618200D01*
X123903100Y-69509000D02*
X131446900Y-69509000D01*
X121800200Y-67406100D02*
X123903100Y-69509000D01*
X108744700Y-67406100D02*
X121800200Y-67406100D01*
X108153200Y-67997600D02*
X108744700Y-67406100D01*
X108151600Y-67996000D02*
X108153200Y-67997600D01*
X108153200Y-67996000D02*
X108151600Y-67996000D01*
X108153200Y-67997600D02*
X108153200Y-67996000D01*
X109057000Y-66360000D02*
X109847300Y-66360000D01*
X139496000Y-62992000D02*
X132140800Y-62992000D01*
X140136000Y-62309000D02*
X137517000Y-59690000D01*
X140136000Y-62992000D02*
X140136000Y-62309000D01*
X128234900Y-78607100D02*
X128624400Y-78217600D01*
X125489200Y-78607100D02*
X128234900Y-78607100D01*
X125247000Y-78364900D02*
X125489200Y-78607100D01*
X125247000Y-78105000D02*
X125247000Y-78364900D01*
X128624400Y-78217600D02*
X128737000Y-78105000D01*
X130642000Y-79395800D02*
X130642000Y-80010000D01*
X129802500Y-79395800D02*
X130642000Y-79395800D01*
X128624400Y-78217600D02*
X129802500Y-79395800D01*
X131905500Y-79395800D02*
X132406900Y-78894400D01*
X130642000Y-79395800D02*
X131905500Y-79395800D01*
X133641500Y-66840200D02*
X133129300Y-66328000D01*
X133641500Y-68199000D02*
X133641500Y-66840200D01*
X135507300Y-81071000D02*
X135833200Y-80745100D01*
X125329000Y-81071000D02*
X135507300Y-81071000D01*
X121295000Y-85105000D02*
X125329000Y-81071000D01*
X111965800Y-85105000D02*
X121295000Y-85105000D01*
X110130100Y-86940700D02*
X111965800Y-85105000D01*
X107573200Y-86940700D02*
X110130100Y-86940700D01*
X147357300Y-55056700D02*
X150598000Y-51816000D01*
X141800500Y-55056700D02*
X147357300Y-55056700D01*
X141447100Y-54703300D02*
X141800500Y-55056700D01*
X140457600Y-54703300D02*
X141447100Y-54703300D01*
X139700000Y-55460900D02*
X140457600Y-54703300D01*
X139700000Y-56244700D02*
X139700000Y-55460900D01*
X138088100Y-57856600D02*
X139700000Y-56244700D01*
X135833200Y-57856600D02*
X138088100Y-57856600D01*
X131886500Y-65085200D02*
X131403400Y-65085200D01*
X133129300Y-66328000D02*
X131886500Y-65085200D01*
X132384000Y-80010000D02*
X134162000Y-78232000D01*
X131282000Y-80010000D02*
X132384000Y-80010000D01*
X108384600Y-65047600D02*
X105537000Y-65047600D01*
X109057000Y-65720000D02*
X108384600Y-65047600D01*
X140970000Y-55855000D02*
X142121700Y-55855000D01*
X115097000Y-114300000D02*
X115097000Y-115451700D01*
X96037000Y-91440000D02*
X97188700Y-91440000D01*
X142036000Y-63525000D02*
X142036000Y-61214000D01*
X142367000Y-63856000D02*
X142036000Y-63525000D01*
X142367000Y-64135000D02*
X142367000Y-63856000D01*
X96037000Y-104140000D02*
X97188700Y-104140000D01*
X98278900Y-103049800D02*
X97188700Y-104140000D01*
X98278900Y-102102100D02*
X98278900Y-103049800D01*
X98020100Y-101843300D02*
X98278900Y-102102100D01*
X98020100Y-101284400D02*
X98020100Y-101843300D01*
X99242000Y-100062500D02*
X98020100Y-101284400D01*
X99242000Y-98806000D02*
X99242000Y-100062500D01*
X99217000Y-101851100D02*
X99217000Y-101600000D01*
X98966000Y-102102100D02*
X99217000Y-101851100D01*
X98278900Y-102102100D02*
X98966000Y-102102100D01*
X96037000Y-66040000D02*
X97188700Y-66040000D01*
X102108000Y-66294000D02*
X100258000Y-66294000D01*
X102133000Y-66269000D02*
X102108000Y-66294000D01*
X142121700Y-57282900D02*
X142121700Y-55855000D01*
X143002000Y-57533900D02*
X143002000Y-57785000D01*
X142751000Y-57282900D02*
X143002000Y-57533900D01*
X142121700Y-57282900D02*
X142751000Y-57282900D01*
X135792500Y-58464500D02*
X141816100Y-58464500D01*
X134567000Y-59690000D02*
X135792500Y-58464500D01*
X141816100Y-60994100D02*
X141816100Y-58464500D01*
X142036000Y-61214000D02*
X141816100Y-60994100D01*
X142044600Y-57282900D02*
X142121700Y-57282900D01*
X141816100Y-57511400D02*
X142044600Y-57282900D01*
X141816100Y-58464500D02*
X141816100Y-57511400D01*
X98626000Y-70866000D02*
X98626000Y-66796100D01*
X99919000Y-66796100D02*
X98626000Y-66796100D01*
X100258000Y-66457100D02*
X99919000Y-66796100D01*
X100258000Y-66294000D02*
X100258000Y-66457100D01*
X97944800Y-66796100D02*
X97188700Y-66040000D01*
X98626000Y-66796100D02*
X97944800Y-66796100D01*
X143137700Y-51816000D02*
X142121700Y-50800000D01*
X147648000Y-51816000D02*
X143137700Y-51816000D01*
X140970000Y-50800000D02*
X142121700Y-50800000D01*
X100707000Y-81280000D02*
X100707000Y-83820000D01*
X116056700Y-115451700D02*
X115097000Y-115451700D01*
X117445000Y-116840000D02*
X116056700Y-115451700D01*
X116767000Y-117518000D02*
X116767000Y-119495200D01*
X117445000Y-116840000D02*
X116767000Y-117518000D01*
X153827000Y-55245000D02*
X153940200Y-55131800D01*
X156148600Y-53340000D02*
X158750000Y-53340000D01*
X154356800Y-55131800D02*
X156148600Y-53340000D01*
X153940200Y-55131800D02*
X154356800Y-55131800D01*
X111302900Y-56220000D02*
X110607300Y-55524400D01*
X113202000Y-56220000D02*
X111302900Y-56220000D01*
X111305500Y-60985400D02*
X111683800Y-60985400D01*
X109402300Y-59082200D02*
X111305500Y-60985400D01*
X109402300Y-56729400D02*
X109402300Y-59082200D01*
X110607300Y-55524400D02*
X109402300Y-56729400D01*
X109793300Y-122015400D02*
X110854300Y-120954400D01*
X100425400Y-122015400D02*
X109793300Y-122015400D01*
X100330000Y-121920000D02*
X100425400Y-122015400D01*
X110817000Y-120917100D02*
X110854300Y-120954400D01*
X110817000Y-120845200D02*
X110817000Y-120917100D01*
X116767000Y-120969800D02*
X116767000Y-120845200D01*
X116222500Y-121514300D02*
X116767000Y-120969800D01*
X111414200Y-121514300D02*
X116222500Y-121514300D01*
X110854300Y-120954400D02*
X111414200Y-121514300D01*
X114211700Y-99090000D02*
X114181700Y-99060000D01*
X120650000Y-99090000D02*
X114211700Y-99090000D01*
X113030000Y-99060000D02*
X114181700Y-99060000D01*
X146050000Y-73660000D02*
X138430000Y-73660000D01*
X139927000Y-117312000D02*
X146277000Y-117312000D01*
X133427000Y-117312000D02*
X139927000Y-117312000D01*
X124184000Y-54828000D02*
X123027000Y-53671000D01*
X128370000Y-54828000D02*
X124184000Y-54828000D01*
X123027000Y-53340000D02*
X123027000Y-53671000D01*
X123027000Y-53671000D02*
X121870000Y-54828000D01*
X154142000Y-117312000D02*
X152777000Y-117312000D01*
X158750000Y-121920000D02*
X154142000Y-117312000D01*
X152777000Y-117312000D02*
X146277000Y-117312000D01*
X156972000Y-106680000D02*
X162052000Y-106680000D01*
X156997000Y-81280000D02*
X162052000Y-81280000D01*
X162052000Y-68580000D02*
X156972000Y-68580000D01*
X162052000Y-93980000D02*
X156972000Y-93980000D01*
X104729900Y-66269000D02*
X102133000Y-66269000D01*
X104882800Y-66116100D02*
X104729900Y-66269000D01*
X104882800Y-65701800D02*
X104882800Y-66116100D01*
X105537000Y-65047600D02*
X104882800Y-65701800D01*
X104882800Y-66116100D02*
X105278200Y-66511500D01*
X128930000Y-68199000D02*
X130163800Y-68199000D01*
X130163800Y-68199000D02*
X130691500Y-68199000D01*
X153497200Y-54688900D02*
X153940200Y-55131800D01*
X148659400Y-54688900D02*
X153497200Y-54688900D01*
X147493300Y-55855000D02*
X148659400Y-54688900D01*
X142121700Y-55855000D02*
X147493300Y-55855000D01*
X125887000Y-77730300D02*
X127329900Y-77730300D01*
X125887000Y-74505000D02*
X125887000Y-77730300D01*
X125042000Y-73660000D02*
X125887000Y-74505000D01*
X125887000Y-77730300D02*
X125887000Y-78105000D01*
X107462000Y-88646000D02*
X105533000Y-88646000D01*
X105533000Y-88646000D02*
X100707000Y-83820000D01*
X100996000Y-81280000D02*
X103536000Y-78740000D01*
X100707000Y-81280000D02*
X100996000Y-81280000D01*
X103536000Y-78740000D02*
X105278200Y-78740000D01*
X128370000Y-55489500D02*
X128370000Y-54828000D01*
X124804500Y-59055000D02*
X128370000Y-55489500D01*
X130163800Y-64303800D02*
X130163800Y-68199000D01*
X128090000Y-62230000D02*
X130163800Y-64303800D01*
X111840200Y-60829000D02*
X119126000Y-60829000D01*
X111683800Y-60985400D02*
X111840200Y-60829000D01*
X136720600Y-73660000D02*
X138430000Y-73660000D01*
X132077100Y-69016500D02*
X136720600Y-73660000D01*
X131805200Y-69016500D02*
X132077100Y-69016500D01*
X130987700Y-68199000D02*
X130691500Y-68199000D01*
X131805200Y-69016500D02*
X130987700Y-68199000D01*
X105533000Y-88846900D02*
X105533000Y-88646000D01*
X103337600Y-91042300D02*
X105533000Y-88846900D01*
X103469000Y-91173700D02*
X103337600Y-91042300D01*
X103469000Y-91694000D02*
X103469000Y-91173700D01*
X97586400Y-91042300D02*
X97188700Y-91440000D01*
X103337600Y-91042300D02*
X97586400Y-91042300D01*
X119126000Y-59858200D02*
X119487100Y-59497100D01*
X119126000Y-60829000D02*
X119126000Y-59858200D01*
X134567000Y-59690000D02*
X130690300Y-59690000D01*
X130690300Y-57148300D02*
X128370000Y-54828000D01*
X130690300Y-59690000D02*
X130690300Y-57148300D01*
X130690300Y-60419200D02*
X130690300Y-59690000D01*
X128879500Y-62230000D02*
X130690300Y-60419200D01*
X128090000Y-62230000D02*
X128879500Y-62230000D01*
M02*
