G04 #@! TF.GenerationSoftware,KiCad,Pcbnew,8.0.7*
G04 #@! TF.CreationDate,2025-01-26T00:40:12-05:00*
G04 #@! TF.ProjectId,shadow,73686164-6f77-42e6-9b69-6361645f7063,rev?*
G04 #@! TF.SameCoordinates,Original*
G04 #@! TF.FileFunction,Soldermask,Top*
G04 #@! TF.FilePolarity,Negative*
%FSLAX46Y46*%
G04 Gerber Fmt 4.6, Leading zero omitted, Abs format (unit mm)*
G04 Created by KiCad (PCBNEW 8.0.7) date 2025-01-26 00:40:12*
%MOMM*%
%LPD*%
G01*
G04 APERTURE LIST*
G04 Aperture macros list*
%AMRoundRect*
0 Rectangle with rounded corners*
0 $1 Rounding radius*
0 $2 $3 $4 $5 $6 $7 $8 $9 X,Y pos of 4 corners*
0 Add a 4 corners polygon primitive as box body*
4,1,4,$2,$3,$4,$5,$6,$7,$8,$9,$2,$3,0*
0 Add four circle primitives for the rounded corners*
1,1,$1+$1,$2,$3*
1,1,$1+$1,$4,$5*
1,1,$1+$1,$6,$7*
1,1,$1+$1,$8,$9*
0 Add four rect primitives between the rounded corners*
20,1,$1+$1,$2,$3,$4,$5,0*
20,1,$1+$1,$4,$5,$6,$7,0*
20,1,$1+$1,$6,$7,$8,$9,0*
20,1,$1+$1,$8,$9,$2,$3,0*%
G04 Aperture macros list end*
%ADD10C,0.010000*%
%ADD11RoundRect,0.250000X-0.375000X-0.625000X0.375000X-0.625000X0.375000X0.625000X-0.375000X0.625000X0*%
%ADD12R,1.700000X1.700000*%
%ADD13O,1.700000X1.700000*%
%ADD14RoundRect,0.250000X0.600000X0.750000X-0.600000X0.750000X-0.600000X-0.750000X0.600000X-0.750000X0*%
%ADD15O,1.700000X2.000000*%
%ADD16R,2.200000X1.500000*%
%ADD17O,0.574000X2.038000*%
%ADD18R,2.000000X2.000000*%
%ADD19C,2.000000*%
%ADD20RoundRect,0.100000X-0.637500X-0.100000X0.637500X-0.100000X0.637500X0.100000X-0.637500X0.100000X0*%
%ADD21C,7.500000*%
%ADD22RoundRect,0.102000X-0.785000X-0.940000X0.785000X-0.940000X0.785000X0.940000X-0.785000X0.940000X0*%
%ADD23R,1.600000X1.600000*%
%ADD24O,1.600000X1.600000*%
%ADD25C,0.700000*%
%ADD26O,0.900000X2.400000*%
%ADD27O,0.900000X1.700000*%
%ADD28RoundRect,0.085500X-0.751500X-0.256500X0.751500X-0.256500X0.751500X0.256500X-0.751500X0.256500X0*%
G04 APERTURE END LIST*
D10*
X124030000Y-62065000D02*
X122330000Y-62065000D01*
X122330000Y-61665000D01*
X124030000Y-61665000D01*
X124030000Y-62065000D01*
G36*
X124030000Y-62065000D02*
G01*
X122330000Y-62065000D01*
X122330000Y-61665000D01*
X124030000Y-61665000D01*
X124030000Y-62065000D01*
G37*
X124030000Y-62565000D02*
X122330000Y-62565000D01*
X122330000Y-62165000D01*
X124030000Y-62165000D01*
X124030000Y-62565000D01*
G36*
X124030000Y-62565000D02*
G01*
X122330000Y-62565000D01*
X122330000Y-62165000D01*
X124030000Y-62165000D01*
X124030000Y-62565000D01*
G37*
X124030000Y-63065000D02*
X122330000Y-63065000D01*
X122330000Y-62665000D01*
X124030000Y-62665000D01*
X124030000Y-63065000D01*
G36*
X124030000Y-63065000D02*
G01*
X122330000Y-63065000D01*
X122330000Y-62665000D01*
X124030000Y-62665000D01*
X124030000Y-63065000D01*
G37*
X124030000Y-63565000D02*
X122330000Y-63565000D01*
X122330000Y-63165000D01*
X124030000Y-63165000D01*
X124030000Y-63565000D01*
G36*
X124030000Y-63565000D02*
G01*
X122330000Y-63565000D01*
X122330000Y-63165000D01*
X124030000Y-63165000D01*
X124030000Y-63565000D01*
G37*
X124030000Y-64065000D02*
X122330000Y-64065000D01*
X122330000Y-63665000D01*
X124030000Y-63665000D01*
X124030000Y-64065000D01*
G36*
X124030000Y-64065000D02*
G01*
X122330000Y-64065000D01*
X122330000Y-63665000D01*
X124030000Y-63665000D01*
X124030000Y-64065000D01*
G37*
X128230000Y-62065000D02*
X126530000Y-62065000D01*
X126530000Y-61665000D01*
X128230000Y-61665000D01*
X128230000Y-62065000D01*
G36*
X128230000Y-62065000D02*
G01*
X126530000Y-62065000D01*
X126530000Y-61665000D01*
X128230000Y-61665000D01*
X128230000Y-62065000D01*
G37*
X128230000Y-62565000D02*
X126530000Y-62565000D01*
X126530000Y-62165000D01*
X128230000Y-62165000D01*
X128230000Y-62565000D01*
G36*
X128230000Y-62565000D02*
G01*
X126530000Y-62565000D01*
X126530000Y-62165000D01*
X128230000Y-62165000D01*
X128230000Y-62565000D01*
G37*
X128230000Y-63065000D02*
X126530000Y-63065000D01*
X126530000Y-62665000D01*
X128230000Y-62665000D01*
X128230000Y-63065000D01*
G36*
X128230000Y-63065000D02*
G01*
X126530000Y-63065000D01*
X126530000Y-62665000D01*
X128230000Y-62665000D01*
X128230000Y-63065000D01*
G37*
X128230000Y-63565000D02*
X126530000Y-63565000D01*
X126530000Y-63165000D01*
X128230000Y-63165000D01*
X128230000Y-63565000D01*
G36*
X128230000Y-63565000D02*
G01*
X126530000Y-63565000D01*
X126530000Y-63165000D01*
X128230000Y-63165000D01*
X128230000Y-63565000D01*
G37*
X128230000Y-64065000D02*
X126530000Y-64065000D01*
X126530000Y-63665000D01*
X128230000Y-63665000D01*
X128230000Y-64065000D01*
G36*
X128230000Y-64065000D02*
G01*
X126530000Y-64065000D01*
X126530000Y-63665000D01*
X128230000Y-63665000D01*
X128230000Y-64065000D01*
G37*
X103573200Y-69179400D02*
X101233200Y-69179400D01*
X101233200Y-68539400D01*
X103573200Y-68539400D01*
X103573200Y-69179400D01*
G36*
X103573200Y-69179400D02*
G01*
X101233200Y-69179400D01*
X101233200Y-68539400D01*
X103573200Y-68539400D01*
X103573200Y-69179400D01*
G37*
X103573200Y-70449400D02*
X101233200Y-70449400D01*
X101233200Y-69809400D01*
X103573200Y-69809400D01*
X103573200Y-70449400D01*
G36*
X103573200Y-70449400D02*
G01*
X101233200Y-70449400D01*
X101233200Y-69809400D01*
X103573200Y-69809400D01*
X103573200Y-70449400D01*
G37*
X103573200Y-71719400D02*
X101233200Y-71719400D01*
X101233200Y-71079400D01*
X103573200Y-71079400D01*
X103573200Y-71719400D01*
G36*
X103573200Y-71719400D02*
G01*
X101233200Y-71719400D01*
X101233200Y-71079400D01*
X103573200Y-71079400D01*
X103573200Y-71719400D01*
G37*
X103573200Y-72989400D02*
X101233200Y-72989400D01*
X101233200Y-72349400D01*
X103573200Y-72349400D01*
X103573200Y-72989400D01*
G36*
X103573200Y-72989400D02*
G01*
X101233200Y-72989400D01*
X101233200Y-72349400D01*
X103573200Y-72349400D01*
X103573200Y-72989400D01*
G37*
X106478200Y-72314400D02*
X104078200Y-72314400D01*
X104078200Y-69214400D01*
X106478200Y-69214400D01*
X106478200Y-72314400D01*
G36*
X106478200Y-72314400D02*
G01*
X104078200Y-72314400D01*
X104078200Y-69214400D01*
X106478200Y-69214400D01*
X106478200Y-72314400D01*
G37*
X109323200Y-69179400D02*
X106983200Y-69179400D01*
X106983200Y-68539400D01*
X109323200Y-68539400D01*
X109323200Y-69179400D01*
G36*
X109323200Y-69179400D02*
G01*
X106983200Y-69179400D01*
X106983200Y-68539400D01*
X109323200Y-68539400D01*
X109323200Y-69179400D01*
G37*
X109323200Y-70449400D02*
X106983200Y-70449400D01*
X106983200Y-69809400D01*
X109323200Y-69809400D01*
X109323200Y-70449400D01*
G36*
X109323200Y-70449400D02*
G01*
X106983200Y-70449400D01*
X106983200Y-69809400D01*
X109323200Y-69809400D01*
X109323200Y-70449400D01*
G37*
X109323200Y-71719400D02*
X106983200Y-71719400D01*
X106983200Y-71079400D01*
X109323200Y-71079400D01*
X109323200Y-71719400D01*
G36*
X109323200Y-71719400D02*
G01*
X106983200Y-71719400D01*
X106983200Y-71079400D01*
X109323200Y-71079400D01*
X109323200Y-71719400D01*
G37*
X109323200Y-72989400D02*
X106983200Y-72989400D01*
X106983200Y-72349400D01*
X109323200Y-72349400D01*
X109323200Y-72989400D01*
G36*
X109323200Y-72989400D02*
G01*
X106983200Y-72989400D01*
X106983200Y-72349400D01*
X109323200Y-72349400D01*
X109323200Y-72989400D01*
G37*
D11*
X108877000Y-50800000D03*
X111677000Y-50800000D03*
D12*
X162052000Y-99060000D03*
D13*
X162052000Y-101600000D03*
X162052000Y-104140000D03*
X162052000Y-106680000D03*
D12*
X96037000Y-86360000D03*
D13*
X96037000Y-83820000D03*
X96037000Y-81280000D03*
X96037000Y-78740000D03*
D14*
X128230000Y-115570000D03*
D15*
X125730000Y-115570000D03*
D12*
X96037000Y-99060000D03*
D13*
X96037000Y-96520000D03*
X96037000Y-93980000D03*
X96037000Y-91440000D03*
D12*
X96037000Y-73660000D03*
D13*
X96037000Y-71120000D03*
X96037000Y-68580000D03*
X96037000Y-66040000D03*
D12*
X156972000Y-60960000D03*
D13*
X156972000Y-63500000D03*
X156972000Y-66040000D03*
X156972000Y-68580000D03*
D12*
X110490000Y-109220000D03*
D13*
X107950000Y-109220000D03*
X105410000Y-109220000D03*
X102870000Y-109220000D03*
D16*
X106019600Y-88010600D03*
X106019600Y-81610600D03*
D12*
X107950000Y-114300000D03*
D13*
X105410000Y-114300000D03*
X102870000Y-114300000D03*
D12*
X156972000Y-86360000D03*
D13*
X156972000Y-88900000D03*
X156972000Y-91440000D03*
X156972000Y-93980000D03*
D17*
X127000000Y-76200000D03*
X128270000Y-76200000D03*
X129540000Y-76200000D03*
X130810000Y-76200000D03*
X130810000Y-70662000D03*
X129540000Y-70662000D03*
X128270000Y-70662000D03*
X127000000Y-70662000D03*
D18*
X128905000Y-73431000D03*
D19*
X146277000Y-112812000D03*
X152777000Y-112812000D03*
X146277000Y-117312000D03*
X152777000Y-117312000D03*
D20*
X146514500Y-56410000D03*
X146514500Y-57060000D03*
X146514500Y-57710000D03*
X146514500Y-58360000D03*
X146514500Y-59010000D03*
X146514500Y-59660000D03*
X146514500Y-60310000D03*
X146514500Y-60960000D03*
X146514500Y-61610000D03*
X146514500Y-62260000D03*
X146514500Y-62910000D03*
X146514500Y-63560000D03*
X152239500Y-63560000D03*
X152239500Y-62910000D03*
X152239500Y-62260000D03*
X152239500Y-61610000D03*
X152239500Y-60960000D03*
X152239500Y-60310000D03*
X152239500Y-59660000D03*
X152239500Y-59010000D03*
X152239500Y-58360000D03*
X152239500Y-57710000D03*
X152239500Y-57060000D03*
X152239500Y-56410000D03*
D12*
X138430000Y-68580000D03*
D13*
X138430000Y-71120000D03*
X138430000Y-73660000D03*
X138430000Y-76200000D03*
X138430000Y-78740000D03*
X138430000Y-81280000D03*
X138430000Y-83820000D03*
X138430000Y-86360000D03*
X138430000Y-88900000D03*
X138430000Y-91440000D03*
X138430000Y-93980000D03*
X138430000Y-96520000D03*
X138430000Y-99060000D03*
X138430000Y-101600000D03*
X138430000Y-104140000D03*
D19*
X121870000Y-50328000D03*
X128370000Y-50328000D03*
X121870000Y-54828000D03*
X128370000Y-54828000D03*
D21*
X100330000Y-121920000D03*
D12*
X112557000Y-114300000D03*
D13*
X115097000Y-114300000D03*
X117637000Y-114300000D03*
X120177000Y-114300000D03*
D21*
X158750000Y-121920000D03*
D20*
X102242700Y-94316600D03*
X102242700Y-94966600D03*
X102242700Y-95616600D03*
X102242700Y-96266600D03*
X102242700Y-96916600D03*
X102242700Y-97566600D03*
X102242700Y-98216600D03*
X102242700Y-98866600D03*
X102242700Y-99516600D03*
X102242700Y-100166600D03*
X102242700Y-100816600D03*
X102242700Y-101466600D03*
X107967700Y-101466600D03*
X107967700Y-100816600D03*
X107967700Y-100166600D03*
X107967700Y-99516600D03*
X107967700Y-98866600D03*
X107967700Y-98216600D03*
X107967700Y-97566600D03*
X107967700Y-96916600D03*
X107967700Y-96266600D03*
X107967700Y-95616600D03*
X107967700Y-94966600D03*
X107967700Y-94316600D03*
D12*
X162052000Y-73660000D03*
D13*
X162052000Y-76200000D03*
X162052000Y-78740000D03*
X162052000Y-81280000D03*
D12*
X162052000Y-86360000D03*
D13*
X162052000Y-88900000D03*
X162052000Y-91440000D03*
X162052000Y-93980000D03*
D22*
X125280000Y-62865000D03*
D12*
X129057000Y-124460000D03*
D13*
X131597000Y-124460000D03*
D19*
X133427000Y-112812000D03*
X139927000Y-112812000D03*
X133427000Y-117312000D03*
X139927000Y-117312000D03*
D21*
X100330000Y-53340000D03*
D12*
X133350000Y-55855000D03*
D13*
X135890000Y-55855000D03*
X138430000Y-55855000D03*
X140970000Y-55855000D03*
D23*
X147574000Y-123190000D03*
D24*
X139954000Y-123190000D03*
D25*
X110817000Y-119495200D03*
X111667000Y-119495200D03*
X112517000Y-119495200D03*
X113367000Y-119495200D03*
X114217000Y-119495200D03*
X115067000Y-119495200D03*
X115917000Y-119495200D03*
X116767000Y-119495200D03*
X116767000Y-120845200D03*
X115917000Y-120845200D03*
X115067000Y-120845200D03*
X114217000Y-120845200D03*
X113367000Y-120845200D03*
X112517000Y-120845200D03*
X111667000Y-120845200D03*
X110817000Y-120845200D03*
D26*
X109467000Y-120475200D03*
D27*
X109467000Y-123855200D03*
D26*
X118117000Y-120475200D03*
D27*
X118117000Y-123855200D03*
D12*
X113030000Y-68580000D03*
D13*
X113030000Y-71120000D03*
X113030000Y-73660000D03*
X113030000Y-76200000D03*
X113030000Y-78740000D03*
X113030000Y-81280000D03*
X113030000Y-83820000D03*
X113030000Y-86360000D03*
X113030000Y-88900000D03*
X113030000Y-91440000D03*
X113030000Y-93980000D03*
X113030000Y-96520000D03*
X113030000Y-99060000D03*
X113030000Y-101600000D03*
X113030000Y-104140000D03*
D12*
X162052000Y-60960000D03*
D13*
X162052000Y-63500000D03*
X162052000Y-66040000D03*
X162052000Y-68580000D03*
D21*
X129540000Y-86360000D03*
D11*
X112417000Y-53340000D03*
X115217000Y-53340000D03*
D12*
X156997000Y-73660000D03*
D13*
X156997000Y-76200000D03*
X156997000Y-78740000D03*
X156997000Y-81280000D03*
D12*
X120650000Y-68610000D03*
D13*
X120650000Y-71150000D03*
X120650000Y-73690000D03*
X120650000Y-76230000D03*
X120650000Y-78770000D03*
X120650000Y-81310000D03*
X120650000Y-83850000D03*
X120650000Y-86390000D03*
X120650000Y-88930000D03*
X120650000Y-91470000D03*
X120650000Y-94010000D03*
X120650000Y-96550000D03*
X120650000Y-99090000D03*
X120650000Y-101630000D03*
X120650000Y-104170000D03*
D21*
X158750000Y-53340000D03*
D12*
X96037000Y-111760000D03*
D13*
X96037000Y-109220000D03*
X96037000Y-106680000D03*
X96037000Y-104140000D03*
D28*
X130082000Y-62525000D03*
X130082000Y-63175000D03*
X130082000Y-63825000D03*
X130082000Y-64475000D03*
X134382000Y-64475000D03*
X134382000Y-63825000D03*
X134382000Y-63175000D03*
X134382000Y-62525000D03*
D12*
X146050000Y-68580000D03*
D13*
X146050000Y-71120000D03*
X146050000Y-73660000D03*
X146050000Y-76200000D03*
X146050000Y-78740000D03*
X146050000Y-81280000D03*
X146050000Y-83820000D03*
X146050000Y-86360000D03*
X146050000Y-88900000D03*
X146050000Y-91440000D03*
X146050000Y-93980000D03*
X146050000Y-96520000D03*
X146050000Y-99060000D03*
X146050000Y-101600000D03*
X146050000Y-104140000D03*
D11*
X116097000Y-50800000D03*
X118897000Y-50800000D03*
D12*
X156972000Y-99060000D03*
D13*
X156972000Y-101600000D03*
X156972000Y-104140000D03*
X156972000Y-106680000D03*
D12*
X133350000Y-50800000D03*
D13*
X135890000Y-50800000D03*
X138430000Y-50800000D03*
X140970000Y-50800000D03*
D18*
X106683800Y-60985400D03*
D19*
X111683800Y-60985400D03*
M02*
