%TF.GenerationSoftware,KiCad,Pcbnew,8.0.7*%
%TF.CreationDate,2025-01-26T00:41:21-05:00*%
%TF.ProjectId,shadow,73686164-6f77-42e6-9b69-6361645f7063,rev?*%
%TF.SameCoordinates,Original*%
%TF.FileFunction,Drillmap*%
%TF.FilePolarity,Positive*%
%FSLAX45Y45*%
G04 Gerber Fmt 4.5, Leading zero omitted, Abs format (unit mm)*
G04 Created by KiCad (PCBNEW 8.0.7) date 2025-01-26 00:41:21*
%MOMM*%
%LPD*%
G01*
G04 APERTURE LIST*
%ADD10C,0.050000*%
%ADD11C,0.200000*%
%ADD12C,0.100000*%
%ADD13C,0.110000*%
%ADD14C,0.430000*%
G04 APERTURE END LIST*
D10*
X9476700Y-4826000D02*
X16461700Y-4826000D01*
X16461700Y-12700000D01*
X9476700Y-12700000D01*
X9476700Y-4826000D01*
D11*
D12*
X12473000Y-6216500D02*
X12493000Y-6236500D01*
X12493000Y-6216500D02*
X12473000Y-6236500D01*
X12473000Y-6336500D02*
X12493000Y-6356500D01*
X12493000Y-6336500D02*
X12473000Y-6356500D01*
X12518000Y-6276500D02*
X12538000Y-6296500D01*
X12538000Y-6276500D02*
X12518000Y-6296500D01*
X12563000Y-6216500D02*
X12583000Y-6236500D01*
X12583000Y-6216500D02*
X12563000Y-6236500D01*
X12563000Y-6336500D02*
X12583000Y-6356500D01*
X12583000Y-6336500D02*
X12563000Y-6356500D01*
X9774040Y-9198710D02*
G75*
G02*
X9744040Y-9198710I-15000J0D01*
G01*
X9744040Y-9198710D02*
G75*
G02*
X9774040Y-9198710I15000J0D01*
G01*
X9794130Y-10439400D02*
G75*
G02*
X9764130Y-10439400I-15000J0D01*
G01*
X9764130Y-10439400D02*
G75*
G02*
X9794130Y-10439400I15000J0D01*
G01*
X9915590Y-9517310D02*
G75*
G02*
X9885590Y-9517310I-15000J0D01*
G01*
X9885590Y-9517310D02*
G75*
G02*
X9915590Y-9517310I15000J0D01*
G01*
X9961880Y-8402640D02*
G75*
G02*
X9931880Y-8402640I-15000J0D01*
G01*
X9931880Y-8402640D02*
G75*
G02*
X9961880Y-8402640I15000J0D01*
G01*
X9972120Y-9579820D02*
G75*
G02*
X9942120Y-9579820I-15000J0D01*
G01*
X9942120Y-9579820D02*
G75*
G02*
X9972120Y-9579820I15000J0D01*
G01*
X9994810Y-6934970D02*
G75*
G02*
X9964810Y-6934970I-15000J0D01*
G01*
X9964810Y-6934970D02*
G75*
G02*
X9994810Y-6934970I15000J0D01*
G01*
X10033340Y-8695500D02*
G75*
G02*
X10003340Y-8695500I-15000J0D01*
G01*
X10003340Y-8695500D02*
G75*
G02*
X10033340Y-8695500I15000J0D01*
G01*
X10033340Y-9708160D02*
G75*
G02*
X10003340Y-9708160I-15000J0D01*
G01*
X10003340Y-9708160D02*
G75*
G02*
X10033340Y-9708160I15000J0D01*
G01*
X10115150Y-6551740D02*
G75*
G02*
X10085150Y-6551740I-15000J0D01*
G01*
X10085150Y-6551740D02*
G75*
G02*
X10115150Y-6551740I15000J0D01*
G01*
X10156740Y-6016790D02*
G75*
G02*
X10126740Y-6016790I-15000J0D01*
G01*
X10126740Y-6016790D02*
G75*
G02*
X10156740Y-6016790I15000J0D01*
G01*
X10156740Y-6426070D02*
G75*
G02*
X10126740Y-6426070I-15000J0D01*
G01*
X10126740Y-6426070D02*
G75*
G02*
X10156740Y-6426070I15000J0D01*
G01*
X10239270Y-9220700D02*
G75*
G02*
X10209270Y-9220700I-15000J0D01*
G01*
X10209270Y-9220700D02*
G75*
G02*
X10239270Y-9220700I15000J0D01*
G01*
X10315140Y-10730890D02*
G75*
G02*
X10285140Y-10730890I-15000J0D01*
G01*
X10285140Y-10730890D02*
G75*
G02*
X10315140Y-10730890I15000J0D01*
G01*
X10386970Y-10605390D02*
G75*
G02*
X10356970Y-10605390I-15000J0D01*
G01*
X10356970Y-10605390D02*
G75*
G02*
X10386970Y-10605390I15000J0D01*
G01*
X10407980Y-9368830D02*
G75*
G02*
X10377980Y-9368830I-15000J0D01*
G01*
X10377980Y-9368830D02*
G75*
G02*
X10407980Y-9368830I15000J0D01*
G01*
X10415480Y-10299700D02*
G75*
G02*
X10385480Y-10299700I-15000J0D01*
G01*
X10385480Y-10299700D02*
G75*
G02*
X10415480Y-10299700I15000J0D01*
G01*
X10447140Y-9453930D02*
G75*
G02*
X10417140Y-9453930I-15000J0D01*
G01*
X10417140Y-9453930D02*
G75*
G02*
X10447140Y-9453930I15000J0D01*
G01*
X10542820Y-6651150D02*
G75*
G02*
X10512820Y-6651150I-15000J0D01*
G01*
X10512820Y-6651150D02*
G75*
G02*
X10542820Y-6651150I15000J0D01*
G01*
X10542820Y-7874000D02*
G75*
G02*
X10512820Y-7874000I-15000J0D01*
G01*
X10512820Y-7874000D02*
G75*
G02*
X10542820Y-7874000I15000J0D01*
G01*
X10578010Y-10007320D02*
G75*
G02*
X10548010Y-10007320I-15000J0D01*
G01*
X10548010Y-10007320D02*
G75*
G02*
X10578010Y-10007320I15000J0D01*
G01*
X10616960Y-7472780D02*
G75*
G02*
X10586960Y-7472780I-15000J0D01*
G01*
X10586960Y-7472780D02*
G75*
G02*
X10616960Y-7472780I15000J0D01*
G01*
X10673660Y-11057760D02*
G75*
G02*
X10643660Y-11057760I-15000J0D01*
G01*
X10643660Y-11057760D02*
G75*
G02*
X10673660Y-11057760I15000J0D01*
G01*
X10772320Y-8694070D02*
G75*
G02*
X10742320Y-8694070I-15000J0D01*
G01*
X10742320Y-8694070D02*
G75*
G02*
X10772320Y-8694070I15000J0D01*
G01*
X10803420Y-10297890D02*
G75*
G02*
X10773420Y-10297890I-15000J0D01*
G01*
X10773420Y-10297890D02*
G75*
G02*
X10803420Y-10297890I15000J0D01*
G01*
X10811770Y-9047360D02*
G75*
G02*
X10781770Y-9047360I-15000J0D01*
G01*
X10781770Y-9047360D02*
G75*
G02*
X10811770Y-9047360I15000J0D01*
G01*
X10811930Y-10217290D02*
G75*
G02*
X10781930Y-10217290I-15000J0D01*
G01*
X10781930Y-10217290D02*
G75*
G02*
X10811930Y-10217290I15000J0D01*
G01*
X10813550Y-5407760D02*
G75*
G02*
X10783550Y-5407760I-15000J0D01*
G01*
X10783550Y-5407760D02*
G75*
G02*
X10813550Y-5407760I15000J0D01*
G01*
X10830320Y-6799760D02*
G75*
G02*
X10800320Y-6799760I-15000J0D01*
G01*
X10800320Y-6799760D02*
G75*
G02*
X10830320Y-6799760I15000J0D01*
G01*
X10936680Y-9886730D02*
G75*
G02*
X10906680Y-9886730I-15000J0D01*
G01*
X10906680Y-9886730D02*
G75*
G02*
X10936680Y-9886730I15000J0D01*
G01*
X10958350Y-6803190D02*
G75*
G02*
X10928350Y-6803190I-15000J0D01*
G01*
X10928350Y-6803190D02*
G75*
G02*
X10958350Y-6803190I15000J0D01*
G01*
X10960730Y-8459080D02*
G75*
G02*
X10930730Y-8459080I-15000J0D01*
G01*
X10930730Y-8459080D02*
G75*
G02*
X10960730Y-8459080I15000J0D01*
G01*
X10975420Y-7201350D02*
G75*
G02*
X10945420Y-7201350I-15000J0D01*
G01*
X10945420Y-7201350D02*
G75*
G02*
X10975420Y-7201350I15000J0D01*
G01*
X10996850Y-9976770D02*
G75*
G02*
X10966850Y-9976770I-15000J0D01*
G01*
X10966850Y-9976770D02*
G75*
G02*
X10996850Y-9976770I15000J0D01*
G01*
X10999730Y-6636000D02*
G75*
G02*
X10969730Y-6636000I-15000J0D01*
G01*
X10969730Y-6636000D02*
G75*
G02*
X10999730Y-6636000I15000J0D01*
G01*
X11022440Y-8311320D02*
G75*
G02*
X10992440Y-8311320I-15000J0D01*
G01*
X10992440Y-8311320D02*
G75*
G02*
X11022440Y-8311320I15000J0D01*
G01*
X11370430Y-5347590D02*
G75*
G02*
X11340430Y-5347590I-15000J0D01*
G01*
X11340430Y-5347590D02*
G75*
G02*
X11370430Y-5347590I15000J0D01*
G01*
X11536700Y-5472860D02*
G75*
G02*
X11506700Y-5472860I-15000J0D01*
G01*
X11506700Y-5472860D02*
G75*
G02*
X11536700Y-5472860I15000J0D01*
G01*
X11551070Y-6020640D02*
G75*
G02*
X11521070Y-6020640I-15000J0D01*
G01*
X11521070Y-6020640D02*
G75*
G02*
X11551070Y-6020640I15000J0D01*
G01*
X11619400Y-5922340D02*
G75*
G02*
X11589400Y-5922340I-15000J0D01*
G01*
X11589400Y-5922340D02*
G75*
G02*
X11619400Y-5922340I15000J0D01*
G01*
X11670800Y-8004000D02*
G75*
G02*
X11640800Y-8004000I-15000J0D01*
G01*
X11640800Y-8004000D02*
G75*
G02*
X11670800Y-8004000I15000J0D01*
G01*
X11798780Y-6008890D02*
G75*
G02*
X11768780Y-6008890I-15000J0D01*
G01*
X11768780Y-6008890D02*
G75*
G02*
X11798780Y-6008890I15000J0D01*
G01*
X11882280Y-5922340D02*
G75*
G02*
X11852280Y-5922340I-15000J0D01*
G01*
X11852280Y-5922340D02*
G75*
G02*
X11882280Y-5922340I15000J0D01*
G01*
X11916480Y-9021230D02*
G75*
G02*
X11886480Y-9021230I-15000J0D01*
G01*
X11886480Y-9021230D02*
G75*
G02*
X11916480Y-9021230I15000J0D01*
G01*
X11963710Y-5949710D02*
G75*
G02*
X11933710Y-5949710I-15000J0D01*
G01*
X11933710Y-5949710D02*
G75*
G02*
X11963710Y-5949710I15000J0D01*
G01*
X12106160Y-5798130D02*
G75*
G02*
X12076160Y-5798130I-15000J0D01*
G01*
X12076160Y-5798130D02*
G75*
G02*
X12106160Y-5798130I15000J0D01*
G01*
X12200290Y-6375400D02*
G75*
G02*
X12170290Y-6375400I-15000J0D01*
G01*
X12170290Y-6375400D02*
G75*
G02*
X12200290Y-6375400I15000J0D01*
G01*
X12405690Y-6525450D02*
G75*
G02*
X12375690Y-6525450I-15000J0D01*
G01*
X12375690Y-6525450D02*
G75*
G02*
X12405690Y-6525450I15000J0D01*
G01*
X12494520Y-9271000D02*
G75*
G02*
X12464520Y-9271000I-15000J0D01*
G01*
X12464520Y-9271000D02*
G75*
G02*
X12494520Y-9271000I15000J0D01*
G01*
X12504810Y-6700440D02*
G75*
G02*
X12474810Y-6700440I-15000J0D01*
G01*
X12474810Y-6700440D02*
G75*
G02*
X12504810Y-6700440I15000J0D01*
G01*
X12566990Y-6525720D02*
G75*
G02*
X12536990Y-6525720I-15000J0D01*
G01*
X12536990Y-6525720D02*
G75*
G02*
X12566990Y-6525720I15000J0D01*
G01*
X12747990Y-7773030D02*
G75*
G02*
X12717990Y-7773030I-15000J0D01*
G01*
X12717990Y-7773030D02*
G75*
G02*
X12747990Y-7773030I15000J0D01*
G01*
X12809230Y-6038340D02*
G75*
G02*
X12779230Y-6038340I-15000J0D01*
G01*
X12779230Y-6038340D02*
G75*
G02*
X12809230Y-6038340I15000J0D01*
G01*
X12903340Y-6648120D02*
G75*
G02*
X12873340Y-6648120I-15000J0D01*
G01*
X12873340Y-6648120D02*
G75*
G02*
X12903340Y-6648120I15000J0D01*
G01*
X12969000Y-6586080D02*
G75*
G02*
X12939000Y-6586080I-15000J0D01*
G01*
X12939000Y-6586080D02*
G75*
G02*
X12969000Y-6586080I15000J0D01*
G01*
X13023800Y-6017060D02*
G75*
G02*
X12993800Y-6017060I-15000J0D01*
G01*
X12993800Y-6017060D02*
G75*
G02*
X13023800Y-6017060I15000J0D01*
G01*
X13155340Y-6508520D02*
G75*
G02*
X13125340Y-6508520I-15000J0D01*
G01*
X13125340Y-6508520D02*
G75*
G02*
X13155340Y-6508520I15000J0D01*
G01*
X13195520Y-6901650D02*
G75*
G02*
X13165520Y-6901650I-15000J0D01*
G01*
X13165520Y-6901650D02*
G75*
G02*
X13195520Y-6901650I15000J0D01*
G01*
X13229080Y-6299200D02*
G75*
G02*
X13199080Y-6299200I-15000J0D01*
G01*
X13199080Y-6299200D02*
G75*
G02*
X13229080Y-6299200I15000J0D01*
G01*
X13255690Y-7889440D02*
G75*
G02*
X13225690Y-7889440I-15000J0D01*
G01*
X13225690Y-7889440D02*
G75*
G02*
X13255690Y-7889440I15000J0D01*
G01*
X13327930Y-6632800D02*
G75*
G02*
X13297930Y-6632800I-15000J0D01*
G01*
X13297930Y-6632800D02*
G75*
G02*
X13327930Y-6632800I15000J0D01*
G01*
X13453200Y-6177480D02*
G75*
G02*
X13423200Y-6177480I-15000J0D01*
G01*
X13423200Y-6177480D02*
G75*
G02*
X13453200Y-6177480I15000J0D01*
G01*
X13453200Y-7287340D02*
G75*
G02*
X13423200Y-7287340I-15000J0D01*
G01*
X13423200Y-7287340D02*
G75*
G02*
X13453200Y-7287340I15000J0D01*
G01*
X13598320Y-5785660D02*
G75*
G02*
X13568320Y-5785660I-15000J0D01*
G01*
X13568320Y-5785660D02*
G75*
G02*
X13598320Y-5785660I15000J0D01*
G01*
X13598320Y-8074510D02*
G75*
G02*
X13568320Y-8074510I-15000J0D01*
G01*
X13568320Y-8074510D02*
G75*
G02*
X13598320Y-8074510I15000J0D01*
G01*
X13690660Y-9517310D02*
G75*
G02*
X13660660Y-9517310I-15000J0D01*
G01*
X13660660Y-9517310D02*
G75*
G02*
X13690660Y-9517310I15000J0D01*
G01*
X14297720Y-6984500D02*
G75*
G02*
X14267720Y-6984500I-15000J0D01*
G01*
X14267720Y-6984500D02*
G75*
G02*
X14297720Y-6984500I15000J0D01*
G01*
X14297720Y-9021530D02*
G75*
G02*
X14267720Y-9021530I-15000J0D01*
G01*
X14267720Y-9021530D02*
G75*
G02*
X14297720Y-9021530I15000J0D01*
G01*
X14356830Y-6502400D02*
G75*
G02*
X14326830Y-6502400I-15000J0D01*
G01*
X14326830Y-6502400D02*
G75*
G02*
X14356830Y-6502400I15000J0D01*
G01*
X14505860Y-5445500D02*
G75*
G02*
X14475860Y-5445500I-15000J0D01*
G01*
X14475860Y-5445500D02*
G75*
G02*
X14505860Y-5445500I15000J0D01*
G01*
X14792310Y-5706000D02*
G75*
G02*
X14762310Y-5706000I-15000J0D01*
G01*
X14762310Y-5706000D02*
G75*
G02*
X14792310Y-5706000I15000J0D01*
G01*
X14793860Y-8837210D02*
G75*
G02*
X14763860Y-8837210I-15000J0D01*
G01*
X14763860Y-8837210D02*
G75*
G02*
X14793860Y-8837210I15000J0D01*
G01*
X14881640Y-8376890D02*
G75*
G02*
X14851640Y-8376890I-15000J0D01*
G01*
X14851640Y-8376890D02*
G75*
G02*
X14881640Y-8376890I15000J0D01*
G01*
X14891410Y-7308520D02*
G75*
G02*
X14861410Y-7308520I-15000J0D01*
G01*
X14861410Y-7308520D02*
G75*
G02*
X14891410Y-7308520I15000J0D01*
G01*
X14939310Y-7620000D02*
G75*
G02*
X14909310Y-7620000I-15000J0D01*
G01*
X14909310Y-7620000D02*
G75*
G02*
X14939310Y-7620000I15000J0D01*
G01*
X14999480Y-7138390D02*
G75*
G02*
X14969480Y-7138390I-15000J0D01*
G01*
X14969480Y-7138390D02*
G75*
G02*
X14999480Y-7138390I15000J0D01*
G01*
X15052610Y-6910440D02*
G75*
G02*
X15022610Y-6910440I-15000J0D01*
G01*
X15022610Y-6910440D02*
G75*
G02*
X15052610Y-6910440I15000J0D01*
G01*
X15070050Y-7818610D02*
G75*
G02*
X15040050Y-7818610I-15000J0D01*
G01*
X15040050Y-7818610D02*
G75*
G02*
X15070050Y-7818610I15000J0D01*
G01*
X15238950Y-6466940D02*
G75*
G02*
X15208950Y-6466940I-15000J0D01*
G01*
X15208950Y-6466940D02*
G75*
G02*
X15238950Y-6466940I15000J0D01*
G01*
X15344870Y-6527700D02*
G75*
G02*
X15314870Y-6527700I-15000J0D01*
G01*
X15314870Y-6527700D02*
G75*
G02*
X15344870Y-6527700I15000J0D01*
G01*
X15363450Y-5838430D02*
G75*
G02*
X15333450Y-5838430I-15000J0D01*
G01*
X15333450Y-5838430D02*
G75*
G02*
X15363450Y-5838430I15000J0D01*
G01*
X15408870Y-7114430D02*
G75*
G02*
X15378870Y-7114430I-15000J0D01*
G01*
X15378870Y-7114430D02*
G75*
G02*
X15408870Y-7114430I15000J0D01*
G01*
X10462820Y-6929940D02*
X10462820Y-6962940D01*
X10446320Y-6946440D02*
X10479320Y-6946440D01*
X10462820Y-7059940D02*
X10462820Y-7092940D01*
X10446320Y-7076440D02*
X10479320Y-7076440D01*
X10462820Y-7189940D02*
X10462820Y-7222940D01*
X10446320Y-7206440D02*
X10479320Y-7206440D01*
X10592820Y-6929940D02*
X10592820Y-6962940D01*
X10576320Y-6946440D02*
X10609320Y-6946440D01*
X10592820Y-7059940D02*
X10592820Y-7092940D01*
X10576320Y-7076440D02*
X10609320Y-7076440D01*
X10592820Y-7189940D02*
X10592820Y-7222940D01*
X10576320Y-7206440D02*
X10609320Y-7206440D01*
X11095842Y-11963662D02*
X11095842Y-11935378D01*
X11067558Y-11935378D01*
X11067558Y-11963662D01*
X11095842Y-11963662D01*
X11095842Y-12098662D02*
X11095842Y-12070378D01*
X11067558Y-12070378D01*
X11067558Y-12098662D01*
X11095842Y-12098662D01*
X11180842Y-11963662D02*
X11180842Y-11935378D01*
X11152558Y-11935378D01*
X11152558Y-11963662D01*
X11180842Y-11963662D01*
X11180842Y-12098662D02*
X11180842Y-12070378D01*
X11152558Y-12070378D01*
X11152558Y-12098662D01*
X11180842Y-12098662D01*
X11265842Y-11963662D02*
X11265842Y-11935378D01*
X11237558Y-11935378D01*
X11237558Y-11963662D01*
X11265842Y-11963662D01*
X11265842Y-12098662D02*
X11265842Y-12070378D01*
X11237558Y-12070378D01*
X11237558Y-12098662D01*
X11265842Y-12098662D01*
X11350842Y-11963662D02*
X11350842Y-11935378D01*
X11322558Y-11935378D01*
X11322558Y-11963662D01*
X11350842Y-11963662D01*
X11350842Y-12098662D02*
X11350842Y-12070378D01*
X11322558Y-12070378D01*
X11322558Y-12098662D01*
X11350842Y-12098662D01*
X11435842Y-11963662D02*
X11435842Y-11935378D01*
X11407558Y-11935378D01*
X11407558Y-11963662D01*
X11435842Y-11963662D01*
X11435842Y-12098662D02*
X11435842Y-12070378D01*
X11407558Y-12070378D01*
X11407558Y-12098662D01*
X11435842Y-12098662D01*
X11520842Y-11963662D02*
X11520842Y-11935378D01*
X11492558Y-11935378D01*
X11492558Y-11963662D01*
X11520842Y-11963662D01*
X11520842Y-12098662D02*
X11520842Y-12070378D01*
X11492558Y-12070378D01*
X11492558Y-12098662D01*
X11520842Y-12098662D01*
X11605842Y-11963662D02*
X11605842Y-11935378D01*
X11577558Y-11935378D01*
X11577558Y-11963662D01*
X11605842Y-11963662D01*
X11605842Y-12098662D02*
X11605842Y-12070378D01*
X11577558Y-12070378D01*
X11577558Y-12098662D01*
X11605842Y-12098662D01*
X11690842Y-11963662D02*
X11690842Y-11935378D01*
X11662558Y-11935378D01*
X11662558Y-11963662D01*
X11690842Y-11963662D01*
X11690842Y-12098662D02*
X11690842Y-12070378D01*
X11662558Y-12070378D01*
X11662558Y-12098662D01*
X11690842Y-12098662D01*
X10946700Y-12077520D02*
X10976700Y-12047520D01*
X10946700Y-12017520D01*
X10916700Y-12047520D01*
X10946700Y-12077520D01*
X10916700Y-11972520D02*
X10916700Y-12122520D01*
X10976700Y-12122520D02*
G75*
G02*
X10916700Y-12122520I-30000J0D01*
G01*
X10976700Y-12122520D02*
X10976700Y-11972520D01*
X10976700Y-11972520D02*
G75*
G03*
X10916700Y-11972520I-30000J0D01*
G01*
X10946700Y-12415520D02*
X10976700Y-12385520D01*
X10946700Y-12355520D01*
X10916700Y-12385520D01*
X10946700Y-12415520D01*
X10916700Y-12345520D02*
X10916700Y-12425520D01*
X10976700Y-12425520D02*
G75*
G02*
X10916700Y-12425520I-30000J0D01*
G01*
X10976700Y-12425520D02*
X10976700Y-12345520D01*
X10976700Y-12345520D02*
G75*
G03*
X10916700Y-12345520I-30000J0D01*
G01*
X11811700Y-12077520D02*
X11841700Y-12047520D01*
X11811700Y-12017520D01*
X11781700Y-12047520D01*
X11811700Y-12077520D01*
X11781700Y-11972520D02*
X11781700Y-12122520D01*
X11841700Y-12122520D02*
G75*
G02*
X11781700Y-12122520I-30000J0D01*
G01*
X11841700Y-12122520D02*
X11841700Y-11972520D01*
X11841700Y-11972520D02*
G75*
G03*
X11781700Y-11972520I-30000J0D01*
G01*
X11811700Y-12415520D02*
X11841700Y-12385520D01*
X11811700Y-12355520D01*
X11781700Y-12385520D01*
X11811700Y-12415520D01*
X11781700Y-12345520D02*
X11781700Y-12425520D01*
X11841700Y-12425520D02*
G75*
G02*
X11781700Y-12425520I-30000J0D01*
G01*
X11841700Y-12425520D02*
X11841700Y-12345520D01*
X11841700Y-12345520D02*
G75*
G03*
X11781700Y-12345520I-30000J0D01*
G01*
X13955400Y-12279000D02*
X14035400Y-12359000D01*
X14035400Y-12279000D02*
X13955400Y-12359000D01*
X14035400Y-12319000D02*
G75*
G02*
X13955400Y-12319000I-40000J0D01*
G01*
X13955400Y-12319000D02*
G75*
G02*
X14035400Y-12319000I40000J0D01*
G01*
X14717400Y-12279000D02*
X14797400Y-12359000D01*
X14797400Y-12279000D02*
X14717400Y-12359000D01*
X14797400Y-12319000D02*
G75*
G02*
X14717400Y-12319000I-40000J0D01*
G01*
X14717400Y-12319000D02*
G75*
G02*
X14797400Y-12319000I40000J0D01*
G01*
X9553700Y-6554000D02*
X9653700Y-6654000D01*
X9653700Y-6554000D02*
X9553700Y-6654000D01*
X9603700Y-6554000D02*
X9603700Y-6654000D01*
X9553700Y-6604000D02*
X9653700Y-6604000D01*
X9553700Y-6808000D02*
X9653700Y-6908000D01*
X9653700Y-6808000D02*
X9553700Y-6908000D01*
X9603700Y-6808000D02*
X9603700Y-6908000D01*
X9553700Y-6858000D02*
X9653700Y-6858000D01*
X9553700Y-7062000D02*
X9653700Y-7162000D01*
X9653700Y-7062000D02*
X9553700Y-7162000D01*
X9603700Y-7062000D02*
X9603700Y-7162000D01*
X9553700Y-7112000D02*
X9653700Y-7112000D01*
X9553700Y-7316000D02*
X9653700Y-7416000D01*
X9653700Y-7316000D02*
X9553700Y-7416000D01*
X9603700Y-7316000D02*
X9603700Y-7416000D01*
X9553700Y-7366000D02*
X9653700Y-7366000D01*
X9553700Y-7824000D02*
X9653700Y-7924000D01*
X9653700Y-7824000D02*
X9553700Y-7924000D01*
X9603700Y-7824000D02*
X9603700Y-7924000D01*
X9553700Y-7874000D02*
X9653700Y-7874000D01*
X9553700Y-8078000D02*
X9653700Y-8178000D01*
X9653700Y-8078000D02*
X9553700Y-8178000D01*
X9603700Y-8078000D02*
X9603700Y-8178000D01*
X9553700Y-8128000D02*
X9653700Y-8128000D01*
X9553700Y-8332000D02*
X9653700Y-8432000D01*
X9653700Y-8332000D02*
X9553700Y-8432000D01*
X9603700Y-8332000D02*
X9603700Y-8432000D01*
X9553700Y-8382000D02*
X9653700Y-8382000D01*
X9553700Y-8586000D02*
X9653700Y-8686000D01*
X9653700Y-8586000D02*
X9553700Y-8686000D01*
X9603700Y-8586000D02*
X9603700Y-8686000D01*
X9553700Y-8636000D02*
X9653700Y-8636000D01*
X9553700Y-9094000D02*
X9653700Y-9194000D01*
X9653700Y-9094000D02*
X9553700Y-9194000D01*
X9603700Y-9094000D02*
X9603700Y-9194000D01*
X9553700Y-9144000D02*
X9653700Y-9144000D01*
X9553700Y-9348000D02*
X9653700Y-9448000D01*
X9653700Y-9348000D02*
X9553700Y-9448000D01*
X9603700Y-9348000D02*
X9603700Y-9448000D01*
X9553700Y-9398000D02*
X9653700Y-9398000D01*
X9553700Y-9602000D02*
X9653700Y-9702000D01*
X9653700Y-9602000D02*
X9553700Y-9702000D01*
X9603700Y-9602000D02*
X9603700Y-9702000D01*
X9553700Y-9652000D02*
X9653700Y-9652000D01*
X9553700Y-9856000D02*
X9653700Y-9956000D01*
X9653700Y-9856000D02*
X9553700Y-9956000D01*
X9603700Y-9856000D02*
X9603700Y-9956000D01*
X9553700Y-9906000D02*
X9653700Y-9906000D01*
X9553700Y-10364000D02*
X9653700Y-10464000D01*
X9653700Y-10364000D02*
X9553700Y-10464000D01*
X9603700Y-10364000D02*
X9603700Y-10464000D01*
X9553700Y-10414000D02*
X9653700Y-10414000D01*
X9553700Y-10618000D02*
X9653700Y-10718000D01*
X9653700Y-10618000D02*
X9553700Y-10718000D01*
X9603700Y-10618000D02*
X9603700Y-10718000D01*
X9553700Y-10668000D02*
X9653700Y-10668000D01*
X9553700Y-10872000D02*
X9653700Y-10972000D01*
X9653700Y-10872000D02*
X9553700Y-10972000D01*
X9603700Y-10872000D02*
X9603700Y-10972000D01*
X9553700Y-10922000D02*
X9653700Y-10922000D01*
X9553700Y-11126000D02*
X9653700Y-11226000D01*
X9653700Y-11126000D02*
X9553700Y-11226000D01*
X9603700Y-11126000D02*
X9603700Y-11226000D01*
X9553700Y-11176000D02*
X9653700Y-11176000D01*
X10237000Y-10872000D02*
X10337000Y-10972000D01*
X10337000Y-10872000D02*
X10237000Y-10972000D01*
X10287000Y-10872000D02*
X10287000Y-10972000D01*
X10237000Y-10922000D02*
X10337000Y-10922000D01*
X10237000Y-11380000D02*
X10337000Y-11480000D01*
X10337000Y-11380000D02*
X10237000Y-11480000D01*
X10287000Y-11380000D02*
X10287000Y-11480000D01*
X10237000Y-11430000D02*
X10337000Y-11430000D01*
X10491000Y-10872000D02*
X10591000Y-10972000D01*
X10591000Y-10872000D02*
X10491000Y-10972000D01*
X10541000Y-10872000D02*
X10541000Y-10972000D01*
X10491000Y-10922000D02*
X10591000Y-10922000D01*
X10491000Y-11380000D02*
X10591000Y-11480000D01*
X10591000Y-11380000D02*
X10491000Y-11480000D01*
X10541000Y-11380000D02*
X10541000Y-11480000D01*
X10491000Y-11430000D02*
X10591000Y-11430000D01*
X10618380Y-6048540D02*
X10718380Y-6148540D01*
X10718380Y-6048540D02*
X10618380Y-6148540D01*
X10668380Y-6048540D02*
X10668380Y-6148540D01*
X10618380Y-6098540D02*
X10718380Y-6098540D01*
X10745000Y-10872000D02*
X10845000Y-10972000D01*
X10845000Y-10872000D02*
X10745000Y-10972000D01*
X10795000Y-10872000D02*
X10795000Y-10972000D01*
X10745000Y-10922000D02*
X10845000Y-10922000D01*
X10745000Y-11380000D02*
X10845000Y-11480000D01*
X10845000Y-11380000D02*
X10745000Y-11480000D01*
X10795000Y-11380000D02*
X10795000Y-11480000D01*
X10745000Y-11430000D02*
X10845000Y-11430000D01*
X10999000Y-10872000D02*
X11099000Y-10972000D01*
X11099000Y-10872000D02*
X10999000Y-10972000D01*
X11049000Y-10872000D02*
X11049000Y-10972000D01*
X10999000Y-10922000D02*
X11099000Y-10922000D01*
X11118380Y-6048540D02*
X11218380Y-6148540D01*
X11218380Y-6048540D02*
X11118380Y-6148540D01*
X11168380Y-6048540D02*
X11168380Y-6148540D01*
X11118380Y-6098540D02*
X11218380Y-6098540D01*
X11205700Y-11380000D02*
X11305700Y-11480000D01*
X11305700Y-11380000D02*
X11205700Y-11480000D01*
X11255700Y-11380000D02*
X11255700Y-11480000D01*
X11205700Y-11430000D02*
X11305700Y-11430000D01*
X11253000Y-6808000D02*
X11353000Y-6908000D01*
X11353000Y-6808000D02*
X11253000Y-6908000D01*
X11303000Y-6808000D02*
X11303000Y-6908000D01*
X11253000Y-6858000D02*
X11353000Y-6858000D01*
X11253000Y-7062000D02*
X11353000Y-7162000D01*
X11353000Y-7062000D02*
X11253000Y-7162000D01*
X11303000Y-7062000D02*
X11303000Y-7162000D01*
X11253000Y-7112000D02*
X11353000Y-7112000D01*
X11253000Y-7316000D02*
X11353000Y-7416000D01*
X11353000Y-7316000D02*
X11253000Y-7416000D01*
X11303000Y-7316000D02*
X11303000Y-7416000D01*
X11253000Y-7366000D02*
X11353000Y-7366000D01*
X11253000Y-7570000D02*
X11353000Y-7670000D01*
X11353000Y-7570000D02*
X11253000Y-7670000D01*
X11303000Y-7570000D02*
X11303000Y-7670000D01*
X11253000Y-7620000D02*
X11353000Y-7620000D01*
X11253000Y-7824000D02*
X11353000Y-7924000D01*
X11353000Y-7824000D02*
X11253000Y-7924000D01*
X11303000Y-7824000D02*
X11303000Y-7924000D01*
X11253000Y-7874000D02*
X11353000Y-7874000D01*
X11253000Y-8078000D02*
X11353000Y-8178000D01*
X11353000Y-8078000D02*
X11253000Y-8178000D01*
X11303000Y-8078000D02*
X11303000Y-8178000D01*
X11253000Y-8128000D02*
X11353000Y-8128000D01*
X11253000Y-8332000D02*
X11353000Y-8432000D01*
X11353000Y-8332000D02*
X11253000Y-8432000D01*
X11303000Y-8332000D02*
X11303000Y-8432000D01*
X11253000Y-8382000D02*
X11353000Y-8382000D01*
X11253000Y-8586000D02*
X11353000Y-8686000D01*
X11353000Y-8586000D02*
X11253000Y-8686000D01*
X11303000Y-8586000D02*
X11303000Y-8686000D01*
X11253000Y-8636000D02*
X11353000Y-8636000D01*
X11253000Y-8840000D02*
X11353000Y-8940000D01*
X11353000Y-8840000D02*
X11253000Y-8940000D01*
X11303000Y-8840000D02*
X11303000Y-8940000D01*
X11253000Y-8890000D02*
X11353000Y-8890000D01*
X11253000Y-9094000D02*
X11353000Y-9194000D01*
X11353000Y-9094000D02*
X11253000Y-9194000D01*
X11303000Y-9094000D02*
X11303000Y-9194000D01*
X11253000Y-9144000D02*
X11353000Y-9144000D01*
X11253000Y-9348000D02*
X11353000Y-9448000D01*
X11353000Y-9348000D02*
X11253000Y-9448000D01*
X11303000Y-9348000D02*
X11303000Y-9448000D01*
X11253000Y-9398000D02*
X11353000Y-9398000D01*
X11253000Y-9602000D02*
X11353000Y-9702000D01*
X11353000Y-9602000D02*
X11253000Y-9702000D01*
X11303000Y-9602000D02*
X11303000Y-9702000D01*
X11253000Y-9652000D02*
X11353000Y-9652000D01*
X11253000Y-9856000D02*
X11353000Y-9956000D01*
X11353000Y-9856000D02*
X11253000Y-9956000D01*
X11303000Y-9856000D02*
X11303000Y-9956000D01*
X11253000Y-9906000D02*
X11353000Y-9906000D01*
X11253000Y-10110000D02*
X11353000Y-10210000D01*
X11353000Y-10110000D02*
X11253000Y-10210000D01*
X11303000Y-10110000D02*
X11303000Y-10210000D01*
X11253000Y-10160000D02*
X11353000Y-10160000D01*
X11253000Y-10364000D02*
X11353000Y-10464000D01*
X11353000Y-10364000D02*
X11253000Y-10464000D01*
X11303000Y-10364000D02*
X11303000Y-10464000D01*
X11253000Y-10414000D02*
X11353000Y-10414000D01*
X11459700Y-11380000D02*
X11559700Y-11480000D01*
X11559700Y-11380000D02*
X11459700Y-11480000D01*
X11509700Y-11380000D02*
X11509700Y-11480000D01*
X11459700Y-11430000D02*
X11559700Y-11430000D01*
X11713700Y-11380000D02*
X11813700Y-11480000D01*
X11813700Y-11380000D02*
X11713700Y-11480000D01*
X11763700Y-11380000D02*
X11763700Y-11480000D01*
X11713700Y-11430000D02*
X11813700Y-11430000D01*
X11967700Y-11380000D02*
X12067700Y-11480000D01*
X12067700Y-11380000D02*
X11967700Y-11480000D01*
X12017700Y-11380000D02*
X12017700Y-11480000D01*
X11967700Y-11430000D02*
X12067700Y-11430000D01*
X12015000Y-6811000D02*
X12115000Y-6911000D01*
X12115000Y-6811000D02*
X12015000Y-6911000D01*
X12065000Y-6811000D02*
X12065000Y-6911000D01*
X12015000Y-6861000D02*
X12115000Y-6861000D01*
X12015000Y-7065000D02*
X12115000Y-7165000D01*
X12115000Y-7065000D02*
X12015000Y-7165000D01*
X12065000Y-7065000D02*
X12065000Y-7165000D01*
X12015000Y-7115000D02*
X12115000Y-7115000D01*
X12015000Y-7319000D02*
X12115000Y-7419000D01*
X12115000Y-7319000D02*
X12015000Y-7419000D01*
X12065000Y-7319000D02*
X12065000Y-7419000D01*
X12015000Y-7369000D02*
X12115000Y-7369000D01*
X12015000Y-7573000D02*
X12115000Y-7673000D01*
X12115000Y-7573000D02*
X12015000Y-7673000D01*
X12065000Y-7573000D02*
X12065000Y-7673000D01*
X12015000Y-7623000D02*
X12115000Y-7623000D01*
X12015000Y-7827000D02*
X12115000Y-7927000D01*
X12115000Y-7827000D02*
X12015000Y-7927000D01*
X12065000Y-7827000D02*
X12065000Y-7927000D01*
X12015000Y-7877000D02*
X12115000Y-7877000D01*
X12015000Y-8081000D02*
X12115000Y-8181000D01*
X12115000Y-8081000D02*
X12015000Y-8181000D01*
X12065000Y-8081000D02*
X12065000Y-8181000D01*
X12015000Y-8131000D02*
X12115000Y-8131000D01*
X12015000Y-8335000D02*
X12115000Y-8435000D01*
X12115000Y-8335000D02*
X12015000Y-8435000D01*
X12065000Y-8335000D02*
X12065000Y-8435000D01*
X12015000Y-8385000D02*
X12115000Y-8385000D01*
X12015000Y-8589000D02*
X12115000Y-8689000D01*
X12115000Y-8589000D02*
X12015000Y-8689000D01*
X12065000Y-8589000D02*
X12065000Y-8689000D01*
X12015000Y-8639000D02*
X12115000Y-8639000D01*
X12015000Y-8843000D02*
X12115000Y-8943000D01*
X12115000Y-8843000D02*
X12015000Y-8943000D01*
X12065000Y-8843000D02*
X12065000Y-8943000D01*
X12015000Y-8893000D02*
X12115000Y-8893000D01*
X12015000Y-9097000D02*
X12115000Y-9197000D01*
X12115000Y-9097000D02*
X12015000Y-9197000D01*
X12065000Y-9097000D02*
X12065000Y-9197000D01*
X12015000Y-9147000D02*
X12115000Y-9147000D01*
X12015000Y-9351000D02*
X12115000Y-9451000D01*
X12115000Y-9351000D02*
X12015000Y-9451000D01*
X12065000Y-9351000D02*
X12065000Y-9451000D01*
X12015000Y-9401000D02*
X12115000Y-9401000D01*
X12015000Y-9605000D02*
X12115000Y-9705000D01*
X12115000Y-9605000D02*
X12015000Y-9705000D01*
X12065000Y-9605000D02*
X12065000Y-9705000D01*
X12015000Y-9655000D02*
X12115000Y-9655000D01*
X12015000Y-9859000D02*
X12115000Y-9959000D01*
X12115000Y-9859000D02*
X12015000Y-9959000D01*
X12065000Y-9859000D02*
X12065000Y-9959000D01*
X12015000Y-9909000D02*
X12115000Y-9909000D01*
X12015000Y-10113000D02*
X12115000Y-10213000D01*
X12115000Y-10113000D02*
X12015000Y-10213000D01*
X12065000Y-10113000D02*
X12065000Y-10213000D01*
X12015000Y-10163000D02*
X12115000Y-10163000D01*
X12015000Y-10367000D02*
X12115000Y-10467000D01*
X12115000Y-10367000D02*
X12015000Y-10467000D01*
X12065000Y-10367000D02*
X12065000Y-10467000D01*
X12015000Y-10417000D02*
X12115000Y-10417000D01*
X12523000Y-11507000D02*
X12623000Y-11607000D01*
X12623000Y-11507000D02*
X12523000Y-11607000D01*
X12573000Y-11507000D02*
X12573000Y-11607000D01*
X12523000Y-11557000D02*
X12623000Y-11557000D01*
X12773000Y-11507000D02*
X12873000Y-11607000D01*
X12873000Y-11507000D02*
X12773000Y-11607000D01*
X12823000Y-11507000D02*
X12823000Y-11607000D01*
X12773000Y-11557000D02*
X12873000Y-11557000D01*
X12855700Y-12396000D02*
X12955700Y-12496000D01*
X12955700Y-12396000D02*
X12855700Y-12496000D01*
X12905700Y-12396000D02*
X12905700Y-12496000D01*
X12855700Y-12446000D02*
X12955700Y-12446000D01*
X13109700Y-12396000D02*
X13209700Y-12496000D01*
X13209700Y-12396000D02*
X13109700Y-12496000D01*
X13159700Y-12396000D02*
X13159700Y-12496000D01*
X13109700Y-12446000D02*
X13209700Y-12446000D01*
X13285000Y-5030000D02*
X13385000Y-5130000D01*
X13385000Y-5030000D02*
X13285000Y-5130000D01*
X13335000Y-5030000D02*
X13335000Y-5130000D01*
X13285000Y-5080000D02*
X13385000Y-5080000D01*
X13285000Y-5535500D02*
X13385000Y-5635500D01*
X13385000Y-5535500D02*
X13285000Y-5635500D01*
X13335000Y-5535500D02*
X13335000Y-5635500D01*
X13285000Y-5585500D02*
X13385000Y-5585500D01*
X13539000Y-5030000D02*
X13639000Y-5130000D01*
X13639000Y-5030000D02*
X13539000Y-5130000D01*
X13589000Y-5030000D02*
X13589000Y-5130000D01*
X13539000Y-5080000D02*
X13639000Y-5080000D01*
X13539000Y-5535500D02*
X13639000Y-5635500D01*
X13639000Y-5535500D02*
X13539000Y-5635500D01*
X13589000Y-5535500D02*
X13589000Y-5635500D01*
X13539000Y-5585500D02*
X13639000Y-5585500D01*
X13793000Y-5030000D02*
X13893000Y-5130000D01*
X13893000Y-5030000D02*
X13793000Y-5130000D01*
X13843000Y-5030000D02*
X13843000Y-5130000D01*
X13793000Y-5080000D02*
X13893000Y-5080000D01*
X13793000Y-5535500D02*
X13893000Y-5635500D01*
X13893000Y-5535500D02*
X13793000Y-5635500D01*
X13843000Y-5535500D02*
X13843000Y-5635500D01*
X13793000Y-5585500D02*
X13893000Y-5585500D01*
X13793000Y-6808000D02*
X13893000Y-6908000D01*
X13893000Y-6808000D02*
X13793000Y-6908000D01*
X13843000Y-6808000D02*
X13843000Y-6908000D01*
X13793000Y-6858000D02*
X13893000Y-6858000D01*
X13793000Y-7062000D02*
X13893000Y-7162000D01*
X13893000Y-7062000D02*
X13793000Y-7162000D01*
X13843000Y-7062000D02*
X13843000Y-7162000D01*
X13793000Y-7112000D02*
X13893000Y-7112000D01*
X13793000Y-7316000D02*
X13893000Y-7416000D01*
X13893000Y-7316000D02*
X13793000Y-7416000D01*
X13843000Y-7316000D02*
X13843000Y-7416000D01*
X13793000Y-7366000D02*
X13893000Y-7366000D01*
X13793000Y-7570000D02*
X13893000Y-7670000D01*
X13893000Y-7570000D02*
X13793000Y-7670000D01*
X13843000Y-7570000D02*
X13843000Y-7670000D01*
X13793000Y-7620000D02*
X13893000Y-7620000D01*
X13793000Y-7824000D02*
X13893000Y-7924000D01*
X13893000Y-7824000D02*
X13793000Y-7924000D01*
X13843000Y-7824000D02*
X13843000Y-7924000D01*
X13793000Y-7874000D02*
X13893000Y-7874000D01*
X13793000Y-8078000D02*
X13893000Y-8178000D01*
X13893000Y-8078000D02*
X13793000Y-8178000D01*
X13843000Y-8078000D02*
X13843000Y-8178000D01*
X13793000Y-8128000D02*
X13893000Y-8128000D01*
X13793000Y-8332000D02*
X13893000Y-8432000D01*
X13893000Y-8332000D02*
X13793000Y-8432000D01*
X13843000Y-8332000D02*
X13843000Y-8432000D01*
X13793000Y-8382000D02*
X13893000Y-8382000D01*
X13793000Y-8586000D02*
X13893000Y-8686000D01*
X13893000Y-8586000D02*
X13793000Y-8686000D01*
X13843000Y-8586000D02*
X13843000Y-8686000D01*
X13793000Y-8636000D02*
X13893000Y-8636000D01*
X13793000Y-8840000D02*
X13893000Y-8940000D01*
X13893000Y-8840000D02*
X13793000Y-8940000D01*
X13843000Y-8840000D02*
X13843000Y-8940000D01*
X13793000Y-8890000D02*
X13893000Y-8890000D01*
X13793000Y-9094000D02*
X13893000Y-9194000D01*
X13893000Y-9094000D02*
X13793000Y-9194000D01*
X13843000Y-9094000D02*
X13843000Y-9194000D01*
X13793000Y-9144000D02*
X13893000Y-9144000D01*
X13793000Y-9348000D02*
X13893000Y-9448000D01*
X13893000Y-9348000D02*
X13793000Y-9448000D01*
X13843000Y-9348000D02*
X13843000Y-9448000D01*
X13793000Y-9398000D02*
X13893000Y-9398000D01*
X13793000Y-9602000D02*
X13893000Y-9702000D01*
X13893000Y-9602000D02*
X13793000Y-9702000D01*
X13843000Y-9602000D02*
X13843000Y-9702000D01*
X13793000Y-9652000D02*
X13893000Y-9652000D01*
X13793000Y-9856000D02*
X13893000Y-9956000D01*
X13893000Y-9856000D02*
X13793000Y-9956000D01*
X13843000Y-9856000D02*
X13843000Y-9956000D01*
X13793000Y-9906000D02*
X13893000Y-9906000D01*
X13793000Y-10110000D02*
X13893000Y-10210000D01*
X13893000Y-10110000D02*
X13793000Y-10210000D01*
X13843000Y-10110000D02*
X13843000Y-10210000D01*
X13793000Y-10160000D02*
X13893000Y-10160000D01*
X13793000Y-10364000D02*
X13893000Y-10464000D01*
X13893000Y-10364000D02*
X13793000Y-10464000D01*
X13843000Y-10364000D02*
X13843000Y-10464000D01*
X13793000Y-10414000D02*
X13893000Y-10414000D01*
X14047000Y-5030000D02*
X14147000Y-5130000D01*
X14147000Y-5030000D02*
X14047000Y-5130000D01*
X14097000Y-5030000D02*
X14097000Y-5130000D01*
X14047000Y-5080000D02*
X14147000Y-5080000D01*
X14047000Y-5535500D02*
X14147000Y-5635500D01*
X14147000Y-5535500D02*
X14047000Y-5635500D01*
X14097000Y-5535500D02*
X14097000Y-5635500D01*
X14047000Y-5585500D02*
X14147000Y-5585500D01*
X14555000Y-6808000D02*
X14655000Y-6908000D01*
X14655000Y-6808000D02*
X14555000Y-6908000D01*
X14605000Y-6808000D02*
X14605000Y-6908000D01*
X14555000Y-6858000D02*
X14655000Y-6858000D01*
X14555000Y-7062000D02*
X14655000Y-7162000D01*
X14655000Y-7062000D02*
X14555000Y-7162000D01*
X14605000Y-7062000D02*
X14605000Y-7162000D01*
X14555000Y-7112000D02*
X14655000Y-7112000D01*
X14555000Y-7316000D02*
X14655000Y-7416000D01*
X14655000Y-7316000D02*
X14555000Y-7416000D01*
X14605000Y-7316000D02*
X14605000Y-7416000D01*
X14555000Y-7366000D02*
X14655000Y-7366000D01*
X14555000Y-7570000D02*
X14655000Y-7670000D01*
X14655000Y-7570000D02*
X14555000Y-7670000D01*
X14605000Y-7570000D02*
X14605000Y-7670000D01*
X14555000Y-7620000D02*
X14655000Y-7620000D01*
X14555000Y-7824000D02*
X14655000Y-7924000D01*
X14655000Y-7824000D02*
X14555000Y-7924000D01*
X14605000Y-7824000D02*
X14605000Y-7924000D01*
X14555000Y-7874000D02*
X14655000Y-7874000D01*
X14555000Y-8078000D02*
X14655000Y-8178000D01*
X14655000Y-8078000D02*
X14555000Y-8178000D01*
X14605000Y-8078000D02*
X14605000Y-8178000D01*
X14555000Y-8128000D02*
X14655000Y-8128000D01*
X14555000Y-8332000D02*
X14655000Y-8432000D01*
X14655000Y-8332000D02*
X14555000Y-8432000D01*
X14605000Y-8332000D02*
X14605000Y-8432000D01*
X14555000Y-8382000D02*
X14655000Y-8382000D01*
X14555000Y-8586000D02*
X14655000Y-8686000D01*
X14655000Y-8586000D02*
X14555000Y-8686000D01*
X14605000Y-8586000D02*
X14605000Y-8686000D01*
X14555000Y-8636000D02*
X14655000Y-8636000D01*
X14555000Y-8840000D02*
X14655000Y-8940000D01*
X14655000Y-8840000D02*
X14555000Y-8940000D01*
X14605000Y-8840000D02*
X14605000Y-8940000D01*
X14555000Y-8890000D02*
X14655000Y-8890000D01*
X14555000Y-9094000D02*
X14655000Y-9194000D01*
X14655000Y-9094000D02*
X14555000Y-9194000D01*
X14605000Y-9094000D02*
X14605000Y-9194000D01*
X14555000Y-9144000D02*
X14655000Y-9144000D01*
X14555000Y-9348000D02*
X14655000Y-9448000D01*
X14655000Y-9348000D02*
X14555000Y-9448000D01*
X14605000Y-9348000D02*
X14605000Y-9448000D01*
X14555000Y-9398000D02*
X14655000Y-9398000D01*
X14555000Y-9602000D02*
X14655000Y-9702000D01*
X14655000Y-9602000D02*
X14555000Y-9702000D01*
X14605000Y-9602000D02*
X14605000Y-9702000D01*
X14555000Y-9652000D02*
X14655000Y-9652000D01*
X14555000Y-9856000D02*
X14655000Y-9956000D01*
X14655000Y-9856000D02*
X14555000Y-9956000D01*
X14605000Y-9856000D02*
X14605000Y-9956000D01*
X14555000Y-9906000D02*
X14655000Y-9906000D01*
X14555000Y-10110000D02*
X14655000Y-10210000D01*
X14655000Y-10110000D02*
X14555000Y-10210000D01*
X14605000Y-10110000D02*
X14605000Y-10210000D01*
X14555000Y-10160000D02*
X14655000Y-10160000D01*
X14555000Y-10364000D02*
X14655000Y-10464000D01*
X14655000Y-10364000D02*
X14555000Y-10464000D01*
X14605000Y-10364000D02*
X14605000Y-10464000D01*
X14555000Y-10414000D02*
X14655000Y-10414000D01*
X15647200Y-6046000D02*
X15747200Y-6146000D01*
X15747200Y-6046000D02*
X15647200Y-6146000D01*
X15697200Y-6046000D02*
X15697200Y-6146000D01*
X15647200Y-6096000D02*
X15747200Y-6096000D01*
X15647200Y-6300000D02*
X15747200Y-6400000D01*
X15747200Y-6300000D02*
X15647200Y-6400000D01*
X15697200Y-6300000D02*
X15697200Y-6400000D01*
X15647200Y-6350000D02*
X15747200Y-6350000D01*
X15647200Y-6554000D02*
X15747200Y-6654000D01*
X15747200Y-6554000D02*
X15647200Y-6654000D01*
X15697200Y-6554000D02*
X15697200Y-6654000D01*
X15647200Y-6604000D02*
X15747200Y-6604000D01*
X15647200Y-6808000D02*
X15747200Y-6908000D01*
X15747200Y-6808000D02*
X15647200Y-6908000D01*
X15697200Y-6808000D02*
X15697200Y-6908000D01*
X15647200Y-6858000D02*
X15747200Y-6858000D01*
X15647200Y-8586000D02*
X15747200Y-8686000D01*
X15747200Y-8586000D02*
X15647200Y-8686000D01*
X15697200Y-8586000D02*
X15697200Y-8686000D01*
X15647200Y-8636000D02*
X15747200Y-8636000D01*
X15647200Y-8840000D02*
X15747200Y-8940000D01*
X15747200Y-8840000D02*
X15647200Y-8940000D01*
X15697200Y-8840000D02*
X15697200Y-8940000D01*
X15647200Y-8890000D02*
X15747200Y-8890000D01*
X15647200Y-9094000D02*
X15747200Y-9194000D01*
X15747200Y-9094000D02*
X15647200Y-9194000D01*
X15697200Y-9094000D02*
X15697200Y-9194000D01*
X15647200Y-9144000D02*
X15747200Y-9144000D01*
X15647200Y-9348000D02*
X15747200Y-9448000D01*
X15747200Y-9348000D02*
X15647200Y-9448000D01*
X15697200Y-9348000D02*
X15697200Y-9448000D01*
X15647200Y-9398000D02*
X15747200Y-9398000D01*
X15647200Y-9856000D02*
X15747200Y-9956000D01*
X15747200Y-9856000D02*
X15647200Y-9956000D01*
X15697200Y-9856000D02*
X15697200Y-9956000D01*
X15647200Y-9906000D02*
X15747200Y-9906000D01*
X15647200Y-10110000D02*
X15747200Y-10210000D01*
X15747200Y-10110000D02*
X15647200Y-10210000D01*
X15697200Y-10110000D02*
X15697200Y-10210000D01*
X15647200Y-10160000D02*
X15747200Y-10160000D01*
X15647200Y-10364000D02*
X15747200Y-10464000D01*
X15747200Y-10364000D02*
X15647200Y-10464000D01*
X15697200Y-10364000D02*
X15697200Y-10464000D01*
X15647200Y-10414000D02*
X15747200Y-10414000D01*
X15647200Y-10618000D02*
X15747200Y-10718000D01*
X15747200Y-10618000D02*
X15647200Y-10718000D01*
X15697200Y-10618000D02*
X15697200Y-10718000D01*
X15647200Y-10668000D02*
X15747200Y-10668000D01*
X15649700Y-7316000D02*
X15749700Y-7416000D01*
X15749700Y-7316000D02*
X15649700Y-7416000D01*
X15699700Y-7316000D02*
X15699700Y-7416000D01*
X15649700Y-7366000D02*
X15749700Y-7366000D01*
X15649700Y-7570000D02*
X15749700Y-7670000D01*
X15749700Y-7570000D02*
X15649700Y-7670000D01*
X15699700Y-7570000D02*
X15699700Y-7670000D01*
X15649700Y-7620000D02*
X15749700Y-7620000D01*
X15649700Y-7824000D02*
X15749700Y-7924000D01*
X15749700Y-7824000D02*
X15649700Y-7924000D01*
X15699700Y-7824000D02*
X15699700Y-7924000D01*
X15649700Y-7874000D02*
X15749700Y-7874000D01*
X15649700Y-8078000D02*
X15749700Y-8178000D01*
X15749700Y-8078000D02*
X15649700Y-8178000D01*
X15699700Y-8078000D02*
X15699700Y-8178000D01*
X15649700Y-8128000D02*
X15749700Y-8128000D01*
X16155200Y-6046000D02*
X16255200Y-6146000D01*
X16255200Y-6046000D02*
X16155200Y-6146000D01*
X16205200Y-6046000D02*
X16205200Y-6146000D01*
X16155200Y-6096000D02*
X16255200Y-6096000D01*
X16155200Y-6300000D02*
X16255200Y-6400000D01*
X16255200Y-6300000D02*
X16155200Y-6400000D01*
X16205200Y-6300000D02*
X16205200Y-6400000D01*
X16155200Y-6350000D02*
X16255200Y-6350000D01*
X16155200Y-6554000D02*
X16255200Y-6654000D01*
X16255200Y-6554000D02*
X16155200Y-6654000D01*
X16205200Y-6554000D02*
X16205200Y-6654000D01*
X16155200Y-6604000D02*
X16255200Y-6604000D01*
X16155200Y-6808000D02*
X16255200Y-6908000D01*
X16255200Y-6808000D02*
X16155200Y-6908000D01*
X16205200Y-6808000D02*
X16205200Y-6908000D01*
X16155200Y-6858000D02*
X16255200Y-6858000D01*
X16155200Y-7316000D02*
X16255200Y-7416000D01*
X16255200Y-7316000D02*
X16155200Y-7416000D01*
X16205200Y-7316000D02*
X16205200Y-7416000D01*
X16155200Y-7366000D02*
X16255200Y-7366000D01*
X16155200Y-7570000D02*
X16255200Y-7670000D01*
X16255200Y-7570000D02*
X16155200Y-7670000D01*
X16205200Y-7570000D02*
X16205200Y-7670000D01*
X16155200Y-7620000D02*
X16255200Y-7620000D01*
X16155200Y-7824000D02*
X16255200Y-7924000D01*
X16255200Y-7824000D02*
X16155200Y-7924000D01*
X16205200Y-7824000D02*
X16205200Y-7924000D01*
X16155200Y-7874000D02*
X16255200Y-7874000D01*
X16155200Y-8078000D02*
X16255200Y-8178000D01*
X16255200Y-8078000D02*
X16155200Y-8178000D01*
X16205200Y-8078000D02*
X16205200Y-8178000D01*
X16155200Y-8128000D02*
X16255200Y-8128000D01*
X16155200Y-8586000D02*
X16255200Y-8686000D01*
X16255200Y-8586000D02*
X16155200Y-8686000D01*
X16205200Y-8586000D02*
X16205200Y-8686000D01*
X16155200Y-8636000D02*
X16255200Y-8636000D01*
X16155200Y-8840000D02*
X16255200Y-8940000D01*
X16255200Y-8840000D02*
X16155200Y-8940000D01*
X16205200Y-8840000D02*
X16205200Y-8940000D01*
X16155200Y-8890000D02*
X16255200Y-8890000D01*
X16155200Y-9094000D02*
X16255200Y-9194000D01*
X16255200Y-9094000D02*
X16155200Y-9194000D01*
X16205200Y-9094000D02*
X16205200Y-9194000D01*
X16155200Y-9144000D02*
X16255200Y-9144000D01*
X16155200Y-9348000D02*
X16255200Y-9448000D01*
X16255200Y-9348000D02*
X16155200Y-9448000D01*
X16205200Y-9348000D02*
X16205200Y-9448000D01*
X16155200Y-9398000D02*
X16255200Y-9398000D01*
X16155200Y-9856000D02*
X16255200Y-9956000D01*
X16255200Y-9856000D02*
X16155200Y-9956000D01*
X16205200Y-9856000D02*
X16205200Y-9956000D01*
X16155200Y-9906000D02*
X16255200Y-9906000D01*
X16155200Y-10110000D02*
X16255200Y-10210000D01*
X16255200Y-10110000D02*
X16155200Y-10210000D01*
X16205200Y-10110000D02*
X16205200Y-10210000D01*
X16155200Y-10160000D02*
X16255200Y-10160000D01*
X16155200Y-10364000D02*
X16255200Y-10464000D01*
X16255200Y-10364000D02*
X16155200Y-10464000D01*
X16205200Y-10364000D02*
X16205200Y-10464000D01*
X16155200Y-10414000D02*
X16255200Y-10414000D01*
X16155200Y-10618000D02*
X16255200Y-10718000D01*
X16255200Y-10618000D02*
X16155200Y-10718000D01*
X16205200Y-10618000D02*
X16205200Y-10718000D01*
X16155200Y-10668000D02*
X16255200Y-10668000D01*
D13*
X12132000Y-4977800D02*
X12242000Y-5087800D01*
X12242000Y-4977800D02*
X12132000Y-5087800D01*
X12225891Y-5071691D02*
X12225891Y-4993909D01*
X12148109Y-4993909D01*
X12148109Y-5071691D01*
X12225891Y-5071691D01*
X12132000Y-5427800D02*
X12242000Y-5537800D01*
X12242000Y-5427800D02*
X12132000Y-5537800D01*
X12225891Y-5521691D02*
X12225891Y-5443909D01*
X12148109Y-5443909D01*
X12148109Y-5521691D01*
X12225891Y-5521691D01*
X12782000Y-4977800D02*
X12892000Y-5087800D01*
X12892000Y-4977800D02*
X12782000Y-5087800D01*
X12875891Y-5071691D02*
X12875891Y-4993909D01*
X12798109Y-4993909D01*
X12798109Y-5071691D01*
X12875891Y-5071691D01*
X12782000Y-5427800D02*
X12892000Y-5537800D01*
X12892000Y-5427800D02*
X12782000Y-5537800D01*
X12875891Y-5521691D02*
X12875891Y-5443909D01*
X12798109Y-5443909D01*
X12798109Y-5521691D01*
X12875891Y-5521691D01*
X13287700Y-11226200D02*
X13397700Y-11336200D01*
X13397700Y-11226200D02*
X13287700Y-11336200D01*
X13381591Y-11320091D02*
X13381591Y-11242309D01*
X13303809Y-11242309D01*
X13303809Y-11320091D01*
X13381591Y-11320091D01*
X13287700Y-11676200D02*
X13397700Y-11786200D01*
X13397700Y-11676200D02*
X13287700Y-11786200D01*
X13381591Y-11770091D02*
X13381591Y-11692309D01*
X13303809Y-11692309D01*
X13303809Y-11770091D01*
X13381591Y-11770091D01*
X13937700Y-11226200D02*
X14047700Y-11336200D01*
X14047700Y-11226200D02*
X13937700Y-11336200D01*
X14031591Y-11320091D02*
X14031591Y-11242309D01*
X13953809Y-11242309D01*
X13953809Y-11320091D01*
X14031591Y-11320091D01*
X13937700Y-11676200D02*
X14047700Y-11786200D01*
X14047700Y-11676200D02*
X13937700Y-11786200D01*
X14031591Y-11770091D02*
X14031591Y-11692309D01*
X13953809Y-11692309D01*
X13953809Y-11770091D01*
X14031591Y-11770091D01*
X14572700Y-11226200D02*
X14682700Y-11336200D01*
X14682700Y-11226200D02*
X14572700Y-11336200D01*
X14666591Y-11320091D02*
X14666591Y-11242309D01*
X14588809Y-11242309D01*
X14588809Y-11320091D01*
X14666591Y-11320091D01*
X14572700Y-11676200D02*
X14682700Y-11786200D01*
X14682700Y-11676200D02*
X14572700Y-11786200D01*
X14666591Y-11770091D02*
X14666591Y-11692309D01*
X14588809Y-11692309D01*
X14588809Y-11770091D01*
X14666591Y-11770091D01*
X15222700Y-11226200D02*
X15332700Y-11336200D01*
X15332700Y-11226200D02*
X15222700Y-11336200D01*
X15316591Y-11320091D02*
X15316591Y-11242309D01*
X15238809Y-11242309D01*
X15238809Y-11320091D01*
X15316591Y-11320091D01*
X15222700Y-11676200D02*
X15332700Y-11786200D01*
X15332700Y-11676200D02*
X15222700Y-11786200D01*
X15316591Y-11770091D02*
X15316591Y-11692309D01*
X15238809Y-11692309D01*
X15238809Y-11770091D01*
X15316591Y-11770091D01*
D14*
X9818000Y-5119000D02*
X10248000Y-5549000D01*
X10248000Y-5119000D02*
X9818000Y-5549000D01*
X10033000Y-5549000D02*
X10248000Y-5334000D01*
X10033000Y-5119000D01*
X9818000Y-5334000D01*
X10033000Y-5549000D01*
X9818000Y-11977000D02*
X10248000Y-12407000D01*
X10248000Y-11977000D02*
X9818000Y-12407000D01*
X10033000Y-12407000D02*
X10248000Y-12192000D01*
X10033000Y-11977000D01*
X9818000Y-12192000D01*
X10033000Y-12407000D01*
X12739000Y-8421000D02*
X13169000Y-8851000D01*
X13169000Y-8421000D02*
X12739000Y-8851000D01*
X12954000Y-8851000D02*
X13169000Y-8636000D01*
X12954000Y-8421000D01*
X12739000Y-8636000D01*
X12954000Y-8851000D01*
X15660000Y-5119000D02*
X16090000Y-5549000D01*
X16090000Y-5119000D02*
X15660000Y-5549000D01*
X15875000Y-5549000D02*
X16090000Y-5334000D01*
X15875000Y-5119000D01*
X15660000Y-5334000D01*
X15875000Y-5549000D01*
X15660000Y-11977000D02*
X16090000Y-12407000D01*
X16090000Y-11977000D02*
X15660000Y-12407000D01*
X15875000Y-12407000D02*
X16090000Y-12192000D01*
X15875000Y-11977000D01*
X15660000Y-12192000D01*
X15875000Y-12407000D01*
D11*
X9734977Y-13013984D02*
X9734977Y-12813984D01*
X9734977Y-12813984D02*
X9782596Y-12813984D01*
X9782596Y-12813984D02*
X9811167Y-12823508D01*
X9811167Y-12823508D02*
X9830215Y-12842555D01*
X9830215Y-12842555D02*
X9839739Y-12861603D01*
X9839739Y-12861603D02*
X9849263Y-12899698D01*
X9849263Y-12899698D02*
X9849263Y-12928269D01*
X9849263Y-12928269D02*
X9839739Y-12966365D01*
X9839739Y-12966365D02*
X9830215Y-12985412D01*
X9830215Y-12985412D02*
X9811167Y-13004460D01*
X9811167Y-13004460D02*
X9782596Y-13013984D01*
X9782596Y-13013984D02*
X9734977Y-13013984D01*
X9934977Y-13013984D02*
X9934977Y-12880650D01*
X9934977Y-12918746D02*
X9944501Y-12899698D01*
X9944501Y-12899698D02*
X9954024Y-12890174D01*
X9954024Y-12890174D02*
X9973072Y-12880650D01*
X9973072Y-12880650D02*
X9992120Y-12880650D01*
X10058786Y-13013984D02*
X10058786Y-12880650D01*
X10058786Y-12813984D02*
X10049263Y-12823508D01*
X10049263Y-12823508D02*
X10058786Y-12833031D01*
X10058786Y-12833031D02*
X10068310Y-12823508D01*
X10068310Y-12823508D02*
X10058786Y-12813984D01*
X10058786Y-12813984D02*
X10058786Y-12833031D01*
X10182596Y-13013984D02*
X10163548Y-13004460D01*
X10163548Y-13004460D02*
X10154024Y-12985412D01*
X10154024Y-12985412D02*
X10154024Y-12813984D01*
X10287358Y-13013984D02*
X10268310Y-13004460D01*
X10268310Y-13004460D02*
X10258786Y-12985412D01*
X10258786Y-12985412D02*
X10258786Y-12813984D01*
X10515929Y-13013984D02*
X10515929Y-12813984D01*
X10515929Y-12813984D02*
X10582596Y-12956841D01*
X10582596Y-12956841D02*
X10649263Y-12813984D01*
X10649263Y-12813984D02*
X10649263Y-13013984D01*
X10830215Y-13013984D02*
X10830215Y-12909222D01*
X10830215Y-12909222D02*
X10820691Y-12890174D01*
X10820691Y-12890174D02*
X10801644Y-12880650D01*
X10801644Y-12880650D02*
X10763548Y-12880650D01*
X10763548Y-12880650D02*
X10744501Y-12890174D01*
X10830215Y-13004460D02*
X10811167Y-13013984D01*
X10811167Y-13013984D02*
X10763548Y-13013984D01*
X10763548Y-13013984D02*
X10744501Y-13004460D01*
X10744501Y-13004460D02*
X10734977Y-12985412D01*
X10734977Y-12985412D02*
X10734977Y-12966365D01*
X10734977Y-12966365D02*
X10744501Y-12947317D01*
X10744501Y-12947317D02*
X10763548Y-12937793D01*
X10763548Y-12937793D02*
X10811167Y-12937793D01*
X10811167Y-12937793D02*
X10830215Y-12928269D01*
X10925453Y-12880650D02*
X10925453Y-13080650D01*
X10925453Y-12890174D02*
X10944501Y-12880650D01*
X10944501Y-12880650D02*
X10982596Y-12880650D01*
X10982596Y-12880650D02*
X11001644Y-12890174D01*
X11001644Y-12890174D02*
X11011167Y-12899698D01*
X11011167Y-12899698D02*
X11020691Y-12918746D01*
X11020691Y-12918746D02*
X11020691Y-12975888D01*
X11020691Y-12975888D02*
X11011167Y-12994936D01*
X11011167Y-12994936D02*
X11001644Y-13004460D01*
X11001644Y-13004460D02*
X10982596Y-13013984D01*
X10982596Y-13013984D02*
X10944501Y-13013984D01*
X10944501Y-13013984D02*
X10925453Y-13004460D01*
X11106405Y-12994936D02*
X11115929Y-13004460D01*
X11115929Y-13004460D02*
X11106405Y-13013984D01*
X11106405Y-13013984D02*
X11096882Y-13004460D01*
X11096882Y-13004460D02*
X11106405Y-12994936D01*
X11106405Y-12994936D02*
X11106405Y-13013984D01*
X11106405Y-12890174D02*
X11115929Y-12899698D01*
X11115929Y-12899698D02*
X11106405Y-12909222D01*
X11106405Y-12909222D02*
X11096882Y-12899698D01*
X11096882Y-12899698D02*
X11106405Y-12890174D01*
X11106405Y-12890174D02*
X11106405Y-12909222D01*
D12*
X9454200Y-13332500D02*
X9474200Y-13352500D01*
X9474200Y-13332500D02*
X9454200Y-13352500D01*
D11*
X9773072Y-13233984D02*
X9792120Y-13233984D01*
X9792120Y-13233984D02*
X9811167Y-13243508D01*
X9811167Y-13243508D02*
X9820691Y-13253031D01*
X9820691Y-13253031D02*
X9830215Y-13272079D01*
X9830215Y-13272079D02*
X9839739Y-13310174D01*
X9839739Y-13310174D02*
X9839739Y-13357793D01*
X9839739Y-13357793D02*
X9830215Y-13395888D01*
X9830215Y-13395888D02*
X9820691Y-13414936D01*
X9820691Y-13414936D02*
X9811167Y-13424460D01*
X9811167Y-13424460D02*
X9792120Y-13433984D01*
X9792120Y-13433984D02*
X9773072Y-13433984D01*
X9773072Y-13433984D02*
X9754024Y-13424460D01*
X9754024Y-13424460D02*
X9744501Y-13414936D01*
X9744501Y-13414936D02*
X9734977Y-13395888D01*
X9734977Y-13395888D02*
X9725453Y-13357793D01*
X9725453Y-13357793D02*
X9725453Y-13310174D01*
X9725453Y-13310174D02*
X9734977Y-13272079D01*
X9734977Y-13272079D02*
X9744501Y-13253031D01*
X9744501Y-13253031D02*
X9754024Y-13243508D01*
X9754024Y-13243508D02*
X9773072Y-13233984D01*
X9925453Y-13414936D02*
X9934977Y-13424460D01*
X9934977Y-13424460D02*
X9925453Y-13433984D01*
X9925453Y-13433984D02*
X9915929Y-13424460D01*
X9915929Y-13424460D02*
X9925453Y-13414936D01*
X9925453Y-13414936D02*
X9925453Y-13433984D01*
X10011167Y-13253031D02*
X10020691Y-13243508D01*
X10020691Y-13243508D02*
X10039739Y-13233984D01*
X10039739Y-13233984D02*
X10087358Y-13233984D01*
X10087358Y-13233984D02*
X10106405Y-13243508D01*
X10106405Y-13243508D02*
X10115929Y-13253031D01*
X10115929Y-13253031D02*
X10125453Y-13272079D01*
X10125453Y-13272079D02*
X10125453Y-13291127D01*
X10125453Y-13291127D02*
X10115929Y-13319698D01*
X10115929Y-13319698D02*
X10001644Y-13433984D01*
X10001644Y-13433984D02*
X10125453Y-13433984D01*
X10249263Y-13233984D02*
X10268310Y-13233984D01*
X10268310Y-13233984D02*
X10287358Y-13243508D01*
X10287358Y-13243508D02*
X10296882Y-13253031D01*
X10296882Y-13253031D02*
X10306405Y-13272079D01*
X10306405Y-13272079D02*
X10315929Y-13310174D01*
X10315929Y-13310174D02*
X10315929Y-13357793D01*
X10315929Y-13357793D02*
X10306405Y-13395888D01*
X10306405Y-13395888D02*
X10296882Y-13414936D01*
X10296882Y-13414936D02*
X10287358Y-13424460D01*
X10287358Y-13424460D02*
X10268310Y-13433984D01*
X10268310Y-13433984D02*
X10249263Y-13433984D01*
X10249263Y-13433984D02*
X10230215Y-13424460D01*
X10230215Y-13424460D02*
X10220691Y-13414936D01*
X10220691Y-13414936D02*
X10211167Y-13395888D01*
X10211167Y-13395888D02*
X10201644Y-13357793D01*
X10201644Y-13357793D02*
X10201644Y-13310174D01*
X10201644Y-13310174D02*
X10211167Y-13272079D01*
X10211167Y-13272079D02*
X10220691Y-13253031D01*
X10220691Y-13253031D02*
X10230215Y-13243508D01*
X10230215Y-13243508D02*
X10249263Y-13233984D01*
X10439739Y-13233984D02*
X10458786Y-13233984D01*
X10458786Y-13233984D02*
X10477834Y-13243508D01*
X10477834Y-13243508D02*
X10487358Y-13253031D01*
X10487358Y-13253031D02*
X10496882Y-13272079D01*
X10496882Y-13272079D02*
X10506405Y-13310174D01*
X10506405Y-13310174D02*
X10506405Y-13357793D01*
X10506405Y-13357793D02*
X10496882Y-13395888D01*
X10496882Y-13395888D02*
X10487358Y-13414936D01*
X10487358Y-13414936D02*
X10477834Y-13424460D01*
X10477834Y-13424460D02*
X10458786Y-13433984D01*
X10458786Y-13433984D02*
X10439739Y-13433984D01*
X10439739Y-13433984D02*
X10420691Y-13424460D01*
X10420691Y-13424460D02*
X10411167Y-13414936D01*
X10411167Y-13414936D02*
X10401644Y-13395888D01*
X10401644Y-13395888D02*
X10392120Y-13357793D01*
X10392120Y-13357793D02*
X10392120Y-13310174D01*
X10392120Y-13310174D02*
X10401644Y-13272079D01*
X10401644Y-13272079D02*
X10411167Y-13253031D01*
X10411167Y-13253031D02*
X10420691Y-13243508D01*
X10420691Y-13243508D02*
X10439739Y-13233984D01*
X10592120Y-13433984D02*
X10592120Y-13300650D01*
X10592120Y-13319698D02*
X10601644Y-13310174D01*
X10601644Y-13310174D02*
X10620691Y-13300650D01*
X10620691Y-13300650D02*
X10649263Y-13300650D01*
X10649263Y-13300650D02*
X10668310Y-13310174D01*
X10668310Y-13310174D02*
X10677834Y-13329222D01*
X10677834Y-13329222D02*
X10677834Y-13433984D01*
X10677834Y-13329222D02*
X10687358Y-13310174D01*
X10687358Y-13310174D02*
X10706405Y-13300650D01*
X10706405Y-13300650D02*
X10734977Y-13300650D01*
X10734977Y-13300650D02*
X10754025Y-13310174D01*
X10754025Y-13310174D02*
X10763548Y-13329222D01*
X10763548Y-13329222D02*
X10763548Y-13433984D01*
X10858786Y-13433984D02*
X10858786Y-13300650D01*
X10858786Y-13319698D02*
X10868310Y-13310174D01*
X10868310Y-13310174D02*
X10887358Y-13300650D01*
X10887358Y-13300650D02*
X10915929Y-13300650D01*
X10915929Y-13300650D02*
X10934977Y-13310174D01*
X10934977Y-13310174D02*
X10944501Y-13329222D01*
X10944501Y-13329222D02*
X10944501Y-13433984D01*
X10944501Y-13329222D02*
X10954025Y-13310174D01*
X10954025Y-13310174D02*
X10973072Y-13300650D01*
X10973072Y-13300650D02*
X11001644Y-13300650D01*
X11001644Y-13300650D02*
X11020691Y-13310174D01*
X11020691Y-13310174D02*
X11030215Y-13329222D01*
X11030215Y-13329222D02*
X11030215Y-13433984D01*
X11420691Y-13224460D02*
X11249263Y-13481603D01*
X11677834Y-13233984D02*
X11696882Y-13233984D01*
X11696882Y-13233984D02*
X11715929Y-13243508D01*
X11715929Y-13243508D02*
X11725453Y-13253031D01*
X11725453Y-13253031D02*
X11734977Y-13272079D01*
X11734977Y-13272079D02*
X11744501Y-13310174D01*
X11744501Y-13310174D02*
X11744501Y-13357793D01*
X11744501Y-13357793D02*
X11734977Y-13395888D01*
X11734977Y-13395888D02*
X11725453Y-13414936D01*
X11725453Y-13414936D02*
X11715929Y-13424460D01*
X11715929Y-13424460D02*
X11696882Y-13433984D01*
X11696882Y-13433984D02*
X11677834Y-13433984D01*
X11677834Y-13433984D02*
X11658786Y-13424460D01*
X11658786Y-13424460D02*
X11649263Y-13414936D01*
X11649263Y-13414936D02*
X11639739Y-13395888D01*
X11639739Y-13395888D02*
X11630215Y-13357793D01*
X11630215Y-13357793D02*
X11630215Y-13310174D01*
X11630215Y-13310174D02*
X11639739Y-13272079D01*
X11639739Y-13272079D02*
X11649263Y-13253031D01*
X11649263Y-13253031D02*
X11658786Y-13243508D01*
X11658786Y-13243508D02*
X11677834Y-13233984D01*
X11830215Y-13414936D02*
X11839739Y-13424460D01*
X11839739Y-13424460D02*
X11830215Y-13433984D01*
X11830215Y-13433984D02*
X11820691Y-13424460D01*
X11820691Y-13424460D02*
X11830215Y-13414936D01*
X11830215Y-13414936D02*
X11830215Y-13433984D01*
X11963548Y-13233984D02*
X11982596Y-13233984D01*
X11982596Y-13233984D02*
X12001644Y-13243508D01*
X12001644Y-13243508D02*
X12011167Y-13253031D01*
X12011167Y-13253031D02*
X12020691Y-13272079D01*
X12020691Y-13272079D02*
X12030215Y-13310174D01*
X12030215Y-13310174D02*
X12030215Y-13357793D01*
X12030215Y-13357793D02*
X12020691Y-13395888D01*
X12020691Y-13395888D02*
X12011167Y-13414936D01*
X12011167Y-13414936D02*
X12001644Y-13424460D01*
X12001644Y-13424460D02*
X11982596Y-13433984D01*
X11982596Y-13433984D02*
X11963548Y-13433984D01*
X11963548Y-13433984D02*
X11944501Y-13424460D01*
X11944501Y-13424460D02*
X11934977Y-13414936D01*
X11934977Y-13414936D02*
X11925453Y-13395888D01*
X11925453Y-13395888D02*
X11915929Y-13357793D01*
X11915929Y-13357793D02*
X11915929Y-13310174D01*
X11915929Y-13310174D02*
X11925453Y-13272079D01*
X11925453Y-13272079D02*
X11934977Y-13253031D01*
X11934977Y-13253031D02*
X11944501Y-13243508D01*
X11944501Y-13243508D02*
X11963548Y-13233984D01*
X12154025Y-13233984D02*
X12173072Y-13233984D01*
X12173072Y-13233984D02*
X12192120Y-13243508D01*
X12192120Y-13243508D02*
X12201644Y-13253031D01*
X12201644Y-13253031D02*
X12211167Y-13272079D01*
X12211167Y-13272079D02*
X12220691Y-13310174D01*
X12220691Y-13310174D02*
X12220691Y-13357793D01*
X12220691Y-13357793D02*
X12211167Y-13395888D01*
X12211167Y-13395888D02*
X12201644Y-13414936D01*
X12201644Y-13414936D02*
X12192120Y-13424460D01*
X12192120Y-13424460D02*
X12173072Y-13433984D01*
X12173072Y-13433984D02*
X12154025Y-13433984D01*
X12154025Y-13433984D02*
X12134977Y-13424460D01*
X12134977Y-13424460D02*
X12125453Y-13414936D01*
X12125453Y-13414936D02*
X12115929Y-13395888D01*
X12115929Y-13395888D02*
X12106406Y-13357793D01*
X12106406Y-13357793D02*
X12106406Y-13310174D01*
X12106406Y-13310174D02*
X12115929Y-13272079D01*
X12115929Y-13272079D02*
X12125453Y-13253031D01*
X12125453Y-13253031D02*
X12134977Y-13243508D01*
X12134977Y-13243508D02*
X12154025Y-13233984D01*
X12287358Y-13233984D02*
X12420691Y-13233984D01*
X12420691Y-13233984D02*
X12334977Y-13433984D01*
X12506406Y-13433984D02*
X12544501Y-13433984D01*
X12544501Y-13433984D02*
X12563548Y-13424460D01*
X12563548Y-13424460D02*
X12573072Y-13414936D01*
X12573072Y-13414936D02*
X12592120Y-13386365D01*
X12592120Y-13386365D02*
X12601644Y-13348269D01*
X12601644Y-13348269D02*
X12601644Y-13272079D01*
X12601644Y-13272079D02*
X12592120Y-13253031D01*
X12592120Y-13253031D02*
X12582596Y-13243508D01*
X12582596Y-13243508D02*
X12563548Y-13233984D01*
X12563548Y-13233984D02*
X12525453Y-13233984D01*
X12525453Y-13233984D02*
X12506406Y-13243508D01*
X12506406Y-13243508D02*
X12496882Y-13253031D01*
X12496882Y-13253031D02*
X12487358Y-13272079D01*
X12487358Y-13272079D02*
X12487358Y-13319698D01*
X12487358Y-13319698D02*
X12496882Y-13338746D01*
X12496882Y-13338746D02*
X12506406Y-13348269D01*
X12506406Y-13348269D02*
X12525453Y-13357793D01*
X12525453Y-13357793D02*
X12563548Y-13357793D01*
X12563548Y-13357793D02*
X12582596Y-13348269D01*
X12582596Y-13348269D02*
X12592120Y-13338746D01*
X12592120Y-13338746D02*
X12601644Y-13319698D01*
X12677834Y-13233984D02*
X12677834Y-13272079D01*
X12754025Y-13233984D02*
X12754025Y-13272079D01*
X13049263Y-13510174D02*
X13039739Y-13500650D01*
X13039739Y-13500650D02*
X13020691Y-13472079D01*
X13020691Y-13472079D02*
X13011168Y-13453031D01*
X13011168Y-13453031D02*
X13001644Y-13424460D01*
X13001644Y-13424460D02*
X12992120Y-13376841D01*
X12992120Y-13376841D02*
X12992120Y-13338746D01*
X12992120Y-13338746D02*
X13001644Y-13291127D01*
X13001644Y-13291127D02*
X13011168Y-13262555D01*
X13011168Y-13262555D02*
X13020691Y-13243508D01*
X13020691Y-13243508D02*
X13039739Y-13214936D01*
X13039739Y-13214936D02*
X13049263Y-13205412D01*
X13220691Y-13233984D02*
X13125453Y-13233984D01*
X13125453Y-13233984D02*
X13115929Y-13329222D01*
X13115929Y-13329222D02*
X13125453Y-13319698D01*
X13125453Y-13319698D02*
X13144501Y-13310174D01*
X13144501Y-13310174D02*
X13192120Y-13310174D01*
X13192120Y-13310174D02*
X13211168Y-13319698D01*
X13211168Y-13319698D02*
X13220691Y-13329222D01*
X13220691Y-13329222D02*
X13230215Y-13348269D01*
X13230215Y-13348269D02*
X13230215Y-13395888D01*
X13230215Y-13395888D02*
X13220691Y-13414936D01*
X13220691Y-13414936D02*
X13211168Y-13424460D01*
X13211168Y-13424460D02*
X13192120Y-13433984D01*
X13192120Y-13433984D02*
X13144501Y-13433984D01*
X13144501Y-13433984D02*
X13125453Y-13424460D01*
X13125453Y-13424460D02*
X13115929Y-13414936D01*
X13468310Y-13433984D02*
X13468310Y-13233984D01*
X13554025Y-13433984D02*
X13554025Y-13329222D01*
X13554025Y-13329222D02*
X13544501Y-13310174D01*
X13544501Y-13310174D02*
X13525453Y-13300650D01*
X13525453Y-13300650D02*
X13496882Y-13300650D01*
X13496882Y-13300650D02*
X13477834Y-13310174D01*
X13477834Y-13310174D02*
X13468310Y-13319698D01*
X13677834Y-13433984D02*
X13658787Y-13424460D01*
X13658787Y-13424460D02*
X13649263Y-13414936D01*
X13649263Y-13414936D02*
X13639739Y-13395888D01*
X13639739Y-13395888D02*
X13639739Y-13338746D01*
X13639739Y-13338746D02*
X13649263Y-13319698D01*
X13649263Y-13319698D02*
X13658787Y-13310174D01*
X13658787Y-13310174D02*
X13677834Y-13300650D01*
X13677834Y-13300650D02*
X13706406Y-13300650D01*
X13706406Y-13300650D02*
X13725453Y-13310174D01*
X13725453Y-13310174D02*
X13734977Y-13319698D01*
X13734977Y-13319698D02*
X13744501Y-13338746D01*
X13744501Y-13338746D02*
X13744501Y-13395888D01*
X13744501Y-13395888D02*
X13734977Y-13414936D01*
X13734977Y-13414936D02*
X13725453Y-13424460D01*
X13725453Y-13424460D02*
X13706406Y-13433984D01*
X13706406Y-13433984D02*
X13677834Y-13433984D01*
X13858787Y-13433984D02*
X13839739Y-13424460D01*
X13839739Y-13424460D02*
X13830215Y-13405412D01*
X13830215Y-13405412D02*
X13830215Y-13233984D01*
X14011168Y-13424460D02*
X13992120Y-13433984D01*
X13992120Y-13433984D02*
X13954025Y-13433984D01*
X13954025Y-13433984D02*
X13934977Y-13424460D01*
X13934977Y-13424460D02*
X13925453Y-13405412D01*
X13925453Y-13405412D02*
X13925453Y-13329222D01*
X13925453Y-13329222D02*
X13934977Y-13310174D01*
X13934977Y-13310174D02*
X13954025Y-13300650D01*
X13954025Y-13300650D02*
X13992120Y-13300650D01*
X13992120Y-13300650D02*
X14011168Y-13310174D01*
X14011168Y-13310174D02*
X14020691Y-13329222D01*
X14020691Y-13329222D02*
X14020691Y-13348269D01*
X14020691Y-13348269D02*
X13925453Y-13367317D01*
X14096882Y-13424460D02*
X14115930Y-13433984D01*
X14115930Y-13433984D02*
X14154025Y-13433984D01*
X14154025Y-13433984D02*
X14173072Y-13424460D01*
X14173072Y-13424460D02*
X14182596Y-13405412D01*
X14182596Y-13405412D02*
X14182596Y-13395888D01*
X14182596Y-13395888D02*
X14173072Y-13376841D01*
X14173072Y-13376841D02*
X14154025Y-13367317D01*
X14154025Y-13367317D02*
X14125453Y-13367317D01*
X14125453Y-13367317D02*
X14106406Y-13357793D01*
X14106406Y-13357793D02*
X14096882Y-13338746D01*
X14096882Y-13338746D02*
X14096882Y-13329222D01*
X14096882Y-13329222D02*
X14106406Y-13310174D01*
X14106406Y-13310174D02*
X14125453Y-13300650D01*
X14125453Y-13300650D02*
X14154025Y-13300650D01*
X14154025Y-13300650D02*
X14173072Y-13310174D01*
X14249263Y-13510174D02*
X14258787Y-13500650D01*
X14258787Y-13500650D02*
X14277834Y-13472079D01*
X14277834Y-13472079D02*
X14287358Y-13453031D01*
X14287358Y-13453031D02*
X14296882Y-13424460D01*
X14296882Y-13424460D02*
X14306406Y-13376841D01*
X14306406Y-13376841D02*
X14306406Y-13338746D01*
X14306406Y-13338746D02*
X14296882Y-13291127D01*
X14296882Y-13291127D02*
X14287358Y-13262555D01*
X14287358Y-13262555D02*
X14277834Y-13243508D01*
X14277834Y-13243508D02*
X14258787Y-13214936D01*
X14258787Y-13214936D02*
X14249263Y-13205412D01*
D12*
X9474200Y-13606500D02*
G75*
G02*
X9444200Y-13606500I-15000J0D01*
G01*
X9444200Y-13606500D02*
G75*
G02*
X9474200Y-13606500I15000J0D01*
G01*
D11*
X9773072Y-13497984D02*
X9792120Y-13497984D01*
X9792120Y-13497984D02*
X9811167Y-13507508D01*
X9811167Y-13507508D02*
X9820691Y-13517031D01*
X9820691Y-13517031D02*
X9830215Y-13536079D01*
X9830215Y-13536079D02*
X9839739Y-13574174D01*
X9839739Y-13574174D02*
X9839739Y-13621793D01*
X9839739Y-13621793D02*
X9830215Y-13659888D01*
X9830215Y-13659888D02*
X9820691Y-13678936D01*
X9820691Y-13678936D02*
X9811167Y-13688460D01*
X9811167Y-13688460D02*
X9792120Y-13697984D01*
X9792120Y-13697984D02*
X9773072Y-13697984D01*
X9773072Y-13697984D02*
X9754024Y-13688460D01*
X9754024Y-13688460D02*
X9744501Y-13678936D01*
X9744501Y-13678936D02*
X9734977Y-13659888D01*
X9734977Y-13659888D02*
X9725453Y-13621793D01*
X9725453Y-13621793D02*
X9725453Y-13574174D01*
X9725453Y-13574174D02*
X9734977Y-13536079D01*
X9734977Y-13536079D02*
X9744501Y-13517031D01*
X9744501Y-13517031D02*
X9754024Y-13507508D01*
X9754024Y-13507508D02*
X9773072Y-13497984D01*
X9925453Y-13678936D02*
X9934977Y-13688460D01*
X9934977Y-13688460D02*
X9925453Y-13697984D01*
X9925453Y-13697984D02*
X9915929Y-13688460D01*
X9915929Y-13688460D02*
X9925453Y-13678936D01*
X9925453Y-13678936D02*
X9925453Y-13697984D01*
X10001644Y-13497984D02*
X10125453Y-13497984D01*
X10125453Y-13497984D02*
X10058786Y-13574174D01*
X10058786Y-13574174D02*
X10087358Y-13574174D01*
X10087358Y-13574174D02*
X10106405Y-13583698D01*
X10106405Y-13583698D02*
X10115929Y-13593222D01*
X10115929Y-13593222D02*
X10125453Y-13612269D01*
X10125453Y-13612269D02*
X10125453Y-13659888D01*
X10125453Y-13659888D02*
X10115929Y-13678936D01*
X10115929Y-13678936D02*
X10106405Y-13688460D01*
X10106405Y-13688460D02*
X10087358Y-13697984D01*
X10087358Y-13697984D02*
X10030215Y-13697984D01*
X10030215Y-13697984D02*
X10011167Y-13688460D01*
X10011167Y-13688460D02*
X10001644Y-13678936D01*
X10249263Y-13497984D02*
X10268310Y-13497984D01*
X10268310Y-13497984D02*
X10287358Y-13507508D01*
X10287358Y-13507508D02*
X10296882Y-13517031D01*
X10296882Y-13517031D02*
X10306405Y-13536079D01*
X10306405Y-13536079D02*
X10315929Y-13574174D01*
X10315929Y-13574174D02*
X10315929Y-13621793D01*
X10315929Y-13621793D02*
X10306405Y-13659888D01*
X10306405Y-13659888D02*
X10296882Y-13678936D01*
X10296882Y-13678936D02*
X10287358Y-13688460D01*
X10287358Y-13688460D02*
X10268310Y-13697984D01*
X10268310Y-13697984D02*
X10249263Y-13697984D01*
X10249263Y-13697984D02*
X10230215Y-13688460D01*
X10230215Y-13688460D02*
X10220691Y-13678936D01*
X10220691Y-13678936D02*
X10211167Y-13659888D01*
X10211167Y-13659888D02*
X10201644Y-13621793D01*
X10201644Y-13621793D02*
X10201644Y-13574174D01*
X10201644Y-13574174D02*
X10211167Y-13536079D01*
X10211167Y-13536079D02*
X10220691Y-13517031D01*
X10220691Y-13517031D02*
X10230215Y-13507508D01*
X10230215Y-13507508D02*
X10249263Y-13497984D01*
X10439739Y-13497984D02*
X10458786Y-13497984D01*
X10458786Y-13497984D02*
X10477834Y-13507508D01*
X10477834Y-13507508D02*
X10487358Y-13517031D01*
X10487358Y-13517031D02*
X10496882Y-13536079D01*
X10496882Y-13536079D02*
X10506405Y-13574174D01*
X10506405Y-13574174D02*
X10506405Y-13621793D01*
X10506405Y-13621793D02*
X10496882Y-13659888D01*
X10496882Y-13659888D02*
X10487358Y-13678936D01*
X10487358Y-13678936D02*
X10477834Y-13688460D01*
X10477834Y-13688460D02*
X10458786Y-13697984D01*
X10458786Y-13697984D02*
X10439739Y-13697984D01*
X10439739Y-13697984D02*
X10420691Y-13688460D01*
X10420691Y-13688460D02*
X10411167Y-13678936D01*
X10411167Y-13678936D02*
X10401644Y-13659888D01*
X10401644Y-13659888D02*
X10392120Y-13621793D01*
X10392120Y-13621793D02*
X10392120Y-13574174D01*
X10392120Y-13574174D02*
X10401644Y-13536079D01*
X10401644Y-13536079D02*
X10411167Y-13517031D01*
X10411167Y-13517031D02*
X10420691Y-13507508D01*
X10420691Y-13507508D02*
X10439739Y-13497984D01*
X10592120Y-13697984D02*
X10592120Y-13564650D01*
X10592120Y-13583698D02*
X10601644Y-13574174D01*
X10601644Y-13574174D02*
X10620691Y-13564650D01*
X10620691Y-13564650D02*
X10649263Y-13564650D01*
X10649263Y-13564650D02*
X10668310Y-13574174D01*
X10668310Y-13574174D02*
X10677834Y-13593222D01*
X10677834Y-13593222D02*
X10677834Y-13697984D01*
X10677834Y-13593222D02*
X10687358Y-13574174D01*
X10687358Y-13574174D02*
X10706405Y-13564650D01*
X10706405Y-13564650D02*
X10734977Y-13564650D01*
X10734977Y-13564650D02*
X10754025Y-13574174D01*
X10754025Y-13574174D02*
X10763548Y-13593222D01*
X10763548Y-13593222D02*
X10763548Y-13697984D01*
X10858786Y-13697984D02*
X10858786Y-13564650D01*
X10858786Y-13583698D02*
X10868310Y-13574174D01*
X10868310Y-13574174D02*
X10887358Y-13564650D01*
X10887358Y-13564650D02*
X10915929Y-13564650D01*
X10915929Y-13564650D02*
X10934977Y-13574174D01*
X10934977Y-13574174D02*
X10944501Y-13593222D01*
X10944501Y-13593222D02*
X10944501Y-13697984D01*
X10944501Y-13593222D02*
X10954025Y-13574174D01*
X10954025Y-13574174D02*
X10973072Y-13564650D01*
X10973072Y-13564650D02*
X11001644Y-13564650D01*
X11001644Y-13564650D02*
X11020691Y-13574174D01*
X11020691Y-13574174D02*
X11030215Y-13593222D01*
X11030215Y-13593222D02*
X11030215Y-13697984D01*
X11420691Y-13488460D02*
X11249263Y-13745603D01*
X11677834Y-13497984D02*
X11696882Y-13497984D01*
X11696882Y-13497984D02*
X11715929Y-13507508D01*
X11715929Y-13507508D02*
X11725453Y-13517031D01*
X11725453Y-13517031D02*
X11734977Y-13536079D01*
X11734977Y-13536079D02*
X11744501Y-13574174D01*
X11744501Y-13574174D02*
X11744501Y-13621793D01*
X11744501Y-13621793D02*
X11734977Y-13659888D01*
X11734977Y-13659888D02*
X11725453Y-13678936D01*
X11725453Y-13678936D02*
X11715929Y-13688460D01*
X11715929Y-13688460D02*
X11696882Y-13697984D01*
X11696882Y-13697984D02*
X11677834Y-13697984D01*
X11677834Y-13697984D02*
X11658786Y-13688460D01*
X11658786Y-13688460D02*
X11649263Y-13678936D01*
X11649263Y-13678936D02*
X11639739Y-13659888D01*
X11639739Y-13659888D02*
X11630215Y-13621793D01*
X11630215Y-13621793D02*
X11630215Y-13574174D01*
X11630215Y-13574174D02*
X11639739Y-13536079D01*
X11639739Y-13536079D02*
X11649263Y-13517031D01*
X11649263Y-13517031D02*
X11658786Y-13507508D01*
X11658786Y-13507508D02*
X11677834Y-13497984D01*
X11830215Y-13678936D02*
X11839739Y-13688460D01*
X11839739Y-13688460D02*
X11830215Y-13697984D01*
X11830215Y-13697984D02*
X11820691Y-13688460D01*
X11820691Y-13688460D02*
X11830215Y-13678936D01*
X11830215Y-13678936D02*
X11830215Y-13697984D01*
X11963548Y-13497984D02*
X11982596Y-13497984D01*
X11982596Y-13497984D02*
X12001644Y-13507508D01*
X12001644Y-13507508D02*
X12011167Y-13517031D01*
X12011167Y-13517031D02*
X12020691Y-13536079D01*
X12020691Y-13536079D02*
X12030215Y-13574174D01*
X12030215Y-13574174D02*
X12030215Y-13621793D01*
X12030215Y-13621793D02*
X12020691Y-13659888D01*
X12020691Y-13659888D02*
X12011167Y-13678936D01*
X12011167Y-13678936D02*
X12001644Y-13688460D01*
X12001644Y-13688460D02*
X11982596Y-13697984D01*
X11982596Y-13697984D02*
X11963548Y-13697984D01*
X11963548Y-13697984D02*
X11944501Y-13688460D01*
X11944501Y-13688460D02*
X11934977Y-13678936D01*
X11934977Y-13678936D02*
X11925453Y-13659888D01*
X11925453Y-13659888D02*
X11915929Y-13621793D01*
X11915929Y-13621793D02*
X11915929Y-13574174D01*
X11915929Y-13574174D02*
X11925453Y-13536079D01*
X11925453Y-13536079D02*
X11934977Y-13517031D01*
X11934977Y-13517031D02*
X11944501Y-13507508D01*
X11944501Y-13507508D02*
X11963548Y-13497984D01*
X12220691Y-13697984D02*
X12106406Y-13697984D01*
X12163548Y-13697984D02*
X12163548Y-13497984D01*
X12163548Y-13497984D02*
X12144501Y-13526555D01*
X12144501Y-13526555D02*
X12125453Y-13545603D01*
X12125453Y-13545603D02*
X12106406Y-13555127D01*
X12411167Y-13697984D02*
X12296882Y-13697984D01*
X12354025Y-13697984D02*
X12354025Y-13497984D01*
X12354025Y-13497984D02*
X12334977Y-13526555D01*
X12334977Y-13526555D02*
X12315929Y-13545603D01*
X12315929Y-13545603D02*
X12296882Y-13555127D01*
X12525453Y-13583698D02*
X12506406Y-13574174D01*
X12506406Y-13574174D02*
X12496882Y-13564650D01*
X12496882Y-13564650D02*
X12487358Y-13545603D01*
X12487358Y-13545603D02*
X12487358Y-13536079D01*
X12487358Y-13536079D02*
X12496882Y-13517031D01*
X12496882Y-13517031D02*
X12506406Y-13507508D01*
X12506406Y-13507508D02*
X12525453Y-13497984D01*
X12525453Y-13497984D02*
X12563548Y-13497984D01*
X12563548Y-13497984D02*
X12582596Y-13507508D01*
X12582596Y-13507508D02*
X12592120Y-13517031D01*
X12592120Y-13517031D02*
X12601644Y-13536079D01*
X12601644Y-13536079D02*
X12601644Y-13545603D01*
X12601644Y-13545603D02*
X12592120Y-13564650D01*
X12592120Y-13564650D02*
X12582596Y-13574174D01*
X12582596Y-13574174D02*
X12563548Y-13583698D01*
X12563548Y-13583698D02*
X12525453Y-13583698D01*
X12525453Y-13583698D02*
X12506406Y-13593222D01*
X12506406Y-13593222D02*
X12496882Y-13602746D01*
X12496882Y-13602746D02*
X12487358Y-13621793D01*
X12487358Y-13621793D02*
X12487358Y-13659888D01*
X12487358Y-13659888D02*
X12496882Y-13678936D01*
X12496882Y-13678936D02*
X12506406Y-13688460D01*
X12506406Y-13688460D02*
X12525453Y-13697984D01*
X12525453Y-13697984D02*
X12563548Y-13697984D01*
X12563548Y-13697984D02*
X12582596Y-13688460D01*
X12582596Y-13688460D02*
X12592120Y-13678936D01*
X12592120Y-13678936D02*
X12601644Y-13659888D01*
X12601644Y-13659888D02*
X12601644Y-13621793D01*
X12601644Y-13621793D02*
X12592120Y-13602746D01*
X12592120Y-13602746D02*
X12582596Y-13593222D01*
X12582596Y-13593222D02*
X12563548Y-13583698D01*
X12677834Y-13497984D02*
X12677834Y-13536079D01*
X12754025Y-13497984D02*
X12754025Y-13536079D01*
X13049263Y-13774174D02*
X13039739Y-13764650D01*
X13039739Y-13764650D02*
X13020691Y-13736079D01*
X13020691Y-13736079D02*
X13011168Y-13717031D01*
X13011168Y-13717031D02*
X13001644Y-13688460D01*
X13001644Y-13688460D02*
X12992120Y-13640841D01*
X12992120Y-13640841D02*
X12992120Y-13602746D01*
X12992120Y-13602746D02*
X13001644Y-13555127D01*
X13001644Y-13555127D02*
X13011168Y-13526555D01*
X13011168Y-13526555D02*
X13020691Y-13507508D01*
X13020691Y-13507508D02*
X13039739Y-13478936D01*
X13039739Y-13478936D02*
X13049263Y-13469412D01*
X13154025Y-13583698D02*
X13134977Y-13574174D01*
X13134977Y-13574174D02*
X13125453Y-13564650D01*
X13125453Y-13564650D02*
X13115929Y-13545603D01*
X13115929Y-13545603D02*
X13115929Y-13536079D01*
X13115929Y-13536079D02*
X13125453Y-13517031D01*
X13125453Y-13517031D02*
X13134977Y-13507508D01*
X13134977Y-13507508D02*
X13154025Y-13497984D01*
X13154025Y-13497984D02*
X13192120Y-13497984D01*
X13192120Y-13497984D02*
X13211168Y-13507508D01*
X13211168Y-13507508D02*
X13220691Y-13517031D01*
X13220691Y-13517031D02*
X13230215Y-13536079D01*
X13230215Y-13536079D02*
X13230215Y-13545603D01*
X13230215Y-13545603D02*
X13220691Y-13564650D01*
X13220691Y-13564650D02*
X13211168Y-13574174D01*
X13211168Y-13574174D02*
X13192120Y-13583698D01*
X13192120Y-13583698D02*
X13154025Y-13583698D01*
X13154025Y-13583698D02*
X13134977Y-13593222D01*
X13134977Y-13593222D02*
X13125453Y-13602746D01*
X13125453Y-13602746D02*
X13115929Y-13621793D01*
X13115929Y-13621793D02*
X13115929Y-13659888D01*
X13115929Y-13659888D02*
X13125453Y-13678936D01*
X13125453Y-13678936D02*
X13134977Y-13688460D01*
X13134977Y-13688460D02*
X13154025Y-13697984D01*
X13154025Y-13697984D02*
X13192120Y-13697984D01*
X13192120Y-13697984D02*
X13211168Y-13688460D01*
X13211168Y-13688460D02*
X13220691Y-13678936D01*
X13220691Y-13678936D02*
X13230215Y-13659888D01*
X13230215Y-13659888D02*
X13230215Y-13621793D01*
X13230215Y-13621793D02*
X13220691Y-13602746D01*
X13220691Y-13602746D02*
X13211168Y-13593222D01*
X13211168Y-13593222D02*
X13192120Y-13583698D01*
X13420691Y-13697984D02*
X13306406Y-13697984D01*
X13363548Y-13697984D02*
X13363548Y-13497984D01*
X13363548Y-13497984D02*
X13344501Y-13526555D01*
X13344501Y-13526555D02*
X13325453Y-13545603D01*
X13325453Y-13545603D02*
X13306406Y-13555127D01*
X13658787Y-13697984D02*
X13658787Y-13497984D01*
X13744501Y-13697984D02*
X13744501Y-13593222D01*
X13744501Y-13593222D02*
X13734977Y-13574174D01*
X13734977Y-13574174D02*
X13715930Y-13564650D01*
X13715930Y-13564650D02*
X13687358Y-13564650D01*
X13687358Y-13564650D02*
X13668310Y-13574174D01*
X13668310Y-13574174D02*
X13658787Y-13583698D01*
X13868310Y-13697984D02*
X13849263Y-13688460D01*
X13849263Y-13688460D02*
X13839739Y-13678936D01*
X13839739Y-13678936D02*
X13830215Y-13659888D01*
X13830215Y-13659888D02*
X13830215Y-13602746D01*
X13830215Y-13602746D02*
X13839739Y-13583698D01*
X13839739Y-13583698D02*
X13849263Y-13574174D01*
X13849263Y-13574174D02*
X13868310Y-13564650D01*
X13868310Y-13564650D02*
X13896882Y-13564650D01*
X13896882Y-13564650D02*
X13915930Y-13574174D01*
X13915930Y-13574174D02*
X13925453Y-13583698D01*
X13925453Y-13583698D02*
X13934977Y-13602746D01*
X13934977Y-13602746D02*
X13934977Y-13659888D01*
X13934977Y-13659888D02*
X13925453Y-13678936D01*
X13925453Y-13678936D02*
X13915930Y-13688460D01*
X13915930Y-13688460D02*
X13896882Y-13697984D01*
X13896882Y-13697984D02*
X13868310Y-13697984D01*
X14049263Y-13697984D02*
X14030215Y-13688460D01*
X14030215Y-13688460D02*
X14020691Y-13669412D01*
X14020691Y-13669412D02*
X14020691Y-13497984D01*
X14201644Y-13688460D02*
X14182596Y-13697984D01*
X14182596Y-13697984D02*
X14144501Y-13697984D01*
X14144501Y-13697984D02*
X14125453Y-13688460D01*
X14125453Y-13688460D02*
X14115930Y-13669412D01*
X14115930Y-13669412D02*
X14115930Y-13593222D01*
X14115930Y-13593222D02*
X14125453Y-13574174D01*
X14125453Y-13574174D02*
X14144501Y-13564650D01*
X14144501Y-13564650D02*
X14182596Y-13564650D01*
X14182596Y-13564650D02*
X14201644Y-13574174D01*
X14201644Y-13574174D02*
X14211168Y-13593222D01*
X14211168Y-13593222D02*
X14211168Y-13612269D01*
X14211168Y-13612269D02*
X14115930Y-13631317D01*
X14287358Y-13688460D02*
X14306406Y-13697984D01*
X14306406Y-13697984D02*
X14344501Y-13697984D01*
X14344501Y-13697984D02*
X14363549Y-13688460D01*
X14363549Y-13688460D02*
X14373072Y-13669412D01*
X14373072Y-13669412D02*
X14373072Y-13659888D01*
X14373072Y-13659888D02*
X14363549Y-13640841D01*
X14363549Y-13640841D02*
X14344501Y-13631317D01*
X14344501Y-13631317D02*
X14315930Y-13631317D01*
X14315930Y-13631317D02*
X14296882Y-13621793D01*
X14296882Y-13621793D02*
X14287358Y-13602746D01*
X14287358Y-13602746D02*
X14287358Y-13593222D01*
X14287358Y-13593222D02*
X14296882Y-13574174D01*
X14296882Y-13574174D02*
X14315930Y-13564650D01*
X14315930Y-13564650D02*
X14344501Y-13564650D01*
X14344501Y-13564650D02*
X14363549Y-13574174D01*
X14439739Y-13774174D02*
X14449263Y-13764650D01*
X14449263Y-13764650D02*
X14468311Y-13736079D01*
X14468311Y-13736079D02*
X14477834Y-13717031D01*
X14477834Y-13717031D02*
X14487358Y-13688460D01*
X14487358Y-13688460D02*
X14496882Y-13640841D01*
X14496882Y-13640841D02*
X14496882Y-13602746D01*
X14496882Y-13602746D02*
X14487358Y-13555127D01*
X14487358Y-13555127D02*
X14477834Y-13526555D01*
X14477834Y-13526555D02*
X14468311Y-13507508D01*
X14468311Y-13507508D02*
X14449263Y-13478936D01*
X14449263Y-13478936D02*
X14439739Y-13469412D01*
D12*
X9457700Y-13854000D02*
X9457700Y-13887000D01*
X9441200Y-13870500D02*
X9474200Y-13870500D01*
D11*
X9773072Y-13761984D02*
X9792120Y-13761984D01*
X9792120Y-13761984D02*
X9811167Y-13771508D01*
X9811167Y-13771508D02*
X9820691Y-13781031D01*
X9820691Y-13781031D02*
X9830215Y-13800079D01*
X9830215Y-13800079D02*
X9839739Y-13838174D01*
X9839739Y-13838174D02*
X9839739Y-13885793D01*
X9839739Y-13885793D02*
X9830215Y-13923888D01*
X9830215Y-13923888D02*
X9820691Y-13942936D01*
X9820691Y-13942936D02*
X9811167Y-13952460D01*
X9811167Y-13952460D02*
X9792120Y-13961984D01*
X9792120Y-13961984D02*
X9773072Y-13961984D01*
X9773072Y-13961984D02*
X9754024Y-13952460D01*
X9754024Y-13952460D02*
X9744501Y-13942936D01*
X9744501Y-13942936D02*
X9734977Y-13923888D01*
X9734977Y-13923888D02*
X9725453Y-13885793D01*
X9725453Y-13885793D02*
X9725453Y-13838174D01*
X9725453Y-13838174D02*
X9734977Y-13800079D01*
X9734977Y-13800079D02*
X9744501Y-13781031D01*
X9744501Y-13781031D02*
X9754024Y-13771508D01*
X9754024Y-13771508D02*
X9773072Y-13761984D01*
X9925453Y-13942936D02*
X9934977Y-13952460D01*
X9934977Y-13952460D02*
X9925453Y-13961984D01*
X9925453Y-13961984D02*
X9915929Y-13952460D01*
X9915929Y-13952460D02*
X9925453Y-13942936D01*
X9925453Y-13942936D02*
X9925453Y-13961984D01*
X10001644Y-13761984D02*
X10125453Y-13761984D01*
X10125453Y-13761984D02*
X10058786Y-13838174D01*
X10058786Y-13838174D02*
X10087358Y-13838174D01*
X10087358Y-13838174D02*
X10106405Y-13847698D01*
X10106405Y-13847698D02*
X10115929Y-13857222D01*
X10115929Y-13857222D02*
X10125453Y-13876269D01*
X10125453Y-13876269D02*
X10125453Y-13923888D01*
X10125453Y-13923888D02*
X10115929Y-13942936D01*
X10115929Y-13942936D02*
X10106405Y-13952460D01*
X10106405Y-13952460D02*
X10087358Y-13961984D01*
X10087358Y-13961984D02*
X10030215Y-13961984D01*
X10030215Y-13961984D02*
X10011167Y-13952460D01*
X10011167Y-13952460D02*
X10001644Y-13942936D01*
X10192120Y-13761984D02*
X10315929Y-13761984D01*
X10315929Y-13761984D02*
X10249263Y-13838174D01*
X10249263Y-13838174D02*
X10277834Y-13838174D01*
X10277834Y-13838174D02*
X10296882Y-13847698D01*
X10296882Y-13847698D02*
X10306405Y-13857222D01*
X10306405Y-13857222D02*
X10315929Y-13876269D01*
X10315929Y-13876269D02*
X10315929Y-13923888D01*
X10315929Y-13923888D02*
X10306405Y-13942936D01*
X10306405Y-13942936D02*
X10296882Y-13952460D01*
X10296882Y-13952460D02*
X10277834Y-13961984D01*
X10277834Y-13961984D02*
X10220691Y-13961984D01*
X10220691Y-13961984D02*
X10201644Y-13952460D01*
X10201644Y-13952460D02*
X10192120Y-13942936D01*
X10439739Y-13761984D02*
X10458786Y-13761984D01*
X10458786Y-13761984D02*
X10477834Y-13771508D01*
X10477834Y-13771508D02*
X10487358Y-13781031D01*
X10487358Y-13781031D02*
X10496882Y-13800079D01*
X10496882Y-13800079D02*
X10506405Y-13838174D01*
X10506405Y-13838174D02*
X10506405Y-13885793D01*
X10506405Y-13885793D02*
X10496882Y-13923888D01*
X10496882Y-13923888D02*
X10487358Y-13942936D01*
X10487358Y-13942936D02*
X10477834Y-13952460D01*
X10477834Y-13952460D02*
X10458786Y-13961984D01*
X10458786Y-13961984D02*
X10439739Y-13961984D01*
X10439739Y-13961984D02*
X10420691Y-13952460D01*
X10420691Y-13952460D02*
X10411167Y-13942936D01*
X10411167Y-13942936D02*
X10401644Y-13923888D01*
X10401644Y-13923888D02*
X10392120Y-13885793D01*
X10392120Y-13885793D02*
X10392120Y-13838174D01*
X10392120Y-13838174D02*
X10401644Y-13800079D01*
X10401644Y-13800079D02*
X10411167Y-13781031D01*
X10411167Y-13781031D02*
X10420691Y-13771508D01*
X10420691Y-13771508D02*
X10439739Y-13761984D01*
X10592120Y-13961984D02*
X10592120Y-13828650D01*
X10592120Y-13847698D02*
X10601644Y-13838174D01*
X10601644Y-13838174D02*
X10620691Y-13828650D01*
X10620691Y-13828650D02*
X10649263Y-13828650D01*
X10649263Y-13828650D02*
X10668310Y-13838174D01*
X10668310Y-13838174D02*
X10677834Y-13857222D01*
X10677834Y-13857222D02*
X10677834Y-13961984D01*
X10677834Y-13857222D02*
X10687358Y-13838174D01*
X10687358Y-13838174D02*
X10706405Y-13828650D01*
X10706405Y-13828650D02*
X10734977Y-13828650D01*
X10734977Y-13828650D02*
X10754025Y-13838174D01*
X10754025Y-13838174D02*
X10763548Y-13857222D01*
X10763548Y-13857222D02*
X10763548Y-13961984D01*
X10858786Y-13961984D02*
X10858786Y-13828650D01*
X10858786Y-13847698D02*
X10868310Y-13838174D01*
X10868310Y-13838174D02*
X10887358Y-13828650D01*
X10887358Y-13828650D02*
X10915929Y-13828650D01*
X10915929Y-13828650D02*
X10934977Y-13838174D01*
X10934977Y-13838174D02*
X10944501Y-13857222D01*
X10944501Y-13857222D02*
X10944501Y-13961984D01*
X10944501Y-13857222D02*
X10954025Y-13838174D01*
X10954025Y-13838174D02*
X10973072Y-13828650D01*
X10973072Y-13828650D02*
X11001644Y-13828650D01*
X11001644Y-13828650D02*
X11020691Y-13838174D01*
X11020691Y-13838174D02*
X11030215Y-13857222D01*
X11030215Y-13857222D02*
X11030215Y-13961984D01*
X11420691Y-13752460D02*
X11249263Y-14009603D01*
X11677834Y-13761984D02*
X11696882Y-13761984D01*
X11696882Y-13761984D02*
X11715929Y-13771508D01*
X11715929Y-13771508D02*
X11725453Y-13781031D01*
X11725453Y-13781031D02*
X11734977Y-13800079D01*
X11734977Y-13800079D02*
X11744501Y-13838174D01*
X11744501Y-13838174D02*
X11744501Y-13885793D01*
X11744501Y-13885793D02*
X11734977Y-13923888D01*
X11734977Y-13923888D02*
X11725453Y-13942936D01*
X11725453Y-13942936D02*
X11715929Y-13952460D01*
X11715929Y-13952460D02*
X11696882Y-13961984D01*
X11696882Y-13961984D02*
X11677834Y-13961984D01*
X11677834Y-13961984D02*
X11658786Y-13952460D01*
X11658786Y-13952460D02*
X11649263Y-13942936D01*
X11649263Y-13942936D02*
X11639739Y-13923888D01*
X11639739Y-13923888D02*
X11630215Y-13885793D01*
X11630215Y-13885793D02*
X11630215Y-13838174D01*
X11630215Y-13838174D02*
X11639739Y-13800079D01*
X11639739Y-13800079D02*
X11649263Y-13781031D01*
X11649263Y-13781031D02*
X11658786Y-13771508D01*
X11658786Y-13771508D02*
X11677834Y-13761984D01*
X11830215Y-13942936D02*
X11839739Y-13952460D01*
X11839739Y-13952460D02*
X11830215Y-13961984D01*
X11830215Y-13961984D02*
X11820691Y-13952460D01*
X11820691Y-13952460D02*
X11830215Y-13942936D01*
X11830215Y-13942936D02*
X11830215Y-13961984D01*
X11963548Y-13761984D02*
X11982596Y-13761984D01*
X11982596Y-13761984D02*
X12001644Y-13771508D01*
X12001644Y-13771508D02*
X12011167Y-13781031D01*
X12011167Y-13781031D02*
X12020691Y-13800079D01*
X12020691Y-13800079D02*
X12030215Y-13838174D01*
X12030215Y-13838174D02*
X12030215Y-13885793D01*
X12030215Y-13885793D02*
X12020691Y-13923888D01*
X12020691Y-13923888D02*
X12011167Y-13942936D01*
X12011167Y-13942936D02*
X12001644Y-13952460D01*
X12001644Y-13952460D02*
X11982596Y-13961984D01*
X11982596Y-13961984D02*
X11963548Y-13961984D01*
X11963548Y-13961984D02*
X11944501Y-13952460D01*
X11944501Y-13952460D02*
X11934977Y-13942936D01*
X11934977Y-13942936D02*
X11925453Y-13923888D01*
X11925453Y-13923888D02*
X11915929Y-13885793D01*
X11915929Y-13885793D02*
X11915929Y-13838174D01*
X11915929Y-13838174D02*
X11925453Y-13800079D01*
X11925453Y-13800079D02*
X11934977Y-13781031D01*
X11934977Y-13781031D02*
X11944501Y-13771508D01*
X11944501Y-13771508D02*
X11963548Y-13761984D01*
X12220691Y-13961984D02*
X12106406Y-13961984D01*
X12163548Y-13961984D02*
X12163548Y-13761984D01*
X12163548Y-13761984D02*
X12144501Y-13790555D01*
X12144501Y-13790555D02*
X12125453Y-13809603D01*
X12125453Y-13809603D02*
X12106406Y-13819127D01*
X12287358Y-13761984D02*
X12411167Y-13761984D01*
X12411167Y-13761984D02*
X12344501Y-13838174D01*
X12344501Y-13838174D02*
X12373072Y-13838174D01*
X12373072Y-13838174D02*
X12392120Y-13847698D01*
X12392120Y-13847698D02*
X12401644Y-13857222D01*
X12401644Y-13857222D02*
X12411167Y-13876269D01*
X12411167Y-13876269D02*
X12411167Y-13923888D01*
X12411167Y-13923888D02*
X12401644Y-13942936D01*
X12401644Y-13942936D02*
X12392120Y-13952460D01*
X12392120Y-13952460D02*
X12373072Y-13961984D01*
X12373072Y-13961984D02*
X12315929Y-13961984D01*
X12315929Y-13961984D02*
X12296882Y-13952460D01*
X12296882Y-13952460D02*
X12287358Y-13942936D01*
X12534977Y-13761984D02*
X12554025Y-13761984D01*
X12554025Y-13761984D02*
X12573072Y-13771508D01*
X12573072Y-13771508D02*
X12582596Y-13781031D01*
X12582596Y-13781031D02*
X12592120Y-13800079D01*
X12592120Y-13800079D02*
X12601644Y-13838174D01*
X12601644Y-13838174D02*
X12601644Y-13885793D01*
X12601644Y-13885793D02*
X12592120Y-13923888D01*
X12592120Y-13923888D02*
X12582596Y-13942936D01*
X12582596Y-13942936D02*
X12573072Y-13952460D01*
X12573072Y-13952460D02*
X12554025Y-13961984D01*
X12554025Y-13961984D02*
X12534977Y-13961984D01*
X12534977Y-13961984D02*
X12515929Y-13952460D01*
X12515929Y-13952460D02*
X12506406Y-13942936D01*
X12506406Y-13942936D02*
X12496882Y-13923888D01*
X12496882Y-13923888D02*
X12487358Y-13885793D01*
X12487358Y-13885793D02*
X12487358Y-13838174D01*
X12487358Y-13838174D02*
X12496882Y-13800079D01*
X12496882Y-13800079D02*
X12506406Y-13781031D01*
X12506406Y-13781031D02*
X12515929Y-13771508D01*
X12515929Y-13771508D02*
X12534977Y-13761984D01*
X12677834Y-13761984D02*
X12677834Y-13800079D01*
X12754025Y-13761984D02*
X12754025Y-13800079D01*
X13049263Y-14038174D02*
X13039739Y-14028650D01*
X13039739Y-14028650D02*
X13020691Y-14000079D01*
X13020691Y-14000079D02*
X13011168Y-13981031D01*
X13011168Y-13981031D02*
X13001644Y-13952460D01*
X13001644Y-13952460D02*
X12992120Y-13904841D01*
X12992120Y-13904841D02*
X12992120Y-13866746D01*
X12992120Y-13866746D02*
X13001644Y-13819127D01*
X13001644Y-13819127D02*
X13011168Y-13790555D01*
X13011168Y-13790555D02*
X13020691Y-13771508D01*
X13020691Y-13771508D02*
X13039739Y-13742936D01*
X13039739Y-13742936D02*
X13049263Y-13733412D01*
X13211168Y-13761984D02*
X13173072Y-13761984D01*
X13173072Y-13761984D02*
X13154025Y-13771508D01*
X13154025Y-13771508D02*
X13144501Y-13781031D01*
X13144501Y-13781031D02*
X13125453Y-13809603D01*
X13125453Y-13809603D02*
X13115929Y-13847698D01*
X13115929Y-13847698D02*
X13115929Y-13923888D01*
X13115929Y-13923888D02*
X13125453Y-13942936D01*
X13125453Y-13942936D02*
X13134977Y-13952460D01*
X13134977Y-13952460D02*
X13154025Y-13961984D01*
X13154025Y-13961984D02*
X13192120Y-13961984D01*
X13192120Y-13961984D02*
X13211168Y-13952460D01*
X13211168Y-13952460D02*
X13220691Y-13942936D01*
X13220691Y-13942936D02*
X13230215Y-13923888D01*
X13230215Y-13923888D02*
X13230215Y-13876269D01*
X13230215Y-13876269D02*
X13220691Y-13857222D01*
X13220691Y-13857222D02*
X13211168Y-13847698D01*
X13211168Y-13847698D02*
X13192120Y-13838174D01*
X13192120Y-13838174D02*
X13154025Y-13838174D01*
X13154025Y-13838174D02*
X13134977Y-13847698D01*
X13134977Y-13847698D02*
X13125453Y-13857222D01*
X13125453Y-13857222D02*
X13115929Y-13876269D01*
X13468310Y-13961984D02*
X13468310Y-13761984D01*
X13554025Y-13961984D02*
X13554025Y-13857222D01*
X13554025Y-13857222D02*
X13544501Y-13838174D01*
X13544501Y-13838174D02*
X13525453Y-13828650D01*
X13525453Y-13828650D02*
X13496882Y-13828650D01*
X13496882Y-13828650D02*
X13477834Y-13838174D01*
X13477834Y-13838174D02*
X13468310Y-13847698D01*
X13677834Y-13961984D02*
X13658787Y-13952460D01*
X13658787Y-13952460D02*
X13649263Y-13942936D01*
X13649263Y-13942936D02*
X13639739Y-13923888D01*
X13639739Y-13923888D02*
X13639739Y-13866746D01*
X13639739Y-13866746D02*
X13649263Y-13847698D01*
X13649263Y-13847698D02*
X13658787Y-13838174D01*
X13658787Y-13838174D02*
X13677834Y-13828650D01*
X13677834Y-13828650D02*
X13706406Y-13828650D01*
X13706406Y-13828650D02*
X13725453Y-13838174D01*
X13725453Y-13838174D02*
X13734977Y-13847698D01*
X13734977Y-13847698D02*
X13744501Y-13866746D01*
X13744501Y-13866746D02*
X13744501Y-13923888D01*
X13744501Y-13923888D02*
X13734977Y-13942936D01*
X13734977Y-13942936D02*
X13725453Y-13952460D01*
X13725453Y-13952460D02*
X13706406Y-13961984D01*
X13706406Y-13961984D02*
X13677834Y-13961984D01*
X13858787Y-13961984D02*
X13839739Y-13952460D01*
X13839739Y-13952460D02*
X13830215Y-13933412D01*
X13830215Y-13933412D02*
X13830215Y-13761984D01*
X14011168Y-13952460D02*
X13992120Y-13961984D01*
X13992120Y-13961984D02*
X13954025Y-13961984D01*
X13954025Y-13961984D02*
X13934977Y-13952460D01*
X13934977Y-13952460D02*
X13925453Y-13933412D01*
X13925453Y-13933412D02*
X13925453Y-13857222D01*
X13925453Y-13857222D02*
X13934977Y-13838174D01*
X13934977Y-13838174D02*
X13954025Y-13828650D01*
X13954025Y-13828650D02*
X13992120Y-13828650D01*
X13992120Y-13828650D02*
X14011168Y-13838174D01*
X14011168Y-13838174D02*
X14020691Y-13857222D01*
X14020691Y-13857222D02*
X14020691Y-13876269D01*
X14020691Y-13876269D02*
X13925453Y-13895317D01*
X14096882Y-13952460D02*
X14115930Y-13961984D01*
X14115930Y-13961984D02*
X14154025Y-13961984D01*
X14154025Y-13961984D02*
X14173072Y-13952460D01*
X14173072Y-13952460D02*
X14182596Y-13933412D01*
X14182596Y-13933412D02*
X14182596Y-13923888D01*
X14182596Y-13923888D02*
X14173072Y-13904841D01*
X14173072Y-13904841D02*
X14154025Y-13895317D01*
X14154025Y-13895317D02*
X14125453Y-13895317D01*
X14125453Y-13895317D02*
X14106406Y-13885793D01*
X14106406Y-13885793D02*
X14096882Y-13866746D01*
X14096882Y-13866746D02*
X14096882Y-13857222D01*
X14096882Y-13857222D02*
X14106406Y-13838174D01*
X14106406Y-13838174D02*
X14125453Y-13828650D01*
X14125453Y-13828650D02*
X14154025Y-13828650D01*
X14154025Y-13828650D02*
X14173072Y-13838174D01*
X14249263Y-14038174D02*
X14258787Y-14028650D01*
X14258787Y-14028650D02*
X14277834Y-14000079D01*
X14277834Y-14000079D02*
X14287358Y-13981031D01*
X14287358Y-13981031D02*
X14296882Y-13952460D01*
X14296882Y-13952460D02*
X14306406Y-13904841D01*
X14306406Y-13904841D02*
X14306406Y-13866746D01*
X14306406Y-13866746D02*
X14296882Y-13819127D01*
X14296882Y-13819127D02*
X14287358Y-13790555D01*
X14287358Y-13790555D02*
X14277834Y-13771508D01*
X14277834Y-13771508D02*
X14258787Y-13742936D01*
X14258787Y-13742936D02*
X14249263Y-13733412D01*
D12*
X9468342Y-14148642D02*
X9468342Y-14120358D01*
X9440058Y-14120358D01*
X9440058Y-14148642D01*
X9468342Y-14148642D01*
D11*
X9773072Y-14025984D02*
X9792120Y-14025984D01*
X9792120Y-14025984D02*
X9811167Y-14035508D01*
X9811167Y-14035508D02*
X9820691Y-14045031D01*
X9820691Y-14045031D02*
X9830215Y-14064079D01*
X9830215Y-14064079D02*
X9839739Y-14102174D01*
X9839739Y-14102174D02*
X9839739Y-14149793D01*
X9839739Y-14149793D02*
X9830215Y-14187888D01*
X9830215Y-14187888D02*
X9820691Y-14206936D01*
X9820691Y-14206936D02*
X9811167Y-14216460D01*
X9811167Y-14216460D02*
X9792120Y-14225984D01*
X9792120Y-14225984D02*
X9773072Y-14225984D01*
X9773072Y-14225984D02*
X9754024Y-14216460D01*
X9754024Y-14216460D02*
X9744501Y-14206936D01*
X9744501Y-14206936D02*
X9734977Y-14187888D01*
X9734977Y-14187888D02*
X9725453Y-14149793D01*
X9725453Y-14149793D02*
X9725453Y-14102174D01*
X9725453Y-14102174D02*
X9734977Y-14064079D01*
X9734977Y-14064079D02*
X9744501Y-14045031D01*
X9744501Y-14045031D02*
X9754024Y-14035508D01*
X9754024Y-14035508D02*
X9773072Y-14025984D01*
X9925453Y-14206936D02*
X9934977Y-14216460D01*
X9934977Y-14216460D02*
X9925453Y-14225984D01*
X9925453Y-14225984D02*
X9915929Y-14216460D01*
X9915929Y-14216460D02*
X9925453Y-14206936D01*
X9925453Y-14206936D02*
X9925453Y-14225984D01*
X10106405Y-14092650D02*
X10106405Y-14225984D01*
X10058786Y-14016460D02*
X10011167Y-14159317D01*
X10011167Y-14159317D02*
X10134977Y-14159317D01*
X10249263Y-14025984D02*
X10268310Y-14025984D01*
X10268310Y-14025984D02*
X10287358Y-14035508D01*
X10287358Y-14035508D02*
X10296882Y-14045031D01*
X10296882Y-14045031D02*
X10306405Y-14064079D01*
X10306405Y-14064079D02*
X10315929Y-14102174D01*
X10315929Y-14102174D02*
X10315929Y-14149793D01*
X10315929Y-14149793D02*
X10306405Y-14187888D01*
X10306405Y-14187888D02*
X10296882Y-14206936D01*
X10296882Y-14206936D02*
X10287358Y-14216460D01*
X10287358Y-14216460D02*
X10268310Y-14225984D01*
X10268310Y-14225984D02*
X10249263Y-14225984D01*
X10249263Y-14225984D02*
X10230215Y-14216460D01*
X10230215Y-14216460D02*
X10220691Y-14206936D01*
X10220691Y-14206936D02*
X10211167Y-14187888D01*
X10211167Y-14187888D02*
X10201644Y-14149793D01*
X10201644Y-14149793D02*
X10201644Y-14102174D01*
X10201644Y-14102174D02*
X10211167Y-14064079D01*
X10211167Y-14064079D02*
X10220691Y-14045031D01*
X10220691Y-14045031D02*
X10230215Y-14035508D01*
X10230215Y-14035508D02*
X10249263Y-14025984D01*
X10439739Y-14025984D02*
X10458786Y-14025984D01*
X10458786Y-14025984D02*
X10477834Y-14035508D01*
X10477834Y-14035508D02*
X10487358Y-14045031D01*
X10487358Y-14045031D02*
X10496882Y-14064079D01*
X10496882Y-14064079D02*
X10506405Y-14102174D01*
X10506405Y-14102174D02*
X10506405Y-14149793D01*
X10506405Y-14149793D02*
X10496882Y-14187888D01*
X10496882Y-14187888D02*
X10487358Y-14206936D01*
X10487358Y-14206936D02*
X10477834Y-14216460D01*
X10477834Y-14216460D02*
X10458786Y-14225984D01*
X10458786Y-14225984D02*
X10439739Y-14225984D01*
X10439739Y-14225984D02*
X10420691Y-14216460D01*
X10420691Y-14216460D02*
X10411167Y-14206936D01*
X10411167Y-14206936D02*
X10401644Y-14187888D01*
X10401644Y-14187888D02*
X10392120Y-14149793D01*
X10392120Y-14149793D02*
X10392120Y-14102174D01*
X10392120Y-14102174D02*
X10401644Y-14064079D01*
X10401644Y-14064079D02*
X10411167Y-14045031D01*
X10411167Y-14045031D02*
X10420691Y-14035508D01*
X10420691Y-14035508D02*
X10439739Y-14025984D01*
X10592120Y-14225984D02*
X10592120Y-14092650D01*
X10592120Y-14111698D02*
X10601644Y-14102174D01*
X10601644Y-14102174D02*
X10620691Y-14092650D01*
X10620691Y-14092650D02*
X10649263Y-14092650D01*
X10649263Y-14092650D02*
X10668310Y-14102174D01*
X10668310Y-14102174D02*
X10677834Y-14121222D01*
X10677834Y-14121222D02*
X10677834Y-14225984D01*
X10677834Y-14121222D02*
X10687358Y-14102174D01*
X10687358Y-14102174D02*
X10706405Y-14092650D01*
X10706405Y-14092650D02*
X10734977Y-14092650D01*
X10734977Y-14092650D02*
X10754025Y-14102174D01*
X10754025Y-14102174D02*
X10763548Y-14121222D01*
X10763548Y-14121222D02*
X10763548Y-14225984D01*
X10858786Y-14225984D02*
X10858786Y-14092650D01*
X10858786Y-14111698D02*
X10868310Y-14102174D01*
X10868310Y-14102174D02*
X10887358Y-14092650D01*
X10887358Y-14092650D02*
X10915929Y-14092650D01*
X10915929Y-14092650D02*
X10934977Y-14102174D01*
X10934977Y-14102174D02*
X10944501Y-14121222D01*
X10944501Y-14121222D02*
X10944501Y-14225984D01*
X10944501Y-14121222D02*
X10954025Y-14102174D01*
X10954025Y-14102174D02*
X10973072Y-14092650D01*
X10973072Y-14092650D02*
X11001644Y-14092650D01*
X11001644Y-14092650D02*
X11020691Y-14102174D01*
X11020691Y-14102174D02*
X11030215Y-14121222D01*
X11030215Y-14121222D02*
X11030215Y-14225984D01*
X11420691Y-14016460D02*
X11249263Y-14273603D01*
X11677834Y-14025984D02*
X11696882Y-14025984D01*
X11696882Y-14025984D02*
X11715929Y-14035508D01*
X11715929Y-14035508D02*
X11725453Y-14045031D01*
X11725453Y-14045031D02*
X11734977Y-14064079D01*
X11734977Y-14064079D02*
X11744501Y-14102174D01*
X11744501Y-14102174D02*
X11744501Y-14149793D01*
X11744501Y-14149793D02*
X11734977Y-14187888D01*
X11734977Y-14187888D02*
X11725453Y-14206936D01*
X11725453Y-14206936D02*
X11715929Y-14216460D01*
X11715929Y-14216460D02*
X11696882Y-14225984D01*
X11696882Y-14225984D02*
X11677834Y-14225984D01*
X11677834Y-14225984D02*
X11658786Y-14216460D01*
X11658786Y-14216460D02*
X11649263Y-14206936D01*
X11649263Y-14206936D02*
X11639739Y-14187888D01*
X11639739Y-14187888D02*
X11630215Y-14149793D01*
X11630215Y-14149793D02*
X11630215Y-14102174D01*
X11630215Y-14102174D02*
X11639739Y-14064079D01*
X11639739Y-14064079D02*
X11649263Y-14045031D01*
X11649263Y-14045031D02*
X11658786Y-14035508D01*
X11658786Y-14035508D02*
X11677834Y-14025984D01*
X11830215Y-14206936D02*
X11839739Y-14216460D01*
X11839739Y-14216460D02*
X11830215Y-14225984D01*
X11830215Y-14225984D02*
X11820691Y-14216460D01*
X11820691Y-14216460D02*
X11830215Y-14206936D01*
X11830215Y-14206936D02*
X11830215Y-14225984D01*
X11963548Y-14025984D02*
X11982596Y-14025984D01*
X11982596Y-14025984D02*
X12001644Y-14035508D01*
X12001644Y-14035508D02*
X12011167Y-14045031D01*
X12011167Y-14045031D02*
X12020691Y-14064079D01*
X12020691Y-14064079D02*
X12030215Y-14102174D01*
X12030215Y-14102174D02*
X12030215Y-14149793D01*
X12030215Y-14149793D02*
X12020691Y-14187888D01*
X12020691Y-14187888D02*
X12011167Y-14206936D01*
X12011167Y-14206936D02*
X12001644Y-14216460D01*
X12001644Y-14216460D02*
X11982596Y-14225984D01*
X11982596Y-14225984D02*
X11963548Y-14225984D01*
X11963548Y-14225984D02*
X11944501Y-14216460D01*
X11944501Y-14216460D02*
X11934977Y-14206936D01*
X11934977Y-14206936D02*
X11925453Y-14187888D01*
X11925453Y-14187888D02*
X11915929Y-14149793D01*
X11915929Y-14149793D02*
X11915929Y-14102174D01*
X11915929Y-14102174D02*
X11925453Y-14064079D01*
X11925453Y-14064079D02*
X11934977Y-14045031D01*
X11934977Y-14045031D02*
X11944501Y-14035508D01*
X11944501Y-14035508D02*
X11963548Y-14025984D01*
X12220691Y-14225984D02*
X12106406Y-14225984D01*
X12163548Y-14225984D02*
X12163548Y-14025984D01*
X12163548Y-14025984D02*
X12144501Y-14054555D01*
X12144501Y-14054555D02*
X12125453Y-14073603D01*
X12125453Y-14073603D02*
X12106406Y-14083127D01*
X12401644Y-14025984D02*
X12306406Y-14025984D01*
X12306406Y-14025984D02*
X12296882Y-14121222D01*
X12296882Y-14121222D02*
X12306406Y-14111698D01*
X12306406Y-14111698D02*
X12325453Y-14102174D01*
X12325453Y-14102174D02*
X12373072Y-14102174D01*
X12373072Y-14102174D02*
X12392120Y-14111698D01*
X12392120Y-14111698D02*
X12401644Y-14121222D01*
X12401644Y-14121222D02*
X12411167Y-14140269D01*
X12411167Y-14140269D02*
X12411167Y-14187888D01*
X12411167Y-14187888D02*
X12401644Y-14206936D01*
X12401644Y-14206936D02*
X12392120Y-14216460D01*
X12392120Y-14216460D02*
X12373072Y-14225984D01*
X12373072Y-14225984D02*
X12325453Y-14225984D01*
X12325453Y-14225984D02*
X12306406Y-14216460D01*
X12306406Y-14216460D02*
X12296882Y-14206936D01*
X12477834Y-14025984D02*
X12611167Y-14025984D01*
X12611167Y-14025984D02*
X12525453Y-14225984D01*
X12677834Y-14025984D02*
X12677834Y-14064079D01*
X12754025Y-14025984D02*
X12754025Y-14064079D01*
X13049263Y-14302174D02*
X13039739Y-14292650D01*
X13039739Y-14292650D02*
X13020691Y-14264079D01*
X13020691Y-14264079D02*
X13011168Y-14245031D01*
X13011168Y-14245031D02*
X13001644Y-14216460D01*
X13001644Y-14216460D02*
X12992120Y-14168841D01*
X12992120Y-14168841D02*
X12992120Y-14130746D01*
X12992120Y-14130746D02*
X13001644Y-14083127D01*
X13001644Y-14083127D02*
X13011168Y-14054555D01*
X13011168Y-14054555D02*
X13020691Y-14035508D01*
X13020691Y-14035508D02*
X13039739Y-14006936D01*
X13039739Y-14006936D02*
X13049263Y-13997412D01*
X13230215Y-14225984D02*
X13115929Y-14225984D01*
X13173072Y-14225984D02*
X13173072Y-14025984D01*
X13173072Y-14025984D02*
X13154025Y-14054555D01*
X13154025Y-14054555D02*
X13134977Y-14073603D01*
X13134977Y-14073603D02*
X13115929Y-14083127D01*
X13401644Y-14025984D02*
X13363548Y-14025984D01*
X13363548Y-14025984D02*
X13344501Y-14035508D01*
X13344501Y-14035508D02*
X13334977Y-14045031D01*
X13334977Y-14045031D02*
X13315929Y-14073603D01*
X13315929Y-14073603D02*
X13306406Y-14111698D01*
X13306406Y-14111698D02*
X13306406Y-14187888D01*
X13306406Y-14187888D02*
X13315929Y-14206936D01*
X13315929Y-14206936D02*
X13325453Y-14216460D01*
X13325453Y-14216460D02*
X13344501Y-14225984D01*
X13344501Y-14225984D02*
X13382596Y-14225984D01*
X13382596Y-14225984D02*
X13401644Y-14216460D01*
X13401644Y-14216460D02*
X13411168Y-14206936D01*
X13411168Y-14206936D02*
X13420691Y-14187888D01*
X13420691Y-14187888D02*
X13420691Y-14140269D01*
X13420691Y-14140269D02*
X13411168Y-14121222D01*
X13411168Y-14121222D02*
X13401644Y-14111698D01*
X13401644Y-14111698D02*
X13382596Y-14102174D01*
X13382596Y-14102174D02*
X13344501Y-14102174D01*
X13344501Y-14102174D02*
X13325453Y-14111698D01*
X13325453Y-14111698D02*
X13315929Y-14121222D01*
X13315929Y-14121222D02*
X13306406Y-14140269D01*
X13658787Y-14225984D02*
X13658787Y-14025984D01*
X13744501Y-14225984D02*
X13744501Y-14121222D01*
X13744501Y-14121222D02*
X13734977Y-14102174D01*
X13734977Y-14102174D02*
X13715930Y-14092650D01*
X13715930Y-14092650D02*
X13687358Y-14092650D01*
X13687358Y-14092650D02*
X13668310Y-14102174D01*
X13668310Y-14102174D02*
X13658787Y-14111698D01*
X13868310Y-14225984D02*
X13849263Y-14216460D01*
X13849263Y-14216460D02*
X13839739Y-14206936D01*
X13839739Y-14206936D02*
X13830215Y-14187888D01*
X13830215Y-14187888D02*
X13830215Y-14130746D01*
X13830215Y-14130746D02*
X13839739Y-14111698D01*
X13839739Y-14111698D02*
X13849263Y-14102174D01*
X13849263Y-14102174D02*
X13868310Y-14092650D01*
X13868310Y-14092650D02*
X13896882Y-14092650D01*
X13896882Y-14092650D02*
X13915930Y-14102174D01*
X13915930Y-14102174D02*
X13925453Y-14111698D01*
X13925453Y-14111698D02*
X13934977Y-14130746D01*
X13934977Y-14130746D02*
X13934977Y-14187888D01*
X13934977Y-14187888D02*
X13925453Y-14206936D01*
X13925453Y-14206936D02*
X13915930Y-14216460D01*
X13915930Y-14216460D02*
X13896882Y-14225984D01*
X13896882Y-14225984D02*
X13868310Y-14225984D01*
X14049263Y-14225984D02*
X14030215Y-14216460D01*
X14030215Y-14216460D02*
X14020691Y-14197412D01*
X14020691Y-14197412D02*
X14020691Y-14025984D01*
X14201644Y-14216460D02*
X14182596Y-14225984D01*
X14182596Y-14225984D02*
X14144501Y-14225984D01*
X14144501Y-14225984D02*
X14125453Y-14216460D01*
X14125453Y-14216460D02*
X14115930Y-14197412D01*
X14115930Y-14197412D02*
X14115930Y-14121222D01*
X14115930Y-14121222D02*
X14125453Y-14102174D01*
X14125453Y-14102174D02*
X14144501Y-14092650D01*
X14144501Y-14092650D02*
X14182596Y-14092650D01*
X14182596Y-14092650D02*
X14201644Y-14102174D01*
X14201644Y-14102174D02*
X14211168Y-14121222D01*
X14211168Y-14121222D02*
X14211168Y-14140269D01*
X14211168Y-14140269D02*
X14115930Y-14159317D01*
X14287358Y-14216460D02*
X14306406Y-14225984D01*
X14306406Y-14225984D02*
X14344501Y-14225984D01*
X14344501Y-14225984D02*
X14363549Y-14216460D01*
X14363549Y-14216460D02*
X14373072Y-14197412D01*
X14373072Y-14197412D02*
X14373072Y-14187888D01*
X14373072Y-14187888D02*
X14363549Y-14168841D01*
X14363549Y-14168841D02*
X14344501Y-14159317D01*
X14344501Y-14159317D02*
X14315930Y-14159317D01*
X14315930Y-14159317D02*
X14296882Y-14149793D01*
X14296882Y-14149793D02*
X14287358Y-14130746D01*
X14287358Y-14130746D02*
X14287358Y-14121222D01*
X14287358Y-14121222D02*
X14296882Y-14102174D01*
X14296882Y-14102174D02*
X14315930Y-14092650D01*
X14315930Y-14092650D02*
X14344501Y-14092650D01*
X14344501Y-14092650D02*
X14363549Y-14102174D01*
X14439739Y-14302174D02*
X14449263Y-14292650D01*
X14449263Y-14292650D02*
X14468311Y-14264079D01*
X14468311Y-14264079D02*
X14477834Y-14245031D01*
X14477834Y-14245031D02*
X14487358Y-14216460D01*
X14487358Y-14216460D02*
X14496882Y-14168841D01*
X14496882Y-14168841D02*
X14496882Y-14130746D01*
X14496882Y-14130746D02*
X14487358Y-14083127D01*
X14487358Y-14083127D02*
X14477834Y-14054555D01*
X14477834Y-14054555D02*
X14468311Y-14035508D01*
X14468311Y-14035508D02*
X14449263Y-14006936D01*
X14449263Y-14006936D02*
X14439739Y-13997412D01*
D12*
X9444200Y-14428500D02*
X9474200Y-14398500D01*
X9444200Y-14368500D01*
X9414200Y-14398500D01*
X9444200Y-14428500D01*
D11*
X9773072Y-14289984D02*
X9792120Y-14289984D01*
X9792120Y-14289984D02*
X9811167Y-14299508D01*
X9811167Y-14299508D02*
X9820691Y-14309031D01*
X9820691Y-14309031D02*
X9830215Y-14328079D01*
X9830215Y-14328079D02*
X9839739Y-14366174D01*
X9839739Y-14366174D02*
X9839739Y-14413793D01*
X9839739Y-14413793D02*
X9830215Y-14451888D01*
X9830215Y-14451888D02*
X9820691Y-14470936D01*
X9820691Y-14470936D02*
X9811167Y-14480460D01*
X9811167Y-14480460D02*
X9792120Y-14489984D01*
X9792120Y-14489984D02*
X9773072Y-14489984D01*
X9773072Y-14489984D02*
X9754024Y-14480460D01*
X9754024Y-14480460D02*
X9744501Y-14470936D01*
X9744501Y-14470936D02*
X9734977Y-14451888D01*
X9734977Y-14451888D02*
X9725453Y-14413793D01*
X9725453Y-14413793D02*
X9725453Y-14366174D01*
X9725453Y-14366174D02*
X9734977Y-14328079D01*
X9734977Y-14328079D02*
X9744501Y-14309031D01*
X9744501Y-14309031D02*
X9754024Y-14299508D01*
X9754024Y-14299508D02*
X9773072Y-14289984D01*
X9925453Y-14470936D02*
X9934977Y-14480460D01*
X9934977Y-14480460D02*
X9925453Y-14489984D01*
X9925453Y-14489984D02*
X9915929Y-14480460D01*
X9915929Y-14480460D02*
X9925453Y-14470936D01*
X9925453Y-14470936D02*
X9925453Y-14489984D01*
X10106405Y-14289984D02*
X10068310Y-14289984D01*
X10068310Y-14289984D02*
X10049263Y-14299508D01*
X10049263Y-14299508D02*
X10039739Y-14309031D01*
X10039739Y-14309031D02*
X10020691Y-14337603D01*
X10020691Y-14337603D02*
X10011167Y-14375698D01*
X10011167Y-14375698D02*
X10011167Y-14451888D01*
X10011167Y-14451888D02*
X10020691Y-14470936D01*
X10020691Y-14470936D02*
X10030215Y-14480460D01*
X10030215Y-14480460D02*
X10049263Y-14489984D01*
X10049263Y-14489984D02*
X10087358Y-14489984D01*
X10087358Y-14489984D02*
X10106405Y-14480460D01*
X10106405Y-14480460D02*
X10115929Y-14470936D01*
X10115929Y-14470936D02*
X10125453Y-14451888D01*
X10125453Y-14451888D02*
X10125453Y-14404269D01*
X10125453Y-14404269D02*
X10115929Y-14385222D01*
X10115929Y-14385222D02*
X10106405Y-14375698D01*
X10106405Y-14375698D02*
X10087358Y-14366174D01*
X10087358Y-14366174D02*
X10049263Y-14366174D01*
X10049263Y-14366174D02*
X10030215Y-14375698D01*
X10030215Y-14375698D02*
X10020691Y-14385222D01*
X10020691Y-14385222D02*
X10011167Y-14404269D01*
X10249263Y-14289984D02*
X10268310Y-14289984D01*
X10268310Y-14289984D02*
X10287358Y-14299508D01*
X10287358Y-14299508D02*
X10296882Y-14309031D01*
X10296882Y-14309031D02*
X10306405Y-14328079D01*
X10306405Y-14328079D02*
X10315929Y-14366174D01*
X10315929Y-14366174D02*
X10315929Y-14413793D01*
X10315929Y-14413793D02*
X10306405Y-14451888D01*
X10306405Y-14451888D02*
X10296882Y-14470936D01*
X10296882Y-14470936D02*
X10287358Y-14480460D01*
X10287358Y-14480460D02*
X10268310Y-14489984D01*
X10268310Y-14489984D02*
X10249263Y-14489984D01*
X10249263Y-14489984D02*
X10230215Y-14480460D01*
X10230215Y-14480460D02*
X10220691Y-14470936D01*
X10220691Y-14470936D02*
X10211167Y-14451888D01*
X10211167Y-14451888D02*
X10201644Y-14413793D01*
X10201644Y-14413793D02*
X10201644Y-14366174D01*
X10201644Y-14366174D02*
X10211167Y-14328079D01*
X10211167Y-14328079D02*
X10220691Y-14309031D01*
X10220691Y-14309031D02*
X10230215Y-14299508D01*
X10230215Y-14299508D02*
X10249263Y-14289984D01*
X10439739Y-14289984D02*
X10458786Y-14289984D01*
X10458786Y-14289984D02*
X10477834Y-14299508D01*
X10477834Y-14299508D02*
X10487358Y-14309031D01*
X10487358Y-14309031D02*
X10496882Y-14328079D01*
X10496882Y-14328079D02*
X10506405Y-14366174D01*
X10506405Y-14366174D02*
X10506405Y-14413793D01*
X10506405Y-14413793D02*
X10496882Y-14451888D01*
X10496882Y-14451888D02*
X10487358Y-14470936D01*
X10487358Y-14470936D02*
X10477834Y-14480460D01*
X10477834Y-14480460D02*
X10458786Y-14489984D01*
X10458786Y-14489984D02*
X10439739Y-14489984D01*
X10439739Y-14489984D02*
X10420691Y-14480460D01*
X10420691Y-14480460D02*
X10411167Y-14470936D01*
X10411167Y-14470936D02*
X10401644Y-14451888D01*
X10401644Y-14451888D02*
X10392120Y-14413793D01*
X10392120Y-14413793D02*
X10392120Y-14366174D01*
X10392120Y-14366174D02*
X10401644Y-14328079D01*
X10401644Y-14328079D02*
X10411167Y-14309031D01*
X10411167Y-14309031D02*
X10420691Y-14299508D01*
X10420691Y-14299508D02*
X10439739Y-14289984D01*
X10592120Y-14489984D02*
X10592120Y-14356650D01*
X10592120Y-14375698D02*
X10601644Y-14366174D01*
X10601644Y-14366174D02*
X10620691Y-14356650D01*
X10620691Y-14356650D02*
X10649263Y-14356650D01*
X10649263Y-14356650D02*
X10668310Y-14366174D01*
X10668310Y-14366174D02*
X10677834Y-14385222D01*
X10677834Y-14385222D02*
X10677834Y-14489984D01*
X10677834Y-14385222D02*
X10687358Y-14366174D01*
X10687358Y-14366174D02*
X10706405Y-14356650D01*
X10706405Y-14356650D02*
X10734977Y-14356650D01*
X10734977Y-14356650D02*
X10754025Y-14366174D01*
X10754025Y-14366174D02*
X10763548Y-14385222D01*
X10763548Y-14385222D02*
X10763548Y-14489984D01*
X10858786Y-14489984D02*
X10858786Y-14356650D01*
X10858786Y-14375698D02*
X10868310Y-14366174D01*
X10868310Y-14366174D02*
X10887358Y-14356650D01*
X10887358Y-14356650D02*
X10915929Y-14356650D01*
X10915929Y-14356650D02*
X10934977Y-14366174D01*
X10934977Y-14366174D02*
X10944501Y-14385222D01*
X10944501Y-14385222D02*
X10944501Y-14489984D01*
X10944501Y-14385222D02*
X10954025Y-14366174D01*
X10954025Y-14366174D02*
X10973072Y-14356650D01*
X10973072Y-14356650D02*
X11001644Y-14356650D01*
X11001644Y-14356650D02*
X11020691Y-14366174D01*
X11020691Y-14366174D02*
X11030215Y-14385222D01*
X11030215Y-14385222D02*
X11030215Y-14489984D01*
X11420691Y-14280460D02*
X11249263Y-14537603D01*
X11677834Y-14289984D02*
X11696882Y-14289984D01*
X11696882Y-14289984D02*
X11715929Y-14299508D01*
X11715929Y-14299508D02*
X11725453Y-14309031D01*
X11725453Y-14309031D02*
X11734977Y-14328079D01*
X11734977Y-14328079D02*
X11744501Y-14366174D01*
X11744501Y-14366174D02*
X11744501Y-14413793D01*
X11744501Y-14413793D02*
X11734977Y-14451888D01*
X11734977Y-14451888D02*
X11725453Y-14470936D01*
X11725453Y-14470936D02*
X11715929Y-14480460D01*
X11715929Y-14480460D02*
X11696882Y-14489984D01*
X11696882Y-14489984D02*
X11677834Y-14489984D01*
X11677834Y-14489984D02*
X11658786Y-14480460D01*
X11658786Y-14480460D02*
X11649263Y-14470936D01*
X11649263Y-14470936D02*
X11639739Y-14451888D01*
X11639739Y-14451888D02*
X11630215Y-14413793D01*
X11630215Y-14413793D02*
X11630215Y-14366174D01*
X11630215Y-14366174D02*
X11639739Y-14328079D01*
X11639739Y-14328079D02*
X11649263Y-14309031D01*
X11649263Y-14309031D02*
X11658786Y-14299508D01*
X11658786Y-14299508D02*
X11677834Y-14289984D01*
X11830215Y-14470936D02*
X11839739Y-14480460D01*
X11839739Y-14480460D02*
X11830215Y-14489984D01*
X11830215Y-14489984D02*
X11820691Y-14480460D01*
X11820691Y-14480460D02*
X11830215Y-14470936D01*
X11830215Y-14470936D02*
X11830215Y-14489984D01*
X11963548Y-14289984D02*
X11982596Y-14289984D01*
X11982596Y-14289984D02*
X12001644Y-14299508D01*
X12001644Y-14299508D02*
X12011167Y-14309031D01*
X12011167Y-14309031D02*
X12020691Y-14328079D01*
X12020691Y-14328079D02*
X12030215Y-14366174D01*
X12030215Y-14366174D02*
X12030215Y-14413793D01*
X12030215Y-14413793D02*
X12020691Y-14451888D01*
X12020691Y-14451888D02*
X12011167Y-14470936D01*
X12011167Y-14470936D02*
X12001644Y-14480460D01*
X12001644Y-14480460D02*
X11982596Y-14489984D01*
X11982596Y-14489984D02*
X11963548Y-14489984D01*
X11963548Y-14489984D02*
X11944501Y-14480460D01*
X11944501Y-14480460D02*
X11934977Y-14470936D01*
X11934977Y-14470936D02*
X11925453Y-14451888D01*
X11925453Y-14451888D02*
X11915929Y-14413793D01*
X11915929Y-14413793D02*
X11915929Y-14366174D01*
X11915929Y-14366174D02*
X11925453Y-14328079D01*
X11925453Y-14328079D02*
X11934977Y-14309031D01*
X11934977Y-14309031D02*
X11944501Y-14299508D01*
X11944501Y-14299508D02*
X11963548Y-14289984D01*
X12106406Y-14309031D02*
X12115929Y-14299508D01*
X12115929Y-14299508D02*
X12134977Y-14289984D01*
X12134977Y-14289984D02*
X12182596Y-14289984D01*
X12182596Y-14289984D02*
X12201644Y-14299508D01*
X12201644Y-14299508D02*
X12211167Y-14309031D01*
X12211167Y-14309031D02*
X12220691Y-14328079D01*
X12220691Y-14328079D02*
X12220691Y-14347127D01*
X12220691Y-14347127D02*
X12211167Y-14375698D01*
X12211167Y-14375698D02*
X12096882Y-14489984D01*
X12096882Y-14489984D02*
X12220691Y-14489984D01*
X12287358Y-14289984D02*
X12411167Y-14289984D01*
X12411167Y-14289984D02*
X12344501Y-14366174D01*
X12344501Y-14366174D02*
X12373072Y-14366174D01*
X12373072Y-14366174D02*
X12392120Y-14375698D01*
X12392120Y-14375698D02*
X12401644Y-14385222D01*
X12401644Y-14385222D02*
X12411167Y-14404269D01*
X12411167Y-14404269D02*
X12411167Y-14451888D01*
X12411167Y-14451888D02*
X12401644Y-14470936D01*
X12401644Y-14470936D02*
X12392120Y-14480460D01*
X12392120Y-14480460D02*
X12373072Y-14489984D01*
X12373072Y-14489984D02*
X12315929Y-14489984D01*
X12315929Y-14489984D02*
X12296882Y-14480460D01*
X12296882Y-14480460D02*
X12287358Y-14470936D01*
X12582596Y-14289984D02*
X12544501Y-14289984D01*
X12544501Y-14289984D02*
X12525453Y-14299508D01*
X12525453Y-14299508D02*
X12515929Y-14309031D01*
X12515929Y-14309031D02*
X12496882Y-14337603D01*
X12496882Y-14337603D02*
X12487358Y-14375698D01*
X12487358Y-14375698D02*
X12487358Y-14451888D01*
X12487358Y-14451888D02*
X12496882Y-14470936D01*
X12496882Y-14470936D02*
X12506406Y-14480460D01*
X12506406Y-14480460D02*
X12525453Y-14489984D01*
X12525453Y-14489984D02*
X12563548Y-14489984D01*
X12563548Y-14489984D02*
X12582596Y-14480460D01*
X12582596Y-14480460D02*
X12592120Y-14470936D01*
X12592120Y-14470936D02*
X12601644Y-14451888D01*
X12601644Y-14451888D02*
X12601644Y-14404269D01*
X12601644Y-14404269D02*
X12592120Y-14385222D01*
X12592120Y-14385222D02*
X12582596Y-14375698D01*
X12582596Y-14375698D02*
X12563548Y-14366174D01*
X12563548Y-14366174D02*
X12525453Y-14366174D01*
X12525453Y-14366174D02*
X12506406Y-14375698D01*
X12506406Y-14375698D02*
X12496882Y-14385222D01*
X12496882Y-14385222D02*
X12487358Y-14404269D01*
X12677834Y-14289984D02*
X12677834Y-14328079D01*
X12754025Y-14289984D02*
X12754025Y-14328079D01*
X13049263Y-14566174D02*
X13039739Y-14556650D01*
X13039739Y-14556650D02*
X13020691Y-14528079D01*
X13020691Y-14528079D02*
X13011168Y-14509031D01*
X13011168Y-14509031D02*
X13001644Y-14480460D01*
X13001644Y-14480460D02*
X12992120Y-14432841D01*
X12992120Y-14432841D02*
X12992120Y-14394746D01*
X12992120Y-14394746D02*
X13001644Y-14347127D01*
X13001644Y-14347127D02*
X13011168Y-14318555D01*
X13011168Y-14318555D02*
X13020691Y-14299508D01*
X13020691Y-14299508D02*
X13039739Y-14270936D01*
X13039739Y-14270936D02*
X13049263Y-14261412D01*
X13163548Y-14289984D02*
X13182596Y-14289984D01*
X13182596Y-14289984D02*
X13201644Y-14299508D01*
X13201644Y-14299508D02*
X13211168Y-14309031D01*
X13211168Y-14309031D02*
X13220691Y-14328079D01*
X13220691Y-14328079D02*
X13230215Y-14366174D01*
X13230215Y-14366174D02*
X13230215Y-14413793D01*
X13230215Y-14413793D02*
X13220691Y-14451888D01*
X13220691Y-14451888D02*
X13211168Y-14470936D01*
X13211168Y-14470936D02*
X13201644Y-14480460D01*
X13201644Y-14480460D02*
X13182596Y-14489984D01*
X13182596Y-14489984D02*
X13163548Y-14489984D01*
X13163548Y-14489984D02*
X13144501Y-14480460D01*
X13144501Y-14480460D02*
X13134977Y-14470936D01*
X13134977Y-14470936D02*
X13125453Y-14451888D01*
X13125453Y-14451888D02*
X13115929Y-14413793D01*
X13115929Y-14413793D02*
X13115929Y-14366174D01*
X13115929Y-14366174D02*
X13125453Y-14328079D01*
X13125453Y-14328079D02*
X13134977Y-14309031D01*
X13134977Y-14309031D02*
X13144501Y-14299508D01*
X13144501Y-14299508D02*
X13163548Y-14289984D01*
X13468310Y-14489984D02*
X13468310Y-14289984D01*
X13554025Y-14489984D02*
X13554025Y-14385222D01*
X13554025Y-14385222D02*
X13544501Y-14366174D01*
X13544501Y-14366174D02*
X13525453Y-14356650D01*
X13525453Y-14356650D02*
X13496882Y-14356650D01*
X13496882Y-14356650D02*
X13477834Y-14366174D01*
X13477834Y-14366174D02*
X13468310Y-14375698D01*
X13677834Y-14489984D02*
X13658787Y-14480460D01*
X13658787Y-14480460D02*
X13649263Y-14470936D01*
X13649263Y-14470936D02*
X13639739Y-14451888D01*
X13639739Y-14451888D02*
X13639739Y-14394746D01*
X13639739Y-14394746D02*
X13649263Y-14375698D01*
X13649263Y-14375698D02*
X13658787Y-14366174D01*
X13658787Y-14366174D02*
X13677834Y-14356650D01*
X13677834Y-14356650D02*
X13706406Y-14356650D01*
X13706406Y-14356650D02*
X13725453Y-14366174D01*
X13725453Y-14366174D02*
X13734977Y-14375698D01*
X13734977Y-14375698D02*
X13744501Y-14394746D01*
X13744501Y-14394746D02*
X13744501Y-14451888D01*
X13744501Y-14451888D02*
X13734977Y-14470936D01*
X13734977Y-14470936D02*
X13725453Y-14480460D01*
X13725453Y-14480460D02*
X13706406Y-14489984D01*
X13706406Y-14489984D02*
X13677834Y-14489984D01*
X13858787Y-14489984D02*
X13839739Y-14480460D01*
X13839739Y-14480460D02*
X13830215Y-14461412D01*
X13830215Y-14461412D02*
X13830215Y-14289984D01*
X14011168Y-14480460D02*
X13992120Y-14489984D01*
X13992120Y-14489984D02*
X13954025Y-14489984D01*
X13954025Y-14489984D02*
X13934977Y-14480460D01*
X13934977Y-14480460D02*
X13925453Y-14461412D01*
X13925453Y-14461412D02*
X13925453Y-14385222D01*
X13925453Y-14385222D02*
X13934977Y-14366174D01*
X13934977Y-14366174D02*
X13954025Y-14356650D01*
X13954025Y-14356650D02*
X13992120Y-14356650D01*
X13992120Y-14356650D02*
X14011168Y-14366174D01*
X14011168Y-14366174D02*
X14020691Y-14385222D01*
X14020691Y-14385222D02*
X14020691Y-14404269D01*
X14020691Y-14404269D02*
X13925453Y-14423317D01*
X14096882Y-14480460D02*
X14115930Y-14489984D01*
X14115930Y-14489984D02*
X14154025Y-14489984D01*
X14154025Y-14489984D02*
X14173072Y-14480460D01*
X14173072Y-14480460D02*
X14182596Y-14461412D01*
X14182596Y-14461412D02*
X14182596Y-14451888D01*
X14182596Y-14451888D02*
X14173072Y-14432841D01*
X14173072Y-14432841D02*
X14154025Y-14423317D01*
X14154025Y-14423317D02*
X14125453Y-14423317D01*
X14125453Y-14423317D02*
X14106406Y-14413793D01*
X14106406Y-14413793D02*
X14096882Y-14394746D01*
X14096882Y-14394746D02*
X14096882Y-14385222D01*
X14096882Y-14385222D02*
X14106406Y-14366174D01*
X14106406Y-14366174D02*
X14125453Y-14356650D01*
X14125453Y-14356650D02*
X14154025Y-14356650D01*
X14154025Y-14356650D02*
X14173072Y-14366174D01*
X14420692Y-14413793D02*
X14573073Y-14413793D01*
X14496882Y-14489984D02*
X14496882Y-14337603D01*
X14906406Y-14356650D02*
X14906406Y-14489984D01*
X14858787Y-14280460D02*
X14811168Y-14423317D01*
X14811168Y-14423317D02*
X14934977Y-14423317D01*
X15154025Y-14480460D02*
X15173073Y-14489984D01*
X15173073Y-14489984D02*
X15211168Y-14489984D01*
X15211168Y-14489984D02*
X15230215Y-14480460D01*
X15230215Y-14480460D02*
X15239739Y-14461412D01*
X15239739Y-14461412D02*
X15239739Y-14451888D01*
X15239739Y-14451888D02*
X15230215Y-14432841D01*
X15230215Y-14432841D02*
X15211168Y-14423317D01*
X15211168Y-14423317D02*
X15182596Y-14423317D01*
X15182596Y-14423317D02*
X15163549Y-14413793D01*
X15163549Y-14413793D02*
X15154025Y-14394746D01*
X15154025Y-14394746D02*
X15154025Y-14385222D01*
X15154025Y-14385222D02*
X15163549Y-14366174D01*
X15163549Y-14366174D02*
X15182596Y-14356650D01*
X15182596Y-14356650D02*
X15211168Y-14356650D01*
X15211168Y-14356650D02*
X15230215Y-14366174D01*
X15354025Y-14489984D02*
X15334977Y-14480460D01*
X15334977Y-14480460D02*
X15325454Y-14461412D01*
X15325454Y-14461412D02*
X15325454Y-14289984D01*
X15458787Y-14489984D02*
X15439739Y-14480460D01*
X15439739Y-14480460D02*
X15430215Y-14470936D01*
X15430215Y-14470936D02*
X15420692Y-14451888D01*
X15420692Y-14451888D02*
X15420692Y-14394746D01*
X15420692Y-14394746D02*
X15430215Y-14375698D01*
X15430215Y-14375698D02*
X15439739Y-14366174D01*
X15439739Y-14366174D02*
X15458787Y-14356650D01*
X15458787Y-14356650D02*
X15487358Y-14356650D01*
X15487358Y-14356650D02*
X15506406Y-14366174D01*
X15506406Y-14366174D02*
X15515930Y-14375698D01*
X15515930Y-14375698D02*
X15525454Y-14394746D01*
X15525454Y-14394746D02*
X15525454Y-14451888D01*
X15525454Y-14451888D02*
X15515930Y-14470936D01*
X15515930Y-14470936D02*
X15506406Y-14480460D01*
X15506406Y-14480460D02*
X15487358Y-14489984D01*
X15487358Y-14489984D02*
X15458787Y-14489984D01*
X15582596Y-14356650D02*
X15658787Y-14356650D01*
X15611168Y-14289984D02*
X15611168Y-14461412D01*
X15611168Y-14461412D02*
X15620692Y-14480460D01*
X15620692Y-14480460D02*
X15639739Y-14489984D01*
X15639739Y-14489984D02*
X15658787Y-14489984D01*
X15715930Y-14480460D02*
X15734977Y-14489984D01*
X15734977Y-14489984D02*
X15773073Y-14489984D01*
X15773073Y-14489984D02*
X15792120Y-14480460D01*
X15792120Y-14480460D02*
X15801644Y-14461412D01*
X15801644Y-14461412D02*
X15801644Y-14451888D01*
X15801644Y-14451888D02*
X15792120Y-14432841D01*
X15792120Y-14432841D02*
X15773073Y-14423317D01*
X15773073Y-14423317D02*
X15744501Y-14423317D01*
X15744501Y-14423317D02*
X15725454Y-14413793D01*
X15725454Y-14413793D02*
X15715930Y-14394746D01*
X15715930Y-14394746D02*
X15715930Y-14385222D01*
X15715930Y-14385222D02*
X15725454Y-14366174D01*
X15725454Y-14366174D02*
X15744501Y-14356650D01*
X15744501Y-14356650D02*
X15773073Y-14356650D01*
X15773073Y-14356650D02*
X15792120Y-14366174D01*
X15868311Y-14566174D02*
X15877835Y-14556650D01*
X15877835Y-14556650D02*
X15896882Y-14528079D01*
X15896882Y-14528079D02*
X15906406Y-14509031D01*
X15906406Y-14509031D02*
X15915930Y-14480460D01*
X15915930Y-14480460D02*
X15925454Y-14432841D01*
X15925454Y-14432841D02*
X15925454Y-14394746D01*
X15925454Y-14394746D02*
X15915930Y-14347127D01*
X15915930Y-14347127D02*
X15906406Y-14318555D01*
X15906406Y-14318555D02*
X15896882Y-14299508D01*
X15896882Y-14299508D02*
X15877835Y-14270936D01*
X15877835Y-14270936D02*
X15868311Y-14261412D01*
D12*
X9394200Y-14622500D02*
X9474200Y-14702500D01*
X9474200Y-14622500D02*
X9394200Y-14702500D01*
X9474200Y-14662500D02*
G75*
G02*
X9394200Y-14662500I-40000J0D01*
G01*
X9394200Y-14662500D02*
G75*
G02*
X9474200Y-14662500I40000J0D01*
G01*
D11*
X9773072Y-14553984D02*
X9792120Y-14553984D01*
X9792120Y-14553984D02*
X9811167Y-14563508D01*
X9811167Y-14563508D02*
X9820691Y-14573031D01*
X9820691Y-14573031D02*
X9830215Y-14592079D01*
X9830215Y-14592079D02*
X9839739Y-14630174D01*
X9839739Y-14630174D02*
X9839739Y-14677793D01*
X9839739Y-14677793D02*
X9830215Y-14715888D01*
X9830215Y-14715888D02*
X9820691Y-14734936D01*
X9820691Y-14734936D02*
X9811167Y-14744460D01*
X9811167Y-14744460D02*
X9792120Y-14753984D01*
X9792120Y-14753984D02*
X9773072Y-14753984D01*
X9773072Y-14753984D02*
X9754024Y-14744460D01*
X9754024Y-14744460D02*
X9744501Y-14734936D01*
X9744501Y-14734936D02*
X9734977Y-14715888D01*
X9734977Y-14715888D02*
X9725453Y-14677793D01*
X9725453Y-14677793D02*
X9725453Y-14630174D01*
X9725453Y-14630174D02*
X9734977Y-14592079D01*
X9734977Y-14592079D02*
X9744501Y-14573031D01*
X9744501Y-14573031D02*
X9754024Y-14563508D01*
X9754024Y-14563508D02*
X9773072Y-14553984D01*
X9925453Y-14734936D02*
X9934977Y-14744460D01*
X9934977Y-14744460D02*
X9925453Y-14753984D01*
X9925453Y-14753984D02*
X9915929Y-14744460D01*
X9915929Y-14744460D02*
X9925453Y-14734936D01*
X9925453Y-14734936D02*
X9925453Y-14753984D01*
X10049263Y-14639698D02*
X10030215Y-14630174D01*
X10030215Y-14630174D02*
X10020691Y-14620650D01*
X10020691Y-14620650D02*
X10011167Y-14601603D01*
X10011167Y-14601603D02*
X10011167Y-14592079D01*
X10011167Y-14592079D02*
X10020691Y-14573031D01*
X10020691Y-14573031D02*
X10030215Y-14563508D01*
X10030215Y-14563508D02*
X10049263Y-14553984D01*
X10049263Y-14553984D02*
X10087358Y-14553984D01*
X10087358Y-14553984D02*
X10106405Y-14563508D01*
X10106405Y-14563508D02*
X10115929Y-14573031D01*
X10115929Y-14573031D02*
X10125453Y-14592079D01*
X10125453Y-14592079D02*
X10125453Y-14601603D01*
X10125453Y-14601603D02*
X10115929Y-14620650D01*
X10115929Y-14620650D02*
X10106405Y-14630174D01*
X10106405Y-14630174D02*
X10087358Y-14639698D01*
X10087358Y-14639698D02*
X10049263Y-14639698D01*
X10049263Y-14639698D02*
X10030215Y-14649222D01*
X10030215Y-14649222D02*
X10020691Y-14658746D01*
X10020691Y-14658746D02*
X10011167Y-14677793D01*
X10011167Y-14677793D02*
X10011167Y-14715888D01*
X10011167Y-14715888D02*
X10020691Y-14734936D01*
X10020691Y-14734936D02*
X10030215Y-14744460D01*
X10030215Y-14744460D02*
X10049263Y-14753984D01*
X10049263Y-14753984D02*
X10087358Y-14753984D01*
X10087358Y-14753984D02*
X10106405Y-14744460D01*
X10106405Y-14744460D02*
X10115929Y-14734936D01*
X10115929Y-14734936D02*
X10125453Y-14715888D01*
X10125453Y-14715888D02*
X10125453Y-14677793D01*
X10125453Y-14677793D02*
X10115929Y-14658746D01*
X10115929Y-14658746D02*
X10106405Y-14649222D01*
X10106405Y-14649222D02*
X10087358Y-14639698D01*
X10249263Y-14553984D02*
X10268310Y-14553984D01*
X10268310Y-14553984D02*
X10287358Y-14563508D01*
X10287358Y-14563508D02*
X10296882Y-14573031D01*
X10296882Y-14573031D02*
X10306405Y-14592079D01*
X10306405Y-14592079D02*
X10315929Y-14630174D01*
X10315929Y-14630174D02*
X10315929Y-14677793D01*
X10315929Y-14677793D02*
X10306405Y-14715888D01*
X10306405Y-14715888D02*
X10296882Y-14734936D01*
X10296882Y-14734936D02*
X10287358Y-14744460D01*
X10287358Y-14744460D02*
X10268310Y-14753984D01*
X10268310Y-14753984D02*
X10249263Y-14753984D01*
X10249263Y-14753984D02*
X10230215Y-14744460D01*
X10230215Y-14744460D02*
X10220691Y-14734936D01*
X10220691Y-14734936D02*
X10211167Y-14715888D01*
X10211167Y-14715888D02*
X10201644Y-14677793D01*
X10201644Y-14677793D02*
X10201644Y-14630174D01*
X10201644Y-14630174D02*
X10211167Y-14592079D01*
X10211167Y-14592079D02*
X10220691Y-14573031D01*
X10220691Y-14573031D02*
X10230215Y-14563508D01*
X10230215Y-14563508D02*
X10249263Y-14553984D01*
X10439739Y-14553984D02*
X10458786Y-14553984D01*
X10458786Y-14553984D02*
X10477834Y-14563508D01*
X10477834Y-14563508D02*
X10487358Y-14573031D01*
X10487358Y-14573031D02*
X10496882Y-14592079D01*
X10496882Y-14592079D02*
X10506405Y-14630174D01*
X10506405Y-14630174D02*
X10506405Y-14677793D01*
X10506405Y-14677793D02*
X10496882Y-14715888D01*
X10496882Y-14715888D02*
X10487358Y-14734936D01*
X10487358Y-14734936D02*
X10477834Y-14744460D01*
X10477834Y-14744460D02*
X10458786Y-14753984D01*
X10458786Y-14753984D02*
X10439739Y-14753984D01*
X10439739Y-14753984D02*
X10420691Y-14744460D01*
X10420691Y-14744460D02*
X10411167Y-14734936D01*
X10411167Y-14734936D02*
X10401644Y-14715888D01*
X10401644Y-14715888D02*
X10392120Y-14677793D01*
X10392120Y-14677793D02*
X10392120Y-14630174D01*
X10392120Y-14630174D02*
X10401644Y-14592079D01*
X10401644Y-14592079D02*
X10411167Y-14573031D01*
X10411167Y-14573031D02*
X10420691Y-14563508D01*
X10420691Y-14563508D02*
X10439739Y-14553984D01*
X10592120Y-14753984D02*
X10592120Y-14620650D01*
X10592120Y-14639698D02*
X10601644Y-14630174D01*
X10601644Y-14630174D02*
X10620691Y-14620650D01*
X10620691Y-14620650D02*
X10649263Y-14620650D01*
X10649263Y-14620650D02*
X10668310Y-14630174D01*
X10668310Y-14630174D02*
X10677834Y-14649222D01*
X10677834Y-14649222D02*
X10677834Y-14753984D01*
X10677834Y-14649222D02*
X10687358Y-14630174D01*
X10687358Y-14630174D02*
X10706405Y-14620650D01*
X10706405Y-14620650D02*
X10734977Y-14620650D01*
X10734977Y-14620650D02*
X10754025Y-14630174D01*
X10754025Y-14630174D02*
X10763548Y-14649222D01*
X10763548Y-14649222D02*
X10763548Y-14753984D01*
X10858786Y-14753984D02*
X10858786Y-14620650D01*
X10858786Y-14639698D02*
X10868310Y-14630174D01*
X10868310Y-14630174D02*
X10887358Y-14620650D01*
X10887358Y-14620650D02*
X10915929Y-14620650D01*
X10915929Y-14620650D02*
X10934977Y-14630174D01*
X10934977Y-14630174D02*
X10944501Y-14649222D01*
X10944501Y-14649222D02*
X10944501Y-14753984D01*
X10944501Y-14649222D02*
X10954025Y-14630174D01*
X10954025Y-14630174D02*
X10973072Y-14620650D01*
X10973072Y-14620650D02*
X11001644Y-14620650D01*
X11001644Y-14620650D02*
X11020691Y-14630174D01*
X11020691Y-14630174D02*
X11030215Y-14649222D01*
X11030215Y-14649222D02*
X11030215Y-14753984D01*
X11420691Y-14544460D02*
X11249263Y-14801603D01*
X11677834Y-14553984D02*
X11696882Y-14553984D01*
X11696882Y-14553984D02*
X11715929Y-14563508D01*
X11715929Y-14563508D02*
X11725453Y-14573031D01*
X11725453Y-14573031D02*
X11734977Y-14592079D01*
X11734977Y-14592079D02*
X11744501Y-14630174D01*
X11744501Y-14630174D02*
X11744501Y-14677793D01*
X11744501Y-14677793D02*
X11734977Y-14715888D01*
X11734977Y-14715888D02*
X11725453Y-14734936D01*
X11725453Y-14734936D02*
X11715929Y-14744460D01*
X11715929Y-14744460D02*
X11696882Y-14753984D01*
X11696882Y-14753984D02*
X11677834Y-14753984D01*
X11677834Y-14753984D02*
X11658786Y-14744460D01*
X11658786Y-14744460D02*
X11649263Y-14734936D01*
X11649263Y-14734936D02*
X11639739Y-14715888D01*
X11639739Y-14715888D02*
X11630215Y-14677793D01*
X11630215Y-14677793D02*
X11630215Y-14630174D01*
X11630215Y-14630174D02*
X11639739Y-14592079D01*
X11639739Y-14592079D02*
X11649263Y-14573031D01*
X11649263Y-14573031D02*
X11658786Y-14563508D01*
X11658786Y-14563508D02*
X11677834Y-14553984D01*
X11830215Y-14734936D02*
X11839739Y-14744460D01*
X11839739Y-14744460D02*
X11830215Y-14753984D01*
X11830215Y-14753984D02*
X11820691Y-14744460D01*
X11820691Y-14744460D02*
X11830215Y-14734936D01*
X11830215Y-14734936D02*
X11830215Y-14753984D01*
X11963548Y-14553984D02*
X11982596Y-14553984D01*
X11982596Y-14553984D02*
X12001644Y-14563508D01*
X12001644Y-14563508D02*
X12011167Y-14573031D01*
X12011167Y-14573031D02*
X12020691Y-14592079D01*
X12020691Y-14592079D02*
X12030215Y-14630174D01*
X12030215Y-14630174D02*
X12030215Y-14677793D01*
X12030215Y-14677793D02*
X12020691Y-14715888D01*
X12020691Y-14715888D02*
X12011167Y-14734936D01*
X12011167Y-14734936D02*
X12001644Y-14744460D01*
X12001644Y-14744460D02*
X11982596Y-14753984D01*
X11982596Y-14753984D02*
X11963548Y-14753984D01*
X11963548Y-14753984D02*
X11944501Y-14744460D01*
X11944501Y-14744460D02*
X11934977Y-14734936D01*
X11934977Y-14734936D02*
X11925453Y-14715888D01*
X11925453Y-14715888D02*
X11915929Y-14677793D01*
X11915929Y-14677793D02*
X11915929Y-14630174D01*
X11915929Y-14630174D02*
X11925453Y-14592079D01*
X11925453Y-14592079D02*
X11934977Y-14573031D01*
X11934977Y-14573031D02*
X11944501Y-14563508D01*
X11944501Y-14563508D02*
X11963548Y-14553984D01*
X12096882Y-14553984D02*
X12220691Y-14553984D01*
X12220691Y-14553984D02*
X12154025Y-14630174D01*
X12154025Y-14630174D02*
X12182596Y-14630174D01*
X12182596Y-14630174D02*
X12201644Y-14639698D01*
X12201644Y-14639698D02*
X12211167Y-14649222D01*
X12211167Y-14649222D02*
X12220691Y-14668269D01*
X12220691Y-14668269D02*
X12220691Y-14715888D01*
X12220691Y-14715888D02*
X12211167Y-14734936D01*
X12211167Y-14734936D02*
X12201644Y-14744460D01*
X12201644Y-14744460D02*
X12182596Y-14753984D01*
X12182596Y-14753984D02*
X12125453Y-14753984D01*
X12125453Y-14753984D02*
X12106406Y-14744460D01*
X12106406Y-14744460D02*
X12096882Y-14734936D01*
X12411167Y-14753984D02*
X12296882Y-14753984D01*
X12354025Y-14753984D02*
X12354025Y-14553984D01*
X12354025Y-14553984D02*
X12334977Y-14582555D01*
X12334977Y-14582555D02*
X12315929Y-14601603D01*
X12315929Y-14601603D02*
X12296882Y-14611127D01*
X12592120Y-14553984D02*
X12496882Y-14553984D01*
X12496882Y-14553984D02*
X12487358Y-14649222D01*
X12487358Y-14649222D02*
X12496882Y-14639698D01*
X12496882Y-14639698D02*
X12515929Y-14630174D01*
X12515929Y-14630174D02*
X12563548Y-14630174D01*
X12563548Y-14630174D02*
X12582596Y-14639698D01*
X12582596Y-14639698D02*
X12592120Y-14649222D01*
X12592120Y-14649222D02*
X12601644Y-14668269D01*
X12601644Y-14668269D02*
X12601644Y-14715888D01*
X12601644Y-14715888D02*
X12592120Y-14734936D01*
X12592120Y-14734936D02*
X12582596Y-14744460D01*
X12582596Y-14744460D02*
X12563548Y-14753984D01*
X12563548Y-14753984D02*
X12515929Y-14753984D01*
X12515929Y-14753984D02*
X12496882Y-14744460D01*
X12496882Y-14744460D02*
X12487358Y-14734936D01*
X12677834Y-14553984D02*
X12677834Y-14592079D01*
X12754025Y-14553984D02*
X12754025Y-14592079D01*
X13049263Y-14830174D02*
X13039739Y-14820650D01*
X13039739Y-14820650D02*
X13020691Y-14792079D01*
X13020691Y-14792079D02*
X13011168Y-14773031D01*
X13011168Y-14773031D02*
X13001644Y-14744460D01*
X13001644Y-14744460D02*
X12992120Y-14696841D01*
X12992120Y-14696841D02*
X12992120Y-14658746D01*
X12992120Y-14658746D02*
X13001644Y-14611127D01*
X13001644Y-14611127D02*
X13011168Y-14582555D01*
X13011168Y-14582555D02*
X13020691Y-14563508D01*
X13020691Y-14563508D02*
X13039739Y-14534936D01*
X13039739Y-14534936D02*
X13049263Y-14525412D01*
X13115929Y-14573031D02*
X13125453Y-14563508D01*
X13125453Y-14563508D02*
X13144501Y-14553984D01*
X13144501Y-14553984D02*
X13192120Y-14553984D01*
X13192120Y-14553984D02*
X13211168Y-14563508D01*
X13211168Y-14563508D02*
X13220691Y-14573031D01*
X13220691Y-14573031D02*
X13230215Y-14592079D01*
X13230215Y-14592079D02*
X13230215Y-14611127D01*
X13230215Y-14611127D02*
X13220691Y-14639698D01*
X13220691Y-14639698D02*
X13106406Y-14753984D01*
X13106406Y-14753984D02*
X13230215Y-14753984D01*
X13468310Y-14753984D02*
X13468310Y-14553984D01*
X13554025Y-14753984D02*
X13554025Y-14649222D01*
X13554025Y-14649222D02*
X13544501Y-14630174D01*
X13544501Y-14630174D02*
X13525453Y-14620650D01*
X13525453Y-14620650D02*
X13496882Y-14620650D01*
X13496882Y-14620650D02*
X13477834Y-14630174D01*
X13477834Y-14630174D02*
X13468310Y-14639698D01*
X13677834Y-14753984D02*
X13658787Y-14744460D01*
X13658787Y-14744460D02*
X13649263Y-14734936D01*
X13649263Y-14734936D02*
X13639739Y-14715888D01*
X13639739Y-14715888D02*
X13639739Y-14658746D01*
X13639739Y-14658746D02*
X13649263Y-14639698D01*
X13649263Y-14639698D02*
X13658787Y-14630174D01*
X13658787Y-14630174D02*
X13677834Y-14620650D01*
X13677834Y-14620650D02*
X13706406Y-14620650D01*
X13706406Y-14620650D02*
X13725453Y-14630174D01*
X13725453Y-14630174D02*
X13734977Y-14639698D01*
X13734977Y-14639698D02*
X13744501Y-14658746D01*
X13744501Y-14658746D02*
X13744501Y-14715888D01*
X13744501Y-14715888D02*
X13734977Y-14734936D01*
X13734977Y-14734936D02*
X13725453Y-14744460D01*
X13725453Y-14744460D02*
X13706406Y-14753984D01*
X13706406Y-14753984D02*
X13677834Y-14753984D01*
X13858787Y-14753984D02*
X13839739Y-14744460D01*
X13839739Y-14744460D02*
X13830215Y-14725412D01*
X13830215Y-14725412D02*
X13830215Y-14553984D01*
X14011168Y-14744460D02*
X13992120Y-14753984D01*
X13992120Y-14753984D02*
X13954025Y-14753984D01*
X13954025Y-14753984D02*
X13934977Y-14744460D01*
X13934977Y-14744460D02*
X13925453Y-14725412D01*
X13925453Y-14725412D02*
X13925453Y-14649222D01*
X13925453Y-14649222D02*
X13934977Y-14630174D01*
X13934977Y-14630174D02*
X13954025Y-14620650D01*
X13954025Y-14620650D02*
X13992120Y-14620650D01*
X13992120Y-14620650D02*
X14011168Y-14630174D01*
X14011168Y-14630174D02*
X14020691Y-14649222D01*
X14020691Y-14649222D02*
X14020691Y-14668269D01*
X14020691Y-14668269D02*
X13925453Y-14687317D01*
X14096882Y-14744460D02*
X14115930Y-14753984D01*
X14115930Y-14753984D02*
X14154025Y-14753984D01*
X14154025Y-14753984D02*
X14173072Y-14744460D01*
X14173072Y-14744460D02*
X14182596Y-14725412D01*
X14182596Y-14725412D02*
X14182596Y-14715888D01*
X14182596Y-14715888D02*
X14173072Y-14696841D01*
X14173072Y-14696841D02*
X14154025Y-14687317D01*
X14154025Y-14687317D02*
X14125453Y-14687317D01*
X14125453Y-14687317D02*
X14106406Y-14677793D01*
X14106406Y-14677793D02*
X14096882Y-14658746D01*
X14096882Y-14658746D02*
X14096882Y-14649222D01*
X14096882Y-14649222D02*
X14106406Y-14630174D01*
X14106406Y-14630174D02*
X14125453Y-14620650D01*
X14125453Y-14620650D02*
X14154025Y-14620650D01*
X14154025Y-14620650D02*
X14173072Y-14630174D01*
X14249263Y-14830174D02*
X14258787Y-14820650D01*
X14258787Y-14820650D02*
X14277834Y-14792079D01*
X14277834Y-14792079D02*
X14287358Y-14773031D01*
X14287358Y-14773031D02*
X14296882Y-14744460D01*
X14296882Y-14744460D02*
X14306406Y-14696841D01*
X14306406Y-14696841D02*
X14306406Y-14658746D01*
X14306406Y-14658746D02*
X14296882Y-14611127D01*
X14296882Y-14611127D02*
X14287358Y-14582555D01*
X14287358Y-14582555D02*
X14277834Y-14563508D01*
X14277834Y-14563508D02*
X14258787Y-14534936D01*
X14258787Y-14534936D02*
X14249263Y-14525412D01*
D12*
X9374200Y-14876500D02*
X9474200Y-14976500D01*
X9474200Y-14876500D02*
X9374200Y-14976500D01*
X9424200Y-14876500D02*
X9424200Y-14976500D01*
X9374200Y-14926500D02*
X9474200Y-14926500D01*
D11*
X9839739Y-15017984D02*
X9725453Y-15017984D01*
X9782596Y-15017984D02*
X9782596Y-14817984D01*
X9782596Y-14817984D02*
X9763548Y-14846555D01*
X9763548Y-14846555D02*
X9744501Y-14865603D01*
X9744501Y-14865603D02*
X9725453Y-14875127D01*
X9925453Y-14998936D02*
X9934977Y-15008460D01*
X9934977Y-15008460D02*
X9925453Y-15017984D01*
X9925453Y-15017984D02*
X9915929Y-15008460D01*
X9915929Y-15008460D02*
X9925453Y-14998936D01*
X9925453Y-14998936D02*
X9925453Y-15017984D01*
X10058786Y-14817984D02*
X10077834Y-14817984D01*
X10077834Y-14817984D02*
X10096882Y-14827508D01*
X10096882Y-14827508D02*
X10106405Y-14837031D01*
X10106405Y-14837031D02*
X10115929Y-14856079D01*
X10115929Y-14856079D02*
X10125453Y-14894174D01*
X10125453Y-14894174D02*
X10125453Y-14941793D01*
X10125453Y-14941793D02*
X10115929Y-14979888D01*
X10115929Y-14979888D02*
X10106405Y-14998936D01*
X10106405Y-14998936D02*
X10096882Y-15008460D01*
X10096882Y-15008460D02*
X10077834Y-15017984D01*
X10077834Y-15017984D02*
X10058786Y-15017984D01*
X10058786Y-15017984D02*
X10039739Y-15008460D01*
X10039739Y-15008460D02*
X10030215Y-14998936D01*
X10030215Y-14998936D02*
X10020691Y-14979888D01*
X10020691Y-14979888D02*
X10011167Y-14941793D01*
X10011167Y-14941793D02*
X10011167Y-14894174D01*
X10011167Y-14894174D02*
X10020691Y-14856079D01*
X10020691Y-14856079D02*
X10030215Y-14837031D01*
X10030215Y-14837031D02*
X10039739Y-14827508D01*
X10039739Y-14827508D02*
X10058786Y-14817984D01*
X10249263Y-14817984D02*
X10268310Y-14817984D01*
X10268310Y-14817984D02*
X10287358Y-14827508D01*
X10287358Y-14827508D02*
X10296882Y-14837031D01*
X10296882Y-14837031D02*
X10306405Y-14856079D01*
X10306405Y-14856079D02*
X10315929Y-14894174D01*
X10315929Y-14894174D02*
X10315929Y-14941793D01*
X10315929Y-14941793D02*
X10306405Y-14979888D01*
X10306405Y-14979888D02*
X10296882Y-14998936D01*
X10296882Y-14998936D02*
X10287358Y-15008460D01*
X10287358Y-15008460D02*
X10268310Y-15017984D01*
X10268310Y-15017984D02*
X10249263Y-15017984D01*
X10249263Y-15017984D02*
X10230215Y-15008460D01*
X10230215Y-15008460D02*
X10220691Y-14998936D01*
X10220691Y-14998936D02*
X10211167Y-14979888D01*
X10211167Y-14979888D02*
X10201644Y-14941793D01*
X10201644Y-14941793D02*
X10201644Y-14894174D01*
X10201644Y-14894174D02*
X10211167Y-14856079D01*
X10211167Y-14856079D02*
X10220691Y-14837031D01*
X10220691Y-14837031D02*
X10230215Y-14827508D01*
X10230215Y-14827508D02*
X10249263Y-14817984D01*
X10439739Y-14817984D02*
X10458786Y-14817984D01*
X10458786Y-14817984D02*
X10477834Y-14827508D01*
X10477834Y-14827508D02*
X10487358Y-14837031D01*
X10487358Y-14837031D02*
X10496882Y-14856079D01*
X10496882Y-14856079D02*
X10506405Y-14894174D01*
X10506405Y-14894174D02*
X10506405Y-14941793D01*
X10506405Y-14941793D02*
X10496882Y-14979888D01*
X10496882Y-14979888D02*
X10487358Y-14998936D01*
X10487358Y-14998936D02*
X10477834Y-15008460D01*
X10477834Y-15008460D02*
X10458786Y-15017984D01*
X10458786Y-15017984D02*
X10439739Y-15017984D01*
X10439739Y-15017984D02*
X10420691Y-15008460D01*
X10420691Y-15008460D02*
X10411167Y-14998936D01*
X10411167Y-14998936D02*
X10401644Y-14979888D01*
X10401644Y-14979888D02*
X10392120Y-14941793D01*
X10392120Y-14941793D02*
X10392120Y-14894174D01*
X10392120Y-14894174D02*
X10401644Y-14856079D01*
X10401644Y-14856079D02*
X10411167Y-14837031D01*
X10411167Y-14837031D02*
X10420691Y-14827508D01*
X10420691Y-14827508D02*
X10439739Y-14817984D01*
X10592120Y-15017984D02*
X10592120Y-14884650D01*
X10592120Y-14903698D02*
X10601644Y-14894174D01*
X10601644Y-14894174D02*
X10620691Y-14884650D01*
X10620691Y-14884650D02*
X10649263Y-14884650D01*
X10649263Y-14884650D02*
X10668310Y-14894174D01*
X10668310Y-14894174D02*
X10677834Y-14913222D01*
X10677834Y-14913222D02*
X10677834Y-15017984D01*
X10677834Y-14913222D02*
X10687358Y-14894174D01*
X10687358Y-14894174D02*
X10706405Y-14884650D01*
X10706405Y-14884650D02*
X10734977Y-14884650D01*
X10734977Y-14884650D02*
X10754025Y-14894174D01*
X10754025Y-14894174D02*
X10763548Y-14913222D01*
X10763548Y-14913222D02*
X10763548Y-15017984D01*
X10858786Y-15017984D02*
X10858786Y-14884650D01*
X10858786Y-14903698D02*
X10868310Y-14894174D01*
X10868310Y-14894174D02*
X10887358Y-14884650D01*
X10887358Y-14884650D02*
X10915929Y-14884650D01*
X10915929Y-14884650D02*
X10934977Y-14894174D01*
X10934977Y-14894174D02*
X10944501Y-14913222D01*
X10944501Y-14913222D02*
X10944501Y-15017984D01*
X10944501Y-14913222D02*
X10954025Y-14894174D01*
X10954025Y-14894174D02*
X10973072Y-14884650D01*
X10973072Y-14884650D02*
X11001644Y-14884650D01*
X11001644Y-14884650D02*
X11020691Y-14894174D01*
X11020691Y-14894174D02*
X11030215Y-14913222D01*
X11030215Y-14913222D02*
X11030215Y-15017984D01*
X11420691Y-14808460D02*
X11249263Y-15065603D01*
X11677834Y-14817984D02*
X11696882Y-14817984D01*
X11696882Y-14817984D02*
X11715929Y-14827508D01*
X11715929Y-14827508D02*
X11725453Y-14837031D01*
X11725453Y-14837031D02*
X11734977Y-14856079D01*
X11734977Y-14856079D02*
X11744501Y-14894174D01*
X11744501Y-14894174D02*
X11744501Y-14941793D01*
X11744501Y-14941793D02*
X11734977Y-14979888D01*
X11734977Y-14979888D02*
X11725453Y-14998936D01*
X11725453Y-14998936D02*
X11715929Y-15008460D01*
X11715929Y-15008460D02*
X11696882Y-15017984D01*
X11696882Y-15017984D02*
X11677834Y-15017984D01*
X11677834Y-15017984D02*
X11658786Y-15008460D01*
X11658786Y-15008460D02*
X11649263Y-14998936D01*
X11649263Y-14998936D02*
X11639739Y-14979888D01*
X11639739Y-14979888D02*
X11630215Y-14941793D01*
X11630215Y-14941793D02*
X11630215Y-14894174D01*
X11630215Y-14894174D02*
X11639739Y-14856079D01*
X11639739Y-14856079D02*
X11649263Y-14837031D01*
X11649263Y-14837031D02*
X11658786Y-14827508D01*
X11658786Y-14827508D02*
X11677834Y-14817984D01*
X11830215Y-14998936D02*
X11839739Y-15008460D01*
X11839739Y-15008460D02*
X11830215Y-15017984D01*
X11830215Y-15017984D02*
X11820691Y-15008460D01*
X11820691Y-15008460D02*
X11830215Y-14998936D01*
X11830215Y-14998936D02*
X11830215Y-15017984D01*
X11963548Y-14817984D02*
X11982596Y-14817984D01*
X11982596Y-14817984D02*
X12001644Y-14827508D01*
X12001644Y-14827508D02*
X12011167Y-14837031D01*
X12011167Y-14837031D02*
X12020691Y-14856079D01*
X12020691Y-14856079D02*
X12030215Y-14894174D01*
X12030215Y-14894174D02*
X12030215Y-14941793D01*
X12030215Y-14941793D02*
X12020691Y-14979888D01*
X12020691Y-14979888D02*
X12011167Y-14998936D01*
X12011167Y-14998936D02*
X12001644Y-15008460D01*
X12001644Y-15008460D02*
X11982596Y-15017984D01*
X11982596Y-15017984D02*
X11963548Y-15017984D01*
X11963548Y-15017984D02*
X11944501Y-15008460D01*
X11944501Y-15008460D02*
X11934977Y-14998936D01*
X11934977Y-14998936D02*
X11925453Y-14979888D01*
X11925453Y-14979888D02*
X11915929Y-14941793D01*
X11915929Y-14941793D02*
X11915929Y-14894174D01*
X11915929Y-14894174D02*
X11925453Y-14856079D01*
X11925453Y-14856079D02*
X11934977Y-14837031D01*
X11934977Y-14837031D02*
X11944501Y-14827508D01*
X11944501Y-14827508D02*
X11963548Y-14817984D01*
X12096882Y-14817984D02*
X12220691Y-14817984D01*
X12220691Y-14817984D02*
X12154025Y-14894174D01*
X12154025Y-14894174D02*
X12182596Y-14894174D01*
X12182596Y-14894174D02*
X12201644Y-14903698D01*
X12201644Y-14903698D02*
X12211167Y-14913222D01*
X12211167Y-14913222D02*
X12220691Y-14932269D01*
X12220691Y-14932269D02*
X12220691Y-14979888D01*
X12220691Y-14979888D02*
X12211167Y-14998936D01*
X12211167Y-14998936D02*
X12201644Y-15008460D01*
X12201644Y-15008460D02*
X12182596Y-15017984D01*
X12182596Y-15017984D02*
X12125453Y-15017984D01*
X12125453Y-15017984D02*
X12106406Y-15008460D01*
X12106406Y-15008460D02*
X12096882Y-14998936D01*
X12315929Y-15017984D02*
X12354025Y-15017984D01*
X12354025Y-15017984D02*
X12373072Y-15008460D01*
X12373072Y-15008460D02*
X12382596Y-14998936D01*
X12382596Y-14998936D02*
X12401644Y-14970365D01*
X12401644Y-14970365D02*
X12411167Y-14932269D01*
X12411167Y-14932269D02*
X12411167Y-14856079D01*
X12411167Y-14856079D02*
X12401644Y-14837031D01*
X12401644Y-14837031D02*
X12392120Y-14827508D01*
X12392120Y-14827508D02*
X12373072Y-14817984D01*
X12373072Y-14817984D02*
X12334977Y-14817984D01*
X12334977Y-14817984D02*
X12315929Y-14827508D01*
X12315929Y-14827508D02*
X12306406Y-14837031D01*
X12306406Y-14837031D02*
X12296882Y-14856079D01*
X12296882Y-14856079D02*
X12296882Y-14903698D01*
X12296882Y-14903698D02*
X12306406Y-14922746D01*
X12306406Y-14922746D02*
X12315929Y-14932269D01*
X12315929Y-14932269D02*
X12334977Y-14941793D01*
X12334977Y-14941793D02*
X12373072Y-14941793D01*
X12373072Y-14941793D02*
X12392120Y-14932269D01*
X12392120Y-14932269D02*
X12401644Y-14922746D01*
X12401644Y-14922746D02*
X12411167Y-14903698D01*
X12582596Y-14884650D02*
X12582596Y-15017984D01*
X12534977Y-14808460D02*
X12487358Y-14951317D01*
X12487358Y-14951317D02*
X12611167Y-14951317D01*
X12677834Y-14817984D02*
X12677834Y-14856079D01*
X12754025Y-14817984D02*
X12754025Y-14856079D01*
X13049263Y-15094174D02*
X13039739Y-15084650D01*
X13039739Y-15084650D02*
X13020691Y-15056079D01*
X13020691Y-15056079D02*
X13011168Y-15037031D01*
X13011168Y-15037031D02*
X13001644Y-15008460D01*
X13001644Y-15008460D02*
X12992120Y-14960841D01*
X12992120Y-14960841D02*
X12992120Y-14922746D01*
X12992120Y-14922746D02*
X13001644Y-14875127D01*
X13001644Y-14875127D02*
X13011168Y-14846555D01*
X13011168Y-14846555D02*
X13020691Y-14827508D01*
X13020691Y-14827508D02*
X13039739Y-14798936D01*
X13039739Y-14798936D02*
X13049263Y-14789412D01*
X13230215Y-15017984D02*
X13115929Y-15017984D01*
X13173072Y-15017984D02*
X13173072Y-14817984D01*
X13173072Y-14817984D02*
X13154025Y-14846555D01*
X13154025Y-14846555D02*
X13134977Y-14865603D01*
X13134977Y-14865603D02*
X13115929Y-14875127D01*
X13296882Y-14817984D02*
X13420691Y-14817984D01*
X13420691Y-14817984D02*
X13354025Y-14894174D01*
X13354025Y-14894174D02*
X13382596Y-14894174D01*
X13382596Y-14894174D02*
X13401644Y-14903698D01*
X13401644Y-14903698D02*
X13411168Y-14913222D01*
X13411168Y-14913222D02*
X13420691Y-14932269D01*
X13420691Y-14932269D02*
X13420691Y-14979888D01*
X13420691Y-14979888D02*
X13411168Y-14998936D01*
X13411168Y-14998936D02*
X13401644Y-15008460D01*
X13401644Y-15008460D02*
X13382596Y-15017984D01*
X13382596Y-15017984D02*
X13325453Y-15017984D01*
X13325453Y-15017984D02*
X13306406Y-15008460D01*
X13306406Y-15008460D02*
X13296882Y-14998936D01*
X13487358Y-14817984D02*
X13611168Y-14817984D01*
X13611168Y-14817984D02*
X13544501Y-14894174D01*
X13544501Y-14894174D02*
X13573072Y-14894174D01*
X13573072Y-14894174D02*
X13592120Y-14903698D01*
X13592120Y-14903698D02*
X13601644Y-14913222D01*
X13601644Y-14913222D02*
X13611168Y-14932269D01*
X13611168Y-14932269D02*
X13611168Y-14979888D01*
X13611168Y-14979888D02*
X13601644Y-14998936D01*
X13601644Y-14998936D02*
X13592120Y-15008460D01*
X13592120Y-15008460D02*
X13573072Y-15017984D01*
X13573072Y-15017984D02*
X13515929Y-15017984D01*
X13515929Y-15017984D02*
X13496882Y-15008460D01*
X13496882Y-15008460D02*
X13487358Y-14998936D01*
X13849263Y-15017984D02*
X13849263Y-14817984D01*
X13934977Y-15017984D02*
X13934977Y-14913222D01*
X13934977Y-14913222D02*
X13925453Y-14894174D01*
X13925453Y-14894174D02*
X13906406Y-14884650D01*
X13906406Y-14884650D02*
X13877834Y-14884650D01*
X13877834Y-14884650D02*
X13858787Y-14894174D01*
X13858787Y-14894174D02*
X13849263Y-14903698D01*
X14058787Y-15017984D02*
X14039739Y-15008460D01*
X14039739Y-15008460D02*
X14030215Y-14998936D01*
X14030215Y-14998936D02*
X14020691Y-14979888D01*
X14020691Y-14979888D02*
X14020691Y-14922746D01*
X14020691Y-14922746D02*
X14030215Y-14903698D01*
X14030215Y-14903698D02*
X14039739Y-14894174D01*
X14039739Y-14894174D02*
X14058787Y-14884650D01*
X14058787Y-14884650D02*
X14087358Y-14884650D01*
X14087358Y-14884650D02*
X14106406Y-14894174D01*
X14106406Y-14894174D02*
X14115930Y-14903698D01*
X14115930Y-14903698D02*
X14125453Y-14922746D01*
X14125453Y-14922746D02*
X14125453Y-14979888D01*
X14125453Y-14979888D02*
X14115930Y-14998936D01*
X14115930Y-14998936D02*
X14106406Y-15008460D01*
X14106406Y-15008460D02*
X14087358Y-15017984D01*
X14087358Y-15017984D02*
X14058787Y-15017984D01*
X14239739Y-15017984D02*
X14220691Y-15008460D01*
X14220691Y-15008460D02*
X14211168Y-14989412D01*
X14211168Y-14989412D02*
X14211168Y-14817984D01*
X14392120Y-15008460D02*
X14373072Y-15017984D01*
X14373072Y-15017984D02*
X14334977Y-15017984D01*
X14334977Y-15017984D02*
X14315930Y-15008460D01*
X14315930Y-15008460D02*
X14306406Y-14989412D01*
X14306406Y-14989412D02*
X14306406Y-14913222D01*
X14306406Y-14913222D02*
X14315930Y-14894174D01*
X14315930Y-14894174D02*
X14334977Y-14884650D01*
X14334977Y-14884650D02*
X14373072Y-14884650D01*
X14373072Y-14884650D02*
X14392120Y-14894174D01*
X14392120Y-14894174D02*
X14401644Y-14913222D01*
X14401644Y-14913222D02*
X14401644Y-14932269D01*
X14401644Y-14932269D02*
X14306406Y-14951317D01*
X14477834Y-15008460D02*
X14496882Y-15017984D01*
X14496882Y-15017984D02*
X14534977Y-15017984D01*
X14534977Y-15017984D02*
X14554025Y-15008460D01*
X14554025Y-15008460D02*
X14563549Y-14989412D01*
X14563549Y-14989412D02*
X14563549Y-14979888D01*
X14563549Y-14979888D02*
X14554025Y-14960841D01*
X14554025Y-14960841D02*
X14534977Y-14951317D01*
X14534977Y-14951317D02*
X14506406Y-14951317D01*
X14506406Y-14951317D02*
X14487358Y-14941793D01*
X14487358Y-14941793D02*
X14477834Y-14922746D01*
X14477834Y-14922746D02*
X14477834Y-14913222D01*
X14477834Y-14913222D02*
X14487358Y-14894174D01*
X14487358Y-14894174D02*
X14506406Y-14884650D01*
X14506406Y-14884650D02*
X14534977Y-14884650D01*
X14534977Y-14884650D02*
X14554025Y-14894174D01*
X14630215Y-15094174D02*
X14639739Y-15084650D01*
X14639739Y-15084650D02*
X14658787Y-15056079D01*
X14658787Y-15056079D02*
X14668311Y-15037031D01*
X14668311Y-15037031D02*
X14677834Y-15008460D01*
X14677834Y-15008460D02*
X14687358Y-14960841D01*
X14687358Y-14960841D02*
X14687358Y-14922746D01*
X14687358Y-14922746D02*
X14677834Y-14875127D01*
X14677834Y-14875127D02*
X14668311Y-14846555D01*
X14668311Y-14846555D02*
X14658787Y-14827508D01*
X14658787Y-14827508D02*
X14639739Y-14798936D01*
X14639739Y-14798936D02*
X14630215Y-14789412D01*
D13*
X9364200Y-15135500D02*
X9474200Y-15245500D01*
X9474200Y-15135500D02*
X9364200Y-15245500D01*
X9458091Y-15229391D02*
X9458091Y-15151609D01*
X9380309Y-15151609D01*
X9380309Y-15229391D01*
X9458091Y-15229391D01*
D11*
X9839739Y-15281984D02*
X9725453Y-15281984D01*
X9782596Y-15281984D02*
X9782596Y-15081984D01*
X9782596Y-15081984D02*
X9763548Y-15110555D01*
X9763548Y-15110555D02*
X9744501Y-15129603D01*
X9744501Y-15129603D02*
X9725453Y-15139127D01*
X9925453Y-15262936D02*
X9934977Y-15272460D01*
X9934977Y-15272460D02*
X9925453Y-15281984D01*
X9925453Y-15281984D02*
X9915929Y-15272460D01*
X9915929Y-15272460D02*
X9925453Y-15262936D01*
X9925453Y-15262936D02*
X9925453Y-15281984D01*
X10125453Y-15281984D02*
X10011167Y-15281984D01*
X10068310Y-15281984D02*
X10068310Y-15081984D01*
X10068310Y-15081984D02*
X10049263Y-15110555D01*
X10049263Y-15110555D02*
X10030215Y-15129603D01*
X10030215Y-15129603D02*
X10011167Y-15139127D01*
X10249263Y-15081984D02*
X10268310Y-15081984D01*
X10268310Y-15081984D02*
X10287358Y-15091508D01*
X10287358Y-15091508D02*
X10296882Y-15101031D01*
X10296882Y-15101031D02*
X10306405Y-15120079D01*
X10306405Y-15120079D02*
X10315929Y-15158174D01*
X10315929Y-15158174D02*
X10315929Y-15205793D01*
X10315929Y-15205793D02*
X10306405Y-15243888D01*
X10306405Y-15243888D02*
X10296882Y-15262936D01*
X10296882Y-15262936D02*
X10287358Y-15272460D01*
X10287358Y-15272460D02*
X10268310Y-15281984D01*
X10268310Y-15281984D02*
X10249263Y-15281984D01*
X10249263Y-15281984D02*
X10230215Y-15272460D01*
X10230215Y-15272460D02*
X10220691Y-15262936D01*
X10220691Y-15262936D02*
X10211167Y-15243888D01*
X10211167Y-15243888D02*
X10201644Y-15205793D01*
X10201644Y-15205793D02*
X10201644Y-15158174D01*
X10201644Y-15158174D02*
X10211167Y-15120079D01*
X10211167Y-15120079D02*
X10220691Y-15101031D01*
X10220691Y-15101031D02*
X10230215Y-15091508D01*
X10230215Y-15091508D02*
X10249263Y-15081984D01*
X10439739Y-15081984D02*
X10458786Y-15081984D01*
X10458786Y-15081984D02*
X10477834Y-15091508D01*
X10477834Y-15091508D02*
X10487358Y-15101031D01*
X10487358Y-15101031D02*
X10496882Y-15120079D01*
X10496882Y-15120079D02*
X10506405Y-15158174D01*
X10506405Y-15158174D02*
X10506405Y-15205793D01*
X10506405Y-15205793D02*
X10496882Y-15243888D01*
X10496882Y-15243888D02*
X10487358Y-15262936D01*
X10487358Y-15262936D02*
X10477834Y-15272460D01*
X10477834Y-15272460D02*
X10458786Y-15281984D01*
X10458786Y-15281984D02*
X10439739Y-15281984D01*
X10439739Y-15281984D02*
X10420691Y-15272460D01*
X10420691Y-15272460D02*
X10411167Y-15262936D01*
X10411167Y-15262936D02*
X10401644Y-15243888D01*
X10401644Y-15243888D02*
X10392120Y-15205793D01*
X10392120Y-15205793D02*
X10392120Y-15158174D01*
X10392120Y-15158174D02*
X10401644Y-15120079D01*
X10401644Y-15120079D02*
X10411167Y-15101031D01*
X10411167Y-15101031D02*
X10420691Y-15091508D01*
X10420691Y-15091508D02*
X10439739Y-15081984D01*
X10592120Y-15281984D02*
X10592120Y-15148650D01*
X10592120Y-15167698D02*
X10601644Y-15158174D01*
X10601644Y-15158174D02*
X10620691Y-15148650D01*
X10620691Y-15148650D02*
X10649263Y-15148650D01*
X10649263Y-15148650D02*
X10668310Y-15158174D01*
X10668310Y-15158174D02*
X10677834Y-15177222D01*
X10677834Y-15177222D02*
X10677834Y-15281984D01*
X10677834Y-15177222D02*
X10687358Y-15158174D01*
X10687358Y-15158174D02*
X10706405Y-15148650D01*
X10706405Y-15148650D02*
X10734977Y-15148650D01*
X10734977Y-15148650D02*
X10754025Y-15158174D01*
X10754025Y-15158174D02*
X10763548Y-15177222D01*
X10763548Y-15177222D02*
X10763548Y-15281984D01*
X10858786Y-15281984D02*
X10858786Y-15148650D01*
X10858786Y-15167698D02*
X10868310Y-15158174D01*
X10868310Y-15158174D02*
X10887358Y-15148650D01*
X10887358Y-15148650D02*
X10915929Y-15148650D01*
X10915929Y-15148650D02*
X10934977Y-15158174D01*
X10934977Y-15158174D02*
X10944501Y-15177222D01*
X10944501Y-15177222D02*
X10944501Y-15281984D01*
X10944501Y-15177222D02*
X10954025Y-15158174D01*
X10954025Y-15158174D02*
X10973072Y-15148650D01*
X10973072Y-15148650D02*
X11001644Y-15148650D01*
X11001644Y-15148650D02*
X11020691Y-15158174D01*
X11020691Y-15158174D02*
X11030215Y-15177222D01*
X11030215Y-15177222D02*
X11030215Y-15281984D01*
X11420691Y-15072460D02*
X11249263Y-15329603D01*
X11677834Y-15081984D02*
X11696882Y-15081984D01*
X11696882Y-15081984D02*
X11715929Y-15091508D01*
X11715929Y-15091508D02*
X11725453Y-15101031D01*
X11725453Y-15101031D02*
X11734977Y-15120079D01*
X11734977Y-15120079D02*
X11744501Y-15158174D01*
X11744501Y-15158174D02*
X11744501Y-15205793D01*
X11744501Y-15205793D02*
X11734977Y-15243888D01*
X11734977Y-15243888D02*
X11725453Y-15262936D01*
X11725453Y-15262936D02*
X11715929Y-15272460D01*
X11715929Y-15272460D02*
X11696882Y-15281984D01*
X11696882Y-15281984D02*
X11677834Y-15281984D01*
X11677834Y-15281984D02*
X11658786Y-15272460D01*
X11658786Y-15272460D02*
X11649263Y-15262936D01*
X11649263Y-15262936D02*
X11639739Y-15243888D01*
X11639739Y-15243888D02*
X11630215Y-15205793D01*
X11630215Y-15205793D02*
X11630215Y-15158174D01*
X11630215Y-15158174D02*
X11639739Y-15120079D01*
X11639739Y-15120079D02*
X11649263Y-15101031D01*
X11649263Y-15101031D02*
X11658786Y-15091508D01*
X11658786Y-15091508D02*
X11677834Y-15081984D01*
X11830215Y-15262936D02*
X11839739Y-15272460D01*
X11839739Y-15272460D02*
X11830215Y-15281984D01*
X11830215Y-15281984D02*
X11820691Y-15272460D01*
X11820691Y-15272460D02*
X11830215Y-15262936D01*
X11830215Y-15262936D02*
X11830215Y-15281984D01*
X11963548Y-15081984D02*
X11982596Y-15081984D01*
X11982596Y-15081984D02*
X12001644Y-15091508D01*
X12001644Y-15091508D02*
X12011167Y-15101031D01*
X12011167Y-15101031D02*
X12020691Y-15120079D01*
X12020691Y-15120079D02*
X12030215Y-15158174D01*
X12030215Y-15158174D02*
X12030215Y-15205793D01*
X12030215Y-15205793D02*
X12020691Y-15243888D01*
X12020691Y-15243888D02*
X12011167Y-15262936D01*
X12011167Y-15262936D02*
X12001644Y-15272460D01*
X12001644Y-15272460D02*
X11982596Y-15281984D01*
X11982596Y-15281984D02*
X11963548Y-15281984D01*
X11963548Y-15281984D02*
X11944501Y-15272460D01*
X11944501Y-15272460D02*
X11934977Y-15262936D01*
X11934977Y-15262936D02*
X11925453Y-15243888D01*
X11925453Y-15243888D02*
X11915929Y-15205793D01*
X11915929Y-15205793D02*
X11915929Y-15158174D01*
X11915929Y-15158174D02*
X11925453Y-15120079D01*
X11925453Y-15120079D02*
X11934977Y-15101031D01*
X11934977Y-15101031D02*
X11944501Y-15091508D01*
X11944501Y-15091508D02*
X11963548Y-15081984D01*
X12201644Y-15148650D02*
X12201644Y-15281984D01*
X12154025Y-15072460D02*
X12106406Y-15215317D01*
X12106406Y-15215317D02*
X12230215Y-15215317D01*
X12287358Y-15081984D02*
X12411167Y-15081984D01*
X12411167Y-15081984D02*
X12344501Y-15158174D01*
X12344501Y-15158174D02*
X12373072Y-15158174D01*
X12373072Y-15158174D02*
X12392120Y-15167698D01*
X12392120Y-15167698D02*
X12401644Y-15177222D01*
X12401644Y-15177222D02*
X12411167Y-15196269D01*
X12411167Y-15196269D02*
X12411167Y-15243888D01*
X12411167Y-15243888D02*
X12401644Y-15262936D01*
X12401644Y-15262936D02*
X12392120Y-15272460D01*
X12392120Y-15272460D02*
X12373072Y-15281984D01*
X12373072Y-15281984D02*
X12315929Y-15281984D01*
X12315929Y-15281984D02*
X12296882Y-15272460D01*
X12296882Y-15272460D02*
X12287358Y-15262936D01*
X12477834Y-15081984D02*
X12601644Y-15081984D01*
X12601644Y-15081984D02*
X12534977Y-15158174D01*
X12534977Y-15158174D02*
X12563548Y-15158174D01*
X12563548Y-15158174D02*
X12582596Y-15167698D01*
X12582596Y-15167698D02*
X12592120Y-15177222D01*
X12592120Y-15177222D02*
X12601644Y-15196269D01*
X12601644Y-15196269D02*
X12601644Y-15243888D01*
X12601644Y-15243888D02*
X12592120Y-15262936D01*
X12592120Y-15262936D02*
X12582596Y-15272460D01*
X12582596Y-15272460D02*
X12563548Y-15281984D01*
X12563548Y-15281984D02*
X12506406Y-15281984D01*
X12506406Y-15281984D02*
X12487358Y-15272460D01*
X12487358Y-15272460D02*
X12477834Y-15262936D01*
X12677834Y-15081984D02*
X12677834Y-15120079D01*
X12754025Y-15081984D02*
X12754025Y-15120079D01*
X13049263Y-15358174D02*
X13039739Y-15348650D01*
X13039739Y-15348650D02*
X13020691Y-15320079D01*
X13020691Y-15320079D02*
X13011168Y-15301031D01*
X13011168Y-15301031D02*
X13001644Y-15272460D01*
X13001644Y-15272460D02*
X12992120Y-15224841D01*
X12992120Y-15224841D02*
X12992120Y-15186746D01*
X12992120Y-15186746D02*
X13001644Y-15139127D01*
X13001644Y-15139127D02*
X13011168Y-15110555D01*
X13011168Y-15110555D02*
X13020691Y-15091508D01*
X13020691Y-15091508D02*
X13039739Y-15062936D01*
X13039739Y-15062936D02*
X13049263Y-15053412D01*
X13230215Y-15281984D02*
X13115929Y-15281984D01*
X13173072Y-15281984D02*
X13173072Y-15081984D01*
X13173072Y-15081984D02*
X13154025Y-15110555D01*
X13154025Y-15110555D02*
X13134977Y-15129603D01*
X13134977Y-15129603D02*
X13115929Y-15139127D01*
X13306406Y-15101031D02*
X13315929Y-15091508D01*
X13315929Y-15091508D02*
X13334977Y-15081984D01*
X13334977Y-15081984D02*
X13382596Y-15081984D01*
X13382596Y-15081984D02*
X13401644Y-15091508D01*
X13401644Y-15091508D02*
X13411168Y-15101031D01*
X13411168Y-15101031D02*
X13420691Y-15120079D01*
X13420691Y-15120079D02*
X13420691Y-15139127D01*
X13420691Y-15139127D02*
X13411168Y-15167698D01*
X13411168Y-15167698D02*
X13296882Y-15281984D01*
X13296882Y-15281984D02*
X13420691Y-15281984D01*
X13658787Y-15281984D02*
X13658787Y-15081984D01*
X13744501Y-15281984D02*
X13744501Y-15177222D01*
X13744501Y-15177222D02*
X13734977Y-15158174D01*
X13734977Y-15158174D02*
X13715930Y-15148650D01*
X13715930Y-15148650D02*
X13687358Y-15148650D01*
X13687358Y-15148650D02*
X13668310Y-15158174D01*
X13668310Y-15158174D02*
X13658787Y-15167698D01*
X13868310Y-15281984D02*
X13849263Y-15272460D01*
X13849263Y-15272460D02*
X13839739Y-15262936D01*
X13839739Y-15262936D02*
X13830215Y-15243888D01*
X13830215Y-15243888D02*
X13830215Y-15186746D01*
X13830215Y-15186746D02*
X13839739Y-15167698D01*
X13839739Y-15167698D02*
X13849263Y-15158174D01*
X13849263Y-15158174D02*
X13868310Y-15148650D01*
X13868310Y-15148650D02*
X13896882Y-15148650D01*
X13896882Y-15148650D02*
X13915930Y-15158174D01*
X13915930Y-15158174D02*
X13925453Y-15167698D01*
X13925453Y-15167698D02*
X13934977Y-15186746D01*
X13934977Y-15186746D02*
X13934977Y-15243888D01*
X13934977Y-15243888D02*
X13925453Y-15262936D01*
X13925453Y-15262936D02*
X13915930Y-15272460D01*
X13915930Y-15272460D02*
X13896882Y-15281984D01*
X13896882Y-15281984D02*
X13868310Y-15281984D01*
X14049263Y-15281984D02*
X14030215Y-15272460D01*
X14030215Y-15272460D02*
X14020691Y-15253412D01*
X14020691Y-15253412D02*
X14020691Y-15081984D01*
X14201644Y-15272460D02*
X14182596Y-15281984D01*
X14182596Y-15281984D02*
X14144501Y-15281984D01*
X14144501Y-15281984D02*
X14125453Y-15272460D01*
X14125453Y-15272460D02*
X14115930Y-15253412D01*
X14115930Y-15253412D02*
X14115930Y-15177222D01*
X14115930Y-15177222D02*
X14125453Y-15158174D01*
X14125453Y-15158174D02*
X14144501Y-15148650D01*
X14144501Y-15148650D02*
X14182596Y-15148650D01*
X14182596Y-15148650D02*
X14201644Y-15158174D01*
X14201644Y-15158174D02*
X14211168Y-15177222D01*
X14211168Y-15177222D02*
X14211168Y-15196269D01*
X14211168Y-15196269D02*
X14115930Y-15215317D01*
X14287358Y-15272460D02*
X14306406Y-15281984D01*
X14306406Y-15281984D02*
X14344501Y-15281984D01*
X14344501Y-15281984D02*
X14363549Y-15272460D01*
X14363549Y-15272460D02*
X14373072Y-15253412D01*
X14373072Y-15253412D02*
X14373072Y-15243888D01*
X14373072Y-15243888D02*
X14363549Y-15224841D01*
X14363549Y-15224841D02*
X14344501Y-15215317D01*
X14344501Y-15215317D02*
X14315930Y-15215317D01*
X14315930Y-15215317D02*
X14296882Y-15205793D01*
X14296882Y-15205793D02*
X14287358Y-15186746D01*
X14287358Y-15186746D02*
X14287358Y-15177222D01*
X14287358Y-15177222D02*
X14296882Y-15158174D01*
X14296882Y-15158174D02*
X14315930Y-15148650D01*
X14315930Y-15148650D02*
X14344501Y-15148650D01*
X14344501Y-15148650D02*
X14363549Y-15158174D01*
X14439739Y-15358174D02*
X14449263Y-15348650D01*
X14449263Y-15348650D02*
X14468311Y-15320079D01*
X14468311Y-15320079D02*
X14477834Y-15301031D01*
X14477834Y-15301031D02*
X14487358Y-15272460D01*
X14487358Y-15272460D02*
X14496882Y-15224841D01*
X14496882Y-15224841D02*
X14496882Y-15186746D01*
X14496882Y-15186746D02*
X14487358Y-15139127D01*
X14487358Y-15139127D02*
X14477834Y-15110555D01*
X14477834Y-15110555D02*
X14468311Y-15091508D01*
X14468311Y-15091508D02*
X14449263Y-15062936D01*
X14449263Y-15062936D02*
X14439739Y-15053412D01*
X9274200Y-15354500D02*
X9474200Y-15554500D01*
X9474200Y-15354500D02*
X9274200Y-15554500D01*
X9374200Y-15554500D02*
X9474200Y-15454500D01*
X9374200Y-15354500D01*
X9274200Y-15454500D01*
X9374200Y-15554500D01*
X9820691Y-15412650D02*
X9820691Y-15545984D01*
X9773072Y-15336460D02*
X9725453Y-15479317D01*
X9725453Y-15479317D02*
X9849263Y-15479317D01*
X9925453Y-15526936D02*
X9934977Y-15536460D01*
X9934977Y-15536460D02*
X9925453Y-15545984D01*
X9925453Y-15545984D02*
X9915929Y-15536460D01*
X9915929Y-15536460D02*
X9925453Y-15526936D01*
X9925453Y-15526936D02*
X9925453Y-15545984D01*
X10001644Y-15345984D02*
X10125453Y-15345984D01*
X10125453Y-15345984D02*
X10058786Y-15422174D01*
X10058786Y-15422174D02*
X10087358Y-15422174D01*
X10087358Y-15422174D02*
X10106405Y-15431698D01*
X10106405Y-15431698D02*
X10115929Y-15441222D01*
X10115929Y-15441222D02*
X10125453Y-15460269D01*
X10125453Y-15460269D02*
X10125453Y-15507888D01*
X10125453Y-15507888D02*
X10115929Y-15526936D01*
X10115929Y-15526936D02*
X10106405Y-15536460D01*
X10106405Y-15536460D02*
X10087358Y-15545984D01*
X10087358Y-15545984D02*
X10030215Y-15545984D01*
X10030215Y-15545984D02*
X10011167Y-15536460D01*
X10011167Y-15536460D02*
X10001644Y-15526936D01*
X10249263Y-15345984D02*
X10268310Y-15345984D01*
X10268310Y-15345984D02*
X10287358Y-15355508D01*
X10287358Y-15355508D02*
X10296882Y-15365031D01*
X10296882Y-15365031D02*
X10306405Y-15384079D01*
X10306405Y-15384079D02*
X10315929Y-15422174D01*
X10315929Y-15422174D02*
X10315929Y-15469793D01*
X10315929Y-15469793D02*
X10306405Y-15507888D01*
X10306405Y-15507888D02*
X10296882Y-15526936D01*
X10296882Y-15526936D02*
X10287358Y-15536460D01*
X10287358Y-15536460D02*
X10268310Y-15545984D01*
X10268310Y-15545984D02*
X10249263Y-15545984D01*
X10249263Y-15545984D02*
X10230215Y-15536460D01*
X10230215Y-15536460D02*
X10220691Y-15526936D01*
X10220691Y-15526936D02*
X10211167Y-15507888D01*
X10211167Y-15507888D02*
X10201644Y-15469793D01*
X10201644Y-15469793D02*
X10201644Y-15422174D01*
X10201644Y-15422174D02*
X10211167Y-15384079D01*
X10211167Y-15384079D02*
X10220691Y-15365031D01*
X10220691Y-15365031D02*
X10230215Y-15355508D01*
X10230215Y-15355508D02*
X10249263Y-15345984D01*
X10439739Y-15345984D02*
X10458786Y-15345984D01*
X10458786Y-15345984D02*
X10477834Y-15355508D01*
X10477834Y-15355508D02*
X10487358Y-15365031D01*
X10487358Y-15365031D02*
X10496882Y-15384079D01*
X10496882Y-15384079D02*
X10506405Y-15422174D01*
X10506405Y-15422174D02*
X10506405Y-15469793D01*
X10506405Y-15469793D02*
X10496882Y-15507888D01*
X10496882Y-15507888D02*
X10487358Y-15526936D01*
X10487358Y-15526936D02*
X10477834Y-15536460D01*
X10477834Y-15536460D02*
X10458786Y-15545984D01*
X10458786Y-15545984D02*
X10439739Y-15545984D01*
X10439739Y-15545984D02*
X10420691Y-15536460D01*
X10420691Y-15536460D02*
X10411167Y-15526936D01*
X10411167Y-15526936D02*
X10401644Y-15507888D01*
X10401644Y-15507888D02*
X10392120Y-15469793D01*
X10392120Y-15469793D02*
X10392120Y-15422174D01*
X10392120Y-15422174D02*
X10401644Y-15384079D01*
X10401644Y-15384079D02*
X10411167Y-15365031D01*
X10411167Y-15365031D02*
X10420691Y-15355508D01*
X10420691Y-15355508D02*
X10439739Y-15345984D01*
X10592120Y-15545984D02*
X10592120Y-15412650D01*
X10592120Y-15431698D02*
X10601644Y-15422174D01*
X10601644Y-15422174D02*
X10620691Y-15412650D01*
X10620691Y-15412650D02*
X10649263Y-15412650D01*
X10649263Y-15412650D02*
X10668310Y-15422174D01*
X10668310Y-15422174D02*
X10677834Y-15441222D01*
X10677834Y-15441222D02*
X10677834Y-15545984D01*
X10677834Y-15441222D02*
X10687358Y-15422174D01*
X10687358Y-15422174D02*
X10706405Y-15412650D01*
X10706405Y-15412650D02*
X10734977Y-15412650D01*
X10734977Y-15412650D02*
X10754025Y-15422174D01*
X10754025Y-15422174D02*
X10763548Y-15441222D01*
X10763548Y-15441222D02*
X10763548Y-15545984D01*
X10858786Y-15545984D02*
X10858786Y-15412650D01*
X10858786Y-15431698D02*
X10868310Y-15422174D01*
X10868310Y-15422174D02*
X10887358Y-15412650D01*
X10887358Y-15412650D02*
X10915929Y-15412650D01*
X10915929Y-15412650D02*
X10934977Y-15422174D01*
X10934977Y-15422174D02*
X10944501Y-15441222D01*
X10944501Y-15441222D02*
X10944501Y-15545984D01*
X10944501Y-15441222D02*
X10954025Y-15422174D01*
X10954025Y-15422174D02*
X10973072Y-15412650D01*
X10973072Y-15412650D02*
X11001644Y-15412650D01*
X11001644Y-15412650D02*
X11020691Y-15422174D01*
X11020691Y-15422174D02*
X11030215Y-15441222D01*
X11030215Y-15441222D02*
X11030215Y-15545984D01*
X11420691Y-15336460D02*
X11249263Y-15593603D01*
X11677834Y-15345984D02*
X11696882Y-15345984D01*
X11696882Y-15345984D02*
X11715929Y-15355508D01*
X11715929Y-15355508D02*
X11725453Y-15365031D01*
X11725453Y-15365031D02*
X11734977Y-15384079D01*
X11734977Y-15384079D02*
X11744501Y-15422174D01*
X11744501Y-15422174D02*
X11744501Y-15469793D01*
X11744501Y-15469793D02*
X11734977Y-15507888D01*
X11734977Y-15507888D02*
X11725453Y-15526936D01*
X11725453Y-15526936D02*
X11715929Y-15536460D01*
X11715929Y-15536460D02*
X11696882Y-15545984D01*
X11696882Y-15545984D02*
X11677834Y-15545984D01*
X11677834Y-15545984D02*
X11658786Y-15536460D01*
X11658786Y-15536460D02*
X11649263Y-15526936D01*
X11649263Y-15526936D02*
X11639739Y-15507888D01*
X11639739Y-15507888D02*
X11630215Y-15469793D01*
X11630215Y-15469793D02*
X11630215Y-15422174D01*
X11630215Y-15422174D02*
X11639739Y-15384079D01*
X11639739Y-15384079D02*
X11649263Y-15365031D01*
X11649263Y-15365031D02*
X11658786Y-15355508D01*
X11658786Y-15355508D02*
X11677834Y-15345984D01*
X11830215Y-15526936D02*
X11839739Y-15536460D01*
X11839739Y-15536460D02*
X11830215Y-15545984D01*
X11830215Y-15545984D02*
X11820691Y-15536460D01*
X11820691Y-15536460D02*
X11830215Y-15526936D01*
X11830215Y-15526936D02*
X11830215Y-15545984D01*
X12030215Y-15545984D02*
X11915929Y-15545984D01*
X11973072Y-15545984D02*
X11973072Y-15345984D01*
X11973072Y-15345984D02*
X11954025Y-15374555D01*
X11954025Y-15374555D02*
X11934977Y-15393603D01*
X11934977Y-15393603D02*
X11915929Y-15403127D01*
X12201644Y-15345984D02*
X12163548Y-15345984D01*
X12163548Y-15345984D02*
X12144501Y-15355508D01*
X12144501Y-15355508D02*
X12134977Y-15365031D01*
X12134977Y-15365031D02*
X12115929Y-15393603D01*
X12115929Y-15393603D02*
X12106406Y-15431698D01*
X12106406Y-15431698D02*
X12106406Y-15507888D01*
X12106406Y-15507888D02*
X12115929Y-15526936D01*
X12115929Y-15526936D02*
X12125453Y-15536460D01*
X12125453Y-15536460D02*
X12144501Y-15545984D01*
X12144501Y-15545984D02*
X12182596Y-15545984D01*
X12182596Y-15545984D02*
X12201644Y-15536460D01*
X12201644Y-15536460D02*
X12211167Y-15526936D01*
X12211167Y-15526936D02*
X12220691Y-15507888D01*
X12220691Y-15507888D02*
X12220691Y-15460269D01*
X12220691Y-15460269D02*
X12211167Y-15441222D01*
X12211167Y-15441222D02*
X12201644Y-15431698D01*
X12201644Y-15431698D02*
X12182596Y-15422174D01*
X12182596Y-15422174D02*
X12144501Y-15422174D01*
X12144501Y-15422174D02*
X12125453Y-15431698D01*
X12125453Y-15431698D02*
X12115929Y-15441222D01*
X12115929Y-15441222D02*
X12106406Y-15460269D01*
X12315929Y-15545984D02*
X12354025Y-15545984D01*
X12354025Y-15545984D02*
X12373072Y-15536460D01*
X12373072Y-15536460D02*
X12382596Y-15526936D01*
X12382596Y-15526936D02*
X12401644Y-15498365D01*
X12401644Y-15498365D02*
X12411167Y-15460269D01*
X12411167Y-15460269D02*
X12411167Y-15384079D01*
X12411167Y-15384079D02*
X12401644Y-15365031D01*
X12401644Y-15365031D02*
X12392120Y-15355508D01*
X12392120Y-15355508D02*
X12373072Y-15345984D01*
X12373072Y-15345984D02*
X12334977Y-15345984D01*
X12334977Y-15345984D02*
X12315929Y-15355508D01*
X12315929Y-15355508D02*
X12306406Y-15365031D01*
X12306406Y-15365031D02*
X12296882Y-15384079D01*
X12296882Y-15384079D02*
X12296882Y-15431698D01*
X12296882Y-15431698D02*
X12306406Y-15450746D01*
X12306406Y-15450746D02*
X12315929Y-15460269D01*
X12315929Y-15460269D02*
X12334977Y-15469793D01*
X12334977Y-15469793D02*
X12373072Y-15469793D01*
X12373072Y-15469793D02*
X12392120Y-15460269D01*
X12392120Y-15460269D02*
X12401644Y-15450746D01*
X12401644Y-15450746D02*
X12411167Y-15431698D01*
X12477834Y-15345984D02*
X12601644Y-15345984D01*
X12601644Y-15345984D02*
X12534977Y-15422174D01*
X12534977Y-15422174D02*
X12563548Y-15422174D01*
X12563548Y-15422174D02*
X12582596Y-15431698D01*
X12582596Y-15431698D02*
X12592120Y-15441222D01*
X12592120Y-15441222D02*
X12601644Y-15460269D01*
X12601644Y-15460269D02*
X12601644Y-15507888D01*
X12601644Y-15507888D02*
X12592120Y-15526936D01*
X12592120Y-15526936D02*
X12582596Y-15536460D01*
X12582596Y-15536460D02*
X12563548Y-15545984D01*
X12563548Y-15545984D02*
X12506406Y-15545984D01*
X12506406Y-15545984D02*
X12487358Y-15536460D01*
X12487358Y-15536460D02*
X12477834Y-15526936D01*
X12677834Y-15345984D02*
X12677834Y-15384079D01*
X12754025Y-15345984D02*
X12754025Y-15384079D01*
X13049263Y-15622174D02*
X13039739Y-15612650D01*
X13039739Y-15612650D02*
X13020691Y-15584079D01*
X13020691Y-15584079D02*
X13011168Y-15565031D01*
X13011168Y-15565031D02*
X13001644Y-15536460D01*
X13001644Y-15536460D02*
X12992120Y-15488841D01*
X12992120Y-15488841D02*
X12992120Y-15450746D01*
X12992120Y-15450746D02*
X13001644Y-15403127D01*
X13001644Y-15403127D02*
X13011168Y-15374555D01*
X13011168Y-15374555D02*
X13020691Y-15355508D01*
X13020691Y-15355508D02*
X13039739Y-15326936D01*
X13039739Y-15326936D02*
X13049263Y-15317412D01*
X13220691Y-15345984D02*
X13125453Y-15345984D01*
X13125453Y-15345984D02*
X13115929Y-15441222D01*
X13115929Y-15441222D02*
X13125453Y-15431698D01*
X13125453Y-15431698D02*
X13144501Y-15422174D01*
X13144501Y-15422174D02*
X13192120Y-15422174D01*
X13192120Y-15422174D02*
X13211168Y-15431698D01*
X13211168Y-15431698D02*
X13220691Y-15441222D01*
X13220691Y-15441222D02*
X13230215Y-15460269D01*
X13230215Y-15460269D02*
X13230215Y-15507888D01*
X13230215Y-15507888D02*
X13220691Y-15526936D01*
X13220691Y-15526936D02*
X13211168Y-15536460D01*
X13211168Y-15536460D02*
X13192120Y-15545984D01*
X13192120Y-15545984D02*
X13144501Y-15545984D01*
X13144501Y-15545984D02*
X13125453Y-15536460D01*
X13125453Y-15536460D02*
X13115929Y-15526936D01*
X13468310Y-15545984D02*
X13468310Y-15345984D01*
X13554025Y-15545984D02*
X13554025Y-15441222D01*
X13554025Y-15441222D02*
X13544501Y-15422174D01*
X13544501Y-15422174D02*
X13525453Y-15412650D01*
X13525453Y-15412650D02*
X13496882Y-15412650D01*
X13496882Y-15412650D02*
X13477834Y-15422174D01*
X13477834Y-15422174D02*
X13468310Y-15431698D01*
X13677834Y-15545984D02*
X13658787Y-15536460D01*
X13658787Y-15536460D02*
X13649263Y-15526936D01*
X13649263Y-15526936D02*
X13639739Y-15507888D01*
X13639739Y-15507888D02*
X13639739Y-15450746D01*
X13639739Y-15450746D02*
X13649263Y-15431698D01*
X13649263Y-15431698D02*
X13658787Y-15422174D01*
X13658787Y-15422174D02*
X13677834Y-15412650D01*
X13677834Y-15412650D02*
X13706406Y-15412650D01*
X13706406Y-15412650D02*
X13725453Y-15422174D01*
X13725453Y-15422174D02*
X13734977Y-15431698D01*
X13734977Y-15431698D02*
X13744501Y-15450746D01*
X13744501Y-15450746D02*
X13744501Y-15507888D01*
X13744501Y-15507888D02*
X13734977Y-15526936D01*
X13734977Y-15526936D02*
X13725453Y-15536460D01*
X13725453Y-15536460D02*
X13706406Y-15545984D01*
X13706406Y-15545984D02*
X13677834Y-15545984D01*
X13858787Y-15545984D02*
X13839739Y-15536460D01*
X13839739Y-15536460D02*
X13830215Y-15517412D01*
X13830215Y-15517412D02*
X13830215Y-15345984D01*
X14011168Y-15536460D02*
X13992120Y-15545984D01*
X13992120Y-15545984D02*
X13954025Y-15545984D01*
X13954025Y-15545984D02*
X13934977Y-15536460D01*
X13934977Y-15536460D02*
X13925453Y-15517412D01*
X13925453Y-15517412D02*
X13925453Y-15441222D01*
X13925453Y-15441222D02*
X13934977Y-15422174D01*
X13934977Y-15422174D02*
X13954025Y-15412650D01*
X13954025Y-15412650D02*
X13992120Y-15412650D01*
X13992120Y-15412650D02*
X14011168Y-15422174D01*
X14011168Y-15422174D02*
X14020691Y-15441222D01*
X14020691Y-15441222D02*
X14020691Y-15460269D01*
X14020691Y-15460269D02*
X13925453Y-15479317D01*
X14096882Y-15536460D02*
X14115930Y-15545984D01*
X14115930Y-15545984D02*
X14154025Y-15545984D01*
X14154025Y-15545984D02*
X14173072Y-15536460D01*
X14173072Y-15536460D02*
X14182596Y-15517412D01*
X14182596Y-15517412D02*
X14182596Y-15507888D01*
X14182596Y-15507888D02*
X14173072Y-15488841D01*
X14173072Y-15488841D02*
X14154025Y-15479317D01*
X14154025Y-15479317D02*
X14125453Y-15479317D01*
X14125453Y-15479317D02*
X14106406Y-15469793D01*
X14106406Y-15469793D02*
X14096882Y-15450746D01*
X14096882Y-15450746D02*
X14096882Y-15441222D01*
X14096882Y-15441222D02*
X14106406Y-15422174D01*
X14106406Y-15422174D02*
X14125453Y-15412650D01*
X14125453Y-15412650D02*
X14154025Y-15412650D01*
X14154025Y-15412650D02*
X14173072Y-15422174D01*
X14249263Y-15622174D02*
X14258787Y-15612650D01*
X14258787Y-15612650D02*
X14277834Y-15584079D01*
X14277834Y-15584079D02*
X14287358Y-15565031D01*
X14287358Y-15565031D02*
X14296882Y-15536460D01*
X14296882Y-15536460D02*
X14306406Y-15488841D01*
X14306406Y-15488841D02*
X14306406Y-15450746D01*
X14306406Y-15450746D02*
X14296882Y-15403127D01*
X14296882Y-15403127D02*
X14287358Y-15374555D01*
X14287358Y-15374555D02*
X14277834Y-15355508D01*
X14277834Y-15355508D02*
X14258787Y-15326936D01*
X14258787Y-15326936D02*
X14249263Y-15317412D01*
M02*
