M48
; DRILL file {KiCad 8.0.7} date 2025-01-26T00:41:15-0500
; FORMAT={-:-/ absolute / metric / decimal}
; #@! TF.CreationDate,2025-01-26T00:41:15-05:00
; #@! TF.GenerationSoftware,Kicad,Pcbnew,8.0.7
; #@! TF.FileFunction,Plated,1,2,PTH
FMAT,2
METRIC
; #@! TA.AperFunction,Plated,PTH,ComponentDrill
T1C0.200
; #@! TA.AperFunction,Plated,PTH,ViaDrill
T2C0.300
; #@! TA.AperFunction,Plated,PTH,ComponentDrill
T3C0.330
; #@! TA.AperFunction,Plated,PTH,ComponentDrill
T4C0.400
; #@! TA.AperFunction,Plated,PTH,ComponentDrill
T5C0.600
; #@! TA.AperFunction,Plated,PTH,ComponentDrill
T6C0.800
; #@! TA.AperFunction,Plated,PTH,ComponentDrill
T7C1.000
; #@! TA.AperFunction,Plated,PTH,ComponentDrill
T8C1.100
; #@! TA.AperFunction,Plated,PTH,ComponentDrill
T9C4.300
%
G90
G05
T1
X124.83Y-62.265
X124.83Y-63.465
X125.28Y-62.865
X125.73Y-62.265
X125.73Y-63.465
T2
X97.59Y-91.987
X97.791Y-104.394
X99.006Y-95.173
X99.469Y-84.026
X99.571Y-95.798
X99.798Y-69.35
X100.183Y-86.955
X100.183Y-97.082
X101.001Y-65.517
X101.417Y-60.168
X101.417Y-64.261
X102.243Y-92.207
X103.001Y-107.309
X103.72Y-106.054
X103.93Y-93.688
X104.005Y-102.997
X104.321Y-94.539
X105.278Y-66.511
X105.278Y-78.74
X105.63Y-100.073
X106.02Y-74.728
X106.587Y-110.578
X107.573Y-86.941
X107.884Y-102.979
X107.968Y-90.474
X107.969Y-102.173
X107.986Y-54.078
X108.153Y-67.998
X109.217Y-98.867
X109.433Y-68.032
X109.457Y-84.591
X109.604Y-72.013
X109.819Y-99.768
X109.847Y-66.36
X110.074Y-83.113
X113.554Y-53.476
X115.217Y-54.729
X115.361Y-60.206
X116.044Y-59.223
X116.558Y-80.04
X117.838Y-60.089
X118.673Y-59.223
X119.015Y-90.212
X119.487Y-59.497
X120.912Y-57.981
X121.853Y-63.754
X123.907Y-65.254
X124.795Y-92.71
X124.898Y-67.004
X125.52Y-65.257
X127.33Y-77.73
X127.942Y-60.383
X128.883Y-66.481
X129.54Y-65.861
X130.088Y-60.171
X131.403Y-65.085
X131.805Y-69.016
X132.141Y-62.992
X132.407Y-78.894
X133.129Y-66.328
X134.382Y-61.775
X134.382Y-72.873
X135.833Y-57.857
X135.833Y-80.745
X136.757Y-95.173
X142.827Y-69.845
X142.827Y-90.215
X143.418Y-65.024
X144.909Y-54.455
X147.773Y-57.06
X147.789Y-88.372
X148.666Y-83.769
X148.764Y-73.085
X149.243Y-76.2
X149.845Y-71.384
X150.376Y-69.104
X150.55Y-78.186
X152.239Y-64.669
X153.299Y-65.277
X153.484Y-58.384
X153.939Y-71.144
T3
X104.628Y-69.464
X104.628Y-70.764
X104.628Y-72.064
X105.928Y-69.464
X105.928Y-70.764
X105.928Y-72.064
T4
X110.817Y-119.495
X110.817Y-120.845
X111.667Y-119.495
X111.667Y-120.845
X112.517Y-119.495
X112.517Y-120.845
X113.367Y-119.495
X113.367Y-120.845
X114.217Y-119.495
X114.217Y-120.845
X115.067Y-119.495
X115.067Y-120.845
X115.917Y-119.495
X115.917Y-120.845
X116.767Y-119.495
X116.767Y-120.845
T6
X139.954Y-123.19
X147.574Y-123.19
T7
X96.037Y-66.04
X96.037Y-68.58
X96.037Y-71.12
X96.037Y-73.66
X96.037Y-78.74
X96.037Y-81.28
X96.037Y-83.82
X96.037Y-86.36
X96.037Y-91.44
X96.037Y-93.98
X96.037Y-96.52
X96.037Y-99.06
X96.037Y-104.14
X96.037Y-106.68
X96.037Y-109.22
X96.037Y-111.76
X102.87Y-109.22
X102.87Y-114.3
X105.41Y-109.22
X105.41Y-114.3
X106.684Y-60.985
X107.95Y-109.22
X107.95Y-114.3
X110.49Y-109.22
X111.684Y-60.985
X112.557Y-114.3
X113.03Y-68.58
X113.03Y-71.12
X113.03Y-73.66
X113.03Y-76.2
X113.03Y-78.74
X113.03Y-81.28
X113.03Y-83.82
X113.03Y-86.36
X113.03Y-88.9
X113.03Y-91.44
X113.03Y-93.98
X113.03Y-96.52
X113.03Y-99.06
X113.03Y-101.6
X113.03Y-104.14
X115.097Y-114.3
X117.637Y-114.3
X120.177Y-114.3
X120.65Y-68.61
X120.65Y-71.15
X120.65Y-73.69
X120.65Y-76.23
X120.65Y-78.77
X120.65Y-81.31
X120.65Y-83.85
X120.65Y-86.39
X120.65Y-88.93
X120.65Y-91.47
X120.65Y-94.01
X120.65Y-96.55
X120.65Y-99.09
X120.65Y-101.63
X120.65Y-104.17
X125.73Y-115.57
X128.23Y-115.57
X129.057Y-124.46
X131.597Y-124.46
X133.35Y-50.8
X133.35Y-55.855
X135.89Y-50.8
X135.89Y-55.855
X138.43Y-50.8
X138.43Y-55.855
X138.43Y-68.58
X138.43Y-71.12
X138.43Y-73.66
X138.43Y-76.2
X138.43Y-78.74
X138.43Y-81.28
X138.43Y-83.82
X138.43Y-86.36
X138.43Y-88.9
X138.43Y-91.44
X138.43Y-93.98
X138.43Y-96.52
X138.43Y-99.06
X138.43Y-101.6
X138.43Y-104.14
X140.97Y-50.8
X140.97Y-55.855
X146.05Y-68.58
X146.05Y-71.12
X146.05Y-73.66
X146.05Y-76.2
X146.05Y-78.74
X146.05Y-81.28
X146.05Y-83.82
X146.05Y-86.36
X146.05Y-88.9
X146.05Y-91.44
X146.05Y-93.98
X146.05Y-96.52
X146.05Y-99.06
X146.05Y-101.6
X146.05Y-104.14
X156.972Y-60.96
X156.972Y-63.5
X156.972Y-66.04
X156.972Y-68.58
X156.972Y-86.36
X156.972Y-88.9
X156.972Y-91.44
X156.972Y-93.98
X156.972Y-99.06
X156.972Y-101.6
X156.972Y-104.14
X156.972Y-106.68
X156.997Y-73.66
X156.997Y-76.2
X156.997Y-78.74
X156.997Y-81.28
X162.052Y-60.96
X162.052Y-63.5
X162.052Y-66.04
X162.052Y-68.58
X162.052Y-73.66
X162.052Y-76.2
X162.052Y-78.74
X162.052Y-81.28
X162.052Y-86.36
X162.052Y-88.9
X162.052Y-91.44
X162.052Y-93.98
X162.052Y-99.06
X162.052Y-101.6
X162.052Y-104.14
X162.052Y-106.68
T8
X121.87Y-50.328
X121.87Y-54.828
X128.37Y-50.328
X128.37Y-54.828
X133.427Y-112.812
X133.427Y-117.312
X139.927Y-112.812
X139.927Y-117.312
X146.277Y-112.812
X146.277Y-117.312
X152.777Y-112.812
X152.777Y-117.312
T9
X100.33Y-53.34
X100.33Y-121.92
X129.54Y-86.36
X158.75Y-53.34
X158.75Y-121.92
T5
X109.467Y-119.725G85X109.467Y-121.225
G05
X109.467Y-123.455G85X109.467Y-124.255
G05
X118.117Y-119.725G85X118.117Y-121.225
G05
X118.117Y-123.455G85X118.117Y-124.255
G05
M30
