G04 #@! TF.GenerationSoftware,KiCad,Pcbnew,8.0.7*
G04 #@! TF.CreationDate,2025-01-26T00:40:11-05:00*
G04 #@! TF.ProjectId,shadow,73686164-6f77-42e6-9b69-6361645f7063,rev?*
G04 #@! TF.SameCoordinates,Original*
G04 #@! TF.FileFunction,Copper,L1,Top*
G04 #@! TF.FilePolarity,Positive*
%FSLAX46Y46*%
G04 Gerber Fmt 4.6, Leading zero omitted, Abs format (unit mm)*
G04 Created by KiCad (PCBNEW 8.0.7) date 2025-01-26 00:40:11*
%MOMM*%
%LPD*%
G01*
G04 APERTURE LIST*
G04 Aperture macros list*
%AMRoundRect*
0 Rectangle with rounded corners*
0 $1 Rounding radius*
0 $2 $3 $4 $5 $6 $7 $8 $9 X,Y pos of 4 corners*
0 Add a 4 corners polygon primitive as box body*
4,1,4,$2,$3,$4,$5,$6,$7,$8,$9,$2,$3,0*
0 Add four circle primitives for the rounded corners*
1,1,$1+$1,$2,$3*
1,1,$1+$1,$4,$5*
1,1,$1+$1,$6,$7*
1,1,$1+$1,$8,$9*
0 Add four rect primitives between the rounded corners*
20,1,$1+$1,$2,$3,$4,$5,0*
20,1,$1+$1,$4,$5,$6,$7,0*
20,1,$1+$1,$6,$7,$8,$9,0*
20,1,$1+$1,$8,$9,$2,$3,0*%
G04 Aperture macros list end*
%ADD10C,0.300000*%
G04 #@! TA.AperFunction,NonConductor*
%ADD11C,0.300000*%
G04 #@! TD*
G04 #@! TA.AperFunction,NonConductor*
%ADD12C,0.200000*%
G04 #@! TD*
G04 #@! TA.AperFunction,SMDPad,CuDef*
%ADD13RoundRect,0.250000X-0.375000X-0.625000X0.375000X-0.625000X0.375000X0.625000X-0.375000X0.625000X0*%
G04 #@! TD*
G04 #@! TA.AperFunction,ComponentPad*
%ADD14R,1.700000X1.700000*%
G04 #@! TD*
G04 #@! TA.AperFunction,ComponentPad*
%ADD15O,1.700000X1.700000*%
G04 #@! TD*
G04 #@! TA.AperFunction,ComponentPad*
%ADD16RoundRect,0.250000X0.600000X0.750000X-0.600000X0.750000X-0.600000X-0.750000X0.600000X-0.750000X0*%
G04 #@! TD*
G04 #@! TA.AperFunction,ComponentPad*
%ADD17O,1.700000X2.000000*%
G04 #@! TD*
G04 #@! TA.AperFunction,SMDPad,CuDef*
%ADD18R,2.200000X1.500000*%
G04 #@! TD*
G04 #@! TA.AperFunction,SMDPad,CuDef*
%ADD19O,0.574000X2.038000*%
G04 #@! TD*
G04 #@! TA.AperFunction,SMDPad,CuDef*
%ADD20R,2.000000X2.000000*%
G04 #@! TD*
G04 #@! TA.AperFunction,ComponentPad*
%ADD21C,2.000000*%
G04 #@! TD*
G04 #@! TA.AperFunction,SMDPad,CuDef*
%ADD22RoundRect,0.100000X-0.637500X-0.100000X0.637500X-0.100000X0.637500X0.100000X-0.637500X0.100000X0*%
G04 #@! TD*
G04 #@! TA.AperFunction,ComponentPad*
%ADD23C,7.500000*%
G04 #@! TD*
G04 #@! TA.AperFunction,SMDPad,CuDef*
%ADD24R,1.600000X0.300000*%
G04 #@! TD*
G04 #@! TA.AperFunction,SMDPad,CuDef*
%ADD25R,1.570000X1.880000*%
G04 #@! TD*
G04 #@! TA.AperFunction,ComponentPad*
%ADD26C,0.400000*%
G04 #@! TD*
G04 #@! TA.AperFunction,SMDPad,CuDef*
%ADD27R,2.200000X0.500000*%
G04 #@! TD*
G04 #@! TA.AperFunction,SMDPad,CuDef*
%ADD28R,2.950000X4.900000*%
G04 #@! TD*
G04 #@! TA.AperFunction,ComponentPad*
%ADD29R,1.600000X1.600000*%
G04 #@! TD*
G04 #@! TA.AperFunction,ComponentPad*
%ADD30O,1.600000X1.600000*%
G04 #@! TD*
G04 #@! TA.AperFunction,ComponentPad*
%ADD31C,0.700000*%
G04 #@! TD*
G04 #@! TA.AperFunction,ComponentPad*
%ADD32O,0.900000X2.400000*%
G04 #@! TD*
G04 #@! TA.AperFunction,ComponentPad*
%ADD33O,0.900000X1.700000*%
G04 #@! TD*
G04 #@! TA.AperFunction,SMDPad,CuDef*
%ADD34RoundRect,0.060000X-0.675000X-0.180000X0.675000X-0.180000X0.675000X0.180000X-0.675000X0.180000X0*%
G04 #@! TD*
G04 #@! TA.AperFunction,ComponentPad*
%ADD35R,2.000000X2.000000*%
G04 #@! TD*
G04 #@! TA.AperFunction,ViaPad*
%ADD36C,0.600000*%
G04 #@! TD*
G04 #@! TA.AperFunction,Conductor*
%ADD37C,0.200000*%
G04 #@! TD*
G04 APERTURE END LIST*
D10*
D11*
X172155328Y-92951427D02*
X172155328Y-92022855D01*
X172155328Y-92022855D02*
X172726757Y-92522855D01*
X172726757Y-92522855D02*
X172726757Y-92308570D01*
X172726757Y-92308570D02*
X172798185Y-92165713D01*
X172798185Y-92165713D02*
X172869614Y-92094284D01*
X172869614Y-92094284D02*
X173012471Y-92022855D01*
X173012471Y-92022855D02*
X173369614Y-92022855D01*
X173369614Y-92022855D02*
X173512471Y-92094284D01*
X173512471Y-92094284D02*
X173583900Y-92165713D01*
X173583900Y-92165713D02*
X173655328Y-92308570D01*
X173655328Y-92308570D02*
X173655328Y-92737141D01*
X173655328Y-92737141D02*
X173583900Y-92879998D01*
X173583900Y-92879998D02*
X173512471Y-92951427D01*
X173512471Y-91379999D02*
X173583900Y-91308570D01*
X173583900Y-91308570D02*
X173655328Y-91379999D01*
X173655328Y-91379999D02*
X173583900Y-91451427D01*
X173583900Y-91451427D02*
X173512471Y-91379999D01*
X173512471Y-91379999D02*
X173655328Y-91379999D01*
X173655328Y-89879998D02*
X173655328Y-90737141D01*
X173655328Y-90308570D02*
X172155328Y-90308570D01*
X172155328Y-90308570D02*
X172369614Y-90451427D01*
X172369614Y-90451427D02*
X172512471Y-90594284D01*
X172512471Y-90594284D02*
X172583900Y-90737141D01*
X172155328Y-88951427D02*
X172155328Y-88808570D01*
X172155328Y-88808570D02*
X172226757Y-88665713D01*
X172226757Y-88665713D02*
X172298185Y-88594285D01*
X172298185Y-88594285D02*
X172441042Y-88522856D01*
X172441042Y-88522856D02*
X172726757Y-88451427D01*
X172726757Y-88451427D02*
X173083900Y-88451427D01*
X173083900Y-88451427D02*
X173369614Y-88522856D01*
X173369614Y-88522856D02*
X173512471Y-88594285D01*
X173512471Y-88594285D02*
X173583900Y-88665713D01*
X173583900Y-88665713D02*
X173655328Y-88808570D01*
X173655328Y-88808570D02*
X173655328Y-88951427D01*
X173655328Y-88951427D02*
X173583900Y-89094285D01*
X173583900Y-89094285D02*
X173512471Y-89165713D01*
X173512471Y-89165713D02*
X173369614Y-89237142D01*
X173369614Y-89237142D02*
X173083900Y-89308570D01*
X173083900Y-89308570D02*
X172726757Y-89308570D01*
X172726757Y-89308570D02*
X172441042Y-89237142D01*
X172441042Y-89237142D02*
X172298185Y-89165713D01*
X172298185Y-89165713D02*
X172226757Y-89094285D01*
X172226757Y-89094285D02*
X172155328Y-88951427D01*
X172155328Y-87522856D02*
X172155328Y-87379999D01*
X172155328Y-87379999D02*
X172226757Y-87237142D01*
X172226757Y-87237142D02*
X172298185Y-87165714D01*
X172298185Y-87165714D02*
X172441042Y-87094285D01*
X172441042Y-87094285D02*
X172726757Y-87022856D01*
X172726757Y-87022856D02*
X173083900Y-87022856D01*
X173083900Y-87022856D02*
X173369614Y-87094285D01*
X173369614Y-87094285D02*
X173512471Y-87165714D01*
X173512471Y-87165714D02*
X173583900Y-87237142D01*
X173583900Y-87237142D02*
X173655328Y-87379999D01*
X173655328Y-87379999D02*
X173655328Y-87522856D01*
X173655328Y-87522856D02*
X173583900Y-87665714D01*
X173583900Y-87665714D02*
X173512471Y-87737142D01*
X173512471Y-87737142D02*
X173369614Y-87808571D01*
X173369614Y-87808571D02*
X173083900Y-87879999D01*
X173083900Y-87879999D02*
X172726757Y-87879999D01*
X172726757Y-87879999D02*
X172441042Y-87808571D01*
X172441042Y-87808571D02*
X172298185Y-87737142D01*
X172298185Y-87737142D02*
X172226757Y-87665714D01*
X172226757Y-87665714D02*
X172155328Y-87522856D01*
X172155328Y-86094285D02*
X172155328Y-85951428D01*
X172155328Y-85951428D02*
X172226757Y-85808571D01*
X172226757Y-85808571D02*
X172298185Y-85737143D01*
X172298185Y-85737143D02*
X172441042Y-85665714D01*
X172441042Y-85665714D02*
X172726757Y-85594285D01*
X172726757Y-85594285D02*
X173083900Y-85594285D01*
X173083900Y-85594285D02*
X173369614Y-85665714D01*
X173369614Y-85665714D02*
X173512471Y-85737143D01*
X173512471Y-85737143D02*
X173583900Y-85808571D01*
X173583900Y-85808571D02*
X173655328Y-85951428D01*
X173655328Y-85951428D02*
X173655328Y-86094285D01*
X173655328Y-86094285D02*
X173583900Y-86237143D01*
X173583900Y-86237143D02*
X173512471Y-86308571D01*
X173512471Y-86308571D02*
X173369614Y-86380000D01*
X173369614Y-86380000D02*
X173083900Y-86451428D01*
X173083900Y-86451428D02*
X172726757Y-86451428D01*
X172726757Y-86451428D02*
X172441042Y-86380000D01*
X172441042Y-86380000D02*
X172298185Y-86308571D01*
X172298185Y-86308571D02*
X172226757Y-86237143D01*
X172226757Y-86237143D02*
X172155328Y-86094285D01*
X173655328Y-83808572D02*
X172655328Y-83808572D01*
X172155328Y-83808572D02*
X172226757Y-83880000D01*
X172226757Y-83880000D02*
X172298185Y-83808572D01*
X172298185Y-83808572D02*
X172226757Y-83737143D01*
X172226757Y-83737143D02*
X172155328Y-83808572D01*
X172155328Y-83808572D02*
X172298185Y-83808572D01*
X172655328Y-83094286D02*
X173655328Y-83094286D01*
X172798185Y-83094286D02*
X172726757Y-83022857D01*
X172726757Y-83022857D02*
X172655328Y-82880000D01*
X172655328Y-82880000D02*
X172655328Y-82665714D01*
X172655328Y-82665714D02*
X172726757Y-82522857D01*
X172726757Y-82522857D02*
X172869614Y-82451429D01*
X172869614Y-82451429D02*
X173655328Y-82451429D01*
D12*
X165117000Y-48260000D02*
X175363420Y-48260000D01*
X165117000Y-127000000D02*
X175363420Y-127000000D01*
X174777000Y-48260000D02*
X174777000Y-127000000D01*
X174777000Y-48260000D02*
X174777000Y-127000000D01*
X174777000Y-48260000D02*
X175363421Y-49386504D01*
X174777000Y-48260000D02*
X174190579Y-49386504D01*
X174777000Y-127000000D02*
X174190579Y-125873496D01*
X174777000Y-127000000D02*
X175363421Y-125873496D01*
D10*
D11*
X124442001Y-134681185D02*
X124513429Y-134609757D01*
X124513429Y-134609757D02*
X124656287Y-134538328D01*
X124656287Y-134538328D02*
X125013429Y-134538328D01*
X125013429Y-134538328D02*
X125156287Y-134609757D01*
X125156287Y-134609757D02*
X125227715Y-134681185D01*
X125227715Y-134681185D02*
X125299144Y-134824042D01*
X125299144Y-134824042D02*
X125299144Y-134966900D01*
X125299144Y-134966900D02*
X125227715Y-135181185D01*
X125227715Y-135181185D02*
X124370572Y-136038328D01*
X124370572Y-136038328D02*
X125299144Y-136038328D01*
X125942000Y-135895471D02*
X126013429Y-135966900D01*
X126013429Y-135966900D02*
X125942000Y-136038328D01*
X125942000Y-136038328D02*
X125870572Y-135966900D01*
X125870572Y-135966900D02*
X125942000Y-135895471D01*
X125942000Y-135895471D02*
X125942000Y-136038328D01*
X126513429Y-134538328D02*
X127513429Y-134538328D01*
X127513429Y-134538328D02*
X126870572Y-136038328D01*
X128799143Y-134538328D02*
X128084857Y-134538328D01*
X128084857Y-134538328D02*
X128013429Y-135252614D01*
X128013429Y-135252614D02*
X128084857Y-135181185D01*
X128084857Y-135181185D02*
X128227715Y-135109757D01*
X128227715Y-135109757D02*
X128584857Y-135109757D01*
X128584857Y-135109757D02*
X128727715Y-135181185D01*
X128727715Y-135181185D02*
X128799143Y-135252614D01*
X128799143Y-135252614D02*
X128870572Y-135395471D01*
X128870572Y-135395471D02*
X128870572Y-135752614D01*
X128870572Y-135752614D02*
X128799143Y-135895471D01*
X128799143Y-135895471D02*
X128727715Y-135966900D01*
X128727715Y-135966900D02*
X128584857Y-136038328D01*
X128584857Y-136038328D02*
X128227715Y-136038328D01*
X128227715Y-136038328D02*
X128084857Y-135966900D01*
X128084857Y-135966900D02*
X128013429Y-135895471D01*
X129799143Y-134538328D02*
X129942000Y-134538328D01*
X129942000Y-134538328D02*
X130084857Y-134609757D01*
X130084857Y-134609757D02*
X130156286Y-134681185D01*
X130156286Y-134681185D02*
X130227714Y-134824042D01*
X130227714Y-134824042D02*
X130299143Y-135109757D01*
X130299143Y-135109757D02*
X130299143Y-135466900D01*
X130299143Y-135466900D02*
X130227714Y-135752614D01*
X130227714Y-135752614D02*
X130156286Y-135895471D01*
X130156286Y-135895471D02*
X130084857Y-135966900D01*
X130084857Y-135966900D02*
X129942000Y-136038328D01*
X129942000Y-136038328D02*
X129799143Y-136038328D01*
X129799143Y-136038328D02*
X129656286Y-135966900D01*
X129656286Y-135966900D02*
X129584857Y-135895471D01*
X129584857Y-135895471D02*
X129513428Y-135752614D01*
X129513428Y-135752614D02*
X129442000Y-135466900D01*
X129442000Y-135466900D02*
X129442000Y-135109757D01*
X129442000Y-135109757D02*
X129513428Y-134824042D01*
X129513428Y-134824042D02*
X129584857Y-134681185D01*
X129584857Y-134681185D02*
X129656286Y-134609757D01*
X129656286Y-134609757D02*
X129799143Y-134538328D01*
X131227714Y-134538328D02*
X131370571Y-134538328D01*
X131370571Y-134538328D02*
X131513428Y-134609757D01*
X131513428Y-134609757D02*
X131584857Y-134681185D01*
X131584857Y-134681185D02*
X131656285Y-134824042D01*
X131656285Y-134824042D02*
X131727714Y-135109757D01*
X131727714Y-135109757D02*
X131727714Y-135466900D01*
X131727714Y-135466900D02*
X131656285Y-135752614D01*
X131656285Y-135752614D02*
X131584857Y-135895471D01*
X131584857Y-135895471D02*
X131513428Y-135966900D01*
X131513428Y-135966900D02*
X131370571Y-136038328D01*
X131370571Y-136038328D02*
X131227714Y-136038328D01*
X131227714Y-136038328D02*
X131084857Y-135966900D01*
X131084857Y-135966900D02*
X131013428Y-135895471D01*
X131013428Y-135895471D02*
X130941999Y-135752614D01*
X130941999Y-135752614D02*
X130870571Y-135466900D01*
X130870571Y-135466900D02*
X130870571Y-135109757D01*
X130870571Y-135109757D02*
X130941999Y-134824042D01*
X130941999Y-134824042D02*
X131013428Y-134681185D01*
X131013428Y-134681185D02*
X131084857Y-134609757D01*
X131084857Y-134609757D02*
X131227714Y-134538328D01*
X133513427Y-136038328D02*
X133513427Y-135038328D01*
X133513427Y-134538328D02*
X133441999Y-134609757D01*
X133441999Y-134609757D02*
X133513427Y-134681185D01*
X133513427Y-134681185D02*
X133584856Y-134609757D01*
X133584856Y-134609757D02*
X133513427Y-134538328D01*
X133513427Y-134538328D02*
X133513427Y-134681185D01*
X134227713Y-135038328D02*
X134227713Y-136038328D01*
X134227713Y-135181185D02*
X134299142Y-135109757D01*
X134299142Y-135109757D02*
X134441999Y-135038328D01*
X134441999Y-135038328D02*
X134656285Y-135038328D01*
X134656285Y-135038328D02*
X134799142Y-135109757D01*
X134799142Y-135109757D02*
X134870571Y-135252614D01*
X134870571Y-135252614D02*
X134870571Y-136038328D01*
D12*
X164617000Y-127500000D02*
X164617000Y-137746420D01*
X94767000Y-127500000D02*
X94767000Y-137746420D01*
X164617000Y-137160000D02*
X94767000Y-137160000D01*
X164617000Y-137160000D02*
X94767000Y-137160000D01*
X164617000Y-137160000D02*
X163490496Y-137746421D01*
X164617000Y-137160000D02*
X163490496Y-136573579D01*
X94767000Y-137160000D02*
X95893504Y-136573579D01*
X94767000Y-137160000D02*
X95893504Y-137746421D01*
D13*
X108877000Y-50800000D03*
X111677000Y-50800000D03*
D14*
X162052000Y-99060000D03*
D15*
X162052000Y-101600000D03*
X162052000Y-104140000D03*
X162052000Y-106680000D03*
D14*
X96037000Y-86360000D03*
D15*
X96037000Y-83820000D03*
X96037000Y-81280000D03*
X96037000Y-78740000D03*
D16*
X128230000Y-115570000D03*
D17*
X125730000Y-115570000D03*
D14*
X96037000Y-99060000D03*
D15*
X96037000Y-96520000D03*
X96037000Y-93980000D03*
X96037000Y-91440000D03*
D14*
X96037000Y-73660000D03*
D15*
X96037000Y-71120000D03*
X96037000Y-68580000D03*
X96037000Y-66040000D03*
D14*
X156972000Y-60960000D03*
D15*
X156972000Y-63500000D03*
X156972000Y-66040000D03*
X156972000Y-68580000D03*
D14*
X110490000Y-109220000D03*
D15*
X107950000Y-109220000D03*
X105410000Y-109220000D03*
X102870000Y-109220000D03*
D18*
X106019600Y-88010600D03*
X106019600Y-81610600D03*
D14*
X107950000Y-114300000D03*
D15*
X105410000Y-114300000D03*
X102870000Y-114300000D03*
D14*
X156972000Y-86360000D03*
D15*
X156972000Y-88900000D03*
X156972000Y-91440000D03*
X156972000Y-93980000D03*
D19*
X127000000Y-76200000D03*
X128270000Y-76200000D03*
X129540000Y-76200000D03*
X130810000Y-76200000D03*
X130810000Y-70662000D03*
X129540000Y-70662000D03*
X128270000Y-70662000D03*
X127000000Y-70662000D03*
D20*
X128905000Y-73431000D03*
D21*
X146277000Y-112812000D03*
X152777000Y-112812000D03*
X146277000Y-117312000D03*
X152777000Y-117312000D03*
D22*
X146514500Y-56410000D03*
X146514500Y-57060000D03*
X146514500Y-57710000D03*
X146514500Y-58360000D03*
X146514500Y-59010000D03*
X146514500Y-59660000D03*
X146514500Y-60310000D03*
X146514500Y-60960000D03*
X146514500Y-61610000D03*
X146514500Y-62260000D03*
X146514500Y-62910000D03*
X146514500Y-63560000D03*
X152239500Y-63560000D03*
X152239500Y-62910000D03*
X152239500Y-62260000D03*
X152239500Y-61610000D03*
X152239500Y-60960000D03*
X152239500Y-60310000D03*
X152239500Y-59660000D03*
X152239500Y-59010000D03*
X152239500Y-58360000D03*
X152239500Y-57710000D03*
X152239500Y-57060000D03*
X152239500Y-56410000D03*
D14*
X138430000Y-68580000D03*
D15*
X138430000Y-71120000D03*
X138430000Y-73660000D03*
X138430000Y-76200000D03*
X138430000Y-78740000D03*
X138430000Y-81280000D03*
X138430000Y-83820000D03*
X138430000Y-86360000D03*
X138430000Y-88900000D03*
X138430000Y-91440000D03*
X138430000Y-93980000D03*
X138430000Y-96520000D03*
X138430000Y-99060000D03*
X138430000Y-101600000D03*
X138430000Y-104140000D03*
D21*
X121870000Y-50328000D03*
X128370000Y-50328000D03*
X121870000Y-54828000D03*
X128370000Y-54828000D03*
D23*
X100330000Y-121920000D03*
D14*
X112557000Y-114300000D03*
D15*
X115097000Y-114300000D03*
X117637000Y-114300000D03*
X120177000Y-114300000D03*
D23*
X158750000Y-121920000D03*
D22*
X102242700Y-94316600D03*
X102242700Y-94966600D03*
X102242700Y-95616600D03*
X102242700Y-96266600D03*
X102242700Y-96916600D03*
X102242700Y-97566600D03*
X102242700Y-98216600D03*
X102242700Y-98866600D03*
X102242700Y-99516600D03*
X102242700Y-100166600D03*
X102242700Y-100816600D03*
X102242700Y-101466600D03*
X107967700Y-101466600D03*
X107967700Y-100816600D03*
X107967700Y-100166600D03*
X107967700Y-99516600D03*
X107967700Y-98866600D03*
X107967700Y-98216600D03*
X107967700Y-97566600D03*
X107967700Y-96916600D03*
X107967700Y-96266600D03*
X107967700Y-95616600D03*
X107967700Y-94966600D03*
X107967700Y-94316600D03*
D14*
X162052000Y-73660000D03*
D15*
X162052000Y-76200000D03*
X162052000Y-78740000D03*
X162052000Y-81280000D03*
D14*
X162052000Y-86360000D03*
D15*
X162052000Y-88900000D03*
X162052000Y-91440000D03*
X162052000Y-93980000D03*
D24*
X123180000Y-61865000D03*
X123180000Y-62365000D03*
X123180000Y-62865000D03*
X123180000Y-63365000D03*
X123180000Y-63865000D03*
X127380000Y-63865000D03*
X127380000Y-63365000D03*
X127380000Y-62865000D03*
X127380000Y-62365000D03*
X127380000Y-61865000D03*
D25*
X125280000Y-62865000D03*
D26*
X124830000Y-62265000D03*
X125730000Y-62265000D03*
X125280000Y-62865000D03*
X124830000Y-63465000D03*
X125730000Y-63465000D03*
D27*
X108153200Y-72669400D03*
X108153200Y-71399400D03*
X108153200Y-70129400D03*
X108153200Y-68859400D03*
X102403200Y-68859400D03*
X102403200Y-70129400D03*
X102403200Y-71399400D03*
X102403200Y-72669400D03*
D28*
X105278200Y-70764400D03*
D26*
X105928200Y-72064400D03*
X104628200Y-72064400D03*
X105928200Y-70764400D03*
X104628200Y-70764400D03*
X105928200Y-69464400D03*
X104628200Y-69464400D03*
D14*
X129057000Y-124460000D03*
D15*
X131597000Y-124460000D03*
D21*
X133427000Y-112812000D03*
X139927000Y-112812000D03*
X133427000Y-117312000D03*
X139927000Y-117312000D03*
D23*
X100330000Y-53340000D03*
D14*
X133350000Y-55855000D03*
D15*
X135890000Y-55855000D03*
X138430000Y-55855000D03*
X140970000Y-55855000D03*
D29*
X147574000Y-123190000D03*
D30*
X139954000Y-123190000D03*
D31*
X110817000Y-119495200D03*
X111667000Y-119495200D03*
X112517000Y-119495200D03*
X113367000Y-119495200D03*
X114217000Y-119495200D03*
X115067000Y-119495200D03*
X115917000Y-119495200D03*
X116767000Y-119495200D03*
X116767000Y-120845200D03*
X115917000Y-120845200D03*
X115067000Y-120845200D03*
X114217000Y-120845200D03*
X113367000Y-120845200D03*
X112517000Y-120845200D03*
X111667000Y-120845200D03*
X110817000Y-120845200D03*
D32*
X109467000Y-120475200D03*
D33*
X109467000Y-123855200D03*
D32*
X118117000Y-120475200D03*
D33*
X118117000Y-123855200D03*
D14*
X113030000Y-68580000D03*
D15*
X113030000Y-71120000D03*
X113030000Y-73660000D03*
X113030000Y-76200000D03*
X113030000Y-78740000D03*
X113030000Y-81280000D03*
X113030000Y-83820000D03*
X113030000Y-86360000D03*
X113030000Y-88900000D03*
X113030000Y-91440000D03*
X113030000Y-93980000D03*
X113030000Y-96520000D03*
X113030000Y-99060000D03*
X113030000Y-101600000D03*
X113030000Y-104140000D03*
D14*
X162052000Y-60960000D03*
D15*
X162052000Y-63500000D03*
X162052000Y-66040000D03*
X162052000Y-68580000D03*
D23*
X129540000Y-86360000D03*
D13*
X112417000Y-53340000D03*
X115217000Y-53340000D03*
D14*
X156997000Y-73660000D03*
D15*
X156997000Y-76200000D03*
X156997000Y-78740000D03*
X156997000Y-81280000D03*
D14*
X120650000Y-68610000D03*
D15*
X120650000Y-71150000D03*
X120650000Y-73690000D03*
X120650000Y-76230000D03*
X120650000Y-78770000D03*
X120650000Y-81310000D03*
X120650000Y-83850000D03*
X120650000Y-86390000D03*
X120650000Y-88930000D03*
X120650000Y-91470000D03*
X120650000Y-94010000D03*
X120650000Y-96550000D03*
X120650000Y-99090000D03*
X120650000Y-101630000D03*
X120650000Y-104170000D03*
D23*
X158750000Y-53340000D03*
D14*
X96037000Y-111760000D03*
D15*
X96037000Y-109220000D03*
X96037000Y-106680000D03*
X96037000Y-104140000D03*
D34*
X130082000Y-62525000D03*
X130082000Y-63175000D03*
X130082000Y-63825000D03*
X130082000Y-64475000D03*
X134382000Y-64475000D03*
X134382000Y-63825000D03*
X134382000Y-63175000D03*
X134382000Y-62525000D03*
D14*
X146050000Y-68580000D03*
D15*
X146050000Y-71120000D03*
X146050000Y-73660000D03*
X146050000Y-76200000D03*
X146050000Y-78740000D03*
X146050000Y-81280000D03*
X146050000Y-83820000D03*
X146050000Y-86360000D03*
X146050000Y-88900000D03*
X146050000Y-91440000D03*
X146050000Y-93980000D03*
X146050000Y-96520000D03*
X146050000Y-99060000D03*
X146050000Y-101600000D03*
X146050000Y-104140000D03*
D13*
X116097000Y-50800000D03*
X118897000Y-50800000D03*
D14*
X156972000Y-99060000D03*
D15*
X156972000Y-101600000D03*
X156972000Y-104140000D03*
X156972000Y-106680000D03*
D14*
X133350000Y-50800000D03*
D15*
X135890000Y-50800000D03*
X138430000Y-50800000D03*
X140970000Y-50800000D03*
D35*
X106683800Y-60985400D03*
D21*
X111683800Y-60985400D03*
D36*
X117837800Y-60088900D03*
X115360700Y-60206400D03*
X148666400Y-83768900D03*
X127942300Y-60383400D03*
X123906900Y-65254500D03*
X124898100Y-67004400D03*
X107967700Y-90473600D03*
X128883400Y-66481200D03*
X121852900Y-63754000D03*
X120911600Y-57981300D03*
X116558000Y-80040000D03*
X119014800Y-90212300D03*
X116044000Y-59223400D03*
X118672800Y-59223400D03*
X109604200Y-72013500D03*
X129540000Y-65860800D03*
X147788600Y-88372100D03*
X153938700Y-71144300D03*
X148764100Y-73085200D03*
X150376100Y-69104400D03*
X142827200Y-69845000D03*
X142827200Y-90215300D03*
X149243100Y-76200000D03*
X149844800Y-71383900D03*
X150550500Y-78186100D03*
X152239500Y-64669400D03*
X153298700Y-65277000D03*
X136756600Y-95173100D03*
X99005900Y-95173100D03*
X130088000Y-60170600D03*
X125519900Y-65257200D03*
X124795200Y-92710000D03*
X104321400Y-94539300D03*
X106586600Y-110577600D03*
X110074400Y-83113200D03*
X99798100Y-69349700D03*
X109433500Y-68031900D03*
X107985500Y-54077600D03*
X109818500Y-99767700D03*
X100183400Y-86955000D03*
X100183400Y-97081600D03*
X103719700Y-106053900D03*
X109216800Y-98867300D03*
X109457300Y-84590800D03*
X107884200Y-102978900D03*
X107969300Y-102172900D03*
X99571200Y-95798200D03*
X99468800Y-84026400D03*
X113554300Y-53475900D03*
X103001400Y-107308900D03*
X144908600Y-54455000D03*
X143418300Y-65024000D03*
X147773100Y-57060000D03*
X103929800Y-93688300D03*
X105630100Y-100073200D03*
X104004800Y-102997000D03*
X102242700Y-92207000D03*
X97590400Y-91987100D03*
X97791300Y-104394000D03*
X153484500Y-58384300D03*
X134382000Y-61774800D03*
X115217000Y-54728600D03*
X101001500Y-65517400D03*
X101417400Y-64260700D03*
X101417400Y-60167900D03*
X134382000Y-72873400D03*
X106019600Y-74727800D03*
X108153200Y-67997600D03*
X109847300Y-66360000D03*
X132140800Y-62992000D03*
X132406900Y-78894400D03*
X133129300Y-66328000D03*
X131403400Y-65085200D03*
X135833200Y-57856600D03*
X135833200Y-80745100D03*
X107573200Y-86940700D03*
X105278200Y-66511500D03*
X127329900Y-77730300D03*
X105278200Y-78740000D03*
X119487100Y-59497100D03*
X131805200Y-69016500D03*
D37*
X111667000Y-120845200D02*
X111667000Y-119495200D01*
X117870300Y-60121400D02*
X117837800Y-60088900D01*
X119715600Y-60121400D02*
X117870300Y-60121400D01*
X120108200Y-59728800D02*
X119715600Y-60121400D01*
X120108200Y-57897800D02*
X120108200Y-59728800D01*
X120635300Y-57370700D02*
X120108200Y-57897800D01*
X121170100Y-57370700D02*
X120635300Y-57370700D01*
X123180000Y-59380600D02*
X121170100Y-57370700D01*
X123180000Y-61865000D02*
X123180000Y-59380600D01*
X115917000Y-120845200D02*
X115917000Y-119495200D01*
X115360700Y-60326900D02*
X115360700Y-60206400D01*
X117160800Y-62127000D02*
X115360700Y-60326900D01*
X117160800Y-81422200D02*
X117160800Y-62127000D01*
X116358200Y-82224800D02*
X117160800Y-81422200D01*
X116358200Y-114667600D02*
X116358200Y-82224800D01*
X115917000Y-115108800D02*
X116358200Y-114667600D01*
X115917000Y-119495200D02*
X115917000Y-115108800D01*
X147574000Y-123190000D02*
X147574000Y-122088300D01*
X148666400Y-120995900D02*
X148666400Y-83768900D01*
X147574000Y-122088300D02*
X148666400Y-120995900D01*
X127380000Y-61865000D02*
X127784400Y-61865000D01*
X123818600Y-65342800D02*
X123906900Y-65254500D01*
X123818600Y-72330900D02*
X123818600Y-65342800D01*
X124119900Y-72632200D02*
X123818600Y-72330900D01*
X124119900Y-111459900D02*
X124119900Y-72632200D01*
X128230000Y-115570000D02*
X124119900Y-111459900D01*
X127942300Y-61707100D02*
X127942300Y-60383400D01*
X127784400Y-61865000D02*
X127942300Y-61707100D01*
X128416600Y-72129300D02*
X128270000Y-71982700D01*
X128905000Y-72129300D02*
X128416600Y-72129300D01*
X128270000Y-70662000D02*
X128270000Y-71982700D01*
X128905000Y-73431000D02*
X128905000Y-73003600D01*
X128905000Y-73003600D02*
X128905000Y-72129300D01*
X129925900Y-71982700D02*
X130810000Y-71982700D01*
X128905000Y-73003600D02*
X129925900Y-71982700D01*
X130810000Y-70662000D02*
X130810000Y-71982700D01*
X127000000Y-69341300D02*
X128270000Y-69341300D01*
X127000000Y-70662000D02*
X127000000Y-71982700D01*
X127000000Y-70662000D02*
X127000000Y-69341300D01*
X128270000Y-70662000D02*
X128270000Y-69341300D01*
X127000000Y-71982700D02*
X125470500Y-71982700D01*
X125730000Y-115570000D02*
X126881700Y-115570000D01*
X124898100Y-71410300D02*
X124898100Y-67004400D01*
X125470500Y-71982700D02*
X124898100Y-71410300D01*
X125470500Y-110111100D02*
X125470500Y-71982700D01*
X129382700Y-114023300D02*
X125470500Y-110111100D01*
X129382700Y-116548800D02*
X129382700Y-114023300D01*
X129004300Y-116927200D02*
X129382700Y-116548800D01*
X127447100Y-116927200D02*
X129004300Y-116927200D01*
X126881700Y-116361800D02*
X127447100Y-116927200D01*
X126881700Y-115570000D02*
X126881700Y-116361800D01*
X106683800Y-60985400D02*
X106683800Y-62287100D01*
X138430000Y-50800000D02*
X138430000Y-55855000D01*
X138430000Y-55855000D02*
X138430000Y-57006700D01*
X138430000Y-71120000D02*
X138430000Y-69968300D01*
X156972000Y-66040000D02*
X156972000Y-64888300D01*
X161783500Y-67191700D02*
X162052000Y-67191700D01*
X160893900Y-68081300D02*
X161783500Y-67191700D01*
X160893900Y-76718100D02*
X160893900Y-68081300D01*
X161764100Y-77588300D02*
X160893900Y-76718100D01*
X162052000Y-77588300D02*
X161764100Y-77588300D01*
X162052000Y-66040000D02*
X162052000Y-67191700D01*
X162052000Y-91440000D02*
X162052000Y-92591700D01*
X162052000Y-104140000D02*
X162052000Y-102988300D01*
X162052000Y-78164100D02*
X162052000Y-78513300D01*
X162052000Y-78740000D02*
X162052000Y-78513300D01*
X162052000Y-78164100D02*
X162052000Y-77588300D01*
X162339900Y-91186600D02*
X162339900Y-92591700D01*
X163205500Y-90321000D02*
X162339900Y-91186600D01*
X163205500Y-79666800D02*
X163205500Y-90321000D01*
X162052000Y-78513300D02*
X163205500Y-79666800D01*
X162052000Y-92591700D02*
X162339900Y-92591700D01*
X105410000Y-109220000D02*
X105410000Y-108068300D01*
X96037000Y-68580000D02*
X97188700Y-68580000D01*
X102403200Y-68859400D02*
X102403200Y-66067900D01*
X97188700Y-68460700D02*
X97188700Y-68580000D01*
X100759100Y-64890300D02*
X97188700Y-68460700D01*
X101225600Y-64890300D02*
X100759100Y-64890300D01*
X102403200Y-66067900D02*
X101225600Y-64890300D01*
X163616000Y-93867800D02*
X162339900Y-92591700D01*
X163616000Y-101692800D02*
X163616000Y-93867800D01*
X162320500Y-102988300D02*
X163616000Y-101692800D01*
X162052000Y-102988300D02*
X162320500Y-102988300D01*
X102903000Y-66067900D02*
X106683800Y-62287100D01*
X102403200Y-66067900D02*
X102903000Y-66067900D01*
X107967700Y-90473600D02*
X107967700Y-94316600D01*
X152902500Y-56410000D02*
X152239500Y-56410000D01*
X155679900Y-59187400D02*
X152902500Y-56410000D01*
X155679900Y-63864700D02*
X155679900Y-59187400D01*
X156703500Y-64888300D02*
X155679900Y-63864700D01*
X156972000Y-64888300D02*
X156703500Y-64888300D01*
X139168400Y-69968300D02*
X138430000Y-69968300D01*
X139581700Y-69555000D02*
X139168400Y-69968300D01*
X139581700Y-58158400D02*
X139581700Y-69555000D01*
X138430000Y-57006700D02*
X139581700Y-58158400D01*
X107227300Y-94316600D02*
X107967700Y-94316600D01*
X105023600Y-96520300D02*
X107227300Y-94316600D01*
X105023600Y-107681900D02*
X105023600Y-96520300D01*
X105410000Y-108068300D02*
X105023600Y-107681900D01*
X127380000Y-62365000D02*
X128481700Y-62365000D01*
X128883400Y-62766700D02*
X128883400Y-66481200D01*
X128481700Y-62365000D02*
X128883400Y-62766700D01*
X123180000Y-63365000D02*
X122078300Y-63365000D01*
X121852900Y-63590400D02*
X121852900Y-63754000D01*
X122078300Y-63365000D02*
X121852900Y-63590400D01*
X122078300Y-59148000D02*
X120911600Y-57981300D01*
X122078300Y-62365000D02*
X122078300Y-59148000D01*
X123180000Y-62365000D02*
X122078300Y-62365000D01*
X111730900Y-50800000D02*
X111677000Y-50800000D01*
X114181700Y-53250800D02*
X111730900Y-50800000D01*
X114181700Y-65681300D02*
X114181700Y-53250800D01*
X116558000Y-68057600D02*
X114181700Y-65681300D01*
X116558000Y-80040000D02*
X116558000Y-68057600D01*
X110059100Y-49617900D02*
X108877000Y-50800000D01*
X116696500Y-49617900D02*
X110059100Y-49617900D01*
X117107600Y-50029000D02*
X116696500Y-49617900D01*
X117107600Y-60221200D02*
X117107600Y-50029000D01*
X121246600Y-64360200D02*
X117107600Y-60221200D01*
X122684800Y-64360200D02*
X121246600Y-64360200D01*
X123180000Y-63865000D02*
X122684800Y-64360200D01*
X116705900Y-51408900D02*
X116097000Y-50800000D01*
X116705900Y-60460000D02*
X116705900Y-51408900D01*
X121072400Y-64826500D02*
X116705900Y-60460000D01*
X123453600Y-64826500D02*
X121072400Y-64826500D01*
X123719900Y-64560200D02*
X123453600Y-64826500D01*
X128076700Y-64560200D02*
X123719900Y-64560200D01*
X128481700Y-64155200D02*
X128076700Y-64560200D01*
X128481700Y-63002700D02*
X128481700Y-64155200D01*
X128344000Y-62865000D02*
X128481700Y-63002700D01*
X127380000Y-62865000D02*
X128344000Y-62865000D01*
X118897000Y-58999200D02*
X118672800Y-59223400D01*
X118897000Y-50800000D02*
X118897000Y-58999200D01*
X119014800Y-63411400D02*
X119014800Y-90212300D01*
X116044000Y-60440600D02*
X119014800Y-63411400D01*
X116044000Y-59223400D02*
X116044000Y-60440600D01*
X108153200Y-71399400D02*
X109554900Y-71399400D01*
X109554900Y-71964200D02*
X109604200Y-72013500D01*
X109554900Y-71399400D02*
X109554900Y-71964200D01*
X129540000Y-70662000D02*
X129540000Y-69341300D01*
X129540000Y-69341300D02*
X129540000Y-65860800D01*
X156972000Y-60960000D02*
X156972000Y-59808300D01*
X153032400Y-55868700D02*
X156972000Y-59808300D01*
X151420800Y-55868700D02*
X153032400Y-55868700D01*
X148279500Y-59010000D02*
X151420800Y-55868700D01*
X146514500Y-59010000D02*
X148279500Y-59010000D01*
X156972000Y-63500000D02*
X156972000Y-62348300D01*
X157786500Y-62348300D02*
X156972000Y-62348300D01*
X158123700Y-62011100D02*
X157786500Y-62348300D01*
X158123700Y-59966300D02*
X158123700Y-62011100D01*
X153615600Y-55458200D02*
X158123700Y-59966300D01*
X150944200Y-55458200D02*
X153615600Y-55458200D01*
X148042400Y-58360000D02*
X150944200Y-55458200D01*
X146514500Y-58360000D02*
X148042400Y-58360000D01*
X113030000Y-73660000D02*
X113030000Y-74811700D01*
X107950000Y-114300000D02*
X107950000Y-113148300D01*
X113030000Y-74811800D02*
X113030000Y-74811700D01*
X113270600Y-74811800D02*
X113030000Y-74811800D01*
X114181700Y-75722900D02*
X113270600Y-74811800D01*
X114181700Y-89377100D02*
X114181700Y-75722900D01*
X113507100Y-90051700D02*
X114181700Y-89377100D01*
X112776400Y-90051700D02*
X113507100Y-90051700D01*
X111841300Y-90986800D02*
X112776400Y-90051700D01*
X111841300Y-107852400D02*
X111841300Y-90986800D01*
X112092400Y-108103500D02*
X111841300Y-107852400D01*
X112092400Y-110392800D02*
X112092400Y-108103500D01*
X109336900Y-113148300D02*
X112092400Y-110392800D01*
X107950000Y-113148300D02*
X109336900Y-113148300D01*
X120918500Y-79921700D02*
X120650000Y-79921700D01*
X121898500Y-80901700D02*
X120918500Y-79921700D01*
X121898500Y-116149800D02*
X121898500Y-80901700D01*
X129057000Y-123308300D02*
X121898500Y-116149800D01*
X129057000Y-124460000D02*
X129057000Y-123308300D01*
X120650000Y-78770000D02*
X120650000Y-79921700D01*
X113030000Y-71120000D02*
X113030000Y-72271700D01*
X105410000Y-114300000D02*
X106561700Y-114300000D01*
X112742000Y-72271700D02*
X113030000Y-72271700D01*
X111417400Y-73596300D02*
X112742000Y-72271700D01*
X111417400Y-108020700D02*
X111417400Y-73596300D01*
X111690700Y-108294000D02*
X111417400Y-108020700D01*
X111690700Y-110226500D02*
X111690700Y-108294000D01*
X110245800Y-111671400D02*
X111690700Y-110226500D01*
X108398500Y-111671400D02*
X110245800Y-111671400D01*
X106561700Y-113508200D02*
X108398500Y-111671400D01*
X106561700Y-114300000D02*
X106561700Y-113508200D01*
X131597000Y-124460000D02*
X131597000Y-123308300D01*
X120650000Y-76230000D02*
X120650000Y-77381700D01*
X123711500Y-115422800D02*
X131597000Y-123308300D01*
X123711500Y-80174700D02*
X123711500Y-115422800D01*
X120918500Y-77381700D02*
X123711500Y-80174700D01*
X120650000Y-77381700D02*
X120918500Y-77381700D01*
X113030000Y-68580000D02*
X113030000Y-69731700D01*
X102870000Y-114300000D02*
X102870000Y-113148300D01*
X112732000Y-69731700D02*
X113030000Y-69731700D01*
X111393000Y-71070700D02*
X112732000Y-69731700D01*
X111393000Y-73016900D02*
X111393000Y-71070700D01*
X110991300Y-73418600D02*
X111393000Y-73016900D01*
X110991300Y-80950600D02*
X110991300Y-73418600D01*
X108453800Y-83488100D02*
X110991300Y-80950600D01*
X108453800Y-88257400D02*
X108453800Y-83488100D01*
X106456200Y-90255000D02*
X108453800Y-88257400D01*
X106456200Y-93866900D02*
X106456200Y-90255000D01*
X104606600Y-95716500D02*
X106456200Y-93866900D01*
X104606600Y-106545000D02*
X104606600Y-95716500D01*
X104140000Y-107011600D02*
X104606600Y-106545000D01*
X104140000Y-111878300D02*
X104140000Y-107011600D01*
X102870000Y-113148300D02*
X104140000Y-111878300D01*
X131569800Y-53527800D02*
X128370000Y-50328000D01*
X135253300Y-53527800D02*
X131569800Y-53527800D01*
X137278300Y-55552800D02*
X135253300Y-53527800D01*
X137278300Y-79264600D02*
X137278300Y-55552800D01*
X138142000Y-80128300D02*
X137278300Y-79264600D01*
X138430000Y-80128300D02*
X138142000Y-80128300D01*
X138430000Y-81280000D02*
X138430000Y-80128300D01*
X138430000Y-88900000D02*
X138430000Y-90051700D01*
X139927000Y-91260800D02*
X139927000Y-112812000D01*
X138717900Y-90051700D02*
X139927000Y-91260800D01*
X138430000Y-90051700D02*
X138717900Y-90051700D01*
X147233500Y-111855500D02*
X146277000Y-112812000D01*
X147233500Y-93487300D02*
X147233500Y-111855500D01*
X146337900Y-92591700D02*
X147233500Y-93487300D01*
X146050000Y-92591700D02*
X146337900Y-92591700D01*
X146050000Y-91440000D02*
X146050000Y-92591700D01*
X156972000Y-101600000D02*
X156972000Y-100448300D01*
X145855400Y-62260000D02*
X146514500Y-62260000D01*
X144884200Y-63231200D02*
X145855400Y-62260000D01*
X144884200Y-74164000D02*
X144884200Y-63231200D01*
X145703900Y-74983700D02*
X144884200Y-74164000D01*
X146479000Y-74983700D02*
X145703900Y-74983700D01*
X147253900Y-75758600D02*
X146479000Y-74983700D01*
X147253900Y-76902100D02*
X147253900Y-75758600D01*
X147656500Y-77304700D02*
X147253900Y-76902100D01*
X147656500Y-81272100D02*
X147656500Y-77304700D01*
X149751800Y-83367400D02*
X147656500Y-81272100D01*
X149751800Y-94042600D02*
X149751800Y-83367400D01*
X156157500Y-100448300D02*
X149751800Y-94042600D01*
X156972000Y-100448300D02*
X156157500Y-100448300D01*
X162052000Y-99060000D02*
X162052000Y-97908300D01*
X158527200Y-94383500D02*
X162052000Y-97908300D01*
X158527200Y-85171200D02*
X158527200Y-94383500D01*
X151204400Y-77848400D02*
X158527200Y-85171200D01*
X151204400Y-65802400D02*
X151204400Y-77848400D01*
X150747500Y-65345500D02*
X151204400Y-65802400D01*
X150747500Y-59790400D02*
X150747500Y-65345500D01*
X151527900Y-59010000D02*
X150747500Y-59790400D01*
X152239500Y-59010000D02*
X151527900Y-59010000D01*
X162052000Y-101600000D02*
X162052000Y-100448300D01*
X162843800Y-100448300D02*
X162052000Y-100448300D01*
X163203700Y-100088400D02*
X162843800Y-100448300D01*
X163203700Y-97826400D02*
X163203700Y-100088400D01*
X159096200Y-93718900D02*
X163203700Y-97826400D01*
X159096200Y-85134700D02*
X159096200Y-93718900D01*
X151607600Y-77646100D02*
X159096200Y-85134700D01*
X151607600Y-65156900D02*
X151607600Y-77646100D01*
X151174300Y-64723600D02*
X151607600Y-65156900D01*
X151174300Y-60041700D02*
X151174300Y-64723600D01*
X151556000Y-59660000D02*
X151174300Y-60041700D01*
X152239500Y-59660000D02*
X151556000Y-59660000D01*
X147227800Y-87811300D02*
X147788600Y-88372100D01*
X147227800Y-78245700D02*
X147227800Y-87811300D01*
X146452100Y-77470000D02*
X147227800Y-78245700D01*
X145650200Y-77470000D02*
X146452100Y-77470000D01*
X144461700Y-76281500D02*
X145650200Y-77470000D01*
X144461700Y-62949800D02*
X144461700Y-76281500D01*
X145801500Y-61610000D02*
X144461700Y-62949800D01*
X146514500Y-61610000D02*
X145801500Y-61610000D01*
X152917300Y-61610000D02*
X152239500Y-61610000D01*
X153938700Y-62631400D02*
X152917300Y-61610000D01*
X153938700Y-71144300D02*
X153938700Y-62631400D01*
X148764100Y-61861200D02*
X148764100Y-73085200D01*
X147212900Y-60310000D02*
X148764100Y-61861200D01*
X146514500Y-60310000D02*
X147212900Y-60310000D01*
X162052000Y-86360000D02*
X162052000Y-85208300D01*
X152915600Y-60310000D02*
X152239500Y-60310000D01*
X155143800Y-62538200D02*
X152915600Y-60310000D01*
X155143800Y-76015300D02*
X155143800Y-62538200D01*
X156598500Y-77470000D02*
X155143800Y-76015300D01*
X157365600Y-77470000D02*
X156598500Y-77470000D01*
X160900300Y-81004700D02*
X157365600Y-77470000D01*
X160900300Y-84056600D02*
X160900300Y-81004700D01*
X162052000Y-85208300D02*
X160900300Y-84056600D01*
X162052000Y-88900000D02*
X162052000Y-87748300D01*
X152941100Y-60960000D02*
X152239500Y-60960000D01*
X154742100Y-62761000D02*
X152941100Y-60960000D01*
X154742100Y-78115200D02*
X154742100Y-62761000D01*
X156636900Y-80010000D02*
X154742100Y-78115200D01*
X157387500Y-80010000D02*
X156636900Y-80010000D01*
X160101300Y-82723800D02*
X157387500Y-80010000D01*
X160101300Y-86612100D02*
X160101300Y-82723800D01*
X161237500Y-87748300D02*
X160101300Y-86612100D01*
X162052000Y-87748300D02*
X161237500Y-87748300D01*
X142827200Y-90215300D02*
X142827200Y-69845000D01*
X150321000Y-69049300D02*
X150376100Y-69104400D01*
X150321000Y-58969600D02*
X150321000Y-69049300D01*
X151580600Y-57710000D02*
X150321000Y-58969600D01*
X152239500Y-57710000D02*
X151580600Y-57710000D01*
X149371400Y-76071700D02*
X149243100Y-76200000D01*
X149371400Y-72841600D02*
X149371400Y-76071700D01*
X149243100Y-72713300D02*
X149371400Y-72841600D01*
X149243100Y-61727100D02*
X149243100Y-72713300D01*
X147176000Y-59660000D02*
X149243100Y-61727100D01*
X146514500Y-59660000D02*
X147176000Y-59660000D01*
X156972000Y-88900000D02*
X156972000Y-87748300D01*
X156157500Y-87748300D02*
X156972000Y-87748300D01*
X155582200Y-87173000D02*
X156157500Y-87748300D01*
X155582200Y-84068900D02*
X155582200Y-87173000D01*
X148147300Y-76634000D02*
X155582200Y-84068900D01*
X148147300Y-61936600D02*
X148147300Y-76634000D01*
X147170700Y-60960000D02*
X148147300Y-61936600D01*
X146514500Y-60960000D02*
X147170700Y-60960000D01*
X156972000Y-99060000D02*
X156972000Y-97908300D01*
X150153500Y-91089800D02*
X156972000Y-97908300D01*
X150153500Y-83201100D02*
X150153500Y-91089800D01*
X149950900Y-82998500D02*
X150153500Y-83201100D01*
X149950900Y-79005600D02*
X149950900Y-82998500D01*
X149950800Y-79005600D02*
X149950900Y-79005600D01*
X147707700Y-76762500D02*
X149950800Y-79005600D01*
X147707700Y-63443400D02*
X147707700Y-76762500D01*
X147174300Y-62910000D02*
X147707700Y-63443400D01*
X146514500Y-62910000D02*
X147174300Y-62910000D01*
X149844800Y-77480400D02*
X150550500Y-78186100D01*
X149844800Y-71383900D02*
X149844800Y-77480400D01*
X149754100Y-71293200D02*
X149844800Y-71383900D01*
X149754100Y-58842700D02*
X149754100Y-71293200D01*
X151536800Y-57060000D02*
X149754100Y-58842700D01*
X152239500Y-57060000D02*
X151536800Y-57060000D01*
X152239500Y-63560000D02*
X152239500Y-64669400D01*
X153298700Y-63270000D02*
X153298700Y-65277000D01*
X152938700Y-62910000D02*
X153298700Y-63270000D01*
X152239500Y-62910000D02*
X152938700Y-62910000D01*
X135890000Y-55855000D02*
X135890000Y-57006700D01*
X136756600Y-57873300D02*
X136756600Y-95173100D01*
X135890000Y-57006700D02*
X136756600Y-57873300D01*
X98927000Y-95252000D02*
X99005900Y-95173100D01*
X98927000Y-96673900D02*
X98927000Y-95252000D01*
X99122700Y-96869600D02*
X98927000Y-96673900D01*
X99122700Y-97354400D02*
X99122700Y-96869600D01*
X98949700Y-97527400D02*
X99122700Y-97354400D01*
X98949700Y-97610000D02*
X98949700Y-97527400D01*
X99556300Y-98216600D02*
X98949700Y-97610000D01*
X102242700Y-98216600D02*
X99556300Y-98216600D01*
X102980800Y-97566600D02*
X102242700Y-97566600D01*
X103704300Y-96843100D02*
X102980800Y-97566600D01*
X103704300Y-95469800D02*
X103704300Y-96843100D01*
X104321400Y-94852700D02*
X103704300Y-95469800D01*
X104321400Y-94539300D02*
X104321400Y-94852700D01*
X124795200Y-72539300D02*
X124795200Y-92710000D01*
X124270000Y-72014100D02*
X124795200Y-72539300D01*
X124270000Y-66507100D02*
X124270000Y-72014100D01*
X125519900Y-65257200D02*
X124270000Y-66507100D01*
X133350000Y-55855000D02*
X133350000Y-57006700D01*
X133251900Y-57006700D02*
X130088000Y-60170600D01*
X133350000Y-57006700D02*
X133251900Y-57006700D01*
X106586600Y-107282200D02*
X106586600Y-110577600D01*
X106466300Y-107161900D02*
X106586600Y-107282200D01*
X106466300Y-99633300D02*
X106466300Y-107161900D01*
X107233000Y-98866600D02*
X106466300Y-99633300D01*
X107967700Y-98866600D02*
X107233000Y-98866600D01*
X108855500Y-84332100D02*
X110074400Y-83113200D01*
X108855500Y-85060000D02*
X108855500Y-84332100D01*
X109021700Y-85226200D02*
X108855500Y-85060000D01*
X109021700Y-94568800D02*
X109021700Y-85226200D01*
X108623900Y-94966600D02*
X109021700Y-94568800D01*
X107967700Y-94966600D02*
X108623900Y-94966600D01*
X96037000Y-73660000D02*
X96037000Y-74811700D01*
X101020300Y-100816600D02*
X102242700Y-100816600D01*
X98105000Y-97901300D02*
X101020300Y-100816600D01*
X98105000Y-97236100D02*
X98105000Y-97901300D01*
X98105100Y-97236000D02*
X98105000Y-97236100D01*
X98105100Y-97161800D02*
X98105100Y-97236000D01*
X97992100Y-97048800D02*
X98105100Y-97161800D01*
X97992100Y-94176500D02*
X97992100Y-97048800D01*
X98192900Y-93975700D02*
X97992100Y-94176500D01*
X98192900Y-76967600D02*
X98192900Y-93975700D01*
X96037000Y-74811700D02*
X98192900Y-76967600D01*
X99798100Y-74297800D02*
X99798100Y-69349700D01*
X100801500Y-75301200D02*
X99798100Y-74297800D01*
X100801500Y-89258100D02*
X100801500Y-75301200D01*
X100744900Y-89314700D02*
X100801500Y-89258100D01*
X100744900Y-96129800D02*
X100744900Y-89314700D01*
X101531700Y-96916600D02*
X100744900Y-96129800D01*
X102242700Y-96916600D02*
X101531700Y-96916600D01*
X107985500Y-66583900D02*
X107985500Y-54077600D01*
X109433500Y-68031900D02*
X107985500Y-66583900D01*
X96037000Y-71120000D02*
X96037000Y-72271700D01*
X101506200Y-100166600D02*
X102242700Y-100166600D01*
X99957900Y-98618300D02*
X101506200Y-100166600D01*
X99390000Y-98618300D02*
X99957900Y-98618300D01*
X98506700Y-97735000D02*
X99390000Y-98618300D01*
X98506700Y-97402400D02*
X98506700Y-97735000D01*
X98668900Y-97240200D02*
X98506700Y-97402400D01*
X98668900Y-97157600D02*
X98668900Y-97240200D01*
X98393800Y-96882500D02*
X98668900Y-97157600D01*
X98393800Y-94396700D02*
X98393800Y-96882500D01*
X98594600Y-94195900D02*
X98393800Y-94396700D01*
X98594600Y-74037400D02*
X98594600Y-94195900D01*
X96828900Y-72271700D02*
X98594600Y-74037400D01*
X96037000Y-72271700D02*
X96828900Y-72271700D01*
X108769600Y-100816600D02*
X109818500Y-99767700D01*
X107967700Y-100816600D02*
X108769600Y-100816600D01*
X100183400Y-97081600D02*
X100183400Y-86955000D01*
X103403100Y-105737300D02*
X103719700Y-106053900D01*
X103403100Y-102747900D02*
X103403100Y-105737300D01*
X103719700Y-102431300D02*
X103403100Y-102747900D01*
X103719700Y-99670400D02*
X103719700Y-102431300D01*
X102915900Y-98866600D02*
X103719700Y-99670400D01*
X102242700Y-98866600D02*
X102915900Y-98866600D01*
X109216800Y-99579100D02*
X109216800Y-98867300D01*
X108629300Y-100166600D02*
X109216800Y-99579100D01*
X107967700Y-100166600D02*
X108629300Y-100166600D01*
X109457300Y-94821900D02*
X109457300Y-84590800D01*
X108662600Y-95616600D02*
X109457300Y-94821900D01*
X107967700Y-95616600D02*
X108662600Y-95616600D01*
X106883700Y-101978400D02*
X107884200Y-102978900D01*
X106883700Y-99944400D02*
X106883700Y-101978400D01*
X107311500Y-99516600D02*
X106883700Y-99944400D01*
X107967700Y-99516600D02*
X107311500Y-99516600D01*
X110440000Y-105578300D02*
X107950000Y-108068300D01*
X110440000Y-99232500D02*
X110440000Y-105578300D01*
X108774100Y-97566600D02*
X110440000Y-99232500D01*
X107967700Y-97566600D02*
X108774100Y-97566600D01*
X107950000Y-109220000D02*
X107950000Y-108068300D01*
X99667600Y-95701800D02*
X99571200Y-95798200D01*
X99667600Y-94193600D02*
X99667600Y-95701800D01*
X99468800Y-93994800D02*
X99667600Y-94193600D01*
X99468800Y-84026400D02*
X99468800Y-93994800D01*
X107967700Y-102171300D02*
X107969300Y-102172900D01*
X107967700Y-101466600D02*
X107967700Y-102171300D01*
X110490000Y-109220000D02*
X110490000Y-108068300D01*
X108789300Y-96916600D02*
X107967700Y-96916600D01*
X110891700Y-99019000D02*
X108789300Y-96916600D01*
X110891700Y-107666600D02*
X110891700Y-99019000D01*
X110490000Y-108068300D02*
X110891700Y-107666600D01*
X113554300Y-64747500D02*
X113554300Y-53475900D01*
X110871700Y-67430100D02*
X113554300Y-64747500D01*
X110871700Y-72770000D02*
X110871700Y-67430100D01*
X108053600Y-75588100D02*
X110871700Y-72770000D01*
X108053600Y-83320300D02*
X108053600Y-75588100D01*
X101195300Y-90178600D02*
X108053600Y-83320300D01*
X101195300Y-95892700D02*
X101195300Y-90178600D01*
X101569200Y-96266600D02*
X101195300Y-95892700D01*
X102242700Y-96266600D02*
X101569200Y-96266600D01*
X103001400Y-102581600D02*
X103001400Y-107308900D01*
X103318000Y-102265000D02*
X103001400Y-102581600D01*
X103318000Y-99935700D02*
X103318000Y-102265000D01*
X102898900Y-99516600D02*
X103318000Y-99935700D01*
X102242700Y-99516600D02*
X102898900Y-99516600D01*
X147974700Y-57710000D02*
X146514500Y-57710000D01*
X148426400Y-57258300D02*
X147974700Y-57710000D01*
X148426400Y-56813600D02*
X148426400Y-57258300D01*
X146067800Y-54455000D02*
X148426400Y-56813600D01*
X144908600Y-54455000D02*
X146067800Y-54455000D01*
X143418300Y-58816500D02*
X143418300Y-65024000D01*
X145824800Y-56410000D02*
X143418300Y-58816500D01*
X146514500Y-56410000D02*
X145824800Y-56410000D01*
X146514500Y-57060000D02*
X147773100Y-57060000D01*
X102930700Y-95616600D02*
X102242700Y-95616600D01*
X103719700Y-94827600D02*
X102930700Y-95616600D01*
X103719700Y-93898400D02*
X103719700Y-94827600D01*
X103929800Y-93688300D02*
X103719700Y-93898400D01*
X105630100Y-97903400D02*
X105630100Y-100073200D01*
X107266900Y-96266600D02*
X105630100Y-97903400D01*
X107967700Y-96266600D02*
X107266900Y-96266600D01*
X102898900Y-94966600D02*
X102242700Y-94966600D01*
X103304300Y-94561200D02*
X102898900Y-94966600D01*
X103304300Y-93457200D02*
X103304300Y-94561200D01*
X103716400Y-93045100D02*
X103304300Y-93457200D01*
X104180500Y-93045100D02*
X103716400Y-93045100D01*
X104923200Y-93787800D02*
X104180500Y-93045100D01*
X104923200Y-94829700D02*
X104923200Y-93787800D01*
X104164700Y-95588200D02*
X104923200Y-94829700D01*
X104164700Y-102837100D02*
X104164700Y-95588200D01*
X104004800Y-102997000D02*
X104164700Y-102837100D01*
X102242700Y-94316600D02*
X102242700Y-92207000D01*
X97590400Y-104193100D02*
X97590400Y-91987100D01*
X97791300Y-104394000D02*
X97590400Y-104193100D01*
X152263800Y-58384300D02*
X153484500Y-58384300D01*
X152239500Y-58360000D02*
X152263800Y-58384300D01*
X134382000Y-62525000D02*
X134382000Y-61774800D01*
X115217000Y-53340000D02*
X115217000Y-54728600D01*
X102403200Y-71399400D02*
X101001500Y-71399400D01*
X101001500Y-71399400D02*
X101001500Y-65517400D01*
X101417400Y-60167900D02*
X101417400Y-64260700D01*
X134382000Y-64475000D02*
X134382000Y-72873400D01*
X106019600Y-81610600D02*
X106019600Y-74727800D01*
X118117000Y-123855200D02*
X118117000Y-120475200D01*
X109467000Y-123855200D02*
X109467000Y-120475200D01*
X108153200Y-68859400D02*
X108153200Y-67997600D01*
X108153200Y-70129400D02*
X109554900Y-70129400D01*
X110068300Y-66581000D02*
X109847300Y-66360000D01*
X110068300Y-69616000D02*
X110068300Y-66581000D01*
X109554900Y-70129400D02*
X110068300Y-69616000D01*
X131673800Y-62525000D02*
X132140800Y-62992000D01*
X130082000Y-62525000D02*
X131673800Y-62525000D01*
X132406900Y-64721700D02*
X132406900Y-78894400D01*
X130860200Y-63175000D02*
X132406900Y-64721700D01*
X130082000Y-63175000D02*
X130860200Y-63175000D01*
X134382000Y-63175000D02*
X134382000Y-63825000D01*
X139954000Y-123190000D02*
X139954000Y-122088300D01*
X135833200Y-63175000D02*
X134382000Y-63175000D01*
X135833200Y-63175000D02*
X135833200Y-57856600D01*
X106037800Y-86940700D02*
X106019600Y-86958900D01*
X107573200Y-86940700D02*
X106037800Y-86940700D01*
X106019600Y-88010600D02*
X106019600Y-86958900D01*
X135833200Y-63175000D02*
X135833200Y-80745100D01*
X135833200Y-117967500D02*
X139954000Y-122088300D01*
X135833200Y-80745100D02*
X135833200Y-117967500D01*
X131403400Y-64429500D02*
X131403400Y-65085200D01*
X130798900Y-63825000D02*
X131403400Y-64429500D01*
X130082000Y-63825000D02*
X130798900Y-63825000D01*
X133570300Y-63175000D02*
X134382000Y-63175000D01*
X133129300Y-63616000D02*
X133570300Y-63175000D01*
X133129300Y-66328000D02*
X133129300Y-63616000D01*
X112417000Y-60252200D02*
X112417000Y-53340000D01*
X111683800Y-60985400D02*
X112417000Y-60252200D01*
X110817000Y-120845200D02*
X110817000Y-119495200D01*
X116767000Y-120845200D02*
X116767000Y-119495200D01*
X105904800Y-73516100D02*
X106751500Y-72669400D01*
X105278200Y-73516100D02*
X105904800Y-73516100D01*
X105278200Y-70764400D02*
X105278200Y-73516100D01*
X140970000Y-50800000D02*
X140970000Y-55855000D01*
X115097000Y-101990800D02*
X115097000Y-114300000D01*
X113317900Y-100211700D02*
X115097000Y-101990800D01*
X113030000Y-100211700D02*
X113317900Y-100211700D01*
X113030000Y-99060000D02*
X113030000Y-100211700D01*
X146050000Y-73660000D02*
X146050000Y-72508300D01*
X102870000Y-109220000D02*
X102870000Y-108068300D01*
X158750000Y-109609700D02*
X156972000Y-107831700D01*
X158750000Y-121920000D02*
X158750000Y-109609700D01*
X129540000Y-76200000D02*
X129540000Y-74879300D01*
X129540000Y-77520700D02*
X128270000Y-77520700D01*
X129540000Y-86360000D02*
X129540000Y-77520700D01*
X129540000Y-77520700D02*
X129540000Y-76200000D01*
X128270000Y-76200000D02*
X128270000Y-76860300D01*
X128270000Y-76860300D02*
X128270000Y-77520700D01*
X127000000Y-76200000D02*
X127000000Y-77520700D01*
X130810000Y-76200000D02*
X130810000Y-74879300D01*
X96037000Y-104140000D02*
X96037000Y-105291700D01*
X96037000Y-57633000D02*
X100330000Y-53340000D01*
X96037000Y-66040000D02*
X96037000Y-57633000D01*
X96037000Y-78740000D02*
X96037000Y-79891700D01*
X96037000Y-91440000D02*
X96037000Y-90288300D01*
X158154000Y-105999400D02*
X156972000Y-107181400D01*
X158154000Y-96313700D02*
X158154000Y-105999400D01*
X156972000Y-95131700D02*
X158154000Y-96313700D01*
X156972000Y-106680000D02*
X156972000Y-107181400D01*
X156972000Y-107181400D02*
X156972000Y-107831700D01*
X156972000Y-93980000D02*
X156972000Y-95131700D01*
X162052000Y-81280000D02*
X162052000Y-80128300D01*
X156972000Y-68580000D02*
X156972000Y-69731700D01*
X105278200Y-70764400D02*
X105278200Y-66511500D01*
X127609600Y-77520700D02*
X127329900Y-77520700D01*
X128270000Y-76860300D02*
X127609600Y-77520700D01*
X127329900Y-77520700D02*
X127000000Y-77520700D01*
X127329900Y-77730300D02*
X127329900Y-77520700D01*
X105278200Y-73516100D02*
X105278200Y-78740000D01*
X108067400Y-72669400D02*
X106751500Y-72669400D01*
X108067400Y-72669400D02*
X108153200Y-72669400D01*
X102242700Y-107441000D02*
X102870000Y-108068300D01*
X102242700Y-101466600D02*
X102242700Y-107441000D01*
X158750000Y-69731700D02*
X158750000Y-53340000D01*
X158750000Y-77114200D02*
X158750000Y-69731700D01*
X161764100Y-80128300D02*
X158750000Y-77114200D01*
X162052000Y-80128300D02*
X161764100Y-80128300D01*
X158750000Y-69731700D02*
X156972000Y-69731700D01*
X124281700Y-62863500D02*
X124280200Y-62865000D01*
X124281700Y-57239700D02*
X124281700Y-62863500D01*
X121870000Y-54828000D02*
X124281700Y-57239700D01*
X130810000Y-74879300D02*
X129540000Y-74879300D01*
X156997000Y-81280000D02*
X156997000Y-82431700D01*
X96037000Y-105291700D02*
X97188700Y-105291700D01*
X97188700Y-89136600D02*
X96037000Y-90288300D01*
X97188700Y-80774900D02*
X97188700Y-89136600D01*
X96305500Y-79891700D02*
X97188700Y-80774900D01*
X96037000Y-79891700D02*
X96305500Y-79891700D01*
X124180100Y-62865000D02*
X124280000Y-62865000D01*
X123180000Y-62865000D02*
X124180100Y-62865000D01*
X124280000Y-62865000D02*
X124280200Y-62865000D01*
X127380000Y-63365000D02*
X126278300Y-63365000D01*
X131451300Y-69016500D02*
X131805200Y-69016500D01*
X131451300Y-74238000D02*
X131451300Y-69016500D01*
X130810000Y-74879300D02*
X131451300Y-74238000D01*
X97188700Y-92460200D02*
X97188700Y-105291700D01*
X96787900Y-92059400D02*
X97188700Y-92460200D01*
X96787900Y-91228600D02*
X96787900Y-92059400D01*
X96841300Y-91175200D02*
X96787900Y-91228600D01*
X96841300Y-91092600D02*
X96841300Y-91175200D01*
X96037000Y-90288300D02*
X96841300Y-91092600D01*
X131451300Y-65983900D02*
X131451300Y-69016500D01*
X130082000Y-64614600D02*
X131451300Y-65983900D01*
X130082000Y-64475000D02*
X130082000Y-64614600D01*
X159699600Y-85134300D02*
X156997000Y-82431700D01*
X159699600Y-91627600D02*
X159699600Y-85134300D01*
X162052000Y-93980000D02*
X159699600Y-91627600D01*
X119487100Y-57210900D02*
X119487100Y-59497100D01*
X121870000Y-54828000D02*
X119487100Y-57210900D01*
X124305000Y-62889800D02*
X124280200Y-62865000D01*
X124305000Y-63729300D02*
X124305000Y-62889800D01*
X124594300Y-64018600D02*
X124305000Y-63729300D01*
X125886000Y-64018600D02*
X124594300Y-64018600D01*
X126278300Y-63626300D02*
X125886000Y-64018600D01*
X126278300Y-63365000D02*
X126278300Y-63626300D01*
X146338000Y-72508300D02*
X146050000Y-72508300D01*
X147293800Y-71552500D02*
X146338000Y-72508300D01*
X147293800Y-64339300D02*
X147293800Y-71552500D01*
X146514500Y-63560000D02*
X147293800Y-64339300D01*
X110470000Y-62199200D02*
X111683800Y-60985400D01*
X110470000Y-72064900D02*
X110470000Y-62199200D01*
X109865500Y-72669400D02*
X110470000Y-72064900D01*
X108153200Y-72669400D02*
X109865500Y-72669400D01*
X102838700Y-108099600D02*
X100330000Y-108099600D01*
X102870000Y-108068300D02*
X102838700Y-108099600D01*
X100330000Y-121920000D02*
X100330000Y-108099600D01*
X97522100Y-105291700D02*
X97188700Y-105291700D01*
X100330000Y-108099600D02*
X97522100Y-105291700D01*
M02*
