G04 #@! TF.GenerationSoftware,KiCad,Pcbnew,8.0.7*
G04 #@! TF.CreationDate,2025-01-26T00:40:11-05:00*
G04 #@! TF.ProjectId,shadow,73686164-6f77-42e6-9b69-6361645f7063,rev?*
G04 #@! TF.SameCoordinates,Original*
G04 #@! TF.FileFunction,Paste,Bot*
G04 #@! TF.FilePolarity,Positive*
%FSLAX46Y46*%
G04 Gerber Fmt 4.6, Leading zero omitted, Abs format (unit mm)*
G04 Created by KiCad (PCBNEW 8.0.7) date 2025-01-26 00:40:11*
%MOMM*%
%LPD*%
G01*
G04 APERTURE LIST*
G04 Aperture macros list*
%AMRoundRect*
0 Rectangle with rounded corners*
0 $1 Rounding radius*
0 $2 $3 $4 $5 $6 $7 $8 $9 X,Y pos of 4 corners*
0 Add a 4 corners polygon primitive as box body*
4,1,4,$2,$3,$4,$5,$6,$7,$8,$9,$2,$3,0*
0 Add four circle primitives for the rounded corners*
1,1,$1+$1,$2,$3*
1,1,$1+$1,$4,$5*
1,1,$1+$1,$6,$7*
1,1,$1+$1,$8,$9*
0 Add four rect primitives between the rounded corners*
20,1,$1+$1,$2,$3,$4,$5,0*
20,1,$1+$1,$4,$5,$6,$7,0*
20,1,$1+$1,$6,$7,$8,$9,0*
20,1,$1+$1,$8,$9,$2,$3,0*%
G04 Aperture macros list end*
%ADD10RoundRect,0.079500X-0.079500X-0.100500X0.079500X-0.100500X0.079500X0.100500X-0.079500X0.100500X0*%
%ADD11RoundRect,0.250000X-0.375000X-0.625000X0.375000X-0.625000X0.375000X0.625000X-0.375000X0.625000X0*%
%ADD12RoundRect,0.250000X0.325000X0.650000X-0.325000X0.650000X-0.325000X-0.650000X0.325000X-0.650000X0*%
%ADD13RoundRect,0.079500X0.079500X0.100500X-0.079500X0.100500X-0.079500X-0.100500X0.079500X-0.100500X0*%
%ADD14RoundRect,0.079500X-0.100500X0.079500X-0.100500X-0.079500X0.100500X-0.079500X0.100500X0.079500X0*%
%ADD15RoundRect,0.250000X0.312500X0.625000X-0.312500X0.625000X-0.312500X-0.625000X0.312500X-0.625000X0*%
%ADD16RoundRect,0.250000X-0.312500X-0.625000X0.312500X-0.625000X0.312500X0.625000X-0.312500X0.625000X0*%
%ADD17RoundRect,0.250000X0.625000X-0.312500X0.625000X0.312500X-0.625000X0.312500X-0.625000X-0.312500X0*%
%ADD18RoundRect,0.250000X0.650000X-0.325000X0.650000X0.325000X-0.650000X0.325000X-0.650000X-0.325000X0*%
%ADD19RoundRect,0.079500X0.100500X-0.079500X0.100500X0.079500X-0.100500X0.079500X-0.100500X-0.079500X0*%
G04 APERTURE END LIST*
D10*
X105598000Y-75438000D03*
X106288000Y-75438000D03*
D11*
X100736000Y-78740000D03*
X103536000Y-78740000D03*
D12*
X127992000Y-73660000D03*
X125042000Y-73660000D03*
D13*
X142701000Y-61214000D03*
X142011000Y-61214000D03*
X100283000Y-66294000D03*
X99593000Y-66294000D03*
D12*
X99239600Y-62230000D03*
X96289600Y-62230000D03*
D10*
X128712000Y-78105000D03*
X129402000Y-78105000D03*
D14*
X109372000Y-83130000D03*
X109372000Y-83820000D03*
D13*
X99267000Y-98806000D03*
X98577000Y-98806000D03*
D12*
X103657000Y-83820000D03*
X100707000Y-83820000D03*
D13*
X99242000Y-101600000D03*
X98552000Y-101600000D03*
X123052000Y-53340000D03*
X122362000Y-53340000D03*
D11*
X132102000Y-74295000D03*
X134902000Y-74295000D03*
D12*
X150598000Y-51816000D03*
X147648000Y-51816000D03*
D13*
X119587000Y-53340000D03*
X118897000Y-53340000D03*
D15*
X153379500Y-80645000D03*
X150454500Y-80645000D03*
D13*
X153471000Y-69850000D03*
X152781000Y-69850000D03*
X142392000Y-64135000D03*
X141702000Y-64135000D03*
X103494000Y-91694000D03*
X102804000Y-91694000D03*
X150992000Y-69845000D03*
X150302000Y-69845000D03*
D12*
X101576000Y-70866000D03*
X98626000Y-70866000D03*
X116152000Y-56220000D03*
X113202000Y-56220000D03*
D15*
X153379500Y-85090000D03*
X150454500Y-85090000D03*
D13*
X108127000Y-88646000D03*
X107437000Y-88646000D03*
D16*
X121879500Y-59055000D03*
X124804500Y-59055000D03*
D13*
X150987000Y-72009000D03*
X150297000Y-72009000D03*
D12*
X131040000Y-62230000D03*
X128090000Y-62230000D03*
D13*
X118110000Y-116840000D03*
X117420000Y-116840000D03*
D12*
X103657000Y-81280000D03*
X100707000Y-81280000D03*
X137517000Y-59690000D03*
X134567000Y-59690000D03*
D15*
X128930000Y-68199000D03*
X126005000Y-68199000D03*
D10*
X134137000Y-78232000D03*
X134827000Y-78232000D03*
D16*
X113828100Y-64617600D03*
X116753100Y-64617600D03*
D14*
X109057000Y-65695000D03*
X109057000Y-66385000D03*
D13*
X143027000Y-57785000D03*
X142337000Y-57785000D03*
D12*
X133641500Y-68199000D03*
X130691500Y-68199000D03*
D17*
X119126000Y-63754000D03*
X119126000Y-60829000D03*
D18*
X110607300Y-58474400D03*
X110607300Y-55524400D03*
D10*
X130617000Y-80010000D03*
X131307000Y-80010000D03*
X108875000Y-75438000D03*
X109565000Y-75438000D03*
D13*
X125912000Y-78105000D03*
X125222000Y-78105000D03*
X146329000Y-54483000D03*
X145639000Y-54483000D03*
D18*
X105537000Y-67997600D03*
X105537000Y-65047600D03*
D13*
X107426000Y-91694000D03*
X106736000Y-91694000D03*
D14*
X109499000Y-78715000D03*
X109499000Y-79405000D03*
D19*
X102133000Y-66294000D03*
X102133000Y-65604000D03*
D13*
X140161000Y-62992000D03*
X139471000Y-62992000D03*
X153852000Y-55245000D03*
X153162000Y-55245000D03*
X103225600Y-60071000D03*
X102535600Y-60071000D03*
X153446000Y-72009000D03*
X152756000Y-72009000D03*
M02*
