M48
; DRILL file {KiCad 8.0.7} date 2025-01-25T22:31:18-0500
; FORMAT={-:-/ absolute / inch / decimal}
; #@! TF.CreationDate,2025-01-25T22:31:18-05:00
; #@! TF.GenerationSoftware,Kicad,Pcbnew,8.0.7
; #@! TF.FileFunction,Plated,1,2,PTH
FMAT,2
INCH
; #@! TA.AperFunction,Plated,PTH,ComponentDrill
T1C0.0079
; #@! TA.AperFunction,Plated,PTH,ViaDrill
T2C0.0118
; #@! TA.AperFunction,Plated,PTH,ComponentDrill
T3C0.0130
; #@! TA.AperFunction,Plated,PTH,ComponentDrill
T4C0.0157
; #@! TA.AperFunction,Plated,PTH,ComponentDrill
T5C0.0236
; #@! TA.AperFunction,Plated,PTH,ComponentDrill
T6C0.0315
; #@! TA.AperFunction,Plated,PTH,ComponentDrill
T7C0.0394
; #@! TA.AperFunction,Plated,PTH,ComponentDrill
T8C0.0433
; #@! TA.AperFunction,Plated,PTH,ComponentDrill
T9C0.1693
%
G90
G05
T1
X5.0646Y-2.4514
X5.0646Y-2.4986
X5.0823Y-2.475
X5.1Y-2.4514
X5.1Y-2.4986
T2
X3.9775Y-3.0708
X4.0021Y-4.11
X4.0131Y-2.401
X4.0494Y-2.294
X4.0686Y-2.3204
X4.124Y-3.0124
X4.1252Y-3.7644
X4.1264Y-2.5838
X4.1422Y-3.3694
X4.1573Y-2.3874
X4.1753Y-3.6331
X4.2162Y-3.5633
X4.2326Y-4.2112
X4.2468Y-4.4485
X4.2692Y-4.0493
X4.2789Y-2.0546
X4.2804Y-4.1629
X4.2879Y-3.768
X4.3092Y-3.7928
X4.324Y-3.3474
X4.3482Y-4.4
X4.3519Y-3.801
X4.3855Y-2.9502
X4.403Y-2.1621
X4.408Y-2.6771
X4.4337Y-4.0432
X4.443Y-3.61
X4.4618Y-2.6377
X4.4773Y-2.5776
X4.4826Y-2.0307
X4.6421Y-2.3021
X4.6816Y-3.1487
X4.6861Y-2.1546
X4.7082Y-2.9012
X4.7289Y-4.5733
X4.7389Y-2.7512
X4.7643Y-4.6285
X4.7655Y-2.2134
X4.8284Y-2.4676
X4.9053Y-2.2916
X4.906Y-2.325
X4.9474Y-2.51
X5.0569Y-3.2015
X5.0806Y-3.103
X5.0823Y-2.4056
X5.1541Y-2.7217
X5.169Y-2.3855
X5.1739Y-3.0711
X5.25Y-2.6072
X5.3378Y-2.6785
X5.3524Y-2.48
X5.3913Y-2.6294
X5.3913Y-3.2252
X5.4284Y-2.8754
X5.4406Y-2.4321
X5.535Y-3.4474
X5.6582Y-2.6466
X5.845Y-2.56
X5.8689Y-2.366
X5.9129Y-2.5303
X5.9677Y-2.2465
X6.02Y-2.0625
X6.0282Y-3.3204
X6.0493Y-2.9
X6.073Y-3.0
X6.081Y-2.6788
X6.0829Y-2.7156
X6.1001Y-3.083
X6.1437Y-2.5473
X6.1488Y-3.4809
X6.1596Y-2.9179
X6.169Y-2.5713
X6.1927Y-2.2986
X6.1957Y-2.8632
T3
X4.2692Y-2.7348
X4.2692Y-2.786
X4.2692Y-2.8372
X4.3204Y-2.7348
X4.3204Y-2.786
X4.3204Y-2.8372
T4
X4.5129Y-4.7045
X4.5129Y-4.7577
X4.5463Y-4.7045
X4.5463Y-4.7577
X4.5798Y-4.7045
X4.5798Y-4.7577
X4.6133Y-4.7045
X4.6133Y-4.7577
X4.6467Y-4.7045
X4.6467Y-4.7577
X4.6802Y-4.7045
X4.6802Y-4.7577
X4.7137Y-4.7045
X4.7137Y-4.7577
X4.7471Y-4.7045
X4.7471Y-4.7577
T6
X5.66Y-4.83
X5.96Y-4.83
T7
X3.931Y-2.6
X3.931Y-2.7
X3.931Y-2.8
X3.931Y-2.9
X3.931Y-3.1
X3.931Y-3.2
X3.931Y-3.3
X3.931Y-3.4
X3.931Y-3.6
X3.931Y-3.7
X3.931Y-3.8
X3.931Y-3.9
X3.931Y-4.1
X3.931Y-4.2
X3.931Y-4.3
X3.931Y-4.4
X4.2Y-4.3
X4.2Y-4.5
X4.3Y-4.3
X4.3Y-4.5
X4.3501Y-2.401
X4.4Y-4.3
X4.4Y-4.5
X4.5Y-4.3
X4.547Y-2.401
X4.581Y-2.7012
X4.581Y-2.8012
X4.581Y-2.9012
X4.581Y-3.0012
X4.581Y-3.1012
X4.581Y-3.2012
X4.581Y-3.3012
X4.581Y-3.4012
X4.581Y-3.5012
X4.581Y-3.6012
X4.581Y-3.7012
X4.581Y-3.8012
X4.581Y-3.9012
X4.581Y-4.0012
X4.581Y-4.1012
X4.5814Y-4.5
X4.6814Y-4.5
X4.7814Y-4.5
X4.881Y-2.7012
X4.881Y-2.8012
X4.881Y-2.9012
X4.881Y-3.0012
X4.881Y-3.1012
X4.881Y-3.2012
X4.881Y-3.3012
X4.881Y-3.4012
X4.881Y-3.5012
X4.881Y-3.6012
X4.881Y-3.7012
X4.881Y-3.8012
X4.881Y-3.9012
X4.881Y-4.0012
X4.881Y-4.1012
X4.8814Y-4.5
X5.1Y-4.5
X5.1984Y-4.5
X5.231Y-4.9
X5.331Y-4.9
X5.4Y-2.0
X5.4Y-2.199
X5.5Y-2.0
X5.5Y-2.199
X5.6Y-2.0
X5.6Y-2.199
X5.631Y-2.7012
X5.631Y-2.8012
X5.631Y-2.9012
X5.631Y-3.0012
X5.631Y-3.1012
X5.631Y-3.2012
X5.631Y-3.3012
X5.631Y-3.4012
X5.631Y-3.5012
X5.631Y-3.6012
X5.631Y-3.7012
X5.631Y-3.8012
X5.631Y-3.9012
X5.631Y-4.0012
X5.631Y-4.1012
X5.7Y-2.0
X5.7Y-2.199
X5.931Y-2.7012
X5.931Y-2.8012
X5.931Y-2.9012
X5.931Y-3.0012
X5.931Y-3.1012
X5.931Y-3.2012
X5.931Y-3.3012
X5.931Y-3.4012
X5.931Y-3.5012
X5.931Y-3.6012
X5.931Y-3.7012
X5.931Y-3.8012
X5.931Y-3.9012
X5.931Y-4.0012
X5.931Y-4.1012
X6.33Y-2.4
X6.33Y-2.5
X6.33Y-2.6
X6.33Y-2.7
X6.33Y-3.4
X6.33Y-3.5
X6.33Y-3.6
X6.33Y-3.7
X6.33Y-3.9
X6.33Y-4.0
X6.33Y-4.1
X6.33Y-4.2
X6.331Y-2.9
X6.331Y-3.0
X6.331Y-3.1
X6.331Y-3.2
X6.53Y-2.4
X6.53Y-2.5
X6.53Y-2.6
X6.53Y-2.7
X6.53Y-2.9
X6.53Y-3.0
X6.53Y-3.1
X6.53Y-3.2
X6.53Y-3.4
X6.53Y-3.5
X6.53Y-3.6
X6.53Y-3.7
X6.53Y-3.9
X6.53Y-4.0
X6.53Y-4.1
X6.53Y-4.2
T8
X4.948Y-1.9814
X4.948Y-2.1586
X5.2039Y-1.9814
X5.2039Y-2.1586
X5.403Y-4.4114
X5.403Y-4.5886
X5.6589Y-4.4114
X5.6589Y-4.5886
X5.9089Y-4.4114
X5.9089Y-4.5886
X6.1648Y-4.4114
X6.1648Y-4.5886
T9
X4.1Y-2.1
X4.1Y-4.8
X5.3Y-3.5
X6.4Y-2.1
X6.4Y-4.8
T5
G00X4.4597Y-4.7136
M15
G01X4.4597Y-4.7726
M16
G05
G00X4.4597Y-4.8604
M15
G01X4.4597Y-4.8919
M16
G05
G00X4.8003Y-4.7136
M15
G01X4.8003Y-4.7726
M16
G05
G00X4.8003Y-4.8604
M15
G01X4.8003Y-4.8919
M16
G05
M30
