G04 #@! TF.GenerationSoftware,KiCad,Pcbnew,8.0.7*
G04 #@! TF.CreationDate,2025-01-26T00:40:11-05:00*
G04 #@! TF.ProjectId,shadow,73686164-6f77-42e6-9b69-6361645f7063,rev?*
G04 #@! TF.SameCoordinates,Original*
G04 #@! TF.FileFunction,Paste,Top*
G04 #@! TF.FilePolarity,Positive*
%FSLAX46Y46*%
G04 Gerber Fmt 4.6, Leading zero omitted, Abs format (unit mm)*
G04 Created by KiCad (PCBNEW 8.0.7) date 2025-01-26 00:40:11*
%MOMM*%
%LPD*%
G01*
G04 APERTURE LIST*
G04 Aperture macros list*
%AMRoundRect*
0 Rectangle with rounded corners*
0 $1 Rounding radius*
0 $2 $3 $4 $5 $6 $7 $8 $9 X,Y pos of 4 corners*
0 Add a 4 corners polygon primitive as box body*
4,1,4,$2,$3,$4,$5,$6,$7,$8,$9,$2,$3,0*
0 Add four circle primitives for the rounded corners*
1,1,$1+$1,$2,$3*
1,1,$1+$1,$4,$5*
1,1,$1+$1,$6,$7*
1,1,$1+$1,$8,$9*
0 Add four rect primitives between the rounded corners*
20,1,$1+$1,$2,$3,$4,$5,0*
20,1,$1+$1,$4,$5,$6,$7,0*
20,1,$1+$1,$6,$7,$8,$9,0*
20,1,$1+$1,$8,$9,$2,$3,0*%
G04 Aperture macros list end*
%ADD10C,0.010000*%
%ADD11RoundRect,0.250000X-0.375000X-0.625000X0.375000X-0.625000X0.375000X0.625000X-0.375000X0.625000X0*%
%ADD12R,2.200000X1.500000*%
%ADD13O,0.574000X2.038000*%
%ADD14R,2.000000X2.000000*%
%ADD15RoundRect,0.100000X-0.637500X-0.100000X0.637500X-0.100000X0.637500X0.100000X-0.637500X0.100000X0*%
%ADD16R,1.570000X1.880000*%
%ADD17RoundRect,0.060000X-0.675000X-0.180000X0.675000X-0.180000X0.675000X0.180000X-0.675000X0.180000X0*%
G04 APERTURE END LIST*
D10*
X123955000Y-61990000D02*
X122405000Y-61990000D01*
X122405000Y-61740000D01*
X123955000Y-61740000D01*
X123955000Y-61990000D01*
G36*
X123955000Y-61990000D02*
G01*
X122405000Y-61990000D01*
X122405000Y-61740000D01*
X123955000Y-61740000D01*
X123955000Y-61990000D01*
G37*
X123955000Y-62490000D02*
X122405000Y-62490000D01*
X122405000Y-62240000D01*
X123955000Y-62240000D01*
X123955000Y-62490000D01*
G36*
X123955000Y-62490000D02*
G01*
X122405000Y-62490000D01*
X122405000Y-62240000D01*
X123955000Y-62240000D01*
X123955000Y-62490000D01*
G37*
X123955000Y-62990000D02*
X122405000Y-62990000D01*
X122405000Y-62740000D01*
X123955000Y-62740000D01*
X123955000Y-62990000D01*
G36*
X123955000Y-62990000D02*
G01*
X122405000Y-62990000D01*
X122405000Y-62740000D01*
X123955000Y-62740000D01*
X123955000Y-62990000D01*
G37*
X123955000Y-63490000D02*
X122405000Y-63490000D01*
X122405000Y-63240000D01*
X123955000Y-63240000D01*
X123955000Y-63490000D01*
G36*
X123955000Y-63490000D02*
G01*
X122405000Y-63490000D01*
X122405000Y-63240000D01*
X123955000Y-63240000D01*
X123955000Y-63490000D01*
G37*
X123955000Y-63990000D02*
X122405000Y-63990000D01*
X122405000Y-63740000D01*
X123955000Y-63740000D01*
X123955000Y-63990000D01*
G36*
X123955000Y-63990000D02*
G01*
X122405000Y-63990000D01*
X122405000Y-63740000D01*
X123955000Y-63740000D01*
X123955000Y-63990000D01*
G37*
X128155000Y-61990000D02*
X126605000Y-61990000D01*
X126605000Y-61740000D01*
X128155000Y-61740000D01*
X128155000Y-61990000D01*
G36*
X128155000Y-61990000D02*
G01*
X126605000Y-61990000D01*
X126605000Y-61740000D01*
X128155000Y-61740000D01*
X128155000Y-61990000D01*
G37*
X128155000Y-62490000D02*
X126605000Y-62490000D01*
X126605000Y-62240000D01*
X128155000Y-62240000D01*
X128155000Y-62490000D01*
G36*
X128155000Y-62490000D02*
G01*
X126605000Y-62490000D01*
X126605000Y-62240000D01*
X128155000Y-62240000D01*
X128155000Y-62490000D01*
G37*
X128155000Y-62990000D02*
X126605000Y-62990000D01*
X126605000Y-62740000D01*
X128155000Y-62740000D01*
X128155000Y-62990000D01*
G36*
X128155000Y-62990000D02*
G01*
X126605000Y-62990000D01*
X126605000Y-62740000D01*
X128155000Y-62740000D01*
X128155000Y-62990000D01*
G37*
X128155000Y-63490000D02*
X126605000Y-63490000D01*
X126605000Y-63240000D01*
X128155000Y-63240000D01*
X128155000Y-63490000D01*
G36*
X128155000Y-63490000D02*
G01*
X126605000Y-63490000D01*
X126605000Y-63240000D01*
X128155000Y-63240000D01*
X128155000Y-63490000D01*
G37*
X128155000Y-63990000D02*
X126605000Y-63990000D01*
X126605000Y-63740000D01*
X128155000Y-63740000D01*
X128155000Y-63990000D01*
G36*
X128155000Y-63990000D02*
G01*
X126605000Y-63990000D01*
X126605000Y-63740000D01*
X128155000Y-63740000D01*
X128155000Y-63990000D01*
G37*
X103478200Y-69084400D02*
X101328200Y-69084400D01*
X101328200Y-68634400D01*
X103478200Y-68634400D01*
X103478200Y-69084400D01*
G36*
X103478200Y-69084400D02*
G01*
X101328200Y-69084400D01*
X101328200Y-68634400D01*
X103478200Y-68634400D01*
X103478200Y-69084400D01*
G37*
X103478200Y-70354400D02*
X101328200Y-70354400D01*
X101328200Y-69904400D01*
X103478200Y-69904400D01*
X103478200Y-70354400D01*
G36*
X103478200Y-70354400D02*
G01*
X101328200Y-70354400D01*
X101328200Y-69904400D01*
X103478200Y-69904400D01*
X103478200Y-70354400D01*
G37*
X103478200Y-71624400D02*
X101328200Y-71624400D01*
X101328200Y-71174400D01*
X103478200Y-71174400D01*
X103478200Y-71624400D01*
G36*
X103478200Y-71624400D02*
G01*
X101328200Y-71624400D01*
X101328200Y-71174400D01*
X103478200Y-71174400D01*
X103478200Y-71624400D01*
G37*
X103478200Y-72894400D02*
X101328200Y-72894400D01*
X101328200Y-72444400D01*
X103478200Y-72444400D01*
X103478200Y-72894400D01*
G36*
X103478200Y-72894400D02*
G01*
X101328200Y-72894400D01*
X101328200Y-72444400D01*
X103478200Y-72444400D01*
X103478200Y-72894400D01*
G37*
X106478200Y-72314400D02*
X104078200Y-72314400D01*
X104078200Y-69214400D01*
X106478200Y-69214400D01*
X106478200Y-72314400D01*
G36*
X106478200Y-72314400D02*
G01*
X104078200Y-72314400D01*
X104078200Y-69214400D01*
X106478200Y-69214400D01*
X106478200Y-72314400D01*
G37*
X109228200Y-69084400D02*
X107078200Y-69084400D01*
X107078200Y-68634400D01*
X109228200Y-68634400D01*
X109228200Y-69084400D01*
G36*
X109228200Y-69084400D02*
G01*
X107078200Y-69084400D01*
X107078200Y-68634400D01*
X109228200Y-68634400D01*
X109228200Y-69084400D01*
G37*
X109228200Y-70354400D02*
X107078200Y-70354400D01*
X107078200Y-69904400D01*
X109228200Y-69904400D01*
X109228200Y-70354400D01*
G36*
X109228200Y-70354400D02*
G01*
X107078200Y-70354400D01*
X107078200Y-69904400D01*
X109228200Y-69904400D01*
X109228200Y-70354400D01*
G37*
X109228200Y-71624400D02*
X107078200Y-71624400D01*
X107078200Y-71174400D01*
X109228200Y-71174400D01*
X109228200Y-71624400D01*
G36*
X109228200Y-71624400D02*
G01*
X107078200Y-71624400D01*
X107078200Y-71174400D01*
X109228200Y-71174400D01*
X109228200Y-71624400D01*
G37*
X109228200Y-72894400D02*
X107078200Y-72894400D01*
X107078200Y-72444400D01*
X109228200Y-72444400D01*
X109228200Y-72894400D01*
G36*
X109228200Y-72894400D02*
G01*
X107078200Y-72894400D01*
X107078200Y-72444400D01*
X109228200Y-72444400D01*
X109228200Y-72894400D01*
G37*
D11*
X108877000Y-50800000D03*
X111677000Y-50800000D03*
D12*
X106019600Y-88010600D03*
X106019600Y-81610600D03*
D13*
X127000000Y-76200000D03*
X128270000Y-76200000D03*
X129540000Y-76200000D03*
X130810000Y-76200000D03*
X130810000Y-70662000D03*
X129540000Y-70662000D03*
X128270000Y-70662000D03*
X127000000Y-70662000D03*
D14*
X128905000Y-73431000D03*
D15*
X146514500Y-56410000D03*
X146514500Y-57060000D03*
X146514500Y-57710000D03*
X146514500Y-58360000D03*
X146514500Y-59010000D03*
X146514500Y-59660000D03*
X146514500Y-60310000D03*
X146514500Y-60960000D03*
X146514500Y-61610000D03*
X146514500Y-62260000D03*
X146514500Y-62910000D03*
X146514500Y-63560000D03*
X152239500Y-63560000D03*
X152239500Y-62910000D03*
X152239500Y-62260000D03*
X152239500Y-61610000D03*
X152239500Y-60960000D03*
X152239500Y-60310000D03*
X152239500Y-59660000D03*
X152239500Y-59010000D03*
X152239500Y-58360000D03*
X152239500Y-57710000D03*
X152239500Y-57060000D03*
X152239500Y-56410000D03*
X102242700Y-94316600D03*
X102242700Y-94966600D03*
X102242700Y-95616600D03*
X102242700Y-96266600D03*
X102242700Y-96916600D03*
X102242700Y-97566600D03*
X102242700Y-98216600D03*
X102242700Y-98866600D03*
X102242700Y-99516600D03*
X102242700Y-100166600D03*
X102242700Y-100816600D03*
X102242700Y-101466600D03*
X107967700Y-101466600D03*
X107967700Y-100816600D03*
X107967700Y-100166600D03*
X107967700Y-99516600D03*
X107967700Y-98866600D03*
X107967700Y-98216600D03*
X107967700Y-97566600D03*
X107967700Y-96916600D03*
X107967700Y-96266600D03*
X107967700Y-95616600D03*
X107967700Y-94966600D03*
X107967700Y-94316600D03*
D16*
X125280000Y-62865000D03*
D11*
X112417000Y-53340000D03*
X115217000Y-53340000D03*
D17*
X130082000Y-62525000D03*
X130082000Y-63175000D03*
X130082000Y-63825000D03*
X130082000Y-64475000D03*
X134382000Y-64475000D03*
X134382000Y-63825000D03*
X134382000Y-63175000D03*
X134382000Y-62525000D03*
D11*
X116097000Y-50800000D03*
X118897000Y-50800000D03*
M02*
