%TF.GenerationSoftware,KiCad,Pcbnew,8.0.7*%
%TF.CreationDate,2025-01-26T00:41:21-05:00*%
%TF.ProjectId,shadow,73686164-6f77-42e6-9b69-6361645f7063,rev?*%
%TF.SameCoordinates,Original*%
%TF.FileFunction,Drillmap*%
%TF.FilePolarity,Positive*%
%FSLAX45Y45*%
G04 Gerber Fmt 4.5, Leading zero omitted, Abs format (unit mm)*
G04 Created by KiCad (PCBNEW 8.0.7) date 2025-01-26 00:41:21*
%MOMM*%
%LPD*%
G01*
G04 APERTURE LIST*
%ADD10C,0.050000*%
%ADD11C,0.200000*%
G04 APERTURE END LIST*
D10*
X9476700Y-4826000D02*
X16461700Y-4826000D01*
X16461700Y-12700000D01*
X9476700Y-12700000D01*
X9476700Y-4826000D01*
D11*
X9734977Y-13013984D02*
X9734977Y-12813984D01*
X9734977Y-12813984D02*
X9782596Y-12813984D01*
X9782596Y-12813984D02*
X9811167Y-12823508D01*
X9811167Y-12823508D02*
X9830215Y-12842555D01*
X9830215Y-12842555D02*
X9839739Y-12861603D01*
X9839739Y-12861603D02*
X9849263Y-12899698D01*
X9849263Y-12899698D02*
X9849263Y-12928269D01*
X9849263Y-12928269D02*
X9839739Y-12966365D01*
X9839739Y-12966365D02*
X9830215Y-12985412D01*
X9830215Y-12985412D02*
X9811167Y-13004460D01*
X9811167Y-13004460D02*
X9782596Y-13013984D01*
X9782596Y-13013984D02*
X9734977Y-13013984D01*
X9934977Y-13013984D02*
X9934977Y-12880650D01*
X9934977Y-12918746D02*
X9944501Y-12899698D01*
X9944501Y-12899698D02*
X9954024Y-12890174D01*
X9954024Y-12890174D02*
X9973072Y-12880650D01*
X9973072Y-12880650D02*
X9992120Y-12880650D01*
X10058786Y-13013984D02*
X10058786Y-12880650D01*
X10058786Y-12813984D02*
X10049263Y-12823508D01*
X10049263Y-12823508D02*
X10058786Y-12833031D01*
X10058786Y-12833031D02*
X10068310Y-12823508D01*
X10068310Y-12823508D02*
X10058786Y-12813984D01*
X10058786Y-12813984D02*
X10058786Y-12833031D01*
X10182596Y-13013984D02*
X10163548Y-13004460D01*
X10163548Y-13004460D02*
X10154024Y-12985412D01*
X10154024Y-12985412D02*
X10154024Y-12813984D01*
X10287358Y-13013984D02*
X10268310Y-13004460D01*
X10268310Y-13004460D02*
X10258786Y-12985412D01*
X10258786Y-12985412D02*
X10258786Y-12813984D01*
X10515929Y-13013984D02*
X10515929Y-12813984D01*
X10515929Y-12813984D02*
X10582596Y-12956841D01*
X10582596Y-12956841D02*
X10649263Y-12813984D01*
X10649263Y-12813984D02*
X10649263Y-13013984D01*
X10830215Y-13013984D02*
X10830215Y-12909222D01*
X10830215Y-12909222D02*
X10820691Y-12890174D01*
X10820691Y-12890174D02*
X10801644Y-12880650D01*
X10801644Y-12880650D02*
X10763548Y-12880650D01*
X10763548Y-12880650D02*
X10744501Y-12890174D01*
X10830215Y-13004460D02*
X10811167Y-13013984D01*
X10811167Y-13013984D02*
X10763548Y-13013984D01*
X10763548Y-13013984D02*
X10744501Y-13004460D01*
X10744501Y-13004460D02*
X10734977Y-12985412D01*
X10734977Y-12985412D02*
X10734977Y-12966365D01*
X10734977Y-12966365D02*
X10744501Y-12947317D01*
X10744501Y-12947317D02*
X10763548Y-12937793D01*
X10763548Y-12937793D02*
X10811167Y-12937793D01*
X10811167Y-12937793D02*
X10830215Y-12928269D01*
X10925453Y-12880650D02*
X10925453Y-13080650D01*
X10925453Y-12890174D02*
X10944501Y-12880650D01*
X10944501Y-12880650D02*
X10982596Y-12880650D01*
X10982596Y-12880650D02*
X11001644Y-12890174D01*
X11001644Y-12890174D02*
X11011167Y-12899698D01*
X11011167Y-12899698D02*
X11020691Y-12918746D01*
X11020691Y-12918746D02*
X11020691Y-12975888D01*
X11020691Y-12975888D02*
X11011167Y-12994936D01*
X11011167Y-12994936D02*
X11001644Y-13004460D01*
X11001644Y-13004460D02*
X10982596Y-13013984D01*
X10982596Y-13013984D02*
X10944501Y-13013984D01*
X10944501Y-13013984D02*
X10925453Y-13004460D01*
X11106405Y-12994936D02*
X11115929Y-13004460D01*
X11115929Y-13004460D02*
X11106405Y-13013984D01*
X11106405Y-13013984D02*
X11096882Y-13004460D01*
X11096882Y-13004460D02*
X11106405Y-12994936D01*
X11106405Y-12994936D02*
X11106405Y-13013984D01*
X11106405Y-12890174D02*
X11115929Y-12899698D01*
X11115929Y-12899698D02*
X11106405Y-12909222D01*
X11106405Y-12909222D02*
X11096882Y-12899698D01*
X11096882Y-12899698D02*
X11106405Y-12890174D01*
X11106405Y-12890174D02*
X11106405Y-12909222D01*
M02*
