%TF.GenerationSoftware,KiCad,Pcbnew,8.0.7*%
%TF.CreationDate,2025-01-26T03:13:27-05:00*%
%TF.ProjectId,shadow,73686164-6f77-42e6-9b69-6361645f7063,rev?*%
%TF.SameCoordinates,Original*%
%TF.FileFunction,Profile,NP*%
%FSLAX46Y46*%
G04 Gerber Fmt 4.6, Leading zero omitted, Abs format (unit mm)*
G04 Created by KiCad (PCBNEW 8.0.7) date 2025-01-26 03:13:27*
%MOMM*%
%LPD*%
G01*
G04 APERTURE LIST*
%TA.AperFunction,Profile*%
%ADD10C,0.050000*%
%TD*%
%TA.AperFunction,Profile*%
%ADD11C,0.000000*%
%TD*%
G04 APERTURE END LIST*
D10*
X94767000Y-48260000D02*
X164617000Y-48260000D01*
X164617000Y-127000000D01*
X94767000Y-127000000D01*
X94767000Y-48260000D01*
D11*
%TA.AperFunction,Profile*%
%TO.C,J1*%
G36*
X115525881Y-120453354D02*
G01*
X115630419Y-120506619D01*
X115713381Y-120589581D01*
X115766646Y-120694119D01*
X115785000Y-120810000D01*
X115766646Y-120925881D01*
X115713381Y-121030419D01*
X115630419Y-121113381D01*
X115525881Y-121166646D01*
X115410000Y-121185000D01*
X115294119Y-121166646D01*
X115189581Y-121113381D01*
X115106619Y-121030419D01*
X115053354Y-120925881D01*
X115035000Y-120810000D01*
X115053354Y-120694119D01*
X115106619Y-120589581D01*
X115189581Y-120506619D01*
X115294119Y-120453354D01*
X115410000Y-120435000D01*
X115525881Y-120453354D01*
G37*
%TD.AperFunction*%
%TA.AperFunction,Profile*%
G36*
X109745881Y-120453354D02*
G01*
X109850419Y-120506619D01*
X109933381Y-120589581D01*
X109986646Y-120694119D01*
X110005000Y-120810000D01*
X109986646Y-120925881D01*
X109933381Y-121030419D01*
X109850419Y-121113381D01*
X109745881Y-121166646D01*
X109630000Y-121185000D01*
X109514119Y-121166646D01*
X109409581Y-121113381D01*
X109326619Y-121030419D01*
X109273354Y-120925881D01*
X109255000Y-120810000D01*
X109273354Y-120694119D01*
X109326619Y-120589581D01*
X109409581Y-120506619D01*
X109514119Y-120453354D01*
X109630000Y-120435000D01*
X109745881Y-120453354D01*
G37*
%TD.AperFunction*%
%TD*%
M02*
