%TF.GenerationSoftware,KiCad,Pcbnew,8.0.7*%
%TF.CreationDate,2025-01-26T02:59:20-05:00*%
%TF.ProjectId,shadow,73686164-6f77-42e6-9b69-6361645f7063,rev?*%
%TF.SameCoordinates,Original*%
%TF.FileFunction,Soldermask,Bot*%
%TF.FilePolarity,Negative*%
%FSLAX46Y46*%
G04 Gerber Fmt 4.6, Leading zero omitted, Abs format (unit mm)*
G04 Created by KiCad (PCBNEW 8.0.7) date 2025-01-26 02:59:20*
%MOMM*%
%LPD*%
G01*
G04 APERTURE LIST*
G04 Aperture macros list*
%AMRoundRect*
0 Rectangle with rounded corners*
0 $1 Rounding radius*
0 $2 $3 $4 $5 $6 $7 $8 $9 X,Y pos of 4 corners*
0 Add a 4 corners polygon primitive as box body*
4,1,4,$2,$3,$4,$5,$6,$7,$8,$9,$2,$3,0*
0 Add four circle primitives for the rounded corners*
1,1,$1+$1,$2,$3*
1,1,$1+$1,$4,$5*
1,1,$1+$1,$6,$7*
1,1,$1+$1,$8,$9*
0 Add four rect primitives between the rounded corners*
20,1,$1+$1,$2,$3,$4,$5,0*
20,1,$1+$1,$4,$5,$6,$7,0*
20,1,$1+$1,$6,$7,$8,$9,0*
20,1,$1+$1,$8,$9,$2,$3,0*%
G04 Aperture macros list end*
%ADD10C,1.800000*%
%ADD11RoundRect,0.250000X0.325000X0.650000X-0.325000X0.650000X-0.325000X-0.650000X0.325000X-0.650000X0*%
%ADD12RoundRect,0.250000X0.312500X0.625000X-0.312500X0.625000X-0.312500X-0.625000X0.312500X-0.625000X0*%
%ADD13RoundRect,0.250000X-0.625000X0.312500X-0.625000X-0.312500X0.625000X-0.312500X0.625000X0.312500X0*%
%ADD14RoundRect,0.250000X-0.312500X-0.625000X0.312500X-0.625000X0.312500X0.625000X-0.312500X0.625000X0*%
%ADD15RoundRect,0.250000X0.625000X-0.312500X0.625000X0.312500X-0.625000X0.312500X-0.625000X-0.312500X0*%
%ADD16O,1.100000X1.800000*%
%ADD17O,1.100000X2.000000*%
%ADD18R,1.700000X1.700000*%
%ADD19O,1.700000X1.700000*%
%ADD20RoundRect,0.250000X0.600000X0.750000X-0.600000X0.750000X-0.600000X-0.750000X0.600000X-0.750000X0*%
%ADD21O,1.700000X2.000000*%
%ADD22C,2.000000*%
%ADD23C,7.500000*%
%ADD24R,2.000000X2.000000*%
%ADD25RoundRect,0.250000X-0.375000X-0.625000X0.375000X-0.625000X0.375000X0.625000X-0.375000X0.625000X0*%
%ADD26R,1.000000X1.500000*%
%ADD27RoundRect,0.250000X-0.325000X-0.650000X0.325000X-0.650000X0.325000X0.650000X-0.325000X0.650000X0*%
%ADD28RoundRect,0.250000X0.650000X-0.325000X0.650000X0.325000X-0.650000X0.325000X-0.650000X-0.325000X0*%
G04 APERTURE END LIST*
D10*
%TO.C,SW3*%
X147574000Y-124968000D03*
X145074000Y-124968000D03*
X142574000Y-124968000D03*
X147574000Y-121568000D03*
X145074000Y-121568000D03*
X142574000Y-121568000D03*
%TD*%
D11*
%TO.C,C15*%
X133858000Y-65532000D03*
X136808000Y-65532000D03*
%TD*%
%TO.C,C14*%
X110646000Y-88138000D03*
X107696000Y-88138000D03*
%TD*%
D12*
%TO.C,R34*%
X150429500Y-76200000D03*
X153354500Y-76200000D03*
%TD*%
D13*
%TO.C,R33*%
X109220000Y-82165000D03*
X109220000Y-85090000D03*
%TD*%
D12*
%TO.C,R32*%
X150424500Y-78364000D03*
X153349500Y-78364000D03*
%TD*%
D14*
%TO.C,R31*%
X106934000Y-73660000D03*
X109859000Y-73660000D03*
%TD*%
D12*
%TO.C,R29*%
X151261000Y-53594000D03*
X148336000Y-53594000D03*
%TD*%
%TO.C,R28*%
X153293000Y-70104000D03*
X150368000Y-70104000D03*
%TD*%
%TO.C,R27*%
X153268000Y-72263000D03*
X150343000Y-72263000D03*
%TD*%
%TO.C,R26*%
X146242500Y-53594000D03*
X143317500Y-53594000D03*
%TD*%
%TO.C,R25*%
X142625000Y-65786000D03*
X139700000Y-65786000D03*
%TD*%
%TO.C,R24*%
X142371000Y-60706000D03*
X139446000Y-60706000D03*
%TD*%
%TO.C,R23*%
X110621000Y-91948000D03*
X107696000Y-91948000D03*
%TD*%
D14*
%TO.C,R22*%
X102362000Y-91948000D03*
X105287000Y-91948000D03*
%TD*%
D13*
%TO.C,R21*%
X99060000Y-87753000D03*
X99060000Y-90678000D03*
%TD*%
D12*
%TO.C,R20*%
X105541000Y-88138000D03*
X102616000Y-88138000D03*
%TD*%
D13*
%TO.C,R19*%
X109220000Y-77216000D03*
X109220000Y-80141000D03*
%TD*%
D14*
%TO.C,R18*%
X100838000Y-74422000D03*
X103763000Y-74422000D03*
%TD*%
D12*
%TO.C,R17*%
X104343100Y-60071000D03*
X101418100Y-60071000D03*
%TD*%
D14*
%TO.C,R16*%
X132842000Y-78232000D03*
X135767000Y-78232000D03*
%TD*%
D12*
%TO.C,R15*%
X118495000Y-51816000D03*
X115570000Y-51816000D03*
%TD*%
%TO.C,R14*%
X112145000Y-52070000D03*
X109220000Y-52070000D03*
%TD*%
D15*
%TO.C,R13*%
X97282000Y-63246000D03*
X97282000Y-60321000D03*
%TD*%
%TO.C,R12*%
X101854000Y-67818000D03*
X101854000Y-64893000D03*
%TD*%
D13*
%TO.C,R11*%
X110490000Y-64385000D03*
X110490000Y-67310000D03*
%TD*%
D12*
%TO.C,R4*%
X137037000Y-61468000D03*
X134112000Y-61468000D03*
%TD*%
%TO.C,R3*%
X125607000Y-78486000D03*
X122682000Y-78486000D03*
%TD*%
D14*
%TO.C,R2*%
X127594500Y-78105000D03*
X130519500Y-78105000D03*
%TD*%
%TO.C,R1*%
X123190000Y-82550000D03*
X126115000Y-82550000D03*
%TD*%
D16*
%TO.C,J1*%
X108200000Y-124460000D03*
X116840000Y-124460000D03*
D17*
X116840000Y-120280000D03*
X108200000Y-120280000D03*
%TD*%
D18*
%TO.C,I2C_PINOUT7*%
X162052000Y-99060000D03*
D19*
X162052000Y-101600000D03*
X162052000Y-104140000D03*
X162052000Y-106680000D03*
%TD*%
D18*
%TO.C,I2C_PINOUT9*%
X96037000Y-86360000D03*
D19*
X96037000Y-83820000D03*
X96037000Y-81280000D03*
X96037000Y-78740000D03*
%TD*%
D20*
%TO.C,BATT_JST1*%
X128230000Y-115570000D03*
D21*
X125730000Y-115570000D03*
%TD*%
D18*
%TO.C,I2C_PINOUT10*%
X96037000Y-99060000D03*
D19*
X96037000Y-96520000D03*
X96037000Y-93980000D03*
X96037000Y-91440000D03*
%TD*%
D18*
%TO.C,I2C_PINOUT8*%
X96037000Y-73660000D03*
D19*
X96037000Y-71120000D03*
X96037000Y-68580000D03*
X96037000Y-66040000D03*
%TD*%
D18*
%TO.C,I2C_PINOUT0*%
X156972000Y-60960000D03*
D19*
X156972000Y-63500000D03*
X156972000Y-66040000D03*
X156972000Y-68580000D03*
%TD*%
D18*
%TO.C,I2C_PINOUT12*%
X110490000Y-109220000D03*
D19*
X107950000Y-109220000D03*
X105410000Y-109220000D03*
X102870000Y-109220000D03*
%TD*%
D18*
%TO.C,UART1*%
X107950000Y-114300000D03*
D19*
X105410000Y-114300000D03*
X102870000Y-114300000D03*
%TD*%
D18*
%TO.C,I2C_PINOUT2*%
X156972000Y-86360000D03*
D19*
X156972000Y-88900000D03*
X156972000Y-91440000D03*
X156972000Y-93980000D03*
%TD*%
D22*
%TO.C,SW2*%
X146277000Y-112812000D03*
X152777000Y-112812000D03*
X146277000Y-117312000D03*
X152777000Y-117312000D03*
%TD*%
D18*
%TO.C,PICO_R1*%
X138430000Y-68580000D03*
D19*
X138430000Y-71120000D03*
X138430000Y-73660000D03*
X138430000Y-76200000D03*
X138430000Y-78740000D03*
X138430000Y-81280000D03*
X138430000Y-83820000D03*
X138430000Y-86360000D03*
X138430000Y-88900000D03*
X138430000Y-91440000D03*
X138430000Y-93980000D03*
X138430000Y-96520000D03*
X138430000Y-99060000D03*
X138430000Y-101600000D03*
X138430000Y-104140000D03*
%TD*%
D22*
%TO.C,RST_SW1*%
X121870000Y-50328000D03*
X128370000Y-50328000D03*
X121870000Y-54828000D03*
X128370000Y-54828000D03*
%TD*%
D23*
%TO.C,H4*%
X100330000Y-121920000D03*
%TD*%
D18*
%TO.C,OLED_CONN1*%
X112557000Y-114300000D03*
D19*
X115097000Y-114300000D03*
X117637000Y-114300000D03*
X120177000Y-114300000D03*
%TD*%
D23*
%TO.C,H5*%
X158750000Y-121920000D03*
%TD*%
D18*
%TO.C,I2C_PINOUT5*%
X162052000Y-73660000D03*
D19*
X162052000Y-76200000D03*
X162052000Y-78740000D03*
X162052000Y-81280000D03*
%TD*%
D18*
%TO.C,I2C_PINOUT6*%
X162052000Y-86360000D03*
D19*
X162052000Y-88900000D03*
X162052000Y-91440000D03*
X162052000Y-93980000D03*
%TD*%
D18*
%TO.C,MOTOR_CONN1*%
X129057000Y-124460000D03*
D19*
X131597000Y-124460000D03*
%TD*%
D22*
%TO.C,SW1*%
X133427000Y-112812000D03*
X139927000Y-112812000D03*
X133427000Y-117312000D03*
X139927000Y-117312000D03*
%TD*%
D23*
%TO.C,H1*%
X100330000Y-53340000D03*
%TD*%
D18*
%TO.C,US1*%
X133350000Y-55855000D03*
D19*
X135890000Y-55855000D03*
X138430000Y-55855000D03*
X140970000Y-55855000D03*
%TD*%
D18*
%TO.C,GPIO_L1*%
X113030000Y-68580000D03*
D19*
X113030000Y-71120000D03*
X113030000Y-73660000D03*
X113030000Y-76200000D03*
X113030000Y-78740000D03*
X113030000Y-81280000D03*
X113030000Y-83820000D03*
X113030000Y-86360000D03*
X113030000Y-88900000D03*
X113030000Y-91440000D03*
X113030000Y-93980000D03*
X113030000Y-96520000D03*
X113030000Y-99060000D03*
X113030000Y-101600000D03*
X113030000Y-104140000D03*
%TD*%
D18*
%TO.C,I2C_PINOUT4*%
X162052000Y-60960000D03*
D19*
X162052000Y-63500000D03*
X162052000Y-66040000D03*
X162052000Y-68580000D03*
%TD*%
D23*
%TO.C,H3*%
X129540000Y-86360000D03*
%TD*%
D18*
%TO.C,I2C_PINOUT1*%
X156997000Y-73660000D03*
D19*
X156997000Y-76200000D03*
X156997000Y-78740000D03*
X156997000Y-81280000D03*
%TD*%
D18*
%TO.C,PICO_L1*%
X120650000Y-68610000D03*
D19*
X120650000Y-71150000D03*
X120650000Y-73690000D03*
X120650000Y-76230000D03*
X120650000Y-78770000D03*
X120650000Y-81310000D03*
X120650000Y-83850000D03*
X120650000Y-86390000D03*
X120650000Y-88930000D03*
X120650000Y-91470000D03*
X120650000Y-94010000D03*
X120650000Y-96550000D03*
X120650000Y-99090000D03*
X120650000Y-101630000D03*
X120650000Y-104170000D03*
%TD*%
D23*
%TO.C,H2*%
X158750000Y-53340000D03*
%TD*%
D18*
%TO.C,I2C_PINOUT11*%
X96037000Y-111760000D03*
D19*
X96037000Y-109220000D03*
X96037000Y-106680000D03*
X96037000Y-104140000D03*
%TD*%
D18*
%TO.C,GPIO_R1*%
X146050000Y-68580000D03*
D19*
X146050000Y-71120000D03*
X146050000Y-73660000D03*
X146050000Y-76200000D03*
X146050000Y-78740000D03*
X146050000Y-81280000D03*
X146050000Y-83820000D03*
X146050000Y-86360000D03*
X146050000Y-88900000D03*
X146050000Y-91440000D03*
X146050000Y-93980000D03*
X146050000Y-96520000D03*
X146050000Y-99060000D03*
X146050000Y-101600000D03*
X146050000Y-104140000D03*
%TD*%
D18*
%TO.C,I2C_PINOUT3*%
X156972000Y-99060000D03*
D19*
X156972000Y-101600000D03*
X156972000Y-104140000D03*
X156972000Y-106680000D03*
%TD*%
D18*
%TO.C,ARR1*%
X133350000Y-50800000D03*
D19*
X135890000Y-50800000D03*
X138430000Y-50800000D03*
X140970000Y-50800000D03*
%TD*%
D24*
%TO.C,C13*%
X106683800Y-60985400D03*
D22*
X111683800Y-60985400D03*
%TD*%
D25*
%TO.C,D2*%
X100736000Y-78740000D03*
X103536000Y-78740000D03*
%TD*%
D11*
%TO.C,C4*%
X127992000Y-73660000D03*
X125042000Y-73660000D03*
%TD*%
D26*
%TO.C,JP6*%
X149409000Y-59436000D03*
X148109000Y-59436000D03*
%TD*%
D11*
%TO.C,C7*%
X124616000Y-65532000D03*
X121666000Y-65532000D03*
%TD*%
%TO.C,C12*%
X103657000Y-83820000D03*
X100707000Y-83820000D03*
%TD*%
D26*
%TO.C,JP7*%
X149407000Y-62230000D03*
X148107000Y-62230000D03*
%TD*%
D25*
%TO.C,D1*%
X131826000Y-73406000D03*
X134626000Y-73406000D03*
%TD*%
D11*
%TO.C,C5*%
X131474000Y-62738000D03*
X128524000Y-62738000D03*
%TD*%
D12*
%TO.C,R8*%
X153379500Y-82804000D03*
X150454500Y-82804000D03*
%TD*%
D11*
%TO.C,C10*%
X102870000Y-71120000D03*
X99920000Y-71120000D03*
%TD*%
%TO.C,C9*%
X116152000Y-56220000D03*
X113202000Y-56220000D03*
%TD*%
D12*
%TO.C,R9*%
X153379500Y-87249000D03*
X150454500Y-87249000D03*
%TD*%
D26*
%TO.C,JP3*%
X105226000Y-98806000D03*
X103926000Y-98806000D03*
%TD*%
D14*
%TO.C,R6*%
X121879500Y-59055000D03*
X124804500Y-59055000D03*
%TD*%
D27*
%TO.C,C2*%
X134366000Y-58674000D03*
X137316000Y-58674000D03*
%TD*%
D11*
%TO.C,C11*%
X103657000Y-81280000D03*
X100707000Y-81280000D03*
%TD*%
%TO.C,C1*%
X131728000Y-58674000D03*
X128778000Y-58674000D03*
%TD*%
D12*
%TO.C,R10*%
X128930000Y-68199000D03*
X126005000Y-68199000D03*
%TD*%
D14*
%TO.C,R5*%
X113828100Y-64617600D03*
X116753100Y-64617600D03*
%TD*%
D26*
%TO.C,JP8*%
X149409000Y-65024000D03*
X148109000Y-65024000D03*
%TD*%
D11*
%TO.C,C6*%
X133641500Y-68199000D03*
X130691500Y-68199000D03*
%TD*%
D15*
%TO.C,R7*%
X119126000Y-63754000D03*
X119126000Y-60829000D03*
%TD*%
D28*
%TO.C,C8*%
X110607300Y-58474400D03*
X110607300Y-55524400D03*
%TD*%
D26*
%TO.C,JP4*%
X105211000Y-101600000D03*
X103911000Y-101600000D03*
%TD*%
D28*
%TO.C,C3*%
X106426000Y-68072000D03*
X106426000Y-65122000D03*
%TD*%
D26*
%TO.C,JP5*%
X105211000Y-104394000D03*
X103911000Y-104394000D03*
%TD*%
M02*
