%TF.GenerationSoftware,KiCad,Pcbnew,8.0.7*%
%TF.CreationDate,2025-01-26T15:44:35-05:00*%
%TF.ProjectId,shadow,73686164-6f77-42e6-9b69-6361645f7063,rev?*%
%TF.SameCoordinates,Original*%
%TF.FileFunction,Copper,L1,Top*%
%TF.FilePolarity,Positive*%
%FSLAX46Y46*%
G04 Gerber Fmt 4.6, Leading zero omitted, Abs format (unit mm)*
G04 Created by KiCad (PCBNEW 8.0.7) date 2025-01-26 15:44:35*
%MOMM*%
%LPD*%
G01*
G04 APERTURE LIST*
G04 Aperture macros list*
%AMRoundRect*
0 Rectangle with rounded corners*
0 $1 Rounding radius*
0 $2 $3 $4 $5 $6 $7 $8 $9 X,Y pos of 4 corners*
0 Add a 4 corners polygon primitive as box body*
4,1,4,$2,$3,$4,$5,$6,$7,$8,$9,$2,$3,0*
0 Add four circle primitives for the rounded corners*
1,1,$1+$1,$2,$3*
1,1,$1+$1,$4,$5*
1,1,$1+$1,$6,$7*
1,1,$1+$1,$8,$9*
0 Add four rect primitives between the rounded corners*
20,1,$1+$1,$2,$3,$4,$5,0*
20,1,$1+$1,$4,$5,$6,$7,0*
20,1,$1+$1,$6,$7,$8,$9,0*
20,1,$1+$1,$8,$9,$2,$3,0*%
G04 Aperture macros list end*
%TA.AperFunction,SMDPad,CuDef*%
%ADD10RoundRect,0.250000X-0.312500X-0.625000X0.312500X-0.625000X0.312500X0.625000X-0.312500X0.625000X0*%
%TD*%
%TA.AperFunction,SMDPad,CuDef*%
%ADD11RoundRect,0.250000X-0.625000X0.375000X-0.625000X-0.375000X0.625000X-0.375000X0.625000X0.375000X0*%
%TD*%
%TA.AperFunction,SMDPad,CuDef*%
%ADD12RoundRect,0.250000X-0.375000X-0.625000X0.375000X-0.625000X0.375000X0.625000X-0.375000X0.625000X0*%
%TD*%
%TA.AperFunction,SMDPad,CuDef*%
%ADD13RoundRect,0.250000X-0.325000X-0.650000X0.325000X-0.650000X0.325000X0.650000X-0.325000X0.650000X0*%
%TD*%
%TA.AperFunction,ComponentPad*%
%ADD14R,1.700000X1.700000*%
%TD*%
%TA.AperFunction,ComponentPad*%
%ADD15O,1.700000X1.700000*%
%TD*%
%TA.AperFunction,SMDPad,CuDef*%
%ADD16RoundRect,0.250000X0.625000X-0.312500X0.625000X0.312500X-0.625000X0.312500X-0.625000X-0.312500X0*%
%TD*%
%TA.AperFunction,SMDPad,CuDef*%
%ADD17RoundRect,0.250000X-0.650000X0.325000X-0.650000X-0.325000X0.650000X-0.325000X0.650000X0.325000X0*%
%TD*%
%TA.AperFunction,ComponentPad*%
%ADD18RoundRect,0.250000X0.600000X0.750000X-0.600000X0.750000X-0.600000X-0.750000X0.600000X-0.750000X0*%
%TD*%
%TA.AperFunction,ComponentPad*%
%ADD19O,1.700000X2.000000*%
%TD*%
%TA.AperFunction,ComponentPad*%
%ADD20O,1.100000X2.000000*%
%TD*%
%TA.AperFunction,ComponentPad*%
%ADD21O,1.100000X1.800000*%
%TD*%
%TA.AperFunction,SMDPad,CuDef*%
%ADD22R,0.300000X1.500000*%
%TD*%
%TA.AperFunction,SMDPad,CuDef*%
%ADD23R,2.200000X1.500000*%
%TD*%
%TA.AperFunction,SMDPad,CuDef*%
%ADD24RoundRect,0.250000X0.325000X0.650000X-0.325000X0.650000X-0.325000X-0.650000X0.325000X-0.650000X0*%
%TD*%
%TA.AperFunction,SMDPad,CuDef*%
%ADD25O,0.574000X2.038000*%
%TD*%
%TA.AperFunction,SMDPad,CuDef*%
%ADD26R,2.000000X2.000000*%
%TD*%
%TA.AperFunction,ComponentPad*%
%ADD27C,2.000000*%
%TD*%
%TA.AperFunction,SMDPad,CuDef*%
%ADD28RoundRect,0.100000X-0.637500X-0.100000X0.637500X-0.100000X0.637500X0.100000X-0.637500X0.100000X0*%
%TD*%
%TA.AperFunction,ComponentPad*%
%ADD29C,7.500000*%
%TD*%
%TA.AperFunction,SMDPad,CuDef*%
%ADD30R,1.600000X0.300000*%
%TD*%
%TA.AperFunction,SMDPad,CuDef*%
%ADD31R,1.570000X1.880000*%
%TD*%
%TA.AperFunction,ComponentPad*%
%ADD32C,0.400000*%
%TD*%
%TA.AperFunction,SMDPad,CuDef*%
%ADD33RoundRect,0.250000X-0.625000X0.312500X-0.625000X-0.312500X0.625000X-0.312500X0.625000X0.312500X0*%
%TD*%
%TA.AperFunction,SMDPad,CuDef*%
%ADD34RoundRect,0.250000X0.312500X0.625000X-0.312500X0.625000X-0.312500X-0.625000X0.312500X-0.625000X0*%
%TD*%
%TA.AperFunction,SMDPad,CuDef*%
%ADD35RoundRect,0.250000X0.650000X-0.325000X0.650000X0.325000X-0.650000X0.325000X-0.650000X-0.325000X0*%
%TD*%
%TA.AperFunction,SMDPad,CuDef*%
%ADD36R,2.200000X0.500000*%
%TD*%
%TA.AperFunction,SMDPad,CuDef*%
%ADD37R,2.950000X4.900000*%
%TD*%
%TA.AperFunction,ComponentPad*%
%ADD38C,1.800000*%
%TD*%
%TA.AperFunction,SMDPad,CuDef*%
%ADD39RoundRect,0.060000X-0.180000X0.675000X-0.180000X-0.675000X0.180000X-0.675000X0.180000X0.675000X0*%
%TD*%
%TA.AperFunction,ComponentPad*%
%ADD40R,2.000000X2.000000*%
%TD*%
%TA.AperFunction,ViaPad*%
%ADD41C,0.600000*%
%TD*%
%TA.AperFunction,Conductor*%
%ADD42C,0.200000*%
%TD*%
G04 APERTURE END LIST*
D10*
%TO.P,R18,1*%
%TO.N,VCC*%
X101075000Y-72400000D03*
%TO.P,R18,2*%
%TO.N,Net-(R18-Pad2)*%
X104000000Y-72400000D03*
%TD*%
D11*
%TO.P,D2,1,K*%
%TO.N,VCC*%
X130000000Y-84000000D03*
%TO.P,D2,2,A*%
%TO.N,GND*%
X130000000Y-86800000D03*
%TD*%
D12*
%TO.P,PG1,1,K*%
%TO.N,Net-(PG1-K)*%
X108877000Y-50800000D03*
%TO.P,PG1,2,A*%
%TO.N,Net-(PG1-A)*%
X111677000Y-50800000D03*
%TD*%
D13*
%TO.P,C4,1*%
%TO.N,Net-(D1-K)*%
X98700000Y-85750000D03*
%TO.P,C4,2*%
%TO.N,GND*%
X101650000Y-85750000D03*
%TD*%
%TO.P,C15,1*%
%TO.N,VCC*%
X114725000Y-108700000D03*
%TO.P,C15,2*%
%TO.N,GND*%
X117675000Y-108700000D03*
%TD*%
D14*
%TO.P,I2C7,1,Pin_1*%
%TO.N,/I2C7/SCL*%
X162052000Y-99060000D03*
D15*
%TO.P,I2C7,2,Pin_2*%
%TO.N,/I2C7/SDA*%
X162052000Y-101600000D03*
%TO.P,I2C7,3,Pin_3*%
%TO.N,VCC*%
X162052000Y-104140000D03*
%TO.P,I2C7,4,Pin_4*%
%TO.N,GND*%
X162052000Y-106680000D03*
%TD*%
D16*
%TO.P,R13,1*%
%TO.N,GND*%
X97282000Y-63246000D03*
%TO.P,R13,2*%
%TO.N,Net-(R13-Pad2)*%
X97282000Y-60321000D03*
%TD*%
D14*
%TO.P,I2C9,1,Pin_1*%
%TO.N,/I2C9/SCL*%
X96037000Y-86360000D03*
D15*
%TO.P,I2C9,2,Pin_2*%
%TO.N,/I2C9/SDA*%
X96037000Y-83820000D03*
%TO.P,I2C9,3,Pin_3*%
%TO.N,VCC*%
X96037000Y-81280000D03*
%TO.P,I2C9,4,Pin_4*%
%TO.N,GND*%
X96037000Y-78740000D03*
%TD*%
D17*
%TO.P,C7,1*%
%TO.N,Net-(IC2-VDD)*%
X132750000Y-83800000D03*
%TO.P,C7,2*%
%TO.N,/battery/BAT-*%
X132750000Y-86750000D03*
%TD*%
D18*
%TO.P,BATT_JST1,1,Pin_1*%
%TO.N,/battery/BAT+*%
X128230000Y-115570000D03*
D19*
%TO.P,BATT_JST1,2,Pin_2*%
%TO.N,/battery/BAT-*%
X125730000Y-115570000D03*
%TD*%
D14*
%TO.P,I2C10,1,Pin_1*%
%TO.N,/I2C10/SCL*%
X96037000Y-99060000D03*
D15*
%TO.P,I2C10,2,Pin_2*%
%TO.N,/I2C10/SDA*%
X96037000Y-96520000D03*
%TO.P,I2C10,3,Pin_3*%
%TO.N,VCC*%
X96037000Y-93980000D03*
%TO.P,I2C10,4,Pin_4*%
%TO.N,GND*%
X96037000Y-91440000D03*
%TD*%
D14*
%TO.P,I2C8,1,Pin_1*%
%TO.N,/I2C8/SCL*%
X96037000Y-73660000D03*
D15*
%TO.P,I2C8,2,Pin_2*%
%TO.N,/I2C8/SDA*%
X96037000Y-71120000D03*
%TO.P,I2C8,3,Pin_3*%
%TO.N,VCC*%
X96037000Y-68580000D03*
%TO.P,I2C8,4,Pin_4*%
%TO.N,GND*%
X96037000Y-66040000D03*
%TD*%
D10*
%TO.P,R2,1*%
%TO.N,Net-(U4-FB)*%
X127529000Y-78994000D03*
%TO.P,R2,2*%
%TO.N,Net-(D1-K)*%
X130454000Y-78994000D03*
%TD*%
D20*
%TO.P,J1,1,1*%
%TO.N,GND*%
X108200000Y-120280000D03*
%TO.P,J1,2,2*%
X116840000Y-120280000D03*
D21*
%TO.P,J1,3,3*%
X116840000Y-124460000D03*
%TO.P,J1,4,4*%
X108200000Y-124460000D03*
D22*
%TO.P,J1,A1,GND*%
X109120000Y-119313000D03*
%TO.P,J1,A4,VBUS*%
%TO.N,VBUS*%
X109920000Y-119313000D03*
%TO.P,J1,A5,CC1*%
%TO.N,unconnected-(J1-CC1-PadA5)*%
X111270000Y-119313000D03*
%TO.P,J1,A6,DP1*%
%TO.N,unconnected-(J1-DP1-PadA6)*%
X112270000Y-119313000D03*
%TO.P,J1,A7,DN1*%
%TO.N,unconnected-(J1-DN1-PadA7)*%
X112770000Y-119313000D03*
%TO.P,J1,A8,SBU1*%
%TO.N,unconnected-(J1-SBU1-PadA8)*%
X113769500Y-119312000D03*
%TO.P,J1,A9,VBUS*%
%TO.N,VBUS*%
X115120000Y-119312500D03*
%TO.P,J1,A12,GND*%
%TO.N,GND*%
X115920000Y-119313000D03*
%TO.P,J1,B1,GND*%
X115620000Y-119313000D03*
%TO.P,J1,B4,VBUS*%
%TO.N,VBUS*%
X114820000Y-119312500D03*
%TO.P,J1,B5,CC2*%
%TO.N,unconnected-(J1-CC2-PadB5)*%
X114270000Y-119313000D03*
%TO.P,J1,B6,DP2*%
%TO.N,unconnected-(J1-DP2-PadB6)*%
X113270000Y-119313000D03*
%TO.P,J1,B7,DN2*%
%TO.N,unconnected-(J1-DN2-PadB7)*%
X111770000Y-119313000D03*
%TO.P,J1,B8,SBU2*%
%TO.N,unconnected-(J1-SBU2-PadB8)*%
X110770000Y-119312000D03*
%TO.P,J1,B9,VBUS*%
%TO.N,VBUS*%
X110220000Y-119313000D03*
%TO.P,J1,B12,GND*%
%TO.N,GND*%
X109420000Y-119313000D03*
%TD*%
D14*
%TO.P,I2C0,1,Pin_1*%
%TO.N,/I2C/SCL*%
X156972000Y-60960000D03*
D15*
%TO.P,I2C0,2,Pin_2*%
%TO.N,/I2C/SDA*%
X156972000Y-63500000D03*
%TO.P,I2C0,3,Pin_3*%
%TO.N,VCC*%
X156972000Y-66040000D03*
%TO.P,I2C0,4,Pin_4*%
%TO.N,GND*%
X156972000Y-68580000D03*
%TD*%
D14*
%TO.P,I2C12,1,Pin_1*%
%TO.N,/I2C12/SCL*%
X110490000Y-109220000D03*
D15*
%TO.P,I2C12,2,Pin_2*%
%TO.N,/I2C12/SDA*%
X107950000Y-109220000D03*
%TO.P,I2C12,3,Pin_3*%
%TO.N,VCC*%
X105410000Y-109220000D03*
%TO.P,I2C12,4,Pin_4*%
%TO.N,GND*%
X102870000Y-109220000D03*
%TD*%
D16*
%TO.P,R33,1*%
%TO.N,Net-(R19-Pad2)*%
X124206000Y-86806500D03*
%TO.P,R33,2*%
%TO.N,/GPIO6*%
X124206000Y-83881500D03*
%TD*%
D23*
%TO.P,L1,1,1*%
%TO.N,Net-(U4-EN)*%
X106400000Y-86800000D03*
%TO.P,L1,2,2*%
%TO.N,Net-(D1-A)*%
X106400000Y-80400000D03*
%TD*%
D14*
%TO.P,UART1,1,Pin_1*%
%TO.N,/GPIO2*%
X107950000Y-114300000D03*
D15*
%TO.P,UART1,2,Pin_2*%
%TO.N,/GPIO1*%
X105410000Y-114300000D03*
%TO.P,UART1,3,Pin_3*%
%TO.N,/GPIO0*%
X102870000Y-114300000D03*
%TD*%
D16*
%TO.P,R22,1*%
%TO.N,GND*%
X108966000Y-99379500D03*
%TO.P,R22,2*%
%TO.N,Net-(JP3-A)*%
X108966000Y-96454500D03*
%TD*%
D24*
%TO.P,C12,1*%
%TO.N,VCC*%
X105410000Y-90170000D03*
%TO.P,C12,2*%
%TO.N,GND*%
X102460000Y-90170000D03*
%TD*%
D14*
%TO.P,I2C2,1,Pin_1*%
%TO.N,/I2C2/SCL*%
X156972000Y-86360000D03*
D15*
%TO.P,I2C2,2,Pin_2*%
%TO.N,/I2C2/SDA*%
X156972000Y-88900000D03*
%TO.P,I2C2,3,Pin_3*%
%TO.N,VCC*%
X156972000Y-91440000D03*
%TO.P,I2C2,4,Pin_4*%
%TO.N,GND*%
X156972000Y-93980000D03*
%TD*%
D25*
%TO.P,IC2,1,VM*%
%TO.N,GND*%
X127000000Y-76200000D03*
%TO.P,IC2,2,VM*%
X128270000Y-76200000D03*
%TO.P,IC2,3,VM*%
X129540000Y-76200000D03*
%TO.P,IC2,4,VM*%
X130810000Y-76200000D03*
%TO.P,IC2,5,GND*%
%TO.N,/battery/BAT-*%
X130810000Y-70662000D03*
%TO.P,IC2,6,VDD*%
%TO.N,Net-(IC2-VDD)*%
X129540000Y-70662000D03*
%TO.P,IC2,7,GND*%
%TO.N,/battery/BAT-*%
X128270000Y-70662000D03*
%TO.P,IC2,8,GND*%
X127000000Y-70662000D03*
D26*
%TO.P,IC2,9,EPAD*%
X128905000Y-73431000D03*
%TD*%
D27*
%TO.P,SW2,1,1*%
%TO.N,/GPIO24*%
X146277000Y-112812000D03*
X152777000Y-112812000D03*
%TO.P,SW2,2,2*%
%TO.N,GND*%
X146277000Y-117312000D03*
X152777000Y-117312000D03*
%TD*%
D28*
%TO.P,U2,1,A0*%
%TO.N,Net-(JP8-B)*%
X146514500Y-56410000D03*
%TO.P,U2,2,A1*%
%TO.N,Net-(JP7-B)*%
X146514500Y-57060000D03*
%TO.P,U2,3,~{RESET}*%
%TO.N,Net-(U2-~{RESET})*%
X146514500Y-57710000D03*
%TO.P,U2,4,SD0*%
%TO.N,/I2C/SDA*%
X146514500Y-58360000D03*
%TO.P,U2,5,SC0*%
%TO.N,/I2C/SCL*%
X146514500Y-59010000D03*
%TO.P,U2,6,SD1*%
%TO.N,/I2C1/SDA*%
X146514500Y-59660000D03*
%TO.P,U2,7,SC1*%
%TO.N,/I2C1/SCL*%
X146514500Y-60310000D03*
%TO.P,U2,8,SD2*%
%TO.N,/I2C2/SDA*%
X146514500Y-60960000D03*
%TO.P,U2,9,SC2*%
%TO.N,/I2C2/SCL*%
X146514500Y-61610000D03*
%TO.P,U2,10,SD3*%
%TO.N,/I2C3/SDA*%
X146514500Y-62260000D03*
%TO.P,U2,11,SC3*%
%TO.N,/I2C3/SCL*%
X146514500Y-62910000D03*
%TO.P,U2,12,GND*%
%TO.N,GND*%
X146514500Y-63560000D03*
%TO.P,U2,13,SD4*%
%TO.N,/I2C4/SDA*%
X152239500Y-63560000D03*
%TO.P,U2,14,SC4*%
%TO.N,/I2C4/SCL*%
X152239500Y-62910000D03*
%TO.P,U2,15,SD5*%
%TO.N,/I2C5/SDA*%
X152239500Y-62260000D03*
%TO.P,U2,16,SC5*%
%TO.N,/I2C5/SCL*%
X152239500Y-61610000D03*
%TO.P,U2,17,SD6*%
%TO.N,/I2C6/SDA*%
X152239500Y-60960000D03*
%TO.P,U2,18,SC6*%
%TO.N,/I2C6/SCL*%
X152239500Y-60310000D03*
%TO.P,U2,19,SD7*%
%TO.N,/I2C7/SDA*%
X152239500Y-59660000D03*
%TO.P,U2,20,SC7*%
%TO.N,/I2C7/SCL*%
X152239500Y-59010000D03*
%TO.P,U2,21,A2*%
%TO.N,Net-(JP6-A)*%
X152239500Y-58360000D03*
%TO.P,U2,22,SCL*%
%TO.N,/GPIO9*%
X152239500Y-57710000D03*
%TO.P,U2,23,SDA*%
%TO.N,/GPIO8*%
X152239500Y-57060000D03*
%TO.P,U2,24,VCC*%
%TO.N,VCC*%
X152239500Y-56410000D03*
%TD*%
D14*
%TO.P,PICO_R1,1,Pin_1*%
%TO.N,/GPIO15*%
X138430000Y-68580000D03*
D15*
%TO.P,PICO_R1,2,Pin_2*%
%TO.N,VCC*%
X138430000Y-71120000D03*
%TO.P,PICO_R1,3,Pin_3*%
%TO.N,GND*%
X138430000Y-73660000D03*
%TO.P,PICO_R1,4,Pin_4*%
%TO.N,/GPIO18*%
X138430000Y-76200000D03*
%TO.P,PICO_R1,5,Pin_5*%
%TO.N,/GPIO19*%
X138430000Y-78740000D03*
%TO.P,PICO_R1,6,Pin_6*%
%TO.N,/GPIO20*%
X138430000Y-81280000D03*
%TO.P,PICO_R1,7,Pin_7*%
%TO.N,/GPIO21*%
X138430000Y-83820000D03*
%TO.P,PICO_R1,8,Pin_8*%
%TO.N,/GPIO22*%
X138430000Y-86360000D03*
%TO.P,PICO_R1,9,Pin_9*%
%TO.N,/GPIO23*%
X138430000Y-88900000D03*
%TO.P,PICO_R1,10,Pin_10*%
%TO.N,/GPIO24*%
X138430000Y-91440000D03*
%TO.P,PICO_R1,11,Pin_11*%
%TO.N,/GPIO25*%
X138430000Y-93980000D03*
%TO.P,PICO_R1,12,Pin_12*%
%TO.N,/GPIO26*%
X138430000Y-96520000D03*
%TO.P,PICO_R1,13,Pin_13*%
%TO.N,/GPIO27*%
X138430000Y-99060000D03*
%TO.P,PICO_R1,14,Pin_14*%
%TO.N,/GPIO28*%
X138430000Y-101600000D03*
%TO.P,PICO_R1,15,Pin_15*%
%TO.N,/GPIO29*%
X138430000Y-104140000D03*
%TD*%
D10*
%TO.P,R21,1*%
%TO.N,GND*%
X101534500Y-104521000D03*
%TO.P,R21,2*%
%TO.N,Net-(JP4-B)*%
X104459500Y-104521000D03*
%TD*%
D27*
%TO.P,RST_SW1,1,1*%
%TO.N,/GPIO20*%
X121870000Y-50328000D03*
X128370000Y-50328000D03*
%TO.P,RST_SW1,2,2*%
%TO.N,GND*%
X121870000Y-54828000D03*
X128370000Y-54828000D03*
%TD*%
D29*
%TO.P,H4,1,1*%
%TO.N,GND*%
X100330000Y-121920000D03*
%TD*%
D14*
%TO.P,OLED_CONN1,1,Pin_1*%
%TO.N,VCC*%
X112557000Y-114300000D03*
D15*
%TO.P,OLED_CONN1,2,Pin_2*%
%TO.N,GND*%
X115097000Y-114300000D03*
%TO.P,OLED_CONN1,3,Pin_3*%
%TO.N,/OLED_SCL*%
X117637000Y-114300000D03*
%TO.P,OLED_CONN1,4,Pin_4*%
%TO.N,/OLED_SDA*%
X120177000Y-114300000D03*
%TD*%
D29*
%TO.P,H5,1,1*%
%TO.N,GND*%
X158750000Y-121920000D03*
%TD*%
D10*
%TO.P,R15,1*%
%TO.N,GND*%
X103400000Y-69700000D03*
%TO.P,R15,2*%
%TO.N,Net-(12V1-A)*%
X106325000Y-69700000D03*
%TD*%
D11*
%TO.P,D1,1,K*%
%TO.N,Net-(D1-K)*%
X133400000Y-71900000D03*
%TO.P,D1,2,A*%
%TO.N,Net-(D1-A)*%
X133400000Y-74700000D03*
%TD*%
D28*
%TO.P,U1,1,A0*%
%TO.N,Net-(JP5-B)*%
X100701000Y-95115000D03*
%TO.P,U1,2,A1*%
%TO.N,Net-(JP4-B)*%
X100701000Y-95765000D03*
%TO.P,U1,3,~{RESET}*%
%TO.N,Net-(U1-~{RESET})*%
X100701000Y-96415000D03*
%TO.P,U1,4,SD0*%
%TO.N,/SENSOR_SDA*%
X100701000Y-97065000D03*
%TO.P,U1,5,SC0*%
%TO.N,/SENSOR_SCL*%
X100701000Y-97715000D03*
%TO.P,U1,6,SD1*%
%TO.N,/US_SDA*%
X100701000Y-98365000D03*
%TO.P,U1,7,SC1*%
%TO.N,/US_SCL*%
X100701000Y-99015000D03*
%TO.P,U1,8,SD2*%
%TO.N,/OLED_SDA*%
X100701000Y-99665000D03*
%TO.P,U1,9,SC2*%
%TO.N,/OLED_SCL*%
X100701000Y-100315000D03*
%TO.P,U1,10,SD3*%
%TO.N,/I2C8/SDA*%
X100701000Y-100965000D03*
%TO.P,U1,11,SC3*%
%TO.N,/I2C8/SCL*%
X100701000Y-101615000D03*
%TO.P,U1,12,GND*%
%TO.N,GND*%
X100701000Y-102265000D03*
%TO.P,U1,13,SD4*%
%TO.N,/I2C9/SDA*%
X106426000Y-102265000D03*
%TO.P,U1,14,SC4*%
%TO.N,/I2C9/SCL*%
X106426000Y-101615000D03*
%TO.P,U1,15,SD5*%
%TO.N,/I2C10/SDA*%
X106426000Y-100965000D03*
%TO.P,U1,16,SC5*%
%TO.N,/I2C10/SCL*%
X106426000Y-100315000D03*
%TO.P,U1,17,SD6*%
%TO.N,/I2C11/SDA*%
X106426000Y-99665000D03*
%TO.P,U1,18,SC6*%
%TO.N,/I2C11/SCL*%
X106426000Y-99015000D03*
%TO.P,U1,19,SD7*%
%TO.N,/I2C12/SDA*%
X106426000Y-98365000D03*
%TO.P,U1,20,SC7*%
%TO.N,/I2C12/SCL*%
X106426000Y-97715000D03*
%TO.P,U1,21,A2*%
%TO.N,Net-(JP3-A)*%
X106426000Y-97065000D03*
%TO.P,U1,22,SCL*%
%TO.N,/GPIO6*%
X106426000Y-96415000D03*
%TO.P,U1,23,SDA*%
%TO.N,/GPIO5*%
X106426000Y-95765000D03*
%TO.P,U1,24,VCC*%
%TO.N,VCC*%
X106426000Y-95115000D03*
%TD*%
D13*
%TO.P,C5,1*%
%TO.N,Net-(U4-EN)*%
X156925000Y-112200000D03*
%TO.P,C5,2*%
%TO.N,GND*%
X159875000Y-112200000D03*
%TD*%
D14*
%TO.P,I2C5,1,Pin_1*%
%TO.N,/I2C5/SCL*%
X162052000Y-73660000D03*
D15*
%TO.P,I2C5,2,Pin_2*%
%TO.N,/I2C5/SDA*%
X162052000Y-76200000D03*
%TO.P,I2C5,3,Pin_3*%
%TO.N,VCC*%
X162052000Y-78740000D03*
%TO.P,I2C5,4,Pin_4*%
%TO.N,GND*%
X162052000Y-81280000D03*
%TD*%
D14*
%TO.P,I2C6,1,Pin_1*%
%TO.N,/I2C6/SCL*%
X162052000Y-86360000D03*
D15*
%TO.P,I2C6,2,Pin_2*%
%TO.N,/I2C6/SDA*%
X162052000Y-88900000D03*
%TO.P,I2C6,3,Pin_3*%
%TO.N,VCC*%
X162052000Y-91440000D03*
%TO.P,I2C6,4,Pin_4*%
%TO.N,GND*%
X162052000Y-93980000D03*
%TD*%
D30*
%TO.P,U3,1,IN*%
%TO.N,VBUS*%
X124150000Y-61500000D03*
%TO.P,U3,2,ISET*%
%TO.N,Net-(U3-ISET)*%
X124150000Y-62000000D03*
%TO.P,U3,3,VSS*%
%TO.N,GND*%
X124150000Y-62500000D03*
%TO.P,U3,4,PRETERM*%
%TO.N,Net-(U3-PRETERM)*%
X124150000Y-63000000D03*
%TO.P,U3,5,~{PG}*%
%TO.N,Net-(PG1-K)*%
X124150000Y-63500000D03*
%TO.P,U3,6*%
%TO.N,N/C*%
X128350000Y-63500000D03*
%TO.P,U3,7,ISET2*%
%TO.N,GND*%
X128350000Y-63000000D03*
%TO.P,U3,8,~{CHG}*%
%TO.N,Net-(CHG1-K)*%
X128350000Y-62500000D03*
%TO.P,U3,9,TS*%
%TO.N,Net-(U3-TS)*%
X128350000Y-62000000D03*
%TO.P,U3,10,OUT*%
%TO.N,/battery/BAT+*%
X128350000Y-61500000D03*
D31*
%TO.P,U3,11,EP*%
%TO.N,GND*%
X126250000Y-62500000D03*
D32*
%TO.P,U3,12*%
%TO.N,N/C*%
X125800000Y-61900000D03*
%TO.P,U3,13*%
X126700000Y-61900000D03*
%TO.P,U3,14*%
X126250000Y-62500000D03*
%TO.P,U3,15*%
X125800000Y-63100000D03*
%TO.P,U3,16*%
X126700000Y-63100000D03*
%TD*%
D33*
%TO.P,R14,1*%
%TO.N,Net-(12V1-A)*%
X108800000Y-66975000D03*
%TO.P,R14,2*%
%TO.N,VCC*%
X108800000Y-69900000D03*
%TD*%
D10*
%TO.P,R8,1*%
%TO.N,Net-(PG1-A)*%
X149375000Y-89600000D03*
%TO.P,R8,2*%
%TO.N,/battery/BAT+*%
X152300000Y-89600000D03*
%TD*%
%TO.P,R28,1*%
%TO.N,VCC*%
X149575000Y-75500000D03*
%TO.P,R28,2*%
%TO.N,Net-(R28-Pad2)*%
X152500000Y-75500000D03*
%TD*%
%TO.P,R25,1*%
%TO.N,GND*%
X141300000Y-63400000D03*
%TO.P,R25,2*%
%TO.N,Net-(JP8-B)*%
X144225000Y-63400000D03*
%TD*%
D33*
%TO.P,R20,1*%
%TO.N,GND*%
X100250000Y-89325000D03*
%TO.P,R20,2*%
%TO.N,Net-(JP5-B)*%
X100250000Y-92250000D03*
%TD*%
D34*
%TO.P,R34,1*%
%TO.N,Net-(R28-Pad2)*%
X152467500Y-83814000D03*
%TO.P,R34,2*%
%TO.N,/GPIO9*%
X149542500Y-83814000D03*
%TD*%
D35*
%TO.P,C10,1*%
%TO.N,Net-(U5-DVDT)*%
X99400000Y-77900000D03*
%TO.P,C10,2*%
%TO.N,GND*%
X99400000Y-74950000D03*
%TD*%
%TO.P,C9,1*%
%TO.N,/battery/BAT+*%
X152400000Y-124075000D03*
%TO.P,C9,2*%
%TO.N,GND*%
X152400000Y-121125000D03*
%TD*%
D36*
%TO.P,U5,1,GND*%
%TO.N,GND*%
X102675000Y-74595000D03*
%TO.P,U5,2,DVDT*%
%TO.N,Net-(U5-DVDT)*%
X102675000Y-75865000D03*
%TO.P,U5,3,EN/UVLO*%
%TO.N,Net-(U5-EN{slash}UVLO)*%
X102675000Y-77135000D03*
%TO.P,U5,4,IN*%
%TO.N,Net-(D1-K)*%
X102675000Y-78405000D03*
%TO.P,U5,5,OUT*%
%TO.N,VCC*%
X108425000Y-78405000D03*
%TO.P,U5,6,~{FLT}*%
%TO.N,unconnected-(U5-~{FLT}-Pad6)*%
X108425000Y-77135000D03*
%TO.P,U5,7,ILM*%
%TO.N,Net-(U5-ILM)*%
X108425000Y-75865000D03*
%TO.P,U5,8,OVCSEL*%
%TO.N,unconnected-(U5-OVCSEL-Pad8)*%
X108425000Y-74595000D03*
D37*
%TO.P,U5,9,EXP*%
%TO.N,GND*%
X105550000Y-76500000D03*
D32*
%TO.P,U5,10*%
%TO.N,N/C*%
X104900000Y-75200000D03*
%TO.P,U5,11*%
X106200000Y-75200000D03*
%TO.P,U5,12*%
X104900000Y-76500000D03*
%TO.P,U5,13*%
X106200000Y-76500000D03*
%TO.P,U5,14*%
X104900000Y-77800000D03*
%TO.P,U5,15*%
X106200000Y-77800000D03*
%TD*%
D14*
%TO.P,MOTOR_CONN1,1,Pin_1*%
%TO.N,/GPIO4*%
X129057000Y-124460000D03*
D15*
%TO.P,MOTOR_CONN1,2,Pin_2*%
%TO.N,/GPIO3*%
X131597000Y-124460000D03*
%TD*%
D10*
%TO.P,R9,1*%
%TO.N,Net-(CHG1-A)*%
X149383500Y-91943000D03*
%TO.P,R9,2*%
%TO.N,/battery/BAT+*%
X152308500Y-91943000D03*
%TD*%
D13*
%TO.P,C14,1*%
%TO.N,VCC*%
X107286000Y-90170000D03*
%TO.P,C14,2*%
%TO.N,GND*%
X110236000Y-90170000D03*
%TD*%
D27*
%TO.P,SW1,1,1*%
%TO.N,/GPIO23*%
X133427000Y-112812000D03*
X139927000Y-112812000D03*
%TO.P,SW1,2,2*%
%TO.N,GND*%
X133427000Y-117312000D03*
X139927000Y-117312000D03*
%TD*%
D29*
%TO.P,H1,1,1*%
%TO.N,GND*%
X100330000Y-53340000D03*
%TD*%
D14*
%TO.P,US1,1,Pin_1*%
%TO.N,/US_SDA*%
X133350000Y-55855000D03*
D15*
%TO.P,US1,2,Pin_2*%
%TO.N,/US_SCL*%
X135890000Y-55855000D03*
%TO.P,US1,3,Pin_3*%
%TO.N,VCC*%
X138430000Y-55855000D03*
%TO.P,US1,4,Pin_4*%
%TO.N,GND*%
X140970000Y-55855000D03*
%TD*%
D10*
%TO.P,R6,1*%
%TO.N,Net-(U3-ISET)*%
X123975000Y-59100000D03*
%TO.P,R6,2*%
%TO.N,GND*%
X126900000Y-59100000D03*
%TD*%
D34*
%TO.P,R32,1*%
%TO.N,Net-(R27-Pad2)*%
X152462500Y-81500000D03*
%TO.P,R32,2*%
%TO.N,/GPIO8*%
X149537500Y-81500000D03*
%TD*%
D13*
%TO.P,C2,1*%
%TO.N,Net-(U4-SS)*%
X136450000Y-63400000D03*
%TO.P,C2,2*%
%TO.N,GND*%
X139400000Y-63400000D03*
%TD*%
%TO.P,C11,1*%
%TO.N,VCC*%
X107289600Y-92583000D03*
%TO.P,C11,2*%
%TO.N,GND*%
X110239600Y-92583000D03*
%TD*%
%TO.P,C1,1*%
%TO.N,Net-(C1-Pad1)*%
X134350000Y-60400000D03*
%TO.P,C1,2*%
%TO.N,GND*%
X137300000Y-60400000D03*
%TD*%
D10*
%TO.P,R10,1*%
%TO.N,GND*%
X126400000Y-66900000D03*
%TO.P,R10,2*%
%TO.N,Net-(U3-TS)*%
X129325000Y-66900000D03*
%TD*%
D38*
%TO.P,SW3,1,1*%
%TO.N,/battery/BAT+*%
X147574000Y-124968000D03*
%TO.P,SW3,2,2*%
%TO.N,unconnected-(SW3-Pad2)*%
X145074000Y-124968000D03*
%TO.P,SW3,3,3*%
%TO.N,unconnected-(SW3-Pad3)*%
X142574000Y-124968000D03*
%TO.P,SW3,4,4*%
%TO.N,Net-(U4-EN)*%
X147574000Y-121568000D03*
%TO.P,SW3,5,5*%
%TO.N,unconnected-(SW3-Pad5)*%
X145074000Y-121568000D03*
%TO.P,SW3,6,6*%
%TO.N,unconnected-(SW3-Pad6)*%
X142574000Y-121568000D03*
%TD*%
D34*
%TO.P,R16,1*%
%TO.N,Net-(R1-Pad2)*%
X135255000Y-78994000D03*
%TO.P,R16,2*%
%TO.N,Net-(D1-K)*%
X132330000Y-78994000D03*
%TD*%
D33*
%TO.P,R5,1*%
%TO.N,Net-(IC2-VDD)*%
X135400000Y-83937500D03*
%TO.P,R5,2*%
%TO.N,/battery/BAT+*%
X135400000Y-86862500D03*
%TD*%
D14*
%TO.P,GPIO_L1,1,Pin_1*%
%TO.N,/GPIO0*%
X113030000Y-68580000D03*
D15*
%TO.P,GPIO_L1,2,Pin_2*%
%TO.N,/GPIO1*%
X113030000Y-71120000D03*
%TO.P,GPIO_L1,3,Pin_3*%
%TO.N,/GPIO2*%
X113030000Y-73660000D03*
%TO.P,GPIO_L1,4,Pin_4*%
%TO.N,/GPIO3*%
X113030000Y-76200000D03*
%TO.P,GPIO_L1,5,Pin_5*%
%TO.N,/GPIO4*%
X113030000Y-78740000D03*
%TO.P,GPIO_L1,6,Pin_6*%
%TO.N,/GPIO5*%
X113030000Y-81280000D03*
%TO.P,GPIO_L1,7,Pin_7*%
%TO.N,/GPIO6*%
X113030000Y-83820000D03*
%TO.P,GPIO_L1,8,Pin_8*%
%TO.N,/GPIO7*%
X113030000Y-86360000D03*
%TO.P,GPIO_L1,9,Pin_9*%
%TO.N,/GPIO8*%
X113030000Y-88900000D03*
%TO.P,GPIO_L1,10,Pin_10*%
%TO.N,/GPIO9*%
X113030000Y-91440000D03*
%TO.P,GPIO_L1,11,Pin_11*%
%TO.N,/GPIO10*%
X113030000Y-93980000D03*
%TO.P,GPIO_L1,12,Pin_12*%
%TO.N,/GPIO11*%
X113030000Y-96520000D03*
%TO.P,GPIO_L1,13,Pin_13*%
%TO.N,GND*%
X113030000Y-99060000D03*
%TO.P,GPIO_L1,14,Pin_14*%
%TO.N,/GPIO13*%
X113030000Y-101600000D03*
%TO.P,GPIO_L1,15,Pin_15*%
%TO.N,/GPIO14*%
X113030000Y-104140000D03*
%TD*%
D33*
%TO.P,R11,1*%
%TO.N,GND*%
X101100000Y-67075000D03*
%TO.P,R11,2*%
%TO.N,Net-(U5-EN{slash}UVLO)*%
X101100000Y-70000000D03*
%TD*%
D10*
%TO.P,R24,1*%
%TO.N,GND*%
X139375000Y-60400000D03*
%TO.P,R24,2*%
%TO.N,Net-(JP7-B)*%
X142300000Y-60400000D03*
%TD*%
D14*
%TO.P,I2C4,1,Pin_1*%
%TO.N,/I2C4/SCL*%
X162052000Y-60960000D03*
D15*
%TO.P,I2C4,2,Pin_2*%
%TO.N,/I2C4/SDA*%
X162052000Y-63500000D03*
%TO.P,I2C4,3,Pin_3*%
%TO.N,VCC*%
X162052000Y-66040000D03*
%TO.P,I2C4,4,Pin_4*%
%TO.N,GND*%
X162052000Y-68580000D03*
%TD*%
D11*
%TO.P,12V1,1,K*%
%TO.N,GND*%
X105900000Y-56300000D03*
%TO.P,12V1,2,A*%
%TO.N,Net-(12V1-A)*%
X105900000Y-59100000D03*
%TD*%
D13*
%TO.P,C6,1*%
%TO.N,Net-(U4-EN)*%
X156945000Y-114736000D03*
%TO.P,C6,2*%
%TO.N,GND*%
X159895000Y-114736000D03*
%TD*%
D34*
%TO.P,R7,1*%
%TO.N,Net-(U3-PRETERM)*%
X122500000Y-65250000D03*
%TO.P,R7,2*%
%TO.N,GND*%
X119575000Y-65250000D03*
%TD*%
D14*
%TO.P,I2C1,1,Pin_1*%
%TO.N,/I2C1/SCL*%
X156997000Y-73660000D03*
D15*
%TO.P,I2C1,2,Pin_2*%
%TO.N,/I2C1/SDA*%
X156997000Y-76200000D03*
%TO.P,I2C1,3,Pin_3*%
%TO.N,VCC*%
X156997000Y-78740000D03*
%TO.P,I2C1,4,Pin_4*%
%TO.N,GND*%
X156997000Y-81280000D03*
%TD*%
D14*
%TO.P,PICO_L1,1,Pin_1*%
%TO.N,/GPIO0*%
X120650000Y-68610000D03*
D15*
%TO.P,PICO_L1,2,Pin_2*%
%TO.N,/GPIO1*%
X120650000Y-71150000D03*
%TO.P,PICO_L1,3,Pin_3*%
%TO.N,/GPIO2*%
X120650000Y-73690000D03*
%TO.P,PICO_L1,4,Pin_4*%
%TO.N,/GPIO3*%
X120650000Y-76230000D03*
%TO.P,PICO_L1,5,Pin_5*%
%TO.N,/GPIO4*%
X120650000Y-78770000D03*
%TO.P,PICO_L1,6,Pin_6*%
%TO.N,/GPIO5*%
X120650000Y-81310000D03*
%TO.P,PICO_L1,7,Pin_7*%
%TO.N,/GPIO6*%
X120650000Y-83850000D03*
%TO.P,PICO_L1,8,Pin_8*%
%TO.N,/GPIO7*%
X120650000Y-86390000D03*
%TO.P,PICO_L1,9,Pin_9*%
%TO.N,/GPIO8*%
X120650000Y-88930000D03*
%TO.P,PICO_L1,10,Pin_10*%
%TO.N,/GPIO9*%
X120650000Y-91470000D03*
%TO.P,PICO_L1,11,Pin_11*%
%TO.N,/GPIO10*%
X120650000Y-94010000D03*
%TO.P,PICO_L1,12,Pin_12*%
%TO.N,/GPIO11*%
X120650000Y-96550000D03*
%TO.P,PICO_L1,13,Pin_13*%
%TO.N,GND*%
X120650000Y-99090000D03*
%TO.P,PICO_L1,14,Pin_14*%
%TO.N,/GPIO13*%
X120650000Y-101630000D03*
%TO.P,PICO_L1,15,Pin_15*%
%TO.N,/GPIO14*%
X120650000Y-104170000D03*
%TD*%
D35*
%TO.P,C8,1*%
%TO.N,VBUS*%
X120800000Y-62600000D03*
%TO.P,C8,2*%
%TO.N,GND*%
X120800000Y-59650000D03*
%TD*%
D29*
%TO.P,H2,1,1*%
%TO.N,GND*%
X158750000Y-53340000D03*
%TD*%
D10*
%TO.P,R1,1*%
%TO.N,Net-(U4-FB)*%
X123567000Y-81407000D03*
%TO.P,R1,2*%
%TO.N,Net-(R1-Pad2)*%
X126492000Y-81407000D03*
%TD*%
D14*
%TO.P,I2C11,1,Pin_1*%
%TO.N,/I2C11/SCL*%
X96037000Y-111760000D03*
D15*
%TO.P,I2C11,2,Pin_2*%
%TO.N,/I2C11/SDA*%
X96037000Y-109220000D03*
%TO.P,I2C11,3,Pin_3*%
%TO.N,VCC*%
X96037000Y-106680000D03*
%TO.P,I2C11,4,Pin_4*%
%TO.N,GND*%
X96037000Y-104140000D03*
%TD*%
D39*
%TO.P,U4,1,COMP*%
%TO.N,Net-(U4-COMP)*%
X133500000Y-63100000D03*
%TO.P,U4,2,FB*%
%TO.N,Net-(U4-FB)*%
X132850000Y-63100000D03*
%TO.P,U4,3,EN*%
%TO.N,Net-(U4-EN)*%
X132200000Y-63100000D03*
%TO.P,U4,4,PGND*%
%TO.N,GND*%
X131550000Y-63100000D03*
%TO.P,U4,5,SW*%
%TO.N,Net-(D1-A)*%
X131550000Y-67400000D03*
%TO.P,U4,6,IN*%
%TO.N,Net-(U4-EN)*%
X132200000Y-67400000D03*
%TO.P,U4,7,FREQ*%
X132850000Y-67400000D03*
%TO.P,U4,8,SS*%
%TO.N,Net-(U4-SS)*%
X133500000Y-67400000D03*
%TD*%
D14*
%TO.P,GPIO_R1,1,Pin_1*%
%TO.N,/GPIO15*%
X146050000Y-68580000D03*
D15*
%TO.P,GPIO_R1,2,Pin_2*%
%TO.N,VCC*%
X146050000Y-71120000D03*
%TO.P,GPIO_R1,3,Pin_3*%
%TO.N,GND*%
X146050000Y-73660000D03*
%TO.P,GPIO_R1,4,Pin_4*%
%TO.N,/GPIO18*%
X146050000Y-76200000D03*
%TO.P,GPIO_R1,5,Pin_5*%
%TO.N,/GPIO19*%
X146050000Y-78740000D03*
%TO.P,GPIO_R1,6,Pin_6*%
%TO.N,/GPIO20*%
X146050000Y-81280000D03*
%TO.P,GPIO_R1,7,Pin_7*%
%TO.N,/GPIO21*%
X146050000Y-83820000D03*
%TO.P,GPIO_R1,8,Pin_8*%
%TO.N,/GPIO22*%
X146050000Y-86360000D03*
%TO.P,GPIO_R1,9,Pin_9*%
%TO.N,/GPIO23*%
X146050000Y-88900000D03*
%TO.P,GPIO_R1,10,Pin_10*%
%TO.N,/GPIO24*%
X146050000Y-91440000D03*
%TO.P,GPIO_R1,11,Pin_11*%
%TO.N,/GPIO25*%
X146050000Y-93980000D03*
%TO.P,GPIO_R1,12,Pin_12*%
%TO.N,/GPIO26*%
X146050000Y-96520000D03*
%TO.P,GPIO_R1,13,Pin_13*%
%TO.N,/GPIO27*%
X146050000Y-99060000D03*
%TO.P,GPIO_R1,14,Pin_14*%
%TO.N,/GPIO28*%
X146050000Y-101600000D03*
%TO.P,GPIO_R1,15,Pin_15*%
%TO.N,/GPIO29*%
X146050000Y-104140000D03*
%TD*%
D12*
%TO.P,CHG1,1,K*%
%TO.N,Net-(CHG1-K)*%
X116097000Y-50800000D03*
%TO.P,CHG1,2,A*%
%TO.N,Net-(CHG1-A)*%
X118897000Y-50800000D03*
%TD*%
D10*
%TO.P,R31,1*%
%TO.N,Net-(R18-Pad2)*%
X105971000Y-72362000D03*
%TO.P,R31,2*%
%TO.N,/GPIO5*%
X108896000Y-72362000D03*
%TD*%
D33*
%TO.P,R3,1*%
%TO.N,GND*%
X124000000Y-76037500D03*
%TO.P,R3,2*%
%TO.N,Net-(U4-FB)*%
X124000000Y-78962500D03*
%TD*%
D10*
%TO.P,R26,1*%
%TO.N,VCC*%
X148844000Y-53594000D03*
%TO.P,R26,2*%
%TO.N,Net-(U2-~{RESET})*%
X151769000Y-53594000D03*
%TD*%
D17*
%TO.P,C3,1*%
%TO.N,Net-(D1-K)*%
X101250000Y-80275000D03*
%TO.P,C3,2*%
%TO.N,GND*%
X101250000Y-83225000D03*
%TD*%
D34*
%TO.P,R23,1*%
%TO.N,VCC*%
X105410000Y-92583000D03*
%TO.P,R23,2*%
%TO.N,Net-(U1-~{RESET})*%
X102485000Y-92583000D03*
%TD*%
D33*
%TO.P,R19,1*%
%TO.N,VCC*%
X127000000Y-83875000D03*
%TO.P,R19,2*%
%TO.N,Net-(R19-Pad2)*%
X127000000Y-86800000D03*
%TD*%
D16*
%TO.P,R12,1*%
%TO.N,GND*%
X105100000Y-67462500D03*
%TO.P,R12,2*%
%TO.N,Net-(U5-ILM)*%
X105100000Y-64537500D03*
%TD*%
D14*
%TO.P,I2C3,1,Pin_1*%
%TO.N,/I2C3/SCL*%
X156972000Y-99060000D03*
D15*
%TO.P,I2C3,2,Pin_2*%
%TO.N,/I2C3/SDA*%
X156972000Y-101600000D03*
%TO.P,I2C3,3,Pin_3*%
%TO.N,VCC*%
X156972000Y-104140000D03*
%TO.P,I2C3,4,Pin_4*%
%TO.N,GND*%
X156972000Y-106680000D03*
%TD*%
D34*
%TO.P,R4,1*%
%TO.N,Net-(C1-Pad1)*%
X131900000Y-59400000D03*
%TO.P,R4,2*%
%TO.N,Net-(U4-COMP)*%
X128975000Y-59400000D03*
%TD*%
D14*
%TO.P,ARR1,1,Pin_1*%
%TO.N,/SENSOR_SDA*%
X133350000Y-50800000D03*
D15*
%TO.P,ARR1,2,Pin_2*%
%TO.N,/SENSOR_SCL*%
X135890000Y-50800000D03*
%TO.P,ARR1,3,Pin_3*%
%TO.N,VCC*%
X138430000Y-50800000D03*
%TO.P,ARR1,4,Pin_4*%
%TO.N,GND*%
X140970000Y-50800000D03*
%TD*%
D40*
%TO.P,C13,1*%
%TO.N,VCC*%
X111400000Y-60900000D03*
D27*
%TO.P,C13,2*%
%TO.N,GND*%
X116400000Y-60900000D03*
%TD*%
D10*
%TO.P,R29,1*%
%TO.N,GND*%
X143825500Y-53594000D03*
%TO.P,R29,2*%
%TO.N,Net-(JP6-A)*%
X146750500Y-53594000D03*
%TD*%
%TO.P,R17,1*%
%TO.N,Net-(R13-Pad2)*%
X99756500Y-61214000D03*
%TO.P,R17,2*%
%TO.N,Net-(U5-ILM)*%
X102681500Y-61214000D03*
%TD*%
%TO.P,R27,1*%
%TO.N,VCC*%
X149575000Y-77800000D03*
%TO.P,R27,2*%
%TO.N,Net-(R27-Pad2)*%
X152500000Y-77800000D03*
%TD*%
D41*
%TO.N,GND*%
X99750400Y-90580600D03*
X97815600Y-78316300D03*
X131317000Y-82872000D03*
%TO.N,Net-(R1-Pad2)*%
X134161300Y-78962300D03*
X125506200Y-79517000D03*
%TO.N,Net-(U4-FB)*%
X132850000Y-64344000D03*
X122770800Y-67727700D03*
%TO.N,Net-(U5-EN{slash}UVLO)*%
X101054300Y-77016100D03*
X97960100Y-74409600D03*
%TO.N,Net-(D1-K)*%
X132330000Y-80392100D03*
X104094600Y-80040000D03*
X130454000Y-80383700D03*
%TO.N,Net-(D1-A)*%
X110056200Y-77500000D03*
X133400000Y-75844300D03*
%TO.N,Net-(JP6-A)*%
X150422000Y-59929300D03*
%TO.N,Net-(JP5-B)*%
X102430800Y-99122600D03*
%TO.N,Net-(JP4-B)*%
X104459500Y-103069700D03*
%TO.N,Net-(JP3-A)*%
X109301700Y-98261300D03*
%TO.N,Net-(JP7-B)*%
X144661900Y-61987400D03*
X142300000Y-62230000D03*
%TO.N,Net-(JP8-B)*%
X144225000Y-64781100D03*
%TO.N,Net-(U2-~{RESET})*%
X148425600Y-57542900D03*
X151769000Y-54980000D03*
%TO.N,/OLED_SCL*%
X102755500Y-106799400D03*
%TO.N,/SENSOR_SDA*%
X114283100Y-51991000D03*
X114283100Y-92664800D03*
X98998900Y-95892300D03*
%TO.N,/I2C11/SCL*%
X104667800Y-97389500D03*
%TO.N,/I2C12/SCL*%
X110889000Y-98463300D03*
X105177700Y-96453000D03*
%TO.N,/I2C9/SDA*%
X103434300Y-85157400D03*
%TO.N,/I2C12/SDA*%
X107709700Y-97513500D03*
%TO.N,/I2C10/SCL*%
X104066100Y-96549300D03*
%TO.N,/GPIO6*%
X123010000Y-84704900D03*
%TO.N,/I2C10/SDA*%
X109174300Y-100965000D03*
%TO.N,/OLED_SDA*%
X101716600Y-115895700D03*
%TO.N,/I2C9/SCL*%
X104211200Y-87628700D03*
%TO.N,/I2C8/SDA*%
X98530400Y-97254500D03*
%TO.N,/SENSOR_SCL*%
X98391800Y-91828600D03*
X114886900Y-90089700D03*
X115026100Y-52724600D03*
%TO.N,/GPIO5*%
X108896000Y-73751900D03*
%TO.N,/I2C11/SDA*%
X105193000Y-106107100D03*
%TO.N,/US_SDA*%
X99408700Y-98139600D03*
X111652000Y-93699700D03*
X115302700Y-63280700D03*
%TO.N,/US_SCL*%
X115641100Y-95159200D03*
X115935300Y-62716800D03*
X99457900Y-98945500D03*
%TO.N,/I2C4/SCL*%
X158419600Y-67310000D03*
X158419600Y-60960000D03*
X153837400Y-68058900D03*
%TO.N,/I2C4/SDA*%
X152766600Y-64662900D03*
%TO.N,/GPIO8*%
X144387100Y-87630000D03*
%TO.N,/I2C1/SDA*%
X142692800Y-63912400D03*
X142692800Y-74834700D03*
X145223100Y-60755100D03*
%TO.N,/GPIO9*%
X149938600Y-68906700D03*
X144387100Y-90170000D03*
X155266000Y-66641600D03*
%TO.N,/I2C6/SDA*%
X158841500Y-87106600D03*
%TO.N,/I2C6/SCL*%
X159443200Y-86360000D03*
%TO.N,/I2C1/SCL*%
X151731600Y-64419000D03*
X150365800Y-63276100D03*
%TO.N,/I2C5/SCL*%
X153590900Y-71671100D03*
%TO.N,/I2C2/SCL*%
X147422900Y-83591400D03*
%TO.N,/I2C7/SDA*%
X160145400Y-59737300D03*
X150998600Y-59083000D03*
%TO.N,/I2C5/SDA*%
X159026500Y-62290300D03*
X159288500Y-71931900D03*
X150985500Y-62083600D03*
%TO.N,/I2C7/SCL*%
X153616800Y-59696800D03*
X159328700Y-59696800D03*
%TO.N,/GPIO0*%
X116337100Y-68610000D03*
%TO.N,/GPIO1*%
X116238000Y-71150000D03*
%TO.N,/GPIO2*%
X116089900Y-73690000D03*
%TO.N,/I2C/SDA*%
X147924500Y-58182700D03*
%TO.N,/I2C/SCL*%
X149894300Y-60699400D03*
%TO.N,Net-(CHG1-A)*%
X150117500Y-67344700D03*
X125504900Y-60292800D03*
%TO.N,Net-(CHG1-K)*%
X130455800Y-63389900D03*
X116097000Y-57903800D03*
%TO.N,Net-(PG1-K)*%
X109999300Y-64573900D03*
X124150000Y-64573900D03*
%TO.N,Net-(PG1-A)*%
X111651600Y-81881800D03*
X148873600Y-85653600D03*
%TO.N,VCC*%
X109288000Y-68081200D03*
X128168700Y-81093700D03*
X104988100Y-81791500D03*
%TO.N,/battery/BAT+*%
X149237900Y-67370700D03*
X129543500Y-61011500D03*
%TO.N,Net-(U4-EN)*%
X132041300Y-72648000D03*
X154150500Y-120979500D03*
X110687400Y-72477300D03*
%TD*%
D42*
%TO.N,GND*%
X159895000Y-114736000D02*
X159875000Y-114716000D01*
X130000000Y-86800000D02*
X131317000Y-85483000D01*
X152777000Y-120748000D02*
X152777000Y-117312000D01*
X162052000Y-68580000D02*
X162052000Y-69731700D01*
X96037000Y-92591700D02*
X96326100Y-92591700D01*
X101250000Y-83225000D02*
X101650000Y-83625000D01*
X128568100Y-68492300D02*
X130019700Y-68492300D01*
X127248300Y-66900000D02*
X126400000Y-66900000D01*
X156972000Y-93980000D02*
X156972000Y-95131700D01*
X130908100Y-67603900D02*
X130908100Y-63811300D01*
X129540000Y-77520700D02*
X129540000Y-76200000D01*
X100701000Y-102265000D02*
X97625900Y-102265000D01*
X129540000Y-77520700D02*
X130810000Y-77520700D01*
X100715000Y-63444600D02*
X101100000Y-63829600D01*
X105900000Y-56300000D02*
X100715000Y-56300000D01*
X131317000Y-85483000D02*
X131317000Y-82872000D01*
X140970000Y-55855000D02*
X140970000Y-60400000D01*
X102675000Y-74595000D02*
X101273300Y-74595000D01*
X124150000Y-62500000D02*
X125251700Y-62500000D01*
X113030000Y-99060000D02*
X113030000Y-97908300D01*
X127249800Y-63000000D02*
X127248300Y-63000000D01*
X120650000Y-99090000D02*
X120650000Y-100241700D01*
X140123000Y-63070000D02*
X139596500Y-63596500D01*
X127248300Y-63000000D02*
X127248300Y-66900000D01*
X152400000Y-121125000D02*
X152777000Y-120748000D01*
X97815600Y-78316300D02*
X97815600Y-76534400D01*
X100715000Y-53725000D02*
X100715000Y-56300000D01*
X144888900Y-70637200D02*
X145794400Y-69731700D01*
X157259900Y-105528300D02*
X158527000Y-104261200D01*
X120800000Y-59650000D02*
X120800000Y-55898000D01*
X127349200Y-63000000D02*
X127249800Y-63000000D01*
X156997000Y-81280000D02*
X156997000Y-82431700D01*
X144888900Y-72498900D02*
X144888900Y-70637200D01*
X158527000Y-96686700D02*
X156972000Y-95131700D01*
X96326100Y-92591700D02*
X97193100Y-93458700D01*
X125251700Y-62500000D02*
X125251700Y-61655700D01*
X156972000Y-105528300D02*
X157259900Y-105528300D01*
X96037000Y-102988300D02*
X97193100Y-101832200D01*
X109420000Y-119313000D02*
X109120000Y-119313000D01*
X115097000Y-115451700D02*
X115660800Y-115451700D01*
X158750000Y-121920000D02*
X159895000Y-120775000D01*
X159895000Y-120775000D02*
X159895000Y-114736000D01*
X115920000Y-119313000D02*
X115920000Y-115710900D01*
X158131900Y-91956300D02*
X157259900Y-92828300D01*
X110239600Y-97852300D02*
X110239600Y-92583000D01*
X120800000Y-55898000D02*
X121870000Y-54828000D01*
X128350000Y-63000000D02*
X127349200Y-63000000D01*
X162052000Y-80704100D02*
X162052000Y-80128300D01*
X115920000Y-115710900D02*
X115660800Y-115451700D01*
X145794400Y-69731700D02*
X147025000Y-69731700D01*
X162052000Y-106680000D02*
X162052000Y-107831700D01*
X143825500Y-53594000D02*
X140970000Y-53594000D01*
X147201700Y-64247200D02*
X146514500Y-63560000D01*
X119711500Y-59650000D02*
X118461500Y-60900000D01*
X127248300Y-66900000D02*
X127248300Y-67172500D01*
X128270000Y-76200000D02*
X128270000Y-75539600D01*
X158131900Y-83566600D02*
X158131900Y-91956300D01*
X116755300Y-120364700D02*
X116840000Y-120280000D01*
X138717900Y-72508300D02*
X139596500Y-71629700D01*
X101534500Y-106732800D02*
X102870000Y-108068300D01*
X126400000Y-74879300D02*
X126400000Y-66900000D01*
X138430000Y-72508300D02*
X138717900Y-72508300D01*
X99400000Y-74950000D02*
X100918300Y-74950000D01*
X125251700Y-61655700D02*
X126238400Y-60669000D01*
X100330000Y-53340000D02*
X100715000Y-53725000D01*
X103005800Y-70030700D02*
X103336500Y-69700000D01*
X130908100Y-63811300D02*
X130908000Y-63811200D01*
X100701000Y-103687500D02*
X100701000Y-102265000D01*
X125158200Y-74879300D02*
X126400000Y-74879300D01*
X97815600Y-86890600D02*
X97815600Y-78316300D01*
X127000000Y-75539600D02*
X127000000Y-74879300D01*
X97282000Y-63444600D02*
X100715000Y-63444600D01*
X156972000Y-93980000D02*
X156972000Y-92828300D01*
X112974000Y-97852300D02*
X110239600Y-97852300D01*
X100715000Y-56300000D02*
X100715000Y-63444600D01*
X137300000Y-60400000D02*
X139375000Y-60400000D01*
X120381500Y-100241700D02*
X120650000Y-100241700D01*
X102675000Y-74595000D02*
X103005800Y-74595000D01*
X101650000Y-83625000D02*
X101650000Y-85750000D01*
X127000000Y-76200000D02*
X127000000Y-75539600D01*
X129540000Y-81095000D02*
X129540000Y-77520700D01*
X105550000Y-76500000D02*
X105550000Y-73748300D01*
X101100000Y-67075000D02*
X103336500Y-69311500D01*
X102870000Y-109220000D02*
X102870000Y-110371700D01*
X140970000Y-60400000D02*
X140970000Y-63070000D01*
X156997000Y-82431700D02*
X158131900Y-83566600D01*
X113030000Y-97908300D02*
X112974000Y-97852300D01*
X115660800Y-110714200D02*
X117675000Y-108700000D01*
X130019700Y-68492300D02*
X130908100Y-67603900D01*
X100250000Y-87150000D02*
X101650000Y-85750000D01*
X138430000Y-73660000D02*
X138430000Y-72508300D01*
X108284700Y-123173600D02*
X108200000Y-123258300D01*
X128370000Y-54828000D02*
X126900000Y-56298000D01*
X108284700Y-120364700D02*
X108200000Y-120280000D01*
X140970000Y-53594000D02*
X140970000Y-55855000D01*
X124000000Y-76037500D02*
X125158200Y-74879300D01*
X162340000Y-80128300D02*
X163203700Y-79264600D01*
X101534500Y-104521000D02*
X100701000Y-103687500D01*
X146050000Y-73660000D02*
X144888900Y-72498900D01*
X163203700Y-70883400D02*
X162052000Y-69731700D01*
X130908000Y-63811200D02*
X130908000Y-63788600D01*
X139596500Y-63596500D02*
X139400000Y-63400000D01*
X157259900Y-92828300D02*
X156972000Y-92828300D01*
X110239600Y-98174300D02*
X110239600Y-97852300D01*
X99750400Y-90580600D02*
X99750400Y-89824600D01*
X101650000Y-89360000D02*
X101650000Y-85750000D01*
X130908000Y-63788600D02*
X131550000Y-63146600D01*
X147201700Y-69555000D02*
X147201700Y-64247200D01*
X128270000Y-75539600D02*
X127000000Y-75539600D01*
X102870000Y-110371700D02*
X100330000Y-112911700D01*
X102870000Y-109220000D02*
X102870000Y-108068300D01*
X96037000Y-66040000D02*
X96037000Y-64888300D01*
X116400000Y-60900000D02*
X118461500Y-60900000D01*
X140970000Y-60400000D02*
X139375000Y-60400000D01*
X100250000Y-89325000D02*
X97815600Y-86890600D01*
X131550000Y-63146600D02*
X131550000Y-63100000D01*
X126400000Y-74879300D02*
X127000000Y-74879300D01*
X110239600Y-92583000D02*
X110236000Y-92579400D01*
X96037000Y-64888300D02*
X97282000Y-63643300D01*
X126900000Y-60007400D02*
X126900000Y-59100000D01*
X101534500Y-104521000D02*
X101534500Y-106732800D01*
X127248300Y-61678900D02*
X127248300Y-63000000D01*
X96037000Y-91513200D02*
X96037000Y-91440000D01*
X140970000Y-50800000D02*
X140970000Y-53594000D01*
X156972000Y-106680000D02*
X156972000Y-105528300D01*
X109034400Y-99379500D02*
X110239600Y-98174300D01*
X101100000Y-63829600D02*
X101100000Y-67075000D01*
X162052000Y-107831700D02*
X159875000Y-110008700D01*
X97282000Y-63643300D02*
X97282000Y-63444600D01*
X115620000Y-119313000D02*
X115920000Y-119313000D01*
X97193100Y-93458700D02*
X97193100Y-101832200D01*
X139596500Y-71629700D02*
X139596500Y-63596500D01*
X115920000Y-119313000D02*
X115920000Y-120364700D01*
X126238400Y-60669000D02*
X126900000Y-60007400D01*
X96037000Y-91513200D02*
X96037000Y-92591700D01*
X103005800Y-74595000D02*
X103005800Y-70030700D01*
X131317000Y-82872000D02*
X129540000Y-81095000D01*
X102460000Y-90170000D02*
X101650000Y-89360000D01*
X115920000Y-120364700D02*
X116755300Y-120364700D01*
X104923400Y-73748300D02*
X104076700Y-74595000D01*
X163203700Y-79264600D02*
X163203700Y-70883400D01*
X100918300Y-74950000D02*
X101273300Y-74595000D01*
X109120000Y-120364700D02*
X108284700Y-120364700D01*
X108966000Y-99379500D02*
X109034400Y-99379500D01*
X147025000Y-69731700D02*
X147201700Y-69555000D01*
X115097000Y-114300000D02*
X115097000Y-115451700D01*
X126900000Y-56298000D02*
X126900000Y-59100000D01*
X110236000Y-92579400D02*
X110236000Y-90170000D01*
X140970000Y-63070000D02*
X141300000Y-63400000D01*
X162052000Y-80704100D02*
X162052000Y-81280000D01*
X140970000Y-63070000D02*
X140123000Y-63070000D01*
X162052000Y-80128300D02*
X162340000Y-80128300D01*
X118461500Y-64136500D02*
X119575000Y-65250000D01*
X159875000Y-110008700D02*
X159875000Y-112200000D01*
X99750400Y-89824600D02*
X100250000Y-89325000D01*
X97815600Y-76534400D02*
X99400000Y-74950000D01*
X103336500Y-69311500D02*
X103336500Y-69700000D01*
X105550000Y-73748300D02*
X104923400Y-73748300D01*
X159875000Y-114716000D02*
X159875000Y-112200000D01*
X109120000Y-119313000D02*
X109120000Y-120364700D01*
X117860900Y-102762300D02*
X120381500Y-100241700D01*
X108284700Y-120364700D02*
X108284700Y-123173600D01*
X115660800Y-115451700D02*
X115660800Y-110714200D01*
X103400000Y-69162500D02*
X103400000Y-69700000D01*
X97625900Y-102265000D02*
X97193100Y-101832200D01*
X103005800Y-74595000D02*
X104076700Y-74595000D01*
X105100000Y-67462500D02*
X103400000Y-69162500D01*
X158527000Y-104261200D02*
X158527000Y-96686700D01*
X120800000Y-59650000D02*
X119711500Y-59650000D01*
X97282000Y-63444600D02*
X97282000Y-63246000D01*
X127248300Y-67172500D02*
X128568100Y-68492300D01*
X130810000Y-76200000D02*
X130810000Y-77520700D01*
X96037000Y-104140000D02*
X96037000Y-102988300D01*
X103336500Y-69700000D02*
X103400000Y-69700000D01*
X108200000Y-124460000D02*
X108200000Y-123258300D01*
X117860900Y-108514100D02*
X117860900Y-102762300D01*
X100250000Y-89325000D02*
X100250000Y-87150000D01*
X126238400Y-60669000D02*
X127248300Y-61678900D01*
X100330000Y-112911700D02*
X100330000Y-121920000D01*
X117675000Y-108700000D02*
X117860900Y-108514100D01*
X118461500Y-60900000D02*
X118461500Y-64136500D01*
X116840000Y-124460000D02*
X116840000Y-120280000D01*
%TO.N,Net-(R1-Pad2)*%
X126492000Y-80502800D02*
X126492000Y-81407000D01*
X125506200Y-79517000D02*
X126492000Y-80502800D01*
X135255000Y-78994000D02*
X134193000Y-78994000D01*
X134193000Y-78994000D02*
X134161300Y-78962300D01*
%TO.N,Net-(U4-FB)*%
X132850000Y-63100000D02*
X132850000Y-64344000D01*
X124000000Y-78962500D02*
X122770800Y-77733300D01*
X124047200Y-78915300D02*
X124000000Y-78962500D01*
X124000000Y-78962500D02*
X124000000Y-80974000D01*
X127529000Y-78994000D02*
X127450300Y-78915300D01*
X124000000Y-80974000D02*
X123567000Y-81407000D01*
X127450300Y-78915300D02*
X124047200Y-78915300D01*
X122770800Y-77733300D02*
X122770800Y-67727700D01*
%TO.N,Net-(C1-Pad1)*%
X131900000Y-59400000D02*
X133350000Y-59400000D01*
X133350000Y-59400000D02*
X134350000Y-60400000D01*
%TO.N,Net-(U4-COMP)*%
X130298100Y-60723100D02*
X128975000Y-59400000D01*
X133500000Y-63100000D02*
X133500000Y-62343100D01*
X131880000Y-60723100D02*
X130298100Y-60723100D01*
X133500000Y-62343100D02*
X131880000Y-60723100D01*
%TO.N,Net-(U5-EN{slash}UVLO)*%
X102675000Y-77135000D02*
X101173200Y-77135000D01*
X97960100Y-73139900D02*
X97960100Y-74409600D01*
X101173200Y-77135000D02*
X101054300Y-77016100D01*
X101100000Y-70000000D02*
X97960100Y-73139900D01*
%TO.N,Net-(D1-K)*%
X102675000Y-78405000D02*
X101273300Y-78405000D01*
X102675000Y-78405000D02*
X104094600Y-79824600D01*
X101273300Y-80251700D02*
X101250000Y-80275000D01*
X134577700Y-73077700D02*
X134577700Y-76746300D01*
X132330000Y-80392100D02*
X132330000Y-78994000D01*
X98700000Y-82825000D02*
X98700000Y-85750000D01*
X104094600Y-79824600D02*
X104094600Y-80040000D01*
X134577700Y-76746300D02*
X132330000Y-78994000D01*
X101273300Y-78405000D02*
X101273300Y-80251700D01*
X130454000Y-80383700D02*
X130454000Y-78994000D01*
X133400000Y-71900000D02*
X134577700Y-73077700D01*
X101250000Y-80275000D02*
X98700000Y-82825000D01*
%TO.N,Net-(D1-A)*%
X133120000Y-74700000D02*
X133400000Y-74700000D01*
X133400000Y-74700000D02*
X133400000Y-75844300D01*
X131394600Y-72974600D02*
X133120000Y-74700000D01*
X108241100Y-80400000D02*
X106400000Y-80400000D01*
X110056200Y-78584900D02*
X108241100Y-80400000D01*
X131550000Y-67400000D02*
X131550000Y-71747800D01*
X131394600Y-71903200D02*
X131394600Y-72974600D01*
X131550000Y-71747800D02*
X131394600Y-71903200D01*
X110056200Y-77500000D02*
X110056200Y-78584900D01*
%TO.N,Net-(U5-ILM)*%
X106324300Y-65761800D02*
X105100000Y-64537500D01*
X105413400Y-70579900D02*
X105413400Y-68868100D01*
X108425000Y-75865000D02*
X109826700Y-75865000D01*
X105761600Y-70928100D02*
X105413400Y-70579900D01*
X106324300Y-67957200D02*
X106324300Y-65761800D01*
X105413400Y-68868100D02*
X106324300Y-67957200D01*
X109826700Y-71520400D02*
X109234400Y-70928100D01*
X105100000Y-64537500D02*
X102681500Y-62119000D01*
X109826700Y-75865000D02*
X109826700Y-71520400D01*
X102681500Y-62119000D02*
X102681500Y-61214000D01*
X109234400Y-70928100D02*
X105761600Y-70928100D01*
%TO.N,Net-(R13-Pad2)*%
X98863500Y-60321000D02*
X99756500Y-61214000D01*
X97282000Y-60321000D02*
X98863500Y-60321000D01*
%TO.N,Net-(12V1-A)*%
X108800000Y-67225000D02*
X108800000Y-66975000D01*
X108800000Y-62000000D02*
X105900000Y-59100000D01*
X108800000Y-66975000D02*
X108800000Y-62000000D01*
X106325000Y-69700000D02*
X108800000Y-67225000D01*
%TO.N,Net-(U4-SS)*%
X133500000Y-67400000D02*
X136450000Y-64450000D01*
X136450000Y-64450000D02*
X136450000Y-63400000D01*
%TO.N,Net-(JP6-A)*%
X150422000Y-59929300D02*
X150361000Y-59868300D01*
X151024500Y-58131900D02*
X151252500Y-58360000D01*
X150361000Y-59868300D02*
X150361000Y-58795400D01*
X151252500Y-58360000D02*
X152239500Y-58360000D01*
X146750500Y-53858000D02*
X151024500Y-58131900D01*
X146750500Y-53594000D02*
X146750500Y-53858000D01*
X150361000Y-58795400D02*
X151024500Y-58131900D01*
%TO.N,Net-(JP5-B)*%
X100701000Y-95115000D02*
X101357200Y-95115000D01*
X101357200Y-95115000D02*
X102430800Y-96188600D01*
X102430800Y-96188600D02*
X102430800Y-99122600D01*
X100250000Y-94664000D02*
X100701000Y-95115000D01*
X100250000Y-92250000D02*
X100250000Y-94664000D01*
%TO.N,Net-(JP4-B)*%
X101370200Y-95765000D02*
X101829100Y-96223900D01*
X104459500Y-102002100D02*
X104459500Y-103069700D01*
X101829100Y-99371700D02*
X104459500Y-102002100D01*
X104459500Y-104521000D02*
X104459500Y-103069700D01*
X101829100Y-96223900D02*
X101829100Y-99371700D01*
X100701000Y-95765000D02*
X101370200Y-95765000D01*
%TO.N,Net-(JP3-A)*%
X108966000Y-96454500D02*
X109301700Y-96790200D01*
X108966000Y-96454500D02*
X107917900Y-96454500D01*
X107917900Y-96454500D02*
X107307400Y-97065000D01*
X109301700Y-96790200D02*
X109301700Y-98261300D01*
X107307400Y-97065000D02*
X106426000Y-97065000D01*
%TO.N,Net-(U1-~{RESET})*%
X99025500Y-95068000D02*
X99025500Y-91684200D01*
X99336900Y-91372800D02*
X101274800Y-91372800D01*
X99600600Y-95643100D02*
X99025500Y-95068000D01*
X100701000Y-96415000D02*
X100001600Y-96415000D01*
X99025500Y-91684200D02*
X99336900Y-91372800D01*
X99600600Y-96014000D02*
X99600600Y-95643100D01*
X100001600Y-96415000D02*
X99600600Y-96014000D01*
X101274800Y-91372800D02*
X102485000Y-92583000D01*
%TO.N,Net-(JP7-B)*%
X144621400Y-61946900D02*
X144661900Y-61987400D01*
X144621400Y-58296900D02*
X144621400Y-61946900D01*
X146514500Y-57060000D02*
X145858300Y-57060000D01*
X142300000Y-60400000D02*
X142300000Y-62230000D01*
X145858300Y-57060000D02*
X144621400Y-58296900D01*
%TO.N,Net-(JP8-B)*%
X144225000Y-63400000D02*
X144225000Y-64781100D01*
X146514500Y-56410000D02*
X145780500Y-56410000D01*
X145780500Y-56410000D02*
X144060200Y-58130300D01*
X144060200Y-58130300D02*
X144060200Y-63235200D01*
X144060200Y-63235200D02*
X144225000Y-63400000D01*
%TO.N,Net-(U2-~{RESET})*%
X146643600Y-57580900D02*
X148387600Y-57580900D01*
X151769000Y-53594000D02*
X151769000Y-54980000D01*
X148387600Y-57580900D02*
X148425600Y-57542900D01*
X146514500Y-57710000D02*
X146643600Y-57580900D01*
%TO.N,/OLED_SCL*%
X102755500Y-101713300D02*
X102755500Y-106799400D01*
X101357200Y-100315000D02*
X102755500Y-101713300D01*
X100701000Y-100315000D02*
X101357200Y-100315000D01*
%TO.N,/SENSOR_SDA*%
X98998900Y-96078000D02*
X98998900Y-95892300D01*
X99985900Y-97065000D02*
X98998900Y-96078000D01*
X114283100Y-51991000D02*
X114283100Y-92664800D01*
X100701000Y-97065000D02*
X99985900Y-97065000D01*
%TO.N,/I2C11/SCL*%
X105718600Y-99015000D02*
X106426000Y-99015000D01*
X104667800Y-97389500D02*
X104667800Y-97964200D01*
X104667800Y-97964200D02*
X105718600Y-99015000D01*
%TO.N,/I2C12/SCL*%
X106426000Y-97715000D02*
X105737500Y-97715000D01*
X105328000Y-97305500D02*
X105328000Y-96603300D01*
X105328000Y-96603300D02*
X105177700Y-96453000D01*
X110490000Y-108068300D02*
X110889000Y-107669300D01*
X110490000Y-109220000D02*
X110490000Y-108068300D01*
X105737500Y-97715000D02*
X105328000Y-97305500D01*
X110889000Y-107669300D02*
X110889000Y-98463300D01*
%TO.N,/I2C9/SDA*%
X105766900Y-102265000D02*
X106426000Y-102265000D01*
X103434300Y-85157400D02*
X103434300Y-95484800D01*
X103434300Y-95484800D02*
X103032600Y-95886500D01*
X103032600Y-95886500D02*
X103032600Y-99530700D01*
X103032600Y-99530700D02*
X105766900Y-102265000D01*
%TO.N,/I2C12/SDA*%
X107086900Y-98365000D02*
X106426000Y-98365000D01*
X107709700Y-97742200D02*
X107086900Y-98365000D01*
X107709700Y-97513500D02*
X107709700Y-97742200D01*
%TO.N,/I2C10/SCL*%
X104066100Y-98652300D02*
X104066100Y-96549300D01*
X105728800Y-100315000D02*
X104066100Y-98652300D01*
X106426000Y-100315000D02*
X105728800Y-100315000D01*
%TO.N,/GPIO6*%
X107156800Y-96415000D02*
X109289800Y-94282000D01*
X109289800Y-88443400D02*
X112761500Y-84971700D01*
X109289800Y-94282000D02*
X109289800Y-88443400D01*
X106426000Y-96415000D02*
X107156800Y-96415000D01*
X112761500Y-84971700D02*
X113030000Y-84971700D01*
X113030000Y-83820000D02*
X113030000Y-84971700D01*
X123382600Y-84704900D02*
X124206000Y-83881500D01*
X123010000Y-84704900D02*
X123382600Y-84704900D01*
%TO.N,/I2C10/SDA*%
X106426000Y-100965000D02*
X109174300Y-100965000D01*
%TO.N,/OLED_SDA*%
X101716600Y-112758700D02*
X101716600Y-115895700D01*
X104029900Y-106939300D02*
X104029900Y-110445400D01*
X100701000Y-99665000D02*
X101366100Y-99665000D01*
X103355700Y-106265100D02*
X104029900Y-106939300D01*
X104029900Y-110445400D02*
X101716600Y-112758700D01*
X103355700Y-101654600D02*
X103355700Y-106265100D01*
X101366100Y-99665000D02*
X103355700Y-101654600D01*
%TO.N,/I2C9/SCL*%
X106426000Y-101615000D02*
X105769800Y-101615000D01*
X104211200Y-95476100D02*
X104211200Y-87628700D01*
X103434300Y-99279500D02*
X103434300Y-96253000D01*
X105769800Y-101615000D02*
X103434300Y-99279500D01*
X103434300Y-96253000D02*
X104211200Y-95476100D01*
%TO.N,/I2C8/SDA*%
X98530400Y-99455800D02*
X98530400Y-97254500D01*
X100039600Y-100965000D02*
X98530400Y-99455800D01*
X100701000Y-100965000D02*
X100039600Y-100965000D01*
%TO.N,/SENSOR_SCL*%
X114684800Y-89887600D02*
X114886900Y-90089700D01*
X115026100Y-52724600D02*
X114684800Y-53065900D01*
X98391800Y-96137600D02*
X99969200Y-97715000D01*
X114684800Y-53065900D02*
X114684800Y-89887600D01*
X98391800Y-91828600D02*
X98391800Y-96137600D01*
X99969200Y-97715000D02*
X100701000Y-97715000D01*
%TO.N,/I2C8/SCL*%
X97698600Y-91136100D02*
X97698600Y-99282300D01*
X97698600Y-99282300D02*
X100031300Y-101615000D01*
X96037000Y-74811700D02*
X97188700Y-75963400D01*
X97188700Y-90626200D02*
X97698600Y-91136100D01*
X100031300Y-101615000D02*
X100701000Y-101615000D01*
X97188700Y-75963400D02*
X97188700Y-90626200D01*
X96037000Y-73660000D02*
X96037000Y-74811700D01*
%TO.N,/GPIO5*%
X113030000Y-81280000D02*
X113030000Y-82431700D01*
X106426000Y-95765000D02*
X107109100Y-95765000D01*
X108257400Y-86921100D02*
X112746800Y-82431700D01*
X108896000Y-72362000D02*
X108896000Y-73751900D01*
X107109100Y-95765000D02*
X108257400Y-94616700D01*
X108257400Y-94616700D02*
X108257400Y-86921100D01*
X112746800Y-82431700D02*
X113030000Y-82431700D01*
%TO.N,/I2C11/SDA*%
X109797800Y-101502300D02*
X105193000Y-106107100D01*
X107140500Y-99665000D02*
X107779400Y-100303900D01*
X109437300Y-100303900D02*
X109797800Y-100664400D01*
X109797800Y-100664400D02*
X109797800Y-101502300D01*
X106426000Y-99665000D02*
X107140500Y-99665000D01*
X107779400Y-100303900D02*
X109437300Y-100303900D01*
%TO.N,/US_SDA*%
X112523400Y-92828300D02*
X111652000Y-93699700D01*
X115504500Y-88874800D02*
X115504500Y-90666900D01*
X115086500Y-63496900D02*
X115086500Y-88456800D01*
X100553100Y-98217100D02*
X99486200Y-98217100D01*
X99486200Y-98217100D02*
X99408700Y-98139600D01*
X115302700Y-63280700D02*
X115086500Y-63496900D01*
X115504500Y-90666900D02*
X115040900Y-91130500D01*
X114581900Y-93286600D02*
X113967800Y-93286600D01*
X115086500Y-88456800D02*
X115504500Y-88874800D01*
X115040900Y-92827600D02*
X114581900Y-93286600D01*
X113509500Y-92828300D02*
X112523400Y-92828300D01*
X113967800Y-93286600D02*
X113509500Y-92828300D01*
X100701000Y-98365000D02*
X100553100Y-98217100D01*
X115040900Y-91130500D02*
X115040900Y-92827600D01*
%TO.N,/US_SCL*%
X116042800Y-88737800D02*
X116042800Y-90796800D01*
X115488200Y-88183200D02*
X116042800Y-88737800D01*
X115935300Y-62716800D02*
X115935300Y-63874300D01*
X115488200Y-64321400D02*
X115488200Y-88183200D01*
X99527400Y-99015000D02*
X99457900Y-98945500D01*
X100701000Y-99015000D02*
X99527400Y-99015000D01*
X116042800Y-90796800D02*
X115641100Y-91198500D01*
X115935300Y-63874300D02*
X115488200Y-64321400D01*
X115641100Y-91198500D02*
X115641100Y-95159200D01*
%TO.N,/I2C4/SCL*%
X153665700Y-63647100D02*
X152928600Y-62910000D01*
X152928600Y-62910000D02*
X152239500Y-62910000D01*
X158419600Y-67310000D02*
X158419600Y-60960000D01*
X153665700Y-67887200D02*
X153665700Y-63647100D01*
X153837400Y-68058900D02*
X153665700Y-67887200D01*
%TO.N,/I2C4/SDA*%
X152766600Y-64087100D02*
X152766600Y-64662900D01*
X152239500Y-63560000D02*
X152766600Y-64087100D01*
%TO.N,/GPIO8*%
X145842400Y-52715800D02*
X146185500Y-52372700D01*
X147797200Y-52855800D02*
X147797200Y-54266200D01*
X144387100Y-86382200D02*
X144387100Y-87630000D01*
X146759700Y-85105500D02*
X148024600Y-83840600D01*
X146185500Y-52372700D02*
X147314100Y-52372700D01*
X147797200Y-54266200D02*
X150591000Y-57060000D01*
X150591000Y-57060000D02*
X152239500Y-57060000D01*
X143294500Y-82736200D02*
X143294500Y-56960100D01*
X148024600Y-83012900D02*
X149537500Y-81500000D01*
X148024600Y-83840600D02*
X148024600Y-83012900D01*
X145663800Y-85105500D02*
X144387100Y-86382200D01*
X145842400Y-54412200D02*
X145842400Y-52715800D01*
X147314100Y-52372700D02*
X147797200Y-52855800D01*
X145663800Y-85105500D02*
X143294500Y-82736200D01*
X145663800Y-85105500D02*
X146759700Y-85105500D01*
X143294500Y-56960100D02*
X145842400Y-54412200D01*
%TO.N,/I2C3/SCL*%
X151682500Y-72870000D02*
X151682500Y-71843400D01*
X154495800Y-95432100D02*
X154495800Y-76484400D01*
X153388300Y-74575800D02*
X151682500Y-72870000D01*
X151343700Y-69488500D02*
X151343700Y-67039500D01*
X156972000Y-99060000D02*
X156972000Y-97908300D01*
X151343700Y-67039500D02*
X147214200Y-62910000D01*
X156972000Y-97908300D02*
X154495800Y-95432100D01*
X147214200Y-62910000D02*
X146514500Y-62910000D01*
X151285900Y-69546300D02*
X151343700Y-69488500D01*
X151285900Y-71446800D02*
X151285900Y-69546300D01*
X154495800Y-76484400D02*
X153388300Y-75376900D01*
X153388300Y-75376900D02*
X153388300Y-74575800D01*
X151682500Y-71843400D02*
X151285900Y-71446800D01*
%TO.N,/I2C2/SDA*%
X147198900Y-60960000D02*
X150721500Y-64482600D01*
X150721500Y-64482600D02*
X150721600Y-64482600D01*
X155440800Y-87031600D02*
X156157500Y-87748300D01*
X156157500Y-87748300D02*
X156972000Y-87748300D01*
X156972000Y-88900000D02*
X156972000Y-87748300D01*
X150721600Y-65195800D02*
X152432300Y-66906500D01*
X146514500Y-60960000D02*
X147198900Y-60960000D01*
X150721600Y-64482600D02*
X150721600Y-65195800D01*
X152491000Y-68699300D02*
X152491000Y-72542500D01*
X152432300Y-68640600D02*
X152491000Y-68699300D01*
X152491000Y-72542500D02*
X155440800Y-75492300D01*
X155440800Y-75492300D02*
X155440800Y-87031600D01*
X152432300Y-66906500D02*
X152432300Y-68640600D01*
%TO.N,/I2C1/SDA*%
X146514500Y-59660000D02*
X145792100Y-59660000D01*
X142692800Y-63912400D02*
X142692800Y-74834700D01*
X145792100Y-59660000D02*
X145223100Y-60229000D01*
X145223100Y-60229000D02*
X145223100Y-60755100D01*
%TO.N,/GPIO9*%
X149938600Y-72003700D02*
X149938600Y-68906700D01*
X144387100Y-88922500D02*
X145679600Y-87630000D01*
X150477400Y-82879100D02*
X150477400Y-72542500D01*
X145679600Y-87630000D02*
X146413700Y-87630000D01*
X148271900Y-85084600D02*
X149542500Y-83814000D01*
X146413700Y-87630000D02*
X148271900Y-85771800D01*
X152239500Y-57710000D02*
X152935900Y-57710000D01*
X149542500Y-83814000D02*
X150477400Y-82879100D01*
X144387100Y-90170000D02*
X144387100Y-88922500D01*
X152935900Y-57710000D02*
X155266000Y-60040100D01*
X155266000Y-60040100D02*
X155266000Y-66641600D01*
X148271900Y-85771800D02*
X148271900Y-85084600D01*
X150477400Y-72542500D02*
X149938600Y-72003700D01*
%TO.N,/I2C6/SDA*%
X154067400Y-67357300D02*
X154067400Y-62113400D01*
X154439100Y-67809700D02*
X154239100Y-67609700D01*
X154239100Y-67609700D02*
X154239100Y-67529000D01*
X154439100Y-68501300D02*
X154439100Y-67809700D01*
X154239100Y-67529000D02*
X154067400Y-67357300D01*
X154067400Y-62113400D02*
X152914000Y-60960000D01*
X158841500Y-72903700D02*
X154439100Y-68501300D01*
X152914000Y-60960000D02*
X152239500Y-60960000D01*
X158841500Y-87106600D02*
X158841500Y-72903700D01*
%TO.N,/I2C6/SCL*%
X158686800Y-71925700D02*
X154840800Y-68079700D01*
X154469100Y-67191000D02*
X154469100Y-61881300D01*
X159167000Y-72533600D02*
X159039400Y-72533600D01*
X154840800Y-67562700D02*
X154469100Y-67191000D01*
X158686800Y-72181000D02*
X158686800Y-71925700D01*
X159443200Y-86360000D02*
X159443200Y-72809800D01*
X152897800Y-60310000D02*
X152239500Y-60310000D01*
X159039400Y-72533600D02*
X158686800Y-72181000D01*
X154469100Y-61881300D02*
X152897800Y-60310000D01*
X154840800Y-68079700D02*
X154840800Y-67562700D01*
X159443200Y-72809800D02*
X159167000Y-72533600D01*
%TO.N,/I2C1/SCL*%
X147399700Y-60310000D02*
X150365800Y-63276100D01*
X146514500Y-60310000D02*
X147399700Y-60310000D01*
X156997000Y-73660000D02*
X156997000Y-72508300D01*
X151731600Y-64419000D02*
X151731600Y-64501800D01*
X153235700Y-68308000D02*
X156997000Y-72069300D01*
X156997000Y-72069300D02*
X156997000Y-72508300D01*
X151731600Y-64501800D02*
X153235700Y-66005900D01*
X153235700Y-66005900D02*
X153235700Y-68308000D01*
%TO.N,/I2C5/SCL*%
X150704300Y-61472000D02*
X150324400Y-61851900D01*
X152924300Y-68564600D02*
X152924300Y-71004500D01*
X150324400Y-62383700D02*
X151123300Y-63182600D01*
X151123300Y-64685400D02*
X152834000Y-66396100D01*
X152834000Y-66396100D02*
X152834000Y-68474300D01*
X152239500Y-61610000D02*
X152101500Y-61472000D01*
X152924300Y-71004500D02*
X153590900Y-71671100D01*
X152834000Y-68474300D02*
X152924300Y-68564600D01*
X150324400Y-61851900D02*
X150324400Y-62383700D01*
X152101500Y-61472000D02*
X150704300Y-61472000D01*
X151123300Y-63182600D02*
X151123300Y-64685400D01*
%TO.N,/I2C2/SCL*%
X145348500Y-62075500D02*
X145348500Y-66557900D01*
X144487100Y-73731700D02*
X145685400Y-74930000D01*
X145814000Y-61610000D02*
X145348500Y-62075500D01*
X145348500Y-66557900D02*
X144487100Y-67419300D01*
X147422900Y-75910100D02*
X147422900Y-83591400D01*
X146442800Y-74930000D02*
X147422900Y-75910100D01*
X146514500Y-61610000D02*
X145814000Y-61610000D01*
X145685400Y-74930000D02*
X146442800Y-74930000D01*
X144487100Y-67419300D02*
X144487100Y-73731700D01*
%TO.N,/I2C7/SDA*%
X162052000Y-101600000D02*
X162052000Y-100448300D01*
X161237400Y-100448300D02*
X162052000Y-100448300D01*
X152239500Y-59660000D02*
X151575600Y-59660000D01*
X160044900Y-99255800D02*
X161237400Y-100448300D01*
X151575600Y-59660000D02*
X150998600Y-59083000D01*
X160145400Y-59737300D02*
X160044900Y-59837800D01*
X160044900Y-59837800D02*
X160044900Y-99255800D01*
%TO.N,/I2C5/SDA*%
X159026500Y-71669900D02*
X159026500Y-62290300D01*
X159288500Y-71931900D02*
X159026500Y-71669900D01*
X151161900Y-62260000D02*
X150985500Y-62083600D01*
X152239500Y-62260000D02*
X151161900Y-62260000D01*
%TO.N,/I2C7/SCL*%
X160446700Y-96303000D02*
X160446700Y-63405000D01*
X162342000Y-59123300D02*
X159902200Y-59123300D01*
X159902200Y-59123300D02*
X159328700Y-59696800D01*
X162052000Y-99060000D02*
X162052000Y-97908300D01*
X160446700Y-63405000D02*
X161601000Y-62250700D01*
X162052000Y-97908300D02*
X160446700Y-96303000D01*
X162944400Y-62250700D02*
X163203700Y-61991400D01*
X161601000Y-62250700D02*
X162944400Y-62250700D01*
X163203700Y-59985000D02*
X162342000Y-59123300D01*
X152239500Y-59010000D02*
X152930000Y-59010000D01*
X163203700Y-61991400D02*
X163203700Y-59985000D01*
X152930000Y-59010000D02*
X153616800Y-59696800D01*
%TO.N,/I2C3/SDA*%
X152089300Y-68865600D02*
X152089300Y-72708800D01*
X152089300Y-72708800D02*
X153790000Y-74409500D01*
X155039100Y-76226600D02*
X155039100Y-94354200D01*
X153790000Y-74409500D02*
X153790000Y-74977500D01*
X158123700Y-100111100D02*
X157786500Y-100448300D01*
X152000500Y-68776800D02*
X152089300Y-68865600D01*
X155039100Y-94354200D02*
X158123700Y-97438800D01*
X152000500Y-67054100D02*
X152000500Y-68776800D01*
X147206400Y-62260000D02*
X152000500Y-67054100D01*
X156972000Y-101600000D02*
X156972000Y-100448300D01*
X153790000Y-74977500D02*
X155039100Y-76226600D01*
X146514500Y-62260000D02*
X147206400Y-62260000D01*
X158123700Y-97438800D02*
X158123700Y-100111100D01*
X157786500Y-100448300D02*
X156972000Y-100448300D01*
%TO.N,/GPIO24*%
X146050000Y-91440000D02*
X146050000Y-92591700D01*
X146337900Y-92591700D02*
X147248800Y-93502600D01*
X147248800Y-111840200D02*
X146277000Y-112812000D01*
X147248800Y-93502600D02*
X147248800Y-111840200D01*
X146050000Y-92591700D02*
X146337900Y-92591700D01*
%TO.N,/GPIO23*%
X138731600Y-90051700D02*
X139927000Y-91247100D01*
X138430000Y-88900000D02*
X138430000Y-90051700D01*
X139927000Y-91247100D02*
X139927000Y-112812000D01*
X138430000Y-90051700D02*
X138731600Y-90051700D01*
%TO.N,/GPIO20*%
X137270600Y-67485400D02*
X137336600Y-67419400D01*
X133092100Y-57336700D02*
X132651200Y-57336700D01*
X135367200Y-60223700D02*
X135367200Y-59611800D01*
X138430000Y-80128300D02*
X138128400Y-80128300D01*
X137336600Y-67419400D02*
X137336600Y-62193100D01*
X138128400Y-80128300D02*
X137270600Y-79270500D01*
X132651200Y-57336700D02*
X131569800Y-56255300D01*
X137270600Y-79270500D02*
X137270600Y-67485400D01*
X135367200Y-59611800D02*
X133092100Y-57336700D01*
X138430000Y-81280000D02*
X138430000Y-80128300D01*
X137336600Y-62193100D02*
X135367200Y-60223700D01*
X131569800Y-56255300D02*
X131569800Y-53527800D01*
X131569800Y-53527800D02*
X128370000Y-50328000D01*
%TO.N,/GPIO0*%
X117247900Y-69520800D02*
X116337100Y-68610000D01*
X112960200Y-107314800D02*
X117057500Y-103217500D01*
X117057500Y-103217500D02*
X117057500Y-91486100D01*
X104021700Y-114568500D02*
X105345100Y-115891900D01*
X111346700Y-111750400D02*
X112960200Y-110136900D01*
X105345100Y-115891900D02*
X109089300Y-115891900D01*
X117057500Y-91486100D02*
X117247900Y-91295700D01*
X102870000Y-114300000D02*
X104021700Y-114300000D01*
X112960200Y-110136900D02*
X112960200Y-107314800D01*
X117247900Y-91295700D02*
X117247900Y-69520800D01*
X104021700Y-114300000D02*
X104021700Y-114568500D01*
X111346700Y-113634500D02*
X111346700Y-111750400D01*
X109089300Y-115891900D02*
X111346700Y-113634500D01*
%TO.N,/GPIO3*%
X122205400Y-78668600D02*
X122205400Y-113916700D01*
X131597000Y-124460000D02*
X131597000Y-123308300D01*
X120650000Y-76230000D02*
X120650000Y-77381700D01*
X122205400Y-113916700D02*
X131597000Y-123308300D01*
X120918500Y-77381700D02*
X122205400Y-78668600D01*
X120650000Y-77381700D02*
X120918500Y-77381700D01*
%TO.N,/GPIO1*%
X112558500Y-109970600D02*
X112558500Y-107148500D01*
X106561700Y-115038400D02*
X107013500Y-115490200D01*
X112558500Y-107148500D02*
X116655800Y-103051200D01*
X116846200Y-91129400D02*
X116846200Y-71758200D01*
X109922600Y-114490600D02*
X109922600Y-112606500D01*
X109922600Y-112606500D02*
X112558500Y-109970600D01*
X116655800Y-103051200D02*
X116655800Y-91319800D01*
X116846200Y-71758200D02*
X116238000Y-71150000D01*
X107013500Y-115490200D02*
X108923000Y-115490200D01*
X108923000Y-115490200D02*
X109922600Y-114490600D01*
X106561700Y-114300000D02*
X106561700Y-115038400D01*
X116655800Y-91319800D02*
X116846200Y-91129400D01*
X105410000Y-114300000D02*
X106561700Y-114300000D01*
%TO.N,/GPIO4*%
X120650000Y-78770000D02*
X120650000Y-79921700D01*
X121803700Y-80806900D02*
X121803700Y-116055000D01*
X120918500Y-79921700D02*
X121803700Y-80806900D01*
X129057000Y-124460000D02*
X129057000Y-123308300D01*
X120650000Y-79921700D02*
X120918500Y-79921700D01*
X121803700Y-116055000D02*
X129057000Y-123308300D01*
%TO.N,/GPIO2*%
X116254100Y-102884900D02*
X111756600Y-107382400D01*
X108721800Y-113148300D02*
X107950000Y-113148300D01*
X111756600Y-107382400D02*
X111756600Y-110113500D01*
X116254100Y-91153500D02*
X116254100Y-102884900D01*
X116444500Y-90963100D02*
X116254100Y-91153500D01*
X116089900Y-73690000D02*
X116444500Y-74044600D01*
X111756600Y-110113500D02*
X108721800Y-113148300D01*
X116444500Y-74044600D02*
X116444500Y-90963100D01*
X107950000Y-114300000D02*
X107950000Y-113148300D01*
%TO.N,/I2C/SDA*%
X147747200Y-58360000D02*
X147924500Y-58182700D01*
X146514500Y-58360000D02*
X147747200Y-58360000D01*
%TO.N,/I2C/SCL*%
X148204900Y-59010000D02*
X149894300Y-60699400D01*
X146514500Y-59010000D02*
X148204900Y-59010000D01*
%TO.N,Net-(IC2-VDD)*%
X132750000Y-83454100D02*
X131395000Y-82099100D01*
X130667300Y-72747600D02*
X129902400Y-71982700D01*
X129540000Y-70662000D02*
X129540000Y-71982700D01*
X131466300Y-77108300D02*
X131466300Y-75291700D01*
X129902400Y-71982700D02*
X129540000Y-71982700D01*
X131395000Y-82099100D02*
X131395000Y-77179600D01*
X132750000Y-83800000D02*
X132750000Y-83454100D01*
X132887500Y-83937500D02*
X132750000Y-83800000D01*
X130667300Y-74492700D02*
X130667300Y-72747600D01*
X131466300Y-75291700D02*
X130667300Y-74492700D01*
X131395000Y-77179600D02*
X131466300Y-77108300D01*
X135400000Y-83937500D02*
X132887500Y-83937500D01*
%TO.N,Net-(U5-DVDT)*%
X101273300Y-75865000D02*
X99400000Y-77738300D01*
X99400000Y-77738300D02*
X99400000Y-77900000D01*
X102675000Y-75865000D02*
X101273300Y-75865000D01*
%TO.N,Net-(CHG1-A)*%
X149383500Y-91943000D02*
X150879100Y-90447400D01*
X150540300Y-69155900D02*
X150540300Y-67767500D01*
X150879100Y-72176000D02*
X150477400Y-71774300D01*
X150477400Y-71774300D02*
X150477400Y-69218800D01*
X118897000Y-50800000D02*
X119775300Y-50800000D01*
X150540300Y-67767500D02*
X150117500Y-67344700D01*
X119775300Y-50800000D02*
X125504900Y-56529600D01*
X125504900Y-56529600D02*
X125504900Y-60292800D01*
X150879100Y-90447400D02*
X150879100Y-72176000D01*
X150477400Y-69218800D02*
X150540300Y-69155900D01*
%TO.N,Net-(CHG1-K)*%
X116097000Y-57903800D02*
X116097000Y-50800000D01*
X129314000Y-62500000D02*
X129451700Y-62637700D01*
X128350000Y-62500000D02*
X129314000Y-62500000D01*
X129451700Y-63775000D02*
X128459700Y-64767000D01*
X128459700Y-67815800D02*
X128734400Y-68090500D01*
X129451700Y-62637700D02*
X129451700Y-63775000D01*
X130455800Y-63927000D02*
X130455800Y-63389900D01*
X128734400Y-68090600D02*
X129853400Y-68090600D01*
X128734400Y-68090500D02*
X128734400Y-68090600D01*
X130506400Y-67437600D02*
X130506400Y-63977600D01*
X130506400Y-63977600D02*
X130455800Y-63927000D01*
X129853400Y-68090600D02*
X130506400Y-67437600D01*
X128459700Y-64767000D02*
X128459700Y-67815800D01*
%TO.N,Net-(PG1-K)*%
X109999300Y-51922300D02*
X109999300Y-64573900D01*
X124150000Y-63500000D02*
X124150000Y-64573900D01*
X108877000Y-50800000D02*
X109999300Y-51922300D01*
%TO.N,Net-(PG1-A)*%
X112701700Y-51824700D02*
X112701700Y-66781600D01*
X112701700Y-66781600D02*
X111651600Y-67831700D01*
X148873600Y-89098600D02*
X148873600Y-85653600D01*
X111651600Y-67831700D02*
X111651600Y-81881800D01*
X149375000Y-89600000D02*
X148873600Y-89098600D01*
X111677000Y-50800000D02*
X112701700Y-51824700D01*
%TO.N,Net-(U3-ISET)*%
X123048300Y-60026700D02*
X123048300Y-62000000D01*
X123975000Y-59100000D02*
X123048300Y-60026700D01*
X124150000Y-62000000D02*
X123048300Y-62000000D01*
%TO.N,Net-(U3-PRETERM)*%
X124150000Y-63000000D02*
X123048300Y-63000000D01*
X122500000Y-63548300D02*
X123048300Y-63000000D01*
X122500000Y-65250000D02*
X122500000Y-63548300D01*
%TO.N,Net-(U3-TS)*%
X129853400Y-66371600D02*
X129853400Y-62401700D01*
X129853400Y-62401700D02*
X129451700Y-62000000D01*
X129325000Y-66900000D02*
X129853400Y-66371600D01*
X128350000Y-62000000D02*
X129451700Y-62000000D01*
%TO.N,Net-(R18-Pad2)*%
X104038000Y-72362000D02*
X104000000Y-72400000D01*
X105971000Y-72362000D02*
X104038000Y-72362000D01*
%TO.N,Net-(R19-Pad2)*%
X127000000Y-86800000D02*
X124212500Y-86800000D01*
X124212500Y-86800000D02*
X124206000Y-86806500D01*
%TO.N,Net-(R27-Pad2)*%
X152462500Y-81500000D02*
X152500000Y-81462500D01*
X152500000Y-81462500D02*
X152500000Y-77800000D01*
%TO.N,Net-(R28-Pad2)*%
X152500000Y-75500000D02*
X153413100Y-76413100D01*
X153413100Y-82868400D02*
X152467500Y-83814000D01*
X153413100Y-76413100D02*
X153413100Y-82868400D01*
%TO.N,VCC*%
X162052000Y-78740000D02*
X162052000Y-77588300D01*
X102341900Y-69522900D02*
X101953800Y-69134800D01*
X162052000Y-91440000D02*
X162052000Y-91741200D01*
X94878900Y-70601900D02*
X94878900Y-79238700D01*
X162339900Y-102988300D02*
X163210100Y-102118100D01*
X148844000Y-53594000D02*
X149423500Y-53594000D01*
X104988100Y-81791500D02*
X104988100Y-89748100D01*
X146346700Y-72271700D02*
X146050000Y-72271700D01*
X94878900Y-96021300D02*
X95768500Y-95131700D01*
X113361900Y-110063100D02*
X114725000Y-108700000D01*
X96037000Y-68580000D02*
X96037000Y-69731700D01*
X109465400Y-68081200D02*
X109288000Y-68081200D01*
X112557000Y-114300000D02*
X112557000Y-113148300D01*
X130000000Y-84000000D02*
X129875000Y-83875000D01*
X104988100Y-79478800D02*
X104988100Y-81791500D01*
X111400000Y-60900000D02*
X111400000Y-66146600D01*
X138430000Y-50800000D02*
X138430000Y-55855000D01*
X105410000Y-94099000D02*
X106426000Y-95115000D01*
X162052000Y-104140000D02*
X162052000Y-102988300D01*
X161783500Y-77588300D02*
X162052000Y-77588300D01*
X162320500Y-92591700D02*
X162052000Y-92591700D01*
X156703500Y-64888300D02*
X155671100Y-63855900D01*
X160879800Y-90569000D02*
X160879800Y-79317300D01*
X105410000Y-90170000D02*
X107286000Y-90170000D01*
X99649300Y-69731700D02*
X96037000Y-69731700D01*
X94878900Y-79238700D02*
X95768500Y-80128300D01*
X129875000Y-83875000D02*
X128168700Y-83875000D01*
X94878900Y-104658100D02*
X94878900Y-96021300D01*
X113361900Y-112343400D02*
X113361900Y-110063100D01*
X156972000Y-66040000D02*
X156972000Y-64888300D01*
X160893900Y-68061900D02*
X161764100Y-67191700D01*
X104988100Y-89748100D02*
X105410000Y-90170000D01*
X101075000Y-72400000D02*
X102341900Y-71133100D01*
X163210100Y-102118100D02*
X163210100Y-93481300D01*
X96037000Y-106680000D02*
X96037000Y-105528300D01*
X109288000Y-68081200D02*
X109288000Y-69412000D01*
X152900500Y-56410000D02*
X152239500Y-56410000D01*
X161783500Y-77588300D02*
X160893900Y-76698700D01*
X95749100Y-105528300D02*
X94878900Y-104658100D01*
X107286000Y-92579400D02*
X107286000Y-90170000D01*
X161764100Y-67191700D02*
X162052000Y-67191700D01*
X149575000Y-77800000D02*
X149575000Y-75500000D01*
X95768500Y-95131700D02*
X94884900Y-94248100D01*
X108425000Y-78405000D02*
X107537000Y-79293000D01*
X162052000Y-92015800D02*
X162052000Y-91741200D01*
X160893900Y-76698700D02*
X160893900Y-68061900D01*
X156972000Y-64888300D02*
X156703500Y-64888300D01*
X107289600Y-92583000D02*
X107286000Y-92579400D01*
X101953800Y-69134800D02*
X100246200Y-69134800D01*
X95768500Y-81491800D02*
X95768500Y-80128300D01*
X128168700Y-83875000D02*
X127000000Y-83875000D01*
X94884900Y-94248100D02*
X94884900Y-82375400D01*
X105173900Y-79293000D02*
X104988100Y-79478800D01*
X160879800Y-79317300D02*
X161783500Y-78413600D01*
X162052000Y-66040000D02*
X162052000Y-67191700D01*
X161783500Y-78413600D02*
X161783500Y-77588300D01*
X100246200Y-69134800D02*
X99649300Y-69731700D01*
X146050000Y-71120000D02*
X146050000Y-72271700D01*
X163210100Y-93481300D02*
X162320500Y-92591700D01*
X112557000Y-113148300D02*
X113361900Y-112343400D01*
X109288000Y-69412000D02*
X108800000Y-69900000D01*
X96037000Y-69731700D02*
X95749100Y-69731700D01*
X96037000Y-105528300D02*
X95749100Y-105528300D01*
X96037000Y-93980000D02*
X96037000Y-95131700D01*
X95768500Y-95131700D02*
X96037000Y-95131700D01*
X102341900Y-71133100D02*
X102341900Y-69522900D01*
X155671100Y-63855900D02*
X155671100Y-59180600D01*
X162052000Y-92015800D02*
X162052000Y-92591700D01*
X162052000Y-102988300D02*
X162339900Y-102988300D01*
X107537000Y-79293000D02*
X105173900Y-79293000D01*
X105410000Y-92583000D02*
X105410000Y-94099000D01*
X162052000Y-91741200D02*
X160879800Y-90569000D01*
X105410000Y-90170000D02*
X105410000Y-92583000D01*
X128168700Y-83875000D02*
X128168700Y-81093700D01*
X94884900Y-82375400D02*
X95768500Y-81491800D01*
X155671100Y-59180600D02*
X152900500Y-56410000D01*
X95749100Y-69731700D02*
X94878900Y-70601900D01*
X96037000Y-81280000D02*
X96037000Y-80128300D01*
X111400000Y-66146600D02*
X109465400Y-68081200D01*
X149575000Y-75500000D02*
X146346700Y-72271700D01*
X95768500Y-80128300D02*
X96037000Y-80128300D01*
X149423500Y-53594000D02*
X152239500Y-56410000D01*
%TO.N,/battery/BAT-*%
X127462100Y-82171000D02*
X126738100Y-82895000D01*
X131760500Y-87739500D02*
X132750000Y-86750000D01*
X125788400Y-84383800D02*
X126330800Y-84926200D01*
X128185300Y-86255900D02*
X128185300Y-87739500D01*
X128905000Y-72806800D02*
X128905000Y-72129300D01*
X125730000Y-90194800D02*
X125730000Y-115570000D01*
X128185300Y-87739500D02*
X131760500Y-87739500D01*
X128270000Y-70662000D02*
X128270000Y-69341300D01*
X130810000Y-69341300D02*
X128270000Y-69341300D01*
X128905000Y-79402200D02*
X127462100Y-80845100D01*
X130810000Y-70662000D02*
X130810000Y-69341300D01*
X128185300Y-87739500D02*
X125730000Y-90194800D01*
X128758400Y-71982700D02*
X128270000Y-71982700D01*
X127000000Y-69341300D02*
X128270000Y-69341300D01*
X126738100Y-82895000D02*
X126195700Y-82895000D01*
X128905000Y-72129300D02*
X128758400Y-71982700D01*
X128905000Y-72806800D02*
X128905000Y-73431000D01*
X126330800Y-84926200D02*
X126855600Y-84926200D01*
X128905000Y-73431000D02*
X128905000Y-79402200D01*
X127000000Y-70662000D02*
X127000000Y-69341300D01*
X126855600Y-84926200D02*
X128185300Y-86255900D01*
X126195700Y-82895000D02*
X125788400Y-83302300D01*
X125788400Y-83302300D02*
X125788400Y-84383800D01*
X128270000Y-70662000D02*
X128270000Y-71982700D01*
X127462100Y-80845100D02*
X127462100Y-82171000D01*
%TO.N,/battery/BAT+*%
X150233900Y-124968000D02*
X151126900Y-124075000D01*
X152300000Y-91943000D02*
X152300000Y-89600000D01*
X129543500Y-61011500D02*
X129451700Y-61103300D01*
X151126900Y-93116100D02*
X152300000Y-91943000D01*
X149871500Y-66737100D02*
X149237900Y-67370700D01*
X150882700Y-69381500D02*
X150942000Y-69322200D01*
X128230000Y-115570000D02*
X128230000Y-94032500D01*
X129451700Y-61103300D02*
X129451700Y-61500000D01*
X150882700Y-71611600D02*
X150882700Y-69381500D01*
X151280800Y-72009700D02*
X150882700Y-71611600D01*
X152300000Y-91943000D02*
X152308500Y-91943000D01*
X147574000Y-124968000D02*
X150233900Y-124968000D01*
X151280800Y-88580800D02*
X151280800Y-72009700D01*
X150942000Y-67287500D02*
X150391600Y-66737100D01*
X151126900Y-124075000D02*
X152400000Y-124075000D01*
X128350000Y-61500000D02*
X129451700Y-61500000D01*
X151126900Y-124075000D02*
X151126900Y-93116100D01*
X152300000Y-89600000D02*
X151280800Y-88580800D01*
X128230000Y-94032500D02*
X135400000Y-86862500D01*
X150942000Y-69322200D02*
X150942000Y-67287500D01*
X150391600Y-66737100D02*
X149871500Y-66737100D01*
%TO.N,VBUS*%
X122183200Y-61216800D02*
X122183200Y-59152200D01*
X116706500Y-104136500D02*
X117459200Y-103383800D01*
X110220000Y-119313000D02*
X109920000Y-119313000D01*
X117459200Y-91652400D02*
X117649600Y-91462000D01*
X117459200Y-103383800D02*
X117459200Y-91652400D01*
X110220000Y-119313000D02*
X110220000Y-120364700D01*
X114820000Y-119312500D02*
X115120000Y-119312500D01*
X124865900Y-58239100D02*
X124865900Y-60784100D01*
X114820000Y-119312500D02*
X114820000Y-115951700D01*
X113911300Y-115043000D02*
X113911300Y-111482300D01*
X114820000Y-120364200D02*
X114819500Y-120364700D01*
X117649600Y-68898000D02*
X120800000Y-65747600D01*
X113911300Y-111482300D02*
X116706500Y-108687100D01*
X123459100Y-57876300D02*
X124503100Y-57876300D01*
X114819500Y-120364700D02*
X110220000Y-120364700D01*
X117649600Y-91462000D02*
X117649600Y-68898000D01*
X124865900Y-60784100D02*
X124150000Y-61500000D01*
X122183200Y-59152200D02*
X123459100Y-57876300D01*
X124503100Y-57876300D02*
X124865900Y-58239100D01*
X116706500Y-108687100D02*
X116706500Y-104136500D01*
X120800000Y-65747600D02*
X120800000Y-62600000D01*
X114820000Y-119312500D02*
X114820000Y-120364200D01*
X120800000Y-62600000D02*
X122183200Y-61216800D01*
X114820000Y-115951700D02*
X113911300Y-115043000D01*
%TO.N,Net-(U4-EN)*%
X132200000Y-72489300D02*
X132041300Y-72648000D01*
X132200000Y-67400000D02*
X132200000Y-63100000D01*
X156945000Y-114736000D02*
X154150500Y-117530500D01*
X106400000Y-86800000D02*
X106400000Y-85748300D01*
X132200000Y-70918200D02*
X132200000Y-67400000D01*
X132850000Y-67400000D02*
X132200000Y-67400000D01*
X136813300Y-86396900D02*
X138046400Y-87630000D01*
X136813300Y-73508800D02*
X136813300Y-86396900D01*
X110687400Y-81460900D02*
X106400000Y-85748300D01*
X156945000Y-114736000D02*
X156925000Y-114716000D01*
X132200000Y-70918200D02*
X132200000Y-72489300D01*
X110687400Y-72477300D02*
X110687400Y-81460900D01*
X134222700Y-70918200D02*
X136813300Y-73508800D01*
X141582600Y-115576600D02*
X147574000Y-121568000D01*
X141582600Y-90399700D02*
X141582600Y-115576600D01*
X138046400Y-87630000D02*
X138812900Y-87630000D01*
X156925000Y-114716000D02*
X156925000Y-112200000D01*
X132200000Y-70918200D02*
X134222700Y-70918200D01*
X138812900Y-87630000D02*
X141582600Y-90399700D01*
X154150500Y-117530500D02*
X154150500Y-120979500D01*
%TD*%
M02*
