%TF.GenerationSoftware,KiCad,Pcbnew,8.0.7*%
%TF.CreationDate,2025-01-26T02:59:20-05:00*%
%TF.ProjectId,shadow,73686164-6f77-42e6-9b69-6361645f7063,rev?*%
%TF.SameCoordinates,Original*%
%TF.FileFunction,Copper,L1,Top*%
%TF.FilePolarity,Positive*%
%FSLAX46Y46*%
G04 Gerber Fmt 4.6, Leading zero omitted, Abs format (unit mm)*
G04 Created by KiCad (PCBNEW 8.0.7) date 2025-01-26 02:59:20*
%MOMM*%
%LPD*%
G01*
G04 APERTURE LIST*
G04 Aperture macros list*
%AMRoundRect*
0 Rectangle with rounded corners*
0 $1 Rounding radius*
0 $2 $3 $4 $5 $6 $7 $8 $9 X,Y pos of 4 corners*
0 Add a 4 corners polygon primitive as box body*
4,1,4,$2,$3,$4,$5,$6,$7,$8,$9,$2,$3,0*
0 Add four circle primitives for the rounded corners*
1,1,$1+$1,$2,$3*
1,1,$1+$1,$4,$5*
1,1,$1+$1,$6,$7*
1,1,$1+$1,$8,$9*
0 Add four rect primitives between the rounded corners*
20,1,$1+$1,$2,$3,$4,$5,0*
20,1,$1+$1,$4,$5,$6,$7,0*
20,1,$1+$1,$6,$7,$8,$9,0*
20,1,$1+$1,$8,$9,$2,$3,0*%
G04 Aperture macros list end*
%ADD10C,0.300000*%
%TA.AperFunction,NonConductor*%
%ADD11C,0.300000*%
%TD*%
%TA.AperFunction,NonConductor*%
%ADD12C,0.200000*%
%TD*%
%TA.AperFunction,ComponentPad*%
%ADD13C,1.800000*%
%TD*%
%TA.AperFunction,SMDPad,CuDef*%
%ADD14R,0.300000X1.500000*%
%TD*%
%TA.AperFunction,ComponentPad*%
%ADD15O,1.100000X1.800000*%
%TD*%
%TA.AperFunction,ComponentPad*%
%ADD16O,1.100000X2.000000*%
%TD*%
%TA.AperFunction,SMDPad,CuDef*%
%ADD17RoundRect,0.250000X-0.375000X-0.625000X0.375000X-0.625000X0.375000X0.625000X-0.375000X0.625000X0*%
%TD*%
%TA.AperFunction,ComponentPad*%
%ADD18R,1.700000X1.700000*%
%TD*%
%TA.AperFunction,ComponentPad*%
%ADD19O,1.700000X1.700000*%
%TD*%
%TA.AperFunction,ComponentPad*%
%ADD20RoundRect,0.250000X0.600000X0.750000X-0.600000X0.750000X-0.600000X-0.750000X0.600000X-0.750000X0*%
%TD*%
%TA.AperFunction,ComponentPad*%
%ADD21O,1.700000X2.000000*%
%TD*%
%TA.AperFunction,SMDPad,CuDef*%
%ADD22R,2.200000X1.500000*%
%TD*%
%TA.AperFunction,SMDPad,CuDef*%
%ADD23O,0.574000X2.038000*%
%TD*%
%TA.AperFunction,SMDPad,CuDef*%
%ADD24R,2.000000X2.000000*%
%TD*%
%TA.AperFunction,ComponentPad*%
%ADD25C,2.000000*%
%TD*%
%TA.AperFunction,SMDPad,CuDef*%
%ADD26RoundRect,0.100000X-0.637500X-0.100000X0.637500X-0.100000X0.637500X0.100000X-0.637500X0.100000X0*%
%TD*%
%TA.AperFunction,ComponentPad*%
%ADD27C,7.500000*%
%TD*%
%TA.AperFunction,SMDPad,CuDef*%
%ADD28R,1.600000X0.300000*%
%TD*%
%TA.AperFunction,SMDPad,CuDef*%
%ADD29R,1.570000X1.880000*%
%TD*%
%TA.AperFunction,ComponentPad*%
%ADD30C,0.400000*%
%TD*%
%TA.AperFunction,SMDPad,CuDef*%
%ADD31R,2.200000X0.500000*%
%TD*%
%TA.AperFunction,SMDPad,CuDef*%
%ADD32R,2.950000X4.900000*%
%TD*%
%TA.AperFunction,SMDPad,CuDef*%
%ADD33RoundRect,0.060000X-0.675000X-0.180000X0.675000X-0.180000X0.675000X0.180000X-0.675000X0.180000X0*%
%TD*%
%TA.AperFunction,ComponentPad*%
%ADD34R,2.000000X2.000000*%
%TD*%
%TA.AperFunction,ViaPad*%
%ADD35C,0.600000*%
%TD*%
%TA.AperFunction,Conductor*%
%ADD36C,0.200000*%
%TD*%
G04 APERTURE END LIST*
D10*
D11*
X172155328Y-94629998D02*
X172155328Y-93629998D01*
X172155328Y-93629998D02*
X173655328Y-94272855D01*
X172798185Y-92844284D02*
X172726757Y-92987141D01*
X172726757Y-92987141D02*
X172655328Y-93058570D01*
X172655328Y-93058570D02*
X172512471Y-93129998D01*
X172512471Y-93129998D02*
X172441042Y-93129998D01*
X172441042Y-93129998D02*
X172298185Y-93058570D01*
X172298185Y-93058570D02*
X172226757Y-92987141D01*
X172226757Y-92987141D02*
X172155328Y-92844284D01*
X172155328Y-92844284D02*
X172155328Y-92558570D01*
X172155328Y-92558570D02*
X172226757Y-92415713D01*
X172226757Y-92415713D02*
X172298185Y-92344284D01*
X172298185Y-92344284D02*
X172441042Y-92272855D01*
X172441042Y-92272855D02*
X172512471Y-92272855D01*
X172512471Y-92272855D02*
X172655328Y-92344284D01*
X172655328Y-92344284D02*
X172726757Y-92415713D01*
X172726757Y-92415713D02*
X172798185Y-92558570D01*
X172798185Y-92558570D02*
X172798185Y-92844284D01*
X172798185Y-92844284D02*
X172869614Y-92987141D01*
X172869614Y-92987141D02*
X172941042Y-93058570D01*
X172941042Y-93058570D02*
X173083900Y-93129998D01*
X173083900Y-93129998D02*
X173369614Y-93129998D01*
X173369614Y-93129998D02*
X173512471Y-93058570D01*
X173512471Y-93058570D02*
X173583900Y-92987141D01*
X173583900Y-92987141D02*
X173655328Y-92844284D01*
X173655328Y-92844284D02*
X173655328Y-92558570D01*
X173655328Y-92558570D02*
X173583900Y-92415713D01*
X173583900Y-92415713D02*
X173512471Y-92344284D01*
X173512471Y-92344284D02*
X173369614Y-92272855D01*
X173369614Y-92272855D02*
X173083900Y-92272855D01*
X173083900Y-92272855D02*
X172941042Y-92344284D01*
X172941042Y-92344284D02*
X172869614Y-92415713D01*
X172869614Y-92415713D02*
X172798185Y-92558570D01*
X173512471Y-91629999D02*
X173583900Y-91558570D01*
X173583900Y-91558570D02*
X173655328Y-91629999D01*
X173655328Y-91629999D02*
X173583900Y-91701427D01*
X173583900Y-91701427D02*
X173512471Y-91629999D01*
X173512471Y-91629999D02*
X173655328Y-91629999D01*
X172155328Y-91058570D02*
X172155328Y-90058570D01*
X172155328Y-90058570D02*
X173655328Y-90701427D01*
X172655328Y-88844285D02*
X173655328Y-88844285D01*
X172083900Y-89201427D02*
X173155328Y-89558570D01*
X173155328Y-89558570D02*
X173155328Y-88629999D01*
X172155328Y-87772856D02*
X172155328Y-87629999D01*
X172155328Y-87629999D02*
X172226757Y-87487142D01*
X172226757Y-87487142D02*
X172298185Y-87415714D01*
X172298185Y-87415714D02*
X172441042Y-87344285D01*
X172441042Y-87344285D02*
X172726757Y-87272856D01*
X172726757Y-87272856D02*
X173083900Y-87272856D01*
X173083900Y-87272856D02*
X173369614Y-87344285D01*
X173369614Y-87344285D02*
X173512471Y-87415714D01*
X173512471Y-87415714D02*
X173583900Y-87487142D01*
X173583900Y-87487142D02*
X173655328Y-87629999D01*
X173655328Y-87629999D02*
X173655328Y-87772856D01*
X173655328Y-87772856D02*
X173583900Y-87915714D01*
X173583900Y-87915714D02*
X173512471Y-87987142D01*
X173512471Y-87987142D02*
X173369614Y-88058571D01*
X173369614Y-88058571D02*
X173083900Y-88129999D01*
X173083900Y-88129999D02*
X172726757Y-88129999D01*
X172726757Y-88129999D02*
X172441042Y-88058571D01*
X172441042Y-88058571D02*
X172298185Y-87987142D01*
X172298185Y-87987142D02*
X172226757Y-87915714D01*
X172226757Y-87915714D02*
X172155328Y-87772856D01*
X172155328Y-86344285D02*
X172155328Y-86201428D01*
X172155328Y-86201428D02*
X172226757Y-86058571D01*
X172226757Y-86058571D02*
X172298185Y-85987143D01*
X172298185Y-85987143D02*
X172441042Y-85915714D01*
X172441042Y-85915714D02*
X172726757Y-85844285D01*
X172726757Y-85844285D02*
X173083900Y-85844285D01*
X173083900Y-85844285D02*
X173369614Y-85915714D01*
X173369614Y-85915714D02*
X173512471Y-85987143D01*
X173512471Y-85987143D02*
X173583900Y-86058571D01*
X173583900Y-86058571D02*
X173655328Y-86201428D01*
X173655328Y-86201428D02*
X173655328Y-86344285D01*
X173655328Y-86344285D02*
X173583900Y-86487143D01*
X173583900Y-86487143D02*
X173512471Y-86558571D01*
X173512471Y-86558571D02*
X173369614Y-86630000D01*
X173369614Y-86630000D02*
X173083900Y-86701428D01*
X173083900Y-86701428D02*
X172726757Y-86701428D01*
X172726757Y-86701428D02*
X172441042Y-86630000D01*
X172441042Y-86630000D02*
X172298185Y-86558571D01*
X172298185Y-86558571D02*
X172226757Y-86487143D01*
X172226757Y-86487143D02*
X172155328Y-86344285D01*
X173655328Y-84058572D02*
X172655328Y-84058572D01*
X172798185Y-84058572D02*
X172726757Y-83987143D01*
X172726757Y-83987143D02*
X172655328Y-83844286D01*
X172655328Y-83844286D02*
X172655328Y-83630000D01*
X172655328Y-83630000D02*
X172726757Y-83487143D01*
X172726757Y-83487143D02*
X172869614Y-83415715D01*
X172869614Y-83415715D02*
X173655328Y-83415715D01*
X172869614Y-83415715D02*
X172726757Y-83344286D01*
X172726757Y-83344286D02*
X172655328Y-83201429D01*
X172655328Y-83201429D02*
X172655328Y-82987143D01*
X172655328Y-82987143D02*
X172726757Y-82844286D01*
X172726757Y-82844286D02*
X172869614Y-82772857D01*
X172869614Y-82772857D02*
X173655328Y-82772857D01*
X173655328Y-82058572D02*
X172655328Y-82058572D01*
X172798185Y-82058572D02*
X172726757Y-81987143D01*
X172726757Y-81987143D02*
X172655328Y-81844286D01*
X172655328Y-81844286D02*
X172655328Y-81630000D01*
X172655328Y-81630000D02*
X172726757Y-81487143D01*
X172726757Y-81487143D02*
X172869614Y-81415715D01*
X172869614Y-81415715D02*
X173655328Y-81415715D01*
X172869614Y-81415715D02*
X172726757Y-81344286D01*
X172726757Y-81344286D02*
X172655328Y-81201429D01*
X172655328Y-81201429D02*
X172655328Y-80987143D01*
X172655328Y-80987143D02*
X172726757Y-80844286D01*
X172726757Y-80844286D02*
X172869614Y-80772857D01*
X172869614Y-80772857D02*
X173655328Y-80772857D01*
D12*
X165117000Y-48260000D02*
X175363420Y-48260000D01*
X165117000Y-127000000D02*
X175363420Y-127000000D01*
X174777000Y-48260000D02*
X174777000Y-127000000D01*
X174777000Y-48260000D02*
X174777000Y-127000000D01*
X174777000Y-48260000D02*
X175363421Y-49386504D01*
X174777000Y-48260000D02*
X174190579Y-49386504D01*
X174777000Y-127000000D02*
X174190579Y-125873496D01*
X174777000Y-127000000D02*
X175363421Y-125873496D01*
D10*
D11*
X123477716Y-134538328D02*
X123192001Y-134538328D01*
X123192001Y-134538328D02*
X123049144Y-134609757D01*
X123049144Y-134609757D02*
X122977716Y-134681185D01*
X122977716Y-134681185D02*
X122834858Y-134895471D01*
X122834858Y-134895471D02*
X122763430Y-135181185D01*
X122763430Y-135181185D02*
X122763430Y-135752614D01*
X122763430Y-135752614D02*
X122834858Y-135895471D01*
X122834858Y-135895471D02*
X122906287Y-135966900D01*
X122906287Y-135966900D02*
X123049144Y-136038328D01*
X123049144Y-136038328D02*
X123334858Y-136038328D01*
X123334858Y-136038328D02*
X123477716Y-135966900D01*
X123477716Y-135966900D02*
X123549144Y-135895471D01*
X123549144Y-135895471D02*
X123620573Y-135752614D01*
X123620573Y-135752614D02*
X123620573Y-135395471D01*
X123620573Y-135395471D02*
X123549144Y-135252614D01*
X123549144Y-135252614D02*
X123477716Y-135181185D01*
X123477716Y-135181185D02*
X123334858Y-135109757D01*
X123334858Y-135109757D02*
X123049144Y-135109757D01*
X123049144Y-135109757D02*
X122906287Y-135181185D01*
X122906287Y-135181185D02*
X122834858Y-135252614D01*
X122834858Y-135252614D02*
X122763430Y-135395471D01*
X124334858Y-136038328D02*
X124620572Y-136038328D01*
X124620572Y-136038328D02*
X124763429Y-135966900D01*
X124763429Y-135966900D02*
X124834858Y-135895471D01*
X124834858Y-135895471D02*
X124977715Y-135681185D01*
X124977715Y-135681185D02*
X125049144Y-135395471D01*
X125049144Y-135395471D02*
X125049144Y-134824042D01*
X125049144Y-134824042D02*
X124977715Y-134681185D01*
X124977715Y-134681185D02*
X124906287Y-134609757D01*
X124906287Y-134609757D02*
X124763429Y-134538328D01*
X124763429Y-134538328D02*
X124477715Y-134538328D01*
X124477715Y-134538328D02*
X124334858Y-134609757D01*
X124334858Y-134609757D02*
X124263429Y-134681185D01*
X124263429Y-134681185D02*
X124192001Y-134824042D01*
X124192001Y-134824042D02*
X124192001Y-135181185D01*
X124192001Y-135181185D02*
X124263429Y-135324042D01*
X124263429Y-135324042D02*
X124334858Y-135395471D01*
X124334858Y-135395471D02*
X124477715Y-135466900D01*
X124477715Y-135466900D02*
X124763429Y-135466900D01*
X124763429Y-135466900D02*
X124906287Y-135395471D01*
X124906287Y-135395471D02*
X124977715Y-135324042D01*
X124977715Y-135324042D02*
X125049144Y-135181185D01*
X125692000Y-135895471D02*
X125763429Y-135966900D01*
X125763429Y-135966900D02*
X125692000Y-136038328D01*
X125692000Y-136038328D02*
X125620572Y-135966900D01*
X125620572Y-135966900D02*
X125692000Y-135895471D01*
X125692000Y-135895471D02*
X125692000Y-136038328D01*
X126620572Y-135181185D02*
X126477715Y-135109757D01*
X126477715Y-135109757D02*
X126406286Y-135038328D01*
X126406286Y-135038328D02*
X126334858Y-134895471D01*
X126334858Y-134895471D02*
X126334858Y-134824042D01*
X126334858Y-134824042D02*
X126406286Y-134681185D01*
X126406286Y-134681185D02*
X126477715Y-134609757D01*
X126477715Y-134609757D02*
X126620572Y-134538328D01*
X126620572Y-134538328D02*
X126906286Y-134538328D01*
X126906286Y-134538328D02*
X127049144Y-134609757D01*
X127049144Y-134609757D02*
X127120572Y-134681185D01*
X127120572Y-134681185D02*
X127192001Y-134824042D01*
X127192001Y-134824042D02*
X127192001Y-134895471D01*
X127192001Y-134895471D02*
X127120572Y-135038328D01*
X127120572Y-135038328D02*
X127049144Y-135109757D01*
X127049144Y-135109757D02*
X126906286Y-135181185D01*
X126906286Y-135181185D02*
X126620572Y-135181185D01*
X126620572Y-135181185D02*
X126477715Y-135252614D01*
X126477715Y-135252614D02*
X126406286Y-135324042D01*
X126406286Y-135324042D02*
X126334858Y-135466900D01*
X126334858Y-135466900D02*
X126334858Y-135752614D01*
X126334858Y-135752614D02*
X126406286Y-135895471D01*
X126406286Y-135895471D02*
X126477715Y-135966900D01*
X126477715Y-135966900D02*
X126620572Y-136038328D01*
X126620572Y-136038328D02*
X126906286Y-136038328D01*
X126906286Y-136038328D02*
X127049144Y-135966900D01*
X127049144Y-135966900D02*
X127120572Y-135895471D01*
X127120572Y-135895471D02*
X127192001Y-135752614D01*
X127192001Y-135752614D02*
X127192001Y-135466900D01*
X127192001Y-135466900D02*
X127120572Y-135324042D01*
X127120572Y-135324042D02*
X127049144Y-135252614D01*
X127049144Y-135252614D02*
X126906286Y-135181185D01*
X128549143Y-134538328D02*
X127834857Y-134538328D01*
X127834857Y-134538328D02*
X127763429Y-135252614D01*
X127763429Y-135252614D02*
X127834857Y-135181185D01*
X127834857Y-135181185D02*
X127977715Y-135109757D01*
X127977715Y-135109757D02*
X128334857Y-135109757D01*
X128334857Y-135109757D02*
X128477715Y-135181185D01*
X128477715Y-135181185D02*
X128549143Y-135252614D01*
X128549143Y-135252614D02*
X128620572Y-135395471D01*
X128620572Y-135395471D02*
X128620572Y-135752614D01*
X128620572Y-135752614D02*
X128549143Y-135895471D01*
X128549143Y-135895471D02*
X128477715Y-135966900D01*
X128477715Y-135966900D02*
X128334857Y-136038328D01*
X128334857Y-136038328D02*
X127977715Y-136038328D01*
X127977715Y-136038328D02*
X127834857Y-135966900D01*
X127834857Y-135966900D02*
X127763429Y-135895471D01*
X129549143Y-134538328D02*
X129692000Y-134538328D01*
X129692000Y-134538328D02*
X129834857Y-134609757D01*
X129834857Y-134609757D02*
X129906286Y-134681185D01*
X129906286Y-134681185D02*
X129977714Y-134824042D01*
X129977714Y-134824042D02*
X130049143Y-135109757D01*
X130049143Y-135109757D02*
X130049143Y-135466900D01*
X130049143Y-135466900D02*
X129977714Y-135752614D01*
X129977714Y-135752614D02*
X129906286Y-135895471D01*
X129906286Y-135895471D02*
X129834857Y-135966900D01*
X129834857Y-135966900D02*
X129692000Y-136038328D01*
X129692000Y-136038328D02*
X129549143Y-136038328D01*
X129549143Y-136038328D02*
X129406286Y-135966900D01*
X129406286Y-135966900D02*
X129334857Y-135895471D01*
X129334857Y-135895471D02*
X129263428Y-135752614D01*
X129263428Y-135752614D02*
X129192000Y-135466900D01*
X129192000Y-135466900D02*
X129192000Y-135109757D01*
X129192000Y-135109757D02*
X129263428Y-134824042D01*
X129263428Y-134824042D02*
X129334857Y-134681185D01*
X129334857Y-134681185D02*
X129406286Y-134609757D01*
X129406286Y-134609757D02*
X129549143Y-134538328D01*
X130977714Y-134538328D02*
X131120571Y-134538328D01*
X131120571Y-134538328D02*
X131263428Y-134609757D01*
X131263428Y-134609757D02*
X131334857Y-134681185D01*
X131334857Y-134681185D02*
X131406285Y-134824042D01*
X131406285Y-134824042D02*
X131477714Y-135109757D01*
X131477714Y-135109757D02*
X131477714Y-135466900D01*
X131477714Y-135466900D02*
X131406285Y-135752614D01*
X131406285Y-135752614D02*
X131334857Y-135895471D01*
X131334857Y-135895471D02*
X131263428Y-135966900D01*
X131263428Y-135966900D02*
X131120571Y-136038328D01*
X131120571Y-136038328D02*
X130977714Y-136038328D01*
X130977714Y-136038328D02*
X130834857Y-135966900D01*
X130834857Y-135966900D02*
X130763428Y-135895471D01*
X130763428Y-135895471D02*
X130691999Y-135752614D01*
X130691999Y-135752614D02*
X130620571Y-135466900D01*
X130620571Y-135466900D02*
X130620571Y-135109757D01*
X130620571Y-135109757D02*
X130691999Y-134824042D01*
X130691999Y-134824042D02*
X130763428Y-134681185D01*
X130763428Y-134681185D02*
X130834857Y-134609757D01*
X130834857Y-134609757D02*
X130977714Y-134538328D01*
X133263427Y-136038328D02*
X133263427Y-135038328D01*
X133263427Y-135181185D02*
X133334856Y-135109757D01*
X133334856Y-135109757D02*
X133477713Y-135038328D01*
X133477713Y-135038328D02*
X133691999Y-135038328D01*
X133691999Y-135038328D02*
X133834856Y-135109757D01*
X133834856Y-135109757D02*
X133906285Y-135252614D01*
X133906285Y-135252614D02*
X133906285Y-136038328D01*
X133906285Y-135252614D02*
X133977713Y-135109757D01*
X133977713Y-135109757D02*
X134120570Y-135038328D01*
X134120570Y-135038328D02*
X134334856Y-135038328D01*
X134334856Y-135038328D02*
X134477713Y-135109757D01*
X134477713Y-135109757D02*
X134549142Y-135252614D01*
X134549142Y-135252614D02*
X134549142Y-136038328D01*
X135263427Y-136038328D02*
X135263427Y-135038328D01*
X135263427Y-135181185D02*
X135334856Y-135109757D01*
X135334856Y-135109757D02*
X135477713Y-135038328D01*
X135477713Y-135038328D02*
X135691999Y-135038328D01*
X135691999Y-135038328D02*
X135834856Y-135109757D01*
X135834856Y-135109757D02*
X135906285Y-135252614D01*
X135906285Y-135252614D02*
X135906285Y-136038328D01*
X135906285Y-135252614D02*
X135977713Y-135109757D01*
X135977713Y-135109757D02*
X136120570Y-135038328D01*
X136120570Y-135038328D02*
X136334856Y-135038328D01*
X136334856Y-135038328D02*
X136477713Y-135109757D01*
X136477713Y-135109757D02*
X136549142Y-135252614D01*
X136549142Y-135252614D02*
X136549142Y-136038328D01*
D12*
X164617000Y-127500000D02*
X164617000Y-137746420D01*
X94767000Y-127500000D02*
X94767000Y-137746420D01*
X164617000Y-137160000D02*
X94767000Y-137160000D01*
X164617000Y-137160000D02*
X94767000Y-137160000D01*
X164617000Y-137160000D02*
X163490496Y-137746421D01*
X164617000Y-137160000D02*
X163490496Y-136573579D01*
X94767000Y-137160000D02*
X95893504Y-136573579D01*
X94767000Y-137160000D02*
X95893504Y-137746421D01*
D13*
%TO.P,SW3,1,1*%
%TO.N,/battery/BAT+*%
X147574000Y-124968000D03*
%TO.P,SW3,2,2*%
%TO.N,unconnected-(SW3-Pad2)*%
X145074000Y-124968000D03*
%TO.P,SW3,3,3*%
%TO.N,unconnected-(SW3-Pad3)*%
X142574000Y-124968000D03*
%TO.P,SW3,4,4*%
%TO.N,Net-(U4-EN)*%
X147574000Y-121568000D03*
%TO.P,SW3,5,5*%
%TO.N,unconnected-(SW3-Pad5)*%
X145074000Y-121568000D03*
%TO.P,SW3,6,6*%
%TO.N,unconnected-(SW3-Pad6)*%
X142574000Y-121568000D03*
%TD*%
D14*
%TO.P,J1,B12,GND*%
%TO.N,GND*%
X109420000Y-119313000D03*
%TO.P,J1,B9,VBUS*%
%TO.N,VBUS*%
X110220000Y-119313000D03*
%TO.P,J1,B8,SBU2*%
%TO.N,unconnected-(J1-SBU2-PadB8)*%
X110770000Y-119312000D03*
%TO.P,J1,B7,DN2*%
%TO.N,unconnected-(J1-DN2-PadB7)*%
X111770000Y-119313000D03*
%TO.P,J1,B6,DP2*%
%TO.N,unconnected-(J1-DP2-PadB6)*%
X113270000Y-119313000D03*
%TO.P,J1,B5,CC2*%
%TO.N,unconnected-(J1-CC2-PadB5)*%
X114270000Y-119313000D03*
%TO.P,J1,B4,VBUS*%
%TO.N,VBUS*%
X114820000Y-119312500D03*
%TO.P,J1,B1,GND*%
%TO.N,GND*%
X115620000Y-119313000D03*
%TO.P,J1,A12,GND*%
X115920000Y-119313000D03*
%TO.P,J1,A9,VBUS*%
%TO.N,VBUS*%
X115120000Y-119312500D03*
%TO.P,J1,A8,SBU1*%
%TO.N,unconnected-(J1-SBU1-PadA8)*%
X113769500Y-119312000D03*
%TO.P,J1,A7,DN1*%
%TO.N,unconnected-(J1-DN1-PadA7)*%
X112770000Y-119313000D03*
%TO.P,J1,A6,DP1*%
%TO.N,unconnected-(J1-DP1-PadA6)*%
X112270000Y-119313000D03*
%TO.P,J1,A5,CC1*%
%TO.N,unconnected-(J1-CC1-PadA5)*%
X111270000Y-119313000D03*
%TO.P,J1,A4,VBUS*%
%TO.N,VBUS*%
X109920000Y-119313000D03*
%TO.P,J1,A1,GND*%
%TO.N,GND*%
X109120000Y-119313000D03*
D15*
%TO.P,J1,4,4*%
X108200000Y-124460000D03*
%TO.P,J1,3,3*%
X116840000Y-124460000D03*
D16*
%TO.P,J1,2,2*%
X116840000Y-120280000D03*
%TO.P,J1,1,1*%
X108200000Y-120280000D03*
%TD*%
D17*
%TO.P,PG1,2,A*%
%TO.N,Net-(PG1-A)*%
X111677000Y-50800000D03*
%TO.P,PG1,1,K*%
%TO.N,Net-(PG1-K)*%
X108877000Y-50800000D03*
%TD*%
D18*
%TO.P,I2C_PINOUT7,1,Pin_1*%
%TO.N,/I2C_PINOUT7/SCL*%
X162052000Y-99060000D03*
D19*
%TO.P,I2C_PINOUT7,2,Pin_2*%
%TO.N,/I2C_PINOUT7/SDA*%
X162052000Y-101600000D03*
%TO.P,I2C_PINOUT7,3,Pin_3*%
%TO.N,VCC*%
X162052000Y-104140000D03*
%TO.P,I2C_PINOUT7,4,Pin_4*%
%TO.N,GND*%
X162052000Y-106680000D03*
%TD*%
D18*
%TO.P,I2C_PINOUT9,1,Pin_1*%
%TO.N,/I2C_PINOUT9/SCL*%
X96037000Y-86360000D03*
D19*
%TO.P,I2C_PINOUT9,2,Pin_2*%
%TO.N,/I2C_PINOUT9/SDA*%
X96037000Y-83820000D03*
%TO.P,I2C_PINOUT9,3,Pin_3*%
%TO.N,VCC*%
X96037000Y-81280000D03*
%TO.P,I2C_PINOUT9,4,Pin_4*%
%TO.N,GND*%
X96037000Y-78740000D03*
%TD*%
D20*
%TO.P,BATT_JST1,1,Pin_1*%
%TO.N,/battery/BAT+*%
X128230000Y-115570000D03*
D21*
%TO.P,BATT_JST1,2,Pin_2*%
%TO.N,/battery/BAT-*%
X125730000Y-115570000D03*
%TD*%
D18*
%TO.P,I2C_PINOUT10,1,Pin_1*%
%TO.N,/I2C_PINOUT10/SCL*%
X96037000Y-99060000D03*
D19*
%TO.P,I2C_PINOUT10,2,Pin_2*%
%TO.N,/I2C_PINOUT10/SDA*%
X96037000Y-96520000D03*
%TO.P,I2C_PINOUT10,3,Pin_3*%
%TO.N,VCC*%
X96037000Y-93980000D03*
%TO.P,I2C_PINOUT10,4,Pin_4*%
%TO.N,GND*%
X96037000Y-91440000D03*
%TD*%
D18*
%TO.P,I2C_PINOUT8,1,Pin_1*%
%TO.N,/I2C_PINOUT8/SCL*%
X96037000Y-73660000D03*
D19*
%TO.P,I2C_PINOUT8,2,Pin_2*%
%TO.N,/I2C_PINOUT8/SDA*%
X96037000Y-71120000D03*
%TO.P,I2C_PINOUT8,3,Pin_3*%
%TO.N,VCC*%
X96037000Y-68580000D03*
%TO.P,I2C_PINOUT8,4,Pin_4*%
%TO.N,GND*%
X96037000Y-66040000D03*
%TD*%
D18*
%TO.P,I2C_PINOUT0,1,Pin_1*%
%TO.N,/I2C_PINOUT/SCL*%
X156972000Y-60960000D03*
D19*
%TO.P,I2C_PINOUT0,2,Pin_2*%
%TO.N,/I2C_PINOUT/SDA*%
X156972000Y-63500000D03*
%TO.P,I2C_PINOUT0,3,Pin_3*%
%TO.N,VCC*%
X156972000Y-66040000D03*
%TO.P,I2C_PINOUT0,4,Pin_4*%
%TO.N,GND*%
X156972000Y-68580000D03*
%TD*%
D18*
%TO.P,I2C_PINOUT12,1,Pin_1*%
%TO.N,/I2C_PINOUT12/SCL*%
X110490000Y-109220000D03*
D19*
%TO.P,I2C_PINOUT12,2,Pin_2*%
%TO.N,/I2C_PINOUT12/SDA*%
X107950000Y-109220000D03*
%TO.P,I2C_PINOUT12,3,Pin_3*%
%TO.N,VCC*%
X105410000Y-109220000D03*
%TO.P,I2C_PINOUT12,4,Pin_4*%
%TO.N,GND*%
X102870000Y-109220000D03*
%TD*%
D22*
%TO.P,L1,1,1*%
%TO.N,Net-(U4-EN)*%
X106019600Y-88010600D03*
%TO.P,L1,2,2*%
%TO.N,Net-(D1-A)*%
X106019600Y-81610600D03*
%TD*%
D18*
%TO.P,UART1,1,Pin_1*%
%TO.N,/GPIO2*%
X107950000Y-114300000D03*
D19*
%TO.P,UART1,2,Pin_2*%
%TO.N,/GPIO1*%
X105410000Y-114300000D03*
%TO.P,UART1,3,Pin_3*%
%TO.N,/GPIO0*%
X102870000Y-114300000D03*
%TD*%
D18*
%TO.P,I2C_PINOUT2,1,Pin_1*%
%TO.N,/I2C_PINOUT2/SCL*%
X156972000Y-86360000D03*
D19*
%TO.P,I2C_PINOUT2,2,Pin_2*%
%TO.N,/I2C_PINOUT2/SDA*%
X156972000Y-88900000D03*
%TO.P,I2C_PINOUT2,3,Pin_3*%
%TO.N,VCC*%
X156972000Y-91440000D03*
%TO.P,I2C_PINOUT2,4,Pin_4*%
%TO.N,GND*%
X156972000Y-93980000D03*
%TD*%
D23*
%TO.P,IC2,1,VM*%
%TO.N,GND*%
X127000000Y-76200000D03*
%TO.P,IC2,2,VM*%
X128270000Y-76200000D03*
%TO.P,IC2,3,VM*%
X129540000Y-76200000D03*
%TO.P,IC2,4,VM*%
X130810000Y-76200000D03*
%TO.P,IC2,5,GND*%
%TO.N,/battery/BAT-*%
X130810000Y-70662000D03*
%TO.P,IC2,6,VDD*%
%TO.N,Net-(IC2-VDD)*%
X129540000Y-70662000D03*
%TO.P,IC2,7,GND*%
%TO.N,/battery/BAT-*%
X128270000Y-70662000D03*
%TO.P,IC2,8,GND*%
X127000000Y-70662000D03*
D24*
%TO.P,IC2,9,EPAD*%
X128905000Y-73431000D03*
%TD*%
D25*
%TO.P,SW2,1,1*%
%TO.N,/GPIO24*%
X146277000Y-112812000D03*
X152777000Y-112812000D03*
%TO.P,SW2,2,2*%
%TO.N,GND*%
X146277000Y-117312000D03*
X152777000Y-117312000D03*
%TD*%
D26*
%TO.P,U2,1,A0*%
%TO.N,Net-(JP8-B)*%
X146514500Y-56410000D03*
%TO.P,U2,2,A1*%
%TO.N,Net-(JP7-B)*%
X146514500Y-57060000D03*
%TO.P,U2,3,~{RESET}*%
%TO.N,Net-(U2-~{RESET})*%
X146514500Y-57710000D03*
%TO.P,U2,4,SD0*%
%TO.N,/I2C_PINOUT/SDA*%
X146514500Y-58360000D03*
%TO.P,U2,5,SC0*%
%TO.N,/I2C_PINOUT/SCL*%
X146514500Y-59010000D03*
%TO.P,U2,6,SD1*%
%TO.N,/I2C_PINOUT1/SDA*%
X146514500Y-59660000D03*
%TO.P,U2,7,SC1*%
%TO.N,/I2C_PINOUT1/SCL*%
X146514500Y-60310000D03*
%TO.P,U2,8,SD2*%
%TO.N,/I2C_PINOUT2/SDA*%
X146514500Y-60960000D03*
%TO.P,U2,9,SC2*%
%TO.N,/I2C_PINOUT2/SCL*%
X146514500Y-61610000D03*
%TO.P,U2,10,SD3*%
%TO.N,/I2C_PINOUT3/SDA*%
X146514500Y-62260000D03*
%TO.P,U2,11,SC3*%
%TO.N,/I2C_PINOUT3/SCL*%
X146514500Y-62910000D03*
%TO.P,U2,12,GND*%
%TO.N,GND*%
X146514500Y-63560000D03*
%TO.P,U2,13,SD4*%
%TO.N,/I2C_PINOUT4/SDA*%
X152239500Y-63560000D03*
%TO.P,U2,14,SC4*%
%TO.N,/I2C_PINOUT4/SCL*%
X152239500Y-62910000D03*
%TO.P,U2,15,SD5*%
%TO.N,/I2C_PINOUT5/SDA*%
X152239500Y-62260000D03*
%TO.P,U2,16,SC5*%
%TO.N,/I2C_PINOUT5/SCL*%
X152239500Y-61610000D03*
%TO.P,U2,17,SD6*%
%TO.N,/I2C_PINOUT6/SDA*%
X152239500Y-60960000D03*
%TO.P,U2,18,SC6*%
%TO.N,/I2C_PINOUT6/SCL*%
X152239500Y-60310000D03*
%TO.P,U2,19,SD7*%
%TO.N,/I2C_PINOUT7/SDA*%
X152239500Y-59660000D03*
%TO.P,U2,20,SC7*%
%TO.N,/I2C_PINOUT7/SCL*%
X152239500Y-59010000D03*
%TO.P,U2,21,A2*%
%TO.N,Net-(JP6-A)*%
X152239500Y-58360000D03*
%TO.P,U2,22,SCL*%
%TO.N,/GPIO9*%
X152239500Y-57710000D03*
%TO.P,U2,23,SDA*%
%TO.N,/GPIO8*%
X152239500Y-57060000D03*
%TO.P,U2,24,VCC*%
%TO.N,VCC*%
X152239500Y-56410000D03*
%TD*%
D18*
%TO.P,PICO_R1,1,Pin_1*%
%TO.N,/GPIO15*%
X138430000Y-68580000D03*
D19*
%TO.P,PICO_R1,2,Pin_2*%
%TO.N,VCC*%
X138430000Y-71120000D03*
%TO.P,PICO_R1,3,Pin_3*%
%TO.N,GND*%
X138430000Y-73660000D03*
%TO.P,PICO_R1,4,Pin_4*%
%TO.N,/GPIO18*%
X138430000Y-76200000D03*
%TO.P,PICO_R1,5,Pin_5*%
%TO.N,/GPIO19*%
X138430000Y-78740000D03*
%TO.P,PICO_R1,6,Pin_6*%
%TO.N,/GPIO20*%
X138430000Y-81280000D03*
%TO.P,PICO_R1,7,Pin_7*%
%TO.N,/GPIO21*%
X138430000Y-83820000D03*
%TO.P,PICO_R1,8,Pin_8*%
%TO.N,/GPIO22*%
X138430000Y-86360000D03*
%TO.P,PICO_R1,9,Pin_9*%
%TO.N,/GPIO23*%
X138430000Y-88900000D03*
%TO.P,PICO_R1,10,Pin_10*%
%TO.N,/GPIO24*%
X138430000Y-91440000D03*
%TO.P,PICO_R1,11,Pin_11*%
%TO.N,/GPIO25*%
X138430000Y-93980000D03*
%TO.P,PICO_R1,12,Pin_12*%
%TO.N,/GPIO26*%
X138430000Y-96520000D03*
%TO.P,PICO_R1,13,Pin_13*%
%TO.N,/GPIO27*%
X138430000Y-99060000D03*
%TO.P,PICO_R1,14,Pin_14*%
%TO.N,/GPIO28*%
X138430000Y-101600000D03*
%TO.P,PICO_R1,15,Pin_15*%
%TO.N,/GPIO29*%
X138430000Y-104140000D03*
%TD*%
D25*
%TO.P,RST_SW1,1,1*%
%TO.N,/GPIO20*%
X121870000Y-50328000D03*
X128370000Y-50328000D03*
%TO.P,RST_SW1,2,2*%
%TO.N,GND*%
X121870000Y-54828000D03*
X128370000Y-54828000D03*
%TD*%
D27*
%TO.P,H4,1,1*%
%TO.N,GND*%
X100330000Y-121920000D03*
%TD*%
D18*
%TO.P,OLED_CONN1,1,Pin_1*%
%TO.N,VCC*%
X112557000Y-114300000D03*
D19*
%TO.P,OLED_CONN1,2,Pin_2*%
%TO.N,GND*%
X115097000Y-114300000D03*
%TO.P,OLED_CONN1,3,Pin_3*%
%TO.N,/OLED_SCL*%
X117637000Y-114300000D03*
%TO.P,OLED_CONN1,4,Pin_4*%
%TO.N,/OLED_SDA*%
X120177000Y-114300000D03*
%TD*%
D27*
%TO.P,H5,1,1*%
%TO.N,GND*%
X158750000Y-121920000D03*
%TD*%
D26*
%TO.P,U1,1,A0*%
%TO.N,Net-(JP5-B)*%
X102242700Y-94316600D03*
%TO.P,U1,2,A1*%
%TO.N,Net-(JP4-B)*%
X102242700Y-94966600D03*
%TO.P,U1,3,~{RESET}*%
%TO.N,Net-(U1-~{RESET})*%
X102242700Y-95616600D03*
%TO.P,U1,4,SD0*%
%TO.N,/SENSOR_SDA*%
X102242700Y-96266600D03*
%TO.P,U1,5,SC0*%
%TO.N,/SENSOR_SCL*%
X102242700Y-96916600D03*
%TO.P,U1,6,SD1*%
%TO.N,/US_SDA*%
X102242700Y-97566600D03*
%TO.P,U1,7,SC1*%
%TO.N,/US_SCL*%
X102242700Y-98216600D03*
%TO.P,U1,8,SD2*%
%TO.N,/OLED_SDA*%
X102242700Y-98866600D03*
%TO.P,U1,9,SC2*%
%TO.N,/OLED_SCL*%
X102242700Y-99516600D03*
%TO.P,U1,10,SD3*%
%TO.N,/I2C_PINOUT8/SDA*%
X102242700Y-100166600D03*
%TO.P,U1,11,SC3*%
%TO.N,/I2C_PINOUT8/SCL*%
X102242700Y-100816600D03*
%TO.P,U1,12,GND*%
%TO.N,GND*%
X102242700Y-101466600D03*
%TO.P,U1,13,SD4*%
%TO.N,/I2C_PINOUT9/SDA*%
X107967700Y-101466600D03*
%TO.P,U1,14,SC4*%
%TO.N,/I2C_PINOUT9/SCL*%
X107967700Y-100816600D03*
%TO.P,U1,15,SD5*%
%TO.N,/I2C_PINOUT10/SDA*%
X107967700Y-100166600D03*
%TO.P,U1,16,SC5*%
%TO.N,/I2C_PINOUT10/SCL*%
X107967700Y-99516600D03*
%TO.P,U1,17,SD6*%
%TO.N,/I2C_PINOUT11/SDA*%
X107967700Y-98866600D03*
%TO.P,U1,18,SC6*%
%TO.N,/I2C_PINOUT11/SCL*%
X107967700Y-98216600D03*
%TO.P,U1,19,SD7*%
%TO.N,/I2C_PINOUT12/SDA*%
X107967700Y-97566600D03*
%TO.P,U1,20,SC7*%
%TO.N,/I2C_PINOUT12/SCL*%
X107967700Y-96916600D03*
%TO.P,U1,21,A2*%
%TO.N,Net-(JP3-A)*%
X107967700Y-96266600D03*
%TO.P,U1,22,SCL*%
%TO.N,/GPIO6*%
X107967700Y-95616600D03*
%TO.P,U1,23,SDA*%
%TO.N,/GPIO5*%
X107967700Y-94966600D03*
%TO.P,U1,24,VCC*%
%TO.N,VCC*%
X107967700Y-94316600D03*
%TD*%
D18*
%TO.P,I2C_PINOUT5,1,Pin_1*%
%TO.N,/I2C_PINOUT5/SCL*%
X162052000Y-73660000D03*
D19*
%TO.P,I2C_PINOUT5,2,Pin_2*%
%TO.N,/I2C_PINOUT5/SDA*%
X162052000Y-76200000D03*
%TO.P,I2C_PINOUT5,3,Pin_3*%
%TO.N,VCC*%
X162052000Y-78740000D03*
%TO.P,I2C_PINOUT5,4,Pin_4*%
%TO.N,GND*%
X162052000Y-81280000D03*
%TD*%
D18*
%TO.P,I2C_PINOUT6,1,Pin_1*%
%TO.N,/I2C_PINOUT6/SCL*%
X162052000Y-86360000D03*
D19*
%TO.P,I2C_PINOUT6,2,Pin_2*%
%TO.N,/I2C_PINOUT6/SDA*%
X162052000Y-88900000D03*
%TO.P,I2C_PINOUT6,3,Pin_3*%
%TO.N,VCC*%
X162052000Y-91440000D03*
%TO.P,I2C_PINOUT6,4,Pin_4*%
%TO.N,GND*%
X162052000Y-93980000D03*
%TD*%
D28*
%TO.P,U3,1,IN*%
%TO.N,VBUS*%
X123180000Y-61646000D03*
%TO.P,U3,2,ISET*%
%TO.N,Net-(U3-ISET)*%
X123180000Y-62146000D03*
%TO.P,U3,3,VSS*%
%TO.N,GND*%
X123180000Y-62646000D03*
%TO.P,U3,4,PRETERM*%
%TO.N,Net-(U3-PRETERM)*%
X123180000Y-63146000D03*
%TO.P,U3,5,~{PG}*%
%TO.N,Net-(PG1-K)*%
X123180000Y-63646000D03*
%TO.P,U3,6*%
%TO.N,N/C*%
X127380000Y-63646000D03*
%TO.P,U3,7,ISET2*%
%TO.N,GND*%
X127380000Y-63146000D03*
%TO.P,U3,8,~{CHG}*%
%TO.N,Net-(CHG1-K)*%
X127380000Y-62646000D03*
%TO.P,U3,9,TS*%
%TO.N,Net-(U3-TS)*%
X127380000Y-62146000D03*
%TO.P,U3,10,OUT*%
%TO.N,/battery/BAT+*%
X127380000Y-61646000D03*
D29*
%TO.P,U3,11,EP*%
%TO.N,GND*%
X125280000Y-62646000D03*
D30*
%TO.P,U3,12*%
%TO.N,N/C*%
X124830000Y-62046000D03*
%TO.P,U3,13*%
X125730000Y-62046000D03*
%TO.P,U3,14*%
X125280000Y-62646000D03*
%TO.P,U3,15*%
X124830000Y-63246000D03*
%TO.P,U3,16*%
X125730000Y-63246000D03*
%TD*%
D31*
%TO.P,U5,1,GND*%
%TO.N,GND*%
X108143000Y-72741000D03*
%TO.P,U5,2,DVDT*%
%TO.N,Net-(U5-DVDT)*%
X108143000Y-71471000D03*
%TO.P,U5,3,EN/UVLO*%
%TO.N,Net-(U5-EN{slash}UVLO)*%
X108143000Y-70201000D03*
%TO.P,U5,4,IN*%
%TO.N,Net-(D1-K)*%
X108143000Y-68931000D03*
%TO.P,U5,5,OUT*%
%TO.N,VCC*%
X102393000Y-68931000D03*
%TO.P,U5,6,~{FLT}*%
%TO.N,unconnected-(U5-~{FLT}-Pad6)*%
X102393000Y-70201000D03*
%TO.P,U5,7,ILM*%
%TO.N,Net-(U5-ILM)*%
X102393000Y-71471000D03*
%TO.P,U5,8,OVCSEL*%
%TO.N,unconnected-(U5-OVCSEL-Pad8)*%
X102393000Y-72741000D03*
D32*
%TO.P,U5,9,EXP*%
%TO.N,GND*%
X105268000Y-70836000D03*
D30*
%TO.P,U5,10*%
%TO.N,N/C*%
X105918000Y-72136000D03*
%TO.P,U5,11*%
X104618000Y-72136000D03*
%TO.P,U5,12*%
X105918000Y-70836000D03*
%TO.P,U5,13*%
X104618000Y-70836000D03*
%TO.P,U5,14*%
X105918000Y-69536000D03*
%TO.P,U5,15*%
X104618000Y-69536000D03*
%TD*%
D18*
%TO.P,MOTOR_CONN1,1,Pin_1*%
%TO.N,/GPIO4*%
X129057000Y-124460000D03*
D19*
%TO.P,MOTOR_CONN1,2,Pin_2*%
%TO.N,/GPIO3*%
X131597000Y-124460000D03*
%TD*%
D25*
%TO.P,SW1,1,1*%
%TO.N,/GPIO23*%
X133427000Y-112812000D03*
X139927000Y-112812000D03*
%TO.P,SW1,2,2*%
%TO.N,GND*%
X133427000Y-117312000D03*
X139927000Y-117312000D03*
%TD*%
D27*
%TO.P,H1,1,1*%
%TO.N,GND*%
X100330000Y-53340000D03*
%TD*%
D18*
%TO.P,US1,1,Pin_1*%
%TO.N,/US_SDA*%
X133350000Y-55855000D03*
D19*
%TO.P,US1,2,Pin_2*%
%TO.N,/US_SCL*%
X135890000Y-55855000D03*
%TO.P,US1,3,Pin_3*%
%TO.N,VCC*%
X138430000Y-55855000D03*
%TO.P,US1,4,Pin_4*%
%TO.N,GND*%
X140970000Y-55855000D03*
%TD*%
D18*
%TO.P,GPIO_L1,1,Pin_1*%
%TO.N,/GPIO0*%
X113030000Y-68580000D03*
D19*
%TO.P,GPIO_L1,2,Pin_2*%
%TO.N,/GPIO1*%
X113030000Y-71120000D03*
%TO.P,GPIO_L1,3,Pin_3*%
%TO.N,/GPIO2*%
X113030000Y-73660000D03*
%TO.P,GPIO_L1,4,Pin_4*%
%TO.N,/GPIO3*%
X113030000Y-76200000D03*
%TO.P,GPIO_L1,5,Pin_5*%
%TO.N,/GPIO4*%
X113030000Y-78740000D03*
%TO.P,GPIO_L1,6,Pin_6*%
%TO.N,/GPIO5*%
X113030000Y-81280000D03*
%TO.P,GPIO_L1,7,Pin_7*%
%TO.N,/GPIO6*%
X113030000Y-83820000D03*
%TO.P,GPIO_L1,8,Pin_8*%
%TO.N,/GPIO7*%
X113030000Y-86360000D03*
%TO.P,GPIO_L1,9,Pin_9*%
%TO.N,/GPIO8*%
X113030000Y-88900000D03*
%TO.P,GPIO_L1,10,Pin_10*%
%TO.N,/GPIO9*%
X113030000Y-91440000D03*
%TO.P,GPIO_L1,11,Pin_11*%
%TO.N,/GPIO10*%
X113030000Y-93980000D03*
%TO.P,GPIO_L1,12,Pin_12*%
%TO.N,/GPIO11*%
X113030000Y-96520000D03*
%TO.P,GPIO_L1,13,Pin_13*%
%TO.N,GND*%
X113030000Y-99060000D03*
%TO.P,GPIO_L1,14,Pin_14*%
%TO.N,/GPIO13*%
X113030000Y-101600000D03*
%TO.P,GPIO_L1,15,Pin_15*%
%TO.N,/GPIO14*%
X113030000Y-104140000D03*
%TD*%
D18*
%TO.P,I2C_PINOUT4,1,Pin_1*%
%TO.N,/I2C_PINOUT4/SCL*%
X162052000Y-60960000D03*
D19*
%TO.P,I2C_PINOUT4,2,Pin_2*%
%TO.N,/I2C_PINOUT4/SDA*%
X162052000Y-63500000D03*
%TO.P,I2C_PINOUT4,3,Pin_3*%
%TO.N,VCC*%
X162052000Y-66040000D03*
%TO.P,I2C_PINOUT4,4,Pin_4*%
%TO.N,GND*%
X162052000Y-68580000D03*
%TD*%
D27*
%TO.P,H3,1,1*%
%TO.N,GND*%
X129540000Y-86360000D03*
%TD*%
D17*
%TO.P,12V1,2,A*%
%TO.N,Net-(12V1-A)*%
X115217000Y-53848000D03*
%TO.P,12V1,1,K*%
%TO.N,GND*%
X112417000Y-53848000D03*
%TD*%
D18*
%TO.P,I2C_PINOUT1,1,Pin_1*%
%TO.N,/I2C_PINOUT1/SCL*%
X156997000Y-73660000D03*
D19*
%TO.P,I2C_PINOUT1,2,Pin_2*%
%TO.N,/I2C_PINOUT1/SDA*%
X156997000Y-76200000D03*
%TO.P,I2C_PINOUT1,3,Pin_3*%
%TO.N,VCC*%
X156997000Y-78740000D03*
%TO.P,I2C_PINOUT1,4,Pin_4*%
%TO.N,GND*%
X156997000Y-81280000D03*
%TD*%
D18*
%TO.P,PICO_L1,1,Pin_1*%
%TO.N,/GPIO0*%
X120650000Y-68610000D03*
D19*
%TO.P,PICO_L1,2,Pin_2*%
%TO.N,/GPIO1*%
X120650000Y-71150000D03*
%TO.P,PICO_L1,3,Pin_3*%
%TO.N,/GPIO2*%
X120650000Y-73690000D03*
%TO.P,PICO_L1,4,Pin_4*%
%TO.N,/GPIO3*%
X120650000Y-76230000D03*
%TO.P,PICO_L1,5,Pin_5*%
%TO.N,/GPIO4*%
X120650000Y-78770000D03*
%TO.P,PICO_L1,6,Pin_6*%
%TO.N,/GPIO5*%
X120650000Y-81310000D03*
%TO.P,PICO_L1,7,Pin_7*%
%TO.N,/GPIO6*%
X120650000Y-83850000D03*
%TO.P,PICO_L1,8,Pin_8*%
%TO.N,/GPIO7*%
X120650000Y-86390000D03*
%TO.P,PICO_L1,9,Pin_9*%
%TO.N,/GPIO8*%
X120650000Y-88930000D03*
%TO.P,PICO_L1,10,Pin_10*%
%TO.N,/GPIO9*%
X120650000Y-91470000D03*
%TO.P,PICO_L1,11,Pin_11*%
%TO.N,/GPIO10*%
X120650000Y-94010000D03*
%TO.P,PICO_L1,12,Pin_12*%
%TO.N,/GPIO11*%
X120650000Y-96550000D03*
%TO.P,PICO_L1,13,Pin_13*%
%TO.N,GND*%
X120650000Y-99090000D03*
%TO.P,PICO_L1,14,Pin_14*%
%TO.N,/GPIO13*%
X120650000Y-101630000D03*
%TO.P,PICO_L1,15,Pin_15*%
%TO.N,/GPIO14*%
X120650000Y-104170000D03*
%TD*%
D27*
%TO.P,H2,1,1*%
%TO.N,GND*%
X158750000Y-53340000D03*
%TD*%
D18*
%TO.P,I2C_PINOUT11,1,Pin_1*%
%TO.N,/I2C_PINOUT11/SCL*%
X96037000Y-111760000D03*
D19*
%TO.P,I2C_PINOUT11,2,Pin_2*%
%TO.N,/I2C_PINOUT11/SDA*%
X96037000Y-109220000D03*
%TO.P,I2C_PINOUT11,3,Pin_3*%
%TO.N,VCC*%
X96037000Y-106680000D03*
%TO.P,I2C_PINOUT11,4,Pin_4*%
%TO.N,GND*%
X96037000Y-104140000D03*
%TD*%
D33*
%TO.P,U4,1,COMP*%
%TO.N,Net-(U4-COMP)*%
X130082000Y-62525000D03*
%TO.P,U4,2,FB*%
%TO.N,Net-(U4-FB)*%
X130082000Y-63175000D03*
%TO.P,U4,3,EN*%
%TO.N,Net-(U4-EN)*%
X130082000Y-63825000D03*
%TO.P,U4,4,PGND*%
%TO.N,GND*%
X130082000Y-64475000D03*
%TO.P,U4,5,SW*%
%TO.N,Net-(D1-A)*%
X134382000Y-64475000D03*
%TO.P,U4,6,IN*%
%TO.N,Net-(U4-EN)*%
X134382000Y-63825000D03*
%TO.P,U4,7,FREQ*%
X134382000Y-63175000D03*
%TO.P,U4,8,SS*%
%TO.N,Net-(U4-SS)*%
X134382000Y-62525000D03*
%TD*%
D18*
%TO.P,GPIO_R1,1,Pin_1*%
%TO.N,/GPIO15*%
X146050000Y-68580000D03*
D19*
%TO.P,GPIO_R1,2,Pin_2*%
%TO.N,VCC*%
X146050000Y-71120000D03*
%TO.P,GPIO_R1,3,Pin_3*%
%TO.N,GND*%
X146050000Y-73660000D03*
%TO.P,GPIO_R1,4,Pin_4*%
%TO.N,/GPIO18*%
X146050000Y-76200000D03*
%TO.P,GPIO_R1,5,Pin_5*%
%TO.N,/GPIO19*%
X146050000Y-78740000D03*
%TO.P,GPIO_R1,6,Pin_6*%
%TO.N,/GPIO20*%
X146050000Y-81280000D03*
%TO.P,GPIO_R1,7,Pin_7*%
%TO.N,/GPIO21*%
X146050000Y-83820000D03*
%TO.P,GPIO_R1,8,Pin_8*%
%TO.N,/GPIO22*%
X146050000Y-86360000D03*
%TO.P,GPIO_R1,9,Pin_9*%
%TO.N,/GPIO23*%
X146050000Y-88900000D03*
%TO.P,GPIO_R1,10,Pin_10*%
%TO.N,/GPIO24*%
X146050000Y-91440000D03*
%TO.P,GPIO_R1,11,Pin_11*%
%TO.N,/GPIO25*%
X146050000Y-93980000D03*
%TO.P,GPIO_R1,12,Pin_12*%
%TO.N,/GPIO26*%
X146050000Y-96520000D03*
%TO.P,GPIO_R1,13,Pin_13*%
%TO.N,/GPIO27*%
X146050000Y-99060000D03*
%TO.P,GPIO_R1,14,Pin_14*%
%TO.N,/GPIO28*%
X146050000Y-101600000D03*
%TO.P,GPIO_R1,15,Pin_15*%
%TO.N,/GPIO29*%
X146050000Y-104140000D03*
%TD*%
D17*
%TO.P,CHG1,2,A*%
%TO.N,Net-(CHG1-A)*%
X118897000Y-50800000D03*
%TO.P,CHG1,1,K*%
%TO.N,Net-(CHG1-K)*%
X116097000Y-50800000D03*
%TD*%
D18*
%TO.P,I2C_PINOUT3,1,Pin_1*%
%TO.N,/I2C_PINOUT3/SCL*%
X156972000Y-99060000D03*
D19*
%TO.P,I2C_PINOUT3,2,Pin_2*%
%TO.N,/I2C_PINOUT3/SDA*%
X156972000Y-101600000D03*
%TO.P,I2C_PINOUT3,3,Pin_3*%
%TO.N,VCC*%
X156972000Y-104140000D03*
%TO.P,I2C_PINOUT3,4,Pin_4*%
%TO.N,GND*%
X156972000Y-106680000D03*
%TD*%
D18*
%TO.P,ARR1,1,Pin_1*%
%TO.N,/SENSOR_SDA*%
X133350000Y-50800000D03*
D19*
%TO.P,ARR1,2,Pin_2*%
%TO.N,/SENSOR_SCL*%
X135890000Y-50800000D03*
%TO.P,ARR1,3,Pin_3*%
%TO.N,VCC*%
X138430000Y-50800000D03*
%TO.P,ARR1,4,Pin_4*%
%TO.N,GND*%
X140970000Y-50800000D03*
%TD*%
D34*
%TO.P,C13,1*%
%TO.N,VCC*%
X106683800Y-60985400D03*
D25*
%TO.P,C13,2*%
%TO.N,GND*%
X111683800Y-60985400D03*
%TD*%
D35*
%TO.N,Net-(U4-EN)*%
X133130700Y-62738000D03*
X136642600Y-68428700D03*
X131297500Y-66650200D03*
X109617400Y-93663400D03*
X136555100Y-93819800D03*
%TO.N,VBUS*%
X118908400Y-58694000D03*
%TO.N,/battery/BAT+*%
X149029600Y-85026500D03*
X126070900Y-57197700D03*
X119972300Y-62085900D03*
%TO.N,/battery/BAT-*%
X127017800Y-66174000D03*
%TO.N,VCC*%
X108378900Y-93307500D03*
X106683800Y-52070000D03*
X96987800Y-101989600D03*
%TO.N,Net-(U3-TS)*%
X127922600Y-60671300D03*
%TO.N,Net-(U3-PRETERM)*%
X121868200Y-63754000D03*
%TO.N,Net-(U3-ISET)*%
X121845500Y-62397200D03*
%TO.N,Net-(PG1-A)*%
X116516200Y-72320300D03*
%TO.N,Net-(PG1-K)*%
X113598000Y-66756300D03*
X123180000Y-67356800D03*
%TO.N,Net-(CHG1-A)*%
X117689800Y-90124800D03*
%TO.N,Net-(U5-DVDT)*%
X109751700Y-71113300D03*
%TO.N,Net-(IC2-VDD)*%
X125997300Y-66511600D03*
%TO.N,/GPIO2*%
X113827000Y-116055700D03*
%TO.N,/GPIO1*%
X114960000Y-110802400D03*
X108637300Y-110850300D03*
%TO.N,/GPIO0*%
X111010300Y-116703700D03*
%TO.N,/I2C_PINOUT2/SCL*%
X147330800Y-82548000D03*
%TO.N,/I2C_PINOUT1/SCL*%
X149137400Y-67797200D03*
%TO.N,/I2C_PINOUT6/SCL*%
X153481700Y-59166500D03*
X164053900Y-59166500D03*
X164053900Y-82640300D03*
%TO.N,/GPIO9*%
X151510400Y-75419800D03*
X147975500Y-92601400D03*
X147642100Y-76157500D03*
%TO.N,/I2C_PINOUT1/SDA*%
X155738900Y-59768200D03*
X150989000Y-64655200D03*
%TO.N,/GPIO8*%
X151501000Y-78471300D03*
%TO.N,/I2C_PINOUT4/SDA*%
X152239500Y-64675300D03*
%TO.N,/I2C_PINOUT4/SCL*%
X153501700Y-63176800D03*
%TO.N,/US_SCL*%
X142549800Y-97747400D03*
X104492300Y-96689000D03*
%TO.N,/US_SDA*%
X134249500Y-100330000D03*
X106437300Y-101593100D03*
%TO.N,/I2C_PINOUT11/SDA*%
X109060300Y-105882700D03*
%TO.N,/SENSOR_SCL*%
X132026100Y-54590300D03*
X133591700Y-95251500D03*
X99562400Y-95473200D03*
%TO.N,/I2C_PINOUT9/SCL*%
X106103200Y-90127800D03*
%TO.N,/OLED_SDA*%
X105817000Y-102938000D03*
%TO.N,/I2C_PINOUT10/SDA*%
X104480500Y-97551600D03*
%TO.N,/I2C_PINOUT10/SCL*%
X106707100Y-107095700D03*
X101877200Y-107942700D03*
X101548100Y-102782300D03*
%TO.N,/I2C_PINOUT9/SDA*%
X100083400Y-85476300D03*
%TO.N,/I2C_PINOUT11/SCL*%
X109827000Y-106321200D03*
%TO.N,/SENSOR_SDA*%
X117117900Y-51844000D03*
X104578700Y-94849800D03*
X111670800Y-94227100D03*
%TO.N,/OLED_SCL*%
X104238800Y-110631500D03*
%TO.N,Net-(U2-~{RESET})*%
X147756100Y-57704500D03*
%TO.N,Net-(JP8-B)*%
X143468200Y-64576600D03*
%TO.N,Net-(JP7-B)*%
X145268500Y-61297100D03*
%TO.N,Net-(U1-~{RESET})*%
X104343600Y-90729700D03*
%TO.N,Net-(JP3-A)*%
X106705000Y-98806000D03*
X106725400Y-93386400D03*
%TO.N,Net-(JP4-B)*%
X101170600Y-91690100D03*
X100449100Y-97143800D03*
%TO.N,Net-(JP5-B)*%
X101533900Y-87792300D03*
X100099000Y-98267500D03*
%TO.N,Net-(JP6-A)*%
X153518100Y-58360100D03*
%TO.N,Net-(U4-SS)*%
X133275300Y-58353500D03*
%TO.N,Net-(12V1-A)*%
X114499800Y-52026600D03*
%TO.N,Net-(U5-ILM)*%
X100350700Y-64893000D03*
%TO.N,Net-(D1-A)*%
X134872700Y-72012300D03*
X110925100Y-69919000D03*
%TO.N,Net-(D1-K)*%
X109268200Y-68164200D03*
%TO.N,Net-(U5-EN{slash}UVLO)*%
X109109900Y-67109700D03*
%TO.N,Net-(U4-COMP)*%
X131152000Y-60844800D03*
%TO.N,Net-(U4-FB)*%
X131910500Y-75921900D03*
%TO.N,GND*%
X96984800Y-87753000D03*
X102574700Y-81196600D03*
X126125500Y-76332700D03*
%TD*%
D36*
%TO.N,Net-(U4-EN)*%
X134382000Y-63175000D02*
X134382000Y-63825000D01*
X135101300Y-63825000D02*
X134382000Y-63825000D01*
X136642600Y-65366300D02*
X135101300Y-63825000D01*
X136642600Y-68428700D02*
X136642600Y-65366300D01*
X133567700Y-63175000D02*
X133130700Y-62738000D01*
X134382000Y-63175000D02*
X133567700Y-63175000D01*
X109617400Y-92660100D02*
X109617400Y-93663400D01*
X106019600Y-89062300D02*
X109617400Y-92660100D01*
X106019600Y-88010600D02*
X106019600Y-89062300D01*
X136555100Y-86569900D02*
X138035000Y-85090000D01*
X136555100Y-93819800D02*
X136555100Y-86569900D01*
X136642600Y-83697600D02*
X136642600Y-68428700D01*
X138035000Y-85090000D02*
X136642600Y-83697600D01*
X141530400Y-115524400D02*
X147574000Y-121568000D01*
X141530400Y-87830100D02*
X141530400Y-115524400D01*
X138790300Y-85090000D02*
X141530400Y-87830100D01*
X138035000Y-85090000D02*
X138790300Y-85090000D01*
X131222700Y-66575400D02*
X131297500Y-66650200D01*
X131222700Y-64248800D02*
X131222700Y-66575400D01*
X130798900Y-63825000D02*
X131222700Y-64248800D01*
X130082000Y-63825000D02*
X130798900Y-63825000D01*
%TO.N,VBUS*%
X109920000Y-119313000D02*
X110220000Y-119313000D01*
X110220000Y-119313000D02*
X110220000Y-120364700D01*
X115120000Y-119312500D02*
X114820000Y-119312500D01*
X123180000Y-61646000D02*
X122078300Y-61646000D01*
X114819500Y-120364700D02*
X110220000Y-120364700D01*
X114820000Y-120364200D02*
X114819500Y-120364700D01*
X114820000Y-119312500D02*
X114820000Y-120364200D01*
X118908400Y-61477700D02*
X118908400Y-58694000D01*
X121910000Y-61477700D02*
X122078300Y-61646000D01*
X118908400Y-61477700D02*
X121910000Y-61477700D01*
X110220000Y-113450300D02*
X110220000Y-119313000D01*
X111809300Y-111861000D02*
X110220000Y-113450300D01*
X111809300Y-101172600D02*
X111809300Y-111861000D01*
X112651900Y-100330000D02*
X111809300Y-101172600D01*
X113412100Y-100330000D02*
X112651900Y-100330000D01*
X118293200Y-95448900D02*
X113412100Y-100330000D01*
X118293200Y-62092900D02*
X118293200Y-95448900D01*
X118908400Y-61477700D02*
X118293200Y-62092900D01*
%TO.N,/battery/BAT+*%
X149029600Y-123512400D02*
X149029600Y-85026500D01*
X147574000Y-124968000D02*
X149029600Y-123512400D01*
X126070900Y-60336900D02*
X126070900Y-57197700D01*
X127380000Y-61646000D02*
X126070900Y-60336900D01*
X119972300Y-65351800D02*
X119972300Y-62085900D01*
X123545500Y-68925000D02*
X119972300Y-65351800D01*
X123545500Y-115176700D02*
X123545500Y-68925000D01*
X125268000Y-116899200D02*
X123545500Y-115176700D01*
X126900800Y-116899200D02*
X125268000Y-116899200D01*
X128230000Y-115570000D02*
X126900800Y-116899200D01*
%TO.N,/battery/BAT-*%
X127017800Y-69323500D02*
X127017800Y-66174000D01*
X127000000Y-69341300D02*
X127017800Y-69323500D01*
X128758400Y-71982700D02*
X128270000Y-71982700D01*
X128905000Y-72129300D02*
X128758400Y-71982700D01*
X128270000Y-70662000D02*
X128270000Y-71982700D01*
X127000000Y-70001600D02*
X127000000Y-69341300D01*
X127660300Y-69341300D02*
X128270000Y-69341300D01*
X127000000Y-70001600D02*
X127660300Y-69341300D01*
X128270000Y-70662000D02*
X128270000Y-69341300D01*
X128905000Y-73431000D02*
X128905000Y-73003600D01*
X128905000Y-73003600D02*
X128905000Y-72129300D01*
X129925900Y-71982700D02*
X130810000Y-71982700D01*
X128905000Y-73003600D02*
X129925900Y-71982700D01*
X130810000Y-70662000D02*
X130810000Y-71982700D01*
X127000000Y-70331800D02*
X127000000Y-70001600D01*
X127000000Y-70331800D02*
X127000000Y-70662000D01*
X127000000Y-70662000D02*
X127000000Y-71982700D01*
X125730000Y-115570000D02*
X125730000Y-114268300D01*
X125437900Y-73544800D02*
X127000000Y-71982700D01*
X125437900Y-113976200D02*
X125437900Y-73544800D01*
X125730000Y-114268300D02*
X125437900Y-113976200D01*
%TO.N,VCC*%
X106683800Y-60985400D02*
X106683800Y-62287100D01*
X138430000Y-50800000D02*
X138430000Y-55855000D01*
X156972000Y-66040000D02*
X156972000Y-64888300D01*
X156972000Y-91440000D02*
X156972000Y-92591700D01*
X156972000Y-104140000D02*
X156972000Y-102988300D01*
X162052000Y-91440000D02*
X162052000Y-90288300D01*
X162052000Y-78740000D02*
X162052000Y-79891700D01*
X102393000Y-68931000D02*
X101964000Y-68931000D01*
X103420000Y-65550900D02*
X106683800Y-62287100D01*
X101964000Y-65550900D02*
X103420000Y-65550900D01*
X100630500Y-64217400D02*
X101964000Y-65550900D01*
X100124300Y-64217400D02*
X100630500Y-64217400D01*
X96913400Y-67428300D02*
X100124300Y-64217400D01*
X96037000Y-67428300D02*
X96913400Y-67428300D01*
X101964000Y-65550900D02*
X101964000Y-68931000D01*
X96037000Y-68580000D02*
X96037000Y-67428300D01*
X108378900Y-93905400D02*
X108378900Y-93307500D01*
X107967700Y-94316600D02*
X108378900Y-93905400D01*
X106683800Y-60985400D02*
X106683800Y-52070000D01*
X157240500Y-102988300D02*
X156972000Y-102988300D01*
X158530300Y-101698500D02*
X157240500Y-102988300D01*
X158530300Y-93862100D02*
X158530300Y-101698500D01*
X157259900Y-92591700D02*
X158530300Y-93862100D01*
X156972000Y-92591700D02*
X157259900Y-92591700D01*
X96037000Y-93980000D02*
X96037000Y-95131700D01*
X96305500Y-95131700D02*
X96037000Y-95131700D01*
X97188700Y-96014900D02*
X96305500Y-95131700D01*
X97188700Y-101788700D02*
X97188700Y-96014900D01*
X96987800Y-101989600D02*
X97188700Y-101788700D01*
X161783500Y-79891700D02*
X162052000Y-79891700D01*
X160873000Y-80802200D02*
X161783500Y-79891700D01*
X160873000Y-82277600D02*
X160873000Y-80802200D01*
X163605400Y-85010000D02*
X160873000Y-82277600D01*
X163605400Y-88996600D02*
X163605400Y-85010000D01*
X162313700Y-90288300D02*
X163605400Y-88996600D01*
X162052000Y-90288300D02*
X162313700Y-90288300D01*
X156703400Y-64888300D02*
X156972000Y-64888300D01*
X155137200Y-63322100D02*
X156703400Y-64888300D01*
X155137200Y-58567300D02*
X155137200Y-63322100D01*
X152979900Y-56410000D02*
X155137200Y-58567300D01*
X152239500Y-56410000D02*
X152979900Y-56410000D01*
%TO.N,Net-(U3-TS)*%
X127380000Y-62146000D02*
X128481700Y-62146000D01*
X128481700Y-61230400D02*
X127922600Y-60671300D01*
X128481700Y-62146000D02*
X128481700Y-61230400D01*
%TO.N,Net-(U3-PRETERM)*%
X123180000Y-63146000D02*
X122078300Y-63146000D01*
X122078300Y-63543900D02*
X121868200Y-63754000D01*
X122078300Y-63146000D02*
X122078300Y-63543900D01*
%TO.N,Net-(U3-ISET)*%
X122078300Y-62164400D02*
X121845500Y-62397200D01*
X122078300Y-62146000D02*
X122078300Y-62164400D01*
X123180000Y-62146000D02*
X122078300Y-62146000D01*
%TO.N,Net-(PG1-A)*%
X116516200Y-53191900D02*
X116516200Y-72320300D01*
X114124300Y-50800000D02*
X116516200Y-53191900D01*
X111677000Y-50800000D02*
X114124300Y-50800000D01*
%TO.N,Net-(PG1-K)*%
X123180000Y-63646000D02*
X123180000Y-67356800D01*
X113598000Y-53237000D02*
X113598000Y-66756300D01*
X112987800Y-52626800D02*
X113598000Y-53237000D01*
X110703800Y-52626800D02*
X112987800Y-52626800D01*
X108877000Y-50800000D02*
X110703800Y-52626800D01*
%TO.N,Net-(CHG1-K)*%
X117345300Y-49551700D02*
X116097000Y-50800000D01*
X119461900Y-49551700D02*
X117345300Y-49551700D01*
X120117800Y-50207600D02*
X119461900Y-49551700D01*
X120117800Y-50497700D02*
X120117800Y-50207600D01*
X121746100Y-52126000D02*
X120117800Y-50497700D01*
X121854800Y-52126000D02*
X121746100Y-52126000D01*
X128902400Y-59173600D02*
X121854800Y-52126000D01*
X128902400Y-62296400D02*
X128902400Y-59173600D01*
X128552800Y-62646000D02*
X128902400Y-62296400D01*
X127380000Y-62646000D02*
X128552800Y-62646000D01*
%TO.N,Net-(CHG1-A)*%
X117719600Y-51977400D02*
X118897000Y-50800000D01*
X117719600Y-90095000D02*
X117719600Y-51977400D01*
X117689800Y-90124800D02*
X117719600Y-90095000D01*
%TO.N,Net-(U5-DVDT)*%
X108143000Y-71471000D02*
X109544700Y-71471000D01*
X109544700Y-71320300D02*
X109751700Y-71113300D01*
X109544700Y-71471000D02*
X109544700Y-71320300D01*
%TO.N,Net-(IC2-VDD)*%
X125997300Y-66300700D02*
X125997300Y-66511600D01*
X126728000Y-65570000D02*
X125997300Y-66300700D01*
X127280500Y-65570000D02*
X126728000Y-65570000D01*
X129540000Y-67829500D02*
X127280500Y-65570000D01*
X129540000Y-70662000D02*
X129540000Y-67829500D01*
%TO.N,/I2C_PINOUT/SCL*%
X147887200Y-59010000D02*
X146514500Y-59010000D01*
X150034600Y-56862600D02*
X147887200Y-59010000D01*
X150034600Y-56720600D02*
X150034600Y-56862600D01*
X151281300Y-55473900D02*
X150034600Y-56720600D01*
X153209000Y-55473900D02*
X151281300Y-55473900D01*
X156220700Y-58485600D02*
X153209000Y-55473900D01*
X156220700Y-59053600D02*
X156220700Y-58485600D01*
X156972000Y-59804900D02*
X156220700Y-59053600D01*
X156972000Y-60960000D02*
X156972000Y-59804900D01*
%TO.N,/I2C_PINOUT/SDA*%
X156972000Y-63500000D02*
X156972000Y-62348300D01*
X147951700Y-58360000D02*
X146514500Y-58360000D01*
X149632900Y-56678800D02*
X147951700Y-58360000D01*
X149632900Y-56554300D02*
X149632900Y-56678800D01*
X151115000Y-55072200D02*
X149632900Y-56554300D01*
X153375300Y-55072200D02*
X151115000Y-55072200D01*
X158123700Y-59820600D02*
X153375300Y-55072200D01*
X158123700Y-62011100D02*
X158123700Y-59820600D01*
X157786500Y-62348300D02*
X158123700Y-62011100D01*
X156972000Y-62348300D02*
X157786500Y-62348300D01*
%TO.N,/GPIO2*%
X120650000Y-73690000D02*
X120650000Y-74841700D01*
X120381500Y-74841700D02*
X120650000Y-74841700D01*
X119498300Y-75724900D02*
X120381500Y-74841700D01*
X119498300Y-98587900D02*
X119498300Y-75724900D01*
X117789200Y-100297000D02*
X119498300Y-98587900D01*
X117789200Y-108837800D02*
X117789200Y-100297000D01*
X113827000Y-112800000D02*
X117789200Y-108837800D01*
X113827000Y-116055700D02*
X113827000Y-112800000D01*
%TO.N,/GPIO4*%
X129057000Y-124460000D02*
X129057000Y-123308300D01*
X120650000Y-78770000D02*
X120650000Y-79921700D01*
X122300200Y-116551500D02*
X129057000Y-123308300D01*
X122300200Y-81303400D02*
X122300200Y-116551500D01*
X120918500Y-79921700D02*
X122300200Y-81303400D01*
X120650000Y-79921700D02*
X120918500Y-79921700D01*
%TO.N,/GPIO1*%
X106339300Y-113148300D02*
X105410000Y-113148300D01*
X108637300Y-110850300D02*
X106339300Y-113148300D01*
X105410000Y-114300000D02*
X105410000Y-113148300D01*
X120650000Y-71150000D02*
X120650000Y-72301700D01*
X114960000Y-102261700D02*
X114960000Y-110802400D01*
X119096600Y-98125100D02*
X114960000Y-102261700D01*
X119096600Y-73567100D02*
X119096600Y-98125100D01*
X120362000Y-72301700D02*
X119096600Y-73567100D01*
X120650000Y-72301700D02*
X120362000Y-72301700D01*
%TO.N,/GPIO3*%
X131597000Y-124460000D02*
X131597000Y-123308300D01*
X120650000Y-76230000D02*
X120650000Y-77381700D01*
X131100000Y-123308300D02*
X131597000Y-123308300D01*
X122701900Y-114910200D02*
X131100000Y-123308300D01*
X122701900Y-79165100D02*
X122701900Y-114910200D01*
X120918500Y-77381700D02*
X122701900Y-79165100D01*
X120650000Y-77381700D02*
X120918500Y-77381700D01*
%TO.N,/GPIO0*%
X120650000Y-68610000D02*
X120650000Y-69761700D01*
X111010300Y-113309200D02*
X111010300Y-116703700D01*
X114417300Y-109902200D02*
X111010300Y-113309200D01*
X114417300Y-101670500D02*
X114417300Y-109902200D01*
X118694900Y-97392900D02*
X114417300Y-101670500D01*
X118694900Y-71431600D02*
X118694900Y-97392900D01*
X120364800Y-69761700D02*
X118694900Y-71431600D01*
X120650000Y-69761700D02*
X120364800Y-69761700D01*
%TO.N,/GPIO20*%
X138430000Y-81280000D02*
X138430000Y-80128300D01*
X130021900Y-50328000D02*
X128370000Y-50328000D01*
X134690700Y-54996800D02*
X130021900Y-50328000D01*
X134690700Y-56362900D02*
X134690700Y-54996800D01*
X137278300Y-58950500D02*
X134690700Y-56362900D01*
X137278300Y-79264600D02*
X137278300Y-58950500D01*
X138142000Y-80128300D02*
X137278300Y-79264600D01*
X138430000Y-80128300D02*
X138142000Y-80128300D01*
%TO.N,/GPIO23*%
X139927000Y-91260800D02*
X139927000Y-112812000D01*
X138717900Y-90051700D02*
X139927000Y-91260800D01*
X138430000Y-90051700D02*
X138717900Y-90051700D01*
X138430000Y-88900000D02*
X138430000Y-90051700D01*
%TO.N,/GPIO24*%
X147211700Y-111877300D02*
X146277000Y-112812000D01*
X147211700Y-93465500D02*
X147211700Y-111877300D01*
X146337900Y-92591700D02*
X147211700Y-93465500D01*
X146050000Y-92591700D02*
X146337900Y-92591700D01*
X146050000Y-91440000D02*
X146050000Y-92591700D01*
%TO.N,/I2C_PINOUT3/SDA*%
X156972000Y-101600000D02*
X156972000Y-100448300D01*
X157710400Y-100448300D02*
X156972000Y-100448300D01*
X158123700Y-100035000D02*
X157710400Y-100448300D01*
X158123700Y-97416500D02*
X158123700Y-100035000D01*
X151803100Y-91095900D02*
X158123700Y-97416500D01*
X151803100Y-81091400D02*
X151803100Y-91095900D01*
X148716300Y-78004600D02*
X151803100Y-81091400D01*
X148716300Y-69055100D02*
X148716300Y-78004600D01*
X148134000Y-68472800D02*
X148716300Y-69055100D01*
X148134000Y-66059000D02*
X148134000Y-68472800D01*
X147977100Y-65902100D02*
X148134000Y-66059000D01*
X147977100Y-63033700D02*
X147977100Y-65902100D01*
X147203400Y-62260000D02*
X147977100Y-63033700D01*
X146514500Y-62260000D02*
X147203400Y-62260000D01*
%TO.N,/I2C_PINOUT7/SCL*%
X163214500Y-100222500D02*
X162052000Y-99060000D01*
X163214500Y-102108800D02*
X163214500Y-100222500D01*
X162548500Y-102774800D02*
X163214500Y-102108800D01*
X161596800Y-102774800D02*
X162548500Y-102774800D01*
X158932000Y-100110000D02*
X161596800Y-102774800D01*
X158932000Y-86135200D02*
X158932000Y-100110000D01*
X152284800Y-79488000D02*
X158932000Y-86135200D01*
X152284800Y-67919300D02*
X152284800Y-79488000D01*
X150155600Y-65790100D02*
X152284800Y-67919300D01*
X150155600Y-65240600D02*
X150155600Y-65790100D01*
X149985600Y-65070600D02*
X150155600Y-65240600D01*
X149985600Y-60586700D02*
X149985600Y-65070600D01*
X151562300Y-59010000D02*
X149985600Y-60586700D01*
X152239500Y-59010000D02*
X151562300Y-59010000D01*
%TO.N,/I2C_PINOUT5/SDA*%
X162052000Y-76200000D02*
X162052000Y-75048300D01*
X153512800Y-62260000D02*
X152239500Y-62260000D01*
X154301500Y-63048700D02*
X153512800Y-62260000D01*
X154301500Y-66115300D02*
X154301500Y-63048700D01*
X155104800Y-66918600D02*
X154301500Y-66115300D01*
X155104800Y-68842500D02*
X155104800Y-66918600D01*
X161310600Y-75048300D02*
X155104800Y-68842500D01*
X162052000Y-75048300D02*
X161310600Y-75048300D01*
%TO.N,/I2C_PINOUT7/SDA*%
X162052000Y-101600000D02*
X162052000Y-100448300D01*
X161237400Y-100448300D02*
X162052000Y-100448300D01*
X160662100Y-99873000D02*
X161237400Y-100448300D01*
X160662100Y-86798800D02*
X160662100Y-99873000D01*
X152901100Y-79037800D02*
X160662100Y-86798800D01*
X152901100Y-67967600D02*
X152901100Y-79037800D01*
X150557300Y-65623800D02*
X152901100Y-67967600D01*
X150557300Y-65291200D02*
X150557300Y-65623800D01*
X150665700Y-65182800D02*
X150557300Y-65291200D01*
X150665700Y-65182700D02*
X150665700Y-65182800D01*
X150387300Y-64904300D02*
X150665700Y-65182700D01*
X150387300Y-64406100D02*
X150387300Y-64904300D01*
X150739900Y-64053500D02*
X150387300Y-64406100D01*
X150740000Y-64053500D02*
X150739900Y-64053500D01*
X150740000Y-60454600D02*
X150740000Y-64053500D01*
X151534600Y-59660000D02*
X150740000Y-60454600D01*
X152239500Y-59660000D02*
X151534600Y-59660000D01*
%TO.N,/I2C_PINOUT2/SCL*%
X147201700Y-82418900D02*
X147330800Y-82548000D01*
X147201700Y-78243700D02*
X147201700Y-82418900D01*
X146428000Y-77470000D02*
X147201700Y-78243700D01*
X145655900Y-77470000D02*
X146428000Y-77470000D01*
X144882900Y-76697000D02*
X145655900Y-77470000D01*
X144882900Y-62543100D02*
X144882900Y-76697000D01*
X145816000Y-61610000D02*
X144882900Y-62543100D01*
X146514500Y-61610000D02*
X145816000Y-61610000D01*
%TO.N,/I2C_PINOUT5/SCL*%
X153432700Y-61610000D02*
X152239500Y-61610000D01*
X154703200Y-62880500D02*
X153432700Y-61610000D01*
X154703200Y-65422400D02*
X154703200Y-62880500D01*
X156590800Y-67310000D02*
X154703200Y-65422400D01*
X157352800Y-67310000D02*
X156590800Y-67310000D01*
X162052000Y-72009200D02*
X157352800Y-67310000D01*
X162052000Y-73660000D02*
X162052000Y-72009200D01*
%TO.N,/I2C_PINOUT1/SCL*%
X148950500Y-67610300D02*
X149137400Y-67797200D01*
X148950500Y-65739500D02*
X148950500Y-67610300D01*
X148780500Y-65569500D02*
X148950500Y-65739500D01*
X148780500Y-61918300D02*
X148780500Y-65569500D01*
X147172200Y-60310000D02*
X148780500Y-61918300D01*
X146514500Y-60310000D02*
X147172200Y-60310000D01*
%TO.N,/I2C_PINOUT6/SCL*%
X153481700Y-59725300D02*
X153481700Y-59166500D01*
X152897000Y-60310000D02*
X153481700Y-59725300D01*
X152239500Y-60310000D02*
X152897000Y-60310000D01*
X164053900Y-82640300D02*
X164053900Y-59166500D01*
%TO.N,/I2C_PINOUT6/SDA*%
X162052000Y-88900000D02*
X162052000Y-87748300D01*
X151535800Y-60960000D02*
X152239500Y-60960000D01*
X151160600Y-61335200D02*
X151535800Y-60960000D01*
X151160600Y-63975900D02*
X151160600Y-61335200D01*
X151590700Y-64406000D02*
X151160600Y-63975900D01*
X151590700Y-64914700D02*
X151590700Y-64406000D01*
X154503300Y-67827300D02*
X151590700Y-64914700D01*
X154503300Y-68895000D02*
X154503300Y-67827300D01*
X160190300Y-74582000D02*
X154503300Y-68895000D01*
X160190300Y-82320500D02*
X160190300Y-74582000D01*
X163203700Y-85333900D02*
X160190300Y-82320500D01*
X163203700Y-87335000D02*
X163203700Y-85333900D01*
X162790400Y-87748300D02*
X163203700Y-87335000D01*
X162052000Y-87748300D02*
X162790400Y-87748300D01*
%TO.N,/GPIO9*%
X147975500Y-82341800D02*
X147975500Y-92601400D01*
X147642100Y-82008400D02*
X147975500Y-82341800D01*
X147642100Y-76157500D02*
X147642100Y-82008400D01*
X150360300Y-74269700D02*
X151510400Y-75419800D01*
X150360300Y-66562800D02*
X150360300Y-74269700D01*
X149753900Y-65956400D02*
X150360300Y-66562800D01*
X149753900Y-65406900D02*
X149753900Y-65956400D01*
X149583900Y-65236900D02*
X149753900Y-65406900D01*
X149583900Y-59652500D02*
X149583900Y-65236900D01*
X151526400Y-57710000D02*
X149583900Y-59652500D01*
X152239500Y-57710000D02*
X151526400Y-57710000D01*
%TO.N,/I2C_PINOUT1/SDA*%
X155819000Y-59688100D02*
X155738900Y-59768200D01*
X155819000Y-58651900D02*
X155819000Y-59688100D01*
X153042700Y-55875600D02*
X155819000Y-58651900D01*
X151447600Y-55875600D02*
X153042700Y-55875600D01*
X150477600Y-56845600D02*
X151447600Y-55875600D01*
X150477600Y-57073400D02*
X150477600Y-56845600D01*
X147891000Y-59660000D02*
X150477600Y-57073400D01*
X146514500Y-59660000D02*
X147891000Y-59660000D01*
X156182500Y-75048300D02*
X156997000Y-75048300D01*
X153703000Y-72568800D02*
X156182500Y-75048300D01*
X153703000Y-68201500D02*
X153703000Y-72568800D01*
X151000300Y-65498800D02*
X153703000Y-68201500D01*
X151000300Y-65416200D02*
X151000300Y-65498800D01*
X151079600Y-65336900D02*
X151000300Y-65416200D01*
X151079600Y-64745800D02*
X151079600Y-65336900D01*
X150989000Y-64655200D02*
X151079600Y-64745800D01*
X156997000Y-76200000D02*
X156997000Y-75048300D01*
%TO.N,/I2C_PINOUT2/SDA*%
X156972000Y-88900000D02*
X156972000Y-87748300D01*
X156166300Y-87748300D02*
X156972000Y-87748300D01*
X155818700Y-87400700D02*
X156166300Y-87748300D01*
X155818700Y-84340800D02*
X155818700Y-87400700D01*
X149119500Y-77641600D02*
X155818700Y-84340800D01*
X149119500Y-68890300D02*
X149119500Y-77641600D01*
X148717800Y-68488600D02*
X149119500Y-68890300D01*
X148717800Y-68228400D02*
X148717800Y-68488600D01*
X148535700Y-68046300D02*
X148717800Y-68228400D01*
X148535700Y-65892700D02*
X148535700Y-68046300D01*
X148378800Y-65735800D02*
X148535700Y-65892700D01*
X148378800Y-62168100D02*
X148378800Y-65735800D01*
X147170700Y-60960000D02*
X148378800Y-62168100D01*
X146514500Y-60960000D02*
X147170700Y-60960000D01*
%TO.N,/I2C_PINOUT3/SCL*%
X156972000Y-99060000D02*
X156972000Y-97908300D01*
X150614100Y-91550400D02*
X156972000Y-97908300D01*
X150614100Y-80506600D02*
X150614100Y-91550400D01*
X148243800Y-78136300D02*
X150614100Y-80506600D01*
X148243800Y-69262800D02*
X148243800Y-78136300D01*
X147732300Y-68751300D02*
X148243800Y-69262800D01*
X147732300Y-66225300D02*
X147732300Y-68751300D01*
X147575400Y-66068400D02*
X147732300Y-66225300D01*
X147575400Y-63230600D02*
X147575400Y-66068400D01*
X147254800Y-62910000D02*
X147575400Y-63230600D01*
X146514500Y-62910000D02*
X147254800Y-62910000D01*
%TO.N,/GPIO8*%
X149958600Y-76928900D02*
X151501000Y-78471300D01*
X149958600Y-66729100D02*
X149958600Y-76928900D01*
X149352200Y-66122700D02*
X149958600Y-66729100D01*
X149352200Y-65573200D02*
X149352200Y-66122700D01*
X149182200Y-65403200D02*
X149352200Y-65573200D01*
X149182200Y-59452100D02*
X149182200Y-65403200D01*
X151574300Y-57060000D02*
X149182200Y-59452100D01*
X152239500Y-57060000D02*
X151574300Y-57060000D01*
%TO.N,/I2C_PINOUT4/SDA*%
X152239500Y-63560000D02*
X152239500Y-64675300D01*
%TO.N,/I2C_PINOUT4/SCL*%
X153234900Y-62910000D02*
X153501700Y-63176800D01*
X152239500Y-62910000D02*
X153234900Y-62910000D01*
%TO.N,/US_SCL*%
X142549800Y-62514800D02*
X142549800Y-97747400D01*
X135890000Y-55855000D02*
X142549800Y-62514800D01*
X102964700Y-98216600D02*
X102242700Y-98216600D01*
X104492300Y-96689000D02*
X102964700Y-98216600D01*
%TO.N,/US_SDA*%
X133350000Y-55855000D02*
X133350000Y-57006700D01*
X132479300Y-57877400D02*
X133350000Y-57006700D01*
X132479300Y-63934400D02*
X132479300Y-57877400D01*
X133205700Y-64660800D02*
X132479300Y-63934400D01*
X133205700Y-64967000D02*
X133205700Y-64660800D01*
X134249500Y-66010800D02*
X133205700Y-64967000D01*
X134249500Y-100330000D02*
X134249500Y-66010800D01*
X105158500Y-100314300D02*
X106437300Y-101593100D01*
X105158500Y-96454100D02*
X105158500Y-100314300D01*
X104791300Y-96086900D02*
X105158500Y-96454100D01*
X104202400Y-96086900D02*
X104791300Y-96086900D01*
X103322700Y-96966600D02*
X104202400Y-96086900D01*
X103322700Y-97142800D02*
X103322700Y-96966600D01*
X102898900Y-97566600D02*
X103322700Y-97142800D01*
X102242700Y-97566600D02*
X102898900Y-97566600D01*
%TO.N,/I2C_PINOUT11/SDA*%
X108623900Y-98866600D02*
X107967700Y-98866600D01*
X109863700Y-100106400D02*
X108623900Y-98866600D01*
X109863700Y-105079300D02*
X109863700Y-100106400D01*
X109060300Y-105882700D02*
X109863700Y-105079300D01*
%TO.N,/GPIO5*%
X113030000Y-81280000D02*
X113030000Y-82431700D01*
X112718800Y-82431700D02*
X113030000Y-82431700D01*
X110219100Y-84931400D02*
X112718800Y-82431700D01*
X110219100Y-93912600D02*
X110219100Y-84931400D01*
X109866600Y-94265100D02*
X110219100Y-93912600D01*
X109347200Y-94265100D02*
X109866600Y-94265100D01*
X108645700Y-94966600D02*
X109347200Y-94265100D01*
X107967700Y-94966600D02*
X108645700Y-94966600D01*
%TO.N,/I2C_PINOUT8/SCL*%
X96037000Y-73660000D02*
X96037000Y-74811700D01*
X100659200Y-100816600D02*
X102242700Y-100816600D01*
X98545100Y-98702500D02*
X100659200Y-100816600D01*
X98545100Y-77319800D02*
X98545100Y-98702500D01*
X96037000Y-74811700D02*
X98545100Y-77319800D01*
%TO.N,/SENSOR_SCL*%
X99348500Y-95687100D02*
X99562400Y-95473200D01*
X99348500Y-97869500D02*
X99348500Y-95687100D01*
X99496300Y-98017300D02*
X99348500Y-97869500D01*
X99496300Y-98517700D02*
X99496300Y-98017300D01*
X99848900Y-98870300D02*
X99496300Y-98517700D01*
X100352700Y-98870300D02*
X99848900Y-98870300D01*
X101049300Y-98173700D02*
X100352700Y-98870300D01*
X101049300Y-97453800D02*
X101049300Y-98173700D01*
X101586500Y-96916600D02*
X101049300Y-97453800D01*
X102242700Y-96916600D02*
X101586500Y-96916600D01*
X133591700Y-75003600D02*
X133591700Y-95251500D01*
X132312200Y-73724100D02*
X133591700Y-75003600D01*
X132312200Y-64388500D02*
X132312200Y-73724100D01*
X132026100Y-64102400D02*
X132312200Y-64388500D01*
X132026100Y-54590300D02*
X132026100Y-64102400D01*
%TO.N,/I2C_PINOUT8/SDA*%
X96037000Y-71120000D02*
X96037000Y-72271700D01*
X101586500Y-100166600D02*
X102242700Y-100166600D01*
X100691900Y-99272000D02*
X101586500Y-100166600D01*
X99682600Y-99272000D02*
X100691900Y-99272000D01*
X99094600Y-98684000D02*
X99682600Y-99272000D01*
X99094600Y-98183600D02*
X99094600Y-98684000D01*
X98946800Y-98035800D02*
X99094600Y-98183600D01*
X98946800Y-74441400D02*
X98946800Y-98035800D01*
X96777100Y-72271700D02*
X98946800Y-74441400D01*
X96037000Y-72271700D02*
X96777100Y-72271700D01*
%TO.N,/I2C_PINOUT9/SCL*%
X106103200Y-99671400D02*
X106103200Y-90127800D01*
X107248400Y-100816600D02*
X106103200Y-99671400D01*
X107967700Y-100816600D02*
X107248400Y-100816600D01*
%TO.N,/OLED_SDA*%
X105415300Y-102536300D02*
X105817000Y-102938000D01*
X105415300Y-101948600D02*
X105415300Y-102536300D01*
X104016500Y-100549800D02*
X105415300Y-101948600D01*
X104016500Y-99981800D02*
X104016500Y-100549800D01*
X102901300Y-98866600D02*
X104016500Y-99981800D01*
X102242700Y-98866600D02*
X102901300Y-98866600D01*
%TO.N,/I2C_PINOUT10/SDA*%
X104418200Y-97613900D02*
X104480500Y-97551600D01*
X104418200Y-100383500D02*
X104418200Y-97613900D01*
X105817000Y-101782300D02*
X104418200Y-100383500D01*
X105817000Y-101856100D02*
X105817000Y-101782300D01*
X106204000Y-102243100D02*
X105817000Y-101856100D01*
X108544300Y-102243100D02*
X106204000Y-102243100D01*
X109060300Y-101727100D02*
X108544300Y-102243100D01*
X109060300Y-100523600D02*
X109060300Y-101727100D01*
X108703300Y-100166600D02*
X109060300Y-100523600D01*
X107967700Y-100166600D02*
X108703300Y-100166600D01*
%TO.N,/GPIO6*%
X113030000Y-83820000D02*
X113030000Y-84680800D01*
X109083100Y-95616600D02*
X107967700Y-95616600D01*
X111475100Y-93224600D02*
X109083100Y-95616600D01*
X111475100Y-86235700D02*
X111475100Y-93224600D01*
X113030000Y-84680800D02*
X111475100Y-86235700D01*
%TO.N,/I2C_PINOUT10/SCL*%
X101548100Y-107613600D02*
X101877200Y-107942700D01*
X101548100Y-102782300D02*
X101548100Y-107613600D01*
X108681700Y-99516600D02*
X107967700Y-99516600D01*
X109462000Y-100296900D02*
X108681700Y-99516600D01*
X109462000Y-104340800D02*
X109462000Y-100296900D01*
X106707100Y-107095700D02*
X109462000Y-104340800D01*
%TO.N,/I2C_PINOUT12/SDA*%
X107950000Y-109220000D02*
X107950000Y-108068300D01*
X108673600Y-97566600D02*
X107967700Y-97566600D01*
X110667100Y-99560100D02*
X108673600Y-97566600D01*
X110667100Y-106334300D02*
X110667100Y-99560100D01*
X108933100Y-108068300D02*
X110667100Y-106334300D01*
X107950000Y-108068300D02*
X108933100Y-108068300D01*
%TO.N,/I2C_PINOUT9/SDA*%
X105701500Y-91094400D02*
X100083400Y-85476300D01*
X105701500Y-99903000D02*
X105701500Y-91094400D01*
X107265100Y-101466600D02*
X105701500Y-99903000D01*
X107967700Y-101466600D02*
X107265100Y-101466600D01*
%TO.N,/I2C_PINOUT12/SCL*%
X110490000Y-109220000D02*
X110490000Y-108068300D01*
X108661600Y-96916600D02*
X107967700Y-96916600D01*
X111068800Y-99323800D02*
X108661600Y-96916600D01*
X111068800Y-107489500D02*
X111068800Y-99323800D01*
X110490000Y-108068300D02*
X111068800Y-107489500D01*
%TO.N,/I2C_PINOUT11/SCL*%
X108702500Y-98216600D02*
X107967700Y-98216600D01*
X110265400Y-99779500D02*
X108702500Y-98216600D01*
X110265400Y-105882800D02*
X110265400Y-99779500D01*
X109827000Y-106321200D02*
X110265400Y-105882800D01*
%TO.N,/SENSOR_SDA*%
X111876800Y-94021100D02*
X111670800Y-94227100D01*
X111876800Y-88389100D02*
X111876800Y-94021100D01*
X112637400Y-87628500D02*
X111876800Y-88389100D01*
X113409600Y-87628500D02*
X112637400Y-87628500D01*
X117117900Y-83920200D02*
X113409600Y-87628500D01*
X117117900Y-51844000D02*
X117117900Y-83920200D01*
X103161900Y-96266600D02*
X104578700Y-94849800D01*
X102242700Y-96266600D02*
X103161900Y-96266600D01*
%TO.N,/OLED_SCL*%
X104238800Y-101340100D02*
X104238800Y-110631500D01*
X103614800Y-100716100D02*
X104238800Y-101340100D01*
X103614800Y-100191400D02*
X103614800Y-100716100D01*
X102940000Y-99516600D02*
X103614800Y-100191400D01*
X102242700Y-99516600D02*
X102940000Y-99516600D01*
%TO.N,Net-(U2-~{RESET})*%
X147756100Y-57704600D02*
X147756100Y-57704500D01*
X146519900Y-57704600D02*
X147756100Y-57704600D01*
X146514500Y-57710000D02*
X146519900Y-57704600D01*
%TO.N,Net-(JP8-B)*%
X143468200Y-58782100D02*
X143468200Y-64576600D01*
X145840300Y-56410000D02*
X143468200Y-58782100D01*
X146514500Y-56410000D02*
X145840300Y-56410000D01*
%TO.N,Net-(JP7-B)*%
X145268500Y-57582800D02*
X145268500Y-61297100D01*
X145791300Y-57060000D02*
X145268500Y-57582800D01*
X146514500Y-57060000D02*
X145791300Y-57060000D01*
%TO.N,Net-(U1-~{RESET})*%
X102939400Y-95616600D02*
X102242700Y-95616600D01*
X104343600Y-94212400D02*
X102939400Y-95616600D01*
X104343600Y-90729700D02*
X104343600Y-94212400D01*
%TO.N,Net-(JP3-A)*%
X107967700Y-96266600D02*
X106725400Y-96266600D01*
X106725400Y-96266600D02*
X106725400Y-93386400D01*
X106705000Y-96287000D02*
X106705000Y-98806000D01*
X106725400Y-96266600D02*
X106705000Y-96287000D01*
%TO.N,Net-(JP4-B)*%
X101572600Y-94966600D02*
X101170600Y-94564600D01*
X102242700Y-94966600D02*
X101572600Y-94966600D01*
X101170600Y-94564600D02*
X101170600Y-91690100D01*
X101170500Y-96422400D02*
X100449100Y-97143800D01*
X101170500Y-94564600D02*
X101170500Y-96422400D01*
X101170600Y-94564600D02*
X101170500Y-94564600D01*
%TO.N,Net-(JP5-B)*%
X102242700Y-88501100D02*
X101533900Y-87792300D01*
X102242700Y-94316600D02*
X102242700Y-88501100D01*
X100194700Y-89131500D02*
X101533900Y-87792300D01*
X100194700Y-95928300D02*
X100194700Y-89131500D01*
X99842200Y-96280800D02*
X100194700Y-95928300D01*
X99842200Y-97582100D02*
X99842200Y-96280800D01*
X100099000Y-97838900D02*
X99842200Y-97582100D01*
X100099000Y-98267500D02*
X100099000Y-97838900D01*
%TO.N,Net-(JP6-A)*%
X153518100Y-58360000D02*
X153518100Y-58360100D01*
X152239500Y-58360000D02*
X153518100Y-58360000D01*
%TO.N,Net-(U4-SS)*%
X134382000Y-59460200D02*
X134382000Y-62525000D01*
X133275300Y-58353500D02*
X134382000Y-59460200D01*
%TO.N,Net-(12V1-A)*%
X115217000Y-52743800D02*
X114499800Y-52026600D01*
X115217000Y-53848000D02*
X115217000Y-52743800D01*
%TO.N,Net-(U5-ILM)*%
X102393000Y-71471000D02*
X100991300Y-71471000D01*
X100350700Y-70830400D02*
X100350700Y-64893000D01*
X100991300Y-71471000D02*
X100350700Y-70830400D01*
%TO.N,Net-(D1-A)*%
X106019600Y-81610600D02*
X106019600Y-80558900D01*
X134872700Y-64965700D02*
X134872700Y-72012300D01*
X134382000Y-64475000D02*
X134872700Y-64965700D01*
X110925100Y-75653400D02*
X110925100Y-69919000D01*
X106019600Y-80558900D02*
X110925100Y-75653400D01*
%TO.N,Net-(D1-K)*%
X108143000Y-68931000D02*
X109544700Y-68931000D01*
X109544700Y-68440700D02*
X109268200Y-68164200D01*
X109544700Y-68931000D02*
X109544700Y-68440700D01*
%TO.N,Net-(U5-EN{slash}UVLO)*%
X108143000Y-70201000D02*
X109544700Y-70201000D01*
X109544700Y-69780500D02*
X109544700Y-70201000D01*
X109981300Y-69343900D02*
X109544700Y-69780500D01*
X109981300Y-67981100D02*
X109981300Y-69343900D01*
X109109900Y-67109700D02*
X109981300Y-67981100D01*
%TO.N,Net-(U4-COMP)*%
X131152000Y-61455000D02*
X131152000Y-60844800D01*
X130082000Y-62525000D02*
X131152000Y-61455000D01*
%TO.N,Net-(U4-FB)*%
X131910500Y-64713200D02*
X131910500Y-75921900D01*
X131624400Y-64427100D02*
X131910500Y-64713200D01*
X131624400Y-63930700D02*
X131624400Y-64427100D01*
X130868700Y-63175000D02*
X131624400Y-63930700D01*
X130082000Y-63175000D02*
X130868700Y-63175000D01*
%TO.N,GND*%
X105894600Y-73587700D02*
X106741300Y-72741000D01*
X105268000Y-73587700D02*
X105894600Y-73587700D01*
X105268000Y-70836000D02*
X105268000Y-73587700D01*
X107681300Y-72741000D02*
X106741300Y-72741000D01*
X107681300Y-72741000D02*
X108143000Y-72741000D01*
X108143000Y-72741000D02*
X109544700Y-72741000D01*
X140970000Y-50800000D02*
X140970000Y-55855000D01*
X120650000Y-99090000D02*
X120650000Y-100241700D01*
X146050000Y-73660000D02*
X146050000Y-72508300D01*
X102870000Y-109220000D02*
X102870000Y-108068300D01*
X158750000Y-109609700D02*
X156972000Y-107831700D01*
X158750000Y-121920000D02*
X158750000Y-109609700D01*
X156972000Y-106680000D02*
X156972000Y-107831700D01*
X130810000Y-74879300D02*
X129540000Y-74879300D01*
X129540000Y-76200000D02*
X129540000Y-74879300D01*
X129540000Y-77520700D02*
X128270000Y-77520700D01*
X129540000Y-86360000D02*
X129540000Y-77520700D01*
X129540000Y-77520700D02*
X129540000Y-76200000D01*
X128270000Y-76200000D02*
X128270000Y-76860300D01*
X128270000Y-76860300D02*
X128270000Y-77520700D01*
X127609600Y-77520700D02*
X127000000Y-77520700D01*
X128270000Y-76860300D02*
X127609600Y-77520700D01*
X127000000Y-76200000D02*
X127000000Y-77520700D01*
X130810000Y-76200000D02*
X130810000Y-75539600D01*
X130810000Y-75539600D02*
X130810000Y-74879300D01*
X102242700Y-107441000D02*
X102870000Y-108068300D01*
X102242700Y-101466600D02*
X102242700Y-107441000D01*
X101705100Y-109233200D02*
X100330000Y-109233200D01*
X102870000Y-108068300D02*
X101705100Y-109233200D01*
X100330000Y-109233200D02*
X100330000Y-121920000D01*
X96037000Y-104140000D02*
X96037000Y-105291700D01*
X162052000Y-81280000D02*
X162052000Y-82431700D01*
X162052000Y-93404100D02*
X162052000Y-92828300D01*
X162052000Y-93404100D02*
X162052000Y-93980000D01*
X162052000Y-93980000D02*
X162052000Y-95131700D01*
X162052000Y-106680000D02*
X162052000Y-105528300D01*
X158750000Y-64414200D02*
X158750000Y-53340000D01*
X161764100Y-67428300D02*
X158750000Y-64414200D01*
X162052000Y-67428300D02*
X161764100Y-67428300D01*
X162052000Y-68580000D02*
X162052000Y-69731700D01*
X162052000Y-82431700D02*
X163214500Y-82431700D01*
X162052000Y-68580000D02*
X162052000Y-67428300D01*
X112417000Y-60252200D02*
X111683800Y-60985400D01*
X112417000Y-53848000D02*
X112417000Y-60252200D01*
X108827300Y-118261300D02*
X109120000Y-118261300D01*
X108200000Y-118888600D02*
X108827300Y-118261300D01*
X108200000Y-118978300D02*
X108200000Y-118888600D01*
X116840000Y-120280000D02*
X116840000Y-119629100D01*
X116840000Y-119629100D02*
X116840000Y-118978300D01*
X116196500Y-120364700D02*
X115920000Y-120364700D01*
X116840000Y-119721200D02*
X116196500Y-120364700D01*
X116840000Y-119629100D02*
X116840000Y-119721200D01*
X116840000Y-124460000D02*
X116840000Y-120280000D01*
X108200000Y-120134800D02*
X108200000Y-118978300D01*
X108200000Y-124460000D02*
X108200000Y-120280000D01*
X108200000Y-120280000D02*
X108200000Y-120134800D01*
X109120000Y-119313000D02*
X109120000Y-118787100D01*
X109120000Y-118787100D02*
X109120000Y-118261300D01*
X109420000Y-119087100D02*
X109420000Y-119313000D01*
X109120000Y-118787100D02*
X109420000Y-119087100D01*
X115920000Y-119313000D02*
X115920000Y-119824000D01*
X115920000Y-119824000D02*
X115920000Y-120364700D01*
X115620000Y-119524000D02*
X115620000Y-119313000D01*
X115920000Y-119824000D02*
X115620000Y-119524000D01*
X96037000Y-105291700D02*
X97188700Y-105291700D01*
X97188700Y-106091900D02*
X97188700Y-105291700D01*
X100330000Y-109233200D02*
X97188700Y-106091900D01*
X96037000Y-92015800D02*
X96037000Y-92591700D01*
X96037000Y-92015800D02*
X96037000Y-91440000D01*
X96037000Y-91440000D02*
X96037000Y-90288300D01*
X96037000Y-78740000D02*
X96037000Y-79891700D01*
X96305500Y-79891700D02*
X96037000Y-79891700D01*
X97189500Y-80775700D02*
X96305500Y-79891700D01*
X97189500Y-87548300D02*
X97189500Y-80775700D01*
X96984800Y-87753000D02*
X97189500Y-87548300D01*
X96984800Y-89340500D02*
X96984800Y-87753000D01*
X96037000Y-90288300D02*
X96984800Y-89340500D01*
X110367100Y-71918600D02*
X109544700Y-72741000D01*
X110367100Y-70311700D02*
X110367100Y-71918600D01*
X110223400Y-70168000D02*
X110367100Y-70311700D01*
X110223400Y-69669800D02*
X110223400Y-70168000D01*
X111683800Y-68209400D02*
X110223400Y-69669800D01*
X111683800Y-60985400D02*
X111683800Y-68209400D01*
X131416400Y-74933200D02*
X130810000Y-75539600D01*
X131416400Y-67620000D02*
X131416400Y-74933200D01*
X130082000Y-66285600D02*
X131416400Y-67620000D01*
X130082000Y-64475000D02*
X130082000Y-66285600D01*
X105268000Y-78503300D02*
X102574700Y-81196600D01*
X105268000Y-73587700D02*
X105268000Y-78503300D01*
X127000000Y-76200000D02*
X127000000Y-74879300D01*
X126125500Y-75509900D02*
X126125500Y-76332700D01*
X126756100Y-74879300D02*
X126125500Y-75509900D01*
X127000000Y-74879300D02*
X126756100Y-74879300D01*
X120362100Y-100241700D02*
X120650000Y-100241700D01*
X118908500Y-101695300D02*
X120362100Y-100241700D01*
X118908500Y-116909800D02*
X118908500Y-101695300D01*
X116840000Y-118978300D02*
X118908500Y-116909800D01*
X163616200Y-96695900D02*
X162052000Y-95131700D01*
X163616200Y-104232600D02*
X163616200Y-96695900D01*
X162320500Y-105528300D02*
X163616200Y-104232600D01*
X162052000Y-105528300D02*
X162320500Y-105528300D01*
X129035700Y-64475000D02*
X130082000Y-64475000D01*
X128481700Y-63921000D02*
X129035700Y-64475000D01*
X124281700Y-63431200D02*
X124281700Y-62646000D01*
X124992900Y-64142400D02*
X124281700Y-63431200D01*
X128260300Y-64142400D02*
X124992900Y-64142400D01*
X128481700Y-63921000D02*
X128260300Y-64142400D01*
X127380000Y-63146000D02*
X128481700Y-63146000D01*
X116248700Y-114031500D02*
X116248700Y-114300000D01*
X117140500Y-113139700D02*
X116248700Y-114031500D01*
X118105500Y-113139700D02*
X117140500Y-113139700D01*
X118788700Y-113822900D02*
X118105500Y-113139700D01*
X118788700Y-115092600D02*
X118788700Y-113822900D01*
X115620000Y-118261300D02*
X118788700Y-115092600D01*
X115620000Y-119313000D02*
X115620000Y-118261300D01*
X115097000Y-114300000D02*
X116248700Y-114300000D01*
X96305500Y-92591700D02*
X96037000Y-92591700D01*
X97590400Y-93876600D02*
X96305500Y-92591700D01*
X97590400Y-104890000D02*
X97590400Y-93876600D01*
X97188700Y-105291700D02*
X97590400Y-104890000D01*
X128481700Y-63921000D02*
X128481700Y-63146000D01*
X124281700Y-62644500D02*
X124280200Y-62646000D01*
X124281700Y-57239700D02*
X124281700Y-62644500D01*
X121870000Y-54828000D02*
X124281700Y-57239700D01*
X123180000Y-62646000D02*
X124280200Y-62646000D01*
X124280200Y-62646000D02*
X124281700Y-62646000D01*
X163214500Y-70894200D02*
X163214500Y-82431700D01*
X162052000Y-69731700D02*
X163214500Y-70894200D01*
X162320500Y-92828300D02*
X162052000Y-92828300D01*
X164017900Y-91130900D02*
X162320500Y-92828300D01*
X164017900Y-83455100D02*
X164017900Y-91130900D01*
X163214500Y-82651700D02*
X164017900Y-83455100D01*
X163214500Y-82431700D02*
X163214500Y-82651700D01*
X146337900Y-72508300D02*
X146050000Y-72508300D01*
X147241100Y-71605100D02*
X146337900Y-72508300D01*
X147241100Y-66302100D02*
X147241100Y-71605100D01*
X146514500Y-65575500D02*
X147241100Y-66302100D01*
X146514500Y-63560000D02*
X146514500Y-65575500D01*
%TD*%
M02*
