%TF.GenerationSoftware,KiCad,Pcbnew,8.0.7*%
%TF.CreationDate,2025-01-26T15:44:36-05:00*%
%TF.ProjectId,shadow,73686164-6f77-42e6-9b69-6361645f7063,rev?*%
%TF.SameCoordinates,Original*%
%TF.FileFunction,Paste,Top*%
%TF.FilePolarity,Positive*%
%FSLAX46Y46*%
G04 Gerber Fmt 4.6, Leading zero omitted, Abs format (unit mm)*
G04 Created by KiCad (PCBNEW 8.0.7) date 2025-01-26 15:44:36*
%MOMM*%
%LPD*%
G01*
G04 APERTURE LIST*
G04 Aperture macros list*
%AMRoundRect*
0 Rectangle with rounded corners*
0 $1 Rounding radius*
0 $2 $3 $4 $5 $6 $7 $8 $9 X,Y pos of 4 corners*
0 Add a 4 corners polygon primitive as box body*
4,1,4,$2,$3,$4,$5,$6,$7,$8,$9,$2,$3,0*
0 Add four circle primitives for the rounded corners*
1,1,$1+$1,$2,$3*
1,1,$1+$1,$4,$5*
1,1,$1+$1,$6,$7*
1,1,$1+$1,$8,$9*
0 Add four rect primitives between the rounded corners*
20,1,$1+$1,$2,$3,$4,$5,0*
20,1,$1+$1,$4,$5,$6,$7,0*
20,1,$1+$1,$6,$7,$8,$9,0*
20,1,$1+$1,$8,$9,$2,$3,0*%
G04 Aperture macros list end*
%ADD10C,0.000000*%
%ADD11C,0.010000*%
%ADD12RoundRect,0.250000X-0.312500X-0.625000X0.312500X-0.625000X0.312500X0.625000X-0.312500X0.625000X0*%
%ADD13RoundRect,0.250000X-0.625000X0.375000X-0.625000X-0.375000X0.625000X-0.375000X0.625000X0.375000X0*%
%ADD14RoundRect,0.250000X-0.375000X-0.625000X0.375000X-0.625000X0.375000X0.625000X-0.375000X0.625000X0*%
%ADD15RoundRect,0.250000X-0.325000X-0.650000X0.325000X-0.650000X0.325000X0.650000X-0.325000X0.650000X0*%
%ADD16RoundRect,0.250000X0.625000X-0.312500X0.625000X0.312500X-0.625000X0.312500X-0.625000X-0.312500X0*%
%ADD17RoundRect,0.250000X-0.650000X0.325000X-0.650000X-0.325000X0.650000X-0.325000X0.650000X0.325000X0*%
%ADD18R,0.300000X1.500000*%
%ADD19R,2.200000X1.500000*%
%ADD20RoundRect,0.250000X0.325000X0.650000X-0.325000X0.650000X-0.325000X-0.650000X0.325000X-0.650000X0*%
%ADD21O,0.574000X2.038000*%
%ADD22R,2.000000X2.000000*%
%ADD23RoundRect,0.100000X-0.637500X-0.100000X0.637500X-0.100000X0.637500X0.100000X-0.637500X0.100000X0*%
%ADD24R,1.570000X1.880000*%
%ADD25RoundRect,0.250000X-0.625000X0.312500X-0.625000X-0.312500X0.625000X-0.312500X0.625000X0.312500X0*%
%ADD26RoundRect,0.250000X0.312500X0.625000X-0.312500X0.625000X-0.312500X-0.625000X0.312500X-0.625000X0*%
%ADD27RoundRect,0.250000X0.650000X-0.325000X0.650000X0.325000X-0.650000X0.325000X-0.650000X-0.325000X0*%
%ADD28RoundRect,0.060000X-0.180000X0.675000X-0.180000X-0.675000X0.180000X-0.675000X0.180000X0.675000X0*%
G04 APERTURE END LIST*
D10*
%TO.C,J1*%
G36*
X109569500Y-120063000D02*
G01*
X108969500Y-120063000D01*
X108969500Y-118563000D01*
X109569500Y-118563000D01*
X109569500Y-120063000D01*
G37*
G36*
X110370000Y-120063000D02*
G01*
X109770000Y-120063000D01*
X109770000Y-118563000D01*
X110370000Y-118563000D01*
X110370000Y-120063000D01*
G37*
G36*
X110920000Y-120062000D02*
G01*
X110620000Y-120062000D01*
X110620000Y-118562000D01*
X110920000Y-118562000D01*
X110920000Y-120062000D01*
G37*
G36*
X111420000Y-120063000D02*
G01*
X111120000Y-120063000D01*
X111120000Y-118563000D01*
X111420000Y-118563000D01*
X111420000Y-120063000D01*
G37*
G36*
X111920000Y-120063000D02*
G01*
X111620000Y-120063000D01*
X111620000Y-118563000D01*
X111920000Y-118563000D01*
X111920000Y-120063000D01*
G37*
G36*
X112420000Y-120063000D02*
G01*
X112120000Y-120063000D01*
X112120000Y-118563000D01*
X112420000Y-118563000D01*
X112420000Y-120063000D01*
G37*
G36*
X112920000Y-120063000D02*
G01*
X112620000Y-120063000D01*
X112620000Y-118563000D01*
X112920000Y-118563000D01*
X112920000Y-120063000D01*
G37*
G36*
X113420000Y-120063000D02*
G01*
X113120000Y-120063000D01*
X113120000Y-118563000D01*
X113420000Y-118563000D01*
X113420000Y-120063000D01*
G37*
G36*
X113919500Y-120062000D02*
G01*
X113619500Y-120062000D01*
X113619500Y-118562000D01*
X113919500Y-118562000D01*
X113919500Y-120062000D01*
G37*
G36*
X114420000Y-120063000D02*
G01*
X114120000Y-120063000D01*
X114120000Y-118563000D01*
X114420000Y-118563000D01*
X114420000Y-120063000D01*
G37*
G36*
X115270000Y-120062500D02*
G01*
X114670000Y-120062500D01*
X114670000Y-118562500D01*
X115270000Y-118562500D01*
X115270000Y-120062500D01*
G37*
G36*
X116070000Y-120063000D02*
G01*
X115470000Y-120063000D01*
X115470000Y-118563000D01*
X116070000Y-118563000D01*
X116070000Y-120063000D01*
G37*
G36*
X108241000Y-119281500D02*
G01*
X108268500Y-119284500D01*
X108295500Y-119288500D01*
X108322500Y-119294000D01*
X108349000Y-119300500D01*
X108375000Y-119308500D01*
X108401000Y-119318000D01*
X108426000Y-119328500D01*
X108451000Y-119340500D01*
X108475000Y-119353500D01*
X108498500Y-119368000D01*
X108521000Y-119383500D01*
X108543000Y-119400000D01*
X108564000Y-119417500D01*
X108584000Y-119436500D01*
X108603000Y-119456000D01*
X108621500Y-119476500D01*
X108638500Y-119498000D01*
X108654500Y-119520000D01*
X108669500Y-119543500D01*
X108683000Y-119567000D01*
X108695500Y-119591500D01*
X108707000Y-119616500D01*
X108717000Y-119642000D01*
X108725500Y-119668000D01*
X108733000Y-119694500D01*
X108739000Y-119721000D01*
X108744000Y-119748000D01*
X108747000Y-119775500D01*
X108749500Y-119802500D01*
X108750000Y-119830000D01*
X108750000Y-120730000D01*
X108749500Y-120757500D01*
X108747000Y-120785000D01*
X108744000Y-120812000D01*
X108739000Y-120839000D01*
X108733000Y-120866000D01*
X108725500Y-120892000D01*
X108717000Y-120918000D01*
X108707000Y-120943500D01*
X108695500Y-120968500D01*
X108683000Y-120993000D01*
X108669500Y-121017000D01*
X108654500Y-121040000D01*
X108638500Y-121062000D01*
X108621500Y-121083500D01*
X108603000Y-121104000D01*
X108584000Y-121124000D01*
X108564000Y-121142500D01*
X108543000Y-121160000D01*
X108521000Y-121176500D01*
X108498500Y-121192000D01*
X108475000Y-121206500D01*
X108451000Y-121219500D01*
X108426000Y-121231500D01*
X108401000Y-121242000D01*
X108375000Y-121251500D01*
X108349000Y-121259500D01*
X108322500Y-121266500D01*
X108295500Y-121272000D01*
X108268500Y-121276000D01*
X108241000Y-121278500D01*
X108213500Y-121280000D01*
X108186500Y-121280000D01*
X108159000Y-121278500D01*
X108131500Y-121276000D01*
X108104500Y-121272000D01*
X108077500Y-121266500D01*
X108051000Y-121259500D01*
X108025000Y-121251500D01*
X107999000Y-121242000D01*
X107974000Y-121231500D01*
X107949000Y-121219500D01*
X107925000Y-121206500D01*
X107901500Y-121192000D01*
X107879000Y-121176500D01*
X107857000Y-121160000D01*
X107836000Y-121142500D01*
X107816000Y-121124000D01*
X107797000Y-121104000D01*
X107778500Y-121083500D01*
X107761500Y-121062000D01*
X107745500Y-121040000D01*
X107730500Y-121017000D01*
X107717000Y-120993000D01*
X107704500Y-120968500D01*
X107693000Y-120943500D01*
X107683000Y-120918000D01*
X107674500Y-120892000D01*
X107667000Y-120866000D01*
X107661000Y-120839000D01*
X107656000Y-120812000D01*
X107652500Y-120785000D01*
X107650500Y-120757500D01*
X107650000Y-120730000D01*
X107650000Y-119830000D01*
X107650500Y-119802500D01*
X107652500Y-119775500D01*
X107656000Y-119748000D01*
X107661000Y-119721000D01*
X107667000Y-119694500D01*
X107674500Y-119668000D01*
X107683000Y-119642000D01*
X107693000Y-119616500D01*
X107704500Y-119591500D01*
X107717000Y-119567000D01*
X107730500Y-119543500D01*
X107745500Y-119520000D01*
X107761500Y-119498000D01*
X107778500Y-119476500D01*
X107797000Y-119456000D01*
X107816000Y-119436500D01*
X107836000Y-119417500D01*
X107857000Y-119400000D01*
X107879000Y-119383500D01*
X107901500Y-119368000D01*
X107925000Y-119353500D01*
X107949000Y-119340500D01*
X107974000Y-119328500D01*
X107999000Y-119318000D01*
X108025000Y-119308500D01*
X108051000Y-119300500D01*
X108077500Y-119294000D01*
X108104500Y-119288500D01*
X108131500Y-119284500D01*
X108159000Y-119281500D01*
X108186500Y-119280000D01*
X108213500Y-119280000D01*
X108241000Y-119281500D01*
G37*
G36*
X108241000Y-123561500D02*
G01*
X108268500Y-123564500D01*
X108295500Y-123568500D01*
X108322500Y-123574000D01*
X108349000Y-123580500D01*
X108375000Y-123589000D01*
X108401000Y-123598000D01*
X108426000Y-123609000D01*
X108451000Y-123620500D01*
X108475000Y-123634000D01*
X108498500Y-123648000D01*
X108521000Y-123663500D01*
X108543000Y-123680000D01*
X108564000Y-123698000D01*
X108584000Y-123716500D01*
X108603000Y-123736000D01*
X108621500Y-123756500D01*
X108638500Y-123778000D01*
X108654500Y-123800500D01*
X108669500Y-123823500D01*
X108683000Y-123847000D01*
X108695500Y-123871500D01*
X108707000Y-123896500D01*
X108717000Y-123922000D01*
X108725500Y-123948000D01*
X108733000Y-123974500D01*
X108739000Y-124001000D01*
X108744000Y-124028000D01*
X108747000Y-124055500D01*
X108749500Y-124083000D01*
X108750000Y-124110000D01*
X108750000Y-124810000D01*
X108749500Y-124837500D01*
X108747000Y-124865000D01*
X108744000Y-124892000D01*
X108739000Y-124919000D01*
X108733000Y-124946000D01*
X108725500Y-124972500D01*
X108717000Y-124998500D01*
X108707000Y-125024000D01*
X108695500Y-125049000D01*
X108683000Y-125073000D01*
X108669500Y-125097000D01*
X108654500Y-125120000D01*
X108638500Y-125142500D01*
X108621500Y-125163500D01*
X108603000Y-125184500D01*
X108584000Y-125204000D01*
X108564000Y-125222500D01*
X108543000Y-125240000D01*
X108521000Y-125257000D01*
X108498500Y-125272000D01*
X108475000Y-125286500D01*
X108451000Y-125299500D01*
X108426000Y-125311500D01*
X108401000Y-125322000D01*
X108375000Y-125331500D01*
X108349000Y-125339500D01*
X108322500Y-125346500D01*
X108295500Y-125352000D01*
X108268500Y-125356000D01*
X108241000Y-125358500D01*
X108213500Y-125360000D01*
X108186500Y-125360000D01*
X108159000Y-125358500D01*
X108131500Y-125356000D01*
X108104500Y-125352000D01*
X108077500Y-125346500D01*
X108051000Y-125339500D01*
X108025000Y-125331500D01*
X107999000Y-125322000D01*
X107974000Y-125311500D01*
X107949000Y-125299500D01*
X107925000Y-125286500D01*
X107901500Y-125272000D01*
X107879000Y-125257000D01*
X107857000Y-125240000D01*
X107836000Y-125222500D01*
X107816000Y-125204000D01*
X107797000Y-125184500D01*
X107778500Y-125163500D01*
X107761500Y-125142500D01*
X107745500Y-125120000D01*
X107730500Y-125097000D01*
X107717000Y-125073000D01*
X107704500Y-125049000D01*
X107693000Y-125024000D01*
X107683000Y-124998500D01*
X107674500Y-124972500D01*
X107667000Y-124946000D01*
X107661000Y-124919000D01*
X107656000Y-124892000D01*
X107652500Y-124865000D01*
X107650500Y-124837500D01*
X107650000Y-124810000D01*
X107650000Y-124110000D01*
X107650500Y-124083000D01*
X107652500Y-124055500D01*
X107656000Y-124028000D01*
X107661000Y-124001000D01*
X107667000Y-123974500D01*
X107674500Y-123948000D01*
X107683000Y-123922000D01*
X107693000Y-123896500D01*
X107704500Y-123871500D01*
X107717000Y-123847000D01*
X107730500Y-123823500D01*
X107745500Y-123800500D01*
X107761500Y-123778000D01*
X107778500Y-123756500D01*
X107797000Y-123736000D01*
X107816000Y-123716500D01*
X107836000Y-123698000D01*
X107857000Y-123680000D01*
X107879000Y-123663500D01*
X107901500Y-123648000D01*
X107925000Y-123634000D01*
X107949000Y-123620500D01*
X107974000Y-123609000D01*
X107999000Y-123598000D01*
X108025000Y-123589000D01*
X108051000Y-123580500D01*
X108077500Y-123574000D01*
X108104500Y-123568500D01*
X108131500Y-123564500D01*
X108159000Y-123561500D01*
X108186500Y-123560500D01*
X108213500Y-123560500D01*
X108241000Y-123561500D01*
G37*
G36*
X116881000Y-119281500D02*
G01*
X116908500Y-119284500D01*
X116935500Y-119288500D01*
X116962500Y-119294000D01*
X116989000Y-119300500D01*
X117015000Y-119308500D01*
X117041000Y-119318000D01*
X117066000Y-119328500D01*
X117091000Y-119340500D01*
X117115000Y-119353500D01*
X117138500Y-119368000D01*
X117161000Y-119383500D01*
X117183000Y-119400000D01*
X117204000Y-119417500D01*
X117224000Y-119436500D01*
X117243000Y-119456000D01*
X117261500Y-119476500D01*
X117278500Y-119498000D01*
X117294500Y-119520000D01*
X117309500Y-119543500D01*
X117323000Y-119567000D01*
X117335500Y-119591500D01*
X117347000Y-119616500D01*
X117357000Y-119642000D01*
X117365500Y-119668000D01*
X117373000Y-119694500D01*
X117379000Y-119721000D01*
X117384000Y-119748000D01*
X117387500Y-119775500D01*
X117389500Y-119802500D01*
X117390000Y-119830000D01*
X117390000Y-120730000D01*
X117389500Y-120757500D01*
X117387500Y-120785000D01*
X117384000Y-120812000D01*
X117379000Y-120839000D01*
X117373000Y-120866000D01*
X117365500Y-120892000D01*
X117357000Y-120918000D01*
X117347000Y-120943500D01*
X117335500Y-120968500D01*
X117323000Y-120993000D01*
X117309500Y-121017000D01*
X117294500Y-121040000D01*
X117278500Y-121062000D01*
X117261500Y-121083500D01*
X117243000Y-121104000D01*
X117224000Y-121124000D01*
X117204000Y-121142500D01*
X117183000Y-121160000D01*
X117161000Y-121176500D01*
X117138500Y-121192000D01*
X117115000Y-121206500D01*
X117091000Y-121219500D01*
X117066000Y-121231500D01*
X117041000Y-121242000D01*
X117015000Y-121251500D01*
X116989000Y-121259500D01*
X116962500Y-121266500D01*
X116935500Y-121272000D01*
X116908500Y-121276000D01*
X116881000Y-121278500D01*
X116853500Y-121280000D01*
X116826500Y-121280000D01*
X116799000Y-121278500D01*
X116771500Y-121276000D01*
X116744500Y-121272000D01*
X116717500Y-121266500D01*
X116691000Y-121259500D01*
X116665000Y-121251500D01*
X116639000Y-121242000D01*
X116614000Y-121231500D01*
X116589000Y-121219500D01*
X116565000Y-121206500D01*
X116541500Y-121192000D01*
X116519000Y-121176500D01*
X116497000Y-121160000D01*
X116476000Y-121142500D01*
X116456000Y-121124000D01*
X116437000Y-121104000D01*
X116418500Y-121083500D01*
X116401500Y-121062000D01*
X116385500Y-121040000D01*
X116370500Y-121017000D01*
X116357000Y-120993000D01*
X116344500Y-120968500D01*
X116333000Y-120943500D01*
X116323000Y-120918000D01*
X116314500Y-120892000D01*
X116307000Y-120866000D01*
X116301000Y-120839000D01*
X116296000Y-120812000D01*
X116293000Y-120785000D01*
X116290500Y-120757500D01*
X116290000Y-120730000D01*
X116290000Y-119830000D01*
X116290500Y-119802500D01*
X116293000Y-119775500D01*
X116296000Y-119748000D01*
X116301000Y-119721000D01*
X116307000Y-119694500D01*
X116314500Y-119668000D01*
X116323000Y-119642000D01*
X116333000Y-119616500D01*
X116344500Y-119591500D01*
X116357000Y-119567000D01*
X116370500Y-119543500D01*
X116385500Y-119520000D01*
X116401500Y-119498000D01*
X116418500Y-119476500D01*
X116437000Y-119456000D01*
X116456000Y-119436500D01*
X116476000Y-119417500D01*
X116497000Y-119400000D01*
X116519000Y-119383500D01*
X116541500Y-119368000D01*
X116565000Y-119353500D01*
X116589000Y-119340500D01*
X116614000Y-119328500D01*
X116639000Y-119318000D01*
X116665000Y-119308500D01*
X116691000Y-119300500D01*
X116717500Y-119294000D01*
X116744500Y-119288500D01*
X116771500Y-119284500D01*
X116799000Y-119281500D01*
X116826500Y-119280000D01*
X116853500Y-119280000D01*
X116881000Y-119281500D01*
G37*
G36*
X116881000Y-123561500D02*
G01*
X116908500Y-123564500D01*
X116935500Y-123568500D01*
X116962500Y-123574000D01*
X116989000Y-123580500D01*
X117015000Y-123589000D01*
X117041000Y-123598000D01*
X117066000Y-123609000D01*
X117091000Y-123620500D01*
X117115000Y-123634000D01*
X117138500Y-123648000D01*
X117161000Y-123663500D01*
X117183000Y-123680000D01*
X117204000Y-123698000D01*
X117224000Y-123716500D01*
X117243000Y-123736000D01*
X117261500Y-123756500D01*
X117278500Y-123778000D01*
X117294500Y-123800500D01*
X117309500Y-123823500D01*
X117323000Y-123847000D01*
X117335500Y-123871500D01*
X117347000Y-123896500D01*
X117357000Y-123922000D01*
X117365500Y-123948000D01*
X117373000Y-123974500D01*
X117379000Y-124001000D01*
X117384000Y-124028000D01*
X117387500Y-124055500D01*
X117389500Y-124083000D01*
X117390000Y-124110000D01*
X117390000Y-124810000D01*
X117389500Y-124837500D01*
X117387500Y-124865000D01*
X117384000Y-124892000D01*
X117379000Y-124919000D01*
X117373000Y-124946000D01*
X117365500Y-124972500D01*
X117357000Y-124998500D01*
X117347000Y-125024000D01*
X117335500Y-125049000D01*
X117323000Y-125073000D01*
X117309500Y-125097000D01*
X117294500Y-125120000D01*
X117278500Y-125142500D01*
X117261500Y-125163500D01*
X117243000Y-125184500D01*
X117224000Y-125204000D01*
X117204000Y-125222500D01*
X117183000Y-125240000D01*
X117161000Y-125257000D01*
X117138500Y-125272000D01*
X117115000Y-125286500D01*
X117091000Y-125299500D01*
X117066000Y-125311500D01*
X117041000Y-125322000D01*
X117015000Y-125331500D01*
X116989000Y-125339500D01*
X116962500Y-125346500D01*
X116935500Y-125352000D01*
X116908500Y-125356000D01*
X116881000Y-125358500D01*
X116853500Y-125360000D01*
X116826500Y-125360000D01*
X116799000Y-125358500D01*
X116771500Y-125356000D01*
X116744500Y-125352000D01*
X116717500Y-125346500D01*
X116691000Y-125339500D01*
X116665000Y-125331500D01*
X116639000Y-125322000D01*
X116614000Y-125311500D01*
X116589000Y-125299500D01*
X116565000Y-125286500D01*
X116541500Y-125272000D01*
X116519000Y-125257000D01*
X116497000Y-125240000D01*
X116476000Y-125222500D01*
X116456000Y-125204000D01*
X116437000Y-125184500D01*
X116418500Y-125163500D01*
X116401500Y-125142500D01*
X116385500Y-125120000D01*
X116370500Y-125097000D01*
X116357000Y-125073000D01*
X116344500Y-125049000D01*
X116333000Y-125024000D01*
X116323000Y-124998500D01*
X116314500Y-124972500D01*
X116307000Y-124946000D01*
X116301000Y-124919000D01*
X116296000Y-124892000D01*
X116293000Y-124865000D01*
X116290500Y-124837500D01*
X116290000Y-124810000D01*
X116290000Y-124110000D01*
X116290500Y-124083000D01*
X116293000Y-124055500D01*
X116296000Y-124028000D01*
X116301000Y-124001000D01*
X116307000Y-123974500D01*
X116314500Y-123948000D01*
X116323000Y-123922000D01*
X116333000Y-123896500D01*
X116344500Y-123871500D01*
X116357000Y-123847000D01*
X116370500Y-123823500D01*
X116385500Y-123800500D01*
X116401500Y-123778000D01*
X116418500Y-123756500D01*
X116437000Y-123736000D01*
X116456000Y-123716500D01*
X116476000Y-123698000D01*
X116497000Y-123680000D01*
X116519000Y-123663500D01*
X116541500Y-123648000D01*
X116565000Y-123634000D01*
X116589000Y-123620500D01*
X116614000Y-123609000D01*
X116639000Y-123598000D01*
X116665000Y-123589000D01*
X116691000Y-123580500D01*
X116717500Y-123574000D01*
X116744500Y-123568500D01*
X116771500Y-123564500D01*
X116799000Y-123561500D01*
X116826500Y-123560500D01*
X116853500Y-123560500D01*
X116881000Y-123561500D01*
G37*
D11*
%TO.C,U3*%
X124925000Y-61625000D02*
X123375000Y-61625000D01*
X123375000Y-61375000D01*
X124925000Y-61375000D01*
X124925000Y-61625000D01*
G36*
X124925000Y-61625000D02*
G01*
X123375000Y-61625000D01*
X123375000Y-61375000D01*
X124925000Y-61375000D01*
X124925000Y-61625000D01*
G37*
X124925000Y-62125000D02*
X123375000Y-62125000D01*
X123375000Y-61875000D01*
X124925000Y-61875000D01*
X124925000Y-62125000D01*
G36*
X124925000Y-62125000D02*
G01*
X123375000Y-62125000D01*
X123375000Y-61875000D01*
X124925000Y-61875000D01*
X124925000Y-62125000D01*
G37*
X124925000Y-62625000D02*
X123375000Y-62625000D01*
X123375000Y-62375000D01*
X124925000Y-62375000D01*
X124925000Y-62625000D01*
G36*
X124925000Y-62625000D02*
G01*
X123375000Y-62625000D01*
X123375000Y-62375000D01*
X124925000Y-62375000D01*
X124925000Y-62625000D01*
G37*
X124925000Y-63125000D02*
X123375000Y-63125000D01*
X123375000Y-62875000D01*
X124925000Y-62875000D01*
X124925000Y-63125000D01*
G36*
X124925000Y-63125000D02*
G01*
X123375000Y-63125000D01*
X123375000Y-62875000D01*
X124925000Y-62875000D01*
X124925000Y-63125000D01*
G37*
X124925000Y-63625000D02*
X123375000Y-63625000D01*
X123375000Y-63375000D01*
X124925000Y-63375000D01*
X124925000Y-63625000D01*
G36*
X124925000Y-63625000D02*
G01*
X123375000Y-63625000D01*
X123375000Y-63375000D01*
X124925000Y-63375000D01*
X124925000Y-63625000D01*
G37*
X129125000Y-61625000D02*
X127575000Y-61625000D01*
X127575000Y-61375000D01*
X129125000Y-61375000D01*
X129125000Y-61625000D01*
G36*
X129125000Y-61625000D02*
G01*
X127575000Y-61625000D01*
X127575000Y-61375000D01*
X129125000Y-61375000D01*
X129125000Y-61625000D01*
G37*
X129125000Y-62125000D02*
X127575000Y-62125000D01*
X127575000Y-61875000D01*
X129125000Y-61875000D01*
X129125000Y-62125000D01*
G36*
X129125000Y-62125000D02*
G01*
X127575000Y-62125000D01*
X127575000Y-61875000D01*
X129125000Y-61875000D01*
X129125000Y-62125000D01*
G37*
X129125000Y-62625000D02*
X127575000Y-62625000D01*
X127575000Y-62375000D01*
X129125000Y-62375000D01*
X129125000Y-62625000D01*
G36*
X129125000Y-62625000D02*
G01*
X127575000Y-62625000D01*
X127575000Y-62375000D01*
X129125000Y-62375000D01*
X129125000Y-62625000D01*
G37*
X129125000Y-63125000D02*
X127575000Y-63125000D01*
X127575000Y-62875000D01*
X129125000Y-62875000D01*
X129125000Y-63125000D01*
G36*
X129125000Y-63125000D02*
G01*
X127575000Y-63125000D01*
X127575000Y-62875000D01*
X129125000Y-62875000D01*
X129125000Y-63125000D01*
G37*
X129125000Y-63625000D02*
X127575000Y-63625000D01*
X127575000Y-63375000D01*
X129125000Y-63375000D01*
X129125000Y-63625000D01*
G36*
X129125000Y-63625000D02*
G01*
X127575000Y-63625000D01*
X127575000Y-63375000D01*
X129125000Y-63375000D01*
X129125000Y-63625000D01*
G37*
%TO.C,U5*%
X103750000Y-74820000D02*
X101600000Y-74820000D01*
X101600000Y-74370000D01*
X103750000Y-74370000D01*
X103750000Y-74820000D01*
G36*
X103750000Y-74820000D02*
G01*
X101600000Y-74820000D01*
X101600000Y-74370000D01*
X103750000Y-74370000D01*
X103750000Y-74820000D01*
G37*
X103750000Y-76090000D02*
X101600000Y-76090000D01*
X101600000Y-75640000D01*
X103750000Y-75640000D01*
X103750000Y-76090000D01*
G36*
X103750000Y-76090000D02*
G01*
X101600000Y-76090000D01*
X101600000Y-75640000D01*
X103750000Y-75640000D01*
X103750000Y-76090000D01*
G37*
X103750000Y-77360000D02*
X101600000Y-77360000D01*
X101600000Y-76910000D01*
X103750000Y-76910000D01*
X103750000Y-77360000D01*
G36*
X103750000Y-77360000D02*
G01*
X101600000Y-77360000D01*
X101600000Y-76910000D01*
X103750000Y-76910000D01*
X103750000Y-77360000D01*
G37*
X103750000Y-78630000D02*
X101600000Y-78630000D01*
X101600000Y-78180000D01*
X103750000Y-78180000D01*
X103750000Y-78630000D01*
G36*
X103750000Y-78630000D02*
G01*
X101600000Y-78630000D01*
X101600000Y-78180000D01*
X103750000Y-78180000D01*
X103750000Y-78630000D01*
G37*
X106750000Y-78050000D02*
X104350000Y-78050000D01*
X104350000Y-74950000D01*
X106750000Y-74950000D01*
X106750000Y-78050000D01*
G36*
X106750000Y-78050000D02*
G01*
X104350000Y-78050000D01*
X104350000Y-74950000D01*
X106750000Y-74950000D01*
X106750000Y-78050000D01*
G37*
X109500000Y-74820000D02*
X107350000Y-74820000D01*
X107350000Y-74370000D01*
X109500000Y-74370000D01*
X109500000Y-74820000D01*
G36*
X109500000Y-74820000D02*
G01*
X107350000Y-74820000D01*
X107350000Y-74370000D01*
X109500000Y-74370000D01*
X109500000Y-74820000D01*
G37*
X109500000Y-76090000D02*
X107350000Y-76090000D01*
X107350000Y-75640000D01*
X109500000Y-75640000D01*
X109500000Y-76090000D01*
G36*
X109500000Y-76090000D02*
G01*
X107350000Y-76090000D01*
X107350000Y-75640000D01*
X109500000Y-75640000D01*
X109500000Y-76090000D01*
G37*
X109500000Y-77360000D02*
X107350000Y-77360000D01*
X107350000Y-76910000D01*
X109500000Y-76910000D01*
X109500000Y-77360000D01*
G36*
X109500000Y-77360000D02*
G01*
X107350000Y-77360000D01*
X107350000Y-76910000D01*
X109500000Y-76910000D01*
X109500000Y-77360000D01*
G37*
X109500000Y-78630000D02*
X107350000Y-78630000D01*
X107350000Y-78180000D01*
X109500000Y-78180000D01*
X109500000Y-78630000D01*
G36*
X109500000Y-78630000D02*
G01*
X107350000Y-78630000D01*
X107350000Y-78180000D01*
X109500000Y-78180000D01*
X109500000Y-78630000D01*
G37*
%TD*%
D12*
%TO.C,R18*%
X101075000Y-72400000D03*
X104000000Y-72400000D03*
%TD*%
D13*
%TO.C,D2*%
X130000000Y-84000000D03*
X130000000Y-86800000D03*
%TD*%
D14*
%TO.C,PG1*%
X108877000Y-50800000D03*
X111677000Y-50800000D03*
%TD*%
D15*
%TO.C,C4*%
X98700000Y-85750000D03*
X101650000Y-85750000D03*
%TD*%
%TO.C,C15*%
X114725000Y-108700000D03*
X117675000Y-108700000D03*
%TD*%
D16*
%TO.C,R13*%
X97282000Y-63246000D03*
X97282000Y-60321000D03*
%TD*%
D17*
%TO.C,C7*%
X132750000Y-83800000D03*
X132750000Y-86750000D03*
%TD*%
D12*
%TO.C,R2*%
X127529000Y-78994000D03*
X130454000Y-78994000D03*
%TD*%
D18*
%TO.C,J1*%
X109120000Y-119313000D03*
X109920000Y-119313000D03*
X111270000Y-119313000D03*
X112270000Y-119313000D03*
X112770000Y-119313000D03*
X113769500Y-119312000D03*
X115120000Y-119312500D03*
X115920000Y-119313000D03*
X115620000Y-119313000D03*
X114820000Y-119312500D03*
X114270000Y-119313000D03*
X113270000Y-119313000D03*
X111770000Y-119313000D03*
X110770000Y-119312000D03*
X110220000Y-119313000D03*
X109420000Y-119313000D03*
%TD*%
D16*
%TO.C,R33*%
X124206000Y-86806500D03*
X124206000Y-83881500D03*
%TD*%
D19*
%TO.C,L1*%
X106400000Y-86800000D03*
X106400000Y-80400000D03*
%TD*%
D16*
%TO.C,R22*%
X108966000Y-99379500D03*
X108966000Y-96454500D03*
%TD*%
D20*
%TO.C,C12*%
X105410000Y-90170000D03*
X102460000Y-90170000D03*
%TD*%
D21*
%TO.C,IC2*%
X127000000Y-76200000D03*
X128270000Y-76200000D03*
X129540000Y-76200000D03*
X130810000Y-76200000D03*
X130810000Y-70662000D03*
X129540000Y-70662000D03*
X128270000Y-70662000D03*
X127000000Y-70662000D03*
D22*
X128905000Y-73431000D03*
%TD*%
D23*
%TO.C,U2*%
X146514500Y-56410000D03*
X146514500Y-57060000D03*
X146514500Y-57710000D03*
X146514500Y-58360000D03*
X146514500Y-59010000D03*
X146514500Y-59660000D03*
X146514500Y-60310000D03*
X146514500Y-60960000D03*
X146514500Y-61610000D03*
X146514500Y-62260000D03*
X146514500Y-62910000D03*
X146514500Y-63560000D03*
X152239500Y-63560000D03*
X152239500Y-62910000D03*
X152239500Y-62260000D03*
X152239500Y-61610000D03*
X152239500Y-60960000D03*
X152239500Y-60310000D03*
X152239500Y-59660000D03*
X152239500Y-59010000D03*
X152239500Y-58360000D03*
X152239500Y-57710000D03*
X152239500Y-57060000D03*
X152239500Y-56410000D03*
%TD*%
D12*
%TO.C,R21*%
X101534500Y-104521000D03*
X104459500Y-104521000D03*
%TD*%
%TO.C,R15*%
X103400000Y-69700000D03*
X106325000Y-69700000D03*
%TD*%
D13*
%TO.C,D1*%
X133400000Y-71900000D03*
X133400000Y-74700000D03*
%TD*%
D23*
%TO.C,U1*%
X100701000Y-95115000D03*
X100701000Y-95765000D03*
X100701000Y-96415000D03*
X100701000Y-97065000D03*
X100701000Y-97715000D03*
X100701000Y-98365000D03*
X100701000Y-99015000D03*
X100701000Y-99665000D03*
X100701000Y-100315000D03*
X100701000Y-100965000D03*
X100701000Y-101615000D03*
X100701000Y-102265000D03*
X106426000Y-102265000D03*
X106426000Y-101615000D03*
X106426000Y-100965000D03*
X106426000Y-100315000D03*
X106426000Y-99665000D03*
X106426000Y-99015000D03*
X106426000Y-98365000D03*
X106426000Y-97715000D03*
X106426000Y-97065000D03*
X106426000Y-96415000D03*
X106426000Y-95765000D03*
X106426000Y-95115000D03*
%TD*%
D15*
%TO.C,C5*%
X156925000Y-112200000D03*
X159875000Y-112200000D03*
%TD*%
D24*
%TO.C,U3*%
X126250000Y-62500000D03*
%TD*%
D25*
%TO.C,R14*%
X108800000Y-66975000D03*
X108800000Y-69900000D03*
%TD*%
D12*
%TO.C,R8*%
X149375000Y-89600000D03*
X152300000Y-89600000D03*
%TD*%
%TO.C,R28*%
X149575000Y-75500000D03*
X152500000Y-75500000D03*
%TD*%
%TO.C,R25*%
X141300000Y-63400000D03*
X144225000Y-63400000D03*
%TD*%
D25*
%TO.C,R20*%
X100250000Y-89325000D03*
X100250000Y-92250000D03*
%TD*%
D26*
%TO.C,R34*%
X152467500Y-83814000D03*
X149542500Y-83814000D03*
%TD*%
D27*
%TO.C,C10*%
X99400000Y-77900000D03*
X99400000Y-74950000D03*
%TD*%
%TO.C,C9*%
X152400000Y-124075000D03*
X152400000Y-121125000D03*
%TD*%
D12*
%TO.C,R9*%
X149383500Y-91943000D03*
X152308500Y-91943000D03*
%TD*%
D15*
%TO.C,C14*%
X107286000Y-90170000D03*
X110236000Y-90170000D03*
%TD*%
D12*
%TO.C,R6*%
X123975000Y-59100000D03*
X126900000Y-59100000D03*
%TD*%
D26*
%TO.C,R32*%
X152462500Y-81500000D03*
X149537500Y-81500000D03*
%TD*%
D15*
%TO.C,C2*%
X136450000Y-63400000D03*
X139400000Y-63400000D03*
%TD*%
%TO.C,C11*%
X107289600Y-92583000D03*
X110239600Y-92583000D03*
%TD*%
%TO.C,C1*%
X134350000Y-60400000D03*
X137300000Y-60400000D03*
%TD*%
D12*
%TO.C,R10*%
X126400000Y-66900000D03*
X129325000Y-66900000D03*
%TD*%
D26*
%TO.C,R16*%
X135255000Y-78994000D03*
X132330000Y-78994000D03*
%TD*%
D25*
%TO.C,R5*%
X135400000Y-83937500D03*
X135400000Y-86862500D03*
%TD*%
%TO.C,R11*%
X101100000Y-67075000D03*
X101100000Y-70000000D03*
%TD*%
D12*
%TO.C,R24*%
X139375000Y-60400000D03*
X142300000Y-60400000D03*
%TD*%
D13*
%TO.C,12V1*%
X105900000Y-56300000D03*
X105900000Y-59100000D03*
%TD*%
D15*
%TO.C,C6*%
X156945000Y-114736000D03*
X159895000Y-114736000D03*
%TD*%
D26*
%TO.C,R7*%
X122500000Y-65250000D03*
X119575000Y-65250000D03*
%TD*%
D27*
%TO.C,C8*%
X120800000Y-62600000D03*
X120800000Y-59650000D03*
%TD*%
D12*
%TO.C,R1*%
X123567000Y-81407000D03*
X126492000Y-81407000D03*
%TD*%
D28*
%TO.C,U4*%
X133500000Y-63100000D03*
X132850000Y-63100000D03*
X132200000Y-63100000D03*
X131550000Y-63100000D03*
X131550000Y-67400000D03*
X132200000Y-67400000D03*
X132850000Y-67400000D03*
X133500000Y-67400000D03*
%TD*%
D14*
%TO.C,CHG1*%
X116097000Y-50800000D03*
X118897000Y-50800000D03*
%TD*%
D12*
%TO.C,R31*%
X105971000Y-72362000D03*
X108896000Y-72362000D03*
%TD*%
D25*
%TO.C,R3*%
X124000000Y-76037500D03*
X124000000Y-78962500D03*
%TD*%
D12*
%TO.C,R26*%
X148844000Y-53594000D03*
X151769000Y-53594000D03*
%TD*%
D17*
%TO.C,C3*%
X101250000Y-80275000D03*
X101250000Y-83225000D03*
%TD*%
D26*
%TO.C,R23*%
X105410000Y-92583000D03*
X102485000Y-92583000D03*
%TD*%
D25*
%TO.C,R19*%
X127000000Y-83875000D03*
X127000000Y-86800000D03*
%TD*%
D16*
%TO.C,R12*%
X105100000Y-67462500D03*
X105100000Y-64537500D03*
%TD*%
D26*
%TO.C,R4*%
X131900000Y-59400000D03*
X128975000Y-59400000D03*
%TD*%
D12*
%TO.C,R29*%
X143825500Y-53594000D03*
X146750500Y-53594000D03*
%TD*%
%TO.C,R17*%
X99756500Y-61214000D03*
X102681500Y-61214000D03*
%TD*%
%TO.C,R27*%
X149575000Y-77800000D03*
X152500000Y-77800000D03*
%TD*%
M02*
