%TF.GenerationSoftware,KiCad,Pcbnew,8.0.7*%
%TF.CreationDate,2025-01-26T15:44:36-05:00*%
%TF.ProjectId,shadow,73686164-6f77-42e6-9b69-6361645f7063,rev?*%
%TF.SameCoordinates,Original*%
%TF.FileFunction,Soldermask,Bot*%
%TF.FilePolarity,Negative*%
%FSLAX46Y46*%
G04 Gerber Fmt 4.6, Leading zero omitted, Abs format (unit mm)*
G04 Created by KiCad (PCBNEW 8.0.7) date 2025-01-26 15:44:36*
%MOMM*%
%LPD*%
G01*
G04 APERTURE LIST*
G04 Aperture macros list*
%AMRoundRect*
0 Rectangle with rounded corners*
0 $1 Rounding radius*
0 $2 $3 $4 $5 $6 $7 $8 $9 X,Y pos of 4 corners*
0 Add a 4 corners polygon primitive as box body*
4,1,4,$2,$3,$4,$5,$6,$7,$8,$9,$2,$3,0*
0 Add four circle primitives for the rounded corners*
1,1,$1+$1,$2,$3*
1,1,$1+$1,$4,$5*
1,1,$1+$1,$6,$7*
1,1,$1+$1,$8,$9*
0 Add four rect primitives between the rounded corners*
20,1,$1+$1,$2,$3,$4,$5,0*
20,1,$1+$1,$4,$5,$6,$7,0*
20,1,$1+$1,$6,$7,$8,$9,0*
20,1,$1+$1,$8,$9,$2,$3,0*%
G04 Aperture macros list end*
%ADD10R,1.700000X1.700000*%
%ADD11O,1.700000X1.700000*%
%ADD12RoundRect,0.250000X0.600000X0.750000X-0.600000X0.750000X-0.600000X-0.750000X0.600000X-0.750000X0*%
%ADD13O,1.700000X2.000000*%
%ADD14O,1.100000X2.000000*%
%ADD15O,1.100000X1.800000*%
%ADD16C,2.000000*%
%ADD17C,7.500000*%
%ADD18C,1.800000*%
%ADD19R,2.000000X2.000000*%
%ADD20R,1.000000X1.500000*%
G04 APERTURE END LIST*
D10*
%TO.C,I2C7*%
X162052000Y-99060000D03*
D11*
X162052000Y-101600000D03*
X162052000Y-104140000D03*
X162052000Y-106680000D03*
%TD*%
D10*
%TO.C,I2C9*%
X96037000Y-86360000D03*
D11*
X96037000Y-83820000D03*
X96037000Y-81280000D03*
X96037000Y-78740000D03*
%TD*%
D12*
%TO.C,BATT_JST1*%
X128230000Y-115570000D03*
D13*
X125730000Y-115570000D03*
%TD*%
D10*
%TO.C,I2C10*%
X96037000Y-99060000D03*
D11*
X96037000Y-96520000D03*
X96037000Y-93980000D03*
X96037000Y-91440000D03*
%TD*%
D10*
%TO.C,I2C8*%
X96037000Y-73660000D03*
D11*
X96037000Y-71120000D03*
X96037000Y-68580000D03*
X96037000Y-66040000D03*
%TD*%
D14*
%TO.C,J1*%
X108200000Y-120280000D03*
X116840000Y-120280000D03*
D15*
X116840000Y-124460000D03*
X108200000Y-124460000D03*
%TD*%
D10*
%TO.C,I2C0*%
X156972000Y-60960000D03*
D11*
X156972000Y-63500000D03*
X156972000Y-66040000D03*
X156972000Y-68580000D03*
%TD*%
D10*
%TO.C,I2C12*%
X110490000Y-109220000D03*
D11*
X107950000Y-109220000D03*
X105410000Y-109220000D03*
X102870000Y-109220000D03*
%TD*%
D10*
%TO.C,UART1*%
X107950000Y-114300000D03*
D11*
X105410000Y-114300000D03*
X102870000Y-114300000D03*
%TD*%
D10*
%TO.C,I2C2*%
X156972000Y-86360000D03*
D11*
X156972000Y-88900000D03*
X156972000Y-91440000D03*
X156972000Y-93980000D03*
%TD*%
D16*
%TO.C,SW2*%
X146277000Y-112812000D03*
X152777000Y-112812000D03*
X146277000Y-117312000D03*
X152777000Y-117312000D03*
%TD*%
D10*
%TO.C,PICO_R1*%
X138430000Y-68580000D03*
D11*
X138430000Y-71120000D03*
X138430000Y-73660000D03*
X138430000Y-76200000D03*
X138430000Y-78740000D03*
X138430000Y-81280000D03*
X138430000Y-83820000D03*
X138430000Y-86360000D03*
X138430000Y-88900000D03*
X138430000Y-91440000D03*
X138430000Y-93980000D03*
X138430000Y-96520000D03*
X138430000Y-99060000D03*
X138430000Y-101600000D03*
X138430000Y-104140000D03*
%TD*%
D16*
%TO.C,RST_SW1*%
X121870000Y-50328000D03*
X128370000Y-50328000D03*
X121870000Y-54828000D03*
X128370000Y-54828000D03*
%TD*%
D17*
%TO.C,H4*%
X100330000Y-121920000D03*
%TD*%
D10*
%TO.C,OLED_CONN1*%
X112557000Y-114300000D03*
D11*
X115097000Y-114300000D03*
X117637000Y-114300000D03*
X120177000Y-114300000D03*
%TD*%
D17*
%TO.C,H5*%
X158750000Y-121920000D03*
%TD*%
D10*
%TO.C,I2C5*%
X162052000Y-73660000D03*
D11*
X162052000Y-76200000D03*
X162052000Y-78740000D03*
X162052000Y-81280000D03*
%TD*%
D10*
%TO.C,I2C6*%
X162052000Y-86360000D03*
D11*
X162052000Y-88900000D03*
X162052000Y-91440000D03*
X162052000Y-93980000D03*
%TD*%
D10*
%TO.C,MOTOR_CONN1*%
X129057000Y-124460000D03*
D11*
X131597000Y-124460000D03*
%TD*%
D16*
%TO.C,SW1*%
X133427000Y-112812000D03*
X139927000Y-112812000D03*
X133427000Y-117312000D03*
X139927000Y-117312000D03*
%TD*%
D17*
%TO.C,H1*%
X100330000Y-53340000D03*
%TD*%
D10*
%TO.C,US1*%
X133350000Y-55855000D03*
D11*
X135890000Y-55855000D03*
X138430000Y-55855000D03*
X140970000Y-55855000D03*
%TD*%
D18*
%TO.C,SW3*%
X147574000Y-124968000D03*
X145074000Y-124968000D03*
X142574000Y-124968000D03*
X147574000Y-121568000D03*
X145074000Y-121568000D03*
X142574000Y-121568000D03*
%TD*%
D10*
%TO.C,GPIO_L1*%
X113030000Y-68580000D03*
D11*
X113030000Y-71120000D03*
X113030000Y-73660000D03*
X113030000Y-76200000D03*
X113030000Y-78740000D03*
X113030000Y-81280000D03*
X113030000Y-83820000D03*
X113030000Y-86360000D03*
X113030000Y-88900000D03*
X113030000Y-91440000D03*
X113030000Y-93980000D03*
X113030000Y-96520000D03*
X113030000Y-99060000D03*
X113030000Y-101600000D03*
X113030000Y-104140000D03*
%TD*%
D10*
%TO.C,I2C4*%
X162052000Y-60960000D03*
D11*
X162052000Y-63500000D03*
X162052000Y-66040000D03*
X162052000Y-68580000D03*
%TD*%
D10*
%TO.C,I2C1*%
X156997000Y-73660000D03*
D11*
X156997000Y-76200000D03*
X156997000Y-78740000D03*
X156997000Y-81280000D03*
%TD*%
D10*
%TO.C,PICO_L1*%
X120650000Y-68610000D03*
D11*
X120650000Y-71150000D03*
X120650000Y-73690000D03*
X120650000Y-76230000D03*
X120650000Y-78770000D03*
X120650000Y-81310000D03*
X120650000Y-83850000D03*
X120650000Y-86390000D03*
X120650000Y-88930000D03*
X120650000Y-91470000D03*
X120650000Y-94010000D03*
X120650000Y-96550000D03*
X120650000Y-99090000D03*
X120650000Y-101630000D03*
X120650000Y-104170000D03*
%TD*%
D17*
%TO.C,H2*%
X158750000Y-53340000D03*
%TD*%
D10*
%TO.C,I2C11*%
X96037000Y-111760000D03*
D11*
X96037000Y-109220000D03*
X96037000Y-106680000D03*
X96037000Y-104140000D03*
%TD*%
D10*
%TO.C,GPIO_R1*%
X146050000Y-68580000D03*
D11*
X146050000Y-71120000D03*
X146050000Y-73660000D03*
X146050000Y-76200000D03*
X146050000Y-78740000D03*
X146050000Y-81280000D03*
X146050000Y-83820000D03*
X146050000Y-86360000D03*
X146050000Y-88900000D03*
X146050000Y-91440000D03*
X146050000Y-93980000D03*
X146050000Y-96520000D03*
X146050000Y-99060000D03*
X146050000Y-101600000D03*
X146050000Y-104140000D03*
%TD*%
D10*
%TO.C,I2C3*%
X156972000Y-99060000D03*
D11*
X156972000Y-101600000D03*
X156972000Y-104140000D03*
X156972000Y-106680000D03*
%TD*%
D10*
%TO.C,ARR1*%
X133350000Y-50800000D03*
D11*
X135890000Y-50800000D03*
X138430000Y-50800000D03*
X140970000Y-50800000D03*
%TD*%
D19*
%TO.C,C13*%
X111400000Y-60900000D03*
D16*
X116400000Y-60900000D03*
%TD*%
D20*
%TO.C,JP6*%
X149409000Y-59436000D03*
X148109000Y-59436000D03*
%TD*%
%TO.C,JP7*%
X149407000Y-62230000D03*
X148107000Y-62230000D03*
%TD*%
%TO.C,JP3*%
X105226000Y-98806000D03*
X103926000Y-98806000D03*
%TD*%
%TO.C,JP8*%
X149409000Y-65024000D03*
X148109000Y-65024000D03*
%TD*%
%TO.C,JP4*%
X105211000Y-101600000D03*
X103911000Y-101600000D03*
%TD*%
%TO.C,JP5*%
X105211000Y-104394000D03*
X103911000Y-104394000D03*
%TD*%
M02*
