%TF.GenerationSoftware,KiCad,Pcbnew,8.0.7*%
%TF.CreationDate,2025-01-26T02:59:20-05:00*%
%TF.ProjectId,shadow,73686164-6f77-42e6-9b69-6361645f7063,rev?*%
%TF.SameCoordinates,Original*%
%TF.FileFunction,Copper,L2,Bot*%
%TF.FilePolarity,Positive*%
%FSLAX46Y46*%
G04 Gerber Fmt 4.6, Leading zero omitted, Abs format (unit mm)*
G04 Created by KiCad (PCBNEW 8.0.7) date 2025-01-26 02:59:20*
%MOMM*%
%LPD*%
G01*
G04 APERTURE LIST*
G04 Aperture macros list*
%AMRoundRect*
0 Rectangle with rounded corners*
0 $1 Rounding radius*
0 $2 $3 $4 $5 $6 $7 $8 $9 X,Y pos of 4 corners*
0 Add a 4 corners polygon primitive as box body*
4,1,4,$2,$3,$4,$5,$6,$7,$8,$9,$2,$3,0*
0 Add four circle primitives for the rounded corners*
1,1,$1+$1,$2,$3*
1,1,$1+$1,$4,$5*
1,1,$1+$1,$6,$7*
1,1,$1+$1,$8,$9*
0 Add four rect primitives between the rounded corners*
20,1,$1+$1,$2,$3,$4,$5,0*
20,1,$1+$1,$4,$5,$6,$7,0*
20,1,$1+$1,$6,$7,$8,$9,0*
20,1,$1+$1,$8,$9,$2,$3,0*%
G04 Aperture macros list end*
%TA.AperFunction,ComponentPad*%
%ADD10C,1.800000*%
%TD*%
%TA.AperFunction,SMDPad,CuDef*%
%ADD11RoundRect,0.250000X0.325000X0.650000X-0.325000X0.650000X-0.325000X-0.650000X0.325000X-0.650000X0*%
%TD*%
%TA.AperFunction,SMDPad,CuDef*%
%ADD12RoundRect,0.250000X0.312500X0.625000X-0.312500X0.625000X-0.312500X-0.625000X0.312500X-0.625000X0*%
%TD*%
%TA.AperFunction,SMDPad,CuDef*%
%ADD13RoundRect,0.250000X-0.625000X0.312500X-0.625000X-0.312500X0.625000X-0.312500X0.625000X0.312500X0*%
%TD*%
%TA.AperFunction,SMDPad,CuDef*%
%ADD14RoundRect,0.250000X-0.312500X-0.625000X0.312500X-0.625000X0.312500X0.625000X-0.312500X0.625000X0*%
%TD*%
%TA.AperFunction,SMDPad,CuDef*%
%ADD15RoundRect,0.250000X0.625000X-0.312500X0.625000X0.312500X-0.625000X0.312500X-0.625000X-0.312500X0*%
%TD*%
%TA.AperFunction,ComponentPad*%
%ADD16O,1.100000X1.800000*%
%TD*%
%TA.AperFunction,ComponentPad*%
%ADD17O,1.100000X2.000000*%
%TD*%
%TA.AperFunction,ComponentPad*%
%ADD18R,1.700000X1.700000*%
%TD*%
%TA.AperFunction,ComponentPad*%
%ADD19O,1.700000X1.700000*%
%TD*%
%TA.AperFunction,ComponentPad*%
%ADD20RoundRect,0.250000X0.600000X0.750000X-0.600000X0.750000X-0.600000X-0.750000X0.600000X-0.750000X0*%
%TD*%
%TA.AperFunction,ComponentPad*%
%ADD21O,1.700000X2.000000*%
%TD*%
%TA.AperFunction,ComponentPad*%
%ADD22C,2.000000*%
%TD*%
%TA.AperFunction,ComponentPad*%
%ADD23C,7.500000*%
%TD*%
%TA.AperFunction,ComponentPad*%
%ADD24C,0.400000*%
%TD*%
%TA.AperFunction,ComponentPad*%
%ADD25R,2.000000X2.000000*%
%TD*%
%TA.AperFunction,SMDPad,CuDef*%
%ADD26RoundRect,0.250000X-0.375000X-0.625000X0.375000X-0.625000X0.375000X0.625000X-0.375000X0.625000X0*%
%TD*%
%TA.AperFunction,SMDPad,CuDef*%
%ADD27R,1.000000X1.500000*%
%TD*%
%TA.AperFunction,SMDPad,CuDef*%
%ADD28RoundRect,0.250000X-0.325000X-0.650000X0.325000X-0.650000X0.325000X0.650000X-0.325000X0.650000X0*%
%TD*%
%TA.AperFunction,SMDPad,CuDef*%
%ADD29RoundRect,0.250000X0.650000X-0.325000X0.650000X0.325000X-0.650000X0.325000X-0.650000X-0.325000X0*%
%TD*%
%TA.AperFunction,ViaPad*%
%ADD30C,0.600000*%
%TD*%
%TA.AperFunction,Conductor*%
%ADD31C,0.200000*%
%TD*%
G04 APERTURE END LIST*
D10*
%TO.P,SW3,1,1*%
%TO.N,/battery/BAT+*%
X147574000Y-124968000D03*
%TO.P,SW3,2,2*%
%TO.N,unconnected-(SW3-Pad2)*%
X145074000Y-124968000D03*
%TO.P,SW3,3,3*%
%TO.N,unconnected-(SW3-Pad3)*%
X142574000Y-124968000D03*
%TO.P,SW3,4,4*%
%TO.N,Net-(U4-EN)*%
X147574000Y-121568000D03*
%TO.P,SW3,5,5*%
%TO.N,unconnected-(SW3-Pad5)*%
X145074000Y-121568000D03*
%TO.P,SW3,6,6*%
%TO.N,unconnected-(SW3-Pad6)*%
X142574000Y-121568000D03*
%TD*%
D11*
%TO.P,C15,2*%
%TO.N,GND*%
X133858000Y-65532000D03*
%TO.P,C15,1*%
%TO.N,VCC*%
X136808000Y-65532000D03*
%TD*%
%TO.P,C14,1*%
%TO.N,VCC*%
X110646000Y-88138000D03*
%TO.P,C14,2*%
%TO.N,GND*%
X107696000Y-88138000D03*
%TD*%
D12*
%TO.P,R34,2*%
%TO.N,/GPIO9*%
X150429500Y-76200000D03*
%TO.P,R34,1*%
%TO.N,Net-(R28-Pad2)*%
X153354500Y-76200000D03*
%TD*%
D13*
%TO.P,R33,1*%
%TO.N,Net-(R19-Pad2)*%
X109220000Y-82165000D03*
%TO.P,R33,2*%
%TO.N,/GPIO6*%
X109220000Y-85090000D03*
%TD*%
D12*
%TO.P,R32,2*%
%TO.N,/GPIO8*%
X150424500Y-78364000D03*
%TO.P,R32,1*%
%TO.N,Net-(R27-Pad2)*%
X153349500Y-78364000D03*
%TD*%
D14*
%TO.P,R31,1*%
%TO.N,Net-(R18-Pad2)*%
X106934000Y-73660000D03*
%TO.P,R31,2*%
%TO.N,/GPIO5*%
X109859000Y-73660000D03*
%TD*%
D12*
%TO.P,R29,1*%
%TO.N,GND*%
X151261000Y-53594000D03*
%TO.P,R29,2*%
%TO.N,Net-(JP6-A)*%
X148336000Y-53594000D03*
%TD*%
%TO.P,R28,1*%
%TO.N,VCC*%
X153293000Y-70104000D03*
%TO.P,R28,2*%
%TO.N,Net-(R28-Pad2)*%
X150368000Y-70104000D03*
%TD*%
%TO.P,R27,1*%
%TO.N,VCC*%
X153268000Y-72263000D03*
%TO.P,R27,2*%
%TO.N,Net-(R27-Pad2)*%
X150343000Y-72263000D03*
%TD*%
%TO.P,R26,1*%
%TO.N,VCC*%
X146242500Y-53594000D03*
%TO.P,R26,2*%
%TO.N,Net-(U2-~{RESET})*%
X143317500Y-53594000D03*
%TD*%
%TO.P,R25,1*%
%TO.N,GND*%
X142625000Y-65786000D03*
%TO.P,R25,2*%
%TO.N,Net-(JP8-B)*%
X139700000Y-65786000D03*
%TD*%
%TO.P,R24,1*%
%TO.N,GND*%
X142371000Y-60706000D03*
%TO.P,R24,2*%
%TO.N,Net-(JP7-B)*%
X139446000Y-60706000D03*
%TD*%
%TO.P,R23,1*%
%TO.N,VCC*%
X110621000Y-91948000D03*
%TO.P,R23,2*%
%TO.N,Net-(U1-~{RESET})*%
X107696000Y-91948000D03*
%TD*%
D14*
%TO.P,R22,1*%
%TO.N,GND*%
X102362000Y-91948000D03*
%TO.P,R22,2*%
%TO.N,Net-(JP3-A)*%
X105287000Y-91948000D03*
%TD*%
D13*
%TO.P,R21,1*%
%TO.N,GND*%
X99060000Y-87753000D03*
%TO.P,R21,2*%
%TO.N,Net-(JP4-B)*%
X99060000Y-90678000D03*
%TD*%
D12*
%TO.P,R20,1*%
%TO.N,GND*%
X105541000Y-88138000D03*
%TO.P,R20,2*%
%TO.N,Net-(JP5-B)*%
X102616000Y-88138000D03*
%TD*%
D13*
%TO.P,R19,1*%
%TO.N,VCC*%
X109220000Y-77216000D03*
%TO.P,R19,2*%
%TO.N,Net-(R19-Pad2)*%
X109220000Y-80141000D03*
%TD*%
D14*
%TO.P,R18,1*%
%TO.N,VCC*%
X100838000Y-74422000D03*
%TO.P,R18,2*%
%TO.N,Net-(R18-Pad2)*%
X103763000Y-74422000D03*
%TD*%
D12*
%TO.P,R17,1*%
%TO.N,Net-(R13-Pad2)*%
X104343100Y-60071000D03*
%TO.P,R17,2*%
%TO.N,Net-(U5-ILM)*%
X101418100Y-60071000D03*
%TD*%
D14*
%TO.P,R16,1*%
%TO.N,Net-(R1-Pad2)*%
X132842000Y-78232000D03*
%TO.P,R16,2*%
%TO.N,Net-(D1-K)*%
X135767000Y-78232000D03*
%TD*%
D12*
%TO.P,R15,1*%
%TO.N,GND*%
X118495000Y-51816000D03*
%TO.P,R15,2*%
%TO.N,Net-(12V1-A)*%
X115570000Y-51816000D03*
%TD*%
%TO.P,R14,1*%
%TO.N,Net-(12V1-A)*%
X112145000Y-52070000D03*
%TO.P,R14,2*%
%TO.N,VCC*%
X109220000Y-52070000D03*
%TD*%
D15*
%TO.P,R13,1*%
%TO.N,GND*%
X97282000Y-63246000D03*
%TO.P,R13,2*%
%TO.N,Net-(R13-Pad2)*%
X97282000Y-60321000D03*
%TD*%
%TO.P,R12,1*%
%TO.N,GND*%
X101854000Y-67818000D03*
%TO.P,R12,2*%
%TO.N,Net-(U5-ILM)*%
X101854000Y-64893000D03*
%TD*%
D13*
%TO.P,R11,1*%
%TO.N,GND*%
X110490000Y-64385000D03*
%TO.P,R11,2*%
%TO.N,Net-(U5-EN{slash}UVLO)*%
X110490000Y-67310000D03*
%TD*%
D12*
%TO.P,R4,1*%
%TO.N,Net-(C1-Pad1)*%
X137037000Y-61468000D03*
%TO.P,R4,2*%
%TO.N,Net-(U4-COMP)*%
X134112000Y-61468000D03*
%TD*%
%TO.P,R3,1*%
%TO.N,GND*%
X125607000Y-78486000D03*
%TO.P,R3,2*%
%TO.N,Net-(U4-FB)*%
X122682000Y-78486000D03*
%TD*%
D14*
%TO.P,R2,1*%
%TO.N,Net-(U4-FB)*%
X127594500Y-78105000D03*
%TO.P,R2,2*%
%TO.N,Net-(D1-K)*%
X130519500Y-78105000D03*
%TD*%
%TO.P,R1,1*%
%TO.N,Net-(U4-FB)*%
X123190000Y-82550000D03*
%TO.P,R1,2*%
%TO.N,Net-(R1-Pad2)*%
X126115000Y-82550000D03*
%TD*%
D16*
%TO.P,J1,4,4*%
%TO.N,GND*%
X108200000Y-124460000D03*
%TO.P,J1,3,3*%
X116840000Y-124460000D03*
D17*
%TO.P,J1,2,2*%
X116840000Y-120280000D03*
%TO.P,J1,1,1*%
X108200000Y-120280000D03*
%TD*%
D18*
%TO.P,I2C_PINOUT7,1,Pin_1*%
%TO.N,/I2C_PINOUT7/SCL*%
X162052000Y-99060000D03*
D19*
%TO.P,I2C_PINOUT7,2,Pin_2*%
%TO.N,/I2C_PINOUT7/SDA*%
X162052000Y-101600000D03*
%TO.P,I2C_PINOUT7,3,Pin_3*%
%TO.N,VCC*%
X162052000Y-104140000D03*
%TO.P,I2C_PINOUT7,4,Pin_4*%
%TO.N,GND*%
X162052000Y-106680000D03*
%TD*%
D18*
%TO.P,I2C_PINOUT9,1,Pin_1*%
%TO.N,/I2C_PINOUT9/SCL*%
X96037000Y-86360000D03*
D19*
%TO.P,I2C_PINOUT9,2,Pin_2*%
%TO.N,/I2C_PINOUT9/SDA*%
X96037000Y-83820000D03*
%TO.P,I2C_PINOUT9,3,Pin_3*%
%TO.N,VCC*%
X96037000Y-81280000D03*
%TO.P,I2C_PINOUT9,4,Pin_4*%
%TO.N,GND*%
X96037000Y-78740000D03*
%TD*%
D20*
%TO.P,BATT_JST1,1,Pin_1*%
%TO.N,/battery/BAT+*%
X128230000Y-115570000D03*
D21*
%TO.P,BATT_JST1,2,Pin_2*%
%TO.N,/battery/BAT-*%
X125730000Y-115570000D03*
%TD*%
D18*
%TO.P,I2C_PINOUT10,1,Pin_1*%
%TO.N,/I2C_PINOUT10/SCL*%
X96037000Y-99060000D03*
D19*
%TO.P,I2C_PINOUT10,2,Pin_2*%
%TO.N,/I2C_PINOUT10/SDA*%
X96037000Y-96520000D03*
%TO.P,I2C_PINOUT10,3,Pin_3*%
%TO.N,VCC*%
X96037000Y-93980000D03*
%TO.P,I2C_PINOUT10,4,Pin_4*%
%TO.N,GND*%
X96037000Y-91440000D03*
%TD*%
D18*
%TO.P,I2C_PINOUT8,1,Pin_1*%
%TO.N,/I2C_PINOUT8/SCL*%
X96037000Y-73660000D03*
D19*
%TO.P,I2C_PINOUT8,2,Pin_2*%
%TO.N,/I2C_PINOUT8/SDA*%
X96037000Y-71120000D03*
%TO.P,I2C_PINOUT8,3,Pin_3*%
%TO.N,VCC*%
X96037000Y-68580000D03*
%TO.P,I2C_PINOUT8,4,Pin_4*%
%TO.N,GND*%
X96037000Y-66040000D03*
%TD*%
D18*
%TO.P,I2C_PINOUT0,1,Pin_1*%
%TO.N,/I2C_PINOUT/SCL*%
X156972000Y-60960000D03*
D19*
%TO.P,I2C_PINOUT0,2,Pin_2*%
%TO.N,/I2C_PINOUT/SDA*%
X156972000Y-63500000D03*
%TO.P,I2C_PINOUT0,3,Pin_3*%
%TO.N,VCC*%
X156972000Y-66040000D03*
%TO.P,I2C_PINOUT0,4,Pin_4*%
%TO.N,GND*%
X156972000Y-68580000D03*
%TD*%
D18*
%TO.P,I2C_PINOUT12,1,Pin_1*%
%TO.N,/I2C_PINOUT12/SCL*%
X110490000Y-109220000D03*
D19*
%TO.P,I2C_PINOUT12,2,Pin_2*%
%TO.N,/I2C_PINOUT12/SDA*%
X107950000Y-109220000D03*
%TO.P,I2C_PINOUT12,3,Pin_3*%
%TO.N,VCC*%
X105410000Y-109220000D03*
%TO.P,I2C_PINOUT12,4,Pin_4*%
%TO.N,GND*%
X102870000Y-109220000D03*
%TD*%
D18*
%TO.P,UART1,1,Pin_1*%
%TO.N,/GPIO2*%
X107950000Y-114300000D03*
D19*
%TO.P,UART1,2,Pin_2*%
%TO.N,/GPIO1*%
X105410000Y-114300000D03*
%TO.P,UART1,3,Pin_3*%
%TO.N,/GPIO0*%
X102870000Y-114300000D03*
%TD*%
D18*
%TO.P,I2C_PINOUT2,1,Pin_1*%
%TO.N,/I2C_PINOUT2/SCL*%
X156972000Y-86360000D03*
D19*
%TO.P,I2C_PINOUT2,2,Pin_2*%
%TO.N,/I2C_PINOUT2/SDA*%
X156972000Y-88900000D03*
%TO.P,I2C_PINOUT2,3,Pin_3*%
%TO.N,VCC*%
X156972000Y-91440000D03*
%TO.P,I2C_PINOUT2,4,Pin_4*%
%TO.N,GND*%
X156972000Y-93980000D03*
%TD*%
D22*
%TO.P,SW2,1,1*%
%TO.N,/GPIO24*%
X146277000Y-112812000D03*
X152777000Y-112812000D03*
%TO.P,SW2,2,2*%
%TO.N,GND*%
X146277000Y-117312000D03*
X152777000Y-117312000D03*
%TD*%
D18*
%TO.P,PICO_R1,1,Pin_1*%
%TO.N,/GPIO15*%
X138430000Y-68580000D03*
D19*
%TO.P,PICO_R1,2,Pin_2*%
%TO.N,VCC*%
X138430000Y-71120000D03*
%TO.P,PICO_R1,3,Pin_3*%
%TO.N,GND*%
X138430000Y-73660000D03*
%TO.P,PICO_R1,4,Pin_4*%
%TO.N,/GPIO18*%
X138430000Y-76200000D03*
%TO.P,PICO_R1,5,Pin_5*%
%TO.N,/GPIO19*%
X138430000Y-78740000D03*
%TO.P,PICO_R1,6,Pin_6*%
%TO.N,/GPIO20*%
X138430000Y-81280000D03*
%TO.P,PICO_R1,7,Pin_7*%
%TO.N,/GPIO21*%
X138430000Y-83820000D03*
%TO.P,PICO_R1,8,Pin_8*%
%TO.N,/GPIO22*%
X138430000Y-86360000D03*
%TO.P,PICO_R1,9,Pin_9*%
%TO.N,/GPIO23*%
X138430000Y-88900000D03*
%TO.P,PICO_R1,10,Pin_10*%
%TO.N,/GPIO24*%
X138430000Y-91440000D03*
%TO.P,PICO_R1,11,Pin_11*%
%TO.N,/GPIO25*%
X138430000Y-93980000D03*
%TO.P,PICO_R1,12,Pin_12*%
%TO.N,/GPIO26*%
X138430000Y-96520000D03*
%TO.P,PICO_R1,13,Pin_13*%
%TO.N,/GPIO27*%
X138430000Y-99060000D03*
%TO.P,PICO_R1,14,Pin_14*%
%TO.N,/GPIO28*%
X138430000Y-101600000D03*
%TO.P,PICO_R1,15,Pin_15*%
%TO.N,/GPIO29*%
X138430000Y-104140000D03*
%TD*%
D22*
%TO.P,RST_SW1,1,1*%
%TO.N,/GPIO20*%
X121870000Y-50328000D03*
X128370000Y-50328000D03*
%TO.P,RST_SW1,2,2*%
%TO.N,GND*%
X121870000Y-54828000D03*
X128370000Y-54828000D03*
%TD*%
D23*
%TO.P,H4,1,1*%
%TO.N,GND*%
X100330000Y-121920000D03*
%TD*%
D18*
%TO.P,OLED_CONN1,1,Pin_1*%
%TO.N,VCC*%
X112557000Y-114300000D03*
D19*
%TO.P,OLED_CONN1,2,Pin_2*%
%TO.N,GND*%
X115097000Y-114300000D03*
%TO.P,OLED_CONN1,3,Pin_3*%
%TO.N,/OLED_SCL*%
X117637000Y-114300000D03*
%TO.P,OLED_CONN1,4,Pin_4*%
%TO.N,/OLED_SDA*%
X120177000Y-114300000D03*
%TD*%
D23*
%TO.P,H5,1,1*%
%TO.N,GND*%
X158750000Y-121920000D03*
%TD*%
D18*
%TO.P,I2C_PINOUT5,1,Pin_1*%
%TO.N,/I2C_PINOUT5/SCL*%
X162052000Y-73660000D03*
D19*
%TO.P,I2C_PINOUT5,2,Pin_2*%
%TO.N,/I2C_PINOUT5/SDA*%
X162052000Y-76200000D03*
%TO.P,I2C_PINOUT5,3,Pin_3*%
%TO.N,VCC*%
X162052000Y-78740000D03*
%TO.P,I2C_PINOUT5,4,Pin_4*%
%TO.N,GND*%
X162052000Y-81280000D03*
%TD*%
D18*
%TO.P,I2C_PINOUT6,1,Pin_1*%
%TO.N,/I2C_PINOUT6/SCL*%
X162052000Y-86360000D03*
D19*
%TO.P,I2C_PINOUT6,2,Pin_2*%
%TO.N,/I2C_PINOUT6/SDA*%
X162052000Y-88900000D03*
%TO.P,I2C_PINOUT6,3,Pin_3*%
%TO.N,VCC*%
X162052000Y-91440000D03*
%TO.P,I2C_PINOUT6,4,Pin_4*%
%TO.N,GND*%
X162052000Y-93980000D03*
%TD*%
D24*
%TO.P,U3,12*%
%TO.N,N/C*%
X124830000Y-62046000D03*
%TO.P,U3,13*%
X125730000Y-62046000D03*
%TO.P,U3,14*%
X125280000Y-62646000D03*
%TO.P,U3,15*%
X124830000Y-63246000D03*
%TO.P,U3,16*%
X125730000Y-63246000D03*
%TD*%
%TO.P,U5,10*%
%TO.N,N/C*%
X105918000Y-72136000D03*
%TO.P,U5,11*%
X104618000Y-72136000D03*
%TO.P,U5,12*%
X105918000Y-70836000D03*
%TO.P,U5,13*%
X104618000Y-70836000D03*
%TO.P,U5,14*%
X105918000Y-69536000D03*
%TO.P,U5,15*%
X104618000Y-69536000D03*
%TD*%
D18*
%TO.P,MOTOR_CONN1,1,Pin_1*%
%TO.N,/GPIO4*%
X129057000Y-124460000D03*
D19*
%TO.P,MOTOR_CONN1,2,Pin_2*%
%TO.N,/GPIO3*%
X131597000Y-124460000D03*
%TD*%
D22*
%TO.P,SW1,1,1*%
%TO.N,/GPIO23*%
X133427000Y-112812000D03*
X139927000Y-112812000D03*
%TO.P,SW1,2,2*%
%TO.N,GND*%
X133427000Y-117312000D03*
X139927000Y-117312000D03*
%TD*%
D23*
%TO.P,H1,1,1*%
%TO.N,GND*%
X100330000Y-53340000D03*
%TD*%
D18*
%TO.P,US1,1,Pin_1*%
%TO.N,/US_SDA*%
X133350000Y-55855000D03*
D19*
%TO.P,US1,2,Pin_2*%
%TO.N,/US_SCL*%
X135890000Y-55855000D03*
%TO.P,US1,3,Pin_3*%
%TO.N,VCC*%
X138430000Y-55855000D03*
%TO.P,US1,4,Pin_4*%
%TO.N,GND*%
X140970000Y-55855000D03*
%TD*%
D18*
%TO.P,GPIO_L1,1,Pin_1*%
%TO.N,/GPIO0*%
X113030000Y-68580000D03*
D19*
%TO.P,GPIO_L1,2,Pin_2*%
%TO.N,/GPIO1*%
X113030000Y-71120000D03*
%TO.P,GPIO_L1,3,Pin_3*%
%TO.N,/GPIO2*%
X113030000Y-73660000D03*
%TO.P,GPIO_L1,4,Pin_4*%
%TO.N,/GPIO3*%
X113030000Y-76200000D03*
%TO.P,GPIO_L1,5,Pin_5*%
%TO.N,/GPIO4*%
X113030000Y-78740000D03*
%TO.P,GPIO_L1,6,Pin_6*%
%TO.N,/GPIO5*%
X113030000Y-81280000D03*
%TO.P,GPIO_L1,7,Pin_7*%
%TO.N,/GPIO6*%
X113030000Y-83820000D03*
%TO.P,GPIO_L1,8,Pin_8*%
%TO.N,/GPIO7*%
X113030000Y-86360000D03*
%TO.P,GPIO_L1,9,Pin_9*%
%TO.N,/GPIO8*%
X113030000Y-88900000D03*
%TO.P,GPIO_L1,10,Pin_10*%
%TO.N,/GPIO9*%
X113030000Y-91440000D03*
%TO.P,GPIO_L1,11,Pin_11*%
%TO.N,/GPIO10*%
X113030000Y-93980000D03*
%TO.P,GPIO_L1,12,Pin_12*%
%TO.N,/GPIO11*%
X113030000Y-96520000D03*
%TO.P,GPIO_L1,13,Pin_13*%
%TO.N,GND*%
X113030000Y-99060000D03*
%TO.P,GPIO_L1,14,Pin_14*%
%TO.N,/GPIO13*%
X113030000Y-101600000D03*
%TO.P,GPIO_L1,15,Pin_15*%
%TO.N,/GPIO14*%
X113030000Y-104140000D03*
%TD*%
D18*
%TO.P,I2C_PINOUT4,1,Pin_1*%
%TO.N,/I2C_PINOUT4/SCL*%
X162052000Y-60960000D03*
D19*
%TO.P,I2C_PINOUT4,2,Pin_2*%
%TO.N,/I2C_PINOUT4/SDA*%
X162052000Y-63500000D03*
%TO.P,I2C_PINOUT4,3,Pin_3*%
%TO.N,VCC*%
X162052000Y-66040000D03*
%TO.P,I2C_PINOUT4,4,Pin_4*%
%TO.N,GND*%
X162052000Y-68580000D03*
%TD*%
D23*
%TO.P,H3,1,1*%
%TO.N,GND*%
X129540000Y-86360000D03*
%TD*%
D18*
%TO.P,I2C_PINOUT1,1,Pin_1*%
%TO.N,/I2C_PINOUT1/SCL*%
X156997000Y-73660000D03*
D19*
%TO.P,I2C_PINOUT1,2,Pin_2*%
%TO.N,/I2C_PINOUT1/SDA*%
X156997000Y-76200000D03*
%TO.P,I2C_PINOUT1,3,Pin_3*%
%TO.N,VCC*%
X156997000Y-78740000D03*
%TO.P,I2C_PINOUT1,4,Pin_4*%
%TO.N,GND*%
X156997000Y-81280000D03*
%TD*%
D18*
%TO.P,PICO_L1,1,Pin_1*%
%TO.N,/GPIO0*%
X120650000Y-68610000D03*
D19*
%TO.P,PICO_L1,2,Pin_2*%
%TO.N,/GPIO1*%
X120650000Y-71150000D03*
%TO.P,PICO_L1,3,Pin_3*%
%TO.N,/GPIO2*%
X120650000Y-73690000D03*
%TO.P,PICO_L1,4,Pin_4*%
%TO.N,/GPIO3*%
X120650000Y-76230000D03*
%TO.P,PICO_L1,5,Pin_5*%
%TO.N,/GPIO4*%
X120650000Y-78770000D03*
%TO.P,PICO_L1,6,Pin_6*%
%TO.N,/GPIO5*%
X120650000Y-81310000D03*
%TO.P,PICO_L1,7,Pin_7*%
%TO.N,/GPIO6*%
X120650000Y-83850000D03*
%TO.P,PICO_L1,8,Pin_8*%
%TO.N,/GPIO7*%
X120650000Y-86390000D03*
%TO.P,PICO_L1,9,Pin_9*%
%TO.N,/GPIO8*%
X120650000Y-88930000D03*
%TO.P,PICO_L1,10,Pin_10*%
%TO.N,/GPIO9*%
X120650000Y-91470000D03*
%TO.P,PICO_L1,11,Pin_11*%
%TO.N,/GPIO10*%
X120650000Y-94010000D03*
%TO.P,PICO_L1,12,Pin_12*%
%TO.N,/GPIO11*%
X120650000Y-96550000D03*
%TO.P,PICO_L1,13,Pin_13*%
%TO.N,GND*%
X120650000Y-99090000D03*
%TO.P,PICO_L1,14,Pin_14*%
%TO.N,/GPIO13*%
X120650000Y-101630000D03*
%TO.P,PICO_L1,15,Pin_15*%
%TO.N,/GPIO14*%
X120650000Y-104170000D03*
%TD*%
D23*
%TO.P,H2,1,1*%
%TO.N,GND*%
X158750000Y-53340000D03*
%TD*%
D18*
%TO.P,I2C_PINOUT11,1,Pin_1*%
%TO.N,/I2C_PINOUT11/SCL*%
X96037000Y-111760000D03*
D19*
%TO.P,I2C_PINOUT11,2,Pin_2*%
%TO.N,/I2C_PINOUT11/SDA*%
X96037000Y-109220000D03*
%TO.P,I2C_PINOUT11,3,Pin_3*%
%TO.N,VCC*%
X96037000Y-106680000D03*
%TO.P,I2C_PINOUT11,4,Pin_4*%
%TO.N,GND*%
X96037000Y-104140000D03*
%TD*%
D18*
%TO.P,GPIO_R1,1,Pin_1*%
%TO.N,/GPIO15*%
X146050000Y-68580000D03*
D19*
%TO.P,GPIO_R1,2,Pin_2*%
%TO.N,VCC*%
X146050000Y-71120000D03*
%TO.P,GPIO_R1,3,Pin_3*%
%TO.N,GND*%
X146050000Y-73660000D03*
%TO.P,GPIO_R1,4,Pin_4*%
%TO.N,/GPIO18*%
X146050000Y-76200000D03*
%TO.P,GPIO_R1,5,Pin_5*%
%TO.N,/GPIO19*%
X146050000Y-78740000D03*
%TO.P,GPIO_R1,6,Pin_6*%
%TO.N,/GPIO20*%
X146050000Y-81280000D03*
%TO.P,GPIO_R1,7,Pin_7*%
%TO.N,/GPIO21*%
X146050000Y-83820000D03*
%TO.P,GPIO_R1,8,Pin_8*%
%TO.N,/GPIO22*%
X146050000Y-86360000D03*
%TO.P,GPIO_R1,9,Pin_9*%
%TO.N,/GPIO23*%
X146050000Y-88900000D03*
%TO.P,GPIO_R1,10,Pin_10*%
%TO.N,/GPIO24*%
X146050000Y-91440000D03*
%TO.P,GPIO_R1,11,Pin_11*%
%TO.N,/GPIO25*%
X146050000Y-93980000D03*
%TO.P,GPIO_R1,12,Pin_12*%
%TO.N,/GPIO26*%
X146050000Y-96520000D03*
%TO.P,GPIO_R1,13,Pin_13*%
%TO.N,/GPIO27*%
X146050000Y-99060000D03*
%TO.P,GPIO_R1,14,Pin_14*%
%TO.N,/GPIO28*%
X146050000Y-101600000D03*
%TO.P,GPIO_R1,15,Pin_15*%
%TO.N,/GPIO29*%
X146050000Y-104140000D03*
%TD*%
D18*
%TO.P,I2C_PINOUT3,1,Pin_1*%
%TO.N,/I2C_PINOUT3/SCL*%
X156972000Y-99060000D03*
D19*
%TO.P,I2C_PINOUT3,2,Pin_2*%
%TO.N,/I2C_PINOUT3/SDA*%
X156972000Y-101600000D03*
%TO.P,I2C_PINOUT3,3,Pin_3*%
%TO.N,VCC*%
X156972000Y-104140000D03*
%TO.P,I2C_PINOUT3,4,Pin_4*%
%TO.N,GND*%
X156972000Y-106680000D03*
%TD*%
D18*
%TO.P,ARR1,1,Pin_1*%
%TO.N,/SENSOR_SDA*%
X133350000Y-50800000D03*
D19*
%TO.P,ARR1,2,Pin_2*%
%TO.N,/SENSOR_SCL*%
X135890000Y-50800000D03*
%TO.P,ARR1,3,Pin_3*%
%TO.N,VCC*%
X138430000Y-50800000D03*
%TO.P,ARR1,4,Pin_4*%
%TO.N,GND*%
X140970000Y-50800000D03*
%TD*%
D25*
%TO.P,C13,1*%
%TO.N,VCC*%
X106683800Y-60985400D03*
D22*
%TO.P,C13,2*%
%TO.N,GND*%
X111683800Y-60985400D03*
%TD*%
D26*
%TO.P,D2,1,K*%
%TO.N,VCC*%
X100736000Y-78740000D03*
%TO.P,D2,2,A*%
%TO.N,GND*%
X103536000Y-78740000D03*
%TD*%
D11*
%TO.P,C4,1*%
%TO.N,Net-(D1-K)*%
X127992000Y-73660000D03*
%TO.P,C4,2*%
%TO.N,GND*%
X125042000Y-73660000D03*
%TD*%
D27*
%TO.P,JP6,1,A*%
%TO.N,Net-(JP6-A)*%
X149409000Y-59436000D03*
%TO.P,JP6,2,B*%
%TO.N,VCC*%
X148109000Y-59436000D03*
%TD*%
D11*
%TO.P,C7,1*%
%TO.N,Net-(IC2-VDD)*%
X124616000Y-65532000D03*
%TO.P,C7,2*%
%TO.N,/battery/BAT-*%
X121666000Y-65532000D03*
%TD*%
%TO.P,C12,1*%
%TO.N,VCC*%
X103657000Y-83820000D03*
%TO.P,C12,2*%
%TO.N,GND*%
X100707000Y-83820000D03*
%TD*%
D27*
%TO.P,JP7,1,A*%
%TO.N,VCC*%
X149407000Y-62230000D03*
%TO.P,JP7,2,B*%
%TO.N,Net-(JP7-B)*%
X148107000Y-62230000D03*
%TD*%
D26*
%TO.P,D1,1,K*%
%TO.N,Net-(D1-K)*%
X131826000Y-73406000D03*
%TO.P,D1,2,A*%
%TO.N,Net-(D1-A)*%
X134626000Y-73406000D03*
%TD*%
D11*
%TO.P,C5,1*%
%TO.N,Net-(U4-EN)*%
X131474000Y-62738000D03*
%TO.P,C5,2*%
%TO.N,GND*%
X128524000Y-62738000D03*
%TD*%
D12*
%TO.P,R8,1*%
%TO.N,Net-(PG1-A)*%
X153379500Y-82804000D03*
%TO.P,R8,2*%
%TO.N,/battery/BAT+*%
X150454500Y-82804000D03*
%TD*%
D11*
%TO.P,C10,1*%
%TO.N,Net-(U5-DVDT)*%
X102870000Y-71120000D03*
%TO.P,C10,2*%
%TO.N,GND*%
X99920000Y-71120000D03*
%TD*%
%TO.P,C9,1*%
%TO.N,/battery/BAT+*%
X116152000Y-56220000D03*
%TO.P,C9,2*%
%TO.N,GND*%
X113202000Y-56220000D03*
%TD*%
D12*
%TO.P,R9,1*%
%TO.N,Net-(CHG1-A)*%
X153379500Y-87249000D03*
%TO.P,R9,2*%
%TO.N,/battery/BAT+*%
X150454500Y-87249000D03*
%TD*%
D27*
%TO.P,JP3,1,A*%
%TO.N,Net-(JP3-A)*%
X105226000Y-98806000D03*
%TO.P,JP3,2,B*%
%TO.N,VCC*%
X103926000Y-98806000D03*
%TD*%
D14*
%TO.P,R6,1*%
%TO.N,Net-(U3-ISET)*%
X121879500Y-59055000D03*
%TO.P,R6,2*%
%TO.N,GND*%
X124804500Y-59055000D03*
%TD*%
D28*
%TO.P,C2,1*%
%TO.N,Net-(U4-SS)*%
X134366000Y-58674000D03*
%TO.P,C2,2*%
%TO.N,GND*%
X137316000Y-58674000D03*
%TD*%
D11*
%TO.P,C11,1*%
%TO.N,VCC*%
X103657000Y-81280000D03*
%TO.P,C11,2*%
%TO.N,GND*%
X100707000Y-81280000D03*
%TD*%
%TO.P,C1,1*%
%TO.N,Net-(C1-Pad1)*%
X131728000Y-58674000D03*
%TO.P,C1,2*%
%TO.N,GND*%
X128778000Y-58674000D03*
%TD*%
D12*
%TO.P,R10,1*%
%TO.N,GND*%
X128930000Y-68199000D03*
%TO.P,R10,2*%
%TO.N,Net-(U3-TS)*%
X126005000Y-68199000D03*
%TD*%
D14*
%TO.P,R5,1*%
%TO.N,Net-(IC2-VDD)*%
X113828100Y-64617600D03*
%TO.P,R5,2*%
%TO.N,/battery/BAT+*%
X116753100Y-64617600D03*
%TD*%
D27*
%TO.P,JP8,1,A*%
%TO.N,VCC*%
X149409000Y-65024000D03*
%TO.P,JP8,2,B*%
%TO.N,Net-(JP8-B)*%
X148109000Y-65024000D03*
%TD*%
D11*
%TO.P,C6,1*%
%TO.N,Net-(U4-EN)*%
X133641500Y-68199000D03*
%TO.P,C6,2*%
%TO.N,GND*%
X130691500Y-68199000D03*
%TD*%
D15*
%TO.P,R7,1*%
%TO.N,Net-(U3-PRETERM)*%
X119126000Y-63754000D03*
%TO.P,R7,2*%
%TO.N,GND*%
X119126000Y-60829000D03*
%TD*%
D29*
%TO.P,C8,1*%
%TO.N,VBUS*%
X110607300Y-58474400D03*
%TO.P,C8,2*%
%TO.N,GND*%
X110607300Y-55524400D03*
%TD*%
D27*
%TO.P,JP4,1,A*%
%TO.N,VCC*%
X105211000Y-101600000D03*
%TO.P,JP4,2,B*%
%TO.N,Net-(JP4-B)*%
X103911000Y-101600000D03*
%TD*%
D29*
%TO.P,C3,1*%
%TO.N,Net-(D1-K)*%
X106426000Y-68072000D03*
%TO.P,C3,2*%
%TO.N,GND*%
X106426000Y-65122000D03*
%TD*%
D27*
%TO.P,JP5,1,A*%
%TO.N,VCC*%
X105211000Y-104394000D03*
%TO.P,JP5,2,B*%
%TO.N,Net-(JP5-B)*%
X103911000Y-104394000D03*
%TD*%
D30*
%TO.N,Net-(U4-EN)*%
X133130700Y-62738000D03*
X136642600Y-68428700D03*
X131297500Y-66650200D03*
X109617400Y-93663400D03*
X136555100Y-93819800D03*
%TO.N,VBUS*%
X118908400Y-58694000D03*
%TO.N,/battery/BAT+*%
X149029600Y-85026500D03*
X126070900Y-57197700D03*
X119972300Y-62085900D03*
%TO.N,/battery/BAT-*%
X127017800Y-66174000D03*
%TO.N,VCC*%
X108378900Y-93307500D03*
X106683800Y-52070000D03*
X96987800Y-101989600D03*
%TO.N,Net-(U3-TS)*%
X127922600Y-60671300D03*
%TO.N,Net-(U3-PRETERM)*%
X121868200Y-63754000D03*
%TO.N,Net-(U3-ISET)*%
X121845500Y-62397200D03*
%TO.N,Net-(PG1-A)*%
X116516200Y-72320300D03*
%TO.N,Net-(PG1-K)*%
X113598000Y-66756300D03*
X123180000Y-67356800D03*
%TO.N,Net-(CHG1-A)*%
X117689800Y-90124800D03*
%TO.N,Net-(U5-DVDT)*%
X109751700Y-71113300D03*
%TO.N,Net-(IC2-VDD)*%
X125997300Y-66511600D03*
%TO.N,/GPIO2*%
X113827000Y-116055700D03*
%TO.N,/GPIO1*%
X114960000Y-110802400D03*
X108637300Y-110850300D03*
%TO.N,/GPIO0*%
X111010300Y-116703700D03*
%TO.N,/I2C_PINOUT2/SCL*%
X147330800Y-82548000D03*
%TO.N,/I2C_PINOUT1/SCL*%
X149137400Y-67797200D03*
%TO.N,/I2C_PINOUT6/SCL*%
X153481700Y-59166500D03*
X164053900Y-59166500D03*
X164053900Y-82640300D03*
%TO.N,/GPIO9*%
X151510400Y-75419800D03*
X147975500Y-92601400D03*
X147642100Y-76157500D03*
%TO.N,/I2C_PINOUT1/SDA*%
X155738900Y-59768200D03*
X150989000Y-64655200D03*
%TO.N,/GPIO8*%
X151501000Y-78471300D03*
%TO.N,/I2C_PINOUT4/SDA*%
X152239500Y-64675300D03*
%TO.N,/I2C_PINOUT4/SCL*%
X153501700Y-63176800D03*
%TO.N,/US_SCL*%
X142549800Y-97747400D03*
X104492300Y-96689000D03*
%TO.N,/US_SDA*%
X134249500Y-100330000D03*
X106437300Y-101593100D03*
%TO.N,/I2C_PINOUT11/SDA*%
X109060300Y-105882700D03*
%TO.N,/SENSOR_SCL*%
X132026100Y-54590300D03*
X133591700Y-95251500D03*
X99562400Y-95473200D03*
%TO.N,/I2C_PINOUT9/SCL*%
X106103200Y-90127800D03*
%TO.N,/OLED_SDA*%
X105817000Y-102938000D03*
%TO.N,/I2C_PINOUT10/SDA*%
X104480500Y-97551600D03*
%TO.N,/I2C_PINOUT10/SCL*%
X106707100Y-107095700D03*
X101877200Y-107942700D03*
X101548100Y-102782300D03*
%TO.N,/I2C_PINOUT9/SDA*%
X100083400Y-85476300D03*
%TO.N,/I2C_PINOUT11/SCL*%
X109827000Y-106321200D03*
%TO.N,/SENSOR_SDA*%
X117117900Y-51844000D03*
X104578700Y-94849800D03*
X111670800Y-94227100D03*
%TO.N,/OLED_SCL*%
X104238800Y-110631500D03*
%TO.N,Net-(U2-~{RESET})*%
X147756100Y-57704500D03*
%TO.N,Net-(JP8-B)*%
X143468200Y-64576600D03*
%TO.N,Net-(JP7-B)*%
X145268500Y-61297100D03*
%TO.N,Net-(U1-~{RESET})*%
X104343600Y-90729700D03*
%TO.N,Net-(JP3-A)*%
X106705000Y-98806000D03*
X106725400Y-93386400D03*
%TO.N,Net-(JP4-B)*%
X101170600Y-91690100D03*
X100449100Y-97143800D03*
%TO.N,Net-(JP5-B)*%
X101533900Y-87792300D03*
X100099000Y-98267500D03*
%TO.N,Net-(JP6-A)*%
X153518100Y-58360100D03*
%TO.N,Net-(U4-SS)*%
X133275300Y-58353500D03*
%TO.N,Net-(12V1-A)*%
X114499800Y-52026600D03*
%TO.N,Net-(U5-ILM)*%
X100350700Y-64893000D03*
%TO.N,Net-(D1-A)*%
X134872700Y-72012300D03*
X110925100Y-69919000D03*
%TO.N,Net-(D1-K)*%
X109268200Y-68164200D03*
%TO.N,Net-(U5-EN{slash}UVLO)*%
X109109900Y-67109700D03*
%TO.N,Net-(U4-COMP)*%
X131152000Y-60844800D03*
%TO.N,Net-(U4-FB)*%
X131910500Y-75921900D03*
%TO.N,GND*%
X96984800Y-87753000D03*
X102574700Y-81196600D03*
X126125500Y-76332700D03*
%TD*%
D31*
%TO.N,Net-(U4-EN)*%
X131474000Y-62738000D02*
X133130700Y-62738000D01*
X133871200Y-68428700D02*
X136642600Y-68428700D01*
X133641500Y-68199000D02*
X133871200Y-68428700D01*
X122999800Y-93819800D02*
X136555100Y-93819800D01*
X121957800Y-92777800D02*
X122999800Y-93819800D01*
X111973500Y-92777800D02*
X121957800Y-92777800D01*
X111087900Y-93663400D02*
X111973500Y-92777800D01*
X109617400Y-93663400D02*
X111087900Y-93663400D01*
X131484600Y-66837300D02*
X131297500Y-66650200D01*
X131484600Y-66837400D02*
X131484600Y-66837300D01*
X132279900Y-66837400D02*
X131484600Y-66837400D01*
X133641500Y-68199000D02*
X132279900Y-66837400D01*
%TO.N,VBUS*%
X110826900Y-58694000D02*
X118908400Y-58694000D01*
X110607300Y-58474400D02*
X110826900Y-58694000D01*
%TO.N,/battery/BAT+*%
X150454500Y-87249000D02*
X150454500Y-85026500D01*
X150454500Y-85026500D02*
X150454500Y-82804000D01*
X150454500Y-85026500D02*
X149029600Y-85026500D01*
X145874000Y-123268000D02*
X147574000Y-124968000D01*
X145071300Y-123268000D02*
X145874000Y-123268000D01*
X143824000Y-122020700D02*
X145071300Y-123268000D01*
X143824000Y-121047400D02*
X143824000Y-122020700D01*
X143082800Y-120306200D02*
X143824000Y-121047400D01*
X132966200Y-120306200D02*
X143082800Y-120306200D01*
X128230000Y-115570000D02*
X132966200Y-120306200D01*
X119330200Y-56220000D02*
X120307900Y-57197700D01*
X116152000Y-56220000D02*
X119330200Y-56220000D01*
X120307900Y-57197700D02*
X126070900Y-57197700D01*
X116753100Y-64335300D02*
X116753100Y-64617600D01*
X119023100Y-62065300D02*
X116753100Y-64335300D01*
X119951700Y-62065300D02*
X119023100Y-62065300D01*
X120307900Y-61709100D02*
X119951700Y-62065300D01*
X120307900Y-57197700D02*
X120307900Y-61709100D01*
X119951700Y-62065300D02*
X119972300Y-62085900D01*
%TO.N,/battery/BAT-*%
X125139200Y-64295400D02*
X127017800Y-66174000D01*
X122902600Y-64295400D02*
X125139200Y-64295400D01*
X121666000Y-65532000D02*
X122902600Y-64295400D01*
%TO.N,VCC*%
X156972000Y-66040000D02*
X155820300Y-66040000D01*
X96037000Y-106680000D02*
X97188700Y-106680000D01*
X149409000Y-65024000D02*
X149409000Y-63972300D01*
X104474100Y-80462900D02*
X104474100Y-77501700D01*
X103657000Y-81280000D02*
X104474100Y-80462900D01*
X104759800Y-77216000D02*
X109220000Y-77216000D01*
X104474100Y-77501700D02*
X104759800Y-77216000D01*
X138430000Y-71120000D02*
X146050000Y-71120000D01*
X146050000Y-71120000D02*
X147201700Y-71120000D01*
X149409000Y-65024000D02*
X150210700Y-65024000D01*
X105410000Y-109220000D02*
X106561700Y-109220000D01*
X105211000Y-104394000D02*
X105211000Y-101600000D01*
X104520400Y-99857700D02*
X103926000Y-99857700D01*
X105211000Y-100548300D02*
X104520400Y-99857700D01*
X105211000Y-101600000D02*
X105211000Y-100548300D01*
X96037000Y-68580000D02*
X96037000Y-69731700D01*
X156972000Y-104140000D02*
X162052000Y-104140000D01*
X162052000Y-66040000D02*
X156972000Y-66040000D01*
X162052000Y-91440000D02*
X156972000Y-91440000D01*
X149407000Y-63970300D02*
X149407000Y-62230000D01*
X149409000Y-63972300D02*
X149407000Y-63970300D01*
X148716400Y-60487700D02*
X148109000Y-60487700D01*
X149407000Y-61178300D02*
X148716400Y-60487700D01*
X149407000Y-62230000D02*
X149407000Y-61178300D01*
X138430000Y-50800000D02*
X137278300Y-50800000D01*
X100838000Y-74262700D02*
X100838000Y-74422000D01*
X96307000Y-69731700D02*
X100838000Y-74262700D01*
X96037000Y-69731700D02*
X96307000Y-69731700D01*
X100838000Y-76365400D02*
X101974300Y-77501700D01*
X100838000Y-74422000D02*
X100838000Y-76365400D01*
X101974300Y-77501700D02*
X104474100Y-77501700D01*
X103657000Y-81280000D02*
X103657000Y-83820000D01*
X109841100Y-88138000D02*
X110646000Y-88138000D01*
X105523100Y-83820000D02*
X109841100Y-88138000D01*
X103657000Y-83820000D02*
X105523100Y-83820000D01*
X110621000Y-88163000D02*
X110646000Y-88138000D01*
X110621000Y-91948000D02*
X110621000Y-88163000D01*
X139581700Y-51068500D02*
X139581700Y-50800000D01*
X140892300Y-52379100D02*
X139581700Y-51068500D01*
X145027600Y-52379100D02*
X140892300Y-52379100D01*
X146242500Y-53594000D02*
X145027600Y-52379100D01*
X138430000Y-50800000D02*
X139581700Y-50800000D01*
X153293000Y-72238000D02*
X153293000Y-70104000D01*
X153268000Y-72263000D02*
X153293000Y-72238000D01*
X147201700Y-71120000D02*
X149395400Y-68926300D01*
X105211000Y-104394000D02*
X105211000Y-105344800D01*
X105211000Y-105344800D02*
X105211000Y-105444200D01*
X105211000Y-105444200D02*
X105211000Y-105445700D01*
X148109000Y-59961800D02*
X148109000Y-60487700D01*
X148109000Y-59961800D02*
X148109000Y-59436000D01*
X148440200Y-55791700D02*
X146242500Y-53594000D01*
X148440200Y-58053100D02*
X148440200Y-55791700D01*
X148109000Y-58384300D02*
X148440200Y-58053100D01*
X148109000Y-59436000D02*
X148109000Y-58384300D01*
X101974300Y-77501700D02*
X100736000Y-78740000D01*
X98196000Y-81280000D02*
X96037000Y-81280000D01*
X100736000Y-78740000D02*
X98196000Y-81280000D01*
X158149300Y-75691500D02*
X158149300Y-78740000D01*
X157327800Y-74870000D02*
X158149300Y-75691500D01*
X155875000Y-74870000D02*
X157327800Y-74870000D01*
X153268000Y-72263000D02*
X155875000Y-74870000D01*
X156997000Y-78740000D02*
X158149300Y-78740000D01*
X158149300Y-78740000D02*
X162052000Y-78740000D01*
X103926000Y-99331800D02*
X103926000Y-99857700D01*
X105374200Y-105281000D02*
X105211000Y-105444200D01*
X109637800Y-105281000D02*
X105374200Y-105281000D01*
X110460000Y-106103200D02*
X109637800Y-105281000D01*
X110460000Y-106649300D02*
X110460000Y-106103200D01*
X109435500Y-107673800D02*
X110460000Y-106649300D01*
X107839400Y-107673800D02*
X109435500Y-107673800D01*
X106561700Y-108951500D02*
X107839400Y-107673800D01*
X106561700Y-109220000D02*
X106561700Y-108951500D01*
X103926000Y-99331800D02*
X103926000Y-98806000D01*
X109220000Y-52070000D02*
X106683800Y-52070000D01*
X112317000Y-48973000D02*
X109220000Y-52070000D01*
X135719800Y-48973000D02*
X112317000Y-48973000D01*
X137278300Y-50531500D02*
X135719800Y-48973000D01*
X137278300Y-50800000D02*
X137278300Y-50531500D01*
X152115300Y-68926300D02*
X153293000Y-70104000D01*
X149395400Y-68926300D02*
X152115300Y-68926300D01*
X109738400Y-91948000D02*
X108378900Y-93307500D01*
X110621000Y-91948000D02*
X109738400Y-91948000D01*
X97283000Y-94074300D02*
X97188700Y-93980000D01*
X107612100Y-94074300D02*
X97283000Y-94074300D01*
X108378900Y-93307500D02*
X107612100Y-94074300D01*
X96037000Y-93980000D02*
X97188700Y-93980000D01*
X105211000Y-105445700D02*
X98304500Y-105445700D01*
X98304500Y-105564200D02*
X98304500Y-105445700D01*
X97188700Y-106680000D02*
X98304500Y-105564200D01*
X98304500Y-103306300D02*
X96987800Y-101989600D01*
X98304500Y-105445700D02*
X98304500Y-103306300D01*
X111236200Y-114300000D02*
X112557000Y-114300000D01*
X106561700Y-109625500D02*
X111236200Y-114300000D01*
X106561700Y-109220000D02*
X106561700Y-109625500D01*
X148535700Y-68066600D02*
X149395400Y-68926300D01*
X148535700Y-67367300D02*
X148535700Y-68066600D01*
X138643300Y-67367300D02*
X148535700Y-67367300D01*
X136808000Y-65532000D02*
X138643300Y-67367300D01*
X148535700Y-67367300D02*
X150544900Y-65358100D01*
X150210700Y-65024000D02*
X150544900Y-65358100D01*
X151226700Y-66040000D02*
X155820300Y-66040000D01*
X150544900Y-65358100D02*
X151226700Y-66040000D01*
%TO.N,Net-(R28-Pad2)*%
X149431800Y-71040200D02*
X150368000Y-70104000D01*
X149431800Y-73110400D02*
X149431800Y-71040200D01*
X150318800Y-73997400D02*
X149431800Y-73110400D01*
X151577900Y-73997400D02*
X150318800Y-73997400D01*
X153354500Y-75774000D02*
X151577900Y-73997400D01*
X153354500Y-76200000D02*
X153354500Y-75774000D01*
%TO.N,Net-(R27-Pad2)*%
X151220100Y-72263000D02*
X150343000Y-72263000D01*
X154251800Y-75294700D02*
X151220100Y-72263000D01*
X154251800Y-77461700D02*
X154251800Y-75294700D01*
X153349500Y-78364000D02*
X154251800Y-77461700D01*
%TO.N,Net-(R19-Pad2)*%
X109220000Y-80141000D02*
X109220000Y-82165000D01*
%TO.N,Net-(R18-Pad2)*%
X106172000Y-74422000D02*
X106934000Y-73660000D01*
X103763000Y-74422000D02*
X106172000Y-74422000D01*
%TO.N,Net-(U3-TS)*%
X127589400Y-61004500D02*
X127922600Y-60671300D01*
X127589400Y-65515400D02*
X127589400Y-61004500D01*
X127647800Y-65573800D02*
X127589400Y-65515400D01*
X127647800Y-66556200D02*
X127647800Y-65573800D01*
X126005000Y-68199000D02*
X127647800Y-66556200D01*
%TO.N,Net-(U3-PRETERM)*%
X119126000Y-63754000D02*
X121868200Y-63754000D01*
%TO.N,Net-(U3-ISET)*%
X121879500Y-62363200D02*
X121845500Y-62397200D01*
X121879500Y-59055000D02*
X121879500Y-62363200D01*
%TO.N,Net-(PG1-A)*%
X151932500Y-81357000D02*
X153379500Y-82804000D01*
X151932500Y-79840700D02*
X151932500Y-81357000D01*
X152204800Y-79568400D02*
X151932500Y-79840700D01*
X152204800Y-75233000D02*
X152204800Y-79568400D01*
X151782000Y-74810200D02*
X152204800Y-75233000D01*
X150102500Y-74810200D02*
X151782000Y-74810200D01*
X150042600Y-74870100D02*
X150102500Y-74810200D01*
X134235200Y-74870100D02*
X150042600Y-74870100D01*
X133226000Y-73860900D02*
X134235200Y-74870100D01*
X133226000Y-72941300D02*
X133226000Y-73860900D01*
X132306600Y-72021900D02*
X133226000Y-72941300D01*
X122613800Y-72021900D02*
X132306600Y-72021900D01*
X122315400Y-72320300D02*
X122613800Y-72021900D01*
X116516200Y-72320300D02*
X122315400Y-72320300D01*
%TO.N,Net-(PG1-K)*%
X114198500Y-67356800D02*
X123180000Y-67356800D01*
X113598000Y-66756300D02*
X114198500Y-67356800D01*
%TO.N,Net-(CHG1-A)*%
X122925700Y-90124800D02*
X117689800Y-90124800D01*
X123676500Y-90875600D02*
X122925700Y-90124800D01*
X137094400Y-90875600D02*
X123676500Y-90875600D01*
X137711700Y-90258300D02*
X137094400Y-90875600D01*
X150370200Y-90258300D02*
X137711700Y-90258300D01*
X153379500Y-87249000D02*
X150370200Y-90258300D01*
%TO.N,Net-(U5-DVDT)*%
X109481800Y-71383200D02*
X109751700Y-71113300D01*
X103133200Y-71383200D02*
X109481800Y-71383200D01*
X102870000Y-71120000D02*
X103133200Y-71383200D01*
%TO.N,Net-(IC2-VDD)*%
X115953800Y-66743300D02*
X113828100Y-64617600D01*
X123404700Y-66743300D02*
X115953800Y-66743300D01*
X124616000Y-65532000D02*
X123404700Y-66743300D01*
X125595600Y-66511600D02*
X125997300Y-66511600D01*
X124616000Y-65532000D02*
X125595600Y-66511600D01*
%TO.N,/GPIO11*%
X114211700Y-96550000D02*
X114181700Y-96520000D01*
X120650000Y-96550000D02*
X114211700Y-96550000D01*
X113030000Y-96520000D02*
X114181700Y-96520000D01*
%TO.N,/GPIO2*%
X114211700Y-73690000D02*
X114181700Y-73660000D01*
X120650000Y-73690000D02*
X114211700Y-73690000D01*
X113030000Y-73660000D02*
X114181700Y-73660000D01*
X110857400Y-116055700D02*
X113827000Y-116055700D01*
X109101700Y-114300000D02*
X110857400Y-116055700D01*
X107950000Y-114300000D02*
X109101700Y-114300000D01*
%TO.N,/GPIO13*%
X114211700Y-101630000D02*
X114181700Y-101600000D01*
X120650000Y-101630000D02*
X114211700Y-101630000D01*
X113030000Y-101600000D02*
X114181700Y-101600000D01*
%TO.N,/GPIO7*%
X114211700Y-86390000D02*
X114181700Y-86360000D01*
X120650000Y-86390000D02*
X114211700Y-86390000D01*
X113030000Y-86360000D02*
X114181700Y-86360000D01*
%TO.N,/GPIO4*%
X114211700Y-78770000D02*
X114181700Y-78740000D01*
X120650000Y-78770000D02*
X114211700Y-78770000D01*
X113030000Y-78740000D02*
X114181700Y-78740000D01*
%TO.N,/GPIO1*%
X113030000Y-71120000D02*
X114181700Y-71120000D01*
X114211700Y-71150000D02*
X114181700Y-71120000D01*
X120650000Y-71150000D02*
X114211700Y-71150000D01*
X114912100Y-110850300D02*
X114960000Y-110802400D01*
X108637300Y-110850300D02*
X114912100Y-110850300D01*
%TO.N,/GPIO3*%
X114211700Y-76230000D02*
X114181700Y-76200000D01*
X120650000Y-76230000D02*
X114211700Y-76230000D01*
X113030000Y-76200000D02*
X114181700Y-76200000D01*
%TO.N,/GPIO14*%
X114211700Y-104170000D02*
X114181700Y-104140000D01*
X120650000Y-104170000D02*
X114211700Y-104170000D01*
X113030000Y-104140000D02*
X114181700Y-104140000D01*
%TO.N,/GPIO10*%
X114211700Y-94010000D02*
X114181700Y-93980000D01*
X120650000Y-94010000D02*
X114211700Y-94010000D01*
X113030000Y-93980000D02*
X114181700Y-93980000D01*
%TO.N,/GPIO0*%
X114211700Y-68610000D02*
X114181700Y-68580000D01*
X120650000Y-68610000D02*
X114211700Y-68610000D01*
X113030000Y-68580000D02*
X114181700Y-68580000D01*
X102870000Y-114300000D02*
X104021700Y-114300000D01*
X106137500Y-116703700D02*
X111010300Y-116703700D01*
X104021700Y-114587900D02*
X106137500Y-116703700D01*
X104021700Y-114300000D02*
X104021700Y-114587900D01*
%TO.N,/GPIO29*%
X146050000Y-104140000D02*
X138430000Y-104140000D01*
%TO.N,/GPIO22*%
X146050000Y-86360000D02*
X138430000Y-86360000D01*
%TO.N,/GPIO21*%
X146050000Y-83820000D02*
X138430000Y-83820000D01*
%TO.N,/GPIO20*%
X146050000Y-81280000D02*
X138430000Y-81280000D01*
X128370000Y-50328000D02*
X121870000Y-50328000D01*
%TO.N,/GPIO15*%
X146050000Y-68580000D02*
X138430000Y-68580000D01*
%TO.N,/GPIO23*%
X146050000Y-88900000D02*
X138430000Y-88900000D01*
X139927000Y-112812000D02*
X133427000Y-112812000D01*
%TO.N,/GPIO25*%
X144898300Y-93980000D02*
X139581700Y-93980000D01*
X146050000Y-93980000D02*
X144898300Y-93980000D01*
X138430000Y-93980000D02*
X139581700Y-93980000D01*
%TO.N,/GPIO28*%
X146050000Y-101600000D02*
X138430000Y-101600000D01*
%TO.N,/GPIO27*%
X146050000Y-99060000D02*
X138430000Y-99060000D01*
%TO.N,/GPIO26*%
X146050000Y-96520000D02*
X138430000Y-96520000D01*
%TO.N,/GPIO24*%
X146050000Y-91440000D02*
X138430000Y-91440000D01*
X152777000Y-112812000D02*
X146277000Y-112812000D01*
%TO.N,/GPIO18*%
X146050000Y-76200000D02*
X138430000Y-76200000D01*
%TO.N,/GPIO19*%
X146050000Y-78740000D02*
X138430000Y-78740000D01*
%TO.N,/I2C_PINOUT2/SCL*%
X148270800Y-81608000D02*
X147330800Y-82548000D01*
X151042100Y-81608000D02*
X148270800Y-81608000D01*
X151917000Y-82482900D02*
X151042100Y-81608000D01*
X151917000Y-83084500D02*
X151917000Y-82482900D01*
X155192500Y-86360000D02*
X151917000Y-83084500D01*
X156972000Y-86360000D02*
X155192500Y-86360000D01*
%TO.N,/I2C_PINOUT1/SCL*%
X156997000Y-72021400D02*
X156997000Y-73660000D01*
X152772800Y-67797200D02*
X156997000Y-72021400D01*
X149137400Y-67797200D02*
X152772800Y-67797200D01*
%TO.N,/I2C_PINOUT6/SCL*%
X162052000Y-84642200D02*
X162052000Y-86360000D01*
X164053900Y-82640300D02*
X162052000Y-84642200D01*
X153481700Y-59166500D02*
X164053900Y-59166500D01*
%TO.N,/GPIO9*%
X113030000Y-91440000D02*
X114181700Y-91440000D01*
X114211700Y-91470000D02*
X114181700Y-91440000D01*
X120650000Y-91470000D02*
X114211700Y-91470000D01*
X150387000Y-76157500D02*
X150429500Y-76200000D01*
X147642100Y-76157500D02*
X150387000Y-76157500D01*
X120650000Y-91470000D02*
X121801700Y-91470000D01*
X151209700Y-75419800D02*
X150429500Y-76200000D01*
X151510400Y-75419800D02*
X151209700Y-75419800D01*
X122933100Y-92601400D02*
X147975500Y-92601400D01*
X121801700Y-91470000D02*
X122933100Y-92601400D01*
%TO.N,/I2C_PINOUT1/SDA*%
X150989000Y-64518100D02*
X150989000Y-64655200D01*
X155738900Y-59768200D02*
X150989000Y-64518100D01*
%TO.N,/GPIO8*%
X113030000Y-88900000D02*
X114181700Y-88900000D01*
X114211700Y-88930000D02*
X114181700Y-88900000D01*
X120650000Y-88930000D02*
X114211700Y-88930000D01*
X150424500Y-78364000D02*
X150531800Y-78471300D01*
X150531800Y-78471300D02*
X151501000Y-78471300D01*
X120650000Y-88930000D02*
X121801700Y-88930000D01*
X122322400Y-88930000D02*
X121801700Y-88930000D01*
X123811800Y-90419400D02*
X122322400Y-88930000D01*
X131220700Y-90419400D02*
X123811800Y-90419400D01*
X136884600Y-84755500D02*
X131220700Y-90419400D01*
X136884600Y-83652700D02*
X136884600Y-84755500D01*
X137987300Y-82550000D02*
X136884600Y-83652700D01*
X146453100Y-82550000D02*
X137987300Y-82550000D01*
X150531800Y-78471300D02*
X146453100Y-82550000D01*
%TO.N,/I2C_PINOUT4/SDA*%
X162052000Y-63500000D02*
X160900300Y-63500000D01*
X159725000Y-64675300D02*
X152239500Y-64675300D01*
X160900300Y-63500000D02*
X159725000Y-64675300D01*
%TO.N,/I2C_PINOUT4/SCL*%
X162052000Y-60960000D02*
X160900300Y-60960000D01*
X154566800Y-62111700D02*
X153501700Y-63176800D01*
X159748600Y-62111700D02*
X154566800Y-62111700D01*
X160900300Y-60960000D02*
X159748600Y-62111700D01*
%TO.N,/US_SCL*%
X105550700Y-97747400D02*
X104492300Y-96689000D01*
X142549800Y-97747400D02*
X105550700Y-97747400D01*
%TO.N,/US_SDA*%
X107700400Y-100330000D02*
X134249500Y-100330000D01*
X106437300Y-101593100D02*
X107700400Y-100330000D01*
%TO.N,/I2C_PINOUT11/SDA*%
X96037000Y-109220000D02*
X97188700Y-109220000D01*
X100526000Y-105882700D02*
X109060300Y-105882700D01*
X97188700Y-109220000D02*
X100526000Y-105882700D01*
%TO.N,/GPIO5*%
X114211700Y-81310000D02*
X114181700Y-81280000D01*
X120650000Y-81310000D02*
X114211700Y-81310000D01*
X113030000Y-81280000D02*
X113605900Y-81280000D01*
X113605900Y-81280000D02*
X114181700Y-81280000D01*
X110803700Y-78477800D02*
X113605900Y-81280000D01*
X110803700Y-74604700D02*
X110803700Y-78477800D01*
X109859000Y-73660000D02*
X110803700Y-74604700D01*
%TO.N,/SENSOR_SCL*%
X134738300Y-51878100D02*
X132026100Y-54590300D01*
X134738300Y-50800000D02*
X134738300Y-51878100D01*
X135890000Y-50800000D02*
X134738300Y-50800000D01*
X105323800Y-95251500D02*
X133591700Y-95251500D01*
X105102100Y-95473200D02*
X105323800Y-95251500D01*
X99562400Y-95473200D02*
X105102100Y-95473200D01*
%TO.N,/I2C_PINOUT9/SCL*%
X105643200Y-89667800D02*
X106103200Y-90127800D01*
X97992700Y-89667800D02*
X105643200Y-89667800D01*
X96037000Y-87712100D02*
X97992700Y-89667800D01*
X96037000Y-86360000D02*
X96037000Y-87712100D01*
%TO.N,/OLED_SDA*%
X120177000Y-114300000D02*
X119025300Y-114300000D01*
X107999900Y-102938000D02*
X105817000Y-102938000D01*
X119025300Y-113963400D02*
X107999900Y-102938000D01*
X119025300Y-114300000D02*
X119025300Y-113963400D01*
%TO.N,/I2C_PINOUT10/SDA*%
X103448900Y-96520000D02*
X104480500Y-97551600D01*
X96037000Y-96520000D02*
X103448900Y-96520000D01*
%TO.N,/GPIO6*%
X114211700Y-83850000D02*
X114181700Y-83820000D01*
X120650000Y-83850000D02*
X114211700Y-83850000D01*
X113605900Y-83820000D02*
X114181700Y-83820000D01*
X113605900Y-83820000D02*
X113030000Y-83820000D01*
X110490000Y-83820000D02*
X109220000Y-85090000D01*
X113030000Y-83820000D02*
X110490000Y-83820000D01*
%TO.N,/I2C_PINOUT10/SCL*%
X100911000Y-102782300D02*
X101548100Y-102782300D01*
X97188700Y-99060000D02*
X100911000Y-102782300D01*
X96037000Y-99060000D02*
X97188700Y-99060000D01*
X102724200Y-107095700D02*
X106707100Y-107095700D01*
X101877200Y-107942700D02*
X102724200Y-107095700D01*
%TO.N,/I2C_PINOUT9/SDA*%
X98427100Y-83820000D02*
X100083400Y-85476300D01*
X96037000Y-83820000D02*
X98427100Y-83820000D01*
%TO.N,/I2C_PINOUT11/SCL*%
X96037000Y-111760000D02*
X97188700Y-111760000D01*
X102464300Y-106484400D02*
X97188700Y-111760000D01*
X109663800Y-106484400D02*
X102464300Y-106484400D01*
X109827000Y-106321200D02*
X109663800Y-106484400D01*
%TO.N,/SENSOR_SDA*%
X133350000Y-50800000D02*
X132198300Y-50800000D01*
X117117900Y-51440500D02*
X117117900Y-51844000D01*
X117969500Y-50588900D02*
X117117900Y-51440500D01*
X119453300Y-50588900D02*
X117969500Y-50588900D01*
X120522700Y-51658300D02*
X119453300Y-50588900D01*
X131340000Y-51658300D02*
X120522700Y-51658300D01*
X132198300Y-50800000D02*
X131340000Y-51658300D01*
X111048100Y-94849800D02*
X104578700Y-94849800D01*
X111670800Y-94227100D02*
X111048100Y-94849800D01*
%TO.N,/OLED_SCL*%
X106761800Y-110631500D02*
X104238800Y-110631500D01*
X111582000Y-115451700D02*
X106761800Y-110631500D01*
X115621600Y-115451700D02*
X111582000Y-115451700D01*
X116485300Y-114588000D02*
X115621600Y-115451700D01*
X116485300Y-114300000D02*
X116485300Y-114588000D01*
X117637000Y-114300000D02*
X116485300Y-114300000D01*
%TO.N,Net-(U2-~{RESET})*%
X147428000Y-57704500D02*
X147756100Y-57704500D01*
X143317500Y-53594000D02*
X147428000Y-57704500D01*
%TO.N,Net-(JP8-B)*%
X148109000Y-65024000D02*
X147307300Y-65024000D01*
X146859900Y-64576600D02*
X143468200Y-64576600D01*
X147307300Y-65024000D02*
X146859900Y-64576600D01*
X140909400Y-64576600D02*
X139700000Y-65786000D01*
X143468200Y-64576600D02*
X140909400Y-64576600D01*
%TO.N,Net-(JP7-B)*%
X148107000Y-62230000D02*
X147305300Y-62230000D01*
X140642300Y-61902300D02*
X145268500Y-61902300D01*
X139446000Y-60706000D02*
X140642300Y-61902300D01*
X145596200Y-62230000D02*
X145268500Y-61902300D01*
X147305300Y-62230000D02*
X145596200Y-62230000D01*
X145268500Y-61902300D02*
X145268500Y-61297100D01*
%TO.N,Net-(U1-~{RESET})*%
X106477700Y-90729700D02*
X104343600Y-90729700D01*
X107696000Y-91948000D02*
X106477700Y-90729700D01*
%TO.N,Net-(JP3-A)*%
X105226000Y-98806000D02*
X106027700Y-98806000D01*
X106725400Y-93386400D02*
X105287000Y-91948000D01*
X106027700Y-98806000D02*
X106705000Y-98806000D01*
%TO.N,Net-(JP4-B)*%
X100072100Y-91690100D02*
X101170600Y-91690100D01*
X99060000Y-90678000D02*
X100072100Y-91690100D01*
X103911000Y-101600000D02*
X103911000Y-100548300D01*
X103853600Y-100548300D02*
X100449100Y-97143800D01*
X103911000Y-100548300D02*
X103853600Y-100548300D01*
%TO.N,Net-(JP5-B)*%
X102270300Y-87792300D02*
X101533900Y-87792300D01*
X102616000Y-88138000D02*
X102270300Y-87792300D01*
X103911000Y-104394000D02*
X103109300Y-104394000D01*
X103109300Y-101277800D02*
X100099000Y-98267500D01*
X103109300Y-104394000D02*
X103109300Y-101277800D01*
%TO.N,Net-(JP6-A)*%
X149409000Y-54667000D02*
X148336000Y-53594000D01*
X149409000Y-59436000D02*
X149409000Y-54667000D01*
X151286600Y-58360100D02*
X153518100Y-58360100D01*
X150210700Y-59436000D02*
X151286600Y-58360100D01*
X149409000Y-59436000D02*
X150210700Y-59436000D01*
%TO.N,Net-(U4-SS)*%
X133595800Y-58674000D02*
X133275300Y-58353500D01*
X134366000Y-58674000D02*
X133595800Y-58674000D01*
%TO.N,Net-(12V1-A)*%
X114456400Y-52070000D02*
X114499800Y-52026600D01*
X112145000Y-52070000D02*
X114456400Y-52070000D01*
X115359400Y-52026600D02*
X115570000Y-51816000D01*
X114499800Y-52026600D02*
X115359400Y-52026600D01*
%TO.N,Net-(R13-Pad2)*%
X103153100Y-58881000D02*
X104343100Y-60071000D01*
X98722000Y-58881000D02*
X103153100Y-58881000D01*
X97282000Y-60321000D02*
X98722000Y-58881000D01*
%TO.N,Net-(U5-ILM)*%
X101418100Y-64457100D02*
X101418100Y-60071000D01*
X101854000Y-64893000D02*
X101418100Y-64457100D01*
X101854000Y-64893000D02*
X100350700Y-64893000D01*
%TO.N,Net-(D1-A)*%
X134626000Y-72259000D02*
X134626000Y-73406000D01*
X134872700Y-72012300D02*
X134626000Y-72259000D01*
X132779400Y-69919000D02*
X134872700Y-72012300D01*
X110925100Y-69919000D02*
X132779400Y-69919000D01*
%TO.N,Net-(D1-K)*%
X128246000Y-73406000D02*
X127992000Y-73660000D01*
X131826000Y-73406000D02*
X128246000Y-73406000D01*
X131574400Y-77050100D02*
X132515800Y-77050100D01*
X130519500Y-78105000D02*
X131574400Y-77050100D01*
X134585100Y-77050100D02*
X135767000Y-78232000D01*
X132515800Y-77050100D02*
X134585100Y-77050100D01*
X132515800Y-74095800D02*
X132515800Y-77050100D01*
X131826000Y-73406000D02*
X132515800Y-74095800D01*
X109176000Y-68072000D02*
X109268200Y-68164200D01*
X106426000Y-68072000D02*
X109176000Y-68072000D01*
X126755600Y-72423600D02*
X127992000Y-73660000D01*
X123586600Y-72423600D02*
X126755600Y-72423600D01*
X121159400Y-74850800D02*
X123586600Y-72423600D01*
X112592000Y-74850800D02*
X121159400Y-74850800D01*
X111203900Y-73462700D02*
X112592000Y-74850800D01*
X111203900Y-71180600D02*
X111203900Y-73462700D01*
X109268200Y-69244900D02*
X111203900Y-71180600D01*
X109268200Y-68164200D02*
X109268200Y-69244900D01*
%TO.N,Net-(U5-EN{slash}UVLO)*%
X110289700Y-67109700D02*
X109109900Y-67109700D01*
X110490000Y-67310000D02*
X110289700Y-67109700D01*
%TO.N,Net-(U4-COMP)*%
X133488800Y-60844800D02*
X134112000Y-61468000D01*
X131152000Y-60844800D02*
X133488800Y-60844800D01*
%TO.N,Net-(C1-Pad1)*%
X135510900Y-59941900D02*
X137037000Y-61468000D01*
X132995900Y-59941900D02*
X135510900Y-59941900D01*
X131728000Y-58674000D02*
X132995900Y-59941900D01*
%TO.N,Net-(U4-FB)*%
X123190000Y-82550000D02*
X123190000Y-79708400D01*
X122682000Y-79200400D02*
X123190000Y-79708400D01*
X122682000Y-78486000D02*
X122682000Y-79200400D01*
X127594500Y-78318200D02*
X127594500Y-78105000D01*
X126204300Y-79708400D02*
X127594500Y-78318200D01*
X123190000Y-79708400D02*
X126204300Y-79708400D01*
X129777600Y-75921900D02*
X131910500Y-75921900D01*
X127594500Y-78105000D02*
X129777600Y-75921900D01*
%TO.N,Net-(R1-Pad2)*%
X130357300Y-80716700D02*
X132842000Y-78232000D01*
X127948300Y-80716700D02*
X130357300Y-80716700D01*
X126115000Y-82550000D02*
X127948300Y-80716700D01*
%TO.N,GND*%
X124804500Y-59055000D02*
X128397000Y-59055000D01*
X128397000Y-59055000D02*
X128778000Y-58674000D01*
X112506400Y-55524400D02*
X113202000Y-56220000D01*
X110607300Y-55524400D02*
X112506400Y-55524400D01*
X99920000Y-69752000D02*
X101854000Y-67818000D01*
X99920000Y-71120000D02*
X99920000Y-69752000D01*
X111683800Y-63191200D02*
X110490000Y-64385000D01*
X111683800Y-60985400D02*
X111683800Y-63191200D01*
X140970000Y-58043000D02*
X140339000Y-58674000D01*
X140970000Y-55855000D02*
X140970000Y-58043000D01*
X140339000Y-58674000D02*
X142371000Y-60706000D01*
X151515000Y-53340000D02*
X151261000Y-53594000D01*
X158750000Y-53340000D02*
X151515000Y-53340000D01*
X107861700Y-121920000D02*
X108200000Y-121581700D01*
X100330000Y-121920000D02*
X107861700Y-121920000D01*
X108200000Y-120280000D02*
X108200000Y-121581700D01*
X114211700Y-99090000D02*
X114181700Y-99060000D01*
X120650000Y-99090000D02*
X114211700Y-99090000D01*
X113030000Y-99060000D02*
X114181700Y-99060000D01*
X102514400Y-55524400D02*
X110607300Y-55524400D01*
X100330000Y-53340000D02*
X102514400Y-55524400D01*
X133427000Y-117312000D02*
X139927000Y-117312000D01*
X139927000Y-117312000D02*
X146277000Y-117312000D01*
X157385000Y-121920000D02*
X152777000Y-117312000D01*
X158750000Y-121920000D02*
X157385000Y-121920000D01*
X152777000Y-117312000D02*
X146277000Y-117312000D01*
X128524000Y-62738000D02*
X131318000Y-65532000D01*
X131318000Y-65532000D02*
X133858000Y-65532000D01*
X102008300Y-92301700D02*
X102362000Y-91948000D01*
X98050400Y-92301700D02*
X102008300Y-92301700D01*
X97188700Y-91440000D02*
X98050400Y-92301700D01*
X96037000Y-91440000D02*
X97188700Y-91440000D01*
X100707000Y-81280000D02*
X100707000Y-83820000D01*
X156972000Y-106680000D02*
X162052000Y-106680000D01*
X156997000Y-81280000D02*
X162052000Y-81280000D01*
X162052000Y-68580000D02*
X156972000Y-68580000D01*
X162052000Y-93980000D02*
X156972000Y-93980000D01*
X116840000Y-123258300D02*
X108200000Y-123258300D01*
X116840000Y-124460000D02*
X116840000Y-123258300D01*
X108200000Y-124460000D02*
X108200000Y-123258300D01*
X109753000Y-65122000D02*
X106426000Y-65122000D01*
X110490000Y-64385000D02*
X109753000Y-65122000D01*
X103730000Y-67818000D02*
X101854000Y-67818000D01*
X106426000Y-65122000D02*
X103730000Y-67818000D01*
X97282000Y-66040000D02*
X97282000Y-63246000D01*
X96037000Y-66040000D02*
X97282000Y-66040000D01*
X100076000Y-66040000D02*
X101854000Y-67818000D01*
X97282000Y-66040000D02*
X100076000Y-66040000D01*
X105541000Y-88138000D02*
X107696000Y-88138000D01*
X100707000Y-83820000D02*
X100707000Y-86943800D01*
X104346800Y-86943800D02*
X105541000Y-88138000D01*
X100707000Y-86943800D02*
X104346800Y-86943800D01*
X148467000Y-50800000D02*
X151261000Y-53594000D01*
X140970000Y-50800000D02*
X148467000Y-50800000D01*
X140339000Y-58674000D02*
X137316000Y-58674000D01*
X128524300Y-59182300D02*
X128397000Y-59055000D01*
X128524300Y-62737700D02*
X128524300Y-59182300D01*
X128524000Y-62738000D02*
X128524300Y-62737700D01*
X118495000Y-51816000D02*
X118495000Y-54426300D01*
X118896700Y-54828000D02*
X118495000Y-54426300D01*
X121870000Y-54828000D02*
X118896700Y-54828000D01*
X114995700Y-54426300D02*
X113202000Y-56220000D01*
X118495000Y-54426300D02*
X114995700Y-54426300D01*
X99060000Y-87753000D02*
X96984800Y-87753000D01*
X146050000Y-73660000D02*
X138430000Y-73660000D01*
X128930000Y-68199000D02*
X130691500Y-68199000D01*
X131969200Y-69476700D02*
X130691500Y-68199000D01*
X133239000Y-69476700D02*
X131969200Y-69476700D01*
X137278300Y-73516000D02*
X133239000Y-69476700D01*
X137278300Y-73660000D02*
X137278300Y-73516000D01*
X138430000Y-73660000D02*
X137278300Y-73660000D01*
X135075300Y-64314700D02*
X133858000Y-65532000D01*
X137353200Y-64314700D02*
X135075300Y-64314700D01*
X138363100Y-65324600D02*
X137353200Y-64314700D01*
X138363100Y-66168100D02*
X138363100Y-65324600D01*
X139160600Y-66965600D02*
X138363100Y-66168100D01*
X141445400Y-66965600D02*
X139160600Y-66965600D01*
X142625000Y-65786000D02*
X141445400Y-66965600D01*
X111840200Y-60829000D02*
X115483100Y-60829000D01*
X111683800Y-60985400D02*
X111840200Y-60829000D01*
X115483100Y-60829000D02*
X119126000Y-60829000D01*
X112164300Y-57257700D02*
X113202000Y-56220000D01*
X110036100Y-57257700D02*
X112164300Y-57257700D01*
X109363800Y-57930000D02*
X110036100Y-57257700D01*
X109363800Y-59648100D02*
X109363800Y-57930000D01*
X110544700Y-60829000D02*
X109363800Y-59648100D01*
X115483100Y-60829000D02*
X110544700Y-60829000D01*
X121870000Y-54828000D02*
X128370000Y-54828000D01*
X130011600Y-56469600D02*
X130011600Y-57440400D01*
X128370000Y-54828000D02*
X130011600Y-56469600D01*
X136082400Y-57440400D02*
X130011600Y-57440400D01*
X137316000Y-58674000D02*
X136082400Y-57440400D01*
X130011600Y-57440400D02*
X128778000Y-58674000D01*
X130691500Y-66158500D02*
X130691500Y-68199000D01*
X131318000Y-65532000D02*
X130691500Y-66158500D01*
X102574700Y-79701300D02*
X102574700Y-81196600D01*
X103536000Y-78740000D02*
X102574700Y-79701300D01*
X100790400Y-81196600D02*
X100707000Y-81280000D01*
X102574700Y-81196600D02*
X100790400Y-81196600D01*
X125607000Y-74225000D02*
X125607000Y-76332700D01*
X125042000Y-73660000D02*
X125607000Y-74225000D01*
X125607000Y-76332700D02*
X125607000Y-78486000D01*
X125607000Y-76332700D02*
X126125500Y-76332700D01*
X99897800Y-87753000D02*
X100707000Y-86943800D01*
X99060000Y-87753000D02*
X99897800Y-87753000D01*
%TD*%
M02*
