%TF.GenerationSoftware,KiCad,Pcbnew,8.0.7*%
%TF.CreationDate,2025-01-25T18:45:03-05:00*%
%TF.ProjectId,shadow,73686164-6f77-42e6-9b69-6361645f7063,rev?*%
%TF.SameCoordinates,Original*%
%TF.FileFunction,Legend,Top*%
%TF.FilePolarity,Positive*%
%FSLAX46Y46*%
G04 Gerber Fmt 4.6, Leading zero omitted, Abs format (unit mm)*
G04 Created by KiCad (PCBNEW 8.0.7) date 2025-01-25 18:45:03*
%MOMM*%
%LPD*%
G01*
G04 APERTURE LIST*
G04 Aperture macros list*
%AMRoundRect*
0 Rectangle with rounded corners*
0 $1 Rounding radius*
0 $2 $3 $4 $5 $6 $7 $8 $9 X,Y pos of 4 corners*
0 Add a 4 corners polygon primitive as box body*
4,1,4,$2,$3,$4,$5,$6,$7,$8,$9,$2,$3,0*
0 Add four circle primitives for the rounded corners*
1,1,$1+$1,$2,$3*
1,1,$1+$1,$4,$5*
1,1,$1+$1,$6,$7*
1,1,$1+$1,$8,$9*
0 Add four rect primitives between the rounded corners*
20,1,$1+$1,$2,$3,$4,$5,0*
20,1,$1+$1,$4,$5,$6,$7,0*
20,1,$1+$1,$6,$7,$8,$9,0*
20,1,$1+$1,$8,$9,$2,$3,0*%
G04 Aperture macros list end*
%ADD10C,0.200000*%
%ADD11C,0.275400*%
%ADD12C,0.125000*%
%ADD13C,0.150000*%
%ADD14C,0.120000*%
%ADD15C,0.152500*%
%ADD16C,0.300000*%
%ADD17C,0.127000*%
%ADD18C,0.010000*%
%ADD19RoundRect,0.250000X-0.375000X-0.625000X0.375000X-0.625000X0.375000X0.625000X-0.375000X0.625000X0*%
%ADD20R,1.700000X1.700000*%
%ADD21O,1.700000X1.700000*%
%ADD22RoundRect,0.250000X0.600000X0.750000X-0.600000X0.750000X-0.600000X-0.750000X0.600000X-0.750000X0*%
%ADD23O,1.700000X2.000000*%
%ADD24R,2.200000X1.500000*%
%ADD25O,0.574000X2.038000*%
%ADD26R,2.000000X2.000000*%
%ADD27C,2.000000*%
%ADD28RoundRect,0.100000X-0.637500X-0.100000X0.637500X-0.100000X0.637500X0.100000X-0.637500X0.100000X0*%
%ADD29C,7.500000*%
%ADD30RoundRect,0.102000X-0.785000X-0.940000X0.785000X-0.940000X0.785000X0.940000X-0.785000X0.940000X0*%
%ADD31R,1.600000X1.600000*%
%ADD32O,1.600000X1.600000*%
%ADD33C,0.700000*%
%ADD34O,0.900000X2.400000*%
%ADD35O,0.900000X1.700000*%
%ADD36RoundRect,0.085500X-0.751500X-0.256500X0.751500X-0.256500X0.751500X0.256500X-0.751500X0.256500X0*%
G04 APERTURE END LIST*
D10*
X152638475Y-62902743D02*
X151638475Y-62902743D01*
X151638475Y-62902743D02*
X151638475Y-62521791D01*
X151638475Y-62521791D02*
X151686094Y-62426553D01*
X151686094Y-62426553D02*
X151733713Y-62378934D01*
X151733713Y-62378934D02*
X151828951Y-62331315D01*
X151828951Y-62331315D02*
X151971808Y-62331315D01*
X151971808Y-62331315D02*
X152067046Y-62378934D01*
X152067046Y-62378934D02*
X152114665Y-62426553D01*
X152114665Y-62426553D02*
X152162284Y-62521791D01*
X152162284Y-62521791D02*
X152162284Y-62902743D01*
X151971808Y-61474172D02*
X152638475Y-61474172D01*
X151971808Y-61902743D02*
X152495617Y-61902743D01*
X152495617Y-61902743D02*
X152590856Y-61855124D01*
X152590856Y-61855124D02*
X152638475Y-61759886D01*
X152638475Y-61759886D02*
X152638475Y-61617029D01*
X152638475Y-61617029D02*
X152590856Y-61521791D01*
X152590856Y-61521791D02*
X152543236Y-61474172D01*
X151971808Y-61140838D02*
X151971808Y-60759886D01*
X151638475Y-60997981D02*
X152495617Y-60997981D01*
X152495617Y-60997981D02*
X152590856Y-60950362D01*
X152590856Y-60950362D02*
X152638475Y-60855124D01*
X152638475Y-60855124D02*
X152638475Y-60759886D01*
X151971808Y-59807504D02*
X151971808Y-59426552D01*
X151638475Y-59664647D02*
X152495617Y-59664647D01*
X152495617Y-59664647D02*
X152590856Y-59617028D01*
X152590856Y-59617028D02*
X152638475Y-59521790D01*
X152638475Y-59521790D02*
X152638475Y-59426552D01*
X152638475Y-59093218D02*
X151638475Y-59093218D01*
X152638475Y-58664647D02*
X152114665Y-58664647D01*
X152114665Y-58664647D02*
X152019427Y-58712266D01*
X152019427Y-58712266D02*
X151971808Y-58807504D01*
X151971808Y-58807504D02*
X151971808Y-58950361D01*
X151971808Y-58950361D02*
X152019427Y-59045599D01*
X152019427Y-59045599D02*
X152067046Y-59093218D01*
X152638475Y-57759885D02*
X152114665Y-57759885D01*
X152114665Y-57759885D02*
X152019427Y-57807504D01*
X152019427Y-57807504D02*
X151971808Y-57902742D01*
X151971808Y-57902742D02*
X151971808Y-58093218D01*
X151971808Y-58093218D02*
X152019427Y-58188456D01*
X152590856Y-57759885D02*
X152638475Y-57855123D01*
X152638475Y-57855123D02*
X152638475Y-58093218D01*
X152638475Y-58093218D02*
X152590856Y-58188456D01*
X152590856Y-58188456D02*
X152495617Y-58236075D01*
X152495617Y-58236075D02*
X152400379Y-58236075D01*
X152400379Y-58236075D02*
X152305141Y-58188456D01*
X152305141Y-58188456D02*
X152257522Y-58093218D01*
X152257522Y-58093218D02*
X152257522Y-57855123D01*
X152257522Y-57855123D02*
X152209903Y-57759885D01*
X151971808Y-57426551D02*
X151971808Y-57045599D01*
X151638475Y-57283694D02*
X152495617Y-57283694D01*
X152495617Y-57283694D02*
X152590856Y-57236075D01*
X152590856Y-57236075D02*
X152638475Y-57140837D01*
X152638475Y-57140837D02*
X152638475Y-57045599D01*
X154248419Y-61783694D02*
X153248419Y-61783694D01*
X153629371Y-61783694D02*
X153581752Y-61688456D01*
X153581752Y-61688456D02*
X153581752Y-61497980D01*
X153581752Y-61497980D02*
X153629371Y-61402742D01*
X153629371Y-61402742D02*
X153676990Y-61355123D01*
X153676990Y-61355123D02*
X153772228Y-61307504D01*
X153772228Y-61307504D02*
X154057942Y-61307504D01*
X154057942Y-61307504D02*
X154153180Y-61355123D01*
X154153180Y-61355123D02*
X154200800Y-61402742D01*
X154200800Y-61402742D02*
X154248419Y-61497980D01*
X154248419Y-61497980D02*
X154248419Y-61688456D01*
X154248419Y-61688456D02*
X154200800Y-61783694D01*
X154248419Y-60450361D02*
X153724609Y-60450361D01*
X153724609Y-60450361D02*
X153629371Y-60497980D01*
X153629371Y-60497980D02*
X153581752Y-60593218D01*
X153581752Y-60593218D02*
X153581752Y-60783694D01*
X153581752Y-60783694D02*
X153629371Y-60878932D01*
X154200800Y-60450361D02*
X154248419Y-60545599D01*
X154248419Y-60545599D02*
X154248419Y-60783694D01*
X154248419Y-60783694D02*
X154200800Y-60878932D01*
X154200800Y-60878932D02*
X154105561Y-60926551D01*
X154105561Y-60926551D02*
X154010323Y-60926551D01*
X154010323Y-60926551D02*
X153915085Y-60878932D01*
X153915085Y-60878932D02*
X153867466Y-60783694D01*
X153867466Y-60783694D02*
X153867466Y-60545599D01*
X153867466Y-60545599D02*
X153819847Y-60450361D01*
X154200800Y-59545599D02*
X154248419Y-59640837D01*
X154248419Y-59640837D02*
X154248419Y-59831313D01*
X154248419Y-59831313D02*
X154200800Y-59926551D01*
X154200800Y-59926551D02*
X154153180Y-59974170D01*
X154153180Y-59974170D02*
X154057942Y-60021789D01*
X154057942Y-60021789D02*
X153772228Y-60021789D01*
X153772228Y-60021789D02*
X153676990Y-59974170D01*
X153676990Y-59974170D02*
X153629371Y-59926551D01*
X153629371Y-59926551D02*
X153581752Y-59831313D01*
X153581752Y-59831313D02*
X153581752Y-59640837D01*
X153581752Y-59640837D02*
X153629371Y-59545599D01*
X154248419Y-59117027D02*
X153248419Y-59117027D01*
X153867466Y-59021789D02*
X154248419Y-58736075D01*
X153581752Y-58736075D02*
X153962704Y-59117027D01*
X154153180Y-58307503D02*
X154200800Y-58259884D01*
X154200800Y-58259884D02*
X154248419Y-58307503D01*
X154248419Y-58307503D02*
X154200800Y-58355122D01*
X154200800Y-58355122D02*
X154153180Y-58307503D01*
X154153180Y-58307503D02*
X154248419Y-58307503D01*
X153867466Y-58307503D02*
X153296038Y-58355122D01*
X153296038Y-58355122D02*
X153248419Y-58307503D01*
X153248419Y-58307503D02*
X153296038Y-58259884D01*
X153296038Y-58259884D02*
X153867466Y-58307503D01*
X153867466Y-58307503D02*
X153248419Y-58307503D01*
D11*
X145875876Y-113487922D02*
X146356638Y-115170589D01*
X146356638Y-115170589D02*
X146837400Y-113968684D01*
X146837400Y-113968684D02*
X147318162Y-115170589D01*
X147318162Y-115170589D02*
X147798924Y-113487922D01*
X152644057Y-113002189D02*
X152644057Y-115045427D01*
X152644057Y-115045427D02*
X152764247Y-115285808D01*
X152764247Y-115285808D02*
X152884438Y-115405999D01*
X152884438Y-115405999D02*
X153124819Y-115526189D01*
X153124819Y-115526189D02*
X153605581Y-115526189D01*
X153605581Y-115526189D02*
X153845962Y-115405999D01*
X153845962Y-115405999D02*
X153966152Y-115285808D01*
X153966152Y-115285808D02*
X154086343Y-115045427D01*
X154086343Y-115045427D02*
X154086343Y-113002189D01*
X139613857Y-112824389D02*
X139613857Y-114867627D01*
X139613857Y-114867627D02*
X139734047Y-115108008D01*
X139734047Y-115108008D02*
X139854238Y-115228199D01*
X139854238Y-115228199D02*
X140094619Y-115348389D01*
X140094619Y-115348389D02*
X140575381Y-115348389D01*
X140575381Y-115348389D02*
X140815762Y-115228199D01*
X140815762Y-115228199D02*
X140935952Y-115108008D01*
X140935952Y-115108008D02*
X141056143Y-114867627D01*
X141056143Y-114867627D02*
X141056143Y-112824389D01*
D12*
X143175600Y-120587919D02*
X143747028Y-120587919D01*
X143461314Y-121587919D02*
X143461314Y-120587919D01*
X144508933Y-120921252D02*
X144508933Y-121587919D01*
X144080362Y-120921252D02*
X144080362Y-121445061D01*
X144080362Y-121445061D02*
X144127981Y-121540300D01*
X144127981Y-121540300D02*
X144223219Y-121587919D01*
X144223219Y-121587919D02*
X144366076Y-121587919D01*
X144366076Y-121587919D02*
X144461314Y-121540300D01*
X144461314Y-121540300D02*
X144508933Y-121492680D01*
X144985124Y-121587919D02*
X144985124Y-120921252D01*
X144985124Y-121111728D02*
X145032743Y-121016490D01*
X145032743Y-121016490D02*
X145080362Y-120968871D01*
X145080362Y-120968871D02*
X145175600Y-120921252D01*
X145175600Y-120921252D02*
X145270838Y-120921252D01*
X145604172Y-120921252D02*
X145604172Y-121587919D01*
X145604172Y-121016490D02*
X145651791Y-120968871D01*
X145651791Y-120968871D02*
X145747029Y-120921252D01*
X145747029Y-120921252D02*
X145889886Y-120921252D01*
X145889886Y-120921252D02*
X145985124Y-120968871D01*
X145985124Y-120968871D02*
X146032743Y-121064109D01*
X146032743Y-121064109D02*
X146032743Y-121587919D01*
X147270839Y-121587919D02*
X147270839Y-120921252D01*
X147270839Y-121016490D02*
X147318458Y-120968871D01*
X147318458Y-120968871D02*
X147413696Y-120921252D01*
X147413696Y-120921252D02*
X147556553Y-120921252D01*
X147556553Y-120921252D02*
X147651791Y-120968871D01*
X147651791Y-120968871D02*
X147699410Y-121064109D01*
X147699410Y-121064109D02*
X147699410Y-121587919D01*
X147699410Y-121064109D02*
X147747029Y-120968871D01*
X147747029Y-120968871D02*
X147842267Y-120921252D01*
X147842267Y-120921252D02*
X147985124Y-120921252D01*
X147985124Y-120921252D02*
X148080363Y-120968871D01*
X148080363Y-120968871D02*
X148127982Y-121064109D01*
X148127982Y-121064109D02*
X148127982Y-121587919D01*
X148985124Y-121540300D02*
X148889886Y-121587919D01*
X148889886Y-121587919D02*
X148699410Y-121587919D01*
X148699410Y-121587919D02*
X148604172Y-121540300D01*
X148604172Y-121540300D02*
X148556553Y-121445061D01*
X148556553Y-121445061D02*
X148556553Y-121064109D01*
X148556553Y-121064109D02*
X148604172Y-120968871D01*
X148604172Y-120968871D02*
X148699410Y-120921252D01*
X148699410Y-120921252D02*
X148889886Y-120921252D01*
X148889886Y-120921252D02*
X148985124Y-120968871D01*
X148985124Y-120968871D02*
X149032743Y-121064109D01*
X149032743Y-121064109D02*
X149032743Y-121159347D01*
X149032743Y-121159347D02*
X148556553Y-121254585D01*
X150366077Y-121587919D02*
X150270839Y-121540300D01*
X150270839Y-121540300D02*
X150223220Y-121492680D01*
X150223220Y-121492680D02*
X150175601Y-121397442D01*
X150175601Y-121397442D02*
X150175601Y-121111728D01*
X150175601Y-121111728D02*
X150223220Y-121016490D01*
X150223220Y-121016490D02*
X150270839Y-120968871D01*
X150270839Y-120968871D02*
X150366077Y-120921252D01*
X150366077Y-120921252D02*
X150508934Y-120921252D01*
X150508934Y-120921252D02*
X150604172Y-120968871D01*
X150604172Y-120968871D02*
X150651791Y-121016490D01*
X150651791Y-121016490D02*
X150699410Y-121111728D01*
X150699410Y-121111728D02*
X150699410Y-121397442D01*
X150699410Y-121397442D02*
X150651791Y-121492680D01*
X150651791Y-121492680D02*
X150604172Y-121540300D01*
X150604172Y-121540300D02*
X150508934Y-121587919D01*
X150508934Y-121587919D02*
X150366077Y-121587919D01*
X151127982Y-120921252D02*
X151127982Y-121587919D01*
X151127982Y-121016490D02*
X151175601Y-120968871D01*
X151175601Y-120968871D02*
X151270839Y-120921252D01*
X151270839Y-120921252D02*
X151413696Y-120921252D01*
X151413696Y-120921252D02*
X151508934Y-120968871D01*
X151508934Y-120968871D02*
X151556553Y-121064109D01*
X151556553Y-121064109D02*
X151556553Y-121587919D01*
X152032744Y-121492680D02*
X152080363Y-121540300D01*
X152080363Y-121540300D02*
X152032744Y-121587919D01*
X152032744Y-121587919D02*
X151985125Y-121540300D01*
X151985125Y-121540300D02*
X152032744Y-121492680D01*
X152032744Y-121492680D02*
X152032744Y-121587919D01*
X152032744Y-121206966D02*
X151985125Y-120635538D01*
X151985125Y-120635538D02*
X152032744Y-120587919D01*
X152032744Y-120587919D02*
X152080363Y-120635538D01*
X152080363Y-120635538D02*
X152032744Y-121206966D01*
X152032744Y-121206966D02*
X152032744Y-120587919D01*
X113341685Y-123660975D02*
X113341685Y-122660975D01*
X113675018Y-122994308D02*
X114055970Y-122994308D01*
X113817875Y-123660975D02*
X113817875Y-122803832D01*
X113817875Y-122803832D02*
X113865494Y-122708594D01*
X113865494Y-122708594D02*
X113960732Y-122660975D01*
X113960732Y-122660975D02*
X114055970Y-122660975D01*
X115151209Y-122660975D02*
X115151209Y-123470498D01*
X115151209Y-123470498D02*
X115198828Y-123565736D01*
X115198828Y-123565736D02*
X115246447Y-123613356D01*
X115246447Y-123613356D02*
X115341685Y-123660975D01*
X115341685Y-123660975D02*
X115532161Y-123660975D01*
X115532161Y-123660975D02*
X115627399Y-123613356D01*
X115627399Y-123613356D02*
X115675018Y-123565736D01*
X115675018Y-123565736D02*
X115722637Y-123470498D01*
X115722637Y-123470498D02*
X115722637Y-122660975D01*
X116151209Y-123613356D02*
X116294066Y-123660975D01*
X116294066Y-123660975D02*
X116532161Y-123660975D01*
X116532161Y-123660975D02*
X116627399Y-123613356D01*
X116627399Y-123613356D02*
X116675018Y-123565736D01*
X116675018Y-123565736D02*
X116722637Y-123470498D01*
X116722637Y-123470498D02*
X116722637Y-123375260D01*
X116722637Y-123375260D02*
X116675018Y-123280022D01*
X116675018Y-123280022D02*
X116627399Y-123232403D01*
X116627399Y-123232403D02*
X116532161Y-123184784D01*
X116532161Y-123184784D02*
X116341685Y-123137165D01*
X116341685Y-123137165D02*
X116246447Y-123089546D01*
X116246447Y-123089546D02*
X116198828Y-123041927D01*
X116198828Y-123041927D02*
X116151209Y-122946689D01*
X116151209Y-122946689D02*
X116151209Y-122851451D01*
X116151209Y-122851451D02*
X116198828Y-122756213D01*
X116198828Y-122756213D02*
X116246447Y-122708594D01*
X116246447Y-122708594D02*
X116341685Y-122660975D01*
X116341685Y-122660975D02*
X116579780Y-122660975D01*
X116579780Y-122660975D02*
X116722637Y-122708594D01*
X117103590Y-123375260D02*
X117579780Y-123375260D01*
X117008352Y-123660975D02*
X117341685Y-122660975D01*
X117341685Y-122660975D02*
X117675018Y-123660975D01*
X119198828Y-122994308D02*
X119198828Y-123803832D01*
X119198828Y-123803832D02*
X119151209Y-123899070D01*
X119151209Y-123899070D02*
X119103590Y-123946689D01*
X119103590Y-123946689D02*
X119008352Y-123994308D01*
X119008352Y-123994308D02*
X118865495Y-123994308D01*
X118865495Y-123994308D02*
X118770257Y-123946689D01*
X119198828Y-123613356D02*
X119103590Y-123660975D01*
X119103590Y-123660975D02*
X118913114Y-123660975D01*
X118913114Y-123660975D02*
X118817876Y-123613356D01*
X118817876Y-123613356D02*
X118770257Y-123565736D01*
X118770257Y-123565736D02*
X118722638Y-123470498D01*
X118722638Y-123470498D02*
X118722638Y-123184784D01*
X118722638Y-123184784D02*
X118770257Y-123089546D01*
X118770257Y-123089546D02*
X118817876Y-123041927D01*
X118817876Y-123041927D02*
X118913114Y-122994308D01*
X118913114Y-122994308D02*
X119103590Y-122994308D01*
X119103590Y-122994308D02*
X119198828Y-123041927D01*
X119817876Y-123660975D02*
X119722638Y-123613356D01*
X119722638Y-123613356D02*
X119675019Y-123565736D01*
X119675019Y-123565736D02*
X119627400Y-123470498D01*
X119627400Y-123470498D02*
X119627400Y-123184784D01*
X119627400Y-123184784D02*
X119675019Y-123089546D01*
X119675019Y-123089546D02*
X119722638Y-123041927D01*
X119722638Y-123041927D02*
X119817876Y-122994308D01*
X119817876Y-122994308D02*
X119960733Y-122994308D01*
X119960733Y-122994308D02*
X120055971Y-123041927D01*
X120055971Y-123041927D02*
X120103590Y-123089546D01*
X120103590Y-123089546D02*
X120151209Y-123184784D01*
X120151209Y-123184784D02*
X120151209Y-123470498D01*
X120151209Y-123470498D02*
X120103590Y-123565736D01*
X120103590Y-123565736D02*
X120055971Y-123613356D01*
X120055971Y-123613356D02*
X119960733Y-123660975D01*
X119960733Y-123660975D02*
X119817876Y-123660975D01*
X120722638Y-123660975D02*
X120627400Y-123613356D01*
X120627400Y-123613356D02*
X120579781Y-123565736D01*
X120579781Y-123565736D02*
X120532162Y-123470498D01*
X120532162Y-123470498D02*
X120532162Y-123184784D01*
X120532162Y-123184784D02*
X120579781Y-123089546D01*
X120579781Y-123089546D02*
X120627400Y-123041927D01*
X120627400Y-123041927D02*
X120722638Y-122994308D01*
X120722638Y-122994308D02*
X120865495Y-122994308D01*
X120865495Y-122994308D02*
X120960733Y-123041927D01*
X120960733Y-123041927D02*
X121008352Y-123089546D01*
X121008352Y-123089546D02*
X121055971Y-123184784D01*
X121055971Y-123184784D02*
X121055971Y-123470498D01*
X121055971Y-123470498D02*
X121008352Y-123565736D01*
X121008352Y-123565736D02*
X120960733Y-123613356D01*
X120960733Y-123613356D02*
X120865495Y-123660975D01*
X120865495Y-123660975D02*
X120722638Y-123660975D01*
X121913114Y-123660975D02*
X121913114Y-122660975D01*
X121913114Y-123613356D02*
X121817876Y-123660975D01*
X121817876Y-123660975D02*
X121627400Y-123660975D01*
X121627400Y-123660975D02*
X121532162Y-123613356D01*
X121532162Y-123613356D02*
X121484543Y-123565736D01*
X121484543Y-123565736D02*
X121436924Y-123470498D01*
X121436924Y-123470498D02*
X121436924Y-123184784D01*
X121436924Y-123184784D02*
X121484543Y-123089546D01*
X121484543Y-123089546D02*
X121532162Y-123041927D01*
X121532162Y-123041927D02*
X121627400Y-122994308D01*
X121627400Y-122994308D02*
X121817876Y-122994308D01*
X121817876Y-122994308D02*
X121913114Y-123041927D01*
X114103590Y-124604252D02*
X114294066Y-125270919D01*
X114294066Y-125270919D02*
X114484542Y-124794728D01*
X114484542Y-124794728D02*
X114675018Y-125270919D01*
X114675018Y-125270919D02*
X114865494Y-124604252D01*
X115246447Y-125270919D02*
X115246447Y-124270919D01*
X115675018Y-125270919D02*
X115675018Y-124747109D01*
X115675018Y-124747109D02*
X115627399Y-124651871D01*
X115627399Y-124651871D02*
X115532161Y-124604252D01*
X115532161Y-124604252D02*
X115389304Y-124604252D01*
X115389304Y-124604252D02*
X115294066Y-124651871D01*
X115294066Y-124651871D02*
X115246447Y-124699490D01*
X116055971Y-124604252D02*
X116294066Y-125270919D01*
X116532161Y-124604252D02*
X116294066Y-125270919D01*
X116294066Y-125270919D02*
X116198828Y-125509014D01*
X116198828Y-125509014D02*
X116151209Y-125556633D01*
X116151209Y-125556633D02*
X116055971Y-125604252D01*
X117675019Y-124270919D02*
X117675019Y-125080442D01*
X117675019Y-125080442D02*
X117722638Y-125175680D01*
X117722638Y-125175680D02*
X117770257Y-125223300D01*
X117770257Y-125223300D02*
X117865495Y-125270919D01*
X117865495Y-125270919D02*
X118055971Y-125270919D01*
X118055971Y-125270919D02*
X118151209Y-125223300D01*
X118151209Y-125223300D02*
X118198828Y-125175680D01*
X118198828Y-125175680D02*
X118246447Y-125080442D01*
X118246447Y-125080442D02*
X118246447Y-124270919D01*
X118675019Y-125223300D02*
X118817876Y-125270919D01*
X118817876Y-125270919D02*
X119055971Y-125270919D01*
X119055971Y-125270919D02*
X119151209Y-125223300D01*
X119151209Y-125223300D02*
X119198828Y-125175680D01*
X119198828Y-125175680D02*
X119246447Y-125080442D01*
X119246447Y-125080442D02*
X119246447Y-124985204D01*
X119246447Y-124985204D02*
X119198828Y-124889966D01*
X119198828Y-124889966D02*
X119151209Y-124842347D01*
X119151209Y-124842347D02*
X119055971Y-124794728D01*
X119055971Y-124794728D02*
X118865495Y-124747109D01*
X118865495Y-124747109D02*
X118770257Y-124699490D01*
X118770257Y-124699490D02*
X118722638Y-124651871D01*
X118722638Y-124651871D02*
X118675019Y-124556633D01*
X118675019Y-124556633D02*
X118675019Y-124461395D01*
X118675019Y-124461395D02*
X118722638Y-124366157D01*
X118722638Y-124366157D02*
X118770257Y-124318538D01*
X118770257Y-124318538D02*
X118865495Y-124270919D01*
X118865495Y-124270919D02*
X119103590Y-124270919D01*
X119103590Y-124270919D02*
X119246447Y-124318538D01*
X120008352Y-124747109D02*
X120151209Y-124794728D01*
X120151209Y-124794728D02*
X120198828Y-124842347D01*
X120198828Y-124842347D02*
X120246447Y-124937585D01*
X120246447Y-124937585D02*
X120246447Y-125080442D01*
X120246447Y-125080442D02*
X120198828Y-125175680D01*
X120198828Y-125175680D02*
X120151209Y-125223300D01*
X120151209Y-125223300D02*
X120055971Y-125270919D01*
X120055971Y-125270919D02*
X119675019Y-125270919D01*
X119675019Y-125270919D02*
X119675019Y-124270919D01*
X119675019Y-124270919D02*
X120008352Y-124270919D01*
X120008352Y-124270919D02*
X120103590Y-124318538D01*
X120103590Y-124318538D02*
X120151209Y-124366157D01*
X120151209Y-124366157D02*
X120198828Y-124461395D01*
X120198828Y-124461395D02*
X120198828Y-124556633D01*
X120198828Y-124556633D02*
X120151209Y-124651871D01*
X120151209Y-124651871D02*
X120103590Y-124699490D01*
X120103590Y-124699490D02*
X120008352Y-124747109D01*
X120008352Y-124747109D02*
X119675019Y-124747109D01*
X120817876Y-125175680D02*
X120865495Y-125223300D01*
X120865495Y-125223300D02*
X120817876Y-125270919D01*
X120817876Y-125270919D02*
X120770257Y-125223300D01*
X120770257Y-125223300D02*
X120817876Y-125175680D01*
X120817876Y-125175680D02*
X120817876Y-125270919D01*
X120627400Y-124318538D02*
X120722638Y-124270919D01*
X120722638Y-124270919D02*
X120960733Y-124270919D01*
X120960733Y-124270919D02*
X121055971Y-124318538D01*
X121055971Y-124318538D02*
X121103590Y-124413776D01*
X121103590Y-124413776D02*
X121103590Y-124509014D01*
X121103590Y-124509014D02*
X121055971Y-124604252D01*
X121055971Y-124604252D02*
X121008352Y-124651871D01*
X121008352Y-124651871D02*
X120913114Y-124699490D01*
X120913114Y-124699490D02*
X120865495Y-124747109D01*
X120865495Y-124747109D02*
X120817876Y-124842347D01*
X120817876Y-124842347D02*
X120817876Y-124889966D01*
D10*
X106766076Y-81045619D02*
X106766076Y-80378952D01*
X106766076Y-80045619D02*
X106718457Y-80093238D01*
X106718457Y-80093238D02*
X106766076Y-80140857D01*
X106766076Y-80140857D02*
X106813695Y-80093238D01*
X106813695Y-80093238D02*
X106766076Y-80045619D01*
X106766076Y-80045619D02*
X106766076Y-80140857D01*
X107242266Y-80378952D02*
X107242266Y-81045619D01*
X107242266Y-80474190D02*
X107289885Y-80426571D01*
X107289885Y-80426571D02*
X107385123Y-80378952D01*
X107385123Y-80378952D02*
X107527980Y-80378952D01*
X107527980Y-80378952D02*
X107623218Y-80426571D01*
X107623218Y-80426571D02*
X107670837Y-80521809D01*
X107670837Y-80521809D02*
X107670837Y-81045619D01*
X109337504Y-81045619D02*
X109337504Y-80045619D01*
X109337504Y-80998000D02*
X109242266Y-81045619D01*
X109242266Y-81045619D02*
X109051790Y-81045619D01*
X109051790Y-81045619D02*
X108956552Y-80998000D01*
X108956552Y-80998000D02*
X108908933Y-80950380D01*
X108908933Y-80950380D02*
X108861314Y-80855142D01*
X108861314Y-80855142D02*
X108861314Y-80569428D01*
X108861314Y-80569428D02*
X108908933Y-80474190D01*
X108908933Y-80474190D02*
X108956552Y-80426571D01*
X108956552Y-80426571D02*
X109051790Y-80378952D01*
X109051790Y-80378952D02*
X109242266Y-80378952D01*
X109242266Y-80378952D02*
X109337504Y-80426571D01*
X110242266Y-80378952D02*
X110242266Y-81045619D01*
X109813695Y-80378952D02*
X109813695Y-80902761D01*
X109813695Y-80902761D02*
X109861314Y-80998000D01*
X109861314Y-80998000D02*
X109956552Y-81045619D01*
X109956552Y-81045619D02*
X110099409Y-81045619D01*
X110099409Y-81045619D02*
X110194647Y-80998000D01*
X110194647Y-80998000D02*
X110242266Y-80950380D01*
X111147028Y-80998000D02*
X111051790Y-81045619D01*
X111051790Y-81045619D02*
X110861314Y-81045619D01*
X110861314Y-81045619D02*
X110766076Y-80998000D01*
X110766076Y-80998000D02*
X110718457Y-80950380D01*
X110718457Y-80950380D02*
X110670838Y-80855142D01*
X110670838Y-80855142D02*
X110670838Y-80569428D01*
X110670838Y-80569428D02*
X110718457Y-80474190D01*
X110718457Y-80474190D02*
X110766076Y-80426571D01*
X110766076Y-80426571D02*
X110861314Y-80378952D01*
X110861314Y-80378952D02*
X111051790Y-80378952D01*
X111051790Y-80378952D02*
X111147028Y-80426571D01*
X111575600Y-81045619D02*
X111575600Y-80045619D01*
X111670838Y-80664666D02*
X111956552Y-81045619D01*
X111956552Y-80378952D02*
X111575600Y-80759904D01*
X112385124Y-80950380D02*
X112432743Y-80998000D01*
X112432743Y-80998000D02*
X112385124Y-81045619D01*
X112385124Y-81045619D02*
X112337505Y-80998000D01*
X112337505Y-80998000D02*
X112385124Y-80950380D01*
X112385124Y-80950380D02*
X112385124Y-81045619D01*
X109153675Y-94525743D02*
X108153675Y-94525743D01*
X108153675Y-94525743D02*
X108153675Y-94144791D01*
X108153675Y-94144791D02*
X108201294Y-94049553D01*
X108201294Y-94049553D02*
X108248913Y-94001934D01*
X108248913Y-94001934D02*
X108344151Y-93954315D01*
X108344151Y-93954315D02*
X108487008Y-93954315D01*
X108487008Y-93954315D02*
X108582246Y-94001934D01*
X108582246Y-94001934D02*
X108629865Y-94049553D01*
X108629865Y-94049553D02*
X108677484Y-94144791D01*
X108677484Y-94144791D02*
X108677484Y-94525743D01*
X108487008Y-93097172D02*
X109153675Y-93097172D01*
X108487008Y-93525743D02*
X109010817Y-93525743D01*
X109010817Y-93525743D02*
X109106056Y-93478124D01*
X109106056Y-93478124D02*
X109153675Y-93382886D01*
X109153675Y-93382886D02*
X109153675Y-93240029D01*
X109153675Y-93240029D02*
X109106056Y-93144791D01*
X109106056Y-93144791D02*
X109058436Y-93097172D01*
X108487008Y-92763838D02*
X108487008Y-92382886D01*
X108153675Y-92620981D02*
X109010817Y-92620981D01*
X109010817Y-92620981D02*
X109106056Y-92573362D01*
X109106056Y-92573362D02*
X109153675Y-92478124D01*
X109153675Y-92478124D02*
X109153675Y-92382886D01*
X108487008Y-91430504D02*
X108487008Y-91049552D01*
X108153675Y-91287647D02*
X109010817Y-91287647D01*
X109010817Y-91287647D02*
X109106056Y-91240028D01*
X109106056Y-91240028D02*
X109153675Y-91144790D01*
X109153675Y-91144790D02*
X109153675Y-91049552D01*
X109153675Y-90716218D02*
X108153675Y-90716218D01*
X109153675Y-90287647D02*
X108629865Y-90287647D01*
X108629865Y-90287647D02*
X108534627Y-90335266D01*
X108534627Y-90335266D02*
X108487008Y-90430504D01*
X108487008Y-90430504D02*
X108487008Y-90573361D01*
X108487008Y-90573361D02*
X108534627Y-90668599D01*
X108534627Y-90668599D02*
X108582246Y-90716218D01*
X109153675Y-89382885D02*
X108629865Y-89382885D01*
X108629865Y-89382885D02*
X108534627Y-89430504D01*
X108534627Y-89430504D02*
X108487008Y-89525742D01*
X108487008Y-89525742D02*
X108487008Y-89716218D01*
X108487008Y-89716218D02*
X108534627Y-89811456D01*
X109106056Y-89382885D02*
X109153675Y-89478123D01*
X109153675Y-89478123D02*
X109153675Y-89716218D01*
X109153675Y-89716218D02*
X109106056Y-89811456D01*
X109106056Y-89811456D02*
X109010817Y-89859075D01*
X109010817Y-89859075D02*
X108915579Y-89859075D01*
X108915579Y-89859075D02*
X108820341Y-89811456D01*
X108820341Y-89811456D02*
X108772722Y-89716218D01*
X108772722Y-89716218D02*
X108772722Y-89478123D01*
X108772722Y-89478123D02*
X108725103Y-89382885D01*
X108487008Y-89049551D02*
X108487008Y-88668599D01*
X108153675Y-88906694D02*
X109010817Y-88906694D01*
X109010817Y-88906694D02*
X109106056Y-88859075D01*
X109106056Y-88859075D02*
X109153675Y-88763837D01*
X109153675Y-88763837D02*
X109153675Y-88668599D01*
X110763619Y-93406694D02*
X109763619Y-93406694D01*
X110144571Y-93406694D02*
X110096952Y-93311456D01*
X110096952Y-93311456D02*
X110096952Y-93120980D01*
X110096952Y-93120980D02*
X110144571Y-93025742D01*
X110144571Y-93025742D02*
X110192190Y-92978123D01*
X110192190Y-92978123D02*
X110287428Y-92930504D01*
X110287428Y-92930504D02*
X110573142Y-92930504D01*
X110573142Y-92930504D02*
X110668380Y-92978123D01*
X110668380Y-92978123D02*
X110716000Y-93025742D01*
X110716000Y-93025742D02*
X110763619Y-93120980D01*
X110763619Y-93120980D02*
X110763619Y-93311456D01*
X110763619Y-93311456D02*
X110716000Y-93406694D01*
X110763619Y-92073361D02*
X110239809Y-92073361D01*
X110239809Y-92073361D02*
X110144571Y-92120980D01*
X110144571Y-92120980D02*
X110096952Y-92216218D01*
X110096952Y-92216218D02*
X110096952Y-92406694D01*
X110096952Y-92406694D02*
X110144571Y-92501932D01*
X110716000Y-92073361D02*
X110763619Y-92168599D01*
X110763619Y-92168599D02*
X110763619Y-92406694D01*
X110763619Y-92406694D02*
X110716000Y-92501932D01*
X110716000Y-92501932D02*
X110620761Y-92549551D01*
X110620761Y-92549551D02*
X110525523Y-92549551D01*
X110525523Y-92549551D02*
X110430285Y-92501932D01*
X110430285Y-92501932D02*
X110382666Y-92406694D01*
X110382666Y-92406694D02*
X110382666Y-92168599D01*
X110382666Y-92168599D02*
X110335047Y-92073361D01*
X110716000Y-91168599D02*
X110763619Y-91263837D01*
X110763619Y-91263837D02*
X110763619Y-91454313D01*
X110763619Y-91454313D02*
X110716000Y-91549551D01*
X110716000Y-91549551D02*
X110668380Y-91597170D01*
X110668380Y-91597170D02*
X110573142Y-91644789D01*
X110573142Y-91644789D02*
X110287428Y-91644789D01*
X110287428Y-91644789D02*
X110192190Y-91597170D01*
X110192190Y-91597170D02*
X110144571Y-91549551D01*
X110144571Y-91549551D02*
X110096952Y-91454313D01*
X110096952Y-91454313D02*
X110096952Y-91263837D01*
X110096952Y-91263837D02*
X110144571Y-91168599D01*
X110763619Y-90740027D02*
X109763619Y-90740027D01*
X110382666Y-90644789D02*
X110763619Y-90359075D01*
X110096952Y-90359075D02*
X110477904Y-90740027D01*
X110668380Y-89930503D02*
X110716000Y-89882884D01*
X110716000Y-89882884D02*
X110763619Y-89930503D01*
X110763619Y-89930503D02*
X110716000Y-89978122D01*
X110716000Y-89978122D02*
X110668380Y-89930503D01*
X110668380Y-89930503D02*
X110763619Y-89930503D01*
X110382666Y-89930503D02*
X109811238Y-89978122D01*
X109811238Y-89978122D02*
X109763619Y-89930503D01*
X109763619Y-89930503D02*
X109811238Y-89882884D01*
X109811238Y-89882884D02*
X110382666Y-89930503D01*
X110382666Y-89930503D02*
X109763619Y-89930503D01*
D13*
X112848905Y-49434819D02*
X112848905Y-48434819D01*
X112848905Y-48434819D02*
X113229857Y-48434819D01*
X113229857Y-48434819D02*
X113325095Y-48482438D01*
X113325095Y-48482438D02*
X113372714Y-48530057D01*
X113372714Y-48530057D02*
X113420333Y-48625295D01*
X113420333Y-48625295D02*
X113420333Y-48768152D01*
X113420333Y-48768152D02*
X113372714Y-48863390D01*
X113372714Y-48863390D02*
X113325095Y-48911009D01*
X113325095Y-48911009D02*
X113229857Y-48958628D01*
X113229857Y-48958628D02*
X112848905Y-48958628D01*
X114372714Y-48482438D02*
X114277476Y-48434819D01*
X114277476Y-48434819D02*
X114134619Y-48434819D01*
X114134619Y-48434819D02*
X113991762Y-48482438D01*
X113991762Y-48482438D02*
X113896524Y-48577676D01*
X113896524Y-48577676D02*
X113848905Y-48672914D01*
X113848905Y-48672914D02*
X113801286Y-48863390D01*
X113801286Y-48863390D02*
X113801286Y-49006247D01*
X113801286Y-49006247D02*
X113848905Y-49196723D01*
X113848905Y-49196723D02*
X113896524Y-49291961D01*
X113896524Y-49291961D02*
X113991762Y-49387200D01*
X113991762Y-49387200D02*
X114134619Y-49434819D01*
X114134619Y-49434819D02*
X114229857Y-49434819D01*
X114229857Y-49434819D02*
X114372714Y-49387200D01*
X114372714Y-49387200D02*
X114420333Y-49339580D01*
X114420333Y-49339580D02*
X114420333Y-49006247D01*
X114420333Y-49006247D02*
X114229857Y-49006247D01*
X115372714Y-49434819D02*
X114801286Y-49434819D01*
X115087000Y-49434819D02*
X115087000Y-48434819D01*
X115087000Y-48434819D02*
X114991762Y-48577676D01*
X114991762Y-48577676D02*
X114896524Y-48672914D01*
X114896524Y-48672914D02*
X114801286Y-48720533D01*
X163801819Y-107393808D02*
X162801819Y-107393808D01*
X162897057Y-106965237D02*
X162849438Y-106917618D01*
X162849438Y-106917618D02*
X162801819Y-106822380D01*
X162801819Y-106822380D02*
X162801819Y-106584285D01*
X162801819Y-106584285D02*
X162849438Y-106489047D01*
X162849438Y-106489047D02*
X162897057Y-106441428D01*
X162897057Y-106441428D02*
X162992295Y-106393809D01*
X162992295Y-106393809D02*
X163087533Y-106393809D01*
X163087533Y-106393809D02*
X163230390Y-106441428D01*
X163230390Y-106441428D02*
X163801819Y-107012856D01*
X163801819Y-107012856D02*
X163801819Y-106393809D01*
X163706580Y-105393809D02*
X163754200Y-105441428D01*
X163754200Y-105441428D02*
X163801819Y-105584285D01*
X163801819Y-105584285D02*
X163801819Y-105679523D01*
X163801819Y-105679523D02*
X163754200Y-105822380D01*
X163754200Y-105822380D02*
X163658961Y-105917618D01*
X163658961Y-105917618D02*
X163563723Y-105965237D01*
X163563723Y-105965237D02*
X163373247Y-106012856D01*
X163373247Y-106012856D02*
X163230390Y-106012856D01*
X163230390Y-106012856D02*
X163039914Y-105965237D01*
X163039914Y-105965237D02*
X162944676Y-105917618D01*
X162944676Y-105917618D02*
X162849438Y-105822380D01*
X162849438Y-105822380D02*
X162801819Y-105679523D01*
X162801819Y-105679523D02*
X162801819Y-105584285D01*
X162801819Y-105584285D02*
X162849438Y-105441428D01*
X162849438Y-105441428D02*
X162897057Y-105393809D01*
X163897057Y-105203333D02*
X163897057Y-104441428D01*
X163801819Y-104203332D02*
X162801819Y-104203332D01*
X162801819Y-104203332D02*
X162801819Y-103822380D01*
X162801819Y-103822380D02*
X162849438Y-103727142D01*
X162849438Y-103727142D02*
X162897057Y-103679523D01*
X162897057Y-103679523D02*
X162992295Y-103631904D01*
X162992295Y-103631904D02*
X163135152Y-103631904D01*
X163135152Y-103631904D02*
X163230390Y-103679523D01*
X163230390Y-103679523D02*
X163278009Y-103727142D01*
X163278009Y-103727142D02*
X163325628Y-103822380D01*
X163325628Y-103822380D02*
X163325628Y-104203332D01*
X163801819Y-103203332D02*
X162801819Y-103203332D01*
X163801819Y-102727142D02*
X162801819Y-102727142D01*
X162801819Y-102727142D02*
X163801819Y-102155714D01*
X163801819Y-102155714D02*
X162801819Y-102155714D01*
X162801819Y-101489047D02*
X162801819Y-101298571D01*
X162801819Y-101298571D02*
X162849438Y-101203333D01*
X162849438Y-101203333D02*
X162944676Y-101108095D01*
X162944676Y-101108095D02*
X163135152Y-101060476D01*
X163135152Y-101060476D02*
X163468485Y-101060476D01*
X163468485Y-101060476D02*
X163658961Y-101108095D01*
X163658961Y-101108095D02*
X163754200Y-101203333D01*
X163754200Y-101203333D02*
X163801819Y-101298571D01*
X163801819Y-101298571D02*
X163801819Y-101489047D01*
X163801819Y-101489047D02*
X163754200Y-101584285D01*
X163754200Y-101584285D02*
X163658961Y-101679523D01*
X163658961Y-101679523D02*
X163468485Y-101727142D01*
X163468485Y-101727142D02*
X163135152Y-101727142D01*
X163135152Y-101727142D02*
X162944676Y-101679523D01*
X162944676Y-101679523D02*
X162849438Y-101584285D01*
X162849438Y-101584285D02*
X162801819Y-101489047D01*
X162801819Y-100631904D02*
X163611342Y-100631904D01*
X163611342Y-100631904D02*
X163706580Y-100584285D01*
X163706580Y-100584285D02*
X163754200Y-100536666D01*
X163754200Y-100536666D02*
X163801819Y-100441428D01*
X163801819Y-100441428D02*
X163801819Y-100250952D01*
X163801819Y-100250952D02*
X163754200Y-100155714D01*
X163754200Y-100155714D02*
X163706580Y-100108095D01*
X163706580Y-100108095D02*
X163611342Y-100060476D01*
X163611342Y-100060476D02*
X162801819Y-100060476D01*
X162801819Y-99727142D02*
X162801819Y-99155714D01*
X163801819Y-99441428D02*
X162801819Y-99441428D01*
X162801819Y-98917618D02*
X162801819Y-98250952D01*
X162801819Y-98250952D02*
X163801819Y-98679523D01*
X102841819Y-87073808D02*
X101841819Y-87073808D01*
X101937057Y-86645237D02*
X101889438Y-86597618D01*
X101889438Y-86597618D02*
X101841819Y-86502380D01*
X101841819Y-86502380D02*
X101841819Y-86264285D01*
X101841819Y-86264285D02*
X101889438Y-86169047D01*
X101889438Y-86169047D02*
X101937057Y-86121428D01*
X101937057Y-86121428D02*
X102032295Y-86073809D01*
X102032295Y-86073809D02*
X102127533Y-86073809D01*
X102127533Y-86073809D02*
X102270390Y-86121428D01*
X102270390Y-86121428D02*
X102841819Y-86692856D01*
X102841819Y-86692856D02*
X102841819Y-86073809D01*
X102746580Y-85073809D02*
X102794200Y-85121428D01*
X102794200Y-85121428D02*
X102841819Y-85264285D01*
X102841819Y-85264285D02*
X102841819Y-85359523D01*
X102841819Y-85359523D02*
X102794200Y-85502380D01*
X102794200Y-85502380D02*
X102698961Y-85597618D01*
X102698961Y-85597618D02*
X102603723Y-85645237D01*
X102603723Y-85645237D02*
X102413247Y-85692856D01*
X102413247Y-85692856D02*
X102270390Y-85692856D01*
X102270390Y-85692856D02*
X102079914Y-85645237D01*
X102079914Y-85645237D02*
X101984676Y-85597618D01*
X101984676Y-85597618D02*
X101889438Y-85502380D01*
X101889438Y-85502380D02*
X101841819Y-85359523D01*
X101841819Y-85359523D02*
X101841819Y-85264285D01*
X101841819Y-85264285D02*
X101889438Y-85121428D01*
X101889438Y-85121428D02*
X101937057Y-85073809D01*
X102937057Y-84883333D02*
X102937057Y-84121428D01*
X102841819Y-83883332D02*
X101841819Y-83883332D01*
X101841819Y-83883332D02*
X101841819Y-83502380D01*
X101841819Y-83502380D02*
X101889438Y-83407142D01*
X101889438Y-83407142D02*
X101937057Y-83359523D01*
X101937057Y-83359523D02*
X102032295Y-83311904D01*
X102032295Y-83311904D02*
X102175152Y-83311904D01*
X102175152Y-83311904D02*
X102270390Y-83359523D01*
X102270390Y-83359523D02*
X102318009Y-83407142D01*
X102318009Y-83407142D02*
X102365628Y-83502380D01*
X102365628Y-83502380D02*
X102365628Y-83883332D01*
X102841819Y-82883332D02*
X101841819Y-82883332D01*
X102841819Y-82407142D02*
X101841819Y-82407142D01*
X101841819Y-82407142D02*
X102841819Y-81835714D01*
X102841819Y-81835714D02*
X101841819Y-81835714D01*
X101841819Y-81169047D02*
X101841819Y-80978571D01*
X101841819Y-80978571D02*
X101889438Y-80883333D01*
X101889438Y-80883333D02*
X101984676Y-80788095D01*
X101984676Y-80788095D02*
X102175152Y-80740476D01*
X102175152Y-80740476D02*
X102508485Y-80740476D01*
X102508485Y-80740476D02*
X102698961Y-80788095D01*
X102698961Y-80788095D02*
X102794200Y-80883333D01*
X102794200Y-80883333D02*
X102841819Y-80978571D01*
X102841819Y-80978571D02*
X102841819Y-81169047D01*
X102841819Y-81169047D02*
X102794200Y-81264285D01*
X102794200Y-81264285D02*
X102698961Y-81359523D01*
X102698961Y-81359523D02*
X102508485Y-81407142D01*
X102508485Y-81407142D02*
X102175152Y-81407142D01*
X102175152Y-81407142D02*
X101984676Y-81359523D01*
X101984676Y-81359523D02*
X101889438Y-81264285D01*
X101889438Y-81264285D02*
X101841819Y-81169047D01*
X101841819Y-80311904D02*
X102651342Y-80311904D01*
X102651342Y-80311904D02*
X102746580Y-80264285D01*
X102746580Y-80264285D02*
X102794200Y-80216666D01*
X102794200Y-80216666D02*
X102841819Y-80121428D01*
X102841819Y-80121428D02*
X102841819Y-79930952D01*
X102841819Y-79930952D02*
X102794200Y-79835714D01*
X102794200Y-79835714D02*
X102746580Y-79788095D01*
X102746580Y-79788095D02*
X102651342Y-79740476D01*
X102651342Y-79740476D02*
X101841819Y-79740476D01*
X101841819Y-79407142D02*
X101841819Y-78835714D01*
X102841819Y-79121428D02*
X101841819Y-79121428D01*
X102841819Y-78454761D02*
X102841819Y-78264285D01*
X102841819Y-78264285D02*
X102794200Y-78169047D01*
X102794200Y-78169047D02*
X102746580Y-78121428D01*
X102746580Y-78121428D02*
X102603723Y-78026190D01*
X102603723Y-78026190D02*
X102413247Y-77978571D01*
X102413247Y-77978571D02*
X102032295Y-77978571D01*
X102032295Y-77978571D02*
X101937057Y-78026190D01*
X101937057Y-78026190D02*
X101889438Y-78073809D01*
X101889438Y-78073809D02*
X101841819Y-78169047D01*
X101841819Y-78169047D02*
X101841819Y-78359523D01*
X101841819Y-78359523D02*
X101889438Y-78454761D01*
X101889438Y-78454761D02*
X101937057Y-78502380D01*
X101937057Y-78502380D02*
X102032295Y-78549999D01*
X102032295Y-78549999D02*
X102270390Y-78549999D01*
X102270390Y-78549999D02*
X102365628Y-78502380D01*
X102365628Y-78502380D02*
X102413247Y-78454761D01*
X102413247Y-78454761D02*
X102460866Y-78359523D01*
X102460866Y-78359523D02*
X102460866Y-78169047D01*
X102460866Y-78169047D02*
X102413247Y-78073809D01*
X102413247Y-78073809D02*
X102365628Y-78026190D01*
X102365628Y-78026190D02*
X102270390Y-77978571D01*
X127849713Y-109659009D02*
X127992570Y-109706628D01*
X127992570Y-109706628D02*
X128040189Y-109754247D01*
X128040189Y-109754247D02*
X128087808Y-109849485D01*
X128087808Y-109849485D02*
X128087808Y-109992342D01*
X128087808Y-109992342D02*
X128040189Y-110087580D01*
X128040189Y-110087580D02*
X127992570Y-110135200D01*
X127992570Y-110135200D02*
X127897332Y-110182819D01*
X127897332Y-110182819D02*
X127516380Y-110182819D01*
X127516380Y-110182819D02*
X127516380Y-109182819D01*
X127516380Y-109182819D02*
X127849713Y-109182819D01*
X127849713Y-109182819D02*
X127944951Y-109230438D01*
X127944951Y-109230438D02*
X127992570Y-109278057D01*
X127992570Y-109278057D02*
X128040189Y-109373295D01*
X128040189Y-109373295D02*
X128040189Y-109468533D01*
X128040189Y-109468533D02*
X127992570Y-109563771D01*
X127992570Y-109563771D02*
X127944951Y-109611390D01*
X127944951Y-109611390D02*
X127849713Y-109659009D01*
X127849713Y-109659009D02*
X127516380Y-109659009D01*
X128468761Y-109897104D02*
X128944951Y-109897104D01*
X128373523Y-110182819D02*
X128706856Y-109182819D01*
X128706856Y-109182819D02*
X129040189Y-110182819D01*
X129230666Y-109182819D02*
X129802094Y-109182819D01*
X129516380Y-110182819D02*
X129516380Y-109182819D01*
X129992571Y-109182819D02*
X130563999Y-109182819D01*
X130278285Y-110182819D02*
X130278285Y-109182819D01*
X130659238Y-110278057D02*
X131421142Y-110278057D01*
X131944952Y-109182819D02*
X131944952Y-109897104D01*
X131944952Y-109897104D02*
X131897333Y-110039961D01*
X131897333Y-110039961D02*
X131802095Y-110135200D01*
X131802095Y-110135200D02*
X131659238Y-110182819D01*
X131659238Y-110182819D02*
X131564000Y-110182819D01*
X132373524Y-110135200D02*
X132516381Y-110182819D01*
X132516381Y-110182819D02*
X132754476Y-110182819D01*
X132754476Y-110182819D02*
X132849714Y-110135200D01*
X132849714Y-110135200D02*
X132897333Y-110087580D01*
X132897333Y-110087580D02*
X132944952Y-109992342D01*
X132944952Y-109992342D02*
X132944952Y-109897104D01*
X132944952Y-109897104D02*
X132897333Y-109801866D01*
X132897333Y-109801866D02*
X132849714Y-109754247D01*
X132849714Y-109754247D02*
X132754476Y-109706628D01*
X132754476Y-109706628D02*
X132564000Y-109659009D01*
X132564000Y-109659009D02*
X132468762Y-109611390D01*
X132468762Y-109611390D02*
X132421143Y-109563771D01*
X132421143Y-109563771D02*
X132373524Y-109468533D01*
X132373524Y-109468533D02*
X132373524Y-109373295D01*
X132373524Y-109373295D02*
X132421143Y-109278057D01*
X132421143Y-109278057D02*
X132468762Y-109230438D01*
X132468762Y-109230438D02*
X132564000Y-109182819D01*
X132564000Y-109182819D02*
X132802095Y-109182819D01*
X132802095Y-109182819D02*
X132944952Y-109230438D01*
X133230667Y-109182819D02*
X133802095Y-109182819D01*
X133516381Y-110182819D02*
X133516381Y-109182819D01*
X134659238Y-110182819D02*
X134087810Y-110182819D01*
X134373524Y-110182819D02*
X134373524Y-109182819D01*
X134373524Y-109182819D02*
X134278286Y-109325676D01*
X134278286Y-109325676D02*
X134183048Y-109420914D01*
X134183048Y-109420914D02*
X134087810Y-109468533D01*
X102841819Y-100249999D02*
X101841819Y-100249999D01*
X101937057Y-99821428D02*
X101889438Y-99773809D01*
X101889438Y-99773809D02*
X101841819Y-99678571D01*
X101841819Y-99678571D02*
X101841819Y-99440476D01*
X101841819Y-99440476D02*
X101889438Y-99345238D01*
X101889438Y-99345238D02*
X101937057Y-99297619D01*
X101937057Y-99297619D02*
X102032295Y-99250000D01*
X102032295Y-99250000D02*
X102127533Y-99250000D01*
X102127533Y-99250000D02*
X102270390Y-99297619D01*
X102270390Y-99297619D02*
X102841819Y-99869047D01*
X102841819Y-99869047D02*
X102841819Y-99250000D01*
X102746580Y-98250000D02*
X102794200Y-98297619D01*
X102794200Y-98297619D02*
X102841819Y-98440476D01*
X102841819Y-98440476D02*
X102841819Y-98535714D01*
X102841819Y-98535714D02*
X102794200Y-98678571D01*
X102794200Y-98678571D02*
X102698961Y-98773809D01*
X102698961Y-98773809D02*
X102603723Y-98821428D01*
X102603723Y-98821428D02*
X102413247Y-98869047D01*
X102413247Y-98869047D02*
X102270390Y-98869047D01*
X102270390Y-98869047D02*
X102079914Y-98821428D01*
X102079914Y-98821428D02*
X101984676Y-98773809D01*
X101984676Y-98773809D02*
X101889438Y-98678571D01*
X101889438Y-98678571D02*
X101841819Y-98535714D01*
X101841819Y-98535714D02*
X101841819Y-98440476D01*
X101841819Y-98440476D02*
X101889438Y-98297619D01*
X101889438Y-98297619D02*
X101937057Y-98250000D01*
X102937057Y-98059524D02*
X102937057Y-97297619D01*
X102841819Y-97059523D02*
X101841819Y-97059523D01*
X101841819Y-97059523D02*
X101841819Y-96678571D01*
X101841819Y-96678571D02*
X101889438Y-96583333D01*
X101889438Y-96583333D02*
X101937057Y-96535714D01*
X101937057Y-96535714D02*
X102032295Y-96488095D01*
X102032295Y-96488095D02*
X102175152Y-96488095D01*
X102175152Y-96488095D02*
X102270390Y-96535714D01*
X102270390Y-96535714D02*
X102318009Y-96583333D01*
X102318009Y-96583333D02*
X102365628Y-96678571D01*
X102365628Y-96678571D02*
X102365628Y-97059523D01*
X102841819Y-96059523D02*
X101841819Y-96059523D01*
X102841819Y-95583333D02*
X101841819Y-95583333D01*
X101841819Y-95583333D02*
X102841819Y-95011905D01*
X102841819Y-95011905D02*
X101841819Y-95011905D01*
X101841819Y-94345238D02*
X101841819Y-94154762D01*
X101841819Y-94154762D02*
X101889438Y-94059524D01*
X101889438Y-94059524D02*
X101984676Y-93964286D01*
X101984676Y-93964286D02*
X102175152Y-93916667D01*
X102175152Y-93916667D02*
X102508485Y-93916667D01*
X102508485Y-93916667D02*
X102698961Y-93964286D01*
X102698961Y-93964286D02*
X102794200Y-94059524D01*
X102794200Y-94059524D02*
X102841819Y-94154762D01*
X102841819Y-94154762D02*
X102841819Y-94345238D01*
X102841819Y-94345238D02*
X102794200Y-94440476D01*
X102794200Y-94440476D02*
X102698961Y-94535714D01*
X102698961Y-94535714D02*
X102508485Y-94583333D01*
X102508485Y-94583333D02*
X102175152Y-94583333D01*
X102175152Y-94583333D02*
X101984676Y-94535714D01*
X101984676Y-94535714D02*
X101889438Y-94440476D01*
X101889438Y-94440476D02*
X101841819Y-94345238D01*
X101841819Y-93488095D02*
X102651342Y-93488095D01*
X102651342Y-93488095D02*
X102746580Y-93440476D01*
X102746580Y-93440476D02*
X102794200Y-93392857D01*
X102794200Y-93392857D02*
X102841819Y-93297619D01*
X102841819Y-93297619D02*
X102841819Y-93107143D01*
X102841819Y-93107143D02*
X102794200Y-93011905D01*
X102794200Y-93011905D02*
X102746580Y-92964286D01*
X102746580Y-92964286D02*
X102651342Y-92916667D01*
X102651342Y-92916667D02*
X101841819Y-92916667D01*
X101841819Y-92583333D02*
X101841819Y-92011905D01*
X102841819Y-92297619D02*
X101841819Y-92297619D01*
X102841819Y-91154762D02*
X102841819Y-91726190D01*
X102841819Y-91440476D02*
X101841819Y-91440476D01*
X101841819Y-91440476D02*
X101984676Y-91535714D01*
X101984676Y-91535714D02*
X102079914Y-91630952D01*
X102079914Y-91630952D02*
X102127533Y-91726190D01*
X101841819Y-90535714D02*
X101841819Y-90440476D01*
X101841819Y-90440476D02*
X101889438Y-90345238D01*
X101889438Y-90345238D02*
X101937057Y-90297619D01*
X101937057Y-90297619D02*
X102032295Y-90250000D01*
X102032295Y-90250000D02*
X102222771Y-90202381D01*
X102222771Y-90202381D02*
X102460866Y-90202381D01*
X102460866Y-90202381D02*
X102651342Y-90250000D01*
X102651342Y-90250000D02*
X102746580Y-90297619D01*
X102746580Y-90297619D02*
X102794200Y-90345238D01*
X102794200Y-90345238D02*
X102841819Y-90440476D01*
X102841819Y-90440476D02*
X102841819Y-90535714D01*
X102841819Y-90535714D02*
X102794200Y-90630952D01*
X102794200Y-90630952D02*
X102746580Y-90678571D01*
X102746580Y-90678571D02*
X102651342Y-90726190D01*
X102651342Y-90726190D02*
X102460866Y-90773809D01*
X102460866Y-90773809D02*
X102222771Y-90773809D01*
X102222771Y-90773809D02*
X102032295Y-90726190D01*
X102032295Y-90726190D02*
X101937057Y-90678571D01*
X101937057Y-90678571D02*
X101889438Y-90630952D01*
X101889438Y-90630952D02*
X101841819Y-90535714D01*
X102841819Y-74373808D02*
X101841819Y-74373808D01*
X101937057Y-73945237D02*
X101889438Y-73897618D01*
X101889438Y-73897618D02*
X101841819Y-73802380D01*
X101841819Y-73802380D02*
X101841819Y-73564285D01*
X101841819Y-73564285D02*
X101889438Y-73469047D01*
X101889438Y-73469047D02*
X101937057Y-73421428D01*
X101937057Y-73421428D02*
X102032295Y-73373809D01*
X102032295Y-73373809D02*
X102127533Y-73373809D01*
X102127533Y-73373809D02*
X102270390Y-73421428D01*
X102270390Y-73421428D02*
X102841819Y-73992856D01*
X102841819Y-73992856D02*
X102841819Y-73373809D01*
X102746580Y-72373809D02*
X102794200Y-72421428D01*
X102794200Y-72421428D02*
X102841819Y-72564285D01*
X102841819Y-72564285D02*
X102841819Y-72659523D01*
X102841819Y-72659523D02*
X102794200Y-72802380D01*
X102794200Y-72802380D02*
X102698961Y-72897618D01*
X102698961Y-72897618D02*
X102603723Y-72945237D01*
X102603723Y-72945237D02*
X102413247Y-72992856D01*
X102413247Y-72992856D02*
X102270390Y-72992856D01*
X102270390Y-72992856D02*
X102079914Y-72945237D01*
X102079914Y-72945237D02*
X101984676Y-72897618D01*
X101984676Y-72897618D02*
X101889438Y-72802380D01*
X101889438Y-72802380D02*
X101841819Y-72659523D01*
X101841819Y-72659523D02*
X101841819Y-72564285D01*
X101841819Y-72564285D02*
X101889438Y-72421428D01*
X101889438Y-72421428D02*
X101937057Y-72373809D01*
X102937057Y-72183333D02*
X102937057Y-71421428D01*
X102841819Y-71183332D02*
X101841819Y-71183332D01*
X101841819Y-71183332D02*
X101841819Y-70802380D01*
X101841819Y-70802380D02*
X101889438Y-70707142D01*
X101889438Y-70707142D02*
X101937057Y-70659523D01*
X101937057Y-70659523D02*
X102032295Y-70611904D01*
X102032295Y-70611904D02*
X102175152Y-70611904D01*
X102175152Y-70611904D02*
X102270390Y-70659523D01*
X102270390Y-70659523D02*
X102318009Y-70707142D01*
X102318009Y-70707142D02*
X102365628Y-70802380D01*
X102365628Y-70802380D02*
X102365628Y-71183332D01*
X102841819Y-70183332D02*
X101841819Y-70183332D01*
X102841819Y-69707142D02*
X101841819Y-69707142D01*
X101841819Y-69707142D02*
X102841819Y-69135714D01*
X102841819Y-69135714D02*
X101841819Y-69135714D01*
X101841819Y-68469047D02*
X101841819Y-68278571D01*
X101841819Y-68278571D02*
X101889438Y-68183333D01*
X101889438Y-68183333D02*
X101984676Y-68088095D01*
X101984676Y-68088095D02*
X102175152Y-68040476D01*
X102175152Y-68040476D02*
X102508485Y-68040476D01*
X102508485Y-68040476D02*
X102698961Y-68088095D01*
X102698961Y-68088095D02*
X102794200Y-68183333D01*
X102794200Y-68183333D02*
X102841819Y-68278571D01*
X102841819Y-68278571D02*
X102841819Y-68469047D01*
X102841819Y-68469047D02*
X102794200Y-68564285D01*
X102794200Y-68564285D02*
X102698961Y-68659523D01*
X102698961Y-68659523D02*
X102508485Y-68707142D01*
X102508485Y-68707142D02*
X102175152Y-68707142D01*
X102175152Y-68707142D02*
X101984676Y-68659523D01*
X101984676Y-68659523D02*
X101889438Y-68564285D01*
X101889438Y-68564285D02*
X101841819Y-68469047D01*
X101841819Y-67611904D02*
X102651342Y-67611904D01*
X102651342Y-67611904D02*
X102746580Y-67564285D01*
X102746580Y-67564285D02*
X102794200Y-67516666D01*
X102794200Y-67516666D02*
X102841819Y-67421428D01*
X102841819Y-67421428D02*
X102841819Y-67230952D01*
X102841819Y-67230952D02*
X102794200Y-67135714D01*
X102794200Y-67135714D02*
X102746580Y-67088095D01*
X102746580Y-67088095D02*
X102651342Y-67040476D01*
X102651342Y-67040476D02*
X101841819Y-67040476D01*
X101841819Y-66707142D02*
X101841819Y-66135714D01*
X102841819Y-66421428D02*
X101841819Y-66421428D01*
X102270390Y-65659523D02*
X102222771Y-65754761D01*
X102222771Y-65754761D02*
X102175152Y-65802380D01*
X102175152Y-65802380D02*
X102079914Y-65849999D01*
X102079914Y-65849999D02*
X102032295Y-65849999D01*
X102032295Y-65849999D02*
X101937057Y-65802380D01*
X101937057Y-65802380D02*
X101889438Y-65754761D01*
X101889438Y-65754761D02*
X101841819Y-65659523D01*
X101841819Y-65659523D02*
X101841819Y-65469047D01*
X101841819Y-65469047D02*
X101889438Y-65373809D01*
X101889438Y-65373809D02*
X101937057Y-65326190D01*
X101937057Y-65326190D02*
X102032295Y-65278571D01*
X102032295Y-65278571D02*
X102079914Y-65278571D01*
X102079914Y-65278571D02*
X102175152Y-65326190D01*
X102175152Y-65326190D02*
X102222771Y-65373809D01*
X102222771Y-65373809D02*
X102270390Y-65469047D01*
X102270390Y-65469047D02*
X102270390Y-65659523D01*
X102270390Y-65659523D02*
X102318009Y-65754761D01*
X102318009Y-65754761D02*
X102365628Y-65802380D01*
X102365628Y-65802380D02*
X102460866Y-65849999D01*
X102460866Y-65849999D02*
X102651342Y-65849999D01*
X102651342Y-65849999D02*
X102746580Y-65802380D01*
X102746580Y-65802380D02*
X102794200Y-65754761D01*
X102794200Y-65754761D02*
X102841819Y-65659523D01*
X102841819Y-65659523D02*
X102841819Y-65469047D01*
X102841819Y-65469047D02*
X102794200Y-65373809D01*
X102794200Y-65373809D02*
X102746580Y-65326190D01*
X102746580Y-65326190D02*
X102651342Y-65278571D01*
X102651342Y-65278571D02*
X102460866Y-65278571D01*
X102460866Y-65278571D02*
X102365628Y-65326190D01*
X102365628Y-65326190D02*
X102318009Y-65373809D01*
X102318009Y-65373809D02*
X102270390Y-65469047D01*
X158721819Y-69293808D02*
X157721819Y-69293808D01*
X157817057Y-68865237D02*
X157769438Y-68817618D01*
X157769438Y-68817618D02*
X157721819Y-68722380D01*
X157721819Y-68722380D02*
X157721819Y-68484285D01*
X157721819Y-68484285D02*
X157769438Y-68389047D01*
X157769438Y-68389047D02*
X157817057Y-68341428D01*
X157817057Y-68341428D02*
X157912295Y-68293809D01*
X157912295Y-68293809D02*
X158007533Y-68293809D01*
X158007533Y-68293809D02*
X158150390Y-68341428D01*
X158150390Y-68341428D02*
X158721819Y-68912856D01*
X158721819Y-68912856D02*
X158721819Y-68293809D01*
X158626580Y-67293809D02*
X158674200Y-67341428D01*
X158674200Y-67341428D02*
X158721819Y-67484285D01*
X158721819Y-67484285D02*
X158721819Y-67579523D01*
X158721819Y-67579523D02*
X158674200Y-67722380D01*
X158674200Y-67722380D02*
X158578961Y-67817618D01*
X158578961Y-67817618D02*
X158483723Y-67865237D01*
X158483723Y-67865237D02*
X158293247Y-67912856D01*
X158293247Y-67912856D02*
X158150390Y-67912856D01*
X158150390Y-67912856D02*
X157959914Y-67865237D01*
X157959914Y-67865237D02*
X157864676Y-67817618D01*
X157864676Y-67817618D02*
X157769438Y-67722380D01*
X157769438Y-67722380D02*
X157721819Y-67579523D01*
X157721819Y-67579523D02*
X157721819Y-67484285D01*
X157721819Y-67484285D02*
X157769438Y-67341428D01*
X157769438Y-67341428D02*
X157817057Y-67293809D01*
X158817057Y-67103333D02*
X158817057Y-66341428D01*
X158721819Y-66103332D02*
X157721819Y-66103332D01*
X157721819Y-66103332D02*
X157721819Y-65722380D01*
X157721819Y-65722380D02*
X157769438Y-65627142D01*
X157769438Y-65627142D02*
X157817057Y-65579523D01*
X157817057Y-65579523D02*
X157912295Y-65531904D01*
X157912295Y-65531904D02*
X158055152Y-65531904D01*
X158055152Y-65531904D02*
X158150390Y-65579523D01*
X158150390Y-65579523D02*
X158198009Y-65627142D01*
X158198009Y-65627142D02*
X158245628Y-65722380D01*
X158245628Y-65722380D02*
X158245628Y-66103332D01*
X158721819Y-65103332D02*
X157721819Y-65103332D01*
X158721819Y-64627142D02*
X157721819Y-64627142D01*
X157721819Y-64627142D02*
X158721819Y-64055714D01*
X158721819Y-64055714D02*
X157721819Y-64055714D01*
X157721819Y-63389047D02*
X157721819Y-63198571D01*
X157721819Y-63198571D02*
X157769438Y-63103333D01*
X157769438Y-63103333D02*
X157864676Y-63008095D01*
X157864676Y-63008095D02*
X158055152Y-62960476D01*
X158055152Y-62960476D02*
X158388485Y-62960476D01*
X158388485Y-62960476D02*
X158578961Y-63008095D01*
X158578961Y-63008095D02*
X158674200Y-63103333D01*
X158674200Y-63103333D02*
X158721819Y-63198571D01*
X158721819Y-63198571D02*
X158721819Y-63389047D01*
X158721819Y-63389047D02*
X158674200Y-63484285D01*
X158674200Y-63484285D02*
X158578961Y-63579523D01*
X158578961Y-63579523D02*
X158388485Y-63627142D01*
X158388485Y-63627142D02*
X158055152Y-63627142D01*
X158055152Y-63627142D02*
X157864676Y-63579523D01*
X157864676Y-63579523D02*
X157769438Y-63484285D01*
X157769438Y-63484285D02*
X157721819Y-63389047D01*
X157721819Y-62531904D02*
X158531342Y-62531904D01*
X158531342Y-62531904D02*
X158626580Y-62484285D01*
X158626580Y-62484285D02*
X158674200Y-62436666D01*
X158674200Y-62436666D02*
X158721819Y-62341428D01*
X158721819Y-62341428D02*
X158721819Y-62150952D01*
X158721819Y-62150952D02*
X158674200Y-62055714D01*
X158674200Y-62055714D02*
X158626580Y-62008095D01*
X158626580Y-62008095D02*
X158531342Y-61960476D01*
X158531342Y-61960476D02*
X157721819Y-61960476D01*
X157721819Y-61627142D02*
X157721819Y-61055714D01*
X158721819Y-61341428D02*
X157721819Y-61341428D01*
X157721819Y-60531904D02*
X157721819Y-60436666D01*
X157721819Y-60436666D02*
X157769438Y-60341428D01*
X157769438Y-60341428D02*
X157817057Y-60293809D01*
X157817057Y-60293809D02*
X157912295Y-60246190D01*
X157912295Y-60246190D02*
X158102771Y-60198571D01*
X158102771Y-60198571D02*
X158340866Y-60198571D01*
X158340866Y-60198571D02*
X158531342Y-60246190D01*
X158531342Y-60246190D02*
X158626580Y-60293809D01*
X158626580Y-60293809D02*
X158674200Y-60341428D01*
X158674200Y-60341428D02*
X158721819Y-60436666D01*
X158721819Y-60436666D02*
X158721819Y-60531904D01*
X158721819Y-60531904D02*
X158674200Y-60627142D01*
X158674200Y-60627142D02*
X158626580Y-60674761D01*
X158626580Y-60674761D02*
X158531342Y-60722380D01*
X158531342Y-60722380D02*
X158340866Y-60769999D01*
X158340866Y-60769999D02*
X158102771Y-60769999D01*
X158102771Y-60769999D02*
X157912295Y-60722380D01*
X157912295Y-60722380D02*
X157817057Y-60674761D01*
X157817057Y-60674761D02*
X157769438Y-60627142D01*
X157769438Y-60627142D02*
X157721819Y-60531904D01*
X105490000Y-107134819D02*
X105490000Y-106134819D01*
X105918571Y-106230057D02*
X105966190Y-106182438D01*
X105966190Y-106182438D02*
X106061428Y-106134819D01*
X106061428Y-106134819D02*
X106299523Y-106134819D01*
X106299523Y-106134819D02*
X106394761Y-106182438D01*
X106394761Y-106182438D02*
X106442380Y-106230057D01*
X106442380Y-106230057D02*
X106489999Y-106325295D01*
X106489999Y-106325295D02*
X106489999Y-106420533D01*
X106489999Y-106420533D02*
X106442380Y-106563390D01*
X106442380Y-106563390D02*
X105870952Y-107134819D01*
X105870952Y-107134819D02*
X106489999Y-107134819D01*
X107489999Y-107039580D02*
X107442380Y-107087200D01*
X107442380Y-107087200D02*
X107299523Y-107134819D01*
X107299523Y-107134819D02*
X107204285Y-107134819D01*
X107204285Y-107134819D02*
X107061428Y-107087200D01*
X107061428Y-107087200D02*
X106966190Y-106991961D01*
X106966190Y-106991961D02*
X106918571Y-106896723D01*
X106918571Y-106896723D02*
X106870952Y-106706247D01*
X106870952Y-106706247D02*
X106870952Y-106563390D01*
X106870952Y-106563390D02*
X106918571Y-106372914D01*
X106918571Y-106372914D02*
X106966190Y-106277676D01*
X106966190Y-106277676D02*
X107061428Y-106182438D01*
X107061428Y-106182438D02*
X107204285Y-106134819D01*
X107204285Y-106134819D02*
X107299523Y-106134819D01*
X107299523Y-106134819D02*
X107442380Y-106182438D01*
X107442380Y-106182438D02*
X107489999Y-106230057D01*
X107680476Y-107230057D02*
X108442380Y-107230057D01*
X108680476Y-107134819D02*
X108680476Y-106134819D01*
X108680476Y-106134819D02*
X109061428Y-106134819D01*
X109061428Y-106134819D02*
X109156666Y-106182438D01*
X109156666Y-106182438D02*
X109204285Y-106230057D01*
X109204285Y-106230057D02*
X109251904Y-106325295D01*
X109251904Y-106325295D02*
X109251904Y-106468152D01*
X109251904Y-106468152D02*
X109204285Y-106563390D01*
X109204285Y-106563390D02*
X109156666Y-106611009D01*
X109156666Y-106611009D02*
X109061428Y-106658628D01*
X109061428Y-106658628D02*
X108680476Y-106658628D01*
X109680476Y-107134819D02*
X109680476Y-106134819D01*
X110156666Y-107134819D02*
X110156666Y-106134819D01*
X110156666Y-106134819D02*
X110728094Y-107134819D01*
X110728094Y-107134819D02*
X110728094Y-106134819D01*
X111394761Y-106134819D02*
X111585237Y-106134819D01*
X111585237Y-106134819D02*
X111680475Y-106182438D01*
X111680475Y-106182438D02*
X111775713Y-106277676D01*
X111775713Y-106277676D02*
X111823332Y-106468152D01*
X111823332Y-106468152D02*
X111823332Y-106801485D01*
X111823332Y-106801485D02*
X111775713Y-106991961D01*
X111775713Y-106991961D02*
X111680475Y-107087200D01*
X111680475Y-107087200D02*
X111585237Y-107134819D01*
X111585237Y-107134819D02*
X111394761Y-107134819D01*
X111394761Y-107134819D02*
X111299523Y-107087200D01*
X111299523Y-107087200D02*
X111204285Y-106991961D01*
X111204285Y-106991961D02*
X111156666Y-106801485D01*
X111156666Y-106801485D02*
X111156666Y-106468152D01*
X111156666Y-106468152D02*
X111204285Y-106277676D01*
X111204285Y-106277676D02*
X111299523Y-106182438D01*
X111299523Y-106182438D02*
X111394761Y-106134819D01*
X112251904Y-106134819D02*
X112251904Y-106944342D01*
X112251904Y-106944342D02*
X112299523Y-107039580D01*
X112299523Y-107039580D02*
X112347142Y-107087200D01*
X112347142Y-107087200D02*
X112442380Y-107134819D01*
X112442380Y-107134819D02*
X112632856Y-107134819D01*
X112632856Y-107134819D02*
X112728094Y-107087200D01*
X112728094Y-107087200D02*
X112775713Y-107039580D01*
X112775713Y-107039580D02*
X112823332Y-106944342D01*
X112823332Y-106944342D02*
X112823332Y-106134819D01*
X113156666Y-106134819D02*
X113728094Y-106134819D01*
X113442380Y-107134819D02*
X113442380Y-106134819D01*
X114585237Y-107134819D02*
X114013809Y-107134819D01*
X114299523Y-107134819D02*
X114299523Y-106134819D01*
X114299523Y-106134819D02*
X114204285Y-106277676D01*
X114204285Y-106277676D02*
X114109047Y-106372914D01*
X114109047Y-106372914D02*
X114013809Y-106420533D01*
X114966190Y-106230057D02*
X115013809Y-106182438D01*
X115013809Y-106182438D02*
X115109047Y-106134819D01*
X115109047Y-106134819D02*
X115347142Y-106134819D01*
X115347142Y-106134819D02*
X115442380Y-106182438D01*
X115442380Y-106182438D02*
X115489999Y-106230057D01*
X115489999Y-106230057D02*
X115537618Y-106325295D01*
X115537618Y-106325295D02*
X115537618Y-106420533D01*
X115537618Y-106420533D02*
X115489999Y-106563390D01*
X115489999Y-106563390D02*
X114918571Y-107134819D01*
X114918571Y-107134819D02*
X115537618Y-107134819D01*
X105503819Y-80557666D02*
X105503819Y-81033856D01*
X105503819Y-81033856D02*
X104503819Y-81033856D01*
X105503819Y-79700523D02*
X105503819Y-80271951D01*
X105503819Y-79986237D02*
X104503819Y-79986237D01*
X104503819Y-79986237D02*
X104646676Y-80081475D01*
X104646676Y-80081475D02*
X104741914Y-80176713D01*
X104741914Y-80176713D02*
X104789533Y-80271951D01*
X107148571Y-111214819D02*
X107148571Y-112024342D01*
X107148571Y-112024342D02*
X107196190Y-112119580D01*
X107196190Y-112119580D02*
X107243809Y-112167200D01*
X107243809Y-112167200D02*
X107339047Y-112214819D01*
X107339047Y-112214819D02*
X107529523Y-112214819D01*
X107529523Y-112214819D02*
X107624761Y-112167200D01*
X107624761Y-112167200D02*
X107672380Y-112119580D01*
X107672380Y-112119580D02*
X107719999Y-112024342D01*
X107719999Y-112024342D02*
X107719999Y-111214819D01*
X108148571Y-111929104D02*
X108624761Y-111929104D01*
X108053333Y-112214819D02*
X108386666Y-111214819D01*
X108386666Y-111214819D02*
X108719999Y-112214819D01*
X109624761Y-112214819D02*
X109291428Y-111738628D01*
X109053333Y-112214819D02*
X109053333Y-111214819D01*
X109053333Y-111214819D02*
X109434285Y-111214819D01*
X109434285Y-111214819D02*
X109529523Y-111262438D01*
X109529523Y-111262438D02*
X109577142Y-111310057D01*
X109577142Y-111310057D02*
X109624761Y-111405295D01*
X109624761Y-111405295D02*
X109624761Y-111548152D01*
X109624761Y-111548152D02*
X109577142Y-111643390D01*
X109577142Y-111643390D02*
X109529523Y-111691009D01*
X109529523Y-111691009D02*
X109434285Y-111738628D01*
X109434285Y-111738628D02*
X109053333Y-111738628D01*
X109910476Y-111214819D02*
X110481904Y-111214819D01*
X110196190Y-112214819D02*
X110196190Y-111214819D01*
X111339047Y-112214819D02*
X110767619Y-112214819D01*
X111053333Y-112214819D02*
X111053333Y-111214819D01*
X111053333Y-111214819D02*
X110958095Y-111357676D01*
X110958095Y-111357676D02*
X110862857Y-111452914D01*
X110862857Y-111452914D02*
X110767619Y-111500533D01*
X158721819Y-94693808D02*
X157721819Y-94693808D01*
X157817057Y-94265237D02*
X157769438Y-94217618D01*
X157769438Y-94217618D02*
X157721819Y-94122380D01*
X157721819Y-94122380D02*
X157721819Y-93884285D01*
X157721819Y-93884285D02*
X157769438Y-93789047D01*
X157769438Y-93789047D02*
X157817057Y-93741428D01*
X157817057Y-93741428D02*
X157912295Y-93693809D01*
X157912295Y-93693809D02*
X158007533Y-93693809D01*
X158007533Y-93693809D02*
X158150390Y-93741428D01*
X158150390Y-93741428D02*
X158721819Y-94312856D01*
X158721819Y-94312856D02*
X158721819Y-93693809D01*
X158626580Y-92693809D02*
X158674200Y-92741428D01*
X158674200Y-92741428D02*
X158721819Y-92884285D01*
X158721819Y-92884285D02*
X158721819Y-92979523D01*
X158721819Y-92979523D02*
X158674200Y-93122380D01*
X158674200Y-93122380D02*
X158578961Y-93217618D01*
X158578961Y-93217618D02*
X158483723Y-93265237D01*
X158483723Y-93265237D02*
X158293247Y-93312856D01*
X158293247Y-93312856D02*
X158150390Y-93312856D01*
X158150390Y-93312856D02*
X157959914Y-93265237D01*
X157959914Y-93265237D02*
X157864676Y-93217618D01*
X157864676Y-93217618D02*
X157769438Y-93122380D01*
X157769438Y-93122380D02*
X157721819Y-92979523D01*
X157721819Y-92979523D02*
X157721819Y-92884285D01*
X157721819Y-92884285D02*
X157769438Y-92741428D01*
X157769438Y-92741428D02*
X157817057Y-92693809D01*
X158817057Y-92503333D02*
X158817057Y-91741428D01*
X158721819Y-91503332D02*
X157721819Y-91503332D01*
X157721819Y-91503332D02*
X157721819Y-91122380D01*
X157721819Y-91122380D02*
X157769438Y-91027142D01*
X157769438Y-91027142D02*
X157817057Y-90979523D01*
X157817057Y-90979523D02*
X157912295Y-90931904D01*
X157912295Y-90931904D02*
X158055152Y-90931904D01*
X158055152Y-90931904D02*
X158150390Y-90979523D01*
X158150390Y-90979523D02*
X158198009Y-91027142D01*
X158198009Y-91027142D02*
X158245628Y-91122380D01*
X158245628Y-91122380D02*
X158245628Y-91503332D01*
X158721819Y-90503332D02*
X157721819Y-90503332D01*
X158721819Y-90027142D02*
X157721819Y-90027142D01*
X157721819Y-90027142D02*
X158721819Y-89455714D01*
X158721819Y-89455714D02*
X157721819Y-89455714D01*
X157721819Y-88789047D02*
X157721819Y-88598571D01*
X157721819Y-88598571D02*
X157769438Y-88503333D01*
X157769438Y-88503333D02*
X157864676Y-88408095D01*
X157864676Y-88408095D02*
X158055152Y-88360476D01*
X158055152Y-88360476D02*
X158388485Y-88360476D01*
X158388485Y-88360476D02*
X158578961Y-88408095D01*
X158578961Y-88408095D02*
X158674200Y-88503333D01*
X158674200Y-88503333D02*
X158721819Y-88598571D01*
X158721819Y-88598571D02*
X158721819Y-88789047D01*
X158721819Y-88789047D02*
X158674200Y-88884285D01*
X158674200Y-88884285D02*
X158578961Y-88979523D01*
X158578961Y-88979523D02*
X158388485Y-89027142D01*
X158388485Y-89027142D02*
X158055152Y-89027142D01*
X158055152Y-89027142D02*
X157864676Y-88979523D01*
X157864676Y-88979523D02*
X157769438Y-88884285D01*
X157769438Y-88884285D02*
X157721819Y-88789047D01*
X157721819Y-87931904D02*
X158531342Y-87931904D01*
X158531342Y-87931904D02*
X158626580Y-87884285D01*
X158626580Y-87884285D02*
X158674200Y-87836666D01*
X158674200Y-87836666D02*
X158721819Y-87741428D01*
X158721819Y-87741428D02*
X158721819Y-87550952D01*
X158721819Y-87550952D02*
X158674200Y-87455714D01*
X158674200Y-87455714D02*
X158626580Y-87408095D01*
X158626580Y-87408095D02*
X158531342Y-87360476D01*
X158531342Y-87360476D02*
X157721819Y-87360476D01*
X157721819Y-87027142D02*
X157721819Y-86455714D01*
X158721819Y-86741428D02*
X157721819Y-86741428D01*
X157817057Y-86169999D02*
X157769438Y-86122380D01*
X157769438Y-86122380D02*
X157721819Y-86027142D01*
X157721819Y-86027142D02*
X157721819Y-85789047D01*
X157721819Y-85789047D02*
X157769438Y-85693809D01*
X157769438Y-85693809D02*
X157817057Y-85646190D01*
X157817057Y-85646190D02*
X157912295Y-85598571D01*
X157912295Y-85598571D02*
X158007533Y-85598571D01*
X158007533Y-85598571D02*
X158150390Y-85646190D01*
X158150390Y-85646190D02*
X158721819Y-86217618D01*
X158721819Y-86217618D02*
X158721819Y-85598571D01*
X131567685Y-69397819D02*
X131567685Y-68397819D01*
X132615303Y-69302580D02*
X132567684Y-69350200D01*
X132567684Y-69350200D02*
X132424827Y-69397819D01*
X132424827Y-69397819D02*
X132329589Y-69397819D01*
X132329589Y-69397819D02*
X132186732Y-69350200D01*
X132186732Y-69350200D02*
X132091494Y-69254961D01*
X132091494Y-69254961D02*
X132043875Y-69159723D01*
X132043875Y-69159723D02*
X131996256Y-68969247D01*
X131996256Y-68969247D02*
X131996256Y-68826390D01*
X131996256Y-68826390D02*
X132043875Y-68635914D01*
X132043875Y-68635914D02*
X132091494Y-68540676D01*
X132091494Y-68540676D02*
X132186732Y-68445438D01*
X132186732Y-68445438D02*
X132329589Y-68397819D01*
X132329589Y-68397819D02*
X132424827Y-68397819D01*
X132424827Y-68397819D02*
X132567684Y-68445438D01*
X132567684Y-68445438D02*
X132615303Y-68493057D01*
X132996256Y-68493057D02*
X133043875Y-68445438D01*
X133043875Y-68445438D02*
X133139113Y-68397819D01*
X133139113Y-68397819D02*
X133377208Y-68397819D01*
X133377208Y-68397819D02*
X133472446Y-68445438D01*
X133472446Y-68445438D02*
X133520065Y-68493057D01*
X133520065Y-68493057D02*
X133567684Y-68588295D01*
X133567684Y-68588295D02*
X133567684Y-68683533D01*
X133567684Y-68683533D02*
X133520065Y-68826390D01*
X133520065Y-68826390D02*
X132948637Y-69397819D01*
X132948637Y-69397819D02*
X133567684Y-69397819D01*
X152003667Y-110457200D02*
X152146524Y-110504819D01*
X152146524Y-110504819D02*
X152384619Y-110504819D01*
X152384619Y-110504819D02*
X152479857Y-110457200D01*
X152479857Y-110457200D02*
X152527476Y-110409580D01*
X152527476Y-110409580D02*
X152575095Y-110314342D01*
X152575095Y-110314342D02*
X152575095Y-110219104D01*
X152575095Y-110219104D02*
X152527476Y-110123866D01*
X152527476Y-110123866D02*
X152479857Y-110076247D01*
X152479857Y-110076247D02*
X152384619Y-110028628D01*
X152384619Y-110028628D02*
X152194143Y-109981009D01*
X152194143Y-109981009D02*
X152098905Y-109933390D01*
X152098905Y-109933390D02*
X152051286Y-109885771D01*
X152051286Y-109885771D02*
X152003667Y-109790533D01*
X152003667Y-109790533D02*
X152003667Y-109695295D01*
X152003667Y-109695295D02*
X152051286Y-109600057D01*
X152051286Y-109600057D02*
X152098905Y-109552438D01*
X152098905Y-109552438D02*
X152194143Y-109504819D01*
X152194143Y-109504819D02*
X152432238Y-109504819D01*
X152432238Y-109504819D02*
X152575095Y-109552438D01*
X152908429Y-109504819D02*
X153146524Y-110504819D01*
X153146524Y-110504819D02*
X153337000Y-109790533D01*
X153337000Y-109790533D02*
X153527476Y-110504819D01*
X153527476Y-110504819D02*
X153765572Y-109504819D01*
X154098905Y-109600057D02*
X154146524Y-109552438D01*
X154146524Y-109552438D02*
X154241762Y-109504819D01*
X154241762Y-109504819D02*
X154479857Y-109504819D01*
X154479857Y-109504819D02*
X154575095Y-109552438D01*
X154575095Y-109552438D02*
X154622714Y-109600057D01*
X154622714Y-109600057D02*
X154670333Y-109695295D01*
X154670333Y-109695295D02*
X154670333Y-109790533D01*
X154670333Y-109790533D02*
X154622714Y-109933390D01*
X154622714Y-109933390D02*
X154051286Y-110504819D01*
X154051286Y-110504819D02*
X154670333Y-110504819D01*
X152425095Y-54589819D02*
X152425095Y-55399342D01*
X152425095Y-55399342D02*
X152472714Y-55494580D01*
X152472714Y-55494580D02*
X152520333Y-55542200D01*
X152520333Y-55542200D02*
X152615571Y-55589819D01*
X152615571Y-55589819D02*
X152806047Y-55589819D01*
X152806047Y-55589819D02*
X152901285Y-55542200D01*
X152901285Y-55542200D02*
X152948904Y-55494580D01*
X152948904Y-55494580D02*
X152996523Y-55399342D01*
X152996523Y-55399342D02*
X152996523Y-54589819D01*
X153425095Y-54685057D02*
X153472714Y-54637438D01*
X153472714Y-54637438D02*
X153567952Y-54589819D01*
X153567952Y-54589819D02*
X153806047Y-54589819D01*
X153806047Y-54589819D02*
X153901285Y-54637438D01*
X153901285Y-54637438D02*
X153948904Y-54685057D01*
X153948904Y-54685057D02*
X153996523Y-54780295D01*
X153996523Y-54780295D02*
X153996523Y-54875533D01*
X153996523Y-54875533D02*
X153948904Y-55018390D01*
X153948904Y-55018390D02*
X153377476Y-55589819D01*
X153377476Y-55589819D02*
X153996523Y-55589819D01*
X146021819Y-72730951D02*
X145021819Y-72730951D01*
X145021819Y-72730951D02*
X145021819Y-72349999D01*
X145021819Y-72349999D02*
X145069438Y-72254761D01*
X145069438Y-72254761D02*
X145117057Y-72207142D01*
X145117057Y-72207142D02*
X145212295Y-72159523D01*
X145212295Y-72159523D02*
X145355152Y-72159523D01*
X145355152Y-72159523D02*
X145450390Y-72207142D01*
X145450390Y-72207142D02*
X145498009Y-72254761D01*
X145498009Y-72254761D02*
X145545628Y-72349999D01*
X145545628Y-72349999D02*
X145545628Y-72730951D01*
X146021819Y-71730951D02*
X145021819Y-71730951D01*
X145926580Y-70683333D02*
X145974200Y-70730952D01*
X145974200Y-70730952D02*
X146021819Y-70873809D01*
X146021819Y-70873809D02*
X146021819Y-70969047D01*
X146021819Y-70969047D02*
X145974200Y-71111904D01*
X145974200Y-71111904D02*
X145878961Y-71207142D01*
X145878961Y-71207142D02*
X145783723Y-71254761D01*
X145783723Y-71254761D02*
X145593247Y-71302380D01*
X145593247Y-71302380D02*
X145450390Y-71302380D01*
X145450390Y-71302380D02*
X145259914Y-71254761D01*
X145259914Y-71254761D02*
X145164676Y-71207142D01*
X145164676Y-71207142D02*
X145069438Y-71111904D01*
X145069438Y-71111904D02*
X145021819Y-70969047D01*
X145021819Y-70969047D02*
X145021819Y-70873809D01*
X145021819Y-70873809D02*
X145069438Y-70730952D01*
X145069438Y-70730952D02*
X145117057Y-70683333D01*
X145021819Y-70064285D02*
X145021819Y-69873809D01*
X145021819Y-69873809D02*
X145069438Y-69778571D01*
X145069438Y-69778571D02*
X145164676Y-69683333D01*
X145164676Y-69683333D02*
X145355152Y-69635714D01*
X145355152Y-69635714D02*
X145688485Y-69635714D01*
X145688485Y-69635714D02*
X145878961Y-69683333D01*
X145878961Y-69683333D02*
X145974200Y-69778571D01*
X145974200Y-69778571D02*
X146021819Y-69873809D01*
X146021819Y-69873809D02*
X146021819Y-70064285D01*
X146021819Y-70064285D02*
X145974200Y-70159523D01*
X145974200Y-70159523D02*
X145878961Y-70254761D01*
X145878961Y-70254761D02*
X145688485Y-70302380D01*
X145688485Y-70302380D02*
X145355152Y-70302380D01*
X145355152Y-70302380D02*
X145164676Y-70254761D01*
X145164676Y-70254761D02*
X145069438Y-70159523D01*
X145069438Y-70159523D02*
X145021819Y-70064285D01*
X146117057Y-69445238D02*
X146117057Y-68683333D01*
X146021819Y-67873809D02*
X145545628Y-68207142D01*
X146021819Y-68445237D02*
X145021819Y-68445237D01*
X145021819Y-68445237D02*
X145021819Y-68064285D01*
X145021819Y-68064285D02*
X145069438Y-67969047D01*
X145069438Y-67969047D02*
X145117057Y-67921428D01*
X145117057Y-67921428D02*
X145212295Y-67873809D01*
X145212295Y-67873809D02*
X145355152Y-67873809D01*
X145355152Y-67873809D02*
X145450390Y-67921428D01*
X145450390Y-67921428D02*
X145498009Y-67969047D01*
X145498009Y-67969047D02*
X145545628Y-68064285D01*
X145545628Y-68064285D02*
X145545628Y-68445237D01*
X146021819Y-66921428D02*
X146021819Y-67492856D01*
X146021819Y-67207142D02*
X145021819Y-67207142D01*
X145021819Y-67207142D02*
X145164676Y-67302380D01*
X145164676Y-67302380D02*
X145259914Y-67397618D01*
X145259914Y-67397618D02*
X145307533Y-67492856D01*
X126858618Y-57477819D02*
X126525285Y-57001628D01*
X126287190Y-57477819D02*
X126287190Y-56477819D01*
X126287190Y-56477819D02*
X126668142Y-56477819D01*
X126668142Y-56477819D02*
X126763380Y-56525438D01*
X126763380Y-56525438D02*
X126810999Y-56573057D01*
X126810999Y-56573057D02*
X126858618Y-56668295D01*
X126858618Y-56668295D02*
X126858618Y-56811152D01*
X126858618Y-56811152D02*
X126810999Y-56906390D01*
X126810999Y-56906390D02*
X126763380Y-56954009D01*
X126763380Y-56954009D02*
X126668142Y-57001628D01*
X126668142Y-57001628D02*
X126287190Y-57001628D01*
X127239571Y-57430200D02*
X127382428Y-57477819D01*
X127382428Y-57477819D02*
X127620523Y-57477819D01*
X127620523Y-57477819D02*
X127715761Y-57430200D01*
X127715761Y-57430200D02*
X127763380Y-57382580D01*
X127763380Y-57382580D02*
X127810999Y-57287342D01*
X127810999Y-57287342D02*
X127810999Y-57192104D01*
X127810999Y-57192104D02*
X127763380Y-57096866D01*
X127763380Y-57096866D02*
X127715761Y-57049247D01*
X127715761Y-57049247D02*
X127620523Y-57001628D01*
X127620523Y-57001628D02*
X127430047Y-56954009D01*
X127430047Y-56954009D02*
X127334809Y-56906390D01*
X127334809Y-56906390D02*
X127287190Y-56858771D01*
X127287190Y-56858771D02*
X127239571Y-56763533D01*
X127239571Y-56763533D02*
X127239571Y-56668295D01*
X127239571Y-56668295D02*
X127287190Y-56573057D01*
X127287190Y-56573057D02*
X127334809Y-56525438D01*
X127334809Y-56525438D02*
X127430047Y-56477819D01*
X127430047Y-56477819D02*
X127668142Y-56477819D01*
X127668142Y-56477819D02*
X127810999Y-56525438D01*
X128096714Y-56477819D02*
X128668142Y-56477819D01*
X128382428Y-57477819D02*
X128382428Y-56477819D01*
X128763381Y-57573057D02*
X129525285Y-57573057D01*
X129715762Y-57430200D02*
X129858619Y-57477819D01*
X129858619Y-57477819D02*
X130096714Y-57477819D01*
X130096714Y-57477819D02*
X130191952Y-57430200D01*
X130191952Y-57430200D02*
X130239571Y-57382580D01*
X130239571Y-57382580D02*
X130287190Y-57287342D01*
X130287190Y-57287342D02*
X130287190Y-57192104D01*
X130287190Y-57192104D02*
X130239571Y-57096866D01*
X130239571Y-57096866D02*
X130191952Y-57049247D01*
X130191952Y-57049247D02*
X130096714Y-57001628D01*
X130096714Y-57001628D02*
X129906238Y-56954009D01*
X129906238Y-56954009D02*
X129811000Y-56906390D01*
X129811000Y-56906390D02*
X129763381Y-56858771D01*
X129763381Y-56858771D02*
X129715762Y-56763533D01*
X129715762Y-56763533D02*
X129715762Y-56668295D01*
X129715762Y-56668295D02*
X129763381Y-56573057D01*
X129763381Y-56573057D02*
X129811000Y-56525438D01*
X129811000Y-56525438D02*
X129906238Y-56477819D01*
X129906238Y-56477819D02*
X130144333Y-56477819D01*
X130144333Y-56477819D02*
X130287190Y-56525438D01*
X130620524Y-56477819D02*
X130858619Y-57477819D01*
X130858619Y-57477819D02*
X131049095Y-56763533D01*
X131049095Y-56763533D02*
X131239571Y-57477819D01*
X131239571Y-57477819D02*
X131477667Y-56477819D01*
X132382428Y-57477819D02*
X131811000Y-57477819D01*
X132096714Y-57477819D02*
X132096714Y-56477819D01*
X132096714Y-56477819D02*
X132001476Y-56620676D01*
X132001476Y-56620676D02*
X131906238Y-56715914D01*
X131906238Y-56715914D02*
X131811000Y-56763533D01*
X103378095Y-117624819D02*
X103378095Y-116624819D01*
X103378095Y-117101009D02*
X103949523Y-117101009D01*
X103949523Y-117624819D02*
X103949523Y-116624819D01*
X104854285Y-116958152D02*
X104854285Y-117624819D01*
X104616190Y-116577200D02*
X104378095Y-117291485D01*
X104378095Y-117291485D02*
X104997142Y-117291485D01*
X115532047Y-111239819D02*
X115722523Y-111239819D01*
X115722523Y-111239819D02*
X115817761Y-111287438D01*
X115817761Y-111287438D02*
X115912999Y-111382676D01*
X115912999Y-111382676D02*
X115960618Y-111573152D01*
X115960618Y-111573152D02*
X115960618Y-111906485D01*
X115960618Y-111906485D02*
X115912999Y-112096961D01*
X115912999Y-112096961D02*
X115817761Y-112192200D01*
X115817761Y-112192200D02*
X115722523Y-112239819D01*
X115722523Y-112239819D02*
X115532047Y-112239819D01*
X115532047Y-112239819D02*
X115436809Y-112192200D01*
X115436809Y-112192200D02*
X115341571Y-112096961D01*
X115341571Y-112096961D02*
X115293952Y-111906485D01*
X115293952Y-111906485D02*
X115293952Y-111573152D01*
X115293952Y-111573152D02*
X115341571Y-111382676D01*
X115341571Y-111382676D02*
X115436809Y-111287438D01*
X115436809Y-111287438D02*
X115532047Y-111239819D01*
X116865380Y-112239819D02*
X116389190Y-112239819D01*
X116389190Y-112239819D02*
X116389190Y-111239819D01*
X117198714Y-111716009D02*
X117532047Y-111716009D01*
X117674904Y-112239819D02*
X117198714Y-112239819D01*
X117198714Y-112239819D02*
X117198714Y-111239819D01*
X117198714Y-111239819D02*
X117674904Y-111239819D01*
X118103476Y-112239819D02*
X118103476Y-111239819D01*
X118103476Y-111239819D02*
X118341571Y-111239819D01*
X118341571Y-111239819D02*
X118484428Y-111287438D01*
X118484428Y-111287438D02*
X118579666Y-111382676D01*
X118579666Y-111382676D02*
X118627285Y-111477914D01*
X118627285Y-111477914D02*
X118674904Y-111668390D01*
X118674904Y-111668390D02*
X118674904Y-111811247D01*
X118674904Y-111811247D02*
X118627285Y-112001723D01*
X118627285Y-112001723D02*
X118579666Y-112096961D01*
X118579666Y-112096961D02*
X118484428Y-112192200D01*
X118484428Y-112192200D02*
X118341571Y-112239819D01*
X118341571Y-112239819D02*
X118103476Y-112239819D01*
X118865381Y-112335057D02*
X119627285Y-112335057D01*
X120436809Y-112144580D02*
X120389190Y-112192200D01*
X120389190Y-112192200D02*
X120246333Y-112239819D01*
X120246333Y-112239819D02*
X120151095Y-112239819D01*
X120151095Y-112239819D02*
X120008238Y-112192200D01*
X120008238Y-112192200D02*
X119913000Y-112096961D01*
X119913000Y-112096961D02*
X119865381Y-112001723D01*
X119865381Y-112001723D02*
X119817762Y-111811247D01*
X119817762Y-111811247D02*
X119817762Y-111668390D01*
X119817762Y-111668390D02*
X119865381Y-111477914D01*
X119865381Y-111477914D02*
X119913000Y-111382676D01*
X119913000Y-111382676D02*
X120008238Y-111287438D01*
X120008238Y-111287438D02*
X120151095Y-111239819D01*
X120151095Y-111239819D02*
X120246333Y-111239819D01*
X120246333Y-111239819D02*
X120389190Y-111287438D01*
X120389190Y-111287438D02*
X120436809Y-111335057D01*
X121055857Y-111239819D02*
X121246333Y-111239819D01*
X121246333Y-111239819D02*
X121341571Y-111287438D01*
X121341571Y-111287438D02*
X121436809Y-111382676D01*
X121436809Y-111382676D02*
X121484428Y-111573152D01*
X121484428Y-111573152D02*
X121484428Y-111906485D01*
X121484428Y-111906485D02*
X121436809Y-112096961D01*
X121436809Y-112096961D02*
X121341571Y-112192200D01*
X121341571Y-112192200D02*
X121246333Y-112239819D01*
X121246333Y-112239819D02*
X121055857Y-112239819D01*
X121055857Y-112239819D02*
X120960619Y-112192200D01*
X120960619Y-112192200D02*
X120865381Y-112096961D01*
X120865381Y-112096961D02*
X120817762Y-111906485D01*
X120817762Y-111906485D02*
X120817762Y-111573152D01*
X120817762Y-111573152D02*
X120865381Y-111382676D01*
X120865381Y-111382676D02*
X120960619Y-111287438D01*
X120960619Y-111287438D02*
X121055857Y-111239819D01*
X121913000Y-112239819D02*
X121913000Y-111239819D01*
X121913000Y-111239819D02*
X122484428Y-112239819D01*
X122484428Y-112239819D02*
X122484428Y-111239819D01*
X122960619Y-112239819D02*
X122960619Y-111239819D01*
X122960619Y-111239819D02*
X123532047Y-112239819D01*
X123532047Y-112239819D02*
X123532047Y-111239819D01*
X124532047Y-112239819D02*
X123960619Y-112239819D01*
X124246333Y-112239819D02*
X124246333Y-111239819D01*
X124246333Y-111239819D02*
X124151095Y-111382676D01*
X124151095Y-111382676D02*
X124055857Y-111477914D01*
X124055857Y-111477914D02*
X123960619Y-111525533D01*
X161798095Y-117624819D02*
X161798095Y-116624819D01*
X161798095Y-117101009D02*
X162369523Y-117101009D01*
X162369523Y-117624819D02*
X162369523Y-116624819D01*
X163321904Y-116624819D02*
X162845714Y-116624819D01*
X162845714Y-116624819D02*
X162798095Y-117101009D01*
X162798095Y-117101009D02*
X162845714Y-117053390D01*
X162845714Y-117053390D02*
X162940952Y-117005771D01*
X162940952Y-117005771D02*
X163179047Y-117005771D01*
X163179047Y-117005771D02*
X163274285Y-117053390D01*
X163274285Y-117053390D02*
X163321904Y-117101009D01*
X163321904Y-117101009D02*
X163369523Y-117196247D01*
X163369523Y-117196247D02*
X163369523Y-117434342D01*
X163369523Y-117434342D02*
X163321904Y-117529580D01*
X163321904Y-117529580D02*
X163274285Y-117577200D01*
X163274285Y-117577200D02*
X163179047Y-117624819D01*
X163179047Y-117624819D02*
X162940952Y-117624819D01*
X162940952Y-117624819D02*
X162845714Y-117577200D01*
X162845714Y-117577200D02*
X162798095Y-117529580D01*
X108922595Y-86309819D02*
X108922595Y-87119342D01*
X108922595Y-87119342D02*
X108970214Y-87214580D01*
X108970214Y-87214580D02*
X109017833Y-87262200D01*
X109017833Y-87262200D02*
X109113071Y-87309819D01*
X109113071Y-87309819D02*
X109303547Y-87309819D01*
X109303547Y-87309819D02*
X109398785Y-87262200D01*
X109398785Y-87262200D02*
X109446404Y-87214580D01*
X109446404Y-87214580D02*
X109494023Y-87119342D01*
X109494023Y-87119342D02*
X109494023Y-86309819D01*
X110494023Y-87309819D02*
X109922595Y-87309819D01*
X110208309Y-87309819D02*
X110208309Y-86309819D01*
X110208309Y-86309819D02*
X110113071Y-86452676D01*
X110113071Y-86452676D02*
X110017833Y-86547914D01*
X110017833Y-86547914D02*
X109922595Y-86595533D01*
X163801819Y-81993808D02*
X162801819Y-81993808D01*
X162897057Y-81565237D02*
X162849438Y-81517618D01*
X162849438Y-81517618D02*
X162801819Y-81422380D01*
X162801819Y-81422380D02*
X162801819Y-81184285D01*
X162801819Y-81184285D02*
X162849438Y-81089047D01*
X162849438Y-81089047D02*
X162897057Y-81041428D01*
X162897057Y-81041428D02*
X162992295Y-80993809D01*
X162992295Y-80993809D02*
X163087533Y-80993809D01*
X163087533Y-80993809D02*
X163230390Y-81041428D01*
X163230390Y-81041428D02*
X163801819Y-81612856D01*
X163801819Y-81612856D02*
X163801819Y-80993809D01*
X163706580Y-79993809D02*
X163754200Y-80041428D01*
X163754200Y-80041428D02*
X163801819Y-80184285D01*
X163801819Y-80184285D02*
X163801819Y-80279523D01*
X163801819Y-80279523D02*
X163754200Y-80422380D01*
X163754200Y-80422380D02*
X163658961Y-80517618D01*
X163658961Y-80517618D02*
X163563723Y-80565237D01*
X163563723Y-80565237D02*
X163373247Y-80612856D01*
X163373247Y-80612856D02*
X163230390Y-80612856D01*
X163230390Y-80612856D02*
X163039914Y-80565237D01*
X163039914Y-80565237D02*
X162944676Y-80517618D01*
X162944676Y-80517618D02*
X162849438Y-80422380D01*
X162849438Y-80422380D02*
X162801819Y-80279523D01*
X162801819Y-80279523D02*
X162801819Y-80184285D01*
X162801819Y-80184285D02*
X162849438Y-80041428D01*
X162849438Y-80041428D02*
X162897057Y-79993809D01*
X163897057Y-79803333D02*
X163897057Y-79041428D01*
X163801819Y-78803332D02*
X162801819Y-78803332D01*
X162801819Y-78803332D02*
X162801819Y-78422380D01*
X162801819Y-78422380D02*
X162849438Y-78327142D01*
X162849438Y-78327142D02*
X162897057Y-78279523D01*
X162897057Y-78279523D02*
X162992295Y-78231904D01*
X162992295Y-78231904D02*
X163135152Y-78231904D01*
X163135152Y-78231904D02*
X163230390Y-78279523D01*
X163230390Y-78279523D02*
X163278009Y-78327142D01*
X163278009Y-78327142D02*
X163325628Y-78422380D01*
X163325628Y-78422380D02*
X163325628Y-78803332D01*
X163801819Y-77803332D02*
X162801819Y-77803332D01*
X163801819Y-77327142D02*
X162801819Y-77327142D01*
X162801819Y-77327142D02*
X163801819Y-76755714D01*
X163801819Y-76755714D02*
X162801819Y-76755714D01*
X162801819Y-76089047D02*
X162801819Y-75898571D01*
X162801819Y-75898571D02*
X162849438Y-75803333D01*
X162849438Y-75803333D02*
X162944676Y-75708095D01*
X162944676Y-75708095D02*
X163135152Y-75660476D01*
X163135152Y-75660476D02*
X163468485Y-75660476D01*
X163468485Y-75660476D02*
X163658961Y-75708095D01*
X163658961Y-75708095D02*
X163754200Y-75803333D01*
X163754200Y-75803333D02*
X163801819Y-75898571D01*
X163801819Y-75898571D02*
X163801819Y-76089047D01*
X163801819Y-76089047D02*
X163754200Y-76184285D01*
X163754200Y-76184285D02*
X163658961Y-76279523D01*
X163658961Y-76279523D02*
X163468485Y-76327142D01*
X163468485Y-76327142D02*
X163135152Y-76327142D01*
X163135152Y-76327142D02*
X162944676Y-76279523D01*
X162944676Y-76279523D02*
X162849438Y-76184285D01*
X162849438Y-76184285D02*
X162801819Y-76089047D01*
X162801819Y-75231904D02*
X163611342Y-75231904D01*
X163611342Y-75231904D02*
X163706580Y-75184285D01*
X163706580Y-75184285D02*
X163754200Y-75136666D01*
X163754200Y-75136666D02*
X163801819Y-75041428D01*
X163801819Y-75041428D02*
X163801819Y-74850952D01*
X163801819Y-74850952D02*
X163754200Y-74755714D01*
X163754200Y-74755714D02*
X163706580Y-74708095D01*
X163706580Y-74708095D02*
X163611342Y-74660476D01*
X163611342Y-74660476D02*
X162801819Y-74660476D01*
X162801819Y-74327142D02*
X162801819Y-73755714D01*
X163801819Y-74041428D02*
X162801819Y-74041428D01*
X162801819Y-72946190D02*
X162801819Y-73422380D01*
X162801819Y-73422380D02*
X163278009Y-73469999D01*
X163278009Y-73469999D02*
X163230390Y-73422380D01*
X163230390Y-73422380D02*
X163182771Y-73327142D01*
X163182771Y-73327142D02*
X163182771Y-73089047D01*
X163182771Y-73089047D02*
X163230390Y-72993809D01*
X163230390Y-72993809D02*
X163278009Y-72946190D01*
X163278009Y-72946190D02*
X163373247Y-72898571D01*
X163373247Y-72898571D02*
X163611342Y-72898571D01*
X163611342Y-72898571D02*
X163706580Y-72946190D01*
X163706580Y-72946190D02*
X163754200Y-72993809D01*
X163754200Y-72993809D02*
X163801819Y-73089047D01*
X163801819Y-73089047D02*
X163801819Y-73327142D01*
X163801819Y-73327142D02*
X163754200Y-73422380D01*
X163754200Y-73422380D02*
X163706580Y-73469999D01*
X163801819Y-94693808D02*
X162801819Y-94693808D01*
X162897057Y-94265237D02*
X162849438Y-94217618D01*
X162849438Y-94217618D02*
X162801819Y-94122380D01*
X162801819Y-94122380D02*
X162801819Y-93884285D01*
X162801819Y-93884285D02*
X162849438Y-93789047D01*
X162849438Y-93789047D02*
X162897057Y-93741428D01*
X162897057Y-93741428D02*
X162992295Y-93693809D01*
X162992295Y-93693809D02*
X163087533Y-93693809D01*
X163087533Y-93693809D02*
X163230390Y-93741428D01*
X163230390Y-93741428D02*
X163801819Y-94312856D01*
X163801819Y-94312856D02*
X163801819Y-93693809D01*
X163706580Y-92693809D02*
X163754200Y-92741428D01*
X163754200Y-92741428D02*
X163801819Y-92884285D01*
X163801819Y-92884285D02*
X163801819Y-92979523D01*
X163801819Y-92979523D02*
X163754200Y-93122380D01*
X163754200Y-93122380D02*
X163658961Y-93217618D01*
X163658961Y-93217618D02*
X163563723Y-93265237D01*
X163563723Y-93265237D02*
X163373247Y-93312856D01*
X163373247Y-93312856D02*
X163230390Y-93312856D01*
X163230390Y-93312856D02*
X163039914Y-93265237D01*
X163039914Y-93265237D02*
X162944676Y-93217618D01*
X162944676Y-93217618D02*
X162849438Y-93122380D01*
X162849438Y-93122380D02*
X162801819Y-92979523D01*
X162801819Y-92979523D02*
X162801819Y-92884285D01*
X162801819Y-92884285D02*
X162849438Y-92741428D01*
X162849438Y-92741428D02*
X162897057Y-92693809D01*
X163897057Y-92503333D02*
X163897057Y-91741428D01*
X163801819Y-91503332D02*
X162801819Y-91503332D01*
X162801819Y-91503332D02*
X162801819Y-91122380D01*
X162801819Y-91122380D02*
X162849438Y-91027142D01*
X162849438Y-91027142D02*
X162897057Y-90979523D01*
X162897057Y-90979523D02*
X162992295Y-90931904D01*
X162992295Y-90931904D02*
X163135152Y-90931904D01*
X163135152Y-90931904D02*
X163230390Y-90979523D01*
X163230390Y-90979523D02*
X163278009Y-91027142D01*
X163278009Y-91027142D02*
X163325628Y-91122380D01*
X163325628Y-91122380D02*
X163325628Y-91503332D01*
X163801819Y-90503332D02*
X162801819Y-90503332D01*
X163801819Y-90027142D02*
X162801819Y-90027142D01*
X162801819Y-90027142D02*
X163801819Y-89455714D01*
X163801819Y-89455714D02*
X162801819Y-89455714D01*
X162801819Y-88789047D02*
X162801819Y-88598571D01*
X162801819Y-88598571D02*
X162849438Y-88503333D01*
X162849438Y-88503333D02*
X162944676Y-88408095D01*
X162944676Y-88408095D02*
X163135152Y-88360476D01*
X163135152Y-88360476D02*
X163468485Y-88360476D01*
X163468485Y-88360476D02*
X163658961Y-88408095D01*
X163658961Y-88408095D02*
X163754200Y-88503333D01*
X163754200Y-88503333D02*
X163801819Y-88598571D01*
X163801819Y-88598571D02*
X163801819Y-88789047D01*
X163801819Y-88789047D02*
X163754200Y-88884285D01*
X163754200Y-88884285D02*
X163658961Y-88979523D01*
X163658961Y-88979523D02*
X163468485Y-89027142D01*
X163468485Y-89027142D02*
X163135152Y-89027142D01*
X163135152Y-89027142D02*
X162944676Y-88979523D01*
X162944676Y-88979523D02*
X162849438Y-88884285D01*
X162849438Y-88884285D02*
X162801819Y-88789047D01*
X162801819Y-87931904D02*
X163611342Y-87931904D01*
X163611342Y-87931904D02*
X163706580Y-87884285D01*
X163706580Y-87884285D02*
X163754200Y-87836666D01*
X163754200Y-87836666D02*
X163801819Y-87741428D01*
X163801819Y-87741428D02*
X163801819Y-87550952D01*
X163801819Y-87550952D02*
X163754200Y-87455714D01*
X163754200Y-87455714D02*
X163706580Y-87408095D01*
X163706580Y-87408095D02*
X163611342Y-87360476D01*
X163611342Y-87360476D02*
X162801819Y-87360476D01*
X162801819Y-87027142D02*
X162801819Y-86455714D01*
X163801819Y-86741428D02*
X162801819Y-86741428D01*
X162801819Y-85693809D02*
X162801819Y-85884285D01*
X162801819Y-85884285D02*
X162849438Y-85979523D01*
X162849438Y-85979523D02*
X162897057Y-86027142D01*
X162897057Y-86027142D02*
X163039914Y-86122380D01*
X163039914Y-86122380D02*
X163230390Y-86169999D01*
X163230390Y-86169999D02*
X163611342Y-86169999D01*
X163611342Y-86169999D02*
X163706580Y-86122380D01*
X163706580Y-86122380D02*
X163754200Y-86074761D01*
X163754200Y-86074761D02*
X163801819Y-85979523D01*
X163801819Y-85979523D02*
X163801819Y-85789047D01*
X163801819Y-85789047D02*
X163754200Y-85693809D01*
X163754200Y-85693809D02*
X163706580Y-85646190D01*
X163706580Y-85646190D02*
X163611342Y-85598571D01*
X163611342Y-85598571D02*
X163373247Y-85598571D01*
X163373247Y-85598571D02*
X163278009Y-85646190D01*
X163278009Y-85646190D02*
X163230390Y-85693809D01*
X163230390Y-85693809D02*
X163182771Y-85789047D01*
X163182771Y-85789047D02*
X163182771Y-85979523D01*
X163182771Y-85979523D02*
X163230390Y-86074761D01*
X163230390Y-86074761D02*
X163278009Y-86122380D01*
X163278009Y-86122380D02*
X163373247Y-86169999D01*
X128634380Y-60106876D02*
X128634380Y-60624971D01*
X128634380Y-60624971D02*
X128664857Y-60685923D01*
X128664857Y-60685923D02*
X128695333Y-60716400D01*
X128695333Y-60716400D02*
X128756285Y-60746876D01*
X128756285Y-60746876D02*
X128878190Y-60746876D01*
X128878190Y-60746876D02*
X128939142Y-60716400D01*
X128939142Y-60716400D02*
X128969619Y-60685923D01*
X128969619Y-60685923D02*
X129000095Y-60624971D01*
X129000095Y-60624971D02*
X129000095Y-60106876D01*
X129243904Y-60106876D02*
X129640095Y-60106876D01*
X129640095Y-60106876D02*
X129426761Y-60350685D01*
X129426761Y-60350685D02*
X129518190Y-60350685D01*
X129518190Y-60350685D02*
X129579142Y-60381161D01*
X129579142Y-60381161D02*
X129609618Y-60411638D01*
X129609618Y-60411638D02*
X129640095Y-60472590D01*
X129640095Y-60472590D02*
X129640095Y-60624971D01*
X129640095Y-60624971D02*
X129609618Y-60685923D01*
X129609618Y-60685923D02*
X129579142Y-60716400D01*
X129579142Y-60716400D02*
X129518190Y-60746876D01*
X129518190Y-60746876D02*
X129335333Y-60746876D01*
X129335333Y-60746876D02*
X129274380Y-60716400D01*
X129274380Y-60716400D02*
X129243904Y-60685923D01*
X107721095Y-62446819D02*
X107721095Y-63256342D01*
X107721095Y-63256342D02*
X107768714Y-63351580D01*
X107768714Y-63351580D02*
X107816333Y-63399200D01*
X107816333Y-63399200D02*
X107911571Y-63446819D01*
X107911571Y-63446819D02*
X108102047Y-63446819D01*
X108102047Y-63446819D02*
X108197285Y-63399200D01*
X108197285Y-63399200D02*
X108244904Y-63351580D01*
X108244904Y-63351580D02*
X108292523Y-63256342D01*
X108292523Y-63256342D02*
X108292523Y-62446819D01*
X109244904Y-62446819D02*
X108768714Y-62446819D01*
X108768714Y-62446819D02*
X108721095Y-62923009D01*
X108721095Y-62923009D02*
X108768714Y-62875390D01*
X108768714Y-62875390D02*
X108863952Y-62827771D01*
X108863952Y-62827771D02*
X109102047Y-62827771D01*
X109102047Y-62827771D02*
X109197285Y-62875390D01*
X109197285Y-62875390D02*
X109244904Y-62923009D01*
X109244904Y-62923009D02*
X109292523Y-63018247D01*
X109292523Y-63018247D02*
X109292523Y-63256342D01*
X109292523Y-63256342D02*
X109244904Y-63351580D01*
X109244904Y-63351580D02*
X109197285Y-63399200D01*
X109197285Y-63399200D02*
X109102047Y-63446819D01*
X109102047Y-63446819D02*
X108863952Y-63446819D01*
X108863952Y-63446819D02*
X108768714Y-63399200D01*
X108768714Y-63399200D02*
X108721095Y-63351580D01*
X128946524Y-122374819D02*
X128946524Y-121374819D01*
X128946524Y-121374819D02*
X129279857Y-122089104D01*
X129279857Y-122089104D02*
X129613190Y-121374819D01*
X129613190Y-121374819D02*
X129613190Y-122374819D01*
X130279857Y-121374819D02*
X130470333Y-121374819D01*
X130470333Y-121374819D02*
X130565571Y-121422438D01*
X130565571Y-121422438D02*
X130660809Y-121517676D01*
X130660809Y-121517676D02*
X130708428Y-121708152D01*
X130708428Y-121708152D02*
X130708428Y-122041485D01*
X130708428Y-122041485D02*
X130660809Y-122231961D01*
X130660809Y-122231961D02*
X130565571Y-122327200D01*
X130565571Y-122327200D02*
X130470333Y-122374819D01*
X130470333Y-122374819D02*
X130279857Y-122374819D01*
X130279857Y-122374819D02*
X130184619Y-122327200D01*
X130184619Y-122327200D02*
X130089381Y-122231961D01*
X130089381Y-122231961D02*
X130041762Y-122041485D01*
X130041762Y-122041485D02*
X130041762Y-121708152D01*
X130041762Y-121708152D02*
X130089381Y-121517676D01*
X130089381Y-121517676D02*
X130184619Y-121422438D01*
X130184619Y-121422438D02*
X130279857Y-121374819D01*
X130994143Y-121374819D02*
X131565571Y-121374819D01*
X131279857Y-122374819D02*
X131279857Y-121374819D01*
X132089381Y-121374819D02*
X132279857Y-121374819D01*
X132279857Y-121374819D02*
X132375095Y-121422438D01*
X132375095Y-121422438D02*
X132470333Y-121517676D01*
X132470333Y-121517676D02*
X132517952Y-121708152D01*
X132517952Y-121708152D02*
X132517952Y-122041485D01*
X132517952Y-122041485D02*
X132470333Y-122231961D01*
X132470333Y-122231961D02*
X132375095Y-122327200D01*
X132375095Y-122327200D02*
X132279857Y-122374819D01*
X132279857Y-122374819D02*
X132089381Y-122374819D01*
X132089381Y-122374819D02*
X131994143Y-122327200D01*
X131994143Y-122327200D02*
X131898905Y-122231961D01*
X131898905Y-122231961D02*
X131851286Y-122041485D01*
X131851286Y-122041485D02*
X131851286Y-121708152D01*
X131851286Y-121708152D02*
X131898905Y-121517676D01*
X131898905Y-121517676D02*
X131994143Y-121422438D01*
X131994143Y-121422438D02*
X132089381Y-121374819D01*
X133517952Y-122374819D02*
X133184619Y-121898628D01*
X132946524Y-122374819D02*
X132946524Y-121374819D01*
X132946524Y-121374819D02*
X133327476Y-121374819D01*
X133327476Y-121374819D02*
X133422714Y-121422438D01*
X133422714Y-121422438D02*
X133470333Y-121470057D01*
X133470333Y-121470057D02*
X133517952Y-121565295D01*
X133517952Y-121565295D02*
X133517952Y-121708152D01*
X133517952Y-121708152D02*
X133470333Y-121803390D01*
X133470333Y-121803390D02*
X133422714Y-121851009D01*
X133422714Y-121851009D02*
X133327476Y-121898628D01*
X133327476Y-121898628D02*
X132946524Y-121898628D01*
X133708429Y-122470057D02*
X134470333Y-122470057D01*
X135279857Y-122279580D02*
X135232238Y-122327200D01*
X135232238Y-122327200D02*
X135089381Y-122374819D01*
X135089381Y-122374819D02*
X134994143Y-122374819D01*
X134994143Y-122374819D02*
X134851286Y-122327200D01*
X134851286Y-122327200D02*
X134756048Y-122231961D01*
X134756048Y-122231961D02*
X134708429Y-122136723D01*
X134708429Y-122136723D02*
X134660810Y-121946247D01*
X134660810Y-121946247D02*
X134660810Y-121803390D01*
X134660810Y-121803390D02*
X134708429Y-121612914D01*
X134708429Y-121612914D02*
X134756048Y-121517676D01*
X134756048Y-121517676D02*
X134851286Y-121422438D01*
X134851286Y-121422438D02*
X134994143Y-121374819D01*
X134994143Y-121374819D02*
X135089381Y-121374819D01*
X135089381Y-121374819D02*
X135232238Y-121422438D01*
X135232238Y-121422438D02*
X135279857Y-121470057D01*
X135898905Y-121374819D02*
X136089381Y-121374819D01*
X136089381Y-121374819D02*
X136184619Y-121422438D01*
X136184619Y-121422438D02*
X136279857Y-121517676D01*
X136279857Y-121517676D02*
X136327476Y-121708152D01*
X136327476Y-121708152D02*
X136327476Y-122041485D01*
X136327476Y-122041485D02*
X136279857Y-122231961D01*
X136279857Y-122231961D02*
X136184619Y-122327200D01*
X136184619Y-122327200D02*
X136089381Y-122374819D01*
X136089381Y-122374819D02*
X135898905Y-122374819D01*
X135898905Y-122374819D02*
X135803667Y-122327200D01*
X135803667Y-122327200D02*
X135708429Y-122231961D01*
X135708429Y-122231961D02*
X135660810Y-122041485D01*
X135660810Y-122041485D02*
X135660810Y-121708152D01*
X135660810Y-121708152D02*
X135708429Y-121517676D01*
X135708429Y-121517676D02*
X135803667Y-121422438D01*
X135803667Y-121422438D02*
X135898905Y-121374819D01*
X136756048Y-122374819D02*
X136756048Y-121374819D01*
X136756048Y-121374819D02*
X137327476Y-122374819D01*
X137327476Y-122374819D02*
X137327476Y-121374819D01*
X137803667Y-122374819D02*
X137803667Y-121374819D01*
X137803667Y-121374819D02*
X138375095Y-122374819D01*
X138375095Y-122374819D02*
X138375095Y-121374819D01*
X139375095Y-122374819D02*
X138803667Y-122374819D01*
X139089381Y-122374819D02*
X139089381Y-121374819D01*
X139089381Y-121374819D02*
X138994143Y-121517676D01*
X138994143Y-121517676D02*
X138898905Y-121612914D01*
X138898905Y-121612914D02*
X138803667Y-121660533D01*
X139153667Y-110457200D02*
X139296524Y-110504819D01*
X139296524Y-110504819D02*
X139534619Y-110504819D01*
X139534619Y-110504819D02*
X139629857Y-110457200D01*
X139629857Y-110457200D02*
X139677476Y-110409580D01*
X139677476Y-110409580D02*
X139725095Y-110314342D01*
X139725095Y-110314342D02*
X139725095Y-110219104D01*
X139725095Y-110219104D02*
X139677476Y-110123866D01*
X139677476Y-110123866D02*
X139629857Y-110076247D01*
X139629857Y-110076247D02*
X139534619Y-110028628D01*
X139534619Y-110028628D02*
X139344143Y-109981009D01*
X139344143Y-109981009D02*
X139248905Y-109933390D01*
X139248905Y-109933390D02*
X139201286Y-109885771D01*
X139201286Y-109885771D02*
X139153667Y-109790533D01*
X139153667Y-109790533D02*
X139153667Y-109695295D01*
X139153667Y-109695295D02*
X139201286Y-109600057D01*
X139201286Y-109600057D02*
X139248905Y-109552438D01*
X139248905Y-109552438D02*
X139344143Y-109504819D01*
X139344143Y-109504819D02*
X139582238Y-109504819D01*
X139582238Y-109504819D02*
X139725095Y-109552438D01*
X140058429Y-109504819D02*
X140296524Y-110504819D01*
X140296524Y-110504819D02*
X140487000Y-109790533D01*
X140487000Y-109790533D02*
X140677476Y-110504819D01*
X140677476Y-110504819D02*
X140915572Y-109504819D01*
X141820333Y-110504819D02*
X141248905Y-110504819D01*
X141534619Y-110504819D02*
X141534619Y-109504819D01*
X141534619Y-109504819D02*
X141439381Y-109647676D01*
X141439381Y-109647676D02*
X141344143Y-109742914D01*
X141344143Y-109742914D02*
X141248905Y-109790533D01*
X103378095Y-49044819D02*
X103378095Y-48044819D01*
X103378095Y-48521009D02*
X103949523Y-48521009D01*
X103949523Y-49044819D02*
X103949523Y-48044819D01*
X104949523Y-49044819D02*
X104378095Y-49044819D01*
X104663809Y-49044819D02*
X104663809Y-48044819D01*
X104663809Y-48044819D02*
X104568571Y-48187676D01*
X104568571Y-48187676D02*
X104473333Y-48282914D01*
X104473333Y-48282914D02*
X104378095Y-48330533D01*
X133844819Y-57093094D02*
X134654342Y-57093094D01*
X134654342Y-57093094D02*
X134749580Y-57045475D01*
X134749580Y-57045475D02*
X134797200Y-56997856D01*
X134797200Y-56997856D02*
X134844819Y-56902618D01*
X134844819Y-56902618D02*
X134844819Y-56712142D01*
X134844819Y-56712142D02*
X134797200Y-56616904D01*
X134797200Y-56616904D02*
X134749580Y-56569285D01*
X134749580Y-56569285D02*
X134654342Y-56521666D01*
X134654342Y-56521666D02*
X133844819Y-56521666D01*
X134797200Y-56093094D02*
X134844819Y-55950237D01*
X134844819Y-55950237D02*
X134844819Y-55712142D01*
X134844819Y-55712142D02*
X134797200Y-55616904D01*
X134797200Y-55616904D02*
X134749580Y-55569285D01*
X134749580Y-55569285D02*
X134654342Y-55521666D01*
X134654342Y-55521666D02*
X134559104Y-55521666D01*
X134559104Y-55521666D02*
X134463866Y-55569285D01*
X134463866Y-55569285D02*
X134416247Y-55616904D01*
X134416247Y-55616904D02*
X134368628Y-55712142D01*
X134368628Y-55712142D02*
X134321009Y-55902618D01*
X134321009Y-55902618D02*
X134273390Y-55997856D01*
X134273390Y-55997856D02*
X134225771Y-56045475D01*
X134225771Y-56045475D02*
X134130533Y-56093094D01*
X134130533Y-56093094D02*
X134035295Y-56093094D01*
X134035295Y-56093094D02*
X133940057Y-56045475D01*
X133940057Y-56045475D02*
X133892438Y-55997856D01*
X133892438Y-55997856D02*
X133844819Y-55902618D01*
X133844819Y-55902618D02*
X133844819Y-55664523D01*
X133844819Y-55664523D02*
X133892438Y-55521666D01*
X134844819Y-54569285D02*
X134844819Y-55140713D01*
X134844819Y-54854999D02*
X133844819Y-54854999D01*
X133844819Y-54854999D02*
X133987676Y-54950237D01*
X133987676Y-54950237D02*
X134082914Y-55045475D01*
X134082914Y-55045475D02*
X134130533Y-55140713D01*
X146240667Y-119279200D02*
X146383524Y-119326819D01*
X146383524Y-119326819D02*
X146621619Y-119326819D01*
X146621619Y-119326819D02*
X146716857Y-119279200D01*
X146716857Y-119279200D02*
X146764476Y-119231580D01*
X146764476Y-119231580D02*
X146812095Y-119136342D01*
X146812095Y-119136342D02*
X146812095Y-119041104D01*
X146812095Y-119041104D02*
X146764476Y-118945866D01*
X146764476Y-118945866D02*
X146716857Y-118898247D01*
X146716857Y-118898247D02*
X146621619Y-118850628D01*
X146621619Y-118850628D02*
X146431143Y-118803009D01*
X146431143Y-118803009D02*
X146335905Y-118755390D01*
X146335905Y-118755390D02*
X146288286Y-118707771D01*
X146288286Y-118707771D02*
X146240667Y-118612533D01*
X146240667Y-118612533D02*
X146240667Y-118517295D01*
X146240667Y-118517295D02*
X146288286Y-118422057D01*
X146288286Y-118422057D02*
X146335905Y-118374438D01*
X146335905Y-118374438D02*
X146431143Y-118326819D01*
X146431143Y-118326819D02*
X146669238Y-118326819D01*
X146669238Y-118326819D02*
X146812095Y-118374438D01*
X147145429Y-118326819D02*
X147383524Y-119326819D01*
X147383524Y-119326819D02*
X147574000Y-118612533D01*
X147574000Y-118612533D02*
X147764476Y-119326819D01*
X147764476Y-119326819D02*
X148002572Y-118326819D01*
X148288286Y-118326819D02*
X148907333Y-118326819D01*
X148907333Y-118326819D02*
X148574000Y-118707771D01*
X148574000Y-118707771D02*
X148716857Y-118707771D01*
X148716857Y-118707771D02*
X148812095Y-118755390D01*
X148812095Y-118755390D02*
X148859714Y-118803009D01*
X148859714Y-118803009D02*
X148907333Y-118898247D01*
X148907333Y-118898247D02*
X148907333Y-119136342D01*
X148907333Y-119136342D02*
X148859714Y-119231580D01*
X148859714Y-119231580D02*
X148812095Y-119279200D01*
X148812095Y-119279200D02*
X148716857Y-119326819D01*
X148716857Y-119326819D02*
X148431143Y-119326819D01*
X148431143Y-119326819D02*
X148335905Y-119279200D01*
X148335905Y-119279200D02*
X148288286Y-119231580D01*
X117268666Y-118089819D02*
X117268666Y-118804104D01*
X117268666Y-118804104D02*
X117221047Y-118946961D01*
X117221047Y-118946961D02*
X117125809Y-119042200D01*
X117125809Y-119042200D02*
X116982952Y-119089819D01*
X116982952Y-119089819D02*
X116887714Y-119089819D01*
X118268666Y-119089819D02*
X117697238Y-119089819D01*
X117982952Y-119089819D02*
X117982952Y-118089819D01*
X117982952Y-118089819D02*
X117887714Y-118232676D01*
X117887714Y-118232676D02*
X117792476Y-118327914D01*
X117792476Y-118327914D02*
X117697238Y-118375533D01*
X118399438Y-72111904D02*
X118351819Y-72207142D01*
X118351819Y-72207142D02*
X118351819Y-72349999D01*
X118351819Y-72349999D02*
X118399438Y-72492856D01*
X118399438Y-72492856D02*
X118494676Y-72588094D01*
X118494676Y-72588094D02*
X118589914Y-72635713D01*
X118589914Y-72635713D02*
X118780390Y-72683332D01*
X118780390Y-72683332D02*
X118923247Y-72683332D01*
X118923247Y-72683332D02*
X119113723Y-72635713D01*
X119113723Y-72635713D02*
X119208961Y-72588094D01*
X119208961Y-72588094D02*
X119304200Y-72492856D01*
X119304200Y-72492856D02*
X119351819Y-72349999D01*
X119351819Y-72349999D02*
X119351819Y-72254761D01*
X119351819Y-72254761D02*
X119304200Y-72111904D01*
X119304200Y-72111904D02*
X119256580Y-72064285D01*
X119256580Y-72064285D02*
X118923247Y-72064285D01*
X118923247Y-72064285D02*
X118923247Y-72254761D01*
X119351819Y-71635713D02*
X118351819Y-71635713D01*
X118351819Y-71635713D02*
X118351819Y-71254761D01*
X118351819Y-71254761D02*
X118399438Y-71159523D01*
X118399438Y-71159523D02*
X118447057Y-71111904D01*
X118447057Y-71111904D02*
X118542295Y-71064285D01*
X118542295Y-71064285D02*
X118685152Y-71064285D01*
X118685152Y-71064285D02*
X118780390Y-71111904D01*
X118780390Y-71111904D02*
X118828009Y-71159523D01*
X118828009Y-71159523D02*
X118875628Y-71254761D01*
X118875628Y-71254761D02*
X118875628Y-71635713D01*
X119351819Y-70635713D02*
X118351819Y-70635713D01*
X118351819Y-69969047D02*
X118351819Y-69778571D01*
X118351819Y-69778571D02*
X118399438Y-69683333D01*
X118399438Y-69683333D02*
X118494676Y-69588095D01*
X118494676Y-69588095D02*
X118685152Y-69540476D01*
X118685152Y-69540476D02*
X119018485Y-69540476D01*
X119018485Y-69540476D02*
X119208961Y-69588095D01*
X119208961Y-69588095D02*
X119304200Y-69683333D01*
X119304200Y-69683333D02*
X119351819Y-69778571D01*
X119351819Y-69778571D02*
X119351819Y-69969047D01*
X119351819Y-69969047D02*
X119304200Y-70064285D01*
X119304200Y-70064285D02*
X119208961Y-70159523D01*
X119208961Y-70159523D02*
X119018485Y-70207142D01*
X119018485Y-70207142D02*
X118685152Y-70207142D01*
X118685152Y-70207142D02*
X118494676Y-70159523D01*
X118494676Y-70159523D02*
X118399438Y-70064285D01*
X118399438Y-70064285D02*
X118351819Y-69969047D01*
X119447057Y-69350000D02*
X119447057Y-68588095D01*
X119351819Y-67873809D02*
X119351819Y-68349999D01*
X119351819Y-68349999D02*
X118351819Y-68349999D01*
X119351819Y-67016666D02*
X119351819Y-67588094D01*
X119351819Y-67302380D02*
X118351819Y-67302380D01*
X118351819Y-67302380D02*
X118494676Y-67397618D01*
X118494676Y-67397618D02*
X118589914Y-67492856D01*
X118589914Y-67492856D02*
X118637533Y-67588094D01*
X163801819Y-69293808D02*
X162801819Y-69293808D01*
X162897057Y-68865237D02*
X162849438Y-68817618D01*
X162849438Y-68817618D02*
X162801819Y-68722380D01*
X162801819Y-68722380D02*
X162801819Y-68484285D01*
X162801819Y-68484285D02*
X162849438Y-68389047D01*
X162849438Y-68389047D02*
X162897057Y-68341428D01*
X162897057Y-68341428D02*
X162992295Y-68293809D01*
X162992295Y-68293809D02*
X163087533Y-68293809D01*
X163087533Y-68293809D02*
X163230390Y-68341428D01*
X163230390Y-68341428D02*
X163801819Y-68912856D01*
X163801819Y-68912856D02*
X163801819Y-68293809D01*
X163706580Y-67293809D02*
X163754200Y-67341428D01*
X163754200Y-67341428D02*
X163801819Y-67484285D01*
X163801819Y-67484285D02*
X163801819Y-67579523D01*
X163801819Y-67579523D02*
X163754200Y-67722380D01*
X163754200Y-67722380D02*
X163658961Y-67817618D01*
X163658961Y-67817618D02*
X163563723Y-67865237D01*
X163563723Y-67865237D02*
X163373247Y-67912856D01*
X163373247Y-67912856D02*
X163230390Y-67912856D01*
X163230390Y-67912856D02*
X163039914Y-67865237D01*
X163039914Y-67865237D02*
X162944676Y-67817618D01*
X162944676Y-67817618D02*
X162849438Y-67722380D01*
X162849438Y-67722380D02*
X162801819Y-67579523D01*
X162801819Y-67579523D02*
X162801819Y-67484285D01*
X162801819Y-67484285D02*
X162849438Y-67341428D01*
X162849438Y-67341428D02*
X162897057Y-67293809D01*
X163897057Y-67103333D02*
X163897057Y-66341428D01*
X163801819Y-66103332D02*
X162801819Y-66103332D01*
X162801819Y-66103332D02*
X162801819Y-65722380D01*
X162801819Y-65722380D02*
X162849438Y-65627142D01*
X162849438Y-65627142D02*
X162897057Y-65579523D01*
X162897057Y-65579523D02*
X162992295Y-65531904D01*
X162992295Y-65531904D02*
X163135152Y-65531904D01*
X163135152Y-65531904D02*
X163230390Y-65579523D01*
X163230390Y-65579523D02*
X163278009Y-65627142D01*
X163278009Y-65627142D02*
X163325628Y-65722380D01*
X163325628Y-65722380D02*
X163325628Y-66103332D01*
X163801819Y-65103332D02*
X162801819Y-65103332D01*
X163801819Y-64627142D02*
X162801819Y-64627142D01*
X162801819Y-64627142D02*
X163801819Y-64055714D01*
X163801819Y-64055714D02*
X162801819Y-64055714D01*
X162801819Y-63389047D02*
X162801819Y-63198571D01*
X162801819Y-63198571D02*
X162849438Y-63103333D01*
X162849438Y-63103333D02*
X162944676Y-63008095D01*
X162944676Y-63008095D02*
X163135152Y-62960476D01*
X163135152Y-62960476D02*
X163468485Y-62960476D01*
X163468485Y-62960476D02*
X163658961Y-63008095D01*
X163658961Y-63008095D02*
X163754200Y-63103333D01*
X163754200Y-63103333D02*
X163801819Y-63198571D01*
X163801819Y-63198571D02*
X163801819Y-63389047D01*
X163801819Y-63389047D02*
X163754200Y-63484285D01*
X163754200Y-63484285D02*
X163658961Y-63579523D01*
X163658961Y-63579523D02*
X163468485Y-63627142D01*
X163468485Y-63627142D02*
X163135152Y-63627142D01*
X163135152Y-63627142D02*
X162944676Y-63579523D01*
X162944676Y-63579523D02*
X162849438Y-63484285D01*
X162849438Y-63484285D02*
X162801819Y-63389047D01*
X162801819Y-62531904D02*
X163611342Y-62531904D01*
X163611342Y-62531904D02*
X163706580Y-62484285D01*
X163706580Y-62484285D02*
X163754200Y-62436666D01*
X163754200Y-62436666D02*
X163801819Y-62341428D01*
X163801819Y-62341428D02*
X163801819Y-62150952D01*
X163801819Y-62150952D02*
X163754200Y-62055714D01*
X163754200Y-62055714D02*
X163706580Y-62008095D01*
X163706580Y-62008095D02*
X163611342Y-61960476D01*
X163611342Y-61960476D02*
X162801819Y-61960476D01*
X162801819Y-61627142D02*
X162801819Y-61055714D01*
X163801819Y-61341428D02*
X162801819Y-61341428D01*
X163135152Y-60293809D02*
X163801819Y-60293809D01*
X162754200Y-60531904D02*
X163468485Y-60769999D01*
X163468485Y-60769999D02*
X163468485Y-60150952D01*
X133858095Y-84604819D02*
X133858095Y-83604819D01*
X133858095Y-84081009D02*
X134429523Y-84081009D01*
X134429523Y-84604819D02*
X134429523Y-83604819D01*
X134810476Y-83604819D02*
X135429523Y-83604819D01*
X135429523Y-83604819D02*
X135096190Y-83985771D01*
X135096190Y-83985771D02*
X135239047Y-83985771D01*
X135239047Y-83985771D02*
X135334285Y-84033390D01*
X135334285Y-84033390D02*
X135381904Y-84081009D01*
X135381904Y-84081009D02*
X135429523Y-84176247D01*
X135429523Y-84176247D02*
X135429523Y-84414342D01*
X135429523Y-84414342D02*
X135381904Y-84509580D01*
X135381904Y-84509580D02*
X135334285Y-84557200D01*
X135334285Y-84557200D02*
X135239047Y-84604819D01*
X135239047Y-84604819D02*
X134953333Y-84604819D01*
X134953333Y-84604819D02*
X134858095Y-84557200D01*
X134858095Y-84557200D02*
X134810476Y-84509580D01*
X116531761Y-55826819D02*
X115960333Y-55826819D01*
X116246047Y-55826819D02*
X116246047Y-54826819D01*
X116246047Y-54826819D02*
X116150809Y-54969676D01*
X116150809Y-54969676D02*
X116055571Y-55064914D01*
X116055571Y-55064914D02*
X115960333Y-55112533D01*
X116912714Y-54922057D02*
X116960333Y-54874438D01*
X116960333Y-54874438D02*
X117055571Y-54826819D01*
X117055571Y-54826819D02*
X117293666Y-54826819D01*
X117293666Y-54826819D02*
X117388904Y-54874438D01*
X117388904Y-54874438D02*
X117436523Y-54922057D01*
X117436523Y-54922057D02*
X117484142Y-55017295D01*
X117484142Y-55017295D02*
X117484142Y-55112533D01*
X117484142Y-55112533D02*
X117436523Y-55255390D01*
X117436523Y-55255390D02*
X116865095Y-55826819D01*
X116865095Y-55826819D02*
X117484142Y-55826819D01*
X117769857Y-54826819D02*
X118103190Y-55826819D01*
X118103190Y-55826819D02*
X118436523Y-54826819D01*
X119293666Y-55826819D02*
X118722238Y-55826819D01*
X119007952Y-55826819D02*
X119007952Y-54826819D01*
X119007952Y-54826819D02*
X118912714Y-54969676D01*
X118912714Y-54969676D02*
X118817476Y-55064914D01*
X118817476Y-55064914D02*
X118722238Y-55112533D01*
X158721819Y-81993808D02*
X157721819Y-81993808D01*
X157817057Y-81565237D02*
X157769438Y-81517618D01*
X157769438Y-81517618D02*
X157721819Y-81422380D01*
X157721819Y-81422380D02*
X157721819Y-81184285D01*
X157721819Y-81184285D02*
X157769438Y-81089047D01*
X157769438Y-81089047D02*
X157817057Y-81041428D01*
X157817057Y-81041428D02*
X157912295Y-80993809D01*
X157912295Y-80993809D02*
X158007533Y-80993809D01*
X158007533Y-80993809D02*
X158150390Y-81041428D01*
X158150390Y-81041428D02*
X158721819Y-81612856D01*
X158721819Y-81612856D02*
X158721819Y-80993809D01*
X158626580Y-79993809D02*
X158674200Y-80041428D01*
X158674200Y-80041428D02*
X158721819Y-80184285D01*
X158721819Y-80184285D02*
X158721819Y-80279523D01*
X158721819Y-80279523D02*
X158674200Y-80422380D01*
X158674200Y-80422380D02*
X158578961Y-80517618D01*
X158578961Y-80517618D02*
X158483723Y-80565237D01*
X158483723Y-80565237D02*
X158293247Y-80612856D01*
X158293247Y-80612856D02*
X158150390Y-80612856D01*
X158150390Y-80612856D02*
X157959914Y-80565237D01*
X157959914Y-80565237D02*
X157864676Y-80517618D01*
X157864676Y-80517618D02*
X157769438Y-80422380D01*
X157769438Y-80422380D02*
X157721819Y-80279523D01*
X157721819Y-80279523D02*
X157721819Y-80184285D01*
X157721819Y-80184285D02*
X157769438Y-80041428D01*
X157769438Y-80041428D02*
X157817057Y-79993809D01*
X158817057Y-79803333D02*
X158817057Y-79041428D01*
X158721819Y-78803332D02*
X157721819Y-78803332D01*
X157721819Y-78803332D02*
X157721819Y-78422380D01*
X157721819Y-78422380D02*
X157769438Y-78327142D01*
X157769438Y-78327142D02*
X157817057Y-78279523D01*
X157817057Y-78279523D02*
X157912295Y-78231904D01*
X157912295Y-78231904D02*
X158055152Y-78231904D01*
X158055152Y-78231904D02*
X158150390Y-78279523D01*
X158150390Y-78279523D02*
X158198009Y-78327142D01*
X158198009Y-78327142D02*
X158245628Y-78422380D01*
X158245628Y-78422380D02*
X158245628Y-78803332D01*
X158721819Y-77803332D02*
X157721819Y-77803332D01*
X158721819Y-77327142D02*
X157721819Y-77327142D01*
X157721819Y-77327142D02*
X158721819Y-76755714D01*
X158721819Y-76755714D02*
X157721819Y-76755714D01*
X157721819Y-76089047D02*
X157721819Y-75898571D01*
X157721819Y-75898571D02*
X157769438Y-75803333D01*
X157769438Y-75803333D02*
X157864676Y-75708095D01*
X157864676Y-75708095D02*
X158055152Y-75660476D01*
X158055152Y-75660476D02*
X158388485Y-75660476D01*
X158388485Y-75660476D02*
X158578961Y-75708095D01*
X158578961Y-75708095D02*
X158674200Y-75803333D01*
X158674200Y-75803333D02*
X158721819Y-75898571D01*
X158721819Y-75898571D02*
X158721819Y-76089047D01*
X158721819Y-76089047D02*
X158674200Y-76184285D01*
X158674200Y-76184285D02*
X158578961Y-76279523D01*
X158578961Y-76279523D02*
X158388485Y-76327142D01*
X158388485Y-76327142D02*
X158055152Y-76327142D01*
X158055152Y-76327142D02*
X157864676Y-76279523D01*
X157864676Y-76279523D02*
X157769438Y-76184285D01*
X157769438Y-76184285D02*
X157721819Y-76089047D01*
X157721819Y-75231904D02*
X158531342Y-75231904D01*
X158531342Y-75231904D02*
X158626580Y-75184285D01*
X158626580Y-75184285D02*
X158674200Y-75136666D01*
X158674200Y-75136666D02*
X158721819Y-75041428D01*
X158721819Y-75041428D02*
X158721819Y-74850952D01*
X158721819Y-74850952D02*
X158674200Y-74755714D01*
X158674200Y-74755714D02*
X158626580Y-74708095D01*
X158626580Y-74708095D02*
X158531342Y-74660476D01*
X158531342Y-74660476D02*
X157721819Y-74660476D01*
X157721819Y-74327142D02*
X157721819Y-73755714D01*
X158721819Y-74041428D02*
X157721819Y-74041428D01*
X158721819Y-72898571D02*
X158721819Y-73469999D01*
X158721819Y-73184285D02*
X157721819Y-73184285D01*
X157721819Y-73184285D02*
X157864676Y-73279523D01*
X157864676Y-73279523D02*
X157959914Y-73374761D01*
X157959914Y-73374761D02*
X158007533Y-73469999D01*
X121891819Y-72635713D02*
X120891819Y-72635713D01*
X120891819Y-72635713D02*
X120891819Y-72254761D01*
X120891819Y-72254761D02*
X120939438Y-72159523D01*
X120939438Y-72159523D02*
X120987057Y-72111904D01*
X120987057Y-72111904D02*
X121082295Y-72064285D01*
X121082295Y-72064285D02*
X121225152Y-72064285D01*
X121225152Y-72064285D02*
X121320390Y-72111904D01*
X121320390Y-72111904D02*
X121368009Y-72159523D01*
X121368009Y-72159523D02*
X121415628Y-72254761D01*
X121415628Y-72254761D02*
X121415628Y-72635713D01*
X121891819Y-71635713D02*
X120891819Y-71635713D01*
X121796580Y-70588095D02*
X121844200Y-70635714D01*
X121844200Y-70635714D02*
X121891819Y-70778571D01*
X121891819Y-70778571D02*
X121891819Y-70873809D01*
X121891819Y-70873809D02*
X121844200Y-71016666D01*
X121844200Y-71016666D02*
X121748961Y-71111904D01*
X121748961Y-71111904D02*
X121653723Y-71159523D01*
X121653723Y-71159523D02*
X121463247Y-71207142D01*
X121463247Y-71207142D02*
X121320390Y-71207142D01*
X121320390Y-71207142D02*
X121129914Y-71159523D01*
X121129914Y-71159523D02*
X121034676Y-71111904D01*
X121034676Y-71111904D02*
X120939438Y-71016666D01*
X120939438Y-71016666D02*
X120891819Y-70873809D01*
X120891819Y-70873809D02*
X120891819Y-70778571D01*
X120891819Y-70778571D02*
X120939438Y-70635714D01*
X120939438Y-70635714D02*
X120987057Y-70588095D01*
X120891819Y-69969047D02*
X120891819Y-69778571D01*
X120891819Y-69778571D02*
X120939438Y-69683333D01*
X120939438Y-69683333D02*
X121034676Y-69588095D01*
X121034676Y-69588095D02*
X121225152Y-69540476D01*
X121225152Y-69540476D02*
X121558485Y-69540476D01*
X121558485Y-69540476D02*
X121748961Y-69588095D01*
X121748961Y-69588095D02*
X121844200Y-69683333D01*
X121844200Y-69683333D02*
X121891819Y-69778571D01*
X121891819Y-69778571D02*
X121891819Y-69969047D01*
X121891819Y-69969047D02*
X121844200Y-70064285D01*
X121844200Y-70064285D02*
X121748961Y-70159523D01*
X121748961Y-70159523D02*
X121558485Y-70207142D01*
X121558485Y-70207142D02*
X121225152Y-70207142D01*
X121225152Y-70207142D02*
X121034676Y-70159523D01*
X121034676Y-70159523D02*
X120939438Y-70064285D01*
X120939438Y-70064285D02*
X120891819Y-69969047D01*
X121987057Y-69350000D02*
X121987057Y-68588095D01*
X121891819Y-67873809D02*
X121891819Y-68349999D01*
X121891819Y-68349999D02*
X120891819Y-68349999D01*
X121891819Y-67016666D02*
X121891819Y-67588094D01*
X121891819Y-67302380D02*
X120891819Y-67302380D01*
X120891819Y-67302380D02*
X121034676Y-67397618D01*
X121034676Y-67397618D02*
X121129914Y-67492856D01*
X121129914Y-67492856D02*
X121177533Y-67588094D01*
X161798095Y-49044819D02*
X161798095Y-48044819D01*
X161798095Y-48521009D02*
X162369523Y-48521009D01*
X162369523Y-49044819D02*
X162369523Y-48044819D01*
X162798095Y-48140057D02*
X162845714Y-48092438D01*
X162845714Y-48092438D02*
X162940952Y-48044819D01*
X162940952Y-48044819D02*
X163179047Y-48044819D01*
X163179047Y-48044819D02*
X163274285Y-48092438D01*
X163274285Y-48092438D02*
X163321904Y-48140057D01*
X163321904Y-48140057D02*
X163369523Y-48235295D01*
X163369523Y-48235295D02*
X163369523Y-48330533D01*
X163369523Y-48330533D02*
X163321904Y-48473390D01*
X163321904Y-48473390D02*
X162750476Y-49044819D01*
X162750476Y-49044819D02*
X163369523Y-49044819D01*
X102841819Y-112949999D02*
X101841819Y-112949999D01*
X101937057Y-112521428D02*
X101889438Y-112473809D01*
X101889438Y-112473809D02*
X101841819Y-112378571D01*
X101841819Y-112378571D02*
X101841819Y-112140476D01*
X101841819Y-112140476D02*
X101889438Y-112045238D01*
X101889438Y-112045238D02*
X101937057Y-111997619D01*
X101937057Y-111997619D02*
X102032295Y-111950000D01*
X102032295Y-111950000D02*
X102127533Y-111950000D01*
X102127533Y-111950000D02*
X102270390Y-111997619D01*
X102270390Y-111997619D02*
X102841819Y-112569047D01*
X102841819Y-112569047D02*
X102841819Y-111950000D01*
X102746580Y-110950000D02*
X102794200Y-110997619D01*
X102794200Y-110997619D02*
X102841819Y-111140476D01*
X102841819Y-111140476D02*
X102841819Y-111235714D01*
X102841819Y-111235714D02*
X102794200Y-111378571D01*
X102794200Y-111378571D02*
X102698961Y-111473809D01*
X102698961Y-111473809D02*
X102603723Y-111521428D01*
X102603723Y-111521428D02*
X102413247Y-111569047D01*
X102413247Y-111569047D02*
X102270390Y-111569047D01*
X102270390Y-111569047D02*
X102079914Y-111521428D01*
X102079914Y-111521428D02*
X101984676Y-111473809D01*
X101984676Y-111473809D02*
X101889438Y-111378571D01*
X101889438Y-111378571D02*
X101841819Y-111235714D01*
X101841819Y-111235714D02*
X101841819Y-111140476D01*
X101841819Y-111140476D02*
X101889438Y-110997619D01*
X101889438Y-110997619D02*
X101937057Y-110950000D01*
X102937057Y-110759524D02*
X102937057Y-109997619D01*
X102841819Y-109759523D02*
X101841819Y-109759523D01*
X101841819Y-109759523D02*
X101841819Y-109378571D01*
X101841819Y-109378571D02*
X101889438Y-109283333D01*
X101889438Y-109283333D02*
X101937057Y-109235714D01*
X101937057Y-109235714D02*
X102032295Y-109188095D01*
X102032295Y-109188095D02*
X102175152Y-109188095D01*
X102175152Y-109188095D02*
X102270390Y-109235714D01*
X102270390Y-109235714D02*
X102318009Y-109283333D01*
X102318009Y-109283333D02*
X102365628Y-109378571D01*
X102365628Y-109378571D02*
X102365628Y-109759523D01*
X102841819Y-108759523D02*
X101841819Y-108759523D01*
X102841819Y-108283333D02*
X101841819Y-108283333D01*
X101841819Y-108283333D02*
X102841819Y-107711905D01*
X102841819Y-107711905D02*
X101841819Y-107711905D01*
X101841819Y-107045238D02*
X101841819Y-106854762D01*
X101841819Y-106854762D02*
X101889438Y-106759524D01*
X101889438Y-106759524D02*
X101984676Y-106664286D01*
X101984676Y-106664286D02*
X102175152Y-106616667D01*
X102175152Y-106616667D02*
X102508485Y-106616667D01*
X102508485Y-106616667D02*
X102698961Y-106664286D01*
X102698961Y-106664286D02*
X102794200Y-106759524D01*
X102794200Y-106759524D02*
X102841819Y-106854762D01*
X102841819Y-106854762D02*
X102841819Y-107045238D01*
X102841819Y-107045238D02*
X102794200Y-107140476D01*
X102794200Y-107140476D02*
X102698961Y-107235714D01*
X102698961Y-107235714D02*
X102508485Y-107283333D01*
X102508485Y-107283333D02*
X102175152Y-107283333D01*
X102175152Y-107283333D02*
X101984676Y-107235714D01*
X101984676Y-107235714D02*
X101889438Y-107140476D01*
X101889438Y-107140476D02*
X101841819Y-107045238D01*
X101841819Y-106188095D02*
X102651342Y-106188095D01*
X102651342Y-106188095D02*
X102746580Y-106140476D01*
X102746580Y-106140476D02*
X102794200Y-106092857D01*
X102794200Y-106092857D02*
X102841819Y-105997619D01*
X102841819Y-105997619D02*
X102841819Y-105807143D01*
X102841819Y-105807143D02*
X102794200Y-105711905D01*
X102794200Y-105711905D02*
X102746580Y-105664286D01*
X102746580Y-105664286D02*
X102651342Y-105616667D01*
X102651342Y-105616667D02*
X101841819Y-105616667D01*
X101841819Y-105283333D02*
X101841819Y-104711905D01*
X102841819Y-104997619D02*
X101841819Y-104997619D01*
X102841819Y-103854762D02*
X102841819Y-104426190D01*
X102841819Y-104140476D02*
X101841819Y-104140476D01*
X101841819Y-104140476D02*
X101984676Y-104235714D01*
X101984676Y-104235714D02*
X102079914Y-104330952D01*
X102079914Y-104330952D02*
X102127533Y-104426190D01*
X102841819Y-102902381D02*
X102841819Y-103473809D01*
X102841819Y-103188095D02*
X101841819Y-103188095D01*
X101841819Y-103188095D02*
X101984676Y-103283333D01*
X101984676Y-103283333D02*
X102079914Y-103378571D01*
X102079914Y-103378571D02*
X102127533Y-103473809D01*
X135455095Y-60419819D02*
X135455095Y-61229342D01*
X135455095Y-61229342D02*
X135502714Y-61324580D01*
X135502714Y-61324580D02*
X135550333Y-61372200D01*
X135550333Y-61372200D02*
X135645571Y-61419819D01*
X135645571Y-61419819D02*
X135836047Y-61419819D01*
X135836047Y-61419819D02*
X135931285Y-61372200D01*
X135931285Y-61372200D02*
X135978904Y-61324580D01*
X135978904Y-61324580D02*
X136026523Y-61229342D01*
X136026523Y-61229342D02*
X136026523Y-60419819D01*
X136931285Y-60753152D02*
X136931285Y-61419819D01*
X136693190Y-60372200D02*
X136455095Y-61086485D01*
X136455095Y-61086485D02*
X137074142Y-61086485D01*
X147609438Y-72207142D02*
X147561819Y-72302380D01*
X147561819Y-72302380D02*
X147561819Y-72445237D01*
X147561819Y-72445237D02*
X147609438Y-72588094D01*
X147609438Y-72588094D02*
X147704676Y-72683332D01*
X147704676Y-72683332D02*
X147799914Y-72730951D01*
X147799914Y-72730951D02*
X147990390Y-72778570D01*
X147990390Y-72778570D02*
X148133247Y-72778570D01*
X148133247Y-72778570D02*
X148323723Y-72730951D01*
X148323723Y-72730951D02*
X148418961Y-72683332D01*
X148418961Y-72683332D02*
X148514200Y-72588094D01*
X148514200Y-72588094D02*
X148561819Y-72445237D01*
X148561819Y-72445237D02*
X148561819Y-72349999D01*
X148561819Y-72349999D02*
X148514200Y-72207142D01*
X148514200Y-72207142D02*
X148466580Y-72159523D01*
X148466580Y-72159523D02*
X148133247Y-72159523D01*
X148133247Y-72159523D02*
X148133247Y-72349999D01*
X148561819Y-71730951D02*
X147561819Y-71730951D01*
X147561819Y-71730951D02*
X147561819Y-71349999D01*
X147561819Y-71349999D02*
X147609438Y-71254761D01*
X147609438Y-71254761D02*
X147657057Y-71207142D01*
X147657057Y-71207142D02*
X147752295Y-71159523D01*
X147752295Y-71159523D02*
X147895152Y-71159523D01*
X147895152Y-71159523D02*
X147990390Y-71207142D01*
X147990390Y-71207142D02*
X148038009Y-71254761D01*
X148038009Y-71254761D02*
X148085628Y-71349999D01*
X148085628Y-71349999D02*
X148085628Y-71730951D01*
X148561819Y-70730951D02*
X147561819Y-70730951D01*
X147561819Y-70064285D02*
X147561819Y-69873809D01*
X147561819Y-69873809D02*
X147609438Y-69778571D01*
X147609438Y-69778571D02*
X147704676Y-69683333D01*
X147704676Y-69683333D02*
X147895152Y-69635714D01*
X147895152Y-69635714D02*
X148228485Y-69635714D01*
X148228485Y-69635714D02*
X148418961Y-69683333D01*
X148418961Y-69683333D02*
X148514200Y-69778571D01*
X148514200Y-69778571D02*
X148561819Y-69873809D01*
X148561819Y-69873809D02*
X148561819Y-70064285D01*
X148561819Y-70064285D02*
X148514200Y-70159523D01*
X148514200Y-70159523D02*
X148418961Y-70254761D01*
X148418961Y-70254761D02*
X148228485Y-70302380D01*
X148228485Y-70302380D02*
X147895152Y-70302380D01*
X147895152Y-70302380D02*
X147704676Y-70254761D01*
X147704676Y-70254761D02*
X147609438Y-70159523D01*
X147609438Y-70159523D02*
X147561819Y-70064285D01*
X148657057Y-69445238D02*
X148657057Y-68683333D01*
X148561819Y-67873809D02*
X148085628Y-68207142D01*
X148561819Y-68445237D02*
X147561819Y-68445237D01*
X147561819Y-68445237D02*
X147561819Y-68064285D01*
X147561819Y-68064285D02*
X147609438Y-67969047D01*
X147609438Y-67969047D02*
X147657057Y-67921428D01*
X147657057Y-67921428D02*
X147752295Y-67873809D01*
X147752295Y-67873809D02*
X147895152Y-67873809D01*
X147895152Y-67873809D02*
X147990390Y-67921428D01*
X147990390Y-67921428D02*
X148038009Y-67969047D01*
X148038009Y-67969047D02*
X148085628Y-68064285D01*
X148085628Y-68064285D02*
X148085628Y-68445237D01*
X148561819Y-66921428D02*
X148561819Y-67492856D01*
X148561819Y-67207142D02*
X147561819Y-67207142D01*
X147561819Y-67207142D02*
X147704676Y-67302380D01*
X147704676Y-67302380D02*
X147799914Y-67397618D01*
X147799914Y-67397618D02*
X147847533Y-67492856D01*
X120116523Y-49339580D02*
X120068904Y-49387200D01*
X120068904Y-49387200D02*
X119926047Y-49434819D01*
X119926047Y-49434819D02*
X119830809Y-49434819D01*
X119830809Y-49434819D02*
X119687952Y-49387200D01*
X119687952Y-49387200D02*
X119592714Y-49291961D01*
X119592714Y-49291961D02*
X119545095Y-49196723D01*
X119545095Y-49196723D02*
X119497476Y-49006247D01*
X119497476Y-49006247D02*
X119497476Y-48863390D01*
X119497476Y-48863390D02*
X119545095Y-48672914D01*
X119545095Y-48672914D02*
X119592714Y-48577676D01*
X119592714Y-48577676D02*
X119687952Y-48482438D01*
X119687952Y-48482438D02*
X119830809Y-48434819D01*
X119830809Y-48434819D02*
X119926047Y-48434819D01*
X119926047Y-48434819D02*
X120068904Y-48482438D01*
X120068904Y-48482438D02*
X120116523Y-48530057D01*
X120545095Y-49434819D02*
X120545095Y-48434819D01*
X120545095Y-48911009D02*
X121116523Y-48911009D01*
X121116523Y-49434819D02*
X121116523Y-48434819D01*
X122116523Y-48482438D02*
X122021285Y-48434819D01*
X122021285Y-48434819D02*
X121878428Y-48434819D01*
X121878428Y-48434819D02*
X121735571Y-48482438D01*
X121735571Y-48482438D02*
X121640333Y-48577676D01*
X121640333Y-48577676D02*
X121592714Y-48672914D01*
X121592714Y-48672914D02*
X121545095Y-48863390D01*
X121545095Y-48863390D02*
X121545095Y-49006247D01*
X121545095Y-49006247D02*
X121592714Y-49196723D01*
X121592714Y-49196723D02*
X121640333Y-49291961D01*
X121640333Y-49291961D02*
X121735571Y-49387200D01*
X121735571Y-49387200D02*
X121878428Y-49434819D01*
X121878428Y-49434819D02*
X121973666Y-49434819D01*
X121973666Y-49434819D02*
X122116523Y-49387200D01*
X122116523Y-49387200D02*
X122164142Y-49339580D01*
X122164142Y-49339580D02*
X122164142Y-49006247D01*
X122164142Y-49006247D02*
X121973666Y-49006247D01*
X123116523Y-49434819D02*
X122545095Y-49434819D01*
X122830809Y-49434819D02*
X122830809Y-48434819D01*
X122830809Y-48434819D02*
X122735571Y-48577676D01*
X122735571Y-48577676D02*
X122640333Y-48672914D01*
X122640333Y-48672914D02*
X122545095Y-48720533D01*
X158721819Y-107393808D02*
X157721819Y-107393808D01*
X157817057Y-106965237D02*
X157769438Y-106917618D01*
X157769438Y-106917618D02*
X157721819Y-106822380D01*
X157721819Y-106822380D02*
X157721819Y-106584285D01*
X157721819Y-106584285D02*
X157769438Y-106489047D01*
X157769438Y-106489047D02*
X157817057Y-106441428D01*
X157817057Y-106441428D02*
X157912295Y-106393809D01*
X157912295Y-106393809D02*
X158007533Y-106393809D01*
X158007533Y-106393809D02*
X158150390Y-106441428D01*
X158150390Y-106441428D02*
X158721819Y-107012856D01*
X158721819Y-107012856D02*
X158721819Y-106393809D01*
X158626580Y-105393809D02*
X158674200Y-105441428D01*
X158674200Y-105441428D02*
X158721819Y-105584285D01*
X158721819Y-105584285D02*
X158721819Y-105679523D01*
X158721819Y-105679523D02*
X158674200Y-105822380D01*
X158674200Y-105822380D02*
X158578961Y-105917618D01*
X158578961Y-105917618D02*
X158483723Y-105965237D01*
X158483723Y-105965237D02*
X158293247Y-106012856D01*
X158293247Y-106012856D02*
X158150390Y-106012856D01*
X158150390Y-106012856D02*
X157959914Y-105965237D01*
X157959914Y-105965237D02*
X157864676Y-105917618D01*
X157864676Y-105917618D02*
X157769438Y-105822380D01*
X157769438Y-105822380D02*
X157721819Y-105679523D01*
X157721819Y-105679523D02*
X157721819Y-105584285D01*
X157721819Y-105584285D02*
X157769438Y-105441428D01*
X157769438Y-105441428D02*
X157817057Y-105393809D01*
X158817057Y-105203333D02*
X158817057Y-104441428D01*
X158721819Y-104203332D02*
X157721819Y-104203332D01*
X157721819Y-104203332D02*
X157721819Y-103822380D01*
X157721819Y-103822380D02*
X157769438Y-103727142D01*
X157769438Y-103727142D02*
X157817057Y-103679523D01*
X157817057Y-103679523D02*
X157912295Y-103631904D01*
X157912295Y-103631904D02*
X158055152Y-103631904D01*
X158055152Y-103631904D02*
X158150390Y-103679523D01*
X158150390Y-103679523D02*
X158198009Y-103727142D01*
X158198009Y-103727142D02*
X158245628Y-103822380D01*
X158245628Y-103822380D02*
X158245628Y-104203332D01*
X158721819Y-103203332D02*
X157721819Y-103203332D01*
X158721819Y-102727142D02*
X157721819Y-102727142D01*
X157721819Y-102727142D02*
X158721819Y-102155714D01*
X158721819Y-102155714D02*
X157721819Y-102155714D01*
X157721819Y-101489047D02*
X157721819Y-101298571D01*
X157721819Y-101298571D02*
X157769438Y-101203333D01*
X157769438Y-101203333D02*
X157864676Y-101108095D01*
X157864676Y-101108095D02*
X158055152Y-101060476D01*
X158055152Y-101060476D02*
X158388485Y-101060476D01*
X158388485Y-101060476D02*
X158578961Y-101108095D01*
X158578961Y-101108095D02*
X158674200Y-101203333D01*
X158674200Y-101203333D02*
X158721819Y-101298571D01*
X158721819Y-101298571D02*
X158721819Y-101489047D01*
X158721819Y-101489047D02*
X158674200Y-101584285D01*
X158674200Y-101584285D02*
X158578961Y-101679523D01*
X158578961Y-101679523D02*
X158388485Y-101727142D01*
X158388485Y-101727142D02*
X158055152Y-101727142D01*
X158055152Y-101727142D02*
X157864676Y-101679523D01*
X157864676Y-101679523D02*
X157769438Y-101584285D01*
X157769438Y-101584285D02*
X157721819Y-101489047D01*
X157721819Y-100631904D02*
X158531342Y-100631904D01*
X158531342Y-100631904D02*
X158626580Y-100584285D01*
X158626580Y-100584285D02*
X158674200Y-100536666D01*
X158674200Y-100536666D02*
X158721819Y-100441428D01*
X158721819Y-100441428D02*
X158721819Y-100250952D01*
X158721819Y-100250952D02*
X158674200Y-100155714D01*
X158674200Y-100155714D02*
X158626580Y-100108095D01*
X158626580Y-100108095D02*
X158531342Y-100060476D01*
X158531342Y-100060476D02*
X157721819Y-100060476D01*
X157721819Y-99727142D02*
X157721819Y-99155714D01*
X158721819Y-99441428D02*
X157721819Y-99441428D01*
X157721819Y-98917618D02*
X157721819Y-98298571D01*
X157721819Y-98298571D02*
X158102771Y-98631904D01*
X158102771Y-98631904D02*
X158102771Y-98489047D01*
X158102771Y-98489047D02*
X158150390Y-98393809D01*
X158150390Y-98393809D02*
X158198009Y-98346190D01*
X158198009Y-98346190D02*
X158293247Y-98298571D01*
X158293247Y-98298571D02*
X158531342Y-98298571D01*
X158531342Y-98298571D02*
X158626580Y-98346190D01*
X158626580Y-98346190D02*
X158674200Y-98393809D01*
X158674200Y-98393809D02*
X158721819Y-98489047D01*
X158721819Y-98489047D02*
X158721819Y-98774761D01*
X158721819Y-98774761D02*
X158674200Y-98869999D01*
X158674200Y-98869999D02*
X158626580Y-98917618D01*
X134559104Y-52514285D02*
X134559104Y-52038095D01*
X134844819Y-52609523D02*
X133844819Y-52276190D01*
X133844819Y-52276190D02*
X134844819Y-51942857D01*
X134844819Y-51038095D02*
X134368628Y-51371428D01*
X134844819Y-51609523D02*
X133844819Y-51609523D01*
X133844819Y-51609523D02*
X133844819Y-51228571D01*
X133844819Y-51228571D02*
X133892438Y-51133333D01*
X133892438Y-51133333D02*
X133940057Y-51085714D01*
X133940057Y-51085714D02*
X134035295Y-51038095D01*
X134035295Y-51038095D02*
X134178152Y-51038095D01*
X134178152Y-51038095D02*
X134273390Y-51085714D01*
X134273390Y-51085714D02*
X134321009Y-51133333D01*
X134321009Y-51133333D02*
X134368628Y-51228571D01*
X134368628Y-51228571D02*
X134368628Y-51609523D01*
X134844819Y-50038095D02*
X134368628Y-50371428D01*
X134844819Y-50609523D02*
X133844819Y-50609523D01*
X133844819Y-50609523D02*
X133844819Y-50228571D01*
X133844819Y-50228571D02*
X133892438Y-50133333D01*
X133892438Y-50133333D02*
X133940057Y-50085714D01*
X133940057Y-50085714D02*
X134035295Y-50038095D01*
X134035295Y-50038095D02*
X134178152Y-50038095D01*
X134178152Y-50038095D02*
X134273390Y-50085714D01*
X134273390Y-50085714D02*
X134321009Y-50133333D01*
X134321009Y-50133333D02*
X134368628Y-50228571D01*
X134368628Y-50228571D02*
X134368628Y-50609523D01*
X134844819Y-49085714D02*
X134844819Y-49657142D01*
X134844819Y-49371428D02*
X133844819Y-49371428D01*
X133844819Y-49371428D02*
X133987676Y-49466666D01*
X133987676Y-49466666D02*
X134082914Y-49561904D01*
X134082914Y-49561904D02*
X134130533Y-49657142D01*
D14*
%TO.C,PG1*%
X111802000Y-49665000D02*
X111802000Y-51935000D01*
X111802000Y-51935000D02*
X115687000Y-51935000D01*
X115687000Y-49665000D02*
X111802000Y-49665000D01*
%TO.C,I2C_PINOUT7*%
X164532000Y-100330000D02*
X164532000Y-108010000D01*
X164532000Y-100330000D02*
X167192000Y-100330000D01*
X164532000Y-108010000D02*
X167192000Y-108010000D01*
X165862000Y-97730000D02*
X167192000Y-97730000D01*
X167192000Y-97730000D02*
X167192000Y-99060000D01*
X167192000Y-100330000D02*
X167192000Y-108010000D01*
%TO.C,I2C_PINOUT9*%
X98517000Y-85090000D02*
X98517000Y-77410000D01*
X98517000Y-87690000D02*
X98517000Y-86360000D01*
X99847000Y-87690000D02*
X98517000Y-87690000D01*
X101177000Y-77410000D02*
X98517000Y-77410000D01*
X101177000Y-85090000D02*
X98517000Y-85090000D01*
X101177000Y-85090000D02*
X101177000Y-77410000D01*
%TO.C,BATT_JST1*%
X126980000Y-110790000D02*
X126980000Y-116760000D01*
X126980000Y-116760000D02*
X134600000Y-116760000D01*
X126990000Y-114500000D02*
X127740000Y-114500000D01*
X126990000Y-116000000D02*
X126990000Y-116750000D01*
X126990000Y-116750000D02*
X128790000Y-116750000D01*
X127740000Y-111550000D02*
X130790000Y-111550000D01*
X127740000Y-114500000D02*
X127740000Y-111550000D01*
X128790000Y-116000000D02*
X126990000Y-116000000D01*
X128790000Y-116750000D02*
X128790000Y-116000000D01*
X130290000Y-116000000D02*
X130290000Y-116750000D01*
X130290000Y-116750000D02*
X131290000Y-116750000D01*
X131290000Y-116000000D02*
X130290000Y-116000000D01*
X131290000Y-116750000D02*
X131290000Y-116000000D01*
X132790000Y-116000000D02*
X132790000Y-116750000D01*
X132790000Y-116750000D02*
X134590000Y-116750000D01*
X133640000Y-117050000D02*
X134890000Y-117050000D01*
X133840000Y-111550000D02*
X130790000Y-111550000D01*
X133840000Y-114500000D02*
X133840000Y-111550000D01*
X134590000Y-114500000D02*
X133840000Y-114500000D01*
X134590000Y-116000000D02*
X132790000Y-116000000D01*
X134590000Y-116750000D02*
X134590000Y-116000000D01*
X134600000Y-110790000D02*
X126980000Y-110790000D01*
X134600000Y-116760000D02*
X134600000Y-110790000D01*
X134890000Y-117050000D02*
X134890000Y-115800000D01*
%TO.C,I2C_PINOUT10*%
X98517000Y-97790000D02*
X98517000Y-90110000D01*
X98517000Y-100390000D02*
X98517000Y-99060000D01*
X99847000Y-100390000D02*
X98517000Y-100390000D01*
X101177000Y-90110000D02*
X98517000Y-90110000D01*
X101177000Y-97790000D02*
X98517000Y-97790000D01*
X101177000Y-97790000D02*
X101177000Y-90110000D01*
%TO.C,I2C_PINOUT8*%
X98517000Y-72390000D02*
X98517000Y-64710000D01*
X98517000Y-74990000D02*
X98517000Y-73660000D01*
X99847000Y-74990000D02*
X98517000Y-74990000D01*
X101177000Y-64710000D02*
X98517000Y-64710000D01*
X101177000Y-72390000D02*
X98517000Y-72390000D01*
X101177000Y-72390000D02*
X101177000Y-64710000D01*
%TO.C,I2C_PINOUT0*%
X159452000Y-62230000D02*
X159452000Y-69910000D01*
X159452000Y-62230000D02*
X162112000Y-62230000D01*
X159452000Y-69910000D02*
X162112000Y-69910000D01*
X160782000Y-59630000D02*
X162112000Y-59630000D01*
X162112000Y-59630000D02*
X162112000Y-60960000D01*
X162112000Y-62230000D02*
X162112000Y-69910000D01*
%TO.C,I2C_PINOUT12*%
X105350000Y-107890000D02*
X105350000Y-110550000D01*
X113030000Y-107890000D02*
X105350000Y-107890000D01*
X113030000Y-107890000D02*
X113030000Y-110550000D01*
X113030000Y-110550000D02*
X105350000Y-110550000D01*
X115630000Y-109220000D02*
X115630000Y-110550000D01*
X115630000Y-110550000D02*
X114300000Y-110550000D01*
%TO.C,L1*%
X105799000Y-76691000D02*
X108099000Y-76691000D01*
X105799000Y-84091000D02*
X105799000Y-76691000D01*
X108099000Y-84091000D02*
X105799000Y-84091000D01*
X110899000Y-76691000D02*
X113199000Y-76691000D01*
X113199000Y-76691000D02*
X113199000Y-84091000D01*
X113199000Y-84091000D02*
X110899000Y-84091000D01*
%TO.C,UART1*%
X105350000Y-112970000D02*
X105350000Y-115630000D01*
X110490000Y-112970000D02*
X105350000Y-112970000D01*
X110490000Y-112970000D02*
X110490000Y-115630000D01*
X110490000Y-115630000D02*
X105350000Y-115630000D01*
X113090000Y-114300000D02*
X113090000Y-115630000D01*
X113090000Y-115630000D02*
X111760000Y-115630000D01*
%TO.C,I2C_PINOUT2*%
X159452000Y-87630000D02*
X159452000Y-95310000D01*
X159452000Y-87630000D02*
X162112000Y-87630000D01*
X159452000Y-95310000D02*
X162112000Y-95310000D01*
X160782000Y-85030000D02*
X162112000Y-85030000D01*
X162112000Y-85030000D02*
X162112000Y-86360000D01*
X162112000Y-87630000D02*
X162112000Y-95310000D01*
D15*
%TO.C,IC2*%
X130189000Y-71909500D02*
X135241000Y-71909500D01*
X130189000Y-74952500D02*
X130189000Y-71909500D01*
X135241000Y-71909500D02*
X135241000Y-74952500D01*
X135241000Y-74952500D02*
X130189000Y-74952500D01*
D16*
X130220500Y-76200000D02*
G75*
G02*
X129920500Y-76200000I-150000J0D01*
G01*
X129920500Y-76200000D02*
G75*
G02*
X130220500Y-76200000I150000J0D01*
G01*
X130960000Y-74200000D02*
G75*
G02*
X130660000Y-74200000I-150000J0D01*
G01*
X130660000Y-74200000D02*
G75*
G02*
X130960000Y-74200000I150000J0D01*
G01*
D14*
%TO.C,SW2*%
X149837000Y-113550000D02*
X149837000Y-115050000D01*
X151087000Y-117550000D02*
X155587000Y-117550000D01*
X155587000Y-111050000D02*
X151087000Y-111050000D01*
X156837000Y-115050000D02*
X156837000Y-113550000D01*
%TO.C,U2*%
X153187000Y-55950000D02*
X150987000Y-55950000D01*
X153187000Y-55950000D02*
X155387000Y-55950000D01*
X153187000Y-64020000D02*
X150987000Y-64020000D01*
X153187000Y-64020000D02*
X155387000Y-64020000D01*
X149327000Y-56410000D02*
X148997000Y-56650000D01*
X148997000Y-56170000D01*
X149327000Y-56410000D01*
G36*
X149327000Y-56410000D02*
G01*
X148997000Y-56650000D01*
X148997000Y-56170000D01*
X149327000Y-56410000D01*
G37*
%TO.C,PICO_R1*%
X141697000Y-69880000D02*
X141697000Y-105500000D01*
X141697000Y-69880000D02*
X144357000Y-69880000D01*
X141697000Y-105500000D02*
X144357000Y-105500000D01*
X143027000Y-67280000D02*
X144357000Y-67280000D01*
X144357000Y-67280000D02*
X144357000Y-68610000D01*
X144357000Y-69880000D02*
X144357000Y-105500000D01*
%TO.C,RST_SW1*%
X125430000Y-51828000D02*
X125430000Y-53328000D01*
X126680000Y-55828000D02*
X131180000Y-55828000D01*
X131180000Y-49328000D02*
X126680000Y-49328000D01*
X132430000Y-53328000D02*
X132430000Y-51828000D01*
%TO.C,OLED_CONN1*%
X115037000Y-112970000D02*
X116367000Y-112970000D01*
X115037000Y-114300000D02*
X115037000Y-112970000D01*
X117637000Y-112970000D02*
X125317000Y-112970000D01*
X117637000Y-115630000D02*
X117637000Y-112970000D01*
X117637000Y-115630000D02*
X125317000Y-115630000D01*
X125317000Y-115630000D02*
X125317000Y-112970000D01*
%TO.C,U1*%
X109684500Y-87670000D02*
X107484500Y-87670000D01*
X109684500Y-87670000D02*
X111884500Y-87670000D01*
X109684500Y-95740000D02*
X107484500Y-95740000D01*
X109684500Y-95740000D02*
X111884500Y-95740000D01*
X105824500Y-88130000D02*
X105494500Y-88370000D01*
X105494500Y-87890000D01*
X105824500Y-88130000D01*
G36*
X105824500Y-88130000D02*
G01*
X105494500Y-88370000D01*
X105494500Y-87890000D01*
X105824500Y-88130000D01*
G37*
%TO.C,I2C_PINOUT5*%
X164532000Y-74930000D02*
X164532000Y-82610000D01*
X164532000Y-74930000D02*
X167192000Y-74930000D01*
X164532000Y-82610000D02*
X167192000Y-82610000D01*
X165862000Y-72330000D02*
X167192000Y-72330000D01*
X167192000Y-72330000D02*
X167192000Y-73660000D01*
X167192000Y-74930000D02*
X167192000Y-82610000D01*
%TO.C,I2C_PINOUT6*%
X164532000Y-87630000D02*
X164532000Y-95310000D01*
X164532000Y-87630000D02*
X167192000Y-87630000D01*
X164532000Y-95310000D02*
X167192000Y-95310000D01*
X165862000Y-85030000D02*
X167192000Y-85030000D01*
X167192000Y-85030000D02*
X167192000Y-86360000D01*
X167192000Y-87630000D02*
X167192000Y-95310000D01*
D17*
%TO.C,U3*%
X127590000Y-64365000D02*
X130590000Y-64365000D01*
X130590000Y-61365000D02*
X127590000Y-61365000D01*
D10*
X125690000Y-61865000D02*
G75*
G02*
X125490000Y-61865000I-100000J0D01*
G01*
X125490000Y-61865000D02*
G75*
G02*
X125690000Y-61865000I100000J0D01*
G01*
%TO.C,U5*%
X106902000Y-72905000D02*
G75*
G02*
X106702000Y-72905000I-100000J0D01*
G01*
X106702000Y-72905000D02*
G75*
G02*
X106902000Y-72905000I100000J0D01*
G01*
D14*
%TO.C,MOTOR_CONN1*%
X131537000Y-123130000D02*
X132867000Y-123130000D01*
X131537000Y-124460000D02*
X131537000Y-123130000D01*
X134137000Y-123130000D02*
X136737000Y-123130000D01*
X134137000Y-125790000D02*
X134137000Y-123130000D01*
X134137000Y-125790000D02*
X136737000Y-125790000D01*
X136737000Y-125790000D02*
X136737000Y-123130000D01*
%TO.C,SW1*%
X136987000Y-113550000D02*
X136987000Y-115050000D01*
X138237000Y-117550000D02*
X142737000Y-117550000D01*
X142737000Y-111050000D02*
X138237000Y-111050000D01*
X143987000Y-115050000D02*
X143987000Y-113550000D01*
%TO.C,US1*%
X135830000Y-54525000D02*
X137160000Y-54525000D01*
X135830000Y-55855000D02*
X135830000Y-54525000D01*
X138430000Y-54525000D02*
X146110000Y-54525000D01*
X138430000Y-57185000D02*
X138430000Y-54525000D01*
X138430000Y-57185000D02*
X146110000Y-57185000D01*
X146110000Y-57185000D02*
X146110000Y-54525000D01*
%TO.C,SW3*%
X142624000Y-125102000D02*
X142624000Y-120262000D01*
X145544000Y-122047000D02*
X145544000Y-123317000D01*
X145544000Y-123317000D02*
X149604000Y-123317000D01*
X148250667Y-123317000D02*
X148250667Y-122047000D01*
X149604000Y-122047000D02*
X145544000Y-122047000D01*
X149604000Y-122117000D02*
X148250667Y-122117000D01*
X149604000Y-122237000D02*
X148250667Y-122237000D01*
X149604000Y-122357000D02*
X148250667Y-122357000D01*
X149604000Y-122477000D02*
X148250667Y-122477000D01*
X149604000Y-122597000D02*
X148250667Y-122597000D01*
X149604000Y-122717000D02*
X148250667Y-122717000D01*
X149604000Y-122837000D02*
X148250667Y-122837000D01*
X149604000Y-122957000D02*
X148250667Y-122957000D01*
X149604000Y-123077000D02*
X148250667Y-123077000D01*
X149604000Y-123197000D02*
X148250667Y-123197000D01*
X149604000Y-123317000D02*
X149604000Y-122047000D01*
X152524000Y-120262000D02*
X142624000Y-120262000D01*
X152524000Y-125102000D02*
X142624000Y-125102000D01*
X152524000Y-125102000D02*
X152524000Y-120262000D01*
X152764000Y-125342000D02*
X151380000Y-125342000D01*
X152764000Y-125342000D02*
X152764000Y-123959000D01*
%TO.C,J1*%
X113007000Y-122835000D02*
X113007000Y-123735000D01*
X113007000Y-126435000D02*
X113007000Y-129165000D01*
X113007000Y-129165000D02*
X122197000Y-129165000D01*
X113127000Y-119755000D02*
X122077000Y-119755000D01*
X122197000Y-122835000D02*
X122197000Y-123735000D01*
X122197000Y-126435000D02*
X122197000Y-129165000D01*
%TO.C,GPIO_L1*%
X115027000Y-102900000D02*
X115027000Y-67280000D01*
X115027000Y-105500000D02*
X115027000Y-104170000D01*
X116357000Y-105500000D02*
X115027000Y-105500000D01*
X117687000Y-67280000D02*
X115027000Y-67280000D01*
X117687000Y-102900000D02*
X115027000Y-102900000D01*
X117687000Y-102900000D02*
X117687000Y-67280000D01*
%TO.C,I2C_PINOUT4*%
X164532000Y-62230000D02*
X164532000Y-69910000D01*
X164532000Y-62230000D02*
X167192000Y-62230000D01*
X164532000Y-69910000D02*
X167192000Y-69910000D01*
X165862000Y-59630000D02*
X167192000Y-59630000D01*
X167192000Y-59630000D02*
X167192000Y-60960000D01*
X167192000Y-62230000D02*
X167192000Y-69910000D01*
%TO.C,12V1*%
X115342000Y-52205000D02*
X115342000Y-54475000D01*
X115342000Y-54475000D02*
X119227000Y-54475000D01*
X119227000Y-52205000D02*
X115342000Y-52205000D01*
%TO.C,I2C_PINOUT1*%
X159477000Y-74930000D02*
X159477000Y-82610000D01*
X159477000Y-74930000D02*
X162137000Y-74930000D01*
X159477000Y-82610000D02*
X162137000Y-82610000D01*
X160807000Y-72330000D02*
X162137000Y-72330000D01*
X162137000Y-72330000D02*
X162137000Y-73660000D01*
X162137000Y-74930000D02*
X162137000Y-82610000D01*
%TO.C,PICO_L1*%
X122647000Y-69880000D02*
X122647000Y-105500000D01*
X122647000Y-69880000D02*
X125307000Y-69880000D01*
X122647000Y-105500000D02*
X125307000Y-105500000D01*
X123977000Y-67280000D02*
X125307000Y-67280000D01*
X125307000Y-67280000D02*
X125307000Y-68610000D01*
X125307000Y-69880000D02*
X125307000Y-105500000D01*
%TO.C,I2C_PINOUT11*%
X98517000Y-110490000D02*
X98517000Y-102810000D01*
X98517000Y-113090000D02*
X98517000Y-111760000D01*
X99847000Y-113090000D02*
X98517000Y-113090000D01*
X101177000Y-102810000D02*
X98517000Y-102810000D01*
X101177000Y-110490000D02*
X98517000Y-110490000D01*
X101177000Y-110490000D02*
X101177000Y-102810000D01*
D17*
%TO.C,U4*%
X134542000Y-61965000D02*
X137542000Y-61965000D01*
X134542000Y-65035000D02*
X137542000Y-65035000D01*
D10*
X132622000Y-62245000D02*
G75*
G02*
X132422000Y-62245000I-100000J0D01*
G01*
X132422000Y-62245000D02*
G75*
G02*
X132622000Y-62245000I100000J0D01*
G01*
D14*
%TO.C,GPIO_R1*%
X149317000Y-69880000D02*
X149317000Y-105500000D01*
X149317000Y-69880000D02*
X151977000Y-69880000D01*
X149317000Y-105500000D02*
X151977000Y-105500000D01*
X150647000Y-67280000D02*
X151977000Y-67280000D01*
X151977000Y-67280000D02*
X151977000Y-68610000D01*
X151977000Y-69880000D02*
X151977000Y-105500000D01*
%TO.C,CHG1*%
X119022000Y-49665000D02*
X119022000Y-51935000D01*
X119022000Y-51935000D02*
X122907000Y-51935000D01*
X122907000Y-49665000D02*
X119022000Y-49665000D01*
%TO.C,I2C_PINOUT3*%
X159452000Y-100330000D02*
X159452000Y-108010000D01*
X159452000Y-100330000D02*
X162112000Y-100330000D01*
X159452000Y-108010000D02*
X162112000Y-108010000D01*
X160782000Y-97730000D02*
X162112000Y-97730000D01*
X162112000Y-97730000D02*
X162112000Y-99060000D01*
X162112000Y-100330000D02*
X162112000Y-108010000D01*
%TO.C,ARR1*%
X135830000Y-49470000D02*
X137160000Y-49470000D01*
X135830000Y-50800000D02*
X135830000Y-49470000D01*
X138430000Y-49470000D02*
X146110000Y-49470000D01*
X138430000Y-52130000D02*
X138430000Y-49470000D01*
X138430000Y-52130000D02*
X146110000Y-52130000D01*
X146110000Y-52130000D02*
X146110000Y-49470000D01*
%TD*%
%LPC*%
D18*
%TO.C,U3*%
X127840000Y-62065000D02*
X126140000Y-62065000D01*
X126140000Y-61665000D01*
X127840000Y-61665000D01*
X127840000Y-62065000D01*
G36*
X127840000Y-62065000D02*
G01*
X126140000Y-62065000D01*
X126140000Y-61665000D01*
X127840000Y-61665000D01*
X127840000Y-62065000D01*
G37*
X127840000Y-62565000D02*
X126140000Y-62565000D01*
X126140000Y-62165000D01*
X127840000Y-62165000D01*
X127840000Y-62565000D01*
G36*
X127840000Y-62565000D02*
G01*
X126140000Y-62565000D01*
X126140000Y-62165000D01*
X127840000Y-62165000D01*
X127840000Y-62565000D01*
G37*
X127840000Y-63065000D02*
X126140000Y-63065000D01*
X126140000Y-62665000D01*
X127840000Y-62665000D01*
X127840000Y-63065000D01*
G36*
X127840000Y-63065000D02*
G01*
X126140000Y-63065000D01*
X126140000Y-62665000D01*
X127840000Y-62665000D01*
X127840000Y-63065000D01*
G37*
X127840000Y-63565000D02*
X126140000Y-63565000D01*
X126140000Y-63165000D01*
X127840000Y-63165000D01*
X127840000Y-63565000D01*
G36*
X127840000Y-63565000D02*
G01*
X126140000Y-63565000D01*
X126140000Y-63165000D01*
X127840000Y-63165000D01*
X127840000Y-63565000D01*
G37*
X127840000Y-64065000D02*
X126140000Y-64065000D01*
X126140000Y-63665000D01*
X127840000Y-63665000D01*
X127840000Y-64065000D01*
G36*
X127840000Y-64065000D02*
G01*
X126140000Y-64065000D01*
X126140000Y-63665000D01*
X127840000Y-63665000D01*
X127840000Y-64065000D01*
G37*
X132040000Y-62065000D02*
X130340000Y-62065000D01*
X130340000Y-61665000D01*
X132040000Y-61665000D01*
X132040000Y-62065000D01*
G36*
X132040000Y-62065000D02*
G01*
X130340000Y-62065000D01*
X130340000Y-61665000D01*
X132040000Y-61665000D01*
X132040000Y-62065000D01*
G37*
X132040000Y-62565000D02*
X130340000Y-62565000D01*
X130340000Y-62165000D01*
X132040000Y-62165000D01*
X132040000Y-62565000D01*
G36*
X132040000Y-62565000D02*
G01*
X130340000Y-62565000D01*
X130340000Y-62165000D01*
X132040000Y-62165000D01*
X132040000Y-62565000D01*
G37*
X132040000Y-63065000D02*
X130340000Y-63065000D01*
X130340000Y-62665000D01*
X132040000Y-62665000D01*
X132040000Y-63065000D01*
G36*
X132040000Y-63065000D02*
G01*
X130340000Y-63065000D01*
X130340000Y-62665000D01*
X132040000Y-62665000D01*
X132040000Y-63065000D01*
G37*
X132040000Y-63565000D02*
X130340000Y-63565000D01*
X130340000Y-63165000D01*
X132040000Y-63165000D01*
X132040000Y-63565000D01*
G36*
X132040000Y-63565000D02*
G01*
X130340000Y-63565000D01*
X130340000Y-63165000D01*
X132040000Y-63165000D01*
X132040000Y-63565000D01*
G37*
X132040000Y-64065000D02*
X130340000Y-64065000D01*
X130340000Y-63665000D01*
X132040000Y-63665000D01*
X132040000Y-64065000D01*
G36*
X132040000Y-64065000D02*
G01*
X130340000Y-64065000D01*
X130340000Y-63665000D01*
X132040000Y-63665000D01*
X132040000Y-64065000D01*
G37*
%TO.C,U5*%
X107122000Y-66225000D02*
X106482000Y-66225000D01*
X106482000Y-63885000D01*
X107122000Y-63885000D01*
X107122000Y-66225000D01*
G36*
X107122000Y-66225000D02*
G01*
X106482000Y-66225000D01*
X106482000Y-63885000D01*
X107122000Y-63885000D01*
X107122000Y-66225000D01*
G37*
X107122000Y-71975000D02*
X106482000Y-71975000D01*
X106482000Y-69635000D01*
X107122000Y-69635000D01*
X107122000Y-71975000D01*
G36*
X107122000Y-71975000D02*
G01*
X106482000Y-71975000D01*
X106482000Y-69635000D01*
X107122000Y-69635000D01*
X107122000Y-71975000D01*
G37*
X110257000Y-69130000D02*
X107157000Y-69130000D01*
X107157000Y-66730000D01*
X110257000Y-66730000D01*
X110257000Y-69130000D01*
G36*
X110257000Y-69130000D02*
G01*
X107157000Y-69130000D01*
X107157000Y-66730000D01*
X110257000Y-66730000D01*
X110257000Y-69130000D01*
G37*
X108392000Y-66225000D02*
X107752000Y-66225000D01*
X107752000Y-63885000D01*
X108392000Y-63885000D01*
X108392000Y-66225000D01*
G36*
X108392000Y-66225000D02*
G01*
X107752000Y-66225000D01*
X107752000Y-63885000D01*
X108392000Y-63885000D01*
X108392000Y-66225000D01*
G37*
X108392000Y-71975000D02*
X107752000Y-71975000D01*
X107752000Y-69635000D01*
X108392000Y-69635000D01*
X108392000Y-71975000D01*
G36*
X108392000Y-71975000D02*
G01*
X107752000Y-71975000D01*
X107752000Y-69635000D01*
X108392000Y-69635000D01*
X108392000Y-71975000D01*
G37*
X109662000Y-66225000D02*
X109022000Y-66225000D01*
X109022000Y-63885000D01*
X109662000Y-63885000D01*
X109662000Y-66225000D01*
G36*
X109662000Y-66225000D02*
G01*
X109022000Y-66225000D01*
X109022000Y-63885000D01*
X109662000Y-63885000D01*
X109662000Y-66225000D01*
G37*
X109662000Y-71975000D02*
X109022000Y-71975000D01*
X109022000Y-69635000D01*
X109662000Y-69635000D01*
X109662000Y-71975000D01*
G36*
X109662000Y-71975000D02*
G01*
X109022000Y-71975000D01*
X109022000Y-69635000D01*
X109662000Y-69635000D01*
X109662000Y-71975000D01*
G37*
X110932000Y-66225000D02*
X110292000Y-66225000D01*
X110292000Y-63885000D01*
X110932000Y-63885000D01*
X110932000Y-66225000D01*
G36*
X110932000Y-66225000D02*
G01*
X110292000Y-66225000D01*
X110292000Y-63885000D01*
X110932000Y-63885000D01*
X110932000Y-66225000D01*
G37*
X110932000Y-71975000D02*
X110292000Y-71975000D01*
X110292000Y-69635000D01*
X110932000Y-69635000D01*
X110932000Y-71975000D01*
G36*
X110932000Y-71975000D02*
G01*
X110292000Y-71975000D01*
X110292000Y-69635000D01*
X110932000Y-69635000D01*
X110932000Y-71975000D01*
G37*
%TD*%
D19*
%TO.C,PG1*%
X112687000Y-50800000D03*
X115487000Y-50800000D03*
%TD*%
D20*
%TO.C,I2C_PINOUT7*%
X165862000Y-99060000D03*
D21*
X165862000Y-101600000D03*
X165862000Y-104140000D03*
X165862000Y-106680000D03*
%TD*%
D20*
%TO.C,I2C_PINOUT9*%
X99847000Y-86360000D03*
D21*
X99847000Y-83820000D03*
X99847000Y-81280000D03*
X99847000Y-78740000D03*
%TD*%
D22*
%TO.C,BATT_JST1*%
X132040000Y-114300000D03*
D23*
X129540000Y-114300000D03*
%TD*%
D20*
%TO.C,I2C_PINOUT10*%
X99847000Y-99060000D03*
D21*
X99847000Y-96520000D03*
X99847000Y-93980000D03*
X99847000Y-91440000D03*
%TD*%
D20*
%TO.C,I2C_PINOUT8*%
X99847000Y-73660000D03*
D21*
X99847000Y-71120000D03*
X99847000Y-68580000D03*
X99847000Y-66040000D03*
%TD*%
D20*
%TO.C,I2C_PINOUT0*%
X160782000Y-60960000D03*
D21*
X160782000Y-63500000D03*
X160782000Y-66040000D03*
X160782000Y-68580000D03*
%TD*%
D20*
%TO.C,I2C_PINOUT12*%
X114300000Y-109220000D03*
D21*
X111760000Y-109220000D03*
X109220000Y-109220000D03*
X106680000Y-109220000D03*
%TD*%
D24*
%TO.C,L1*%
X109499000Y-83591000D03*
X109499000Y-77191000D03*
%TD*%
D20*
%TO.C,UART1*%
X111760000Y-114300000D03*
D21*
X109220000Y-114300000D03*
X106680000Y-114300000D03*
%TD*%
D20*
%TO.C,I2C_PINOUT2*%
X160782000Y-86360000D03*
D21*
X160782000Y-88900000D03*
X160782000Y-91440000D03*
X160782000Y-93980000D03*
%TD*%
D25*
%TO.C,IC2*%
X130810000Y-76200000D03*
X132080000Y-76200000D03*
X133350000Y-76200000D03*
X134620000Y-76200000D03*
X134620000Y-70662000D03*
X133350000Y-70662000D03*
X132080000Y-70662000D03*
X130810000Y-70662000D03*
D26*
X132715000Y-73431000D03*
%TD*%
D27*
%TO.C,SW2*%
X150087000Y-112050000D03*
X156587000Y-112050000D03*
X150087000Y-116550000D03*
X156587000Y-116550000D03*
%TD*%
D28*
%TO.C,U2*%
X150324500Y-56410000D03*
X150324500Y-57060000D03*
X150324500Y-57710000D03*
X150324500Y-58360000D03*
X150324500Y-59010000D03*
X150324500Y-59660000D03*
X150324500Y-60310000D03*
X150324500Y-60960000D03*
X150324500Y-61610000D03*
X150324500Y-62260000D03*
X150324500Y-62910000D03*
X150324500Y-63560000D03*
X156049500Y-63560000D03*
X156049500Y-62910000D03*
X156049500Y-62260000D03*
X156049500Y-61610000D03*
X156049500Y-60960000D03*
X156049500Y-60310000D03*
X156049500Y-59660000D03*
X156049500Y-59010000D03*
X156049500Y-58360000D03*
X156049500Y-57710000D03*
X156049500Y-57060000D03*
X156049500Y-56410000D03*
%TD*%
D20*
%TO.C,PICO_R1*%
X143027000Y-68610000D03*
D21*
X143027000Y-71150000D03*
X143027000Y-73690000D03*
X143027000Y-76230000D03*
X143027000Y-78770000D03*
X143027000Y-81310000D03*
X143027000Y-83850000D03*
X143027000Y-86390000D03*
X143027000Y-88930000D03*
X143027000Y-91470000D03*
X143027000Y-94010000D03*
X143027000Y-96550000D03*
X143027000Y-99090000D03*
X143027000Y-101630000D03*
X143027000Y-104170000D03*
%TD*%
D27*
%TO.C,RST_SW1*%
X125680000Y-50328000D03*
X132180000Y-50328000D03*
X125680000Y-54828000D03*
X132180000Y-54828000D03*
%TD*%
D29*
%TO.C,H4*%
X104140000Y-121920000D03*
%TD*%
D20*
%TO.C,OLED_CONN1*%
X116367000Y-114300000D03*
D21*
X118907000Y-114300000D03*
X121447000Y-114300000D03*
X123987000Y-114300000D03*
%TD*%
D29*
%TO.C,H5*%
X162560000Y-121920000D03*
%TD*%
D28*
%TO.C,U1*%
X106822000Y-88130000D03*
X106822000Y-88780000D03*
X106822000Y-89430000D03*
X106822000Y-90080000D03*
X106822000Y-90730000D03*
X106822000Y-91380000D03*
X106822000Y-92030000D03*
X106822000Y-92680000D03*
X106822000Y-93330000D03*
X106822000Y-93980000D03*
X106822000Y-94630000D03*
X106822000Y-95280000D03*
X112547000Y-95280000D03*
X112547000Y-94630000D03*
X112547000Y-93980000D03*
X112547000Y-93330000D03*
X112547000Y-92680000D03*
X112547000Y-92030000D03*
X112547000Y-91380000D03*
X112547000Y-90730000D03*
X112547000Y-90080000D03*
X112547000Y-89430000D03*
X112547000Y-88780000D03*
X112547000Y-88130000D03*
%TD*%
D20*
%TO.C,I2C_PINOUT5*%
X165862000Y-73660000D03*
D21*
X165862000Y-76200000D03*
X165862000Y-78740000D03*
X165862000Y-81280000D03*
%TD*%
D20*
%TO.C,I2C_PINOUT6*%
X165862000Y-86360000D03*
D21*
X165862000Y-88900000D03*
X165862000Y-91440000D03*
X165862000Y-93980000D03*
%TD*%
D30*
%TO.C,U3*%
X129090000Y-62865000D03*
%TD*%
D20*
%TO.C,MOTOR_CONN1*%
X132867000Y-124460000D03*
D21*
X135407000Y-124460000D03*
%TD*%
D27*
%TO.C,SW1*%
X137237000Y-112050000D03*
X143737000Y-112050000D03*
X137237000Y-116550000D03*
X143737000Y-116550000D03*
%TD*%
D29*
%TO.C,H1*%
X104140000Y-53340000D03*
%TD*%
D20*
%TO.C,US1*%
X137160000Y-55855000D03*
D21*
X139700000Y-55855000D03*
X142240000Y-55855000D03*
X144780000Y-55855000D03*
%TD*%
D31*
%TO.C,SW3*%
X151384000Y-122682000D03*
D32*
X143764000Y-122682000D03*
%TD*%
D33*
%TO.C,J1*%
X114627000Y-120435000D03*
X115477000Y-120435000D03*
X116327000Y-120435000D03*
X117177000Y-120435000D03*
X118027000Y-120435000D03*
X118877000Y-120435000D03*
X119727000Y-120435000D03*
X120577000Y-120435000D03*
X120577000Y-121785000D03*
X119727000Y-121785000D03*
X118877000Y-121785000D03*
X118027000Y-121785000D03*
X117177000Y-121785000D03*
X116327000Y-121785000D03*
X115477000Y-121785000D03*
X114627000Y-121785000D03*
D34*
X113277000Y-121415000D03*
D35*
X113277000Y-124795000D03*
D34*
X121927000Y-121415000D03*
D35*
X121927000Y-124795000D03*
%TD*%
D20*
%TO.C,GPIO_L1*%
X116357000Y-104170000D03*
D21*
X116357000Y-101630000D03*
X116357000Y-99090000D03*
X116357000Y-96550000D03*
X116357000Y-94010000D03*
X116357000Y-91470000D03*
X116357000Y-88930000D03*
X116357000Y-86390000D03*
X116357000Y-83850000D03*
X116357000Y-81310000D03*
X116357000Y-78770000D03*
X116357000Y-76230000D03*
X116357000Y-73690000D03*
X116357000Y-71150000D03*
X116357000Y-68610000D03*
%TD*%
D20*
%TO.C,I2C_PINOUT4*%
X165862000Y-60960000D03*
D21*
X165862000Y-63500000D03*
X165862000Y-66040000D03*
X165862000Y-68580000D03*
%TD*%
D29*
%TO.C,H3*%
X134620000Y-88900000D03*
%TD*%
D19*
%TO.C,12V1*%
X116227000Y-53340000D03*
X119027000Y-53340000D03*
%TD*%
D20*
%TO.C,I2C_PINOUT1*%
X160807000Y-73660000D03*
D21*
X160807000Y-76200000D03*
X160807000Y-78740000D03*
X160807000Y-81280000D03*
%TD*%
D20*
%TO.C,PICO_L1*%
X123977000Y-68610000D03*
D21*
X123977000Y-71150000D03*
X123977000Y-73690000D03*
X123977000Y-76230000D03*
X123977000Y-78770000D03*
X123977000Y-81310000D03*
X123977000Y-83850000D03*
X123977000Y-86390000D03*
X123977000Y-88930000D03*
X123977000Y-91470000D03*
X123977000Y-94010000D03*
X123977000Y-96550000D03*
X123977000Y-99090000D03*
X123977000Y-101630000D03*
X123977000Y-104170000D03*
%TD*%
D29*
%TO.C,H2*%
X162560000Y-53340000D03*
%TD*%
D20*
%TO.C,I2C_PINOUT11*%
X99847000Y-111760000D03*
D21*
X99847000Y-109220000D03*
X99847000Y-106680000D03*
X99847000Y-104140000D03*
%TD*%
D36*
%TO.C,U4*%
X133892000Y-62525000D03*
X133892000Y-63175000D03*
X133892000Y-63825000D03*
X133892000Y-64475000D03*
X138192000Y-64475000D03*
X138192000Y-63825000D03*
X138192000Y-63175000D03*
X138192000Y-62525000D03*
%TD*%
D20*
%TO.C,GPIO_R1*%
X150647000Y-68610000D03*
D21*
X150647000Y-71150000D03*
X150647000Y-73690000D03*
X150647000Y-76230000D03*
X150647000Y-78770000D03*
X150647000Y-81310000D03*
X150647000Y-83850000D03*
X150647000Y-86390000D03*
X150647000Y-88930000D03*
X150647000Y-91470000D03*
X150647000Y-94010000D03*
X150647000Y-96550000D03*
X150647000Y-99090000D03*
X150647000Y-101630000D03*
X150647000Y-104170000D03*
%TD*%
D19*
%TO.C,CHG1*%
X119907000Y-50800000D03*
X122707000Y-50800000D03*
%TD*%
D20*
%TO.C,I2C_PINOUT3*%
X160782000Y-99060000D03*
D21*
X160782000Y-101600000D03*
X160782000Y-104140000D03*
X160782000Y-106680000D03*
%TD*%
D20*
%TO.C,ARR1*%
X137160000Y-50800000D03*
D21*
X139700000Y-50800000D03*
X142240000Y-50800000D03*
X144780000Y-50800000D03*
%TD*%
%LPD*%
M02*
