M48
; DRILL file {KiCad 8.0.7} date 2025-01-26T02:59:20-0500
; FORMAT={-:-/ absolute / inch / decimal}
; #@! TF.CreationDate,2025-01-26T02:59:20-05:00
; #@! TF.GenerationSoftware,Kicad,Pcbnew,8.0.7
; #@! TF.FileFunction,Plated,1,2,PTH
FMAT,2
INCH
; #@! TA.AperFunction,Plated,PTH,ComponentDrill
T1C0.0079
; #@! TA.AperFunction,Plated,PTH,ViaDrill
T2C0.0118
; #@! TA.AperFunction,Plated,PTH,ComponentDrill
T3C0.0130
; #@! TA.AperFunction,Plated,PTH,ComponentDrill
T4C0.0276
; #@! TA.AperFunction,Plated,PTH,ComponentDrill
T5C0.0394
; #@! TA.AperFunction,Plated,PTH,ComponentDrill
T6C0.0433
; #@! TA.AperFunction,Plated,PTH,ComponentDrill
T7C0.0472
; #@! TA.AperFunction,Plated,PTH,ComponentDrill
T8C0.1693
%
G90
G05
T1
X4.9146Y-2.4428
X4.9146Y-2.49
X4.9323Y-2.4664
X4.95Y-2.4428
X4.95Y-2.49
T2
X3.8183Y-3.4548
X3.8184Y-4.0153
X3.9198Y-3.7588
X3.9403Y-3.3652
X3.9409Y-3.8688
X3.9508Y-2.5548
X3.9547Y-3.8246
X3.9831Y-3.6098
X3.9974Y-3.4564
X3.998Y-4.0465
X4.0109Y-4.2497
X4.0384Y-3.1967
X4.1039Y-4.3556
X4.108Y-3.572
X4.1134Y-3.8406
X4.1139Y-3.8067
X4.1173Y-3.7342
X4.166Y-4.0527
X4.1773Y-3.5483
X4.1904Y-3.9997
X4.2001Y-2.05
X4.201Y-3.89
X4.2011Y-4.2164
X4.2018Y-3.6766
X4.2669Y-3.6735
X4.2771Y-4.3642
X4.2937Y-4.1686
X4.2957Y-2.6421
X4.3019Y-2.6836
X4.3156Y-3.6875
X4.3209Y-2.7997
X4.3239Y-4.1859
X4.3671Y-2.7527
X4.3705Y-4.5946
X4.3965Y-3.7097
X4.4724Y-2.6282
X4.4814Y-4.5691
X4.5079Y-2.0483
X4.526Y-4.3623
X4.5873Y-2.8473
X4.6109Y-2.0411
X4.6335Y-3.5482
X4.6814Y-2.3108
X4.7233Y-2.4443
X4.7971Y-2.4566
X4.798Y-2.51
X4.8496Y-2.6518
X4.9605Y-2.6186
X4.9634Y-2.2519
X4.9656Y-3.0052
X5.0007Y-2.6053
X5.0363Y-2.3886
X5.1635Y-2.3955
X5.1692Y-2.624
X5.1933Y-2.9891
X5.1979Y-2.1492
X5.2414Y-2.47
X5.2471Y-2.2974
X5.2595Y-3.7501
X5.2854Y-3.95
X5.3099Y-2.8351
X5.3762Y-3.6937
X5.3796Y-2.694
X5.6122Y-3.8483
X5.6484Y-2.5424
X5.7192Y-2.4133
X5.8004Y-3.2499
X5.8127Y-2.9983
X5.8172Y-2.2718
X5.8258Y-3.6457
X5.8673Y-3.3475
X5.8716Y-2.6692
X5.9444Y-2.5455
X5.9646Y-3.0894
X5.965Y-2.9693
X5.9937Y-2.5463
X6.0426Y-2.3294
X6.0434Y-2.4873
X6.044Y-2.2976
X6.1315Y-2.3531
X6.4588Y-2.3294
X6.4588Y-3.2536
T3
X4.1188Y-2.7376
X4.1188Y-2.7888
X4.1188Y-2.84
X4.17Y-2.7376
X4.17Y-2.7888
X4.17Y-2.84
T5
X3.781Y-2.6
X3.781Y-2.7
X3.781Y-2.8
X3.781Y-2.9
X3.781Y-3.1
X3.781Y-3.2
X3.781Y-3.3
X3.781Y-3.4
X3.781Y-3.6
X3.781Y-3.7
X3.781Y-3.8
X3.781Y-3.9
X3.781Y-4.1
X3.781Y-4.2
X3.781Y-4.3
X3.781Y-4.4
X4.05Y-4.3
X4.05Y-4.5
X4.15Y-4.3
X4.15Y-4.5
X4.2001Y-2.401
X4.25Y-4.3
X4.25Y-4.5
X4.35Y-4.3
X4.397Y-2.401
X4.4314Y-4.5
X4.45Y-2.7
X4.45Y-2.8
X4.45Y-2.9
X4.45Y-3.0
X4.45Y-3.1
X4.45Y-3.2
X4.45Y-3.3
X4.45Y-3.4
X4.45Y-3.5
X4.45Y-3.6
X4.45Y-3.7
X4.45Y-3.8
X4.45Y-3.9
X4.45Y-4.0
X4.45Y-4.1
X4.5314Y-4.5
X4.6314Y-4.5
X4.7314Y-4.5
X4.75Y-2.7012
X4.75Y-2.8012
X4.75Y-2.9012
X4.75Y-3.0012
X4.75Y-3.1012
X4.75Y-3.2012
X4.75Y-3.3012
X4.75Y-3.4012
X4.75Y-3.5012
X4.75Y-3.6012
X4.75Y-3.7012
X4.75Y-3.8012
X4.75Y-3.9012
X4.75Y-4.0012
X4.75Y-4.1012
X4.95Y-4.55
X5.0484Y-4.55
X5.081Y-4.9
X5.181Y-4.9
X5.25Y-2.0
X5.25Y-2.199
X5.35Y-2.0
X5.35Y-2.199
X5.45Y-2.0
X5.45Y-2.199
X5.45Y-2.7
X5.45Y-2.8
X5.45Y-2.9
X5.45Y-3.0
X5.45Y-3.1
X5.45Y-3.2
X5.45Y-3.3
X5.45Y-3.4
X5.45Y-3.5
X5.45Y-3.6
X5.45Y-3.7
X5.45Y-3.8
X5.45Y-3.9
X5.45Y-4.0
X5.45Y-4.1
X5.55Y-2.0
X5.55Y-2.199
X5.75Y-2.7
X5.75Y-2.8
X5.75Y-2.9
X5.75Y-3.0
X5.75Y-3.1
X5.75Y-3.2
X5.75Y-3.3
X5.75Y-3.4
X5.75Y-3.5
X5.75Y-3.6
X5.75Y-3.7
X5.75Y-3.8
X5.75Y-3.9
X5.75Y-4.0
X5.75Y-4.1
X6.18Y-2.4
X6.18Y-2.5
X6.18Y-2.6
X6.18Y-2.7
X6.18Y-3.4
X6.18Y-3.5
X6.18Y-3.6
X6.18Y-3.7
X6.18Y-3.9
X6.18Y-4.0
X6.18Y-4.1
X6.18Y-4.2
X6.181Y-2.9
X6.181Y-3.0
X6.181Y-3.1
X6.181Y-3.2
X6.38Y-2.4
X6.38Y-2.5
X6.38Y-2.6
X6.38Y-2.7
X6.38Y-2.9
X6.38Y-3.0
X6.38Y-3.1
X6.38Y-3.2
X6.38Y-3.4
X6.38Y-3.5
X6.38Y-3.6
X6.38Y-3.7
X6.38Y-3.9
X6.38Y-4.0
X6.38Y-4.1
X6.38Y-4.2
T6
X4.798Y-1.9814
X4.798Y-2.1586
X5.0539Y-1.9814
X5.0539Y-2.1586
X5.253Y-4.4414
X5.253Y-4.6186
X5.5089Y-4.4414
X5.5089Y-4.6186
X5.7589Y-4.4414
X5.7589Y-4.6186
X6.0148Y-4.4414
X6.0148Y-4.6186
T7
X5.6131Y-4.7861
X5.6131Y-4.92
X5.7116Y-4.7861
X5.7116Y-4.92
X5.81Y-4.7861
X5.81Y-4.92
T8
X3.95Y-2.1
X3.95Y-4.8
X5.1Y-3.4
X6.25Y-2.1
X6.25Y-4.8
T4
G00X4.2598Y-4.7177
M15
G01X4.2598Y-4.7531
M16
G05
G00X4.2598Y-4.8862
M15
G01X4.2598Y-4.9138
M16
G05
G00X4.6Y-4.7177
M15
G01X4.6Y-4.7531
M16
G05
G00X4.6Y-4.8862
M15
G01X4.6Y-4.9138
M16
G05
M30
