M48
; DRILL file {KiCad 8.0.7} date 2025-01-26T15:44:36-0500
; FORMAT={-:-/ absolute / inch / decimal}
; #@! TF.CreationDate,2025-01-26T15:44:36-05:00
; #@! TF.GenerationSoftware,Kicad,Pcbnew,8.0.7
; #@! TF.FileFunction,Plated,1,2,PTH
FMAT,2
INCH
; #@! TA.AperFunction,Plated,PTH,ComponentDrill
T1C0.0079
; #@! TA.AperFunction,Plated,PTH,ViaDrill
T2C0.0118
; #@! TA.AperFunction,Plated,PTH,ComponentDrill
T3C0.0130
; #@! TA.AperFunction,Plated,PTH,ComponentDrill
T4C0.0276
; #@! TA.AperFunction,Plated,PTH,ComponentDrill
T5C0.0394
; #@! TA.AperFunction,Plated,PTH,ComponentDrill
T6C0.0433
; #@! TA.AperFunction,Plated,PTH,ComponentDrill
T7C0.0472
; #@! TA.AperFunction,Plated,PTH,ComponentDrill
T8C0.1693
%
G90
G05
T1
X4.9528Y-2.437
X4.9528Y-2.4843
X4.9705Y-2.4606
X4.9882Y-2.437
X4.9882Y-2.4843
T2
X3.851Y-3.0833
X3.8567Y-2.9295
X3.8737Y-3.6153
X3.8791Y-3.8289
X3.8976Y-3.7753
X3.9137Y-3.8638
X3.9157Y-3.8955
X3.9272Y-3.5662
X3.9785Y-3.0321
X4.0046Y-4.5628
X4.0327Y-3.9025
X4.0455Y-4.2047
X4.0722Y-3.3527
X4.0971Y-3.8012
X4.0982Y-3.1512
X4.1028Y-3.4499
X4.1126Y-4.0579
X4.1208Y-3.8342
X4.1334Y-3.2201
X4.1409Y-3.7974
X4.1415Y-4.1774
X4.2405Y-3.8391
X4.2872Y-2.9036
X4.2982Y-3.975
X4.3027Y-2.6804
X4.3032Y-3.8686
X4.3307Y-2.5423
X4.3329Y-3.0512
X4.3578Y-2.8534
X4.3657Y-3.8765
X4.3957Y-3.2237
X4.3957Y-3.689
X4.4993Y-2.0469
X4.4993Y-3.6482
X4.5231Y-3.5468
X4.5286Y-2.0758
X4.5395Y-2.4914
X4.5528Y-3.7464
X4.5644Y-2.4692
X4.5705Y-2.9012
X4.5707Y-2.2797
X4.5763Y-2.8012
X4.5802Y-2.7012
X4.8335Y-2.6664
X4.8429Y-3.3348
X4.8878Y-2.5423
X4.9411Y-2.3737
X4.9412Y-3.1306
X5.046Y-3.1927
X5.1001Y-2.402
X5.136Y-3.1647
X5.1361Y-2.4957
X5.17Y-3.2627
X5.1985Y-2.8602
X5.2098Y-3.165
X5.2303Y-2.5332
X5.252Y-2.986
X5.2819Y-3.1088
X5.6024Y-2.45
X5.6178Y-2.5162
X5.6178Y-2.9462
X5.6781Y-2.5504
X5.6845Y-3.45
X5.6845Y-3.55
X5.6954Y-2.4404
X5.7174Y-2.3919
X5.8041Y-3.291
X5.8238Y-2.2907
X5.8435Y-2.2655
X5.8612Y-3.3722
X5.8755Y-2.6524
X5.9014Y-2.3897
X5.9031Y-2.7129
X5.9101Y-2.6514
X5.9199Y-2.4912
X5.9221Y-2.3594
X5.9443Y-2.4442
X5.9448Y-2.3261
X5.9737Y-2.5362
X5.9752Y-2.1646
X6.0144Y-2.5458
X6.0469Y-2.8217
X6.0479Y-2.3503
X6.0566Y-2.6795
X6.0689Y-4.763
X6.1128Y-2.6237
X6.237Y-2.4
X6.237Y-2.65
X6.2536Y-3.4294
X6.2609Y-2.4524
X6.2712Y-2.832
X6.2728Y-2.3503
X6.2773Y-3.4
X6.3049Y-2.3519
T3
X4.1299Y-2.9606
X4.1299Y-3.0118
X4.1299Y-3.063
X4.1811Y-2.9606
X4.1811Y-3.0118
X4.1811Y-3.063
T5
X3.781Y-2.6
X3.781Y-2.7
X3.781Y-2.8
X3.781Y-2.9
X3.781Y-3.1
X3.781Y-3.2
X3.781Y-3.3
X3.781Y-3.4
X3.781Y-3.6
X3.781Y-3.7
X3.781Y-3.8
X3.781Y-3.9
X3.781Y-4.1
X3.781Y-4.2
X3.781Y-4.3
X3.781Y-4.4
X4.05Y-4.3
X4.05Y-4.5
X4.15Y-4.3
X4.15Y-4.5
X4.25Y-4.3
X4.25Y-4.5
X4.35Y-4.3
X4.3858Y-2.3976
X4.4314Y-4.5
X4.45Y-2.7
X4.45Y-2.8
X4.45Y-2.9
X4.45Y-3.0
X4.45Y-3.1
X4.45Y-3.2
X4.45Y-3.3
X4.45Y-3.4
X4.45Y-3.5
X4.45Y-3.6
X4.45Y-3.7
X4.45Y-3.8
X4.45Y-3.9
X4.45Y-4.0
X4.45Y-4.1
X4.5314Y-4.5
X4.5827Y-2.3976
X4.6314Y-4.5
X4.7314Y-4.5
X4.75Y-2.7012
X4.75Y-2.8012
X4.75Y-2.9012
X4.75Y-3.0012
X4.75Y-3.1012
X4.75Y-3.2012
X4.75Y-3.3012
X4.75Y-3.4012
X4.75Y-3.5012
X4.75Y-3.6012
X4.75Y-3.7012
X4.75Y-3.8012
X4.75Y-3.9012
X4.75Y-4.0012
X4.75Y-4.1012
X4.95Y-4.55
X5.0484Y-4.55
X5.081Y-4.9
X5.181Y-4.9
X5.25Y-2.0
X5.25Y-2.199
X5.35Y-2.0
X5.35Y-2.199
X5.45Y-2.0
X5.45Y-2.199
X5.45Y-2.7
X5.45Y-2.8
X5.45Y-2.9
X5.45Y-3.0
X5.45Y-3.1
X5.45Y-3.2
X5.45Y-3.3
X5.45Y-3.4
X5.45Y-3.5
X5.45Y-3.6
X5.45Y-3.7
X5.45Y-3.8
X5.45Y-3.9
X5.45Y-4.0
X5.45Y-4.1
X5.55Y-2.0
X5.55Y-2.199
X5.75Y-2.7
X5.75Y-2.8
X5.75Y-2.9
X5.75Y-3.0
X5.75Y-3.1
X5.75Y-3.2
X5.75Y-3.3
X5.75Y-3.4
X5.75Y-3.5
X5.75Y-3.6
X5.75Y-3.7
X5.75Y-3.8
X5.75Y-3.9
X5.75Y-4.0
X5.75Y-4.1
X6.18Y-2.4
X6.18Y-2.5
X6.18Y-2.6
X6.18Y-2.7
X6.18Y-3.4
X6.18Y-3.5
X6.18Y-3.6
X6.18Y-3.7
X6.18Y-3.9
X6.18Y-4.0
X6.18Y-4.1
X6.18Y-4.2
X6.181Y-2.9
X6.181Y-3.0
X6.181Y-3.1
X6.181Y-3.2
X6.38Y-2.4
X6.38Y-2.5
X6.38Y-2.6
X6.38Y-2.7
X6.38Y-2.9
X6.38Y-3.0
X6.38Y-3.1
X6.38Y-3.2
X6.38Y-3.4
X6.38Y-3.5
X6.38Y-3.6
X6.38Y-3.7
X6.38Y-3.9
X6.38Y-4.0
X6.38Y-4.1
X6.38Y-4.2
T6
X4.798Y-1.9814
X4.798Y-2.1586
X5.0539Y-1.9814
X5.0539Y-2.1586
X5.253Y-4.4414
X5.253Y-4.6186
X5.5089Y-4.4414
X5.5089Y-4.6186
X5.7589Y-4.4414
X5.7589Y-4.6186
X6.0148Y-4.4414
X6.0148Y-4.6186
T7
X5.6131Y-4.7861
X5.6131Y-4.92
X5.7116Y-4.7861
X5.7116Y-4.92
X5.81Y-4.7861
X5.81Y-4.92
T8
X3.95Y-2.1
X3.95Y-4.8
X6.25Y-2.1
X6.25Y-4.8
T4
G00X4.2598Y-4.7177
M15
G01X4.2598Y-4.7531
M16
G05
G00X4.2598Y-4.8862
M15
G01X4.2598Y-4.9138
M16
G05
G00X4.6Y-4.7177
M15
G01X4.6Y-4.7531
M16
G05
G00X4.6Y-4.8862
M15
G01X4.6Y-4.9138
M16
G05
M30
