%TF.GenerationSoftware,KiCad,Pcbnew,8.0.7*%
%TF.CreationDate,2025-01-26T03:13:27-05:00*%
%TF.ProjectId,shadow,73686164-6f77-42e6-9b69-6361645f7063,rev?*%
%TF.SameCoordinates,Original*%
%TF.FileFunction,Soldermask,Top*%
%TF.FilePolarity,Negative*%
%FSLAX46Y46*%
G04 Gerber Fmt 4.6, Leading zero omitted, Abs format (unit mm)*
G04 Created by KiCad (PCBNEW 8.0.7) date 2025-01-26 03:13:27*
%MOMM*%
%LPD*%
G01*
G04 APERTURE LIST*
G04 Aperture macros list*
%AMRoundRect*
0 Rectangle with rounded corners*
0 $1 Rounding radius*
0 $2 $3 $4 $5 $6 $7 $8 $9 X,Y pos of 4 corners*
0 Add a 4 corners polygon primitive as box body*
4,1,4,$2,$3,$4,$5,$6,$7,$8,$9,$2,$3,0*
0 Add four circle primitives for the rounded corners*
1,1,$1+$1,$2,$3*
1,1,$1+$1,$4,$5*
1,1,$1+$1,$6,$7*
1,1,$1+$1,$8,$9*
0 Add four rect primitives between the rounded corners*
20,1,$1+$1,$2,$3,$4,$5,0*
20,1,$1+$1,$4,$5,$6,$7,0*
20,1,$1+$1,$6,$7,$8,$9,0*
20,1,$1+$1,$8,$9,$2,$3,0*%
G04 Aperture macros list end*
%ADD10C,0.010000*%
%ADD11C,1.800000*%
%ADD12R,0.300000X1.500000*%
%ADD13O,1.100000X1.800000*%
%ADD14O,1.100000X2.000000*%
%ADD15RoundRect,0.250000X-0.375000X-0.625000X0.375000X-0.625000X0.375000X0.625000X-0.375000X0.625000X0*%
%ADD16R,1.700000X1.700000*%
%ADD17O,1.700000X1.700000*%
%ADD18RoundRect,0.250000X0.600000X0.750000X-0.600000X0.750000X-0.600000X-0.750000X0.600000X-0.750000X0*%
%ADD19O,1.700000X2.000000*%
%ADD20R,2.200000X1.500000*%
%ADD21O,0.574000X2.038000*%
%ADD22R,2.000000X2.000000*%
%ADD23C,2.000000*%
%ADD24RoundRect,0.100000X-0.637500X-0.100000X0.637500X-0.100000X0.637500X0.100000X-0.637500X0.100000X0*%
%ADD25C,7.500000*%
%ADD26RoundRect,0.102000X-0.785000X-0.940000X0.785000X-0.940000X0.785000X0.940000X-0.785000X0.940000X0*%
%ADD27RoundRect,0.085500X-0.751500X-0.256500X0.751500X-0.256500X0.751500X0.256500X-0.751500X0.256500X0*%
G04 APERTURE END LIST*
D10*
%TO.C,U3*%
X124030000Y-61846000D02*
X122330000Y-61846000D01*
X122330000Y-61446000D01*
X124030000Y-61446000D01*
X124030000Y-61846000D01*
G36*
X124030000Y-61846000D02*
G01*
X122330000Y-61846000D01*
X122330000Y-61446000D01*
X124030000Y-61446000D01*
X124030000Y-61846000D01*
G37*
X124030000Y-62346000D02*
X122330000Y-62346000D01*
X122330000Y-61946000D01*
X124030000Y-61946000D01*
X124030000Y-62346000D01*
G36*
X124030000Y-62346000D02*
G01*
X122330000Y-62346000D01*
X122330000Y-61946000D01*
X124030000Y-61946000D01*
X124030000Y-62346000D01*
G37*
X124030000Y-62846000D02*
X122330000Y-62846000D01*
X122330000Y-62446000D01*
X124030000Y-62446000D01*
X124030000Y-62846000D01*
G36*
X124030000Y-62846000D02*
G01*
X122330000Y-62846000D01*
X122330000Y-62446000D01*
X124030000Y-62446000D01*
X124030000Y-62846000D01*
G37*
X124030000Y-63346000D02*
X122330000Y-63346000D01*
X122330000Y-62946000D01*
X124030000Y-62946000D01*
X124030000Y-63346000D01*
G36*
X124030000Y-63346000D02*
G01*
X122330000Y-63346000D01*
X122330000Y-62946000D01*
X124030000Y-62946000D01*
X124030000Y-63346000D01*
G37*
X124030000Y-63846000D02*
X122330000Y-63846000D01*
X122330000Y-63446000D01*
X124030000Y-63446000D01*
X124030000Y-63846000D01*
G36*
X124030000Y-63846000D02*
G01*
X122330000Y-63846000D01*
X122330000Y-63446000D01*
X124030000Y-63446000D01*
X124030000Y-63846000D01*
G37*
X128230000Y-61846000D02*
X126530000Y-61846000D01*
X126530000Y-61446000D01*
X128230000Y-61446000D01*
X128230000Y-61846000D01*
G36*
X128230000Y-61846000D02*
G01*
X126530000Y-61846000D01*
X126530000Y-61446000D01*
X128230000Y-61446000D01*
X128230000Y-61846000D01*
G37*
X128230000Y-62346000D02*
X126530000Y-62346000D01*
X126530000Y-61946000D01*
X128230000Y-61946000D01*
X128230000Y-62346000D01*
G36*
X128230000Y-62346000D02*
G01*
X126530000Y-62346000D01*
X126530000Y-61946000D01*
X128230000Y-61946000D01*
X128230000Y-62346000D01*
G37*
X128230000Y-62846000D02*
X126530000Y-62846000D01*
X126530000Y-62446000D01*
X128230000Y-62446000D01*
X128230000Y-62846000D01*
G36*
X128230000Y-62846000D02*
G01*
X126530000Y-62846000D01*
X126530000Y-62446000D01*
X128230000Y-62446000D01*
X128230000Y-62846000D01*
G37*
X128230000Y-63346000D02*
X126530000Y-63346000D01*
X126530000Y-62946000D01*
X128230000Y-62946000D01*
X128230000Y-63346000D01*
G36*
X128230000Y-63346000D02*
G01*
X126530000Y-63346000D01*
X126530000Y-62946000D01*
X128230000Y-62946000D01*
X128230000Y-63346000D01*
G37*
X128230000Y-63846000D02*
X126530000Y-63846000D01*
X126530000Y-63446000D01*
X128230000Y-63446000D01*
X128230000Y-63846000D01*
G36*
X128230000Y-63846000D02*
G01*
X126530000Y-63846000D01*
X126530000Y-63446000D01*
X128230000Y-63446000D01*
X128230000Y-63846000D01*
G37*
%TO.C,U5*%
X103563000Y-69251000D02*
X101223000Y-69251000D01*
X101223000Y-68611000D01*
X103563000Y-68611000D01*
X103563000Y-69251000D01*
G36*
X103563000Y-69251000D02*
G01*
X101223000Y-69251000D01*
X101223000Y-68611000D01*
X103563000Y-68611000D01*
X103563000Y-69251000D01*
G37*
X103563000Y-70521000D02*
X101223000Y-70521000D01*
X101223000Y-69881000D01*
X103563000Y-69881000D01*
X103563000Y-70521000D01*
G36*
X103563000Y-70521000D02*
G01*
X101223000Y-70521000D01*
X101223000Y-69881000D01*
X103563000Y-69881000D01*
X103563000Y-70521000D01*
G37*
X103563000Y-71791000D02*
X101223000Y-71791000D01*
X101223000Y-71151000D01*
X103563000Y-71151000D01*
X103563000Y-71791000D01*
G36*
X103563000Y-71791000D02*
G01*
X101223000Y-71791000D01*
X101223000Y-71151000D01*
X103563000Y-71151000D01*
X103563000Y-71791000D01*
G37*
X103563000Y-73061000D02*
X101223000Y-73061000D01*
X101223000Y-72421000D01*
X103563000Y-72421000D01*
X103563000Y-73061000D01*
G36*
X103563000Y-73061000D02*
G01*
X101223000Y-73061000D01*
X101223000Y-72421000D01*
X103563000Y-72421000D01*
X103563000Y-73061000D01*
G37*
X106468000Y-72386000D02*
X104068000Y-72386000D01*
X104068000Y-69286000D01*
X106468000Y-69286000D01*
X106468000Y-72386000D01*
G36*
X106468000Y-72386000D02*
G01*
X104068000Y-72386000D01*
X104068000Y-69286000D01*
X106468000Y-69286000D01*
X106468000Y-72386000D01*
G37*
X109313000Y-69251000D02*
X106973000Y-69251000D01*
X106973000Y-68611000D01*
X109313000Y-68611000D01*
X109313000Y-69251000D01*
G36*
X109313000Y-69251000D02*
G01*
X106973000Y-69251000D01*
X106973000Y-68611000D01*
X109313000Y-68611000D01*
X109313000Y-69251000D01*
G37*
X109313000Y-70521000D02*
X106973000Y-70521000D01*
X106973000Y-69881000D01*
X109313000Y-69881000D01*
X109313000Y-70521000D01*
G36*
X109313000Y-70521000D02*
G01*
X106973000Y-70521000D01*
X106973000Y-69881000D01*
X109313000Y-69881000D01*
X109313000Y-70521000D01*
G37*
X109313000Y-71791000D02*
X106973000Y-71791000D01*
X106973000Y-71151000D01*
X109313000Y-71151000D01*
X109313000Y-71791000D01*
G36*
X109313000Y-71791000D02*
G01*
X106973000Y-71791000D01*
X106973000Y-71151000D01*
X109313000Y-71151000D01*
X109313000Y-71791000D01*
G37*
X109313000Y-73061000D02*
X106973000Y-73061000D01*
X106973000Y-72421000D01*
X109313000Y-72421000D01*
X109313000Y-73061000D01*
G36*
X109313000Y-73061000D02*
G01*
X106973000Y-73061000D01*
X106973000Y-72421000D01*
X109313000Y-72421000D01*
X109313000Y-73061000D01*
G37*
%TD*%
D11*
%TO.C,SW3*%
X147574000Y-124968000D03*
X145074000Y-124968000D03*
X142574000Y-124968000D03*
X147574000Y-121568000D03*
X145074000Y-121568000D03*
X142574000Y-121568000D03*
%TD*%
D12*
%TO.C,J1*%
X109420000Y-119313000D03*
X110220000Y-119313000D03*
X110770000Y-119312000D03*
X111770000Y-119313000D03*
X113270000Y-119313000D03*
X114270000Y-119313000D03*
X114820000Y-119312500D03*
X115620000Y-119313000D03*
X115920000Y-119313000D03*
X115120000Y-119312500D03*
X113769500Y-119312000D03*
X112770000Y-119313000D03*
X112270000Y-119313000D03*
X111270000Y-119313000D03*
X109920000Y-119313000D03*
X109120000Y-119313000D03*
D13*
X108200000Y-124460000D03*
X116840000Y-124460000D03*
D14*
X116840000Y-120280000D03*
X108200000Y-120280000D03*
%TD*%
D15*
%TO.C,PG1*%
X111677000Y-50800000D03*
X108877000Y-50800000D03*
%TD*%
D16*
%TO.C,I2C_PINOUT7*%
X162052000Y-99060000D03*
D17*
X162052000Y-101600000D03*
X162052000Y-104140000D03*
X162052000Y-106680000D03*
%TD*%
D16*
%TO.C,I2C_PINOUT9*%
X96037000Y-86360000D03*
D17*
X96037000Y-83820000D03*
X96037000Y-81280000D03*
X96037000Y-78740000D03*
%TD*%
D18*
%TO.C,BATT_JST1*%
X128230000Y-115570000D03*
D19*
X125730000Y-115570000D03*
%TD*%
D16*
%TO.C,I2C_PINOUT10*%
X96037000Y-99060000D03*
D17*
X96037000Y-96520000D03*
X96037000Y-93980000D03*
X96037000Y-91440000D03*
%TD*%
D16*
%TO.C,I2C_PINOUT8*%
X96037000Y-73660000D03*
D17*
X96037000Y-71120000D03*
X96037000Y-68580000D03*
X96037000Y-66040000D03*
%TD*%
D16*
%TO.C,I2C_PINOUT0*%
X156972000Y-60960000D03*
D17*
X156972000Y-63500000D03*
X156972000Y-66040000D03*
X156972000Y-68580000D03*
%TD*%
D16*
%TO.C,I2C_PINOUT12*%
X110490000Y-109220000D03*
D17*
X107950000Y-109220000D03*
X105410000Y-109220000D03*
X102870000Y-109220000D03*
%TD*%
D20*
%TO.C,L1*%
X106019600Y-88010600D03*
X106019600Y-81610600D03*
%TD*%
D16*
%TO.C,UART1*%
X107950000Y-114300000D03*
D17*
X105410000Y-114300000D03*
X102870000Y-114300000D03*
%TD*%
D16*
%TO.C,I2C_PINOUT2*%
X156972000Y-86360000D03*
D17*
X156972000Y-88900000D03*
X156972000Y-91440000D03*
X156972000Y-93980000D03*
%TD*%
D21*
%TO.C,IC2*%
X127000000Y-76200000D03*
X128270000Y-76200000D03*
X129540000Y-76200000D03*
X130810000Y-76200000D03*
X130810000Y-70662000D03*
X129540000Y-70662000D03*
X128270000Y-70662000D03*
X127000000Y-70662000D03*
D22*
X128905000Y-73431000D03*
%TD*%
D23*
%TO.C,SW2*%
X146277000Y-112812000D03*
X152777000Y-112812000D03*
X146277000Y-117312000D03*
X152777000Y-117312000D03*
%TD*%
D24*
%TO.C,U2*%
X146514500Y-56410000D03*
X146514500Y-57060000D03*
X146514500Y-57710000D03*
X146514500Y-58360000D03*
X146514500Y-59010000D03*
X146514500Y-59660000D03*
X146514500Y-60310000D03*
X146514500Y-60960000D03*
X146514500Y-61610000D03*
X146514500Y-62260000D03*
X146514500Y-62910000D03*
X146514500Y-63560000D03*
X152239500Y-63560000D03*
X152239500Y-62910000D03*
X152239500Y-62260000D03*
X152239500Y-61610000D03*
X152239500Y-60960000D03*
X152239500Y-60310000D03*
X152239500Y-59660000D03*
X152239500Y-59010000D03*
X152239500Y-58360000D03*
X152239500Y-57710000D03*
X152239500Y-57060000D03*
X152239500Y-56410000D03*
%TD*%
D16*
%TO.C,PICO_R1*%
X138430000Y-68580000D03*
D17*
X138430000Y-71120000D03*
X138430000Y-73660000D03*
X138430000Y-76200000D03*
X138430000Y-78740000D03*
X138430000Y-81280000D03*
X138430000Y-83820000D03*
X138430000Y-86360000D03*
X138430000Y-88900000D03*
X138430000Y-91440000D03*
X138430000Y-93980000D03*
X138430000Y-96520000D03*
X138430000Y-99060000D03*
X138430000Y-101600000D03*
X138430000Y-104140000D03*
%TD*%
D23*
%TO.C,RST_SW1*%
X121870000Y-50328000D03*
X128370000Y-50328000D03*
X121870000Y-54828000D03*
X128370000Y-54828000D03*
%TD*%
D25*
%TO.C,H4*%
X100330000Y-121920000D03*
%TD*%
D16*
%TO.C,OLED_CONN1*%
X112557000Y-114300000D03*
D17*
X115097000Y-114300000D03*
X117637000Y-114300000D03*
X120177000Y-114300000D03*
%TD*%
D25*
%TO.C,H5*%
X158750000Y-121920000D03*
%TD*%
D24*
%TO.C,U1*%
X102242700Y-94316600D03*
X102242700Y-94966600D03*
X102242700Y-95616600D03*
X102242700Y-96266600D03*
X102242700Y-96916600D03*
X102242700Y-97566600D03*
X102242700Y-98216600D03*
X102242700Y-98866600D03*
X102242700Y-99516600D03*
X102242700Y-100166600D03*
X102242700Y-100816600D03*
X102242700Y-101466600D03*
X107967700Y-101466600D03*
X107967700Y-100816600D03*
X107967700Y-100166600D03*
X107967700Y-99516600D03*
X107967700Y-98866600D03*
X107967700Y-98216600D03*
X107967700Y-97566600D03*
X107967700Y-96916600D03*
X107967700Y-96266600D03*
X107967700Y-95616600D03*
X107967700Y-94966600D03*
X107967700Y-94316600D03*
%TD*%
D16*
%TO.C,I2C_PINOUT5*%
X162052000Y-73660000D03*
D17*
X162052000Y-76200000D03*
X162052000Y-78740000D03*
X162052000Y-81280000D03*
%TD*%
D16*
%TO.C,I2C_PINOUT6*%
X162052000Y-86360000D03*
D17*
X162052000Y-88900000D03*
X162052000Y-91440000D03*
X162052000Y-93980000D03*
%TD*%
D26*
%TO.C,U3*%
X125280000Y-62646000D03*
%TD*%
D16*
%TO.C,MOTOR_CONN1*%
X129057000Y-124460000D03*
D17*
X131597000Y-124460000D03*
%TD*%
D23*
%TO.C,SW1*%
X133427000Y-112812000D03*
X139927000Y-112812000D03*
X133427000Y-117312000D03*
X139927000Y-117312000D03*
%TD*%
D25*
%TO.C,H1*%
X100330000Y-53340000D03*
%TD*%
D16*
%TO.C,US1*%
X133350000Y-55855000D03*
D17*
X135890000Y-55855000D03*
X138430000Y-55855000D03*
X140970000Y-55855000D03*
%TD*%
D16*
%TO.C,GPIO_L1*%
X113030000Y-68580000D03*
D17*
X113030000Y-71120000D03*
X113030000Y-73660000D03*
X113030000Y-76200000D03*
X113030000Y-78740000D03*
X113030000Y-81280000D03*
X113030000Y-83820000D03*
X113030000Y-86360000D03*
X113030000Y-88900000D03*
X113030000Y-91440000D03*
X113030000Y-93980000D03*
X113030000Y-96520000D03*
X113030000Y-99060000D03*
X113030000Y-101600000D03*
X113030000Y-104140000D03*
%TD*%
D16*
%TO.C,I2C_PINOUT4*%
X162052000Y-60960000D03*
D17*
X162052000Y-63500000D03*
X162052000Y-66040000D03*
X162052000Y-68580000D03*
%TD*%
D25*
%TO.C,H3*%
X129540000Y-86360000D03*
%TD*%
D15*
%TO.C,12V1*%
X115217000Y-53848000D03*
X112417000Y-53848000D03*
%TD*%
D16*
%TO.C,I2C_PINOUT1*%
X156997000Y-73660000D03*
D17*
X156997000Y-76200000D03*
X156997000Y-78740000D03*
X156997000Y-81280000D03*
%TD*%
D16*
%TO.C,PICO_L1*%
X120650000Y-68610000D03*
D17*
X120650000Y-71150000D03*
X120650000Y-73690000D03*
X120650000Y-76230000D03*
X120650000Y-78770000D03*
X120650000Y-81310000D03*
X120650000Y-83850000D03*
X120650000Y-86390000D03*
X120650000Y-88930000D03*
X120650000Y-91470000D03*
X120650000Y-94010000D03*
X120650000Y-96550000D03*
X120650000Y-99090000D03*
X120650000Y-101630000D03*
X120650000Y-104170000D03*
%TD*%
D25*
%TO.C,H2*%
X158750000Y-53340000D03*
%TD*%
D16*
%TO.C,I2C_PINOUT11*%
X96037000Y-111760000D03*
D17*
X96037000Y-109220000D03*
X96037000Y-106680000D03*
X96037000Y-104140000D03*
%TD*%
D27*
%TO.C,U4*%
X130082000Y-62525000D03*
X130082000Y-63175000D03*
X130082000Y-63825000D03*
X130082000Y-64475000D03*
X134382000Y-64475000D03*
X134382000Y-63825000D03*
X134382000Y-63175000D03*
X134382000Y-62525000D03*
%TD*%
D16*
%TO.C,GPIO_R1*%
X146050000Y-68580000D03*
D17*
X146050000Y-71120000D03*
X146050000Y-73660000D03*
X146050000Y-76200000D03*
X146050000Y-78740000D03*
X146050000Y-81280000D03*
X146050000Y-83820000D03*
X146050000Y-86360000D03*
X146050000Y-88900000D03*
X146050000Y-91440000D03*
X146050000Y-93980000D03*
X146050000Y-96520000D03*
X146050000Y-99060000D03*
X146050000Y-101600000D03*
X146050000Y-104140000D03*
%TD*%
D15*
%TO.C,CHG1*%
X118897000Y-50800000D03*
X116097000Y-50800000D03*
%TD*%
D16*
%TO.C,I2C_PINOUT3*%
X156972000Y-99060000D03*
D17*
X156972000Y-101600000D03*
X156972000Y-104140000D03*
X156972000Y-106680000D03*
%TD*%
D16*
%TO.C,ARR1*%
X133350000Y-50800000D03*
D17*
X135890000Y-50800000D03*
X138430000Y-50800000D03*
X140970000Y-50800000D03*
%TD*%
D22*
%TO.C,C13*%
X106683800Y-60985400D03*
D23*
X111683800Y-60985400D03*
%TD*%
M02*
