%TF.GenerationSoftware,KiCad,Pcbnew,8.0.7*%
%TF.CreationDate,2025-01-25T18:45:03-05:00*%
%TF.ProjectId,shadow,73686164-6f77-42e6-9b69-6361645f7063,rev?*%
%TF.SameCoordinates,Original*%
%TF.FileFunction,Legend,Bot*%
%TF.FilePolarity,Positive*%
%FSLAX46Y46*%
G04 Gerber Fmt 4.6, Leading zero omitted, Abs format (unit mm)*
G04 Created by KiCad (PCBNEW 8.0.7) date 2025-01-25 18:45:03*
%MOMM*%
%LPD*%
G01*
G04 APERTURE LIST*
G04 Aperture macros list*
%AMRoundRect*
0 Rectangle with rounded corners*
0 $1 Rounding radius*
0 $2 $3 $4 $5 $6 $7 $8 $9 X,Y pos of 4 corners*
0 Add a 4 corners polygon primitive as box body*
4,1,4,$2,$3,$4,$5,$6,$7,$8,$9,$2,$3,0*
0 Add four circle primitives for the rounded corners*
1,1,$1+$1,$2,$3*
1,1,$1+$1,$4,$5*
1,1,$1+$1,$6,$7*
1,1,$1+$1,$8,$9*
0 Add four rect primitives between the rounded corners*
20,1,$1+$1,$2,$3,$4,$5,0*
20,1,$1+$1,$4,$5,$6,$7,0*
20,1,$1+$1,$6,$7,$8,$9,0*
20,1,$1+$1,$8,$9,$2,$3,0*%
G04 Aperture macros list end*
%ADD10C,0.100000*%
%ADD11C,0.200000*%
%ADD12C,0.150000*%
%ADD13C,0.120000*%
%ADD14R,1.700000X1.700000*%
%ADD15O,1.700000X1.700000*%
%ADD16RoundRect,0.250000X0.600000X0.750000X-0.600000X0.750000X-0.600000X-0.750000X0.600000X-0.750000X0*%
%ADD17O,1.700000X2.000000*%
%ADD18C,2.000000*%
%ADD19C,7.500000*%
%ADD20R,1.600000X1.600000*%
%ADD21O,1.600000X1.600000*%
%ADD22C,0.700000*%
%ADD23O,0.900000X2.400000*%
%ADD24O,0.900000X1.700000*%
%ADD25RoundRect,0.100000X-0.130000X-0.100000X0.130000X-0.100000X0.130000X0.100000X-0.130000X0.100000X0*%
%ADD26RoundRect,0.250000X-0.375000X-0.625000X0.375000X-0.625000X0.375000X0.625000X-0.375000X0.625000X0*%
%ADD27RoundRect,0.250000X0.325000X0.650000X-0.325000X0.650000X-0.325000X-0.650000X0.325000X-0.650000X0*%
%ADD28R,1.000000X1.500000*%
%ADD29RoundRect,0.100000X0.130000X0.100000X-0.130000X0.100000X-0.130000X-0.100000X0.130000X-0.100000X0*%
%ADD30RoundRect,0.100000X-0.100000X0.130000X-0.100000X-0.130000X0.100000X-0.130000X0.100000X0.130000X0*%
%ADD31RoundRect,0.250000X0.312500X0.625000X-0.312500X0.625000X-0.312500X-0.625000X0.312500X-0.625000X0*%
%ADD32RoundRect,0.250000X-0.312500X-0.625000X0.312500X-0.625000X0.312500X0.625000X-0.312500X0.625000X0*%
%ADD33RoundRect,0.250000X0.625000X-0.312500X0.625000X0.312500X-0.625000X0.312500X-0.625000X-0.312500X0*%
%ADD34RoundRect,0.250000X0.650000X-0.325000X0.650000X0.325000X-0.650000X0.325000X-0.650000X-0.325000X0*%
%ADD35RoundRect,0.250000X-0.650000X0.325000X-0.650000X-0.325000X0.650000X-0.325000X0.650000X0.325000X0*%
%ADD36RoundRect,0.100000X0.100000X-0.130000X0.100000X0.130000X-0.100000X0.130000X-0.100000X-0.130000X0*%
G04 APERTURE END LIST*
D10*
X136042000Y-76200000D02*
X140487000Y-76200000D01*
X140487000Y-80645000D01*
X136042000Y-80645000D01*
X136042000Y-76200000D01*
X104863500Y-58801000D02*
X109308500Y-58801000D01*
X109308500Y-63246000D01*
X104863500Y-63246000D01*
X104863500Y-58801000D01*
X147853000Y-56134000D02*
X156743000Y-56134000D01*
X156743000Y-66802000D01*
X147853000Y-66802000D01*
X147853000Y-56134000D01*
X104292000Y-95377000D02*
X113182000Y-95377000D01*
X113182000Y-106045000D01*
X104292000Y-106045000D01*
X104292000Y-95377000D01*
D11*
X156056945Y-59525504D02*
X155580755Y-59525504D01*
X156152183Y-59811219D02*
X155818850Y-58811219D01*
X155818850Y-58811219D02*
X155485517Y-59811219D01*
X155199802Y-58906457D02*
X155152183Y-58858838D01*
X155152183Y-58858838D02*
X155056945Y-58811219D01*
X155056945Y-58811219D02*
X154818850Y-58811219D01*
X154818850Y-58811219D02*
X154723612Y-58858838D01*
X154723612Y-58858838D02*
X154675993Y-58906457D01*
X154675993Y-58906457D02*
X154628374Y-59001695D01*
X154628374Y-59001695D02*
X154628374Y-59096933D01*
X154628374Y-59096933D02*
X154675993Y-59239790D01*
X154675993Y-59239790D02*
X155247421Y-59811219D01*
X155247421Y-59811219D02*
X154628374Y-59811219D01*
X107589517Y-62605219D02*
X108160945Y-62605219D01*
X107875231Y-62605219D02*
X107875231Y-61605219D01*
X107875231Y-61605219D02*
X107970469Y-61748076D01*
X107970469Y-61748076D02*
X108065707Y-61843314D01*
X108065707Y-61843314D02*
X108160945Y-61890933D01*
X107208564Y-61700457D02*
X107160945Y-61652838D01*
X107160945Y-61652838D02*
X107065707Y-61605219D01*
X107065707Y-61605219D02*
X106827612Y-61605219D01*
X106827612Y-61605219D02*
X106732374Y-61652838D01*
X106732374Y-61652838D02*
X106684755Y-61700457D01*
X106684755Y-61700457D02*
X106637136Y-61795695D01*
X106637136Y-61795695D02*
X106637136Y-61890933D01*
X106637136Y-61890933D02*
X106684755Y-62033790D01*
X106684755Y-62033790D02*
X107256183Y-62605219D01*
X107256183Y-62605219D02*
X106637136Y-62605219D01*
X106303802Y-61938552D02*
X106065707Y-62605219D01*
X106065707Y-62605219D02*
X105827612Y-61938552D01*
X156056945Y-62319504D02*
X155580755Y-62319504D01*
X156152183Y-62605219D02*
X155818850Y-61605219D01*
X155818850Y-61605219D02*
X155485517Y-62605219D01*
X154628374Y-62605219D02*
X155199802Y-62605219D01*
X154914088Y-62605219D02*
X154914088Y-61605219D01*
X154914088Y-61605219D02*
X155009326Y-61748076D01*
X155009326Y-61748076D02*
X155104564Y-61843314D01*
X155104564Y-61843314D02*
X155199802Y-61890933D01*
X106128945Y-99149504D02*
X105652755Y-99149504D01*
X106224183Y-99435219D02*
X105890850Y-98435219D01*
X105890850Y-98435219D02*
X105557517Y-99435219D01*
X105271802Y-98530457D02*
X105224183Y-98482838D01*
X105224183Y-98482838D02*
X105128945Y-98435219D01*
X105128945Y-98435219D02*
X104890850Y-98435219D01*
X104890850Y-98435219D02*
X104795612Y-98482838D01*
X104795612Y-98482838D02*
X104747993Y-98530457D01*
X104747993Y-98530457D02*
X104700374Y-98625695D01*
X104700374Y-98625695D02*
X104700374Y-98720933D01*
X104700374Y-98720933D02*
X104747993Y-98863790D01*
X104747993Y-98863790D02*
X105319421Y-99435219D01*
X105319421Y-99435219D02*
X104700374Y-99435219D01*
X156056945Y-65113504D02*
X155580755Y-65113504D01*
X156152183Y-65399219D02*
X155818850Y-64399219D01*
X155818850Y-64399219D02*
X155485517Y-65399219D01*
X154961707Y-64399219D02*
X154866469Y-64399219D01*
X154866469Y-64399219D02*
X154771231Y-64446838D01*
X154771231Y-64446838D02*
X154723612Y-64494457D01*
X154723612Y-64494457D02*
X154675993Y-64589695D01*
X154675993Y-64589695D02*
X154628374Y-64780171D01*
X154628374Y-64780171D02*
X154628374Y-65018266D01*
X154628374Y-65018266D02*
X154675993Y-65208742D01*
X154675993Y-65208742D02*
X154723612Y-65303980D01*
X154723612Y-65303980D02*
X154771231Y-65351600D01*
X154771231Y-65351600D02*
X154866469Y-65399219D01*
X154866469Y-65399219D02*
X154961707Y-65399219D01*
X154961707Y-65399219D02*
X155056945Y-65351600D01*
X155056945Y-65351600D02*
X155104564Y-65303980D01*
X155104564Y-65303980D02*
X155152183Y-65208742D01*
X155152183Y-65208742D02*
X155199802Y-65018266D01*
X155199802Y-65018266D02*
X155199802Y-64780171D01*
X155199802Y-64780171D02*
X155152183Y-64589695D01*
X155152183Y-64589695D02*
X155104564Y-64494457D01*
X155104564Y-64494457D02*
X155056945Y-64446838D01*
X155056945Y-64446838D02*
X154961707Y-64399219D01*
X138768017Y-80004219D02*
X139339445Y-80004219D01*
X139053731Y-80004219D02*
X139053731Y-79004219D01*
X139053731Y-79004219D02*
X139148969Y-79147076D01*
X139148969Y-79147076D02*
X139244207Y-79242314D01*
X139244207Y-79242314D02*
X139339445Y-79289933D01*
X138387064Y-79099457D02*
X138339445Y-79051838D01*
X138339445Y-79051838D02*
X138244207Y-79004219D01*
X138244207Y-79004219D02*
X138006112Y-79004219D01*
X138006112Y-79004219D02*
X137910874Y-79051838D01*
X137910874Y-79051838D02*
X137863255Y-79099457D01*
X137863255Y-79099457D02*
X137815636Y-79194695D01*
X137815636Y-79194695D02*
X137815636Y-79289933D01*
X137815636Y-79289933D02*
X137863255Y-79432790D01*
X137863255Y-79432790D02*
X138434683Y-80004219D01*
X138434683Y-80004219D02*
X137815636Y-80004219D01*
X137482302Y-79337552D02*
X137244207Y-80004219D01*
X137244207Y-80004219D02*
X137006112Y-79337552D01*
X106128945Y-104737504D02*
X105652755Y-104737504D01*
X106224183Y-105023219D02*
X105890850Y-104023219D01*
X105890850Y-104023219D02*
X105557517Y-105023219D01*
X105033707Y-104023219D02*
X104938469Y-104023219D01*
X104938469Y-104023219D02*
X104843231Y-104070838D01*
X104843231Y-104070838D02*
X104795612Y-104118457D01*
X104795612Y-104118457D02*
X104747993Y-104213695D01*
X104747993Y-104213695D02*
X104700374Y-104404171D01*
X104700374Y-104404171D02*
X104700374Y-104642266D01*
X104700374Y-104642266D02*
X104747993Y-104832742D01*
X104747993Y-104832742D02*
X104795612Y-104927980D01*
X104795612Y-104927980D02*
X104843231Y-104975600D01*
X104843231Y-104975600D02*
X104938469Y-105023219D01*
X104938469Y-105023219D02*
X105033707Y-105023219D01*
X105033707Y-105023219D02*
X105128945Y-104975600D01*
X105128945Y-104975600D02*
X105176564Y-104927980D01*
X105176564Y-104927980D02*
X105224183Y-104832742D01*
X105224183Y-104832742D02*
X105271802Y-104642266D01*
X105271802Y-104642266D02*
X105271802Y-104404171D01*
X105271802Y-104404171D02*
X105224183Y-104213695D01*
X105224183Y-104213695D02*
X105176564Y-104118457D01*
X105176564Y-104118457D02*
X105128945Y-104070838D01*
X105128945Y-104070838D02*
X105033707Y-104023219D01*
X110673475Y-96972219D02*
X110673475Y-95972219D01*
X110673475Y-95972219D02*
X110340142Y-96686504D01*
X110340142Y-96686504D02*
X110006809Y-95972219D01*
X110006809Y-95972219D02*
X110006809Y-96972219D01*
X109530618Y-96972219D02*
X109530618Y-95972219D01*
X109530618Y-95972219D02*
X109149666Y-95972219D01*
X109149666Y-95972219D02*
X109054428Y-96019838D01*
X109054428Y-96019838D02*
X109006809Y-96067457D01*
X109006809Y-96067457D02*
X108959190Y-96162695D01*
X108959190Y-96162695D02*
X108959190Y-96305552D01*
X108959190Y-96305552D02*
X109006809Y-96400790D01*
X109006809Y-96400790D02*
X109054428Y-96448409D01*
X109054428Y-96448409D02*
X109149666Y-96496028D01*
X109149666Y-96496028D02*
X109530618Y-96496028D01*
X108054428Y-96972219D02*
X108530618Y-96972219D01*
X108530618Y-96972219D02*
X108530618Y-95972219D01*
X107816332Y-95972219D02*
X107149666Y-96972219D01*
X107149666Y-95972219D02*
X107816332Y-96972219D01*
X106244904Y-96972219D02*
X106816332Y-96972219D01*
X106530618Y-96972219D02*
X106530618Y-95972219D01*
X106530618Y-95972219D02*
X106625856Y-96115076D01*
X106625856Y-96115076D02*
X106721094Y-96210314D01*
X106721094Y-96210314D02*
X106816332Y-96257933D01*
X154742475Y-57729219D02*
X154742475Y-56729219D01*
X154742475Y-56729219D02*
X154409142Y-57443504D01*
X154409142Y-57443504D02*
X154075809Y-56729219D01*
X154075809Y-56729219D02*
X154075809Y-57729219D01*
X153599618Y-57729219D02*
X153599618Y-56729219D01*
X153599618Y-56729219D02*
X153218666Y-56729219D01*
X153218666Y-56729219D02*
X153123428Y-56776838D01*
X153123428Y-56776838D02*
X153075809Y-56824457D01*
X153075809Y-56824457D02*
X153028190Y-56919695D01*
X153028190Y-56919695D02*
X153028190Y-57062552D01*
X153028190Y-57062552D02*
X153075809Y-57157790D01*
X153075809Y-57157790D02*
X153123428Y-57205409D01*
X153123428Y-57205409D02*
X153218666Y-57253028D01*
X153218666Y-57253028D02*
X153599618Y-57253028D01*
X152123428Y-57729219D02*
X152599618Y-57729219D01*
X152599618Y-57729219D02*
X152599618Y-56729219D01*
X151885332Y-56729219D02*
X151218666Y-57729219D01*
X151218666Y-56729219D02*
X151885332Y-57729219D01*
X150885332Y-56824457D02*
X150837713Y-56776838D01*
X150837713Y-56776838D02*
X150742475Y-56729219D01*
X150742475Y-56729219D02*
X150504380Y-56729219D01*
X150504380Y-56729219D02*
X150409142Y-56776838D01*
X150409142Y-56776838D02*
X150361523Y-56824457D01*
X150361523Y-56824457D02*
X150313904Y-56919695D01*
X150313904Y-56919695D02*
X150313904Y-57014933D01*
X150313904Y-57014933D02*
X150361523Y-57157790D01*
X150361523Y-57157790D02*
X150932951Y-57729219D01*
X150932951Y-57729219D02*
X150313904Y-57729219D01*
X106128945Y-101943504D02*
X105652755Y-101943504D01*
X106224183Y-102229219D02*
X105890850Y-101229219D01*
X105890850Y-101229219D02*
X105557517Y-102229219D01*
X104700374Y-102229219D02*
X105271802Y-102229219D01*
X104986088Y-102229219D02*
X104986088Y-101229219D01*
X104986088Y-101229219D02*
X105081326Y-101372076D01*
X105081326Y-101372076D02*
X105176564Y-101467314D01*
X105176564Y-101467314D02*
X105271802Y-101514933D01*
D12*
X110395857Y-76942819D02*
X110729190Y-76466628D01*
X110967285Y-76942819D02*
X110967285Y-75942819D01*
X110967285Y-75942819D02*
X110586333Y-75942819D01*
X110586333Y-75942819D02*
X110491095Y-75990438D01*
X110491095Y-75990438D02*
X110443476Y-76038057D01*
X110443476Y-76038057D02*
X110395857Y-76133295D01*
X110395857Y-76133295D02*
X110395857Y-76276152D01*
X110395857Y-76276152D02*
X110443476Y-76371390D01*
X110443476Y-76371390D02*
X110491095Y-76419009D01*
X110491095Y-76419009D02*
X110586333Y-76466628D01*
X110586333Y-76466628D02*
X110967285Y-76466628D01*
X109443476Y-76942819D02*
X110014904Y-76942819D01*
X109729190Y-76942819D02*
X109729190Y-75942819D01*
X109729190Y-75942819D02*
X109824428Y-76085676D01*
X109824428Y-76085676D02*
X109919666Y-76180914D01*
X109919666Y-76180914D02*
X110014904Y-76228533D01*
X108872047Y-76371390D02*
X108967285Y-76323771D01*
X108967285Y-76323771D02*
X109014904Y-76276152D01*
X109014904Y-76276152D02*
X109062523Y-76180914D01*
X109062523Y-76180914D02*
X109062523Y-76133295D01*
X109062523Y-76133295D02*
X109014904Y-76038057D01*
X109014904Y-76038057D02*
X108967285Y-75990438D01*
X108967285Y-75990438D02*
X108872047Y-75942819D01*
X108872047Y-75942819D02*
X108681571Y-75942819D01*
X108681571Y-75942819D02*
X108586333Y-75990438D01*
X108586333Y-75990438D02*
X108538714Y-76038057D01*
X108538714Y-76038057D02*
X108491095Y-76133295D01*
X108491095Y-76133295D02*
X108491095Y-76180914D01*
X108491095Y-76180914D02*
X108538714Y-76276152D01*
X108538714Y-76276152D02*
X108586333Y-76323771D01*
X108586333Y-76323771D02*
X108681571Y-76371390D01*
X108681571Y-76371390D02*
X108872047Y-76371390D01*
X108872047Y-76371390D02*
X108967285Y-76419009D01*
X108967285Y-76419009D02*
X109014904Y-76466628D01*
X109014904Y-76466628D02*
X109062523Y-76561866D01*
X109062523Y-76561866D02*
X109062523Y-76752342D01*
X109062523Y-76752342D02*
X109014904Y-76847580D01*
X109014904Y-76847580D02*
X108967285Y-76895200D01*
X108967285Y-76895200D02*
X108872047Y-76942819D01*
X108872047Y-76942819D02*
X108681571Y-76942819D01*
X108681571Y-76942819D02*
X108586333Y-76895200D01*
X108586333Y-76895200D02*
X108538714Y-76847580D01*
X108538714Y-76847580D02*
X108491095Y-76752342D01*
X108491095Y-76752342D02*
X108491095Y-76561866D01*
X108491095Y-76561866D02*
X108538714Y-76466628D01*
X108538714Y-76466628D02*
X108586333Y-76419009D01*
X108586333Y-76419009D02*
X108681571Y-76371390D01*
X110491094Y-79194819D02*
X110491094Y-78194819D01*
X110491094Y-78194819D02*
X110252999Y-78194819D01*
X110252999Y-78194819D02*
X110110142Y-78242438D01*
X110110142Y-78242438D02*
X110014904Y-78337676D01*
X110014904Y-78337676D02*
X109967285Y-78432914D01*
X109967285Y-78432914D02*
X109919666Y-78623390D01*
X109919666Y-78623390D02*
X109919666Y-78766247D01*
X109919666Y-78766247D02*
X109967285Y-78956723D01*
X109967285Y-78956723D02*
X110014904Y-79051961D01*
X110014904Y-79051961D02*
X110110142Y-79147200D01*
X110110142Y-79147200D02*
X110252999Y-79194819D01*
X110252999Y-79194819D02*
X110491094Y-79194819D01*
X109538713Y-78290057D02*
X109491094Y-78242438D01*
X109491094Y-78242438D02*
X109395856Y-78194819D01*
X109395856Y-78194819D02*
X109157761Y-78194819D01*
X109157761Y-78194819D02*
X109062523Y-78242438D01*
X109062523Y-78242438D02*
X109014904Y-78290057D01*
X109014904Y-78290057D02*
X108967285Y-78385295D01*
X108967285Y-78385295D02*
X108967285Y-78480533D01*
X108967285Y-78480533D02*
X109014904Y-78623390D01*
X109014904Y-78623390D02*
X109586332Y-79194819D01*
X109586332Y-79194819D02*
X108967285Y-79194819D01*
X130493666Y-72169580D02*
X130541285Y-72217200D01*
X130541285Y-72217200D02*
X130684142Y-72264819D01*
X130684142Y-72264819D02*
X130779380Y-72264819D01*
X130779380Y-72264819D02*
X130922237Y-72217200D01*
X130922237Y-72217200D02*
X131017475Y-72121961D01*
X131017475Y-72121961D02*
X131065094Y-72026723D01*
X131065094Y-72026723D02*
X131112713Y-71836247D01*
X131112713Y-71836247D02*
X131112713Y-71693390D01*
X131112713Y-71693390D02*
X131065094Y-71502914D01*
X131065094Y-71502914D02*
X131017475Y-71407676D01*
X131017475Y-71407676D02*
X130922237Y-71312438D01*
X130922237Y-71312438D02*
X130779380Y-71264819D01*
X130779380Y-71264819D02*
X130684142Y-71264819D01*
X130684142Y-71264819D02*
X130541285Y-71312438D01*
X130541285Y-71312438D02*
X130493666Y-71360057D01*
X129636523Y-71598152D02*
X129636523Y-72264819D01*
X129874618Y-71217200D02*
X130112713Y-71931485D01*
X130112713Y-71931485D02*
X129493666Y-71931485D01*
X150354333Y-58890819D02*
X150354333Y-59605104D01*
X150354333Y-59605104D02*
X150401952Y-59747961D01*
X150401952Y-59747961D02*
X150497190Y-59843200D01*
X150497190Y-59843200D02*
X150640047Y-59890819D01*
X150640047Y-59890819D02*
X150735285Y-59890819D01*
X149878142Y-59890819D02*
X149878142Y-58890819D01*
X149878142Y-58890819D02*
X149497190Y-58890819D01*
X149497190Y-58890819D02*
X149401952Y-58938438D01*
X149401952Y-58938438D02*
X149354333Y-58986057D01*
X149354333Y-58986057D02*
X149306714Y-59081295D01*
X149306714Y-59081295D02*
X149306714Y-59224152D01*
X149306714Y-59224152D02*
X149354333Y-59319390D01*
X149354333Y-59319390D02*
X149401952Y-59367009D01*
X149401952Y-59367009D02*
X149497190Y-59414628D01*
X149497190Y-59414628D02*
X149878142Y-59414628D01*
X148449571Y-58890819D02*
X148640047Y-58890819D01*
X148640047Y-58890819D02*
X148735285Y-58938438D01*
X148735285Y-58938438D02*
X148782904Y-58986057D01*
X148782904Y-58986057D02*
X148878142Y-59128914D01*
X148878142Y-59128914D02*
X148925761Y-59319390D01*
X148925761Y-59319390D02*
X148925761Y-59700342D01*
X148925761Y-59700342D02*
X148878142Y-59795580D01*
X148878142Y-59795580D02*
X148830523Y-59843200D01*
X148830523Y-59843200D02*
X148735285Y-59890819D01*
X148735285Y-59890819D02*
X148544809Y-59890819D01*
X148544809Y-59890819D02*
X148449571Y-59843200D01*
X148449571Y-59843200D02*
X148401952Y-59795580D01*
X148401952Y-59795580D02*
X148354333Y-59700342D01*
X148354333Y-59700342D02*
X148354333Y-59462247D01*
X148354333Y-59462247D02*
X148401952Y-59367009D01*
X148401952Y-59367009D02*
X148449571Y-59319390D01*
X148449571Y-59319390D02*
X148544809Y-59271771D01*
X148544809Y-59271771D02*
X148735285Y-59271771D01*
X148735285Y-59271771D02*
X148830523Y-59319390D01*
X148830523Y-59319390D02*
X148878142Y-59367009D01*
X148878142Y-59367009D02*
X148925761Y-59462247D01*
X146808857Y-60523580D02*
X146856476Y-60571200D01*
X146856476Y-60571200D02*
X146999333Y-60618819D01*
X146999333Y-60618819D02*
X147094571Y-60618819D01*
X147094571Y-60618819D02*
X147237428Y-60571200D01*
X147237428Y-60571200D02*
X147332666Y-60475961D01*
X147332666Y-60475961D02*
X147380285Y-60380723D01*
X147380285Y-60380723D02*
X147427904Y-60190247D01*
X147427904Y-60190247D02*
X147427904Y-60047390D01*
X147427904Y-60047390D02*
X147380285Y-59856914D01*
X147380285Y-59856914D02*
X147332666Y-59761676D01*
X147332666Y-59761676D02*
X147237428Y-59666438D01*
X147237428Y-59666438D02*
X147094571Y-59618819D01*
X147094571Y-59618819D02*
X146999333Y-59618819D01*
X146999333Y-59618819D02*
X146856476Y-59666438D01*
X146856476Y-59666438D02*
X146808857Y-59714057D01*
X145856476Y-60618819D02*
X146427904Y-60618819D01*
X146142190Y-60618819D02*
X146142190Y-59618819D01*
X146142190Y-59618819D02*
X146237428Y-59761676D01*
X146237428Y-59761676D02*
X146332666Y-59856914D01*
X146332666Y-59856914D02*
X146427904Y-59904533D01*
X144951714Y-59618819D02*
X145427904Y-59618819D01*
X145427904Y-59618819D02*
X145475523Y-60095009D01*
X145475523Y-60095009D02*
X145427904Y-60047390D01*
X145427904Y-60047390D02*
X145332666Y-59999771D01*
X145332666Y-59999771D02*
X145094571Y-59999771D01*
X145094571Y-59999771D02*
X144999333Y-60047390D01*
X144999333Y-60047390D02*
X144951714Y-60095009D01*
X144951714Y-60095009D02*
X144904095Y-60190247D01*
X144904095Y-60190247D02*
X144904095Y-60428342D01*
X144904095Y-60428342D02*
X144951714Y-60523580D01*
X144951714Y-60523580D02*
X144999333Y-60571200D01*
X144999333Y-60571200D02*
X145094571Y-60618819D01*
X145094571Y-60618819D02*
X145332666Y-60618819D01*
X145332666Y-60618819D02*
X145427904Y-60571200D01*
X145427904Y-60571200D02*
X145475523Y-60523580D01*
X104390857Y-65698819D02*
X104724190Y-65222628D01*
X104962285Y-65698819D02*
X104962285Y-64698819D01*
X104962285Y-64698819D02*
X104581333Y-64698819D01*
X104581333Y-64698819D02*
X104486095Y-64746438D01*
X104486095Y-64746438D02*
X104438476Y-64794057D01*
X104438476Y-64794057D02*
X104390857Y-64889295D01*
X104390857Y-64889295D02*
X104390857Y-65032152D01*
X104390857Y-65032152D02*
X104438476Y-65127390D01*
X104438476Y-65127390D02*
X104486095Y-65175009D01*
X104486095Y-65175009D02*
X104581333Y-65222628D01*
X104581333Y-65222628D02*
X104962285Y-65222628D01*
X103438476Y-65698819D02*
X104009904Y-65698819D01*
X103724190Y-65698819D02*
X103724190Y-64698819D01*
X103724190Y-64698819D02*
X103819428Y-64841676D01*
X103819428Y-64841676D02*
X103914666Y-64936914D01*
X103914666Y-64936914D02*
X104009904Y-64984533D01*
X103105142Y-64698819D02*
X102486095Y-64698819D01*
X102486095Y-64698819D02*
X102819428Y-65079771D01*
X102819428Y-65079771D02*
X102676571Y-65079771D01*
X102676571Y-65079771D02*
X102581333Y-65127390D01*
X102581333Y-65127390D02*
X102533714Y-65175009D01*
X102533714Y-65175009D02*
X102486095Y-65270247D01*
X102486095Y-65270247D02*
X102486095Y-65508342D01*
X102486095Y-65508342D02*
X102533714Y-65603580D01*
X102533714Y-65603580D02*
X102581333Y-65651200D01*
X102581333Y-65651200D02*
X102676571Y-65698819D01*
X102676571Y-65698819D02*
X102962285Y-65698819D01*
X102962285Y-65698819D02*
X103057523Y-65651200D01*
X103057523Y-65651200D02*
X103105142Y-65603580D01*
X101918666Y-60739580D02*
X101966285Y-60787200D01*
X101966285Y-60787200D02*
X102109142Y-60834819D01*
X102109142Y-60834819D02*
X102204380Y-60834819D01*
X102204380Y-60834819D02*
X102347237Y-60787200D01*
X102347237Y-60787200D02*
X102442475Y-60691961D01*
X102442475Y-60691961D02*
X102490094Y-60596723D01*
X102490094Y-60596723D02*
X102537713Y-60406247D01*
X102537713Y-60406247D02*
X102537713Y-60263390D01*
X102537713Y-60263390D02*
X102490094Y-60072914D01*
X102490094Y-60072914D02*
X102442475Y-59977676D01*
X102442475Y-59977676D02*
X102347237Y-59882438D01*
X102347237Y-59882438D02*
X102204380Y-59834819D01*
X102204380Y-59834819D02*
X102109142Y-59834819D01*
X102109142Y-59834819D02*
X101966285Y-59882438D01*
X101966285Y-59882438D02*
X101918666Y-59930057D01*
X101585332Y-59834819D02*
X100918666Y-59834819D01*
X100918666Y-59834819D02*
X101347237Y-60834819D01*
X133033666Y-79609819D02*
X133366999Y-79133628D01*
X133605094Y-79609819D02*
X133605094Y-78609819D01*
X133605094Y-78609819D02*
X133224142Y-78609819D01*
X133224142Y-78609819D02*
X133128904Y-78657438D01*
X133128904Y-78657438D02*
X133081285Y-78705057D01*
X133081285Y-78705057D02*
X133033666Y-78800295D01*
X133033666Y-78800295D02*
X133033666Y-78943152D01*
X133033666Y-78943152D02*
X133081285Y-79038390D01*
X133081285Y-79038390D02*
X133128904Y-79086009D01*
X133128904Y-79086009D02*
X133224142Y-79133628D01*
X133224142Y-79133628D02*
X133605094Y-79133628D01*
X132652713Y-78705057D02*
X132605094Y-78657438D01*
X132605094Y-78657438D02*
X132509856Y-78609819D01*
X132509856Y-78609819D02*
X132271761Y-78609819D01*
X132271761Y-78609819D02*
X132176523Y-78657438D01*
X132176523Y-78657438D02*
X132128904Y-78705057D01*
X132128904Y-78705057D02*
X132081285Y-78800295D01*
X132081285Y-78800295D02*
X132081285Y-78895533D01*
X132081285Y-78895533D02*
X132128904Y-79038390D01*
X132128904Y-79038390D02*
X132700332Y-79609819D01*
X132700332Y-79609819D02*
X132081285Y-79609819D01*
X113763819Y-84955142D02*
X113287628Y-84621809D01*
X113763819Y-84383714D02*
X112763819Y-84383714D01*
X112763819Y-84383714D02*
X112763819Y-84764666D01*
X112763819Y-84764666D02*
X112811438Y-84859904D01*
X112811438Y-84859904D02*
X112859057Y-84907523D01*
X112859057Y-84907523D02*
X112954295Y-84955142D01*
X112954295Y-84955142D02*
X113097152Y-84955142D01*
X113097152Y-84955142D02*
X113192390Y-84907523D01*
X113192390Y-84907523D02*
X113240009Y-84859904D01*
X113240009Y-84859904D02*
X113287628Y-84764666D01*
X113287628Y-84764666D02*
X113287628Y-84383714D01*
X112763819Y-85288476D02*
X112763819Y-85907523D01*
X112763819Y-85907523D02*
X113144771Y-85574190D01*
X113144771Y-85574190D02*
X113144771Y-85717047D01*
X113144771Y-85717047D02*
X113192390Y-85812285D01*
X113192390Y-85812285D02*
X113240009Y-85859904D01*
X113240009Y-85859904D02*
X113335247Y-85907523D01*
X113335247Y-85907523D02*
X113573342Y-85907523D01*
X113573342Y-85907523D02*
X113668580Y-85859904D01*
X113668580Y-85859904D02*
X113716200Y-85812285D01*
X113716200Y-85812285D02*
X113763819Y-85717047D01*
X113763819Y-85717047D02*
X113763819Y-85431333D01*
X113763819Y-85431333D02*
X113716200Y-85336095D01*
X113716200Y-85336095D02*
X113668580Y-85288476D01*
X112763819Y-86240857D02*
X112763819Y-86859904D01*
X112763819Y-86859904D02*
X113144771Y-86526571D01*
X113144771Y-86526571D02*
X113144771Y-86669428D01*
X113144771Y-86669428D02*
X113192390Y-86764666D01*
X113192390Y-86764666D02*
X113240009Y-86812285D01*
X113240009Y-86812285D02*
X113335247Y-86859904D01*
X113335247Y-86859904D02*
X113573342Y-86859904D01*
X113573342Y-86859904D02*
X113668580Y-86812285D01*
X113668580Y-86812285D02*
X113716200Y-86764666D01*
X113716200Y-86764666D02*
X113763819Y-86669428D01*
X113763819Y-86669428D02*
X113763819Y-86383714D01*
X113763819Y-86383714D02*
X113716200Y-86288476D01*
X113716200Y-86288476D02*
X113668580Y-86240857D01*
X103374857Y-98210819D02*
X103708190Y-97734628D01*
X103946285Y-98210819D02*
X103946285Y-97210819D01*
X103946285Y-97210819D02*
X103565333Y-97210819D01*
X103565333Y-97210819D02*
X103470095Y-97258438D01*
X103470095Y-97258438D02*
X103422476Y-97306057D01*
X103422476Y-97306057D02*
X103374857Y-97401295D01*
X103374857Y-97401295D02*
X103374857Y-97544152D01*
X103374857Y-97544152D02*
X103422476Y-97639390D01*
X103422476Y-97639390D02*
X103470095Y-97687009D01*
X103470095Y-97687009D02*
X103565333Y-97734628D01*
X103565333Y-97734628D02*
X103946285Y-97734628D01*
X102993904Y-97306057D02*
X102946285Y-97258438D01*
X102946285Y-97258438D02*
X102851047Y-97210819D01*
X102851047Y-97210819D02*
X102612952Y-97210819D01*
X102612952Y-97210819D02*
X102517714Y-97258438D01*
X102517714Y-97258438D02*
X102470095Y-97306057D01*
X102470095Y-97306057D02*
X102422476Y-97401295D01*
X102422476Y-97401295D02*
X102422476Y-97496533D01*
X102422476Y-97496533D02*
X102470095Y-97639390D01*
X102470095Y-97639390D02*
X103041523Y-98210819D01*
X103041523Y-98210819D02*
X102422476Y-98210819D01*
X102041523Y-97306057D02*
X101993904Y-97258438D01*
X101993904Y-97258438D02*
X101898666Y-97210819D01*
X101898666Y-97210819D02*
X101660571Y-97210819D01*
X101660571Y-97210819D02*
X101565333Y-97258438D01*
X101565333Y-97258438D02*
X101517714Y-97306057D01*
X101517714Y-97306057D02*
X101470095Y-97401295D01*
X101470095Y-97401295D02*
X101470095Y-97496533D01*
X101470095Y-97496533D02*
X101517714Y-97639390D01*
X101517714Y-97639390D02*
X102089142Y-98210819D01*
X102089142Y-98210819D02*
X101470095Y-98210819D01*
X110649857Y-84179580D02*
X110697476Y-84227200D01*
X110697476Y-84227200D02*
X110840333Y-84274819D01*
X110840333Y-84274819D02*
X110935571Y-84274819D01*
X110935571Y-84274819D02*
X111078428Y-84227200D01*
X111078428Y-84227200D02*
X111173666Y-84131961D01*
X111173666Y-84131961D02*
X111221285Y-84036723D01*
X111221285Y-84036723D02*
X111268904Y-83846247D01*
X111268904Y-83846247D02*
X111268904Y-83703390D01*
X111268904Y-83703390D02*
X111221285Y-83512914D01*
X111221285Y-83512914D02*
X111173666Y-83417676D01*
X111173666Y-83417676D02*
X111078428Y-83322438D01*
X111078428Y-83322438D02*
X110935571Y-83274819D01*
X110935571Y-83274819D02*
X110840333Y-83274819D01*
X110840333Y-83274819D02*
X110697476Y-83322438D01*
X110697476Y-83322438D02*
X110649857Y-83370057D01*
X109697476Y-84274819D02*
X110268904Y-84274819D01*
X109983190Y-84274819D02*
X109983190Y-83274819D01*
X109983190Y-83274819D02*
X110078428Y-83417676D01*
X110078428Y-83417676D02*
X110173666Y-83512914D01*
X110173666Y-83512914D02*
X110268904Y-83560533D01*
X109316523Y-83370057D02*
X109268904Y-83322438D01*
X109268904Y-83322438D02*
X109173666Y-83274819D01*
X109173666Y-83274819D02*
X108935571Y-83274819D01*
X108935571Y-83274819D02*
X108840333Y-83322438D01*
X108840333Y-83322438D02*
X108792714Y-83370057D01*
X108792714Y-83370057D02*
X108745095Y-83465295D01*
X108745095Y-83465295D02*
X108745095Y-83560533D01*
X108745095Y-83560533D02*
X108792714Y-83703390D01*
X108792714Y-83703390D02*
X109364142Y-84274819D01*
X109364142Y-84274819D02*
X108745095Y-84274819D01*
X103349857Y-101004819D02*
X103683190Y-100528628D01*
X103921285Y-101004819D02*
X103921285Y-100004819D01*
X103921285Y-100004819D02*
X103540333Y-100004819D01*
X103540333Y-100004819D02*
X103445095Y-100052438D01*
X103445095Y-100052438D02*
X103397476Y-100100057D01*
X103397476Y-100100057D02*
X103349857Y-100195295D01*
X103349857Y-100195295D02*
X103349857Y-100338152D01*
X103349857Y-100338152D02*
X103397476Y-100433390D01*
X103397476Y-100433390D02*
X103445095Y-100481009D01*
X103445095Y-100481009D02*
X103540333Y-100528628D01*
X103540333Y-100528628D02*
X103921285Y-100528628D01*
X102968904Y-100100057D02*
X102921285Y-100052438D01*
X102921285Y-100052438D02*
X102826047Y-100004819D01*
X102826047Y-100004819D02*
X102587952Y-100004819D01*
X102587952Y-100004819D02*
X102492714Y-100052438D01*
X102492714Y-100052438D02*
X102445095Y-100100057D01*
X102445095Y-100100057D02*
X102397476Y-100195295D01*
X102397476Y-100195295D02*
X102397476Y-100290533D01*
X102397476Y-100290533D02*
X102445095Y-100433390D01*
X102445095Y-100433390D02*
X103016523Y-101004819D01*
X103016523Y-101004819D02*
X102397476Y-101004819D01*
X101445095Y-101004819D02*
X102016523Y-101004819D01*
X101730809Y-101004819D02*
X101730809Y-100004819D01*
X101730809Y-100004819D02*
X101826047Y-100147676D01*
X101826047Y-100147676D02*
X101921285Y-100242914D01*
X101921285Y-100242914D02*
X102016523Y-100290533D01*
X150354333Y-61684819D02*
X150354333Y-62399104D01*
X150354333Y-62399104D02*
X150401952Y-62541961D01*
X150401952Y-62541961D02*
X150497190Y-62637200D01*
X150497190Y-62637200D02*
X150640047Y-62684819D01*
X150640047Y-62684819D02*
X150735285Y-62684819D01*
X149878142Y-62684819D02*
X149878142Y-61684819D01*
X149878142Y-61684819D02*
X149497190Y-61684819D01*
X149497190Y-61684819D02*
X149401952Y-61732438D01*
X149401952Y-61732438D02*
X149354333Y-61780057D01*
X149354333Y-61780057D02*
X149306714Y-61875295D01*
X149306714Y-61875295D02*
X149306714Y-62018152D01*
X149306714Y-62018152D02*
X149354333Y-62113390D01*
X149354333Y-62113390D02*
X149401952Y-62161009D01*
X149401952Y-62161009D02*
X149497190Y-62208628D01*
X149497190Y-62208628D02*
X149878142Y-62208628D01*
X148973380Y-61684819D02*
X148306714Y-61684819D01*
X148306714Y-61684819D02*
X148735285Y-62684819D01*
X127159857Y-52744819D02*
X127493190Y-52268628D01*
X127731285Y-52744819D02*
X127731285Y-51744819D01*
X127731285Y-51744819D02*
X127350333Y-51744819D01*
X127350333Y-51744819D02*
X127255095Y-51792438D01*
X127255095Y-51792438D02*
X127207476Y-51840057D01*
X127207476Y-51840057D02*
X127159857Y-51935295D01*
X127159857Y-51935295D02*
X127159857Y-52078152D01*
X127159857Y-52078152D02*
X127207476Y-52173390D01*
X127207476Y-52173390D02*
X127255095Y-52221009D01*
X127255095Y-52221009D02*
X127350333Y-52268628D01*
X127350333Y-52268628D02*
X127731285Y-52268628D01*
X126207476Y-52744819D02*
X126778904Y-52744819D01*
X126493190Y-52744819D02*
X126493190Y-51744819D01*
X126493190Y-51744819D02*
X126588428Y-51887676D01*
X126588428Y-51887676D02*
X126683666Y-51982914D01*
X126683666Y-51982914D02*
X126778904Y-52030533D01*
X125302714Y-51744819D02*
X125778904Y-51744819D01*
X125778904Y-51744819D02*
X125826523Y-52221009D01*
X125826523Y-52221009D02*
X125778904Y-52173390D01*
X125778904Y-52173390D02*
X125683666Y-52125771D01*
X125683666Y-52125771D02*
X125445571Y-52125771D01*
X125445571Y-52125771D02*
X125350333Y-52173390D01*
X125350333Y-52173390D02*
X125302714Y-52221009D01*
X125302714Y-52221009D02*
X125255095Y-52316247D01*
X125255095Y-52316247D02*
X125255095Y-52554342D01*
X125255095Y-52554342D02*
X125302714Y-52649580D01*
X125302714Y-52649580D02*
X125350333Y-52697200D01*
X125350333Y-52697200D02*
X125445571Y-52744819D01*
X125445571Y-52744819D02*
X125683666Y-52744819D01*
X125683666Y-52744819D02*
X125778904Y-52697200D01*
X125778904Y-52697200D02*
X125826523Y-52649580D01*
X141225094Y-74749819D02*
X141225094Y-73749819D01*
X141225094Y-73749819D02*
X140986999Y-73749819D01*
X140986999Y-73749819D02*
X140844142Y-73797438D01*
X140844142Y-73797438D02*
X140748904Y-73892676D01*
X140748904Y-73892676D02*
X140701285Y-73987914D01*
X140701285Y-73987914D02*
X140653666Y-74178390D01*
X140653666Y-74178390D02*
X140653666Y-74321247D01*
X140653666Y-74321247D02*
X140701285Y-74511723D01*
X140701285Y-74511723D02*
X140748904Y-74606961D01*
X140748904Y-74606961D02*
X140844142Y-74702200D01*
X140844142Y-74702200D02*
X140986999Y-74749819D01*
X140986999Y-74749819D02*
X141225094Y-74749819D01*
X139701285Y-74749819D02*
X140272713Y-74749819D01*
X139986999Y-74749819D02*
X139986999Y-73749819D01*
X139986999Y-73749819D02*
X140082237Y-73892676D01*
X140082237Y-73892676D02*
X140177475Y-73987914D01*
X140177475Y-73987914D02*
X140272713Y-74035533D01*
X153099666Y-50325580D02*
X153147285Y-50373200D01*
X153147285Y-50373200D02*
X153290142Y-50420819D01*
X153290142Y-50420819D02*
X153385380Y-50420819D01*
X153385380Y-50420819D02*
X153528237Y-50373200D01*
X153528237Y-50373200D02*
X153623475Y-50277961D01*
X153623475Y-50277961D02*
X153671094Y-50182723D01*
X153671094Y-50182723D02*
X153718713Y-49992247D01*
X153718713Y-49992247D02*
X153718713Y-49849390D01*
X153718713Y-49849390D02*
X153671094Y-49658914D01*
X153671094Y-49658914D02*
X153623475Y-49563676D01*
X153623475Y-49563676D02*
X153528237Y-49468438D01*
X153528237Y-49468438D02*
X153385380Y-49420819D01*
X153385380Y-49420819D02*
X153290142Y-49420819D01*
X153290142Y-49420819D02*
X153147285Y-49468438D01*
X153147285Y-49468438D02*
X153099666Y-49516057D01*
X152194904Y-49420819D02*
X152671094Y-49420819D01*
X152671094Y-49420819D02*
X152718713Y-49897009D01*
X152718713Y-49897009D02*
X152671094Y-49849390D01*
X152671094Y-49849390D02*
X152575856Y-49801771D01*
X152575856Y-49801771D02*
X152337761Y-49801771D01*
X152337761Y-49801771D02*
X152242523Y-49849390D01*
X152242523Y-49849390D02*
X152194904Y-49897009D01*
X152194904Y-49897009D02*
X152147285Y-49992247D01*
X152147285Y-49992247D02*
X152147285Y-50230342D01*
X152147285Y-50230342D02*
X152194904Y-50325580D01*
X152194904Y-50325580D02*
X152242523Y-50373200D01*
X152242523Y-50373200D02*
X152337761Y-50420819D01*
X152337761Y-50420819D02*
X152575856Y-50420819D01*
X152575856Y-50420819D02*
X152671094Y-50373200D01*
X152671094Y-50373200D02*
X152718713Y-50325580D01*
X123694857Y-52744819D02*
X124028190Y-52268628D01*
X124266285Y-52744819D02*
X124266285Y-51744819D01*
X124266285Y-51744819D02*
X123885333Y-51744819D01*
X123885333Y-51744819D02*
X123790095Y-51792438D01*
X123790095Y-51792438D02*
X123742476Y-51840057D01*
X123742476Y-51840057D02*
X123694857Y-51935295D01*
X123694857Y-51935295D02*
X123694857Y-52078152D01*
X123694857Y-52078152D02*
X123742476Y-52173390D01*
X123742476Y-52173390D02*
X123790095Y-52221009D01*
X123790095Y-52221009D02*
X123885333Y-52268628D01*
X123885333Y-52268628D02*
X124266285Y-52268628D01*
X122742476Y-52744819D02*
X123313904Y-52744819D01*
X123028190Y-52744819D02*
X123028190Y-51744819D01*
X123028190Y-51744819D02*
X123123428Y-51887676D01*
X123123428Y-51887676D02*
X123218666Y-51982914D01*
X123218666Y-51982914D02*
X123313904Y-52030533D01*
X121885333Y-52078152D02*
X121885333Y-52744819D01*
X122123428Y-51697200D02*
X122361523Y-52411485D01*
X122361523Y-52411485D02*
X121742476Y-52411485D01*
X155893666Y-79279819D02*
X156226999Y-78803628D01*
X156465094Y-79279819D02*
X156465094Y-78279819D01*
X156465094Y-78279819D02*
X156084142Y-78279819D01*
X156084142Y-78279819D02*
X155988904Y-78327438D01*
X155988904Y-78327438D02*
X155941285Y-78375057D01*
X155941285Y-78375057D02*
X155893666Y-78470295D01*
X155893666Y-78470295D02*
X155893666Y-78613152D01*
X155893666Y-78613152D02*
X155941285Y-78708390D01*
X155941285Y-78708390D02*
X155988904Y-78756009D01*
X155988904Y-78756009D02*
X156084142Y-78803628D01*
X156084142Y-78803628D02*
X156465094Y-78803628D01*
X155322237Y-78708390D02*
X155417475Y-78660771D01*
X155417475Y-78660771D02*
X155465094Y-78613152D01*
X155465094Y-78613152D02*
X155512713Y-78517914D01*
X155512713Y-78517914D02*
X155512713Y-78470295D01*
X155512713Y-78470295D02*
X155465094Y-78375057D01*
X155465094Y-78375057D02*
X155417475Y-78327438D01*
X155417475Y-78327438D02*
X155322237Y-78279819D01*
X155322237Y-78279819D02*
X155131761Y-78279819D01*
X155131761Y-78279819D02*
X155036523Y-78327438D01*
X155036523Y-78327438D02*
X154988904Y-78375057D01*
X154988904Y-78375057D02*
X154941285Y-78470295D01*
X154941285Y-78470295D02*
X154941285Y-78517914D01*
X154941285Y-78517914D02*
X154988904Y-78613152D01*
X154988904Y-78613152D02*
X155036523Y-78660771D01*
X155036523Y-78660771D02*
X155131761Y-78708390D01*
X155131761Y-78708390D02*
X155322237Y-78708390D01*
X155322237Y-78708390D02*
X155417475Y-78756009D01*
X155417475Y-78756009D02*
X155465094Y-78803628D01*
X155465094Y-78803628D02*
X155512713Y-78898866D01*
X155512713Y-78898866D02*
X155512713Y-79089342D01*
X155512713Y-79089342D02*
X155465094Y-79184580D01*
X155465094Y-79184580D02*
X155417475Y-79232200D01*
X155417475Y-79232200D02*
X155322237Y-79279819D01*
X155322237Y-79279819D02*
X155131761Y-79279819D01*
X155131761Y-79279819D02*
X155036523Y-79232200D01*
X155036523Y-79232200D02*
X154988904Y-79184580D01*
X154988904Y-79184580D02*
X154941285Y-79089342D01*
X154941285Y-79089342D02*
X154941285Y-78898866D01*
X154941285Y-78898866D02*
X154988904Y-78803628D01*
X154988904Y-78803628D02*
X155036523Y-78756009D01*
X155036523Y-78756009D02*
X155131761Y-78708390D01*
X158274857Y-69161819D02*
X158608190Y-68685628D01*
X158846285Y-69161819D02*
X158846285Y-68161819D01*
X158846285Y-68161819D02*
X158465333Y-68161819D01*
X158465333Y-68161819D02*
X158370095Y-68209438D01*
X158370095Y-68209438D02*
X158322476Y-68257057D01*
X158322476Y-68257057D02*
X158274857Y-68352295D01*
X158274857Y-68352295D02*
X158274857Y-68495152D01*
X158274857Y-68495152D02*
X158322476Y-68590390D01*
X158322476Y-68590390D02*
X158370095Y-68638009D01*
X158370095Y-68638009D02*
X158465333Y-68685628D01*
X158465333Y-68685628D02*
X158846285Y-68685628D01*
X157893904Y-68257057D02*
X157846285Y-68209438D01*
X157846285Y-68209438D02*
X157751047Y-68161819D01*
X157751047Y-68161819D02*
X157512952Y-68161819D01*
X157512952Y-68161819D02*
X157417714Y-68209438D01*
X157417714Y-68209438D02*
X157370095Y-68257057D01*
X157370095Y-68257057D02*
X157322476Y-68352295D01*
X157322476Y-68352295D02*
X157322476Y-68447533D01*
X157322476Y-68447533D02*
X157370095Y-68590390D01*
X157370095Y-68590390D02*
X157941523Y-69161819D01*
X157941523Y-69161819D02*
X157322476Y-69161819D01*
X156751047Y-68590390D02*
X156846285Y-68542771D01*
X156846285Y-68542771D02*
X156893904Y-68495152D01*
X156893904Y-68495152D02*
X156941523Y-68399914D01*
X156941523Y-68399914D02*
X156941523Y-68352295D01*
X156941523Y-68352295D02*
X156893904Y-68257057D01*
X156893904Y-68257057D02*
X156846285Y-68209438D01*
X156846285Y-68209438D02*
X156751047Y-68161819D01*
X156751047Y-68161819D02*
X156560571Y-68161819D01*
X156560571Y-68161819D02*
X156465333Y-68209438D01*
X156465333Y-68209438D02*
X156417714Y-68257057D01*
X156417714Y-68257057D02*
X156370095Y-68352295D01*
X156370095Y-68352295D02*
X156370095Y-68399914D01*
X156370095Y-68399914D02*
X156417714Y-68495152D01*
X156417714Y-68495152D02*
X156465333Y-68542771D01*
X156465333Y-68542771D02*
X156560571Y-68590390D01*
X156560571Y-68590390D02*
X156751047Y-68590390D01*
X156751047Y-68590390D02*
X156846285Y-68638009D01*
X156846285Y-68638009D02*
X156893904Y-68685628D01*
X156893904Y-68685628D02*
X156941523Y-68780866D01*
X156941523Y-68780866D02*
X156941523Y-68971342D01*
X156941523Y-68971342D02*
X156893904Y-69066580D01*
X156893904Y-69066580D02*
X156846285Y-69114200D01*
X156846285Y-69114200D02*
X156751047Y-69161819D01*
X156751047Y-69161819D02*
X156560571Y-69161819D01*
X156560571Y-69161819D02*
X156465333Y-69114200D01*
X156465333Y-69114200D02*
X156417714Y-69066580D01*
X156417714Y-69066580D02*
X156370095Y-68971342D01*
X156370095Y-68971342D02*
X156370095Y-68780866D01*
X156370095Y-68780866D02*
X156417714Y-68685628D01*
X156417714Y-68685628D02*
X156465333Y-68638009D01*
X156465333Y-68638009D02*
X156560571Y-68590390D01*
X146499857Y-63539819D02*
X146833190Y-63063628D01*
X147071285Y-63539819D02*
X147071285Y-62539819D01*
X147071285Y-62539819D02*
X146690333Y-62539819D01*
X146690333Y-62539819D02*
X146595095Y-62587438D01*
X146595095Y-62587438D02*
X146547476Y-62635057D01*
X146547476Y-62635057D02*
X146499857Y-62730295D01*
X146499857Y-62730295D02*
X146499857Y-62873152D01*
X146499857Y-62873152D02*
X146547476Y-62968390D01*
X146547476Y-62968390D02*
X146595095Y-63016009D01*
X146595095Y-63016009D02*
X146690333Y-63063628D01*
X146690333Y-63063628D02*
X147071285Y-63063628D01*
X146118904Y-62635057D02*
X146071285Y-62587438D01*
X146071285Y-62587438D02*
X145976047Y-62539819D01*
X145976047Y-62539819D02*
X145737952Y-62539819D01*
X145737952Y-62539819D02*
X145642714Y-62587438D01*
X145642714Y-62587438D02*
X145595095Y-62635057D01*
X145595095Y-62635057D02*
X145547476Y-62730295D01*
X145547476Y-62730295D02*
X145547476Y-62825533D01*
X145547476Y-62825533D02*
X145595095Y-62968390D01*
X145595095Y-62968390D02*
X146166523Y-63539819D01*
X146166523Y-63539819D02*
X145547476Y-63539819D01*
X144642714Y-62539819D02*
X145118904Y-62539819D01*
X145118904Y-62539819D02*
X145166523Y-63016009D01*
X145166523Y-63016009D02*
X145118904Y-62968390D01*
X145118904Y-62968390D02*
X145023666Y-62920771D01*
X145023666Y-62920771D02*
X144785571Y-62920771D01*
X144785571Y-62920771D02*
X144690333Y-62968390D01*
X144690333Y-62968390D02*
X144642714Y-63016009D01*
X144642714Y-63016009D02*
X144595095Y-63111247D01*
X144595095Y-63111247D02*
X144595095Y-63349342D01*
X144595095Y-63349342D02*
X144642714Y-63444580D01*
X144642714Y-63444580D02*
X144690333Y-63492200D01*
X144690333Y-63492200D02*
X144785571Y-63539819D01*
X144785571Y-63539819D02*
X145023666Y-63539819D01*
X145023666Y-63539819D02*
X145118904Y-63492200D01*
X145118904Y-63492200D02*
X145166523Y-63444580D01*
X107601857Y-91098819D02*
X107935190Y-90622628D01*
X108173285Y-91098819D02*
X108173285Y-90098819D01*
X108173285Y-90098819D02*
X107792333Y-90098819D01*
X107792333Y-90098819D02*
X107697095Y-90146438D01*
X107697095Y-90146438D02*
X107649476Y-90194057D01*
X107649476Y-90194057D02*
X107601857Y-90289295D01*
X107601857Y-90289295D02*
X107601857Y-90432152D01*
X107601857Y-90432152D02*
X107649476Y-90527390D01*
X107649476Y-90527390D02*
X107697095Y-90575009D01*
X107697095Y-90575009D02*
X107792333Y-90622628D01*
X107792333Y-90622628D02*
X108173285Y-90622628D01*
X107220904Y-90194057D02*
X107173285Y-90146438D01*
X107173285Y-90146438D02*
X107078047Y-90098819D01*
X107078047Y-90098819D02*
X106839952Y-90098819D01*
X106839952Y-90098819D02*
X106744714Y-90146438D01*
X106744714Y-90146438D02*
X106697095Y-90194057D01*
X106697095Y-90194057D02*
X106649476Y-90289295D01*
X106649476Y-90289295D02*
X106649476Y-90384533D01*
X106649476Y-90384533D02*
X106697095Y-90527390D01*
X106697095Y-90527390D02*
X107268523Y-91098819D01*
X107268523Y-91098819D02*
X106649476Y-91098819D01*
X106030428Y-90098819D02*
X105935190Y-90098819D01*
X105935190Y-90098819D02*
X105839952Y-90146438D01*
X105839952Y-90146438D02*
X105792333Y-90194057D01*
X105792333Y-90194057D02*
X105744714Y-90289295D01*
X105744714Y-90289295D02*
X105697095Y-90479771D01*
X105697095Y-90479771D02*
X105697095Y-90717866D01*
X105697095Y-90717866D02*
X105744714Y-90908342D01*
X105744714Y-90908342D02*
X105792333Y-91003580D01*
X105792333Y-91003580D02*
X105839952Y-91051200D01*
X105839952Y-91051200D02*
X105935190Y-91098819D01*
X105935190Y-91098819D02*
X106030428Y-91098819D01*
X106030428Y-91098819D02*
X106125666Y-91051200D01*
X106125666Y-91051200D02*
X106173285Y-91003580D01*
X106173285Y-91003580D02*
X106220904Y-90908342D01*
X106220904Y-90908342D02*
X106268523Y-90717866D01*
X106268523Y-90717866D02*
X106268523Y-90479771D01*
X106268523Y-90479771D02*
X106220904Y-90289295D01*
X106220904Y-90289295D02*
X106173285Y-90194057D01*
X106173285Y-90194057D02*
X106125666Y-90146438D01*
X106125666Y-90146438D02*
X106030428Y-90098819D01*
X155058857Y-69161819D02*
X155392190Y-68685628D01*
X155630285Y-69161819D02*
X155630285Y-68161819D01*
X155630285Y-68161819D02*
X155249333Y-68161819D01*
X155249333Y-68161819D02*
X155154095Y-68209438D01*
X155154095Y-68209438D02*
X155106476Y-68257057D01*
X155106476Y-68257057D02*
X155058857Y-68352295D01*
X155058857Y-68352295D02*
X155058857Y-68495152D01*
X155058857Y-68495152D02*
X155106476Y-68590390D01*
X155106476Y-68590390D02*
X155154095Y-68638009D01*
X155154095Y-68638009D02*
X155249333Y-68685628D01*
X155249333Y-68685628D02*
X155630285Y-68685628D01*
X154725523Y-68161819D02*
X154106476Y-68161819D01*
X154106476Y-68161819D02*
X154439809Y-68542771D01*
X154439809Y-68542771D02*
X154296952Y-68542771D01*
X154296952Y-68542771D02*
X154201714Y-68590390D01*
X154201714Y-68590390D02*
X154154095Y-68638009D01*
X154154095Y-68638009D02*
X154106476Y-68733247D01*
X154106476Y-68733247D02*
X154106476Y-68971342D01*
X154106476Y-68971342D02*
X154154095Y-69066580D01*
X154154095Y-69066580D02*
X154201714Y-69114200D01*
X154201714Y-69114200D02*
X154296952Y-69161819D01*
X154296952Y-69161819D02*
X154582666Y-69161819D01*
X154582666Y-69161819D02*
X154677904Y-69114200D01*
X154677904Y-69114200D02*
X154725523Y-69066580D01*
X153249333Y-68495152D02*
X153249333Y-69161819D01*
X153487428Y-68114200D02*
X153725523Y-68828485D01*
X153725523Y-68828485D02*
X153106476Y-68828485D01*
X104553857Y-69375580D02*
X104601476Y-69423200D01*
X104601476Y-69423200D02*
X104744333Y-69470819D01*
X104744333Y-69470819D02*
X104839571Y-69470819D01*
X104839571Y-69470819D02*
X104982428Y-69423200D01*
X104982428Y-69423200D02*
X105077666Y-69327961D01*
X105077666Y-69327961D02*
X105125285Y-69232723D01*
X105125285Y-69232723D02*
X105172904Y-69042247D01*
X105172904Y-69042247D02*
X105172904Y-68899390D01*
X105172904Y-68899390D02*
X105125285Y-68708914D01*
X105125285Y-68708914D02*
X105077666Y-68613676D01*
X105077666Y-68613676D02*
X104982428Y-68518438D01*
X104982428Y-68518438D02*
X104839571Y-68470819D01*
X104839571Y-68470819D02*
X104744333Y-68470819D01*
X104744333Y-68470819D02*
X104601476Y-68518438D01*
X104601476Y-68518438D02*
X104553857Y-68566057D01*
X103601476Y-69470819D02*
X104172904Y-69470819D01*
X103887190Y-69470819D02*
X103887190Y-68470819D01*
X103887190Y-68470819D02*
X103982428Y-68613676D01*
X103982428Y-68613676D02*
X104077666Y-68708914D01*
X104077666Y-68708914D02*
X104172904Y-68756533D01*
X102982428Y-68470819D02*
X102887190Y-68470819D01*
X102887190Y-68470819D02*
X102791952Y-68518438D01*
X102791952Y-68518438D02*
X102744333Y-68566057D01*
X102744333Y-68566057D02*
X102696714Y-68661295D01*
X102696714Y-68661295D02*
X102649095Y-68851771D01*
X102649095Y-68851771D02*
X102649095Y-69089866D01*
X102649095Y-69089866D02*
X102696714Y-69280342D01*
X102696714Y-69280342D02*
X102744333Y-69375580D01*
X102744333Y-69375580D02*
X102791952Y-69423200D01*
X102791952Y-69423200D02*
X102887190Y-69470819D01*
X102887190Y-69470819D02*
X102982428Y-69470819D01*
X102982428Y-69470819D02*
X103077666Y-69423200D01*
X103077666Y-69423200D02*
X103125285Y-69375580D01*
X103125285Y-69375580D02*
X103172904Y-69280342D01*
X103172904Y-69280342D02*
X103220523Y-69089866D01*
X103220523Y-69089866D02*
X103220523Y-68851771D01*
X103220523Y-68851771D02*
X103172904Y-68661295D01*
X103172904Y-68661295D02*
X103125285Y-68566057D01*
X103125285Y-68566057D02*
X103077666Y-68518438D01*
X103077666Y-68518438D02*
X102982428Y-68470819D01*
X118653666Y-54729580D02*
X118701285Y-54777200D01*
X118701285Y-54777200D02*
X118844142Y-54824819D01*
X118844142Y-54824819D02*
X118939380Y-54824819D01*
X118939380Y-54824819D02*
X119082237Y-54777200D01*
X119082237Y-54777200D02*
X119177475Y-54681961D01*
X119177475Y-54681961D02*
X119225094Y-54586723D01*
X119225094Y-54586723D02*
X119272713Y-54396247D01*
X119272713Y-54396247D02*
X119272713Y-54253390D01*
X119272713Y-54253390D02*
X119225094Y-54062914D01*
X119225094Y-54062914D02*
X119177475Y-53967676D01*
X119177475Y-53967676D02*
X119082237Y-53872438D01*
X119082237Y-53872438D02*
X118939380Y-53824819D01*
X118939380Y-53824819D02*
X118844142Y-53824819D01*
X118844142Y-53824819D02*
X118701285Y-53872438D01*
X118701285Y-53872438D02*
X118653666Y-53920057D01*
X118177475Y-54824819D02*
X117986999Y-54824819D01*
X117986999Y-54824819D02*
X117891761Y-54777200D01*
X117891761Y-54777200D02*
X117844142Y-54729580D01*
X117844142Y-54729580D02*
X117748904Y-54586723D01*
X117748904Y-54586723D02*
X117701285Y-54396247D01*
X117701285Y-54396247D02*
X117701285Y-54015295D01*
X117701285Y-54015295D02*
X117748904Y-53920057D01*
X117748904Y-53920057D02*
X117796523Y-53872438D01*
X117796523Y-53872438D02*
X117891761Y-53824819D01*
X117891761Y-53824819D02*
X118082237Y-53824819D01*
X118082237Y-53824819D02*
X118177475Y-53872438D01*
X118177475Y-53872438D02*
X118225094Y-53920057D01*
X118225094Y-53920057D02*
X118272713Y-54015295D01*
X118272713Y-54015295D02*
X118272713Y-54253390D01*
X118272713Y-54253390D02*
X118225094Y-54348628D01*
X118225094Y-54348628D02*
X118177475Y-54396247D01*
X118177475Y-54396247D02*
X118082237Y-54443866D01*
X118082237Y-54443866D02*
X117891761Y-54443866D01*
X117891761Y-54443866D02*
X117796523Y-54396247D01*
X117796523Y-54396247D02*
X117748904Y-54348628D01*
X117748904Y-54348628D02*
X117701285Y-54253390D01*
X155893666Y-83724819D02*
X156226999Y-83248628D01*
X156465094Y-83724819D02*
X156465094Y-82724819D01*
X156465094Y-82724819D02*
X156084142Y-82724819D01*
X156084142Y-82724819D02*
X155988904Y-82772438D01*
X155988904Y-82772438D02*
X155941285Y-82820057D01*
X155941285Y-82820057D02*
X155893666Y-82915295D01*
X155893666Y-82915295D02*
X155893666Y-83058152D01*
X155893666Y-83058152D02*
X155941285Y-83153390D01*
X155941285Y-83153390D02*
X155988904Y-83201009D01*
X155988904Y-83201009D02*
X156084142Y-83248628D01*
X156084142Y-83248628D02*
X156465094Y-83248628D01*
X155417475Y-83724819D02*
X155226999Y-83724819D01*
X155226999Y-83724819D02*
X155131761Y-83677200D01*
X155131761Y-83677200D02*
X155084142Y-83629580D01*
X155084142Y-83629580D02*
X154988904Y-83486723D01*
X154988904Y-83486723D02*
X154941285Y-83296247D01*
X154941285Y-83296247D02*
X154941285Y-82915295D01*
X154941285Y-82915295D02*
X154988904Y-82820057D01*
X154988904Y-82820057D02*
X155036523Y-82772438D01*
X155036523Y-82772438D02*
X155131761Y-82724819D01*
X155131761Y-82724819D02*
X155322237Y-82724819D01*
X155322237Y-82724819D02*
X155417475Y-82772438D01*
X155417475Y-82772438D02*
X155465094Y-82820057D01*
X155465094Y-82820057D02*
X155512713Y-82915295D01*
X155512713Y-82915295D02*
X155512713Y-83153390D01*
X155512713Y-83153390D02*
X155465094Y-83248628D01*
X155465094Y-83248628D02*
X155417475Y-83296247D01*
X155417475Y-83296247D02*
X155322237Y-83343866D01*
X155322237Y-83343866D02*
X155131761Y-83343866D01*
X155131761Y-83343866D02*
X155036523Y-83296247D01*
X155036523Y-83296247D02*
X154988904Y-83248628D01*
X154988904Y-83248628D02*
X154941285Y-83153390D01*
X109887857Y-89132580D02*
X109935476Y-89180200D01*
X109935476Y-89180200D02*
X110078333Y-89227819D01*
X110078333Y-89227819D02*
X110173571Y-89227819D01*
X110173571Y-89227819D02*
X110316428Y-89180200D01*
X110316428Y-89180200D02*
X110411666Y-89084961D01*
X110411666Y-89084961D02*
X110459285Y-88989723D01*
X110459285Y-88989723D02*
X110506904Y-88799247D01*
X110506904Y-88799247D02*
X110506904Y-88656390D01*
X110506904Y-88656390D02*
X110459285Y-88465914D01*
X110459285Y-88465914D02*
X110411666Y-88370676D01*
X110411666Y-88370676D02*
X110316428Y-88275438D01*
X110316428Y-88275438D02*
X110173571Y-88227819D01*
X110173571Y-88227819D02*
X110078333Y-88227819D01*
X110078333Y-88227819D02*
X109935476Y-88275438D01*
X109935476Y-88275438D02*
X109887857Y-88323057D01*
X108935476Y-89227819D02*
X109506904Y-89227819D01*
X109221190Y-89227819D02*
X109221190Y-88227819D01*
X109221190Y-88227819D02*
X109316428Y-88370676D01*
X109316428Y-88370676D02*
X109411666Y-88465914D01*
X109411666Y-88465914D02*
X109506904Y-88513533D01*
X108078333Y-88561152D02*
X108078333Y-89227819D01*
X108316428Y-88180200D02*
X108554523Y-88894485D01*
X108554523Y-88894485D02*
X107935476Y-88894485D01*
X112394333Y-98260819D02*
X112394333Y-98975104D01*
X112394333Y-98975104D02*
X112441952Y-99117961D01*
X112441952Y-99117961D02*
X112537190Y-99213200D01*
X112537190Y-99213200D02*
X112680047Y-99260819D01*
X112680047Y-99260819D02*
X112775285Y-99260819D01*
X111918142Y-99260819D02*
X111918142Y-98260819D01*
X111918142Y-98260819D02*
X111537190Y-98260819D01*
X111537190Y-98260819D02*
X111441952Y-98308438D01*
X111441952Y-98308438D02*
X111394333Y-98356057D01*
X111394333Y-98356057D02*
X111346714Y-98451295D01*
X111346714Y-98451295D02*
X111346714Y-98594152D01*
X111346714Y-98594152D02*
X111394333Y-98689390D01*
X111394333Y-98689390D02*
X111441952Y-98737009D01*
X111441952Y-98737009D02*
X111537190Y-98784628D01*
X111537190Y-98784628D02*
X111918142Y-98784628D01*
X111013380Y-98260819D02*
X110394333Y-98260819D01*
X110394333Y-98260819D02*
X110727666Y-98641771D01*
X110727666Y-98641771D02*
X110584809Y-98641771D01*
X110584809Y-98641771D02*
X110489571Y-98689390D01*
X110489571Y-98689390D02*
X110441952Y-98737009D01*
X110441952Y-98737009D02*
X110394333Y-98832247D01*
X110394333Y-98832247D02*
X110394333Y-99070342D01*
X110394333Y-99070342D02*
X110441952Y-99165580D01*
X110441952Y-99165580D02*
X110489571Y-99213200D01*
X110489571Y-99213200D02*
X110584809Y-99260819D01*
X110584809Y-99260819D02*
X110870523Y-99260819D01*
X110870523Y-99260819D02*
X110965761Y-99213200D01*
X110965761Y-99213200D02*
X111013380Y-99165580D01*
X127318666Y-61329819D02*
X127651999Y-60853628D01*
X127890094Y-61329819D02*
X127890094Y-60329819D01*
X127890094Y-60329819D02*
X127509142Y-60329819D01*
X127509142Y-60329819D02*
X127413904Y-60377438D01*
X127413904Y-60377438D02*
X127366285Y-60425057D01*
X127366285Y-60425057D02*
X127318666Y-60520295D01*
X127318666Y-60520295D02*
X127318666Y-60663152D01*
X127318666Y-60663152D02*
X127366285Y-60758390D01*
X127366285Y-60758390D02*
X127413904Y-60806009D01*
X127413904Y-60806009D02*
X127509142Y-60853628D01*
X127509142Y-60853628D02*
X127890094Y-60853628D01*
X126461523Y-60329819D02*
X126651999Y-60329819D01*
X126651999Y-60329819D02*
X126747237Y-60377438D01*
X126747237Y-60377438D02*
X126794856Y-60425057D01*
X126794856Y-60425057D02*
X126890094Y-60567914D01*
X126890094Y-60567914D02*
X126937713Y-60758390D01*
X126937713Y-60758390D02*
X126937713Y-61139342D01*
X126937713Y-61139342D02*
X126890094Y-61234580D01*
X126890094Y-61234580D02*
X126842475Y-61282200D01*
X126842475Y-61282200D02*
X126747237Y-61329819D01*
X126747237Y-61329819D02*
X126556761Y-61329819D01*
X126556761Y-61329819D02*
X126461523Y-61282200D01*
X126461523Y-61282200D02*
X126413904Y-61234580D01*
X126413904Y-61234580D02*
X126366285Y-61139342D01*
X126366285Y-61139342D02*
X126366285Y-60901247D01*
X126366285Y-60901247D02*
X126413904Y-60806009D01*
X126413904Y-60806009D02*
X126461523Y-60758390D01*
X126461523Y-60758390D02*
X126556761Y-60710771D01*
X126556761Y-60710771D02*
X126747237Y-60710771D01*
X126747237Y-60710771D02*
X126842475Y-60758390D01*
X126842475Y-60758390D02*
X126890094Y-60806009D01*
X126890094Y-60806009D02*
X126937713Y-60901247D01*
X155058857Y-73733819D02*
X155392190Y-73257628D01*
X155630285Y-73733819D02*
X155630285Y-72733819D01*
X155630285Y-72733819D02*
X155249333Y-72733819D01*
X155249333Y-72733819D02*
X155154095Y-72781438D01*
X155154095Y-72781438D02*
X155106476Y-72829057D01*
X155106476Y-72829057D02*
X155058857Y-72924295D01*
X155058857Y-72924295D02*
X155058857Y-73067152D01*
X155058857Y-73067152D02*
X155106476Y-73162390D01*
X155106476Y-73162390D02*
X155154095Y-73210009D01*
X155154095Y-73210009D02*
X155249333Y-73257628D01*
X155249333Y-73257628D02*
X155630285Y-73257628D01*
X154725523Y-72733819D02*
X154106476Y-72733819D01*
X154106476Y-72733819D02*
X154439809Y-73114771D01*
X154439809Y-73114771D02*
X154296952Y-73114771D01*
X154296952Y-73114771D02*
X154201714Y-73162390D01*
X154201714Y-73162390D02*
X154154095Y-73210009D01*
X154154095Y-73210009D02*
X154106476Y-73305247D01*
X154106476Y-73305247D02*
X154106476Y-73543342D01*
X154106476Y-73543342D02*
X154154095Y-73638580D01*
X154154095Y-73638580D02*
X154201714Y-73686200D01*
X154201714Y-73686200D02*
X154296952Y-73733819D01*
X154296952Y-73733819D02*
X154582666Y-73733819D01*
X154582666Y-73733819D02*
X154677904Y-73686200D01*
X154677904Y-73686200D02*
X154725523Y-73638580D01*
X153725523Y-72829057D02*
X153677904Y-72781438D01*
X153677904Y-72781438D02*
X153582666Y-72733819D01*
X153582666Y-72733819D02*
X153344571Y-72733819D01*
X153344571Y-72733819D02*
X153249333Y-72781438D01*
X153249333Y-72781438D02*
X153201714Y-72829057D01*
X153201714Y-72829057D02*
X153154095Y-72924295D01*
X153154095Y-72924295D02*
X153154095Y-73019533D01*
X153154095Y-73019533D02*
X153201714Y-73162390D01*
X153201714Y-73162390D02*
X153773142Y-73733819D01*
X153773142Y-73733819D02*
X153154095Y-73733819D01*
X133541666Y-60739580D02*
X133589285Y-60787200D01*
X133589285Y-60787200D02*
X133732142Y-60834819D01*
X133732142Y-60834819D02*
X133827380Y-60834819D01*
X133827380Y-60834819D02*
X133970237Y-60787200D01*
X133970237Y-60787200D02*
X134065475Y-60691961D01*
X134065475Y-60691961D02*
X134113094Y-60596723D01*
X134113094Y-60596723D02*
X134160713Y-60406247D01*
X134160713Y-60406247D02*
X134160713Y-60263390D01*
X134160713Y-60263390D02*
X134113094Y-60072914D01*
X134113094Y-60072914D02*
X134065475Y-59977676D01*
X134065475Y-59977676D02*
X133970237Y-59882438D01*
X133970237Y-59882438D02*
X133827380Y-59834819D01*
X133827380Y-59834819D02*
X133732142Y-59834819D01*
X133732142Y-59834819D02*
X133589285Y-59882438D01*
X133589285Y-59882438D02*
X133541666Y-59930057D01*
X133160713Y-59930057D02*
X133113094Y-59882438D01*
X133113094Y-59882438D02*
X133017856Y-59834819D01*
X133017856Y-59834819D02*
X132779761Y-59834819D01*
X132779761Y-59834819D02*
X132684523Y-59882438D01*
X132684523Y-59882438D02*
X132636904Y-59930057D01*
X132636904Y-59930057D02*
X132589285Y-60025295D01*
X132589285Y-60025295D02*
X132589285Y-60120533D01*
X132589285Y-60120533D02*
X132636904Y-60263390D01*
X132636904Y-60263390D02*
X133208332Y-60834819D01*
X133208332Y-60834819D02*
X132589285Y-60834819D01*
X119925857Y-118056819D02*
X120259190Y-117580628D01*
X120497285Y-118056819D02*
X120497285Y-117056819D01*
X120497285Y-117056819D02*
X120116333Y-117056819D01*
X120116333Y-117056819D02*
X120021095Y-117104438D01*
X120021095Y-117104438D02*
X119973476Y-117152057D01*
X119973476Y-117152057D02*
X119925857Y-117247295D01*
X119925857Y-117247295D02*
X119925857Y-117390152D01*
X119925857Y-117390152D02*
X119973476Y-117485390D01*
X119973476Y-117485390D02*
X120021095Y-117533009D01*
X120021095Y-117533009D02*
X120116333Y-117580628D01*
X120116333Y-117580628D02*
X120497285Y-117580628D01*
X119592523Y-117056819D02*
X118973476Y-117056819D01*
X118973476Y-117056819D02*
X119306809Y-117437771D01*
X119306809Y-117437771D02*
X119163952Y-117437771D01*
X119163952Y-117437771D02*
X119068714Y-117485390D01*
X119068714Y-117485390D02*
X119021095Y-117533009D01*
X119021095Y-117533009D02*
X118973476Y-117628247D01*
X118973476Y-117628247D02*
X118973476Y-117866342D01*
X118973476Y-117866342D02*
X119021095Y-117961580D01*
X119021095Y-117961580D02*
X119068714Y-118009200D01*
X119068714Y-118009200D02*
X119163952Y-118056819D01*
X119163952Y-118056819D02*
X119449666Y-118056819D01*
X119449666Y-118056819D02*
X119544904Y-118009200D01*
X119544904Y-118009200D02*
X119592523Y-117961580D01*
X118354428Y-117056819D02*
X118259190Y-117056819D01*
X118259190Y-117056819D02*
X118163952Y-117104438D01*
X118163952Y-117104438D02*
X118116333Y-117152057D01*
X118116333Y-117152057D02*
X118068714Y-117247295D01*
X118068714Y-117247295D02*
X118021095Y-117437771D01*
X118021095Y-117437771D02*
X118021095Y-117675866D01*
X118021095Y-117675866D02*
X118068714Y-117866342D01*
X118068714Y-117866342D02*
X118116333Y-117961580D01*
X118116333Y-117961580D02*
X118163952Y-118009200D01*
X118163952Y-118009200D02*
X118259190Y-118056819D01*
X118259190Y-118056819D02*
X118354428Y-118056819D01*
X118354428Y-118056819D02*
X118449666Y-118009200D01*
X118449666Y-118009200D02*
X118497285Y-117961580D01*
X118497285Y-117961580D02*
X118544904Y-117866342D01*
X118544904Y-117866342D02*
X118592523Y-117675866D01*
X118592523Y-117675866D02*
X118592523Y-117437771D01*
X118592523Y-117437771D02*
X118544904Y-117247295D01*
X118544904Y-117247295D02*
X118497285Y-117152057D01*
X118497285Y-117152057D02*
X118449666Y-117104438D01*
X118449666Y-117104438D02*
X118354428Y-117056819D01*
X110649857Y-81639580D02*
X110697476Y-81687200D01*
X110697476Y-81687200D02*
X110840333Y-81734819D01*
X110840333Y-81734819D02*
X110935571Y-81734819D01*
X110935571Y-81734819D02*
X111078428Y-81687200D01*
X111078428Y-81687200D02*
X111173666Y-81591961D01*
X111173666Y-81591961D02*
X111221285Y-81496723D01*
X111221285Y-81496723D02*
X111268904Y-81306247D01*
X111268904Y-81306247D02*
X111268904Y-81163390D01*
X111268904Y-81163390D02*
X111221285Y-80972914D01*
X111221285Y-80972914D02*
X111173666Y-80877676D01*
X111173666Y-80877676D02*
X111078428Y-80782438D01*
X111078428Y-80782438D02*
X110935571Y-80734819D01*
X110935571Y-80734819D02*
X110840333Y-80734819D01*
X110840333Y-80734819D02*
X110697476Y-80782438D01*
X110697476Y-80782438D02*
X110649857Y-80830057D01*
X109697476Y-81734819D02*
X110268904Y-81734819D01*
X109983190Y-81734819D02*
X109983190Y-80734819D01*
X109983190Y-80734819D02*
X110078428Y-80877676D01*
X110078428Y-80877676D02*
X110173666Y-80972914D01*
X110173666Y-80972914D02*
X110268904Y-81020533D01*
X108745095Y-81734819D02*
X109316523Y-81734819D01*
X109030809Y-81734819D02*
X109030809Y-80734819D01*
X109030809Y-80734819D02*
X109126047Y-80877676D01*
X109126047Y-80877676D02*
X109221285Y-80972914D01*
X109221285Y-80972914D02*
X109316523Y-81020533D01*
X140018666Y-58017580D02*
X140066285Y-58065200D01*
X140066285Y-58065200D02*
X140209142Y-58112819D01*
X140209142Y-58112819D02*
X140304380Y-58112819D01*
X140304380Y-58112819D02*
X140447237Y-58065200D01*
X140447237Y-58065200D02*
X140542475Y-57969961D01*
X140542475Y-57969961D02*
X140590094Y-57874723D01*
X140590094Y-57874723D02*
X140637713Y-57684247D01*
X140637713Y-57684247D02*
X140637713Y-57541390D01*
X140637713Y-57541390D02*
X140590094Y-57350914D01*
X140590094Y-57350914D02*
X140542475Y-57255676D01*
X140542475Y-57255676D02*
X140447237Y-57160438D01*
X140447237Y-57160438D02*
X140304380Y-57112819D01*
X140304380Y-57112819D02*
X140209142Y-57112819D01*
X140209142Y-57112819D02*
X140066285Y-57160438D01*
X140066285Y-57160438D02*
X140018666Y-57208057D01*
X139066285Y-58112819D02*
X139637713Y-58112819D01*
X139351999Y-58112819D02*
X139351999Y-57112819D01*
X139351999Y-57112819D02*
X139447237Y-57255676D01*
X139447237Y-57255676D02*
X139542475Y-57350914D01*
X139542475Y-57350914D02*
X139637713Y-57398533D01*
X131920357Y-66833819D02*
X132253690Y-66357628D01*
X132491785Y-66833819D02*
X132491785Y-65833819D01*
X132491785Y-65833819D02*
X132110833Y-65833819D01*
X132110833Y-65833819D02*
X132015595Y-65881438D01*
X132015595Y-65881438D02*
X131967976Y-65929057D01*
X131967976Y-65929057D02*
X131920357Y-66024295D01*
X131920357Y-66024295D02*
X131920357Y-66167152D01*
X131920357Y-66167152D02*
X131967976Y-66262390D01*
X131967976Y-66262390D02*
X132015595Y-66310009D01*
X132015595Y-66310009D02*
X132110833Y-66357628D01*
X132110833Y-66357628D02*
X132491785Y-66357628D01*
X130967976Y-66833819D02*
X131539404Y-66833819D01*
X131253690Y-66833819D02*
X131253690Y-65833819D01*
X131253690Y-65833819D02*
X131348928Y-65976676D01*
X131348928Y-65976676D02*
X131444166Y-66071914D01*
X131444166Y-66071914D02*
X131539404Y-66119533D01*
X130348928Y-65833819D02*
X130253690Y-65833819D01*
X130253690Y-65833819D02*
X130158452Y-65881438D01*
X130158452Y-65881438D02*
X130110833Y-65929057D01*
X130110833Y-65929057D02*
X130063214Y-66024295D01*
X130063214Y-66024295D02*
X130015595Y-66214771D01*
X130015595Y-66214771D02*
X130015595Y-66452866D01*
X130015595Y-66452866D02*
X130063214Y-66643342D01*
X130063214Y-66643342D02*
X130110833Y-66738580D01*
X130110833Y-66738580D02*
X130158452Y-66786200D01*
X130158452Y-66786200D02*
X130253690Y-66833819D01*
X130253690Y-66833819D02*
X130348928Y-66833819D01*
X130348928Y-66833819D02*
X130444166Y-66786200D01*
X130444166Y-66786200D02*
X130491785Y-66738580D01*
X130491785Y-66738580D02*
X130539404Y-66643342D01*
X130539404Y-66643342D02*
X130587023Y-66452866D01*
X130587023Y-66452866D02*
X130587023Y-66214771D01*
X130587023Y-66214771D02*
X130539404Y-66024295D01*
X130539404Y-66024295D02*
X130491785Y-65929057D01*
X130491785Y-65929057D02*
X130444166Y-65881438D01*
X130444166Y-65881438D02*
X130348928Y-65833819D01*
X138843857Y-77670819D02*
X139177190Y-77194628D01*
X139415285Y-77670819D02*
X139415285Y-76670819D01*
X139415285Y-76670819D02*
X139034333Y-76670819D01*
X139034333Y-76670819D02*
X138939095Y-76718438D01*
X138939095Y-76718438D02*
X138891476Y-76766057D01*
X138891476Y-76766057D02*
X138843857Y-76861295D01*
X138843857Y-76861295D02*
X138843857Y-77004152D01*
X138843857Y-77004152D02*
X138891476Y-77099390D01*
X138891476Y-77099390D02*
X138939095Y-77147009D01*
X138939095Y-77147009D02*
X139034333Y-77194628D01*
X139034333Y-77194628D02*
X139415285Y-77194628D01*
X137891476Y-77670819D02*
X138462904Y-77670819D01*
X138177190Y-77670819D02*
X138177190Y-76670819D01*
X138177190Y-76670819D02*
X138272428Y-76813676D01*
X138272428Y-76813676D02*
X138367666Y-76908914D01*
X138367666Y-76908914D02*
X138462904Y-76956533D01*
X137034333Y-76670819D02*
X137224809Y-76670819D01*
X137224809Y-76670819D02*
X137320047Y-76718438D01*
X137320047Y-76718438D02*
X137367666Y-76766057D01*
X137367666Y-76766057D02*
X137462904Y-76908914D01*
X137462904Y-76908914D02*
X137510523Y-77099390D01*
X137510523Y-77099390D02*
X137510523Y-77480342D01*
X137510523Y-77480342D02*
X137462904Y-77575580D01*
X137462904Y-77575580D02*
X137415285Y-77623200D01*
X137415285Y-77623200D02*
X137320047Y-77670819D01*
X137320047Y-77670819D02*
X137129571Y-77670819D01*
X137129571Y-77670819D02*
X137034333Y-77623200D01*
X137034333Y-77623200D02*
X136986714Y-77575580D01*
X136986714Y-77575580D02*
X136939095Y-77480342D01*
X136939095Y-77480342D02*
X136939095Y-77242247D01*
X136939095Y-77242247D02*
X136986714Y-77147009D01*
X136986714Y-77147009D02*
X137034333Y-77099390D01*
X137034333Y-77099390D02*
X137129571Y-77051771D01*
X137129571Y-77051771D02*
X137320047Y-77051771D01*
X137320047Y-77051771D02*
X137415285Y-77099390D01*
X137415285Y-77099390D02*
X137462904Y-77147009D01*
X137462904Y-77147009D02*
X137510523Y-77242247D01*
X118469166Y-63869819D02*
X118802499Y-63393628D01*
X119040594Y-63869819D02*
X119040594Y-62869819D01*
X119040594Y-62869819D02*
X118659642Y-62869819D01*
X118659642Y-62869819D02*
X118564404Y-62917438D01*
X118564404Y-62917438D02*
X118516785Y-62965057D01*
X118516785Y-62965057D02*
X118469166Y-63060295D01*
X118469166Y-63060295D02*
X118469166Y-63203152D01*
X118469166Y-63203152D02*
X118516785Y-63298390D01*
X118516785Y-63298390D02*
X118564404Y-63346009D01*
X118564404Y-63346009D02*
X118659642Y-63393628D01*
X118659642Y-63393628D02*
X119040594Y-63393628D01*
X117564404Y-62869819D02*
X118040594Y-62869819D01*
X118040594Y-62869819D02*
X118088213Y-63346009D01*
X118088213Y-63346009D02*
X118040594Y-63298390D01*
X118040594Y-63298390D02*
X117945356Y-63250771D01*
X117945356Y-63250771D02*
X117707261Y-63250771D01*
X117707261Y-63250771D02*
X117612023Y-63298390D01*
X117612023Y-63298390D02*
X117564404Y-63346009D01*
X117564404Y-63346009D02*
X117516785Y-63441247D01*
X117516785Y-63441247D02*
X117516785Y-63679342D01*
X117516785Y-63679342D02*
X117564404Y-63774580D01*
X117564404Y-63774580D02*
X117612023Y-63822200D01*
X117612023Y-63822200D02*
X117707261Y-63869819D01*
X117707261Y-63869819D02*
X117945356Y-63869819D01*
X117945356Y-63869819D02*
X118040594Y-63822200D01*
X118040594Y-63822200D02*
X118088213Y-63774580D01*
X150354333Y-64351819D02*
X150354333Y-65066104D01*
X150354333Y-65066104D02*
X150401952Y-65208961D01*
X150401952Y-65208961D02*
X150497190Y-65304200D01*
X150497190Y-65304200D02*
X150640047Y-65351819D01*
X150640047Y-65351819D02*
X150735285Y-65351819D01*
X149878142Y-65351819D02*
X149878142Y-64351819D01*
X149878142Y-64351819D02*
X149497190Y-64351819D01*
X149497190Y-64351819D02*
X149401952Y-64399438D01*
X149401952Y-64399438D02*
X149354333Y-64447057D01*
X149354333Y-64447057D02*
X149306714Y-64542295D01*
X149306714Y-64542295D02*
X149306714Y-64685152D01*
X149306714Y-64685152D02*
X149354333Y-64780390D01*
X149354333Y-64780390D02*
X149401952Y-64828009D01*
X149401952Y-64828009D02*
X149497190Y-64875628D01*
X149497190Y-64875628D02*
X149878142Y-64875628D01*
X148735285Y-64780390D02*
X148830523Y-64732771D01*
X148830523Y-64732771D02*
X148878142Y-64685152D01*
X148878142Y-64685152D02*
X148925761Y-64589914D01*
X148925761Y-64589914D02*
X148925761Y-64542295D01*
X148925761Y-64542295D02*
X148878142Y-64447057D01*
X148878142Y-64447057D02*
X148830523Y-64399438D01*
X148830523Y-64399438D02*
X148735285Y-64351819D01*
X148735285Y-64351819D02*
X148544809Y-64351819D01*
X148544809Y-64351819D02*
X148449571Y-64399438D01*
X148449571Y-64399438D02*
X148401952Y-64447057D01*
X148401952Y-64447057D02*
X148354333Y-64542295D01*
X148354333Y-64542295D02*
X148354333Y-64589914D01*
X148354333Y-64589914D02*
X148401952Y-64685152D01*
X148401952Y-64685152D02*
X148449571Y-64732771D01*
X148449571Y-64732771D02*
X148544809Y-64780390D01*
X148544809Y-64780390D02*
X148735285Y-64780390D01*
X148735285Y-64780390D02*
X148830523Y-64828009D01*
X148830523Y-64828009D02*
X148878142Y-64875628D01*
X148878142Y-64875628D02*
X148925761Y-64970866D01*
X148925761Y-64970866D02*
X148925761Y-65161342D01*
X148925761Y-65161342D02*
X148878142Y-65256580D01*
X148878142Y-65256580D02*
X148830523Y-65304200D01*
X148830523Y-65304200D02*
X148735285Y-65351819D01*
X148735285Y-65351819D02*
X148544809Y-65351819D01*
X148544809Y-65351819D02*
X148449571Y-65304200D01*
X148449571Y-65304200D02*
X148401952Y-65256580D01*
X148401952Y-65256580D02*
X148354333Y-65161342D01*
X148354333Y-65161342D02*
X148354333Y-64970866D01*
X148354333Y-64970866D02*
X148401952Y-64875628D01*
X148401952Y-64875628D02*
X148449571Y-64828009D01*
X148449571Y-64828009D02*
X148544809Y-64780390D01*
X112271819Y-65397142D02*
X111795628Y-65063809D01*
X112271819Y-64825714D02*
X111271819Y-64825714D01*
X111271819Y-64825714D02*
X111271819Y-65206666D01*
X111271819Y-65206666D02*
X111319438Y-65301904D01*
X111319438Y-65301904D02*
X111367057Y-65349523D01*
X111367057Y-65349523D02*
X111462295Y-65397142D01*
X111462295Y-65397142D02*
X111605152Y-65397142D01*
X111605152Y-65397142D02*
X111700390Y-65349523D01*
X111700390Y-65349523D02*
X111748009Y-65301904D01*
X111748009Y-65301904D02*
X111795628Y-65206666D01*
X111795628Y-65206666D02*
X111795628Y-64825714D01*
X112271819Y-66349523D02*
X112271819Y-65778095D01*
X112271819Y-66063809D02*
X111271819Y-66063809D01*
X111271819Y-66063809D02*
X111414676Y-65968571D01*
X111414676Y-65968571D02*
X111509914Y-65873333D01*
X111509914Y-65873333D02*
X111557533Y-65778095D01*
X112271819Y-67301904D02*
X112271819Y-66730476D01*
X112271819Y-67016190D02*
X111271819Y-67016190D01*
X111271819Y-67016190D02*
X111414676Y-66920952D01*
X111414676Y-66920952D02*
X111509914Y-66825714D01*
X111509914Y-66825714D02*
X111557533Y-66730476D01*
X144939857Y-58239819D02*
X145273190Y-57763628D01*
X145511285Y-58239819D02*
X145511285Y-57239819D01*
X145511285Y-57239819D02*
X145130333Y-57239819D01*
X145130333Y-57239819D02*
X145035095Y-57287438D01*
X145035095Y-57287438D02*
X144987476Y-57335057D01*
X144987476Y-57335057D02*
X144939857Y-57430295D01*
X144939857Y-57430295D02*
X144939857Y-57573152D01*
X144939857Y-57573152D02*
X144987476Y-57668390D01*
X144987476Y-57668390D02*
X145035095Y-57716009D01*
X145035095Y-57716009D02*
X145130333Y-57763628D01*
X145130333Y-57763628D02*
X145511285Y-57763628D01*
X144558904Y-57335057D02*
X144511285Y-57287438D01*
X144511285Y-57287438D02*
X144416047Y-57239819D01*
X144416047Y-57239819D02*
X144177952Y-57239819D01*
X144177952Y-57239819D02*
X144082714Y-57287438D01*
X144082714Y-57287438D02*
X144035095Y-57335057D01*
X144035095Y-57335057D02*
X143987476Y-57430295D01*
X143987476Y-57430295D02*
X143987476Y-57525533D01*
X143987476Y-57525533D02*
X144035095Y-57668390D01*
X144035095Y-57668390D02*
X144606523Y-58239819D01*
X144606523Y-58239819D02*
X143987476Y-58239819D01*
X143130333Y-57573152D02*
X143130333Y-58239819D01*
X143368428Y-57192200D02*
X143606523Y-57906485D01*
X143606523Y-57906485D02*
X142987476Y-57906485D01*
X136335666Y-66653580D02*
X136383285Y-66701200D01*
X136383285Y-66701200D02*
X136526142Y-66748819D01*
X136526142Y-66748819D02*
X136621380Y-66748819D01*
X136621380Y-66748819D02*
X136764237Y-66701200D01*
X136764237Y-66701200D02*
X136859475Y-66605961D01*
X136859475Y-66605961D02*
X136907094Y-66510723D01*
X136907094Y-66510723D02*
X136954713Y-66320247D01*
X136954713Y-66320247D02*
X136954713Y-66177390D01*
X136954713Y-66177390D02*
X136907094Y-65986914D01*
X136907094Y-65986914D02*
X136859475Y-65891676D01*
X136859475Y-65891676D02*
X136764237Y-65796438D01*
X136764237Y-65796438D02*
X136621380Y-65748819D01*
X136621380Y-65748819D02*
X136526142Y-65748819D01*
X136526142Y-65748819D02*
X136383285Y-65796438D01*
X136383285Y-65796438D02*
X136335666Y-65844057D01*
X135478523Y-65748819D02*
X135668999Y-65748819D01*
X135668999Y-65748819D02*
X135764237Y-65796438D01*
X135764237Y-65796438D02*
X135811856Y-65844057D01*
X135811856Y-65844057D02*
X135907094Y-65986914D01*
X135907094Y-65986914D02*
X135954713Y-66177390D01*
X135954713Y-66177390D02*
X135954713Y-66558342D01*
X135954713Y-66558342D02*
X135907094Y-66653580D01*
X135907094Y-66653580D02*
X135859475Y-66701200D01*
X135859475Y-66701200D02*
X135764237Y-66748819D01*
X135764237Y-66748819D02*
X135573761Y-66748819D01*
X135573761Y-66748819D02*
X135478523Y-66701200D01*
X135478523Y-66701200D02*
X135430904Y-66653580D01*
X135430904Y-66653580D02*
X135383285Y-66558342D01*
X135383285Y-66558342D02*
X135383285Y-66320247D01*
X135383285Y-66320247D02*
X135430904Y-66225009D01*
X135430904Y-66225009D02*
X135478523Y-66177390D01*
X135478523Y-66177390D02*
X135573761Y-66129771D01*
X135573761Y-66129771D02*
X135764237Y-66129771D01*
X135764237Y-66129771D02*
X135859475Y-66177390D01*
X135859475Y-66177390D02*
X135907094Y-66225009D01*
X135907094Y-66225009D02*
X135954713Y-66320247D01*
X125210819Y-62124833D02*
X124734628Y-61791500D01*
X125210819Y-61553405D02*
X124210819Y-61553405D01*
X124210819Y-61553405D02*
X124210819Y-61934357D01*
X124210819Y-61934357D02*
X124258438Y-62029595D01*
X124258438Y-62029595D02*
X124306057Y-62077214D01*
X124306057Y-62077214D02*
X124401295Y-62124833D01*
X124401295Y-62124833D02*
X124544152Y-62124833D01*
X124544152Y-62124833D02*
X124639390Y-62077214D01*
X124639390Y-62077214D02*
X124687009Y-62029595D01*
X124687009Y-62029595D02*
X124734628Y-61934357D01*
X124734628Y-61934357D02*
X124734628Y-61553405D01*
X124210819Y-62458167D02*
X124210819Y-63124833D01*
X124210819Y-63124833D02*
X125210819Y-62696262D01*
X114756580Y-57188333D02*
X114804200Y-57140714D01*
X114804200Y-57140714D02*
X114851819Y-56997857D01*
X114851819Y-56997857D02*
X114851819Y-56902619D01*
X114851819Y-56902619D02*
X114804200Y-56759762D01*
X114804200Y-56759762D02*
X114708961Y-56664524D01*
X114708961Y-56664524D02*
X114613723Y-56616905D01*
X114613723Y-56616905D02*
X114423247Y-56569286D01*
X114423247Y-56569286D02*
X114280390Y-56569286D01*
X114280390Y-56569286D02*
X114089914Y-56616905D01*
X114089914Y-56616905D02*
X113994676Y-56664524D01*
X113994676Y-56664524D02*
X113899438Y-56759762D01*
X113899438Y-56759762D02*
X113851819Y-56902619D01*
X113851819Y-56902619D02*
X113851819Y-56997857D01*
X113851819Y-56997857D02*
X113899438Y-57140714D01*
X113899438Y-57140714D02*
X113947057Y-57188333D01*
X114280390Y-57759762D02*
X114232771Y-57664524D01*
X114232771Y-57664524D02*
X114185152Y-57616905D01*
X114185152Y-57616905D02*
X114089914Y-57569286D01*
X114089914Y-57569286D02*
X114042295Y-57569286D01*
X114042295Y-57569286D02*
X113947057Y-57616905D01*
X113947057Y-57616905D02*
X113899438Y-57664524D01*
X113899438Y-57664524D02*
X113851819Y-57759762D01*
X113851819Y-57759762D02*
X113851819Y-57950238D01*
X113851819Y-57950238D02*
X113899438Y-58045476D01*
X113899438Y-58045476D02*
X113947057Y-58093095D01*
X113947057Y-58093095D02*
X114042295Y-58140714D01*
X114042295Y-58140714D02*
X114089914Y-58140714D01*
X114089914Y-58140714D02*
X114185152Y-58093095D01*
X114185152Y-58093095D02*
X114232771Y-58045476D01*
X114232771Y-58045476D02*
X114280390Y-57950238D01*
X114280390Y-57950238D02*
X114280390Y-57759762D01*
X114280390Y-57759762D02*
X114328009Y-57664524D01*
X114328009Y-57664524D02*
X114375628Y-57616905D01*
X114375628Y-57616905D02*
X114470866Y-57569286D01*
X114470866Y-57569286D02*
X114661342Y-57569286D01*
X114661342Y-57569286D02*
X114756580Y-57616905D01*
X114756580Y-57616905D02*
X114804200Y-57664524D01*
X114804200Y-57664524D02*
X114851819Y-57759762D01*
X114851819Y-57759762D02*
X114851819Y-57950238D01*
X114851819Y-57950238D02*
X114804200Y-58045476D01*
X114804200Y-58045476D02*
X114756580Y-58093095D01*
X114756580Y-58093095D02*
X114661342Y-58140714D01*
X114661342Y-58140714D02*
X114470866Y-58140714D01*
X114470866Y-58140714D02*
X114375628Y-58093095D01*
X114375628Y-58093095D02*
X114328009Y-58045476D01*
X114328009Y-58045476D02*
X114280390Y-57950238D01*
X112394333Y-101054819D02*
X112394333Y-101769104D01*
X112394333Y-101769104D02*
X112441952Y-101911961D01*
X112441952Y-101911961D02*
X112537190Y-102007200D01*
X112537190Y-102007200D02*
X112680047Y-102054819D01*
X112680047Y-102054819D02*
X112775285Y-102054819D01*
X111918142Y-102054819D02*
X111918142Y-101054819D01*
X111918142Y-101054819D02*
X111537190Y-101054819D01*
X111537190Y-101054819D02*
X111441952Y-101102438D01*
X111441952Y-101102438D02*
X111394333Y-101150057D01*
X111394333Y-101150057D02*
X111346714Y-101245295D01*
X111346714Y-101245295D02*
X111346714Y-101388152D01*
X111346714Y-101388152D02*
X111394333Y-101483390D01*
X111394333Y-101483390D02*
X111441952Y-101531009D01*
X111441952Y-101531009D02*
X111537190Y-101578628D01*
X111537190Y-101578628D02*
X111918142Y-101578628D01*
X110489571Y-101388152D02*
X110489571Y-102054819D01*
X110727666Y-101007200D02*
X110965761Y-101721485D01*
X110965761Y-101721485D02*
X110346714Y-101721485D01*
X134938666Y-81734819D02*
X135271999Y-81258628D01*
X135510094Y-81734819D02*
X135510094Y-80734819D01*
X135510094Y-80734819D02*
X135129142Y-80734819D01*
X135129142Y-80734819D02*
X135033904Y-80782438D01*
X135033904Y-80782438D02*
X134986285Y-80830057D01*
X134986285Y-80830057D02*
X134938666Y-80925295D01*
X134938666Y-80925295D02*
X134938666Y-81068152D01*
X134938666Y-81068152D02*
X134986285Y-81163390D01*
X134986285Y-81163390D02*
X135033904Y-81211009D01*
X135033904Y-81211009D02*
X135129142Y-81258628D01*
X135129142Y-81258628D02*
X135510094Y-81258628D01*
X133986285Y-81734819D02*
X134557713Y-81734819D01*
X134271999Y-81734819D02*
X134271999Y-80734819D01*
X134271999Y-80734819D02*
X134367237Y-80877676D01*
X134367237Y-80877676D02*
X134462475Y-80972914D01*
X134462475Y-80972914D02*
X134557713Y-81020533D01*
X113672857Y-76942819D02*
X114006190Y-76466628D01*
X114244285Y-76942819D02*
X114244285Y-75942819D01*
X114244285Y-75942819D02*
X113863333Y-75942819D01*
X113863333Y-75942819D02*
X113768095Y-75990438D01*
X113768095Y-75990438D02*
X113720476Y-76038057D01*
X113720476Y-76038057D02*
X113672857Y-76133295D01*
X113672857Y-76133295D02*
X113672857Y-76276152D01*
X113672857Y-76276152D02*
X113720476Y-76371390D01*
X113720476Y-76371390D02*
X113768095Y-76419009D01*
X113768095Y-76419009D02*
X113863333Y-76466628D01*
X113863333Y-76466628D02*
X114244285Y-76466628D01*
X113339523Y-75942819D02*
X112720476Y-75942819D01*
X112720476Y-75942819D02*
X113053809Y-76323771D01*
X113053809Y-76323771D02*
X112910952Y-76323771D01*
X112910952Y-76323771D02*
X112815714Y-76371390D01*
X112815714Y-76371390D02*
X112768095Y-76419009D01*
X112768095Y-76419009D02*
X112720476Y-76514247D01*
X112720476Y-76514247D02*
X112720476Y-76752342D01*
X112720476Y-76752342D02*
X112768095Y-76847580D01*
X112768095Y-76847580D02*
X112815714Y-76895200D01*
X112815714Y-76895200D02*
X112910952Y-76942819D01*
X112910952Y-76942819D02*
X113196666Y-76942819D01*
X113196666Y-76942819D02*
X113291904Y-76895200D01*
X113291904Y-76895200D02*
X113339523Y-76847580D01*
X111768095Y-76942819D02*
X112339523Y-76942819D01*
X112053809Y-76942819D02*
X112053809Y-75942819D01*
X112053809Y-75942819D02*
X112149047Y-76085676D01*
X112149047Y-76085676D02*
X112244285Y-76180914D01*
X112244285Y-76180914D02*
X112339523Y-76228533D01*
X129543666Y-77509819D02*
X129876999Y-77033628D01*
X130115094Y-77509819D02*
X130115094Y-76509819D01*
X130115094Y-76509819D02*
X129734142Y-76509819D01*
X129734142Y-76509819D02*
X129638904Y-76557438D01*
X129638904Y-76557438D02*
X129591285Y-76605057D01*
X129591285Y-76605057D02*
X129543666Y-76700295D01*
X129543666Y-76700295D02*
X129543666Y-76843152D01*
X129543666Y-76843152D02*
X129591285Y-76938390D01*
X129591285Y-76938390D02*
X129638904Y-76986009D01*
X129638904Y-76986009D02*
X129734142Y-77033628D01*
X129734142Y-77033628D02*
X130115094Y-77033628D01*
X129210332Y-76509819D02*
X128591285Y-76509819D01*
X128591285Y-76509819D02*
X128924618Y-76890771D01*
X128924618Y-76890771D02*
X128781761Y-76890771D01*
X128781761Y-76890771D02*
X128686523Y-76938390D01*
X128686523Y-76938390D02*
X128638904Y-76986009D01*
X128638904Y-76986009D02*
X128591285Y-77081247D01*
X128591285Y-77081247D02*
X128591285Y-77319342D01*
X128591285Y-77319342D02*
X128638904Y-77414580D01*
X128638904Y-77414580D02*
X128686523Y-77462200D01*
X128686523Y-77462200D02*
X128781761Y-77509819D01*
X128781761Y-77509819D02*
X129067475Y-77509819D01*
X129067475Y-77509819D02*
X129162713Y-77462200D01*
X129162713Y-77462200D02*
X129210332Y-77414580D01*
X150436857Y-53887819D02*
X150770190Y-53411628D01*
X151008285Y-53887819D02*
X151008285Y-52887819D01*
X151008285Y-52887819D02*
X150627333Y-52887819D01*
X150627333Y-52887819D02*
X150532095Y-52935438D01*
X150532095Y-52935438D02*
X150484476Y-52983057D01*
X150484476Y-52983057D02*
X150436857Y-53078295D01*
X150436857Y-53078295D02*
X150436857Y-53221152D01*
X150436857Y-53221152D02*
X150484476Y-53316390D01*
X150484476Y-53316390D02*
X150532095Y-53364009D01*
X150532095Y-53364009D02*
X150627333Y-53411628D01*
X150627333Y-53411628D02*
X151008285Y-53411628D01*
X150055904Y-52983057D02*
X150008285Y-52935438D01*
X150008285Y-52935438D02*
X149913047Y-52887819D01*
X149913047Y-52887819D02*
X149674952Y-52887819D01*
X149674952Y-52887819D02*
X149579714Y-52935438D01*
X149579714Y-52935438D02*
X149532095Y-52983057D01*
X149532095Y-52983057D02*
X149484476Y-53078295D01*
X149484476Y-53078295D02*
X149484476Y-53173533D01*
X149484476Y-53173533D02*
X149532095Y-53316390D01*
X149532095Y-53316390D02*
X150103523Y-53887819D01*
X150103523Y-53887819D02*
X149484476Y-53887819D01*
X148627333Y-52887819D02*
X148817809Y-52887819D01*
X148817809Y-52887819D02*
X148913047Y-52935438D01*
X148913047Y-52935438D02*
X148960666Y-52983057D01*
X148960666Y-52983057D02*
X149055904Y-53125914D01*
X149055904Y-53125914D02*
X149103523Y-53316390D01*
X149103523Y-53316390D02*
X149103523Y-53697342D01*
X149103523Y-53697342D02*
X149055904Y-53792580D01*
X149055904Y-53792580D02*
X149008285Y-53840200D01*
X149008285Y-53840200D02*
X148913047Y-53887819D01*
X148913047Y-53887819D02*
X148722571Y-53887819D01*
X148722571Y-53887819D02*
X148627333Y-53840200D01*
X148627333Y-53840200D02*
X148579714Y-53792580D01*
X148579714Y-53792580D02*
X148532095Y-53697342D01*
X148532095Y-53697342D02*
X148532095Y-53459247D01*
X148532095Y-53459247D02*
X148579714Y-53364009D01*
X148579714Y-53364009D02*
X148627333Y-53316390D01*
X148627333Y-53316390D02*
X148722571Y-53268771D01*
X148722571Y-53268771D02*
X148913047Y-53268771D01*
X148913047Y-53268771D02*
X149008285Y-53316390D01*
X149008285Y-53316390D02*
X149055904Y-53364009D01*
X149055904Y-53364009D02*
X149103523Y-53459247D01*
X107500580Y-72223333D02*
X107548200Y-72175714D01*
X107548200Y-72175714D02*
X107595819Y-72032857D01*
X107595819Y-72032857D02*
X107595819Y-71937619D01*
X107595819Y-71937619D02*
X107548200Y-71794762D01*
X107548200Y-71794762D02*
X107452961Y-71699524D01*
X107452961Y-71699524D02*
X107357723Y-71651905D01*
X107357723Y-71651905D02*
X107167247Y-71604286D01*
X107167247Y-71604286D02*
X107024390Y-71604286D01*
X107024390Y-71604286D02*
X106833914Y-71651905D01*
X106833914Y-71651905D02*
X106738676Y-71699524D01*
X106738676Y-71699524D02*
X106643438Y-71794762D01*
X106643438Y-71794762D02*
X106595819Y-71937619D01*
X106595819Y-71937619D02*
X106595819Y-72032857D01*
X106595819Y-72032857D02*
X106643438Y-72175714D01*
X106643438Y-72175714D02*
X106691057Y-72223333D01*
X106595819Y-72556667D02*
X106595819Y-73175714D01*
X106595819Y-73175714D02*
X106976771Y-72842381D01*
X106976771Y-72842381D02*
X106976771Y-72985238D01*
X106976771Y-72985238D02*
X107024390Y-73080476D01*
X107024390Y-73080476D02*
X107072009Y-73128095D01*
X107072009Y-73128095D02*
X107167247Y-73175714D01*
X107167247Y-73175714D02*
X107405342Y-73175714D01*
X107405342Y-73175714D02*
X107500580Y-73128095D01*
X107500580Y-73128095D02*
X107548200Y-73080476D01*
X107548200Y-73080476D02*
X107595819Y-72985238D01*
X107595819Y-72985238D02*
X107595819Y-72699524D01*
X107595819Y-72699524D02*
X107548200Y-72604286D01*
X107548200Y-72604286D02*
X107500580Y-72556667D01*
X111533857Y-91098819D02*
X111867190Y-90622628D01*
X112105285Y-91098819D02*
X112105285Y-90098819D01*
X112105285Y-90098819D02*
X111724333Y-90098819D01*
X111724333Y-90098819D02*
X111629095Y-90146438D01*
X111629095Y-90146438D02*
X111581476Y-90194057D01*
X111581476Y-90194057D02*
X111533857Y-90289295D01*
X111533857Y-90289295D02*
X111533857Y-90432152D01*
X111533857Y-90432152D02*
X111581476Y-90527390D01*
X111581476Y-90527390D02*
X111629095Y-90575009D01*
X111629095Y-90575009D02*
X111724333Y-90622628D01*
X111724333Y-90622628D02*
X112105285Y-90622628D01*
X111152904Y-90194057D02*
X111105285Y-90146438D01*
X111105285Y-90146438D02*
X111010047Y-90098819D01*
X111010047Y-90098819D02*
X110771952Y-90098819D01*
X110771952Y-90098819D02*
X110676714Y-90146438D01*
X110676714Y-90146438D02*
X110629095Y-90194057D01*
X110629095Y-90194057D02*
X110581476Y-90289295D01*
X110581476Y-90289295D02*
X110581476Y-90384533D01*
X110581476Y-90384533D02*
X110629095Y-90527390D01*
X110629095Y-90527390D02*
X111200523Y-91098819D01*
X111200523Y-91098819D02*
X110581476Y-91098819D01*
X110248142Y-90098819D02*
X109629095Y-90098819D01*
X109629095Y-90098819D02*
X109962428Y-90479771D01*
X109962428Y-90479771D02*
X109819571Y-90479771D01*
X109819571Y-90479771D02*
X109724333Y-90527390D01*
X109724333Y-90527390D02*
X109676714Y-90575009D01*
X109676714Y-90575009D02*
X109629095Y-90670247D01*
X109629095Y-90670247D02*
X109629095Y-90908342D01*
X109629095Y-90908342D02*
X109676714Y-91003580D01*
X109676714Y-91003580D02*
X109724333Y-91051200D01*
X109724333Y-91051200D02*
X109819571Y-91098819D01*
X109819571Y-91098819D02*
X110105285Y-91098819D01*
X110105285Y-91098819D02*
X110200523Y-91051200D01*
X110200523Y-91051200D02*
X110248142Y-91003580D01*
X112713819Y-78417142D02*
X112237628Y-78083809D01*
X112713819Y-77845714D02*
X111713819Y-77845714D01*
X111713819Y-77845714D02*
X111713819Y-78226666D01*
X111713819Y-78226666D02*
X111761438Y-78321904D01*
X111761438Y-78321904D02*
X111809057Y-78369523D01*
X111809057Y-78369523D02*
X111904295Y-78417142D01*
X111904295Y-78417142D02*
X112047152Y-78417142D01*
X112047152Y-78417142D02*
X112142390Y-78369523D01*
X112142390Y-78369523D02*
X112190009Y-78321904D01*
X112190009Y-78321904D02*
X112237628Y-78226666D01*
X112237628Y-78226666D02*
X112237628Y-77845714D01*
X112713819Y-79369523D02*
X112713819Y-78798095D01*
X112713819Y-79083809D02*
X111713819Y-79083809D01*
X111713819Y-79083809D02*
X111856676Y-78988571D01*
X111856676Y-78988571D02*
X111951914Y-78893333D01*
X111951914Y-78893333D02*
X111999533Y-78798095D01*
X112713819Y-79845714D02*
X112713819Y-80036190D01*
X112713819Y-80036190D02*
X112666200Y-80131428D01*
X112666200Y-80131428D02*
X112618580Y-80179047D01*
X112618580Y-80179047D02*
X112475723Y-80274285D01*
X112475723Y-80274285D02*
X112285247Y-80321904D01*
X112285247Y-80321904D02*
X111904295Y-80321904D01*
X111904295Y-80321904D02*
X111809057Y-80274285D01*
X111809057Y-80274285D02*
X111761438Y-80226666D01*
X111761438Y-80226666D02*
X111713819Y-80131428D01*
X111713819Y-80131428D02*
X111713819Y-79940952D01*
X111713819Y-79940952D02*
X111761438Y-79845714D01*
X111761438Y-79845714D02*
X111809057Y-79798095D01*
X111809057Y-79798095D02*
X111904295Y-79750476D01*
X111904295Y-79750476D02*
X112142390Y-79750476D01*
X112142390Y-79750476D02*
X112237628Y-79798095D01*
X112237628Y-79798095D02*
X112285247Y-79845714D01*
X112285247Y-79845714D02*
X112332866Y-79940952D01*
X112332866Y-79940952D02*
X112332866Y-80131428D01*
X112332866Y-80131428D02*
X112285247Y-80226666D01*
X112285247Y-80226666D02*
X112237628Y-80274285D01*
X112237628Y-80274285D02*
X112142390Y-80321904D01*
X107447819Y-65306142D02*
X106971628Y-64972809D01*
X107447819Y-64734714D02*
X106447819Y-64734714D01*
X106447819Y-64734714D02*
X106447819Y-65115666D01*
X106447819Y-65115666D02*
X106495438Y-65210904D01*
X106495438Y-65210904D02*
X106543057Y-65258523D01*
X106543057Y-65258523D02*
X106638295Y-65306142D01*
X106638295Y-65306142D02*
X106781152Y-65306142D01*
X106781152Y-65306142D02*
X106876390Y-65258523D01*
X106876390Y-65258523D02*
X106924009Y-65210904D01*
X106924009Y-65210904D02*
X106971628Y-65115666D01*
X106971628Y-65115666D02*
X106971628Y-64734714D01*
X107447819Y-66258523D02*
X107447819Y-65687095D01*
X107447819Y-65972809D02*
X106447819Y-65972809D01*
X106447819Y-65972809D02*
X106590676Y-65877571D01*
X106590676Y-65877571D02*
X106685914Y-65782333D01*
X106685914Y-65782333D02*
X106733533Y-65687095D01*
X106543057Y-66639476D02*
X106495438Y-66687095D01*
X106495438Y-66687095D02*
X106447819Y-66782333D01*
X106447819Y-66782333D02*
X106447819Y-67020428D01*
X106447819Y-67020428D02*
X106495438Y-67115666D01*
X106495438Y-67115666D02*
X106543057Y-67163285D01*
X106543057Y-67163285D02*
X106638295Y-67210904D01*
X106638295Y-67210904D02*
X106733533Y-67210904D01*
X106733533Y-67210904D02*
X106876390Y-67163285D01*
X106876390Y-67163285D02*
X107447819Y-66591857D01*
X107447819Y-66591857D02*
X107447819Y-67210904D01*
X143792666Y-62396819D02*
X144125999Y-61920628D01*
X144364094Y-62396819D02*
X144364094Y-61396819D01*
X144364094Y-61396819D02*
X143983142Y-61396819D01*
X143983142Y-61396819D02*
X143887904Y-61444438D01*
X143887904Y-61444438D02*
X143840285Y-61492057D01*
X143840285Y-61492057D02*
X143792666Y-61587295D01*
X143792666Y-61587295D02*
X143792666Y-61730152D01*
X143792666Y-61730152D02*
X143840285Y-61825390D01*
X143840285Y-61825390D02*
X143887904Y-61873009D01*
X143887904Y-61873009D02*
X143983142Y-61920628D01*
X143983142Y-61920628D02*
X144364094Y-61920628D01*
X142935523Y-61730152D02*
X142935523Y-62396819D01*
X143173618Y-61349200D02*
X143411713Y-62063485D01*
X143411713Y-62063485D02*
X142792666Y-62063485D01*
X112394333Y-103848819D02*
X112394333Y-104563104D01*
X112394333Y-104563104D02*
X112441952Y-104705961D01*
X112441952Y-104705961D02*
X112537190Y-104801200D01*
X112537190Y-104801200D02*
X112680047Y-104848819D01*
X112680047Y-104848819D02*
X112775285Y-104848819D01*
X111918142Y-104848819D02*
X111918142Y-103848819D01*
X111918142Y-103848819D02*
X111537190Y-103848819D01*
X111537190Y-103848819D02*
X111441952Y-103896438D01*
X111441952Y-103896438D02*
X111394333Y-103944057D01*
X111394333Y-103944057D02*
X111346714Y-104039295D01*
X111346714Y-104039295D02*
X111346714Y-104182152D01*
X111346714Y-104182152D02*
X111394333Y-104277390D01*
X111394333Y-104277390D02*
X111441952Y-104325009D01*
X111441952Y-104325009D02*
X111537190Y-104372628D01*
X111537190Y-104372628D02*
X111918142Y-104372628D01*
X110441952Y-103848819D02*
X110918142Y-103848819D01*
X110918142Y-103848819D02*
X110965761Y-104325009D01*
X110965761Y-104325009D02*
X110918142Y-104277390D01*
X110918142Y-104277390D02*
X110822904Y-104229771D01*
X110822904Y-104229771D02*
X110584809Y-104229771D01*
X110584809Y-104229771D02*
X110489571Y-104277390D01*
X110489571Y-104277390D02*
X110441952Y-104325009D01*
X110441952Y-104325009D02*
X110394333Y-104420247D01*
X110394333Y-104420247D02*
X110394333Y-104658342D01*
X110394333Y-104658342D02*
X110441952Y-104753580D01*
X110441952Y-104753580D02*
X110489571Y-104801200D01*
X110489571Y-104801200D02*
X110584809Y-104848819D01*
X110584809Y-104848819D02*
X110822904Y-104848819D01*
X110822904Y-104848819D02*
X110918142Y-104801200D01*
X110918142Y-104801200D02*
X110965761Y-104753580D01*
X110649857Y-86719580D02*
X110697476Y-86767200D01*
X110697476Y-86767200D02*
X110840333Y-86814819D01*
X110840333Y-86814819D02*
X110935571Y-86814819D01*
X110935571Y-86814819D02*
X111078428Y-86767200D01*
X111078428Y-86767200D02*
X111173666Y-86671961D01*
X111173666Y-86671961D02*
X111221285Y-86576723D01*
X111221285Y-86576723D02*
X111268904Y-86386247D01*
X111268904Y-86386247D02*
X111268904Y-86243390D01*
X111268904Y-86243390D02*
X111221285Y-86052914D01*
X111221285Y-86052914D02*
X111173666Y-85957676D01*
X111173666Y-85957676D02*
X111078428Y-85862438D01*
X111078428Y-85862438D02*
X110935571Y-85814819D01*
X110935571Y-85814819D02*
X110840333Y-85814819D01*
X110840333Y-85814819D02*
X110697476Y-85862438D01*
X110697476Y-85862438D02*
X110649857Y-85910057D01*
X109697476Y-86814819D02*
X110268904Y-86814819D01*
X109983190Y-86814819D02*
X109983190Y-85814819D01*
X109983190Y-85814819D02*
X110078428Y-85957676D01*
X110078428Y-85957676D02*
X110173666Y-86052914D01*
X110173666Y-86052914D02*
X110268904Y-86100533D01*
X109364142Y-85814819D02*
X108745095Y-85814819D01*
X108745095Y-85814819D02*
X109078428Y-86195771D01*
X109078428Y-86195771D02*
X108935571Y-86195771D01*
X108935571Y-86195771D02*
X108840333Y-86243390D01*
X108840333Y-86243390D02*
X108792714Y-86291009D01*
X108792714Y-86291009D02*
X108745095Y-86386247D01*
X108745095Y-86386247D02*
X108745095Y-86624342D01*
X108745095Y-86624342D02*
X108792714Y-86719580D01*
X108792714Y-86719580D02*
X108840333Y-86767200D01*
X108840333Y-86767200D02*
X108935571Y-86814819D01*
X108935571Y-86814819D02*
X109221285Y-86814819D01*
X109221285Y-86814819D02*
X109316523Y-86767200D01*
X109316523Y-86767200D02*
X109364142Y-86719580D01*
X157959857Y-54649819D02*
X158293190Y-54173628D01*
X158531285Y-54649819D02*
X158531285Y-53649819D01*
X158531285Y-53649819D02*
X158150333Y-53649819D01*
X158150333Y-53649819D02*
X158055095Y-53697438D01*
X158055095Y-53697438D02*
X158007476Y-53745057D01*
X158007476Y-53745057D02*
X157959857Y-53840295D01*
X157959857Y-53840295D02*
X157959857Y-53983152D01*
X157959857Y-53983152D02*
X158007476Y-54078390D01*
X158007476Y-54078390D02*
X158055095Y-54126009D01*
X158055095Y-54126009D02*
X158150333Y-54173628D01*
X158150333Y-54173628D02*
X158531285Y-54173628D01*
X157578904Y-53745057D02*
X157531285Y-53697438D01*
X157531285Y-53697438D02*
X157436047Y-53649819D01*
X157436047Y-53649819D02*
X157197952Y-53649819D01*
X157197952Y-53649819D02*
X157102714Y-53697438D01*
X157102714Y-53697438D02*
X157055095Y-53745057D01*
X157055095Y-53745057D02*
X157007476Y-53840295D01*
X157007476Y-53840295D02*
X157007476Y-53935533D01*
X157007476Y-53935533D02*
X157055095Y-54078390D01*
X157055095Y-54078390D02*
X157626523Y-54649819D01*
X157626523Y-54649819D02*
X157007476Y-54649819D01*
X156531285Y-54649819D02*
X156340809Y-54649819D01*
X156340809Y-54649819D02*
X156245571Y-54602200D01*
X156245571Y-54602200D02*
X156197952Y-54554580D01*
X156197952Y-54554580D02*
X156102714Y-54411723D01*
X156102714Y-54411723D02*
X156055095Y-54221247D01*
X156055095Y-54221247D02*
X156055095Y-53840295D01*
X156055095Y-53840295D02*
X156102714Y-53745057D01*
X156102714Y-53745057D02*
X156150333Y-53697438D01*
X156150333Y-53697438D02*
X156245571Y-53649819D01*
X156245571Y-53649819D02*
X156436047Y-53649819D01*
X156436047Y-53649819D02*
X156531285Y-53697438D01*
X156531285Y-53697438D02*
X156578904Y-53745057D01*
X156578904Y-53745057D02*
X156626523Y-53840295D01*
X156626523Y-53840295D02*
X156626523Y-54078390D01*
X156626523Y-54078390D02*
X156578904Y-54173628D01*
X156578904Y-54173628D02*
X156531285Y-54221247D01*
X156531285Y-54221247D02*
X156436047Y-54268866D01*
X156436047Y-54268866D02*
X156245571Y-54268866D01*
X156245571Y-54268866D02*
X156150333Y-54221247D01*
X156150333Y-54221247D02*
X156102714Y-54173628D01*
X156102714Y-54173628D02*
X156055095Y-54078390D01*
X107819857Y-60364819D02*
X108153190Y-59888628D01*
X108391285Y-60364819D02*
X108391285Y-59364819D01*
X108391285Y-59364819D02*
X108010333Y-59364819D01*
X108010333Y-59364819D02*
X107915095Y-59412438D01*
X107915095Y-59412438D02*
X107867476Y-59460057D01*
X107867476Y-59460057D02*
X107819857Y-59555295D01*
X107819857Y-59555295D02*
X107819857Y-59698152D01*
X107819857Y-59698152D02*
X107867476Y-59793390D01*
X107867476Y-59793390D02*
X107915095Y-59841009D01*
X107915095Y-59841009D02*
X108010333Y-59888628D01*
X108010333Y-59888628D02*
X108391285Y-59888628D01*
X106867476Y-60364819D02*
X107438904Y-60364819D01*
X107153190Y-60364819D02*
X107153190Y-59364819D01*
X107153190Y-59364819D02*
X107248428Y-59507676D01*
X107248428Y-59507676D02*
X107343666Y-59602914D01*
X107343666Y-59602914D02*
X107438904Y-59650533D01*
X106534142Y-59364819D02*
X105867476Y-59364819D01*
X105867476Y-59364819D02*
X106296047Y-60364819D01*
X158401857Y-73733819D02*
X158735190Y-73257628D01*
X158973285Y-73733819D02*
X158973285Y-72733819D01*
X158973285Y-72733819D02*
X158592333Y-72733819D01*
X158592333Y-72733819D02*
X158497095Y-72781438D01*
X158497095Y-72781438D02*
X158449476Y-72829057D01*
X158449476Y-72829057D02*
X158401857Y-72924295D01*
X158401857Y-72924295D02*
X158401857Y-73067152D01*
X158401857Y-73067152D02*
X158449476Y-73162390D01*
X158449476Y-73162390D02*
X158497095Y-73210009D01*
X158497095Y-73210009D02*
X158592333Y-73257628D01*
X158592333Y-73257628D02*
X158973285Y-73257628D01*
X158020904Y-72829057D02*
X157973285Y-72781438D01*
X157973285Y-72781438D02*
X157878047Y-72733819D01*
X157878047Y-72733819D02*
X157639952Y-72733819D01*
X157639952Y-72733819D02*
X157544714Y-72781438D01*
X157544714Y-72781438D02*
X157497095Y-72829057D01*
X157497095Y-72829057D02*
X157449476Y-72924295D01*
X157449476Y-72924295D02*
X157449476Y-73019533D01*
X157449476Y-73019533D02*
X157497095Y-73162390D01*
X157497095Y-73162390D02*
X158068523Y-73733819D01*
X158068523Y-73733819D02*
X157449476Y-73733819D01*
X157116142Y-72733819D02*
X156449476Y-72733819D01*
X156449476Y-72733819D02*
X156878047Y-73733819D01*
D13*
%TO.C,D2*%
X103661000Y-77605000D02*
X103661000Y-79875000D01*
X103661000Y-79875000D02*
X107546000Y-79875000D01*
X107546000Y-77605000D02*
X103661000Y-77605000D01*
%TO.C,C4*%
X129615748Y-72750000D02*
X131038252Y-72750000D01*
X129615748Y-74570000D02*
X131038252Y-74570000D01*
%TO.C,JP6*%
X151169000Y-58436000D02*
X153969000Y-58436000D01*
X151169000Y-60436000D02*
X151169000Y-58436000D01*
X153969000Y-58436000D02*
X153969000Y-60436000D01*
X153969000Y-60436000D02*
X151169000Y-60436000D01*
%TO.C,C7*%
X101040748Y-61320000D02*
X102463252Y-61320000D01*
X101040748Y-63140000D02*
X102463252Y-63140000D01*
%TO.C,C12*%
X105280748Y-82910000D02*
X106703252Y-82910000D01*
X105280748Y-84730000D02*
X106703252Y-84730000D01*
%TO.C,JP7*%
X151167000Y-61230000D02*
X153967000Y-61230000D01*
X151167000Y-63230000D02*
X151167000Y-61230000D01*
X153967000Y-61230000D02*
X153967000Y-63230000D01*
X153967000Y-63230000D02*
X151167000Y-63230000D01*
%TO.C,D1*%
X135027000Y-73160000D02*
X135027000Y-75430000D01*
X135027000Y-75430000D02*
X138912000Y-75430000D01*
X138912000Y-73160000D02*
X135027000Y-73160000D01*
%TO.C,C5*%
X152221748Y-50906000D02*
X153644252Y-50906000D01*
X152221748Y-52726000D02*
X153644252Y-52726000D01*
%TO.C,R8*%
X154999936Y-79735000D02*
X156454064Y-79735000D01*
X154999936Y-81555000D02*
X156454064Y-81555000D01*
%TO.C,C10*%
X103199748Y-69956000D02*
X104622252Y-69956000D01*
X103199748Y-71776000D02*
X104622252Y-71776000D01*
%TO.C,C9*%
X117775748Y-55310000D02*
X119198252Y-55310000D01*
X117775748Y-57130000D02*
X119198252Y-57130000D01*
%TO.C,R9*%
X154999936Y-84180000D02*
X156454064Y-84180000D01*
X154999936Y-86000000D02*
X156454064Y-86000000D01*
%TO.C,JP3*%
X106986000Y-97806000D02*
X109786000Y-97806000D01*
X106986000Y-99806000D02*
X106986000Y-97806000D01*
X109786000Y-97806000D02*
X109786000Y-99806000D01*
X109786000Y-99806000D02*
X106986000Y-99806000D01*
%TO.C,R6*%
X127879064Y-58145000D02*
X126424936Y-58145000D01*
X127879064Y-59965000D02*
X126424936Y-59965000D01*
%TO.C,C2*%
X132663748Y-61320000D02*
X134086252Y-61320000D01*
X132663748Y-63140000D02*
X134086252Y-63140000D01*
%TO.C,C11*%
X105280748Y-80370000D02*
X106703252Y-80370000D01*
X105280748Y-82190000D02*
X106703252Y-82190000D01*
%TO.C,C1*%
X139140748Y-58780000D02*
X140563252Y-58780000D01*
X139140748Y-60600000D02*
X140563252Y-60600000D01*
%TO.C,R10*%
X130550436Y-67289000D02*
X132004564Y-67289000D01*
X130550436Y-69109000D02*
X132004564Y-69109000D01*
%TO.C,R5*%
X119029564Y-60685000D02*
X117575436Y-60685000D01*
X119029564Y-62505000D02*
X117575436Y-62505000D01*
%TO.C,JP8*%
X151169000Y-64024000D02*
X153969000Y-64024000D01*
X151169000Y-66024000D02*
X151169000Y-64024000D01*
X153969000Y-64024000D02*
X153969000Y-66024000D01*
X153969000Y-66024000D02*
X151169000Y-66024000D01*
%TO.C,C6*%
X135265248Y-67289000D02*
X136687752Y-67289000D01*
X135265248Y-69109000D02*
X136687752Y-69109000D01*
%TO.C,R7*%
X122026000Y-61564436D02*
X122026000Y-63018564D01*
X123846000Y-61564436D02*
X123846000Y-63018564D01*
%TO.C,C8*%
X111637000Y-56643748D02*
X111637000Y-58066252D01*
X113457000Y-56643748D02*
X113457000Y-58066252D01*
%TO.C,JP4*%
X106971000Y-100600000D02*
X109771000Y-100600000D01*
X106971000Y-102600000D02*
X106971000Y-100600000D01*
X109771000Y-100600000D02*
X109771000Y-102600000D01*
X109771000Y-102600000D02*
X106971000Y-102600000D01*
%TO.C,C3*%
X108081000Y-73101252D02*
X108081000Y-71678748D01*
X109901000Y-73101252D02*
X109901000Y-71678748D01*
%TO.C,JP5*%
X106971000Y-103394000D02*
X109771000Y-103394000D01*
X106971000Y-105394000D02*
X106971000Y-103394000D01*
X109771000Y-103394000D02*
X109771000Y-105394000D01*
X109771000Y-105394000D02*
X106971000Y-105394000D01*
%TO.C,C13*%
X105231748Y-85450000D02*
X106654252Y-85450000D01*
X105231748Y-87270000D02*
X106654252Y-87270000D01*
%TD*%
%LPC*%
D14*
%TO.C,I2C_PINOUT7*%
X165862000Y-99060000D03*
D15*
X165862000Y-101600000D03*
X165862000Y-104140000D03*
X165862000Y-106680000D03*
%TD*%
D14*
%TO.C,I2C_PINOUT9*%
X99847000Y-86360000D03*
D15*
X99847000Y-83820000D03*
X99847000Y-81280000D03*
X99847000Y-78740000D03*
%TD*%
D16*
%TO.C,BATT_JST1*%
X132040000Y-114300000D03*
D17*
X129540000Y-114300000D03*
%TD*%
D14*
%TO.C,I2C_PINOUT10*%
X99847000Y-99060000D03*
D15*
X99847000Y-96520000D03*
X99847000Y-93980000D03*
X99847000Y-91440000D03*
%TD*%
D14*
%TO.C,I2C_PINOUT8*%
X99847000Y-73660000D03*
D15*
X99847000Y-71120000D03*
X99847000Y-68580000D03*
X99847000Y-66040000D03*
%TD*%
D14*
%TO.C,I2C_PINOUT0*%
X160782000Y-60960000D03*
D15*
X160782000Y-63500000D03*
X160782000Y-66040000D03*
X160782000Y-68580000D03*
%TD*%
D14*
%TO.C,I2C_PINOUT12*%
X114300000Y-109220000D03*
D15*
X111760000Y-109220000D03*
X109220000Y-109220000D03*
X106680000Y-109220000D03*
%TD*%
D14*
%TO.C,UART1*%
X111760000Y-114300000D03*
D15*
X109220000Y-114300000D03*
X106680000Y-114300000D03*
%TD*%
D14*
%TO.C,I2C_PINOUT2*%
X160782000Y-86360000D03*
D15*
X160782000Y-88900000D03*
X160782000Y-91440000D03*
X160782000Y-93980000D03*
%TD*%
D18*
%TO.C,SW2*%
X150087000Y-112050000D03*
X156587000Y-112050000D03*
X150087000Y-116550000D03*
X156587000Y-116550000D03*
%TD*%
D14*
%TO.C,PICO_R1*%
X143027000Y-68610000D03*
D15*
X143027000Y-71150000D03*
X143027000Y-73690000D03*
X143027000Y-76230000D03*
X143027000Y-78770000D03*
X143027000Y-81310000D03*
X143027000Y-83850000D03*
X143027000Y-86390000D03*
X143027000Y-88930000D03*
X143027000Y-91470000D03*
X143027000Y-94010000D03*
X143027000Y-96550000D03*
X143027000Y-99090000D03*
X143027000Y-101630000D03*
X143027000Y-104170000D03*
%TD*%
D18*
%TO.C,RST_SW1*%
X125680000Y-50328000D03*
X132180000Y-50328000D03*
X125680000Y-54828000D03*
X132180000Y-54828000D03*
%TD*%
D19*
%TO.C,H4*%
X104140000Y-121920000D03*
%TD*%
D14*
%TO.C,OLED_CONN1*%
X116367000Y-114300000D03*
D15*
X118907000Y-114300000D03*
X121447000Y-114300000D03*
X123987000Y-114300000D03*
%TD*%
D19*
%TO.C,H5*%
X162560000Y-121920000D03*
%TD*%
D14*
%TO.C,I2C_PINOUT5*%
X165862000Y-73660000D03*
D15*
X165862000Y-76200000D03*
X165862000Y-78740000D03*
X165862000Y-81280000D03*
%TD*%
D14*
%TO.C,I2C_PINOUT6*%
X165862000Y-86360000D03*
D15*
X165862000Y-88900000D03*
X165862000Y-91440000D03*
X165862000Y-93980000D03*
%TD*%
D14*
%TO.C,MOTOR_CONN1*%
X132867000Y-124460000D03*
D15*
X135407000Y-124460000D03*
%TD*%
D18*
%TO.C,SW1*%
X137237000Y-112050000D03*
X143737000Y-112050000D03*
X137237000Y-116550000D03*
X143737000Y-116550000D03*
%TD*%
D19*
%TO.C,H1*%
X104140000Y-53340000D03*
%TD*%
D14*
%TO.C,US1*%
X137160000Y-55855000D03*
D15*
X139700000Y-55855000D03*
X142240000Y-55855000D03*
X144780000Y-55855000D03*
%TD*%
D20*
%TO.C,SW3*%
X151384000Y-122682000D03*
D21*
X143764000Y-122682000D03*
%TD*%
D22*
%TO.C,J1*%
X114627000Y-120435000D03*
X115477000Y-120435000D03*
X116327000Y-120435000D03*
X117177000Y-120435000D03*
X118027000Y-120435000D03*
X118877000Y-120435000D03*
X119727000Y-120435000D03*
X120577000Y-120435000D03*
X120577000Y-121785000D03*
X119727000Y-121785000D03*
X118877000Y-121785000D03*
X118027000Y-121785000D03*
X117177000Y-121785000D03*
X116327000Y-121785000D03*
X115477000Y-121785000D03*
X114627000Y-121785000D03*
D23*
X113277000Y-121415000D03*
D24*
X113277000Y-124795000D03*
D23*
X121927000Y-121415000D03*
D24*
X121927000Y-124795000D03*
%TD*%
D14*
%TO.C,GPIO_L1*%
X116357000Y-104170000D03*
D15*
X116357000Y-101630000D03*
X116357000Y-99090000D03*
X116357000Y-96550000D03*
X116357000Y-94010000D03*
X116357000Y-91470000D03*
X116357000Y-88930000D03*
X116357000Y-86390000D03*
X116357000Y-83850000D03*
X116357000Y-81310000D03*
X116357000Y-78770000D03*
X116357000Y-76230000D03*
X116357000Y-73690000D03*
X116357000Y-71150000D03*
X116357000Y-68610000D03*
%TD*%
D14*
%TO.C,I2C_PINOUT4*%
X165862000Y-60960000D03*
D15*
X165862000Y-63500000D03*
X165862000Y-66040000D03*
X165862000Y-68580000D03*
%TD*%
D19*
%TO.C,H3*%
X134620000Y-88900000D03*
%TD*%
D14*
%TO.C,I2C_PINOUT1*%
X160807000Y-73660000D03*
D15*
X160807000Y-76200000D03*
X160807000Y-78740000D03*
X160807000Y-81280000D03*
%TD*%
D14*
%TO.C,PICO_L1*%
X123977000Y-68610000D03*
D15*
X123977000Y-71150000D03*
X123977000Y-73690000D03*
X123977000Y-76230000D03*
X123977000Y-78770000D03*
X123977000Y-81310000D03*
X123977000Y-83850000D03*
X123977000Y-86390000D03*
X123977000Y-88930000D03*
X123977000Y-91470000D03*
X123977000Y-94010000D03*
X123977000Y-96550000D03*
X123977000Y-99090000D03*
X123977000Y-101630000D03*
X123977000Y-104170000D03*
%TD*%
D19*
%TO.C,H2*%
X162560000Y-53340000D03*
%TD*%
D14*
%TO.C,I2C_PINOUT11*%
X99847000Y-111760000D03*
D15*
X99847000Y-109220000D03*
X99847000Y-106680000D03*
X99847000Y-104140000D03*
%TD*%
D14*
%TO.C,GPIO_R1*%
X150647000Y-68610000D03*
D15*
X150647000Y-71150000D03*
X150647000Y-73690000D03*
X150647000Y-76230000D03*
X150647000Y-78770000D03*
X150647000Y-81310000D03*
X150647000Y-83850000D03*
X150647000Y-86390000D03*
X150647000Y-88930000D03*
X150647000Y-91470000D03*
X150647000Y-94010000D03*
X150647000Y-96550000D03*
X150647000Y-99090000D03*
X150647000Y-101630000D03*
X150647000Y-104170000D03*
%TD*%
D14*
%TO.C,I2C_PINOUT3*%
X160782000Y-99060000D03*
D15*
X160782000Y-101600000D03*
X160782000Y-104140000D03*
X160782000Y-106680000D03*
%TD*%
D14*
%TO.C,ARR1*%
X137160000Y-50800000D03*
D15*
X139700000Y-50800000D03*
X142240000Y-50800000D03*
X144780000Y-50800000D03*
%TD*%
D25*
%TO.C,R18*%
X109433000Y-75438000D03*
X110073000Y-75438000D03*
%TD*%
D26*
%TO.C,D2*%
X104546000Y-78740000D03*
X107346000Y-78740000D03*
%TD*%
D27*
%TO.C,C4*%
X131802000Y-73660000D03*
X128852000Y-73660000D03*
%TD*%
D28*
%TO.C,JP6*%
X153219000Y-59436000D03*
X151919000Y-59436000D03*
%TD*%
D29*
%TO.C,C15*%
X146486000Y-61214000D03*
X145846000Y-61214000D03*
%TD*%
%TO.C,R13*%
X104068000Y-66294000D03*
X103428000Y-66294000D03*
%TD*%
D27*
%TO.C,C7*%
X103227000Y-62230000D03*
X100277000Y-62230000D03*
%TD*%
D25*
%TO.C,R2*%
X132547000Y-78105000D03*
X133187000Y-78105000D03*
%TD*%
D30*
%TO.C,R33*%
X113182000Y-83155000D03*
X113182000Y-83795000D03*
%TD*%
D29*
%TO.C,R22*%
X103052000Y-98806000D03*
X102412000Y-98806000D03*
%TD*%
D27*
%TO.C,C12*%
X107467000Y-83820000D03*
X104517000Y-83820000D03*
%TD*%
D29*
%TO.C,R21*%
X103027000Y-101600000D03*
X102387000Y-101600000D03*
%TD*%
D28*
%TO.C,JP7*%
X153217000Y-62230000D03*
X151917000Y-62230000D03*
%TD*%
D29*
%TO.C,R15*%
X126837000Y-53340000D03*
X126197000Y-53340000D03*
%TD*%
D26*
%TO.C,D1*%
X135912000Y-74295000D03*
X138712000Y-74295000D03*
%TD*%
D27*
%TO.C,C5*%
X154408000Y-51816000D03*
X151458000Y-51816000D03*
%TD*%
D29*
%TO.C,R14*%
X123372000Y-53340000D03*
X122732000Y-53340000D03*
%TD*%
D31*
%TO.C,R8*%
X157189500Y-80645000D03*
X154264500Y-80645000D03*
%TD*%
D29*
%TO.C,R28*%
X157256000Y-69850000D03*
X156616000Y-69850000D03*
%TD*%
%TO.C,R25*%
X146177000Y-64135000D03*
X145537000Y-64135000D03*
%TD*%
%TO.C,R20*%
X107279000Y-91694000D03*
X106639000Y-91694000D03*
%TD*%
%TO.C,R34*%
X154777000Y-69845000D03*
X154137000Y-69845000D03*
%TD*%
D27*
%TO.C,C10*%
X105386000Y-70866000D03*
X102436000Y-70866000D03*
%TD*%
%TO.C,C9*%
X119962000Y-56220000D03*
X117012000Y-56220000D03*
%TD*%
D31*
%TO.C,R9*%
X157189500Y-85090000D03*
X154264500Y-85090000D03*
%TD*%
D29*
%TO.C,C14*%
X111912000Y-88646000D03*
X111272000Y-88646000D03*
%TD*%
D28*
%TO.C,JP3*%
X109036000Y-98806000D03*
X107736000Y-98806000D03*
%TD*%
D32*
%TO.C,R6*%
X125689500Y-59055000D03*
X128614500Y-59055000D03*
%TD*%
D29*
%TO.C,R32*%
X154772000Y-72009000D03*
X154132000Y-72009000D03*
%TD*%
D27*
%TO.C,C2*%
X134850000Y-62230000D03*
X131900000Y-62230000D03*
%TD*%
D29*
%TO.C,R30*%
X121798000Y-117602000D03*
X121158000Y-117602000D03*
%TD*%
D27*
%TO.C,C11*%
X107467000Y-81280000D03*
X104517000Y-81280000D03*
%TD*%
%TO.C,C1*%
X141327000Y-59690000D03*
X138377000Y-59690000D03*
%TD*%
D31*
%TO.C,R10*%
X132740000Y-68199000D03*
X129815000Y-68199000D03*
%TD*%
D25*
%TO.C,R16*%
X137972000Y-78232000D03*
X138612000Y-78232000D03*
%TD*%
D32*
%TO.C,R5*%
X116840000Y-61595000D03*
X119765000Y-61595000D03*
%TD*%
D28*
%TO.C,JP8*%
X153219000Y-65024000D03*
X151919000Y-65024000D03*
%TD*%
D30*
%TO.C,R11*%
X112867000Y-65720000D03*
X112867000Y-66360000D03*
%TD*%
D29*
%TO.C,R24*%
X146812000Y-57785000D03*
X146172000Y-57785000D03*
%TD*%
D27*
%TO.C,C6*%
X137451500Y-68199000D03*
X134501500Y-68199000D03*
%TD*%
D33*
%TO.C,R7*%
X122936000Y-63754000D03*
X122936000Y-60829000D03*
%TD*%
D34*
%TO.C,C8*%
X112547000Y-58830000D03*
X112547000Y-55880000D03*
%TD*%
D28*
%TO.C,JP4*%
X109021000Y-101600000D03*
X107721000Y-101600000D03*
%TD*%
D25*
%TO.C,R1*%
X134452000Y-80010000D03*
X135092000Y-80010000D03*
%TD*%
%TO.C,R31*%
X112710000Y-75438000D03*
X113350000Y-75438000D03*
%TD*%
D29*
%TO.C,R3*%
X129697000Y-78105000D03*
X129057000Y-78105000D03*
%TD*%
%TO.C,R26*%
X150114000Y-54483000D03*
X149474000Y-54483000D03*
%TD*%
D35*
%TO.C,C3*%
X108991000Y-70915000D03*
X108991000Y-73865000D03*
%TD*%
D29*
%TO.C,R23*%
X111211000Y-91694000D03*
X110571000Y-91694000D03*
%TD*%
D30*
%TO.C,R19*%
X113309000Y-78740000D03*
X113309000Y-79380000D03*
%TD*%
D36*
%TO.C,R12*%
X105943000Y-66269000D03*
X105943000Y-65629000D03*
%TD*%
D29*
%TO.C,R4*%
X143946000Y-62992000D03*
X143306000Y-62992000D03*
%TD*%
D28*
%TO.C,JP5*%
X109021000Y-104394000D03*
X107721000Y-104394000D03*
%TD*%
D27*
%TO.C,C13*%
X107418000Y-86360000D03*
X104468000Y-86360000D03*
%TD*%
D29*
%TO.C,R29*%
X157637000Y-55245000D03*
X156997000Y-55245000D03*
%TD*%
%TO.C,R17*%
X107497000Y-60960000D03*
X106857000Y-60960000D03*
%TD*%
%TO.C,R27*%
X157231000Y-72009000D03*
X156591000Y-72009000D03*
%TD*%
%LPD*%
M02*
