M48
; DRILL file {KiCad 8.0.7} date 2025-01-25T18:45:03-0500
; FORMAT={-:-/ absolute / inch / decimal}
; #@! TF.CreationDate,2025-01-25T18:45:03-05:00
; #@! TF.GenerationSoftware,Kicad,Pcbnew,8.0.7
; #@! TF.FileFunction,Plated,1,2,PTH
FMAT,2
INCH
; #@! TA.AperFunction,Plated,PTH,ComponentDrill
T1C0.0079
; #@! TA.AperFunction,Plated,PTH,ViaDrill
T2C0.0118
; #@! TA.AperFunction,Plated,PTH,ComponentDrill
T3C0.0130
; #@! TA.AperFunction,Plated,PTH,ComponentDrill
T4C0.0157
; #@! TA.AperFunction,Plated,PTH,ComponentDrill
T5C0.0236
; #@! TA.AperFunction,Plated,PTH,ComponentDrill
T6C0.0315
; #@! TA.AperFunction,Plated,PTH,ComponentDrill
T7C0.0394
; #@! TA.AperFunction,Plated,PTH,ComponentDrill
T8C0.0433
; #@! TA.AperFunction,Plated,PTH,ComponentDrill
T9C0.1693
%
G90
G05
T1
X5.0646Y-2.4514
X5.0646Y-2.4986
X5.0823Y-2.475
X5.1Y-2.4514
X5.1Y-2.4986
T2
X4.021Y-3.6802
X4.021Y-4.11
X4.0304Y-3.5843
X4.1094Y-3.969
X4.1514Y-3.6079
X4.1985Y-3.25
X4.2013Y-3.91
X4.2488Y-2.8537
X4.2548Y-2.4798
X4.2787Y-2.9592
X4.2821Y-3.3761
X4.3048Y-2.8509
X4.3086Y-4.055
X4.311Y-3.3405
X4.3548Y-2.8512
X4.3636Y-2.8975
X4.3649Y-4.1245
X4.3725Y-3.8239
X4.3805Y-4.1812
X4.3965Y-3.8
X4.4309Y-3.4419
X4.4556Y-3.7795
X4.4854Y-3.6576
X4.4986Y-4.3788
X4.5004Y-2.157
X4.5074Y-2.1893
X4.5331Y-2.1426
X4.6209Y-2.1318
X4.6479Y-3.8486
X4.6496Y-2.6448
X4.7309Y-2.4796
X4.7315Y-2.0793
X4.7467Y-4.5769
X4.8285Y-4.5531
X4.9149Y-2.4325
X4.9474Y-2.51
X4.9482Y-2.4387
X4.9694Y-2.7512
X5.0558Y-2.2134
X5.0757Y-3.4751
X5.0988Y-2.5837
X5.169Y-3.0541
X5.1724Y-2.6557
X5.2028Y-2.5979
X5.2713Y-2.5881
X5.3374Y-3.0957
X5.3524Y-2.48
X5.3913Y-2.6294
X5.4201Y-3.175
X5.4272Y-2.8775
X5.4406Y-2.4321
X5.5454Y-3.1493
X5.55Y-2.0258
X5.5849Y-2.5468
X5.7561Y-2.3772
X5.8364Y-2.5467
X5.8514Y-2.857
X5.8608Y-2.3416
X5.9183Y-2.5704
X6.0029Y-3.4499
X6.0097Y-2.1695
X6.0282Y-3.2625
X6.0589Y-2.9
X6.0736Y-2.6997
X6.0894Y-2.6665
X6.0973Y-3.0465
X6.1543Y-3.2385
X6.1554Y-2.5467
X6.1601Y-2.583
X6.1839Y-2.954
X6.1927Y-2.2986
X6.2076Y-2.7782
X6.4293Y-3.4681
T3
X4.2286Y-2.6488
X4.2286Y-2.7
X4.2798Y-2.6488
X4.2798Y-2.7
X4.331Y-2.6488
X4.331Y-2.7
T4
X4.5129Y-4.7415
X4.5129Y-4.7947
X4.5463Y-4.7415
X4.5463Y-4.7947
X4.5798Y-4.7415
X4.5798Y-4.7947
X4.6133Y-4.7415
X4.6133Y-4.7947
X4.6467Y-4.7415
X4.6467Y-4.7947
X4.6802Y-4.7415
X4.6802Y-4.7947
X4.7137Y-4.7415
X4.7137Y-4.7947
X4.7471Y-4.7415
X4.7471Y-4.7947
T6
X5.66Y-4.83
X5.96Y-4.83
T7
X3.931Y-2.6
X3.931Y-2.7
X3.931Y-2.8
X3.931Y-2.9
X3.931Y-3.1
X3.931Y-3.2
X3.931Y-3.3
X3.931Y-3.4
X3.931Y-3.6
X3.931Y-3.7
X3.931Y-3.8
X3.931Y-3.9
X3.931Y-4.1
X3.931Y-4.2
X3.931Y-4.3
X3.931Y-4.4
X4.2Y-4.3
X4.2Y-4.5
X4.3Y-4.3
X4.3Y-4.5
X4.4Y-4.3
X4.4Y-4.5
X4.5Y-4.3
X4.581Y-2.7012
X4.581Y-2.8012
X4.581Y-2.9012
X4.581Y-3.0012
X4.581Y-3.1012
X4.581Y-3.2012
X4.581Y-3.3012
X4.581Y-3.4012
X4.581Y-3.5012
X4.581Y-3.6012
X4.581Y-3.7012
X4.581Y-3.8012
X4.581Y-3.9012
X4.581Y-4.0012
X4.581Y-4.1012
X4.5814Y-4.5
X4.6814Y-4.5
X4.7814Y-4.5
X4.881Y-2.7012
X4.881Y-2.8012
X4.881Y-2.9012
X4.881Y-3.0012
X4.881Y-3.1012
X4.881Y-3.2012
X4.881Y-3.3012
X4.881Y-3.4012
X4.881Y-3.5012
X4.881Y-3.6012
X4.881Y-3.7012
X4.881Y-3.8012
X4.881Y-3.9012
X4.881Y-4.0012
X4.881Y-4.1012
X4.8814Y-4.5
X5.1Y-4.5
X5.1984Y-4.5
X5.231Y-4.9
X5.331Y-4.9
X5.4Y-2.0
X5.4Y-2.199
X5.5Y-2.0
X5.5Y-2.199
X5.6Y-2.0
X5.6Y-2.199
X5.631Y-2.7012
X5.631Y-2.8012
X5.631Y-2.9012
X5.631Y-3.0012
X5.631Y-3.1012
X5.631Y-3.2012
X5.631Y-3.3012
X5.631Y-3.4012
X5.631Y-3.5012
X5.631Y-3.6012
X5.631Y-3.7012
X5.631Y-3.8012
X5.631Y-3.9012
X5.631Y-4.0012
X5.631Y-4.1012
X5.7Y-2.0
X5.7Y-2.199
X5.931Y-2.7012
X5.931Y-2.8012
X5.931Y-2.9012
X5.931Y-3.0012
X5.931Y-3.1012
X5.931Y-3.2012
X5.931Y-3.3012
X5.931Y-3.4012
X5.931Y-3.5012
X5.931Y-3.6012
X5.931Y-3.7012
X5.931Y-3.8012
X5.931Y-3.9012
X5.931Y-4.0012
X5.931Y-4.1012
X6.33Y-2.4
X6.33Y-2.5
X6.33Y-2.6
X6.33Y-2.7
X6.33Y-3.4
X6.33Y-3.5
X6.33Y-3.6
X6.33Y-3.7
X6.33Y-3.9
X6.33Y-4.0
X6.33Y-4.1
X6.33Y-4.2
X6.331Y-2.9
X6.331Y-3.0
X6.331Y-3.1
X6.331Y-3.2
X6.53Y-2.4
X6.53Y-2.5
X6.53Y-2.6
X6.53Y-2.7
X6.53Y-2.9
X6.53Y-3.0
X6.53Y-3.1
X6.53Y-3.2
X6.53Y-3.4
X6.53Y-3.5
X6.53Y-3.6
X6.53Y-3.7
X6.53Y-3.9
X6.53Y-4.0
X6.53Y-4.1
X6.53Y-4.2
T8
X4.948Y-1.9814
X4.948Y-2.1586
X5.2039Y-1.9814
X5.2039Y-2.1586
X5.403Y-4.4114
X5.403Y-4.5886
X5.6589Y-4.4114
X5.6589Y-4.5886
X5.9089Y-4.4114
X5.9089Y-4.5886
X6.1648Y-4.4114
X6.1648Y-4.5886
T9
X4.1Y-2.1
X4.1Y-4.8
X5.3Y-3.5
X6.4Y-2.1
X6.4Y-4.8
T5
G00X4.4597Y-4.7506
M15
G01X4.4597Y-4.8096
M16
G05
G00X4.4597Y-4.8974
M15
G01X4.4597Y-4.9289
M16
G05
G00X4.8003Y-4.7506
M15
G01X4.8003Y-4.8096
M16
G05
G00X4.8003Y-4.8974
M15
G01X4.8003Y-4.9289
M16
G05
M30
