%TF.GenerationSoftware,KiCad,Pcbnew,8.0.7*%
%TF.CreationDate,2025-01-25T22:31:14-05:00*%
%TF.ProjectId,shadow,73686164-6f77-42e6-9b69-6361645f7063,rev?*%
%TF.SameCoordinates,Original*%
%TF.FileFunction,Paste,Top*%
%TF.FilePolarity,Positive*%
%FSLAX46Y46*%
G04 Gerber Fmt 4.6, Leading zero omitted, Abs format (unit mm)*
G04 Created by KiCad (PCBNEW 8.0.7) date 2025-01-25 22:31:14*
%MOMM*%
%LPD*%
G01*
G04 APERTURE LIST*
G04 Aperture macros list*
%AMRoundRect*
0 Rectangle with rounded corners*
0 $1 Rounding radius*
0 $2 $3 $4 $5 $6 $7 $8 $9 X,Y pos of 4 corners*
0 Add a 4 corners polygon primitive as box body*
4,1,4,$2,$3,$4,$5,$6,$7,$8,$9,$2,$3,0*
0 Add four circle primitives for the rounded corners*
1,1,$1+$1,$2,$3*
1,1,$1+$1,$4,$5*
1,1,$1+$1,$6,$7*
1,1,$1+$1,$8,$9*
0 Add four rect primitives between the rounded corners*
20,1,$1+$1,$2,$3,$4,$5,0*
20,1,$1+$1,$4,$5,$6,$7,0*
20,1,$1+$1,$6,$7,$8,$9,0*
20,1,$1+$1,$8,$9,$2,$3,0*%
G04 Aperture macros list end*
%ADD10C,0.010000*%
%ADD11RoundRect,0.250000X-0.375000X-0.625000X0.375000X-0.625000X0.375000X0.625000X-0.375000X0.625000X0*%
%ADD12R,2.200000X1.500000*%
%ADD13O,0.574000X2.038000*%
%ADD14R,2.000000X2.000000*%
%ADD15RoundRect,0.100000X-0.637500X-0.100000X0.637500X-0.100000X0.637500X0.100000X-0.637500X0.100000X0*%
%ADD16R,1.570000X1.880000*%
%ADD17RoundRect,0.060000X-0.675000X-0.180000X0.675000X-0.180000X0.675000X0.180000X-0.675000X0.180000X0*%
G04 APERTURE END LIST*
D10*
%TO.C,U3*%
X127765000Y-61990000D02*
X126215000Y-61990000D01*
X126215000Y-61740000D01*
X127765000Y-61740000D01*
X127765000Y-61990000D01*
G36*
X127765000Y-61990000D02*
G01*
X126215000Y-61990000D01*
X126215000Y-61740000D01*
X127765000Y-61740000D01*
X127765000Y-61990000D01*
G37*
X127765000Y-62490000D02*
X126215000Y-62490000D01*
X126215000Y-62240000D01*
X127765000Y-62240000D01*
X127765000Y-62490000D01*
G36*
X127765000Y-62490000D02*
G01*
X126215000Y-62490000D01*
X126215000Y-62240000D01*
X127765000Y-62240000D01*
X127765000Y-62490000D01*
G37*
X127765000Y-62990000D02*
X126215000Y-62990000D01*
X126215000Y-62740000D01*
X127765000Y-62740000D01*
X127765000Y-62990000D01*
G36*
X127765000Y-62990000D02*
G01*
X126215000Y-62990000D01*
X126215000Y-62740000D01*
X127765000Y-62740000D01*
X127765000Y-62990000D01*
G37*
X127765000Y-63490000D02*
X126215000Y-63490000D01*
X126215000Y-63240000D01*
X127765000Y-63240000D01*
X127765000Y-63490000D01*
G36*
X127765000Y-63490000D02*
G01*
X126215000Y-63490000D01*
X126215000Y-63240000D01*
X127765000Y-63240000D01*
X127765000Y-63490000D01*
G37*
X127765000Y-63990000D02*
X126215000Y-63990000D01*
X126215000Y-63740000D01*
X127765000Y-63740000D01*
X127765000Y-63990000D01*
G36*
X127765000Y-63990000D02*
G01*
X126215000Y-63990000D01*
X126215000Y-63740000D01*
X127765000Y-63740000D01*
X127765000Y-63990000D01*
G37*
X131965000Y-61990000D02*
X130415000Y-61990000D01*
X130415000Y-61740000D01*
X131965000Y-61740000D01*
X131965000Y-61990000D01*
G36*
X131965000Y-61990000D02*
G01*
X130415000Y-61990000D01*
X130415000Y-61740000D01*
X131965000Y-61740000D01*
X131965000Y-61990000D01*
G37*
X131965000Y-62490000D02*
X130415000Y-62490000D01*
X130415000Y-62240000D01*
X131965000Y-62240000D01*
X131965000Y-62490000D01*
G36*
X131965000Y-62490000D02*
G01*
X130415000Y-62490000D01*
X130415000Y-62240000D01*
X131965000Y-62240000D01*
X131965000Y-62490000D01*
G37*
X131965000Y-62990000D02*
X130415000Y-62990000D01*
X130415000Y-62740000D01*
X131965000Y-62740000D01*
X131965000Y-62990000D01*
G36*
X131965000Y-62990000D02*
G01*
X130415000Y-62990000D01*
X130415000Y-62740000D01*
X131965000Y-62740000D01*
X131965000Y-62990000D01*
G37*
X131965000Y-63490000D02*
X130415000Y-63490000D01*
X130415000Y-63240000D01*
X131965000Y-63240000D01*
X131965000Y-63490000D01*
G36*
X131965000Y-63490000D02*
G01*
X130415000Y-63490000D01*
X130415000Y-63240000D01*
X131965000Y-63240000D01*
X131965000Y-63490000D01*
G37*
X131965000Y-63990000D02*
X130415000Y-63990000D01*
X130415000Y-63740000D01*
X131965000Y-63740000D01*
X131965000Y-63990000D01*
G36*
X131965000Y-63990000D02*
G01*
X130415000Y-63990000D01*
X130415000Y-63740000D01*
X131965000Y-63740000D01*
X131965000Y-63990000D01*
G37*
%TO.C,U5*%
X107288200Y-69084400D02*
X105138200Y-69084400D01*
X105138200Y-68634400D01*
X107288200Y-68634400D01*
X107288200Y-69084400D01*
G36*
X107288200Y-69084400D02*
G01*
X105138200Y-69084400D01*
X105138200Y-68634400D01*
X107288200Y-68634400D01*
X107288200Y-69084400D01*
G37*
X107288200Y-70354400D02*
X105138200Y-70354400D01*
X105138200Y-69904400D01*
X107288200Y-69904400D01*
X107288200Y-70354400D01*
G36*
X107288200Y-70354400D02*
G01*
X105138200Y-70354400D01*
X105138200Y-69904400D01*
X107288200Y-69904400D01*
X107288200Y-70354400D01*
G37*
X107288200Y-71624400D02*
X105138200Y-71624400D01*
X105138200Y-71174400D01*
X107288200Y-71174400D01*
X107288200Y-71624400D01*
G36*
X107288200Y-71624400D02*
G01*
X105138200Y-71624400D01*
X105138200Y-71174400D01*
X107288200Y-71174400D01*
X107288200Y-71624400D01*
G37*
X107288200Y-72894400D02*
X105138200Y-72894400D01*
X105138200Y-72444400D01*
X107288200Y-72444400D01*
X107288200Y-72894400D01*
G36*
X107288200Y-72894400D02*
G01*
X105138200Y-72894400D01*
X105138200Y-72444400D01*
X107288200Y-72444400D01*
X107288200Y-72894400D01*
G37*
X110288200Y-72314400D02*
X107888200Y-72314400D01*
X107888200Y-69214400D01*
X110288200Y-69214400D01*
X110288200Y-72314400D01*
G36*
X110288200Y-72314400D02*
G01*
X107888200Y-72314400D01*
X107888200Y-69214400D01*
X110288200Y-69214400D01*
X110288200Y-72314400D01*
G37*
X113038200Y-69084400D02*
X110888200Y-69084400D01*
X110888200Y-68634400D01*
X113038200Y-68634400D01*
X113038200Y-69084400D01*
G36*
X113038200Y-69084400D02*
G01*
X110888200Y-69084400D01*
X110888200Y-68634400D01*
X113038200Y-68634400D01*
X113038200Y-69084400D01*
G37*
X113038200Y-70354400D02*
X110888200Y-70354400D01*
X110888200Y-69904400D01*
X113038200Y-69904400D01*
X113038200Y-70354400D01*
G36*
X113038200Y-70354400D02*
G01*
X110888200Y-70354400D01*
X110888200Y-69904400D01*
X113038200Y-69904400D01*
X113038200Y-70354400D01*
G37*
X113038200Y-71624400D02*
X110888200Y-71624400D01*
X110888200Y-71174400D01*
X113038200Y-71174400D01*
X113038200Y-71624400D01*
G36*
X113038200Y-71624400D02*
G01*
X110888200Y-71624400D01*
X110888200Y-71174400D01*
X113038200Y-71174400D01*
X113038200Y-71624400D01*
G37*
X113038200Y-72894400D02*
X110888200Y-72894400D01*
X110888200Y-72444400D01*
X113038200Y-72444400D01*
X113038200Y-72894400D01*
G36*
X113038200Y-72894400D02*
G01*
X110888200Y-72894400D01*
X110888200Y-72444400D01*
X113038200Y-72444400D01*
X113038200Y-72894400D01*
G37*
%TD*%
D11*
%TO.C,PG1*%
X112687000Y-50800000D03*
X115487000Y-50800000D03*
%TD*%
D12*
%TO.C,L1*%
X109829600Y-88010600D03*
X109829600Y-81610600D03*
%TD*%
D13*
%TO.C,IC2*%
X130810000Y-76200000D03*
X132080000Y-76200000D03*
X133350000Y-76200000D03*
X134620000Y-76200000D03*
X134620000Y-70662000D03*
X133350000Y-70662000D03*
X132080000Y-70662000D03*
X130810000Y-70662000D03*
D14*
X132715000Y-73431000D03*
%TD*%
D15*
%TO.C,U2*%
X150324500Y-56410000D03*
X150324500Y-57060000D03*
X150324500Y-57710000D03*
X150324500Y-58360000D03*
X150324500Y-59010000D03*
X150324500Y-59660000D03*
X150324500Y-60310000D03*
X150324500Y-60960000D03*
X150324500Y-61610000D03*
X150324500Y-62260000D03*
X150324500Y-62910000D03*
X150324500Y-63560000D03*
X156049500Y-63560000D03*
X156049500Y-62910000D03*
X156049500Y-62260000D03*
X156049500Y-61610000D03*
X156049500Y-60960000D03*
X156049500Y-60310000D03*
X156049500Y-59660000D03*
X156049500Y-59010000D03*
X156049500Y-58360000D03*
X156049500Y-57710000D03*
X156049500Y-57060000D03*
X156049500Y-56410000D03*
%TD*%
%TO.C,U1*%
X106052700Y-94316600D03*
X106052700Y-94966600D03*
X106052700Y-95616600D03*
X106052700Y-96266600D03*
X106052700Y-96916600D03*
X106052700Y-97566600D03*
X106052700Y-98216600D03*
X106052700Y-98866600D03*
X106052700Y-99516600D03*
X106052700Y-100166600D03*
X106052700Y-100816600D03*
X106052700Y-101466600D03*
X111777700Y-101466600D03*
X111777700Y-100816600D03*
X111777700Y-100166600D03*
X111777700Y-99516600D03*
X111777700Y-98866600D03*
X111777700Y-98216600D03*
X111777700Y-97566600D03*
X111777700Y-96916600D03*
X111777700Y-96266600D03*
X111777700Y-95616600D03*
X111777700Y-94966600D03*
X111777700Y-94316600D03*
%TD*%
D16*
%TO.C,U3*%
X129090000Y-62865000D03*
%TD*%
D11*
%TO.C,12V1*%
X116227000Y-53340000D03*
X119027000Y-53340000D03*
%TD*%
D17*
%TO.C,U4*%
X133892000Y-62525000D03*
X133892000Y-63175000D03*
X133892000Y-63825000D03*
X133892000Y-64475000D03*
X138192000Y-64475000D03*
X138192000Y-63825000D03*
X138192000Y-63175000D03*
X138192000Y-62525000D03*
%TD*%
D11*
%TO.C,CHG1*%
X119907000Y-50800000D03*
X122707000Y-50800000D03*
%TD*%
M02*
