%TF.GenerationSoftware,KiCad,Pcbnew,8.0.7*%
%TF.CreationDate,2025-01-25T22:31:14-05:00*%
%TF.ProjectId,shadow,73686164-6f77-42e6-9b69-6361645f7063,rev?*%
%TF.SameCoordinates,Original*%
%TF.FileFunction,Soldermask,Top*%
%TF.FilePolarity,Negative*%
%FSLAX46Y46*%
G04 Gerber Fmt 4.6, Leading zero omitted, Abs format (unit mm)*
G04 Created by KiCad (PCBNEW 8.0.7) date 2025-01-25 22:31:14*
%MOMM*%
%LPD*%
G01*
G04 APERTURE LIST*
G04 Aperture macros list*
%AMRoundRect*
0 Rectangle with rounded corners*
0 $1 Rounding radius*
0 $2 $3 $4 $5 $6 $7 $8 $9 X,Y pos of 4 corners*
0 Add a 4 corners polygon primitive as box body*
4,1,4,$2,$3,$4,$5,$6,$7,$8,$9,$2,$3,0*
0 Add four circle primitives for the rounded corners*
1,1,$1+$1,$2,$3*
1,1,$1+$1,$4,$5*
1,1,$1+$1,$6,$7*
1,1,$1+$1,$8,$9*
0 Add four rect primitives between the rounded corners*
20,1,$1+$1,$2,$3,$4,$5,0*
20,1,$1+$1,$4,$5,$6,$7,0*
20,1,$1+$1,$6,$7,$8,$9,0*
20,1,$1+$1,$8,$9,$2,$3,0*%
G04 Aperture macros list end*
%ADD10C,0.010000*%
%ADD11RoundRect,0.250000X-0.375000X-0.625000X0.375000X-0.625000X0.375000X0.625000X-0.375000X0.625000X0*%
%ADD12R,1.700000X1.700000*%
%ADD13O,1.700000X1.700000*%
%ADD14RoundRect,0.250000X0.600000X0.750000X-0.600000X0.750000X-0.600000X-0.750000X0.600000X-0.750000X0*%
%ADD15O,1.700000X2.000000*%
%ADD16R,2.200000X1.500000*%
%ADD17O,0.574000X2.038000*%
%ADD18R,2.000000X2.000000*%
%ADD19C,2.000000*%
%ADD20RoundRect,0.100000X-0.637500X-0.100000X0.637500X-0.100000X0.637500X0.100000X-0.637500X0.100000X0*%
%ADD21C,7.500000*%
%ADD22RoundRect,0.102000X-0.785000X-0.940000X0.785000X-0.940000X0.785000X0.940000X-0.785000X0.940000X0*%
%ADD23R,1.600000X1.600000*%
%ADD24O,1.600000X1.600000*%
%ADD25C,0.700000*%
%ADD26O,0.900000X2.400000*%
%ADD27O,0.900000X1.700000*%
%ADD28RoundRect,0.085500X-0.751500X-0.256500X0.751500X-0.256500X0.751500X0.256500X-0.751500X0.256500X0*%
G04 APERTURE END LIST*
D10*
%TO.C,U3*%
X127840000Y-62065000D02*
X126140000Y-62065000D01*
X126140000Y-61665000D01*
X127840000Y-61665000D01*
X127840000Y-62065000D01*
G36*
X127840000Y-62065000D02*
G01*
X126140000Y-62065000D01*
X126140000Y-61665000D01*
X127840000Y-61665000D01*
X127840000Y-62065000D01*
G37*
X127840000Y-62565000D02*
X126140000Y-62565000D01*
X126140000Y-62165000D01*
X127840000Y-62165000D01*
X127840000Y-62565000D01*
G36*
X127840000Y-62565000D02*
G01*
X126140000Y-62565000D01*
X126140000Y-62165000D01*
X127840000Y-62165000D01*
X127840000Y-62565000D01*
G37*
X127840000Y-63065000D02*
X126140000Y-63065000D01*
X126140000Y-62665000D01*
X127840000Y-62665000D01*
X127840000Y-63065000D01*
G36*
X127840000Y-63065000D02*
G01*
X126140000Y-63065000D01*
X126140000Y-62665000D01*
X127840000Y-62665000D01*
X127840000Y-63065000D01*
G37*
X127840000Y-63565000D02*
X126140000Y-63565000D01*
X126140000Y-63165000D01*
X127840000Y-63165000D01*
X127840000Y-63565000D01*
G36*
X127840000Y-63565000D02*
G01*
X126140000Y-63565000D01*
X126140000Y-63165000D01*
X127840000Y-63165000D01*
X127840000Y-63565000D01*
G37*
X127840000Y-64065000D02*
X126140000Y-64065000D01*
X126140000Y-63665000D01*
X127840000Y-63665000D01*
X127840000Y-64065000D01*
G36*
X127840000Y-64065000D02*
G01*
X126140000Y-64065000D01*
X126140000Y-63665000D01*
X127840000Y-63665000D01*
X127840000Y-64065000D01*
G37*
X132040000Y-62065000D02*
X130340000Y-62065000D01*
X130340000Y-61665000D01*
X132040000Y-61665000D01*
X132040000Y-62065000D01*
G36*
X132040000Y-62065000D02*
G01*
X130340000Y-62065000D01*
X130340000Y-61665000D01*
X132040000Y-61665000D01*
X132040000Y-62065000D01*
G37*
X132040000Y-62565000D02*
X130340000Y-62565000D01*
X130340000Y-62165000D01*
X132040000Y-62165000D01*
X132040000Y-62565000D01*
G36*
X132040000Y-62565000D02*
G01*
X130340000Y-62565000D01*
X130340000Y-62165000D01*
X132040000Y-62165000D01*
X132040000Y-62565000D01*
G37*
X132040000Y-63065000D02*
X130340000Y-63065000D01*
X130340000Y-62665000D01*
X132040000Y-62665000D01*
X132040000Y-63065000D01*
G36*
X132040000Y-63065000D02*
G01*
X130340000Y-63065000D01*
X130340000Y-62665000D01*
X132040000Y-62665000D01*
X132040000Y-63065000D01*
G37*
X132040000Y-63565000D02*
X130340000Y-63565000D01*
X130340000Y-63165000D01*
X132040000Y-63165000D01*
X132040000Y-63565000D01*
G36*
X132040000Y-63565000D02*
G01*
X130340000Y-63565000D01*
X130340000Y-63165000D01*
X132040000Y-63165000D01*
X132040000Y-63565000D01*
G37*
X132040000Y-64065000D02*
X130340000Y-64065000D01*
X130340000Y-63665000D01*
X132040000Y-63665000D01*
X132040000Y-64065000D01*
G36*
X132040000Y-64065000D02*
G01*
X130340000Y-64065000D01*
X130340000Y-63665000D01*
X132040000Y-63665000D01*
X132040000Y-64065000D01*
G37*
%TO.C,U5*%
X107383200Y-69179400D02*
X105043200Y-69179400D01*
X105043200Y-68539400D01*
X107383200Y-68539400D01*
X107383200Y-69179400D01*
G36*
X107383200Y-69179400D02*
G01*
X105043200Y-69179400D01*
X105043200Y-68539400D01*
X107383200Y-68539400D01*
X107383200Y-69179400D01*
G37*
X107383200Y-70449400D02*
X105043200Y-70449400D01*
X105043200Y-69809400D01*
X107383200Y-69809400D01*
X107383200Y-70449400D01*
G36*
X107383200Y-70449400D02*
G01*
X105043200Y-70449400D01*
X105043200Y-69809400D01*
X107383200Y-69809400D01*
X107383200Y-70449400D01*
G37*
X107383200Y-71719400D02*
X105043200Y-71719400D01*
X105043200Y-71079400D01*
X107383200Y-71079400D01*
X107383200Y-71719400D01*
G36*
X107383200Y-71719400D02*
G01*
X105043200Y-71719400D01*
X105043200Y-71079400D01*
X107383200Y-71079400D01*
X107383200Y-71719400D01*
G37*
X107383200Y-72989400D02*
X105043200Y-72989400D01*
X105043200Y-72349400D01*
X107383200Y-72349400D01*
X107383200Y-72989400D01*
G36*
X107383200Y-72989400D02*
G01*
X105043200Y-72989400D01*
X105043200Y-72349400D01*
X107383200Y-72349400D01*
X107383200Y-72989400D01*
G37*
X110288200Y-72314400D02*
X107888200Y-72314400D01*
X107888200Y-69214400D01*
X110288200Y-69214400D01*
X110288200Y-72314400D01*
G36*
X110288200Y-72314400D02*
G01*
X107888200Y-72314400D01*
X107888200Y-69214400D01*
X110288200Y-69214400D01*
X110288200Y-72314400D01*
G37*
X113133200Y-69179400D02*
X110793200Y-69179400D01*
X110793200Y-68539400D01*
X113133200Y-68539400D01*
X113133200Y-69179400D01*
G36*
X113133200Y-69179400D02*
G01*
X110793200Y-69179400D01*
X110793200Y-68539400D01*
X113133200Y-68539400D01*
X113133200Y-69179400D01*
G37*
X113133200Y-70449400D02*
X110793200Y-70449400D01*
X110793200Y-69809400D01*
X113133200Y-69809400D01*
X113133200Y-70449400D01*
G36*
X113133200Y-70449400D02*
G01*
X110793200Y-70449400D01*
X110793200Y-69809400D01*
X113133200Y-69809400D01*
X113133200Y-70449400D01*
G37*
X113133200Y-71719400D02*
X110793200Y-71719400D01*
X110793200Y-71079400D01*
X113133200Y-71079400D01*
X113133200Y-71719400D01*
G36*
X113133200Y-71719400D02*
G01*
X110793200Y-71719400D01*
X110793200Y-71079400D01*
X113133200Y-71079400D01*
X113133200Y-71719400D01*
G37*
X113133200Y-72989400D02*
X110793200Y-72989400D01*
X110793200Y-72349400D01*
X113133200Y-72349400D01*
X113133200Y-72989400D01*
G36*
X113133200Y-72989400D02*
G01*
X110793200Y-72989400D01*
X110793200Y-72349400D01*
X113133200Y-72349400D01*
X113133200Y-72989400D01*
G37*
%TD*%
D11*
%TO.C,PG1*%
X112687000Y-50800000D03*
X115487000Y-50800000D03*
%TD*%
D12*
%TO.C,I2C_PINOUT7*%
X165862000Y-99060000D03*
D13*
X165862000Y-101600000D03*
X165862000Y-104140000D03*
X165862000Y-106680000D03*
%TD*%
D12*
%TO.C,I2C_PINOUT9*%
X99847000Y-86360000D03*
D13*
X99847000Y-83820000D03*
X99847000Y-81280000D03*
X99847000Y-78740000D03*
%TD*%
D14*
%TO.C,BATT_JST1*%
X132040000Y-114300000D03*
D15*
X129540000Y-114300000D03*
%TD*%
D12*
%TO.C,I2C_PINOUT10*%
X99847000Y-99060000D03*
D13*
X99847000Y-96520000D03*
X99847000Y-93980000D03*
X99847000Y-91440000D03*
%TD*%
D12*
%TO.C,I2C_PINOUT8*%
X99847000Y-73660000D03*
D13*
X99847000Y-71120000D03*
X99847000Y-68580000D03*
X99847000Y-66040000D03*
%TD*%
D12*
%TO.C,I2C_PINOUT0*%
X160782000Y-60960000D03*
D13*
X160782000Y-63500000D03*
X160782000Y-66040000D03*
X160782000Y-68580000D03*
%TD*%
D12*
%TO.C,I2C_PINOUT12*%
X114300000Y-109220000D03*
D13*
X111760000Y-109220000D03*
X109220000Y-109220000D03*
X106680000Y-109220000D03*
%TD*%
D16*
%TO.C,L1*%
X109829600Y-88010600D03*
X109829600Y-81610600D03*
%TD*%
D12*
%TO.C,UART1*%
X111760000Y-114300000D03*
D13*
X109220000Y-114300000D03*
X106680000Y-114300000D03*
%TD*%
D12*
%TO.C,I2C_PINOUT2*%
X160782000Y-86360000D03*
D13*
X160782000Y-88900000D03*
X160782000Y-91440000D03*
X160782000Y-93980000D03*
%TD*%
D17*
%TO.C,IC2*%
X130810000Y-76200000D03*
X132080000Y-76200000D03*
X133350000Y-76200000D03*
X134620000Y-76200000D03*
X134620000Y-70662000D03*
X133350000Y-70662000D03*
X132080000Y-70662000D03*
X130810000Y-70662000D03*
D18*
X132715000Y-73431000D03*
%TD*%
D19*
%TO.C,SW2*%
X150087000Y-112050000D03*
X156587000Y-112050000D03*
X150087000Y-116550000D03*
X156587000Y-116550000D03*
%TD*%
D20*
%TO.C,U2*%
X150324500Y-56410000D03*
X150324500Y-57060000D03*
X150324500Y-57710000D03*
X150324500Y-58360000D03*
X150324500Y-59010000D03*
X150324500Y-59660000D03*
X150324500Y-60310000D03*
X150324500Y-60960000D03*
X150324500Y-61610000D03*
X150324500Y-62260000D03*
X150324500Y-62910000D03*
X150324500Y-63560000D03*
X156049500Y-63560000D03*
X156049500Y-62910000D03*
X156049500Y-62260000D03*
X156049500Y-61610000D03*
X156049500Y-60960000D03*
X156049500Y-60310000D03*
X156049500Y-59660000D03*
X156049500Y-59010000D03*
X156049500Y-58360000D03*
X156049500Y-57710000D03*
X156049500Y-57060000D03*
X156049500Y-56410000D03*
%TD*%
D12*
%TO.C,PICO_R1*%
X143027000Y-68610000D03*
D13*
X143027000Y-71150000D03*
X143027000Y-73690000D03*
X143027000Y-76230000D03*
X143027000Y-78770000D03*
X143027000Y-81310000D03*
X143027000Y-83850000D03*
X143027000Y-86390000D03*
X143027000Y-88930000D03*
X143027000Y-91470000D03*
X143027000Y-94010000D03*
X143027000Y-96550000D03*
X143027000Y-99090000D03*
X143027000Y-101630000D03*
X143027000Y-104170000D03*
%TD*%
D19*
%TO.C,RST_SW1*%
X125680000Y-50328000D03*
X132180000Y-50328000D03*
X125680000Y-54828000D03*
X132180000Y-54828000D03*
%TD*%
D21*
%TO.C,H4*%
X104140000Y-121920000D03*
%TD*%
D12*
%TO.C,OLED_CONN1*%
X116367000Y-114300000D03*
D13*
X118907000Y-114300000D03*
X121447000Y-114300000D03*
X123987000Y-114300000D03*
%TD*%
D21*
%TO.C,H5*%
X162560000Y-121920000D03*
%TD*%
D20*
%TO.C,U1*%
X106052700Y-94316600D03*
X106052700Y-94966600D03*
X106052700Y-95616600D03*
X106052700Y-96266600D03*
X106052700Y-96916600D03*
X106052700Y-97566600D03*
X106052700Y-98216600D03*
X106052700Y-98866600D03*
X106052700Y-99516600D03*
X106052700Y-100166600D03*
X106052700Y-100816600D03*
X106052700Y-101466600D03*
X111777700Y-101466600D03*
X111777700Y-100816600D03*
X111777700Y-100166600D03*
X111777700Y-99516600D03*
X111777700Y-98866600D03*
X111777700Y-98216600D03*
X111777700Y-97566600D03*
X111777700Y-96916600D03*
X111777700Y-96266600D03*
X111777700Y-95616600D03*
X111777700Y-94966600D03*
X111777700Y-94316600D03*
%TD*%
D12*
%TO.C,I2C_PINOUT5*%
X165862000Y-73660000D03*
D13*
X165862000Y-76200000D03*
X165862000Y-78740000D03*
X165862000Y-81280000D03*
%TD*%
D12*
%TO.C,I2C_PINOUT6*%
X165862000Y-86360000D03*
D13*
X165862000Y-88900000D03*
X165862000Y-91440000D03*
X165862000Y-93980000D03*
%TD*%
D22*
%TO.C,U3*%
X129090000Y-62865000D03*
%TD*%
D12*
%TO.C,MOTOR_CONN1*%
X132867000Y-124460000D03*
D13*
X135407000Y-124460000D03*
%TD*%
D19*
%TO.C,SW1*%
X137237000Y-112050000D03*
X143737000Y-112050000D03*
X137237000Y-116550000D03*
X143737000Y-116550000D03*
%TD*%
D21*
%TO.C,H1*%
X104140000Y-53340000D03*
%TD*%
D12*
%TO.C,US1*%
X137160000Y-55855000D03*
D13*
X139700000Y-55855000D03*
X142240000Y-55855000D03*
X144780000Y-55855000D03*
%TD*%
D23*
%TO.C,SW3*%
X151384000Y-122682000D03*
D24*
X143764000Y-122682000D03*
%TD*%
D25*
%TO.C,J1*%
X114627000Y-119495200D03*
X115477000Y-119495200D03*
X116327000Y-119495200D03*
X117177000Y-119495200D03*
X118027000Y-119495200D03*
X118877000Y-119495200D03*
X119727000Y-119495200D03*
X120577000Y-119495200D03*
X120577000Y-120845200D03*
X119727000Y-120845200D03*
X118877000Y-120845200D03*
X118027000Y-120845200D03*
X117177000Y-120845200D03*
X116327000Y-120845200D03*
X115477000Y-120845200D03*
X114627000Y-120845200D03*
D26*
X113277000Y-120475200D03*
D27*
X113277000Y-123855200D03*
D26*
X121927000Y-120475200D03*
D27*
X121927000Y-123855200D03*
%TD*%
D12*
%TO.C,GPIO_L1*%
X116357000Y-104170000D03*
D13*
X116357000Y-101630000D03*
X116357000Y-99090000D03*
X116357000Y-96550000D03*
X116357000Y-94010000D03*
X116357000Y-91470000D03*
X116357000Y-88930000D03*
X116357000Y-86390000D03*
X116357000Y-83850000D03*
X116357000Y-81310000D03*
X116357000Y-78770000D03*
X116357000Y-76230000D03*
X116357000Y-73690000D03*
X116357000Y-71150000D03*
X116357000Y-68610000D03*
%TD*%
D12*
%TO.C,I2C_PINOUT4*%
X165862000Y-60960000D03*
D13*
X165862000Y-63500000D03*
X165862000Y-66040000D03*
X165862000Y-68580000D03*
%TD*%
D21*
%TO.C,H3*%
X134620000Y-88900000D03*
%TD*%
D11*
%TO.C,12V1*%
X116227000Y-53340000D03*
X119027000Y-53340000D03*
%TD*%
D12*
%TO.C,I2C_PINOUT1*%
X160807000Y-73660000D03*
D13*
X160807000Y-76200000D03*
X160807000Y-78740000D03*
X160807000Y-81280000D03*
%TD*%
D12*
%TO.C,PICO_L1*%
X123977000Y-68610000D03*
D13*
X123977000Y-71150000D03*
X123977000Y-73690000D03*
X123977000Y-76230000D03*
X123977000Y-78770000D03*
X123977000Y-81310000D03*
X123977000Y-83850000D03*
X123977000Y-86390000D03*
X123977000Y-88930000D03*
X123977000Y-91470000D03*
X123977000Y-94010000D03*
X123977000Y-96550000D03*
X123977000Y-99090000D03*
X123977000Y-101630000D03*
X123977000Y-104170000D03*
%TD*%
D21*
%TO.C,H2*%
X162560000Y-53340000D03*
%TD*%
D12*
%TO.C,I2C_PINOUT11*%
X99847000Y-111760000D03*
D13*
X99847000Y-109220000D03*
X99847000Y-106680000D03*
X99847000Y-104140000D03*
%TD*%
D28*
%TO.C,U4*%
X133892000Y-62525000D03*
X133892000Y-63175000D03*
X133892000Y-63825000D03*
X133892000Y-64475000D03*
X138192000Y-64475000D03*
X138192000Y-63825000D03*
X138192000Y-63175000D03*
X138192000Y-62525000D03*
%TD*%
D12*
%TO.C,GPIO_R1*%
X150647000Y-68610000D03*
D13*
X150647000Y-71150000D03*
X150647000Y-73690000D03*
X150647000Y-76230000D03*
X150647000Y-78770000D03*
X150647000Y-81310000D03*
X150647000Y-83850000D03*
X150647000Y-86390000D03*
X150647000Y-88930000D03*
X150647000Y-91470000D03*
X150647000Y-94010000D03*
X150647000Y-96550000D03*
X150647000Y-99090000D03*
X150647000Y-101630000D03*
X150647000Y-104170000D03*
%TD*%
D11*
%TO.C,CHG1*%
X119907000Y-50800000D03*
X122707000Y-50800000D03*
%TD*%
D12*
%TO.C,I2C_PINOUT3*%
X160782000Y-99060000D03*
D13*
X160782000Y-101600000D03*
X160782000Y-104140000D03*
X160782000Y-106680000D03*
%TD*%
D12*
%TO.C,ARR1*%
X137160000Y-50800000D03*
D13*
X139700000Y-50800000D03*
X142240000Y-50800000D03*
X144780000Y-50800000D03*
%TD*%
D18*
%TO.C,C13*%
X110493800Y-60985400D03*
D19*
X115493800Y-60985400D03*
%TD*%
M02*
