%TF.GenerationSoftware,KiCad,Pcbnew,8.0.7*%
%TF.CreationDate,2025-01-25T22:31:14-05:00*%
%TF.ProjectId,shadow,73686164-6f77-42e6-9b69-6361645f7063,rev?*%
%TF.SameCoordinates,Original*%
%TF.FileFunction,Copper,L2,Bot*%
%TF.FilePolarity,Positive*%
%FSLAX46Y46*%
G04 Gerber Fmt 4.6, Leading zero omitted, Abs format (unit mm)*
G04 Created by KiCad (PCBNEW 8.0.7) date 2025-01-25 22:31:14*
%MOMM*%
%LPD*%
G01*
G04 APERTURE LIST*
G04 Aperture macros list*
%AMRoundRect*
0 Rectangle with rounded corners*
0 $1 Rounding radius*
0 $2 $3 $4 $5 $6 $7 $8 $9 X,Y pos of 4 corners*
0 Add a 4 corners polygon primitive as box body*
4,1,4,$2,$3,$4,$5,$6,$7,$8,$9,$2,$3,0*
0 Add four circle primitives for the rounded corners*
1,1,$1+$1,$2,$3*
1,1,$1+$1,$4,$5*
1,1,$1+$1,$6,$7*
1,1,$1+$1,$8,$9*
0 Add four rect primitives between the rounded corners*
20,1,$1+$1,$2,$3,$4,$5,0*
20,1,$1+$1,$4,$5,$6,$7,0*
20,1,$1+$1,$6,$7,$8,$9,0*
20,1,$1+$1,$8,$9,$2,$3,0*%
G04 Aperture macros list end*
%TA.AperFunction,ComponentPad*%
%ADD10R,1.700000X1.700000*%
%TD*%
%TA.AperFunction,ComponentPad*%
%ADD11O,1.700000X1.700000*%
%TD*%
%TA.AperFunction,ComponentPad*%
%ADD12RoundRect,0.250000X0.600000X0.750000X-0.600000X0.750000X-0.600000X-0.750000X0.600000X-0.750000X0*%
%TD*%
%TA.AperFunction,ComponentPad*%
%ADD13O,1.700000X2.000000*%
%TD*%
%TA.AperFunction,ComponentPad*%
%ADD14C,2.000000*%
%TD*%
%TA.AperFunction,ComponentPad*%
%ADD15C,7.500000*%
%TD*%
%TA.AperFunction,ComponentPad*%
%ADD16C,0.400000*%
%TD*%
%TA.AperFunction,ComponentPad*%
%ADD17R,1.600000X1.600000*%
%TD*%
%TA.AperFunction,ComponentPad*%
%ADD18O,1.600000X1.600000*%
%TD*%
%TA.AperFunction,ComponentPad*%
%ADD19C,0.700000*%
%TD*%
%TA.AperFunction,ComponentPad*%
%ADD20O,0.900000X2.400000*%
%TD*%
%TA.AperFunction,ComponentPad*%
%ADD21O,0.900000X1.700000*%
%TD*%
%TA.AperFunction,ComponentPad*%
%ADD22R,2.000000X2.000000*%
%TD*%
%TA.AperFunction,SMDPad,CuDef*%
%ADD23RoundRect,0.100000X-0.130000X-0.100000X0.130000X-0.100000X0.130000X0.100000X-0.130000X0.100000X0*%
%TD*%
%TA.AperFunction,SMDPad,CuDef*%
%ADD24RoundRect,0.250000X-0.375000X-0.625000X0.375000X-0.625000X0.375000X0.625000X-0.375000X0.625000X0*%
%TD*%
%TA.AperFunction,SMDPad,CuDef*%
%ADD25RoundRect,0.250000X0.325000X0.650000X-0.325000X0.650000X-0.325000X-0.650000X0.325000X-0.650000X0*%
%TD*%
%TA.AperFunction,SMDPad,CuDef*%
%ADD26R,1.000000X1.500000*%
%TD*%
%TA.AperFunction,SMDPad,CuDef*%
%ADD27RoundRect,0.100000X0.130000X0.100000X-0.130000X0.100000X-0.130000X-0.100000X0.130000X-0.100000X0*%
%TD*%
%TA.AperFunction,SMDPad,CuDef*%
%ADD28RoundRect,0.100000X-0.100000X0.130000X-0.100000X-0.130000X0.100000X-0.130000X0.100000X0.130000X0*%
%TD*%
%TA.AperFunction,SMDPad,CuDef*%
%ADD29RoundRect,0.250000X0.312500X0.625000X-0.312500X0.625000X-0.312500X-0.625000X0.312500X-0.625000X0*%
%TD*%
%TA.AperFunction,SMDPad,CuDef*%
%ADD30RoundRect,0.250000X-0.312500X-0.625000X0.312500X-0.625000X0.312500X0.625000X-0.312500X0.625000X0*%
%TD*%
%TA.AperFunction,SMDPad,CuDef*%
%ADD31RoundRect,0.250000X0.625000X-0.312500X0.625000X0.312500X-0.625000X0.312500X-0.625000X-0.312500X0*%
%TD*%
%TA.AperFunction,SMDPad,CuDef*%
%ADD32RoundRect,0.250000X0.650000X-0.325000X0.650000X0.325000X-0.650000X0.325000X-0.650000X-0.325000X0*%
%TD*%
%TA.AperFunction,SMDPad,CuDef*%
%ADD33RoundRect,0.100000X0.100000X-0.130000X0.100000X0.130000X-0.100000X0.130000X-0.100000X-0.130000X0*%
%TD*%
%TA.AperFunction,ViaPad*%
%ADD34C,0.600000*%
%TD*%
%TA.AperFunction,Conductor*%
%ADD35C,0.200000*%
%TD*%
G04 APERTURE END LIST*
D10*
%TO.P,I2C_PINOUT7,1,Pin_1*%
%TO.N,/I2C_PINOUT7/SCL*%
X165862000Y-99060000D03*
D11*
%TO.P,I2C_PINOUT7,2,Pin_2*%
%TO.N,/I2C_PINOUT7/SDA*%
X165862000Y-101600000D03*
%TO.P,I2C_PINOUT7,3,Pin_3*%
%TO.N,VCC*%
X165862000Y-104140000D03*
%TO.P,I2C_PINOUT7,4,Pin_4*%
%TO.N,GND*%
X165862000Y-106680000D03*
%TD*%
D10*
%TO.P,I2C_PINOUT9,1,Pin_1*%
%TO.N,/I2C_PINOUT9/SCL*%
X99847000Y-86360000D03*
D11*
%TO.P,I2C_PINOUT9,2,Pin_2*%
%TO.N,/I2C_PINOUT9/SDA*%
X99847000Y-83820000D03*
%TO.P,I2C_PINOUT9,3,Pin_3*%
%TO.N,VCC*%
X99847000Y-81280000D03*
%TO.P,I2C_PINOUT9,4,Pin_4*%
%TO.N,GND*%
X99847000Y-78740000D03*
%TD*%
D12*
%TO.P,BATT_JST1,1,Pin_1*%
%TO.N,/battery/BAT+*%
X132040000Y-114300000D03*
D13*
%TO.P,BATT_JST1,2,Pin_2*%
%TO.N,/battery/BAT-*%
X129540000Y-114300000D03*
%TD*%
D10*
%TO.P,I2C_PINOUT10,1,Pin_1*%
%TO.N,/I2C_PINOUT10/SCL*%
X99847000Y-99060000D03*
D11*
%TO.P,I2C_PINOUT10,2,Pin_2*%
%TO.N,/I2C_PINOUT10/SDA*%
X99847000Y-96520000D03*
%TO.P,I2C_PINOUT10,3,Pin_3*%
%TO.N,VCC*%
X99847000Y-93980000D03*
%TO.P,I2C_PINOUT10,4,Pin_4*%
%TO.N,GND*%
X99847000Y-91440000D03*
%TD*%
D10*
%TO.P,I2C_PINOUT8,1,Pin_1*%
%TO.N,/I2C_PINOUT8/SCL*%
X99847000Y-73660000D03*
D11*
%TO.P,I2C_PINOUT8,2,Pin_2*%
%TO.N,/I2C_PINOUT8/SDA*%
X99847000Y-71120000D03*
%TO.P,I2C_PINOUT8,3,Pin_3*%
%TO.N,VCC*%
X99847000Y-68580000D03*
%TO.P,I2C_PINOUT8,4,Pin_4*%
%TO.N,GND*%
X99847000Y-66040000D03*
%TD*%
D10*
%TO.P,I2C_PINOUT0,1,Pin_1*%
%TO.N,/I2C_PINOUT/SCL*%
X160782000Y-60960000D03*
D11*
%TO.P,I2C_PINOUT0,2,Pin_2*%
%TO.N,/I2C_PINOUT/SDA*%
X160782000Y-63500000D03*
%TO.P,I2C_PINOUT0,3,Pin_3*%
%TO.N,VCC*%
X160782000Y-66040000D03*
%TO.P,I2C_PINOUT0,4,Pin_4*%
%TO.N,GND*%
X160782000Y-68580000D03*
%TD*%
D10*
%TO.P,I2C_PINOUT12,1,Pin_1*%
%TO.N,/I2C_PINOUT12/SCL*%
X114300000Y-109220000D03*
D11*
%TO.P,I2C_PINOUT12,2,Pin_2*%
%TO.N,/I2C_PINOUT12/SDA*%
X111760000Y-109220000D03*
%TO.P,I2C_PINOUT12,3,Pin_3*%
%TO.N,VCC*%
X109220000Y-109220000D03*
%TO.P,I2C_PINOUT12,4,Pin_4*%
%TO.N,GND*%
X106680000Y-109220000D03*
%TD*%
D10*
%TO.P,UART1,1,Pin_1*%
%TO.N,/GPIO2*%
X111760000Y-114300000D03*
D11*
%TO.P,UART1,2,Pin_2*%
%TO.N,/GPIO1*%
X109220000Y-114300000D03*
%TO.P,UART1,3,Pin_3*%
%TO.N,/GPIO0*%
X106680000Y-114300000D03*
%TD*%
D10*
%TO.P,I2C_PINOUT2,1,Pin_1*%
%TO.N,/I2C_PINOUT2/SCL*%
X160782000Y-86360000D03*
D11*
%TO.P,I2C_PINOUT2,2,Pin_2*%
%TO.N,/I2C_PINOUT2/SDA*%
X160782000Y-88900000D03*
%TO.P,I2C_PINOUT2,3,Pin_3*%
%TO.N,VCC*%
X160782000Y-91440000D03*
%TO.P,I2C_PINOUT2,4,Pin_4*%
%TO.N,GND*%
X160782000Y-93980000D03*
%TD*%
D14*
%TO.P,SW2,1,1*%
%TO.N,/GPIO24*%
X150087000Y-112050000D03*
X156587000Y-112050000D03*
%TO.P,SW2,2,2*%
%TO.N,GND*%
X150087000Y-116550000D03*
X156587000Y-116550000D03*
%TD*%
D10*
%TO.P,PICO_R1,1,Pin_1*%
%TO.N,/GPIO29*%
X143027000Y-68610000D03*
D11*
%TO.P,PICO_R1,2,Pin_2*%
%TO.N,/GPIO28*%
X143027000Y-71150000D03*
%TO.P,PICO_R1,3,Pin_3*%
%TO.N,/GPIO27*%
X143027000Y-73690000D03*
%TO.P,PICO_R1,4,Pin_4*%
%TO.N,/GPIO26*%
X143027000Y-76230000D03*
%TO.P,PICO_R1,5,Pin_5*%
%TO.N,/GPIO25*%
X143027000Y-78770000D03*
%TO.P,PICO_R1,6,Pin_6*%
%TO.N,/GPIO24*%
X143027000Y-81310000D03*
%TO.P,PICO_R1,7,Pin_7*%
%TO.N,/GPIO23*%
X143027000Y-83850000D03*
%TO.P,PICO_R1,8,Pin_8*%
%TO.N,/GPIO22*%
X143027000Y-86390000D03*
%TO.P,PICO_R1,9,Pin_9*%
%TO.N,/GPIO21*%
X143027000Y-88930000D03*
%TO.P,PICO_R1,10,Pin_10*%
%TO.N,/GPIO20*%
X143027000Y-91470000D03*
%TO.P,PICO_R1,11,Pin_11*%
%TO.N,/GPIO19*%
X143027000Y-94010000D03*
%TO.P,PICO_R1,12,Pin_12*%
%TO.N,/GPIO18*%
X143027000Y-96550000D03*
%TO.P,PICO_R1,13,Pin_13*%
%TO.N,GND*%
X143027000Y-99090000D03*
%TO.P,PICO_R1,14,Pin_14*%
%TO.N,VCC*%
X143027000Y-101630000D03*
%TO.P,PICO_R1,15,Pin_15*%
%TO.N,/GPIO15*%
X143027000Y-104170000D03*
%TD*%
D14*
%TO.P,RST_SW1,1,1*%
%TO.N,/GPIO20*%
X125680000Y-50328000D03*
X132180000Y-50328000D03*
%TO.P,RST_SW1,2,2*%
%TO.N,GND*%
X125680000Y-54828000D03*
X132180000Y-54828000D03*
%TD*%
D15*
%TO.P,H4,1,1*%
%TO.N,GND*%
X104140000Y-121920000D03*
%TD*%
D10*
%TO.P,OLED_CONN1,1,Pin_1*%
%TO.N,VCC*%
X116367000Y-114300000D03*
D11*
%TO.P,OLED_CONN1,2,Pin_2*%
%TO.N,GND*%
X118907000Y-114300000D03*
%TO.P,OLED_CONN1,3,Pin_3*%
%TO.N,/OLED_SCL*%
X121447000Y-114300000D03*
%TO.P,OLED_CONN1,4,Pin_4*%
%TO.N,/OLED_SDA*%
X123987000Y-114300000D03*
%TD*%
D15*
%TO.P,H5,1,1*%
%TO.N,GND*%
X162560000Y-121920000D03*
%TD*%
D10*
%TO.P,I2C_PINOUT5,1,Pin_1*%
%TO.N,/I2C_PINOUT5/SCL*%
X165862000Y-73660000D03*
D11*
%TO.P,I2C_PINOUT5,2,Pin_2*%
%TO.N,/I2C_PINOUT5/SDA*%
X165862000Y-76200000D03*
%TO.P,I2C_PINOUT5,3,Pin_3*%
%TO.N,VCC*%
X165862000Y-78740000D03*
%TO.P,I2C_PINOUT5,4,Pin_4*%
%TO.N,GND*%
X165862000Y-81280000D03*
%TD*%
D10*
%TO.P,I2C_PINOUT6,1,Pin_1*%
%TO.N,/I2C_PINOUT6/SCL*%
X165862000Y-86360000D03*
D11*
%TO.P,I2C_PINOUT6,2,Pin_2*%
%TO.N,/I2C_PINOUT6/SDA*%
X165862000Y-88900000D03*
%TO.P,I2C_PINOUT6,3,Pin_3*%
%TO.N,VCC*%
X165862000Y-91440000D03*
%TO.P,I2C_PINOUT6,4,Pin_4*%
%TO.N,GND*%
X165862000Y-93980000D03*
%TD*%
D16*
%TO.P,U3,12*%
%TO.N,N/C*%
X128640000Y-62265000D03*
%TO.P,U3,13*%
X129540000Y-62265000D03*
%TO.P,U3,14*%
X129090000Y-62865000D03*
%TO.P,U3,15*%
X128640000Y-63465000D03*
%TO.P,U3,16*%
X129540000Y-63465000D03*
%TD*%
%TO.P,U5,10*%
%TO.N,N/C*%
X109738200Y-72064400D03*
%TO.P,U5,11*%
X108438200Y-72064400D03*
%TO.P,U5,12*%
X109738200Y-70764400D03*
%TO.P,U5,13*%
X108438200Y-70764400D03*
%TO.P,U5,14*%
X109738200Y-69464400D03*
%TO.P,U5,15*%
X108438200Y-69464400D03*
%TD*%
D10*
%TO.P,MOTOR_CONN1,1,Pin_1*%
%TO.N,/GPIO4*%
X132867000Y-124460000D03*
D11*
%TO.P,MOTOR_CONN1,2,Pin_2*%
%TO.N,/GPIO3*%
X135407000Y-124460000D03*
%TD*%
D14*
%TO.P,SW1,1,1*%
%TO.N,/GPIO23*%
X137237000Y-112050000D03*
X143737000Y-112050000D03*
%TO.P,SW1,2,2*%
%TO.N,GND*%
X137237000Y-116550000D03*
X143737000Y-116550000D03*
%TD*%
D15*
%TO.P,H1,1,1*%
%TO.N,GND*%
X104140000Y-53340000D03*
%TD*%
D10*
%TO.P,US1,1,Pin_1*%
%TO.N,/US_SDA*%
X137160000Y-55855000D03*
D11*
%TO.P,US1,2,Pin_2*%
%TO.N,/US_SCL*%
X139700000Y-55855000D03*
%TO.P,US1,3,Pin_3*%
%TO.N,VCC*%
X142240000Y-55855000D03*
%TO.P,US1,4,Pin_4*%
%TO.N,GND*%
X144780000Y-55855000D03*
%TD*%
D17*
%TO.P,SW3,1,A*%
%TO.N,/battery/BAT+*%
X151384000Y-122682000D03*
D18*
%TO.P,SW3,2,B*%
%TO.N,Net-(SW3-B)*%
X143764000Y-122682000D03*
%TD*%
D19*
%TO.P,J1,A1,GND*%
%TO.N,GND*%
X114627000Y-119495200D03*
%TO.P,J1,A4,VBUS*%
%TO.N,Net-(U3-IN)*%
X115477000Y-119495200D03*
%TO.P,J1,A5,CC1*%
%TO.N,unconnected-(J1-CC1-PadA5)*%
X116327000Y-119495200D03*
%TO.P,J1,A6,D+*%
%TO.N,unconnected-(J1-D+-PadA6)*%
X117177000Y-119495200D03*
%TO.P,J1,A7,D-*%
%TO.N,unconnected-(J1-D--PadA7)*%
X118027000Y-119495200D03*
%TO.P,J1,A8,SBU1*%
%TO.N,unconnected-(J1-SBU1-PadA8)*%
X118877000Y-119495200D03*
%TO.P,J1,A9,VBUS*%
%TO.N,Net-(U3-IN)*%
X119727000Y-119495200D03*
%TO.P,J1,A12,GND*%
%TO.N,GND*%
X120577000Y-119495200D03*
%TO.P,J1,B1,GND*%
X120577000Y-120845200D03*
%TO.P,J1,B4,VBUS*%
%TO.N,Net-(U3-IN)*%
X119727000Y-120845200D03*
%TO.P,J1,B5,CC2*%
%TO.N,unconnected-(J1-CC2-PadB5)*%
X118877000Y-120845200D03*
%TO.P,J1,B6,D+*%
%TO.N,unconnected-(J1-D+-PadB6)*%
X118027000Y-120845200D03*
%TO.P,J1,B7,D-*%
%TO.N,unconnected-(J1-D--PadB7)*%
X117177000Y-120845200D03*
%TO.P,J1,B8,SBU2*%
%TO.N,unconnected-(J1-SBU2-PadB8)*%
X116327000Y-120845200D03*
%TO.P,J1,B9,VBUS*%
%TO.N,Net-(U3-IN)*%
X115477000Y-120845200D03*
%TO.P,J1,B12,GND*%
%TO.N,GND*%
X114627000Y-120845200D03*
D20*
%TO.P,J1,S1,SHIELD*%
%TO.N,Net-(J1-SHIELD)*%
X113277000Y-120475200D03*
D21*
X113277000Y-123855200D03*
D20*
X121927000Y-120475200D03*
D21*
X121927000Y-123855200D03*
%TD*%
D10*
%TO.P,GPIO_L1,1,Pin_1*%
%TO.N,/GPIO14*%
X116357000Y-104170000D03*
D11*
%TO.P,GPIO_L1,2,Pin_2*%
%TO.N,/GPIO13*%
X116357000Y-101630000D03*
%TO.P,GPIO_L1,3,Pin_3*%
%TO.N,GND*%
X116357000Y-99090000D03*
%TO.P,GPIO_L1,4,Pin_4*%
%TO.N,/GPIO11*%
X116357000Y-96550000D03*
%TO.P,GPIO_L1,5,Pin_5*%
%TO.N,/GPIO10*%
X116357000Y-94010000D03*
%TO.P,GPIO_L1,6,Pin_6*%
%TO.N,/GPIO9*%
X116357000Y-91470000D03*
%TO.P,GPIO_L1,7,Pin_7*%
%TO.N,/GPIO8*%
X116357000Y-88930000D03*
%TO.P,GPIO_L1,8,Pin_8*%
%TO.N,/GPIO7*%
X116357000Y-86390000D03*
%TO.P,GPIO_L1,9,Pin_9*%
%TO.N,/GPIO6*%
X116357000Y-83850000D03*
%TO.P,GPIO_L1,10,Pin_10*%
%TO.N,/GPIO5*%
X116357000Y-81310000D03*
%TO.P,GPIO_L1,11,Pin_11*%
%TO.N,/GPIO4*%
X116357000Y-78770000D03*
%TO.P,GPIO_L1,12,Pin_12*%
%TO.N,/GPIO3*%
X116357000Y-76230000D03*
%TO.P,GPIO_L1,13,Pin_13*%
%TO.N,/GPIO2*%
X116357000Y-73690000D03*
%TO.P,GPIO_L1,14,Pin_14*%
%TO.N,/GPIO1*%
X116357000Y-71150000D03*
%TO.P,GPIO_L1,15,Pin_15*%
%TO.N,/GPIO0*%
X116357000Y-68610000D03*
%TD*%
D10*
%TO.P,I2C_PINOUT4,1,Pin_1*%
%TO.N,/I2C_PINOUT4/SCL*%
X165862000Y-60960000D03*
D11*
%TO.P,I2C_PINOUT4,2,Pin_2*%
%TO.N,/I2C_PINOUT4/SDA*%
X165862000Y-63500000D03*
%TO.P,I2C_PINOUT4,3,Pin_3*%
%TO.N,VCC*%
X165862000Y-66040000D03*
%TO.P,I2C_PINOUT4,4,Pin_4*%
%TO.N,GND*%
X165862000Y-68580000D03*
%TD*%
D15*
%TO.P,H3,1,1*%
%TO.N,GND*%
X134620000Y-88900000D03*
%TD*%
D10*
%TO.P,I2C_PINOUT1,1,Pin_1*%
%TO.N,/I2C_PINOUT1/SCL*%
X160807000Y-73660000D03*
D11*
%TO.P,I2C_PINOUT1,2,Pin_2*%
%TO.N,/I2C_PINOUT1/SDA*%
X160807000Y-76200000D03*
%TO.P,I2C_PINOUT1,3,Pin_3*%
%TO.N,VCC*%
X160807000Y-78740000D03*
%TO.P,I2C_PINOUT1,4,Pin_4*%
%TO.N,GND*%
X160807000Y-81280000D03*
%TD*%
D10*
%TO.P,PICO_L1,1,Pin_1*%
%TO.N,/GPIO0*%
X123977000Y-68610000D03*
D11*
%TO.P,PICO_L1,2,Pin_2*%
%TO.N,/GPIO1*%
X123977000Y-71150000D03*
%TO.P,PICO_L1,3,Pin_3*%
%TO.N,/GPIO2*%
X123977000Y-73690000D03*
%TO.P,PICO_L1,4,Pin_4*%
%TO.N,/GPIO3*%
X123977000Y-76230000D03*
%TO.P,PICO_L1,5,Pin_5*%
%TO.N,/GPIO4*%
X123977000Y-78770000D03*
%TO.P,PICO_L1,6,Pin_6*%
%TO.N,/GPIO5*%
X123977000Y-81310000D03*
%TO.P,PICO_L1,7,Pin_7*%
%TO.N,/GPIO6*%
X123977000Y-83850000D03*
%TO.P,PICO_L1,8,Pin_8*%
%TO.N,/GPIO7*%
X123977000Y-86390000D03*
%TO.P,PICO_L1,9,Pin_9*%
%TO.N,/GPIO8*%
X123977000Y-88930000D03*
%TO.P,PICO_L1,10,Pin_10*%
%TO.N,/GPIO9*%
X123977000Y-91470000D03*
%TO.P,PICO_L1,11,Pin_11*%
%TO.N,/GPIO10*%
X123977000Y-94010000D03*
%TO.P,PICO_L1,12,Pin_12*%
%TO.N,/GPIO11*%
X123977000Y-96550000D03*
%TO.P,PICO_L1,13,Pin_13*%
%TO.N,GND*%
X123977000Y-99090000D03*
%TO.P,PICO_L1,14,Pin_14*%
%TO.N,/GPIO13*%
X123977000Y-101630000D03*
%TO.P,PICO_L1,15,Pin_15*%
%TO.N,/GPIO14*%
X123977000Y-104170000D03*
%TD*%
D15*
%TO.P,H2,1,1*%
%TO.N,GND*%
X162560000Y-53340000D03*
%TD*%
D10*
%TO.P,I2C_PINOUT11,1,Pin_1*%
%TO.N,/I2C_PINOUT11/SCL*%
X99847000Y-111760000D03*
D11*
%TO.P,I2C_PINOUT11,2,Pin_2*%
%TO.N,/I2C_PINOUT11/SDA*%
X99847000Y-109220000D03*
%TO.P,I2C_PINOUT11,3,Pin_3*%
%TO.N,VCC*%
X99847000Y-106680000D03*
%TO.P,I2C_PINOUT11,4,Pin_4*%
%TO.N,GND*%
X99847000Y-104140000D03*
%TD*%
D10*
%TO.P,GPIO_R1,1,Pin_1*%
%TO.N,/GPIO29*%
X150647000Y-68610000D03*
D11*
%TO.P,GPIO_R1,2,Pin_2*%
%TO.N,/GPIO28*%
X150647000Y-71150000D03*
%TO.P,GPIO_R1,3,Pin_3*%
%TO.N,/GPIO27*%
X150647000Y-73690000D03*
%TO.P,GPIO_R1,4,Pin_4*%
%TO.N,/GPIO26*%
X150647000Y-76230000D03*
%TO.P,GPIO_R1,5,Pin_5*%
%TO.N,/GPIO25*%
X150647000Y-78770000D03*
%TO.P,GPIO_R1,6,Pin_6*%
%TO.N,/GPIO24*%
X150647000Y-81310000D03*
%TO.P,GPIO_R1,7,Pin_7*%
%TO.N,/GPIO23*%
X150647000Y-83850000D03*
%TO.P,GPIO_R1,8,Pin_8*%
%TO.N,/GPIO22*%
X150647000Y-86390000D03*
%TO.P,GPIO_R1,9,Pin_9*%
%TO.N,/GPIO21*%
X150647000Y-88930000D03*
%TO.P,GPIO_R1,10,Pin_10*%
%TO.N,/GPIO20*%
X150647000Y-91470000D03*
%TO.P,GPIO_R1,11,Pin_11*%
%TO.N,/GPIO19*%
X150647000Y-94010000D03*
%TO.P,GPIO_R1,12,Pin_12*%
%TO.N,/GPIO18*%
X150647000Y-96550000D03*
%TO.P,GPIO_R1,13,Pin_13*%
%TO.N,GND*%
X150647000Y-99090000D03*
%TO.P,GPIO_R1,14,Pin_14*%
%TO.N,VCC*%
X150647000Y-101630000D03*
%TO.P,GPIO_R1,15,Pin_15*%
%TO.N,/GPIO15*%
X150647000Y-104170000D03*
%TD*%
D10*
%TO.P,I2C_PINOUT3,1,Pin_1*%
%TO.N,/I2C_PINOUT3/SCL*%
X160782000Y-99060000D03*
D11*
%TO.P,I2C_PINOUT3,2,Pin_2*%
%TO.N,/I2C_PINOUT3/SDA*%
X160782000Y-101600000D03*
%TO.P,I2C_PINOUT3,3,Pin_3*%
%TO.N,VCC*%
X160782000Y-104140000D03*
%TO.P,I2C_PINOUT3,4,Pin_4*%
%TO.N,GND*%
X160782000Y-106680000D03*
%TD*%
D10*
%TO.P,ARR1,1,Pin_1*%
%TO.N,/SENSOR_SDA*%
X137160000Y-50800000D03*
D11*
%TO.P,ARR1,2,Pin_2*%
%TO.N,/SENSOR_SCL*%
X139700000Y-50800000D03*
%TO.P,ARR1,3,Pin_3*%
%TO.N,VCC*%
X142240000Y-50800000D03*
%TO.P,ARR1,4,Pin_4*%
%TO.N,GND*%
X144780000Y-50800000D03*
%TD*%
D22*
%TO.P,C13,1*%
%TO.N,VCC*%
X110493800Y-60985400D03*
D14*
%TO.P,C13,2*%
%TO.N,GND*%
X115493800Y-60985400D03*
%TD*%
D23*
%TO.P,R18,1*%
%TO.N,VCC*%
X109433000Y-75438000D03*
%TO.P,R18,2*%
%TO.N,Net-(R18-Pad2)*%
X110073000Y-75438000D03*
%TD*%
D24*
%TO.P,D2,1,K*%
%TO.N,VCC*%
X104546000Y-78740000D03*
%TO.P,D2,2,A*%
%TO.N,GND*%
X107346000Y-78740000D03*
%TD*%
D25*
%TO.P,C4,1*%
%TO.N,Net-(D1-K)*%
X131802000Y-73660000D03*
%TO.P,C4,2*%
%TO.N,GND*%
X128852000Y-73660000D03*
%TD*%
D26*
%TO.P,JP6,1,A*%
%TO.N,Net-(JP6-A)*%
X153219000Y-59436000D03*
%TO.P,JP6,2,B*%
%TO.N,VCC*%
X151919000Y-59436000D03*
%TD*%
D27*
%TO.P,C15,1*%
%TO.N,VCC*%
X146486000Y-61214000D03*
%TO.P,C15,2*%
%TO.N,GND*%
X145846000Y-61214000D03*
%TD*%
%TO.P,R13,1*%
%TO.N,GND*%
X104068000Y-66294000D03*
%TO.P,R13,2*%
%TO.N,Net-(R13-Pad2)*%
X103428000Y-66294000D03*
%TD*%
D25*
%TO.P,C7,1*%
%TO.N,Net-(IC2-VDD)*%
X103049600Y-62230000D03*
%TO.P,C7,2*%
%TO.N,/battery/BAT-*%
X100099600Y-62230000D03*
%TD*%
D23*
%TO.P,R2,1*%
%TO.N,Net-(U4-FB)*%
X132547000Y-78105000D03*
%TO.P,R2,2*%
%TO.N,Net-(D1-K)*%
X133187000Y-78105000D03*
%TD*%
D28*
%TO.P,R33,1*%
%TO.N,Net-(R19-Pad2)*%
X113182000Y-83155000D03*
%TO.P,R33,2*%
%TO.N,/GPIO6*%
X113182000Y-83795000D03*
%TD*%
D27*
%TO.P,R22,1*%
%TO.N,GND*%
X103052000Y-98806000D03*
%TO.P,R22,2*%
%TO.N,Net-(JP3-A)*%
X102412000Y-98806000D03*
%TD*%
D25*
%TO.P,C12,1*%
%TO.N,VCC*%
X107467000Y-83820000D03*
%TO.P,C12,2*%
%TO.N,GND*%
X104517000Y-83820000D03*
%TD*%
D27*
%TO.P,R21,1*%
%TO.N,GND*%
X103027000Y-101600000D03*
%TO.P,R21,2*%
%TO.N,Net-(JP4-B)*%
X102387000Y-101600000D03*
%TD*%
D26*
%TO.P,JP7,1,A*%
%TO.N,VCC*%
X153217000Y-62230000D03*
%TO.P,JP7,2,B*%
%TO.N,Net-(JP7-B)*%
X151917000Y-62230000D03*
%TD*%
D27*
%TO.P,R15,1*%
%TO.N,GND*%
X126837000Y-53340000D03*
%TO.P,R15,2*%
%TO.N,Net-(12V1-A)*%
X126197000Y-53340000D03*
%TD*%
D24*
%TO.P,D1,1,K*%
%TO.N,Net-(D1-K)*%
X135912000Y-74295000D03*
%TO.P,D1,2,A*%
%TO.N,Net-(D1-A)*%
X138712000Y-74295000D03*
%TD*%
D25*
%TO.P,C5,1*%
%TO.N,Net-(SW3-B)*%
X154408000Y-51816000D03*
%TO.P,C5,2*%
%TO.N,GND*%
X151458000Y-51816000D03*
%TD*%
D27*
%TO.P,R14,1*%
%TO.N,Net-(12V1-A)*%
X123372000Y-53340000D03*
%TO.P,R14,2*%
%TO.N,VCC*%
X122732000Y-53340000D03*
%TD*%
D29*
%TO.P,R8,1*%
%TO.N,Net-(PG1-A)*%
X157189500Y-80645000D03*
%TO.P,R8,2*%
%TO.N,/battery/BAT+*%
X154264500Y-80645000D03*
%TD*%
D27*
%TO.P,R28,1*%
%TO.N,VCC*%
X157256000Y-69850000D03*
%TO.P,R28,2*%
%TO.N,Net-(R28-Pad2)*%
X156616000Y-69850000D03*
%TD*%
%TO.P,R25,1*%
%TO.N,GND*%
X146177000Y-64135000D03*
%TO.P,R25,2*%
%TO.N,Net-(JP8-B)*%
X145537000Y-64135000D03*
%TD*%
%TO.P,R20,1*%
%TO.N,GND*%
X107279000Y-91694000D03*
%TO.P,R20,2*%
%TO.N,Net-(JP5-B)*%
X106639000Y-91694000D03*
%TD*%
%TO.P,R34,1*%
%TO.N,Net-(R28-Pad2)*%
X154777000Y-69845000D03*
%TO.P,R34,2*%
%TO.N,/GPIO9*%
X154137000Y-69845000D03*
%TD*%
D25*
%TO.P,C10,1*%
%TO.N,Net-(U5-DVDT)*%
X105386000Y-70866000D03*
%TO.P,C10,2*%
%TO.N,GND*%
X102436000Y-70866000D03*
%TD*%
%TO.P,C9,1*%
%TO.N,/battery/BAT+*%
X119962000Y-56220000D03*
%TO.P,C9,2*%
%TO.N,GND*%
X117012000Y-56220000D03*
%TD*%
D29*
%TO.P,R9,1*%
%TO.N,Net-(CHG1-A)*%
X157189500Y-85090000D03*
%TO.P,R9,2*%
%TO.N,/battery/BAT+*%
X154264500Y-85090000D03*
%TD*%
D27*
%TO.P,C14,1*%
%TO.N,VCC*%
X111912000Y-88646000D03*
%TO.P,C14,2*%
%TO.N,GND*%
X111272000Y-88646000D03*
%TD*%
D26*
%TO.P,JP3,1,A*%
%TO.N,Net-(JP3-A)*%
X109036000Y-98806000D03*
%TO.P,JP3,2,B*%
%TO.N,VCC*%
X107736000Y-98806000D03*
%TD*%
D30*
%TO.P,R6,1*%
%TO.N,Net-(U3-ISET)*%
X125689500Y-59055000D03*
%TO.P,R6,2*%
%TO.N,GND*%
X128614500Y-59055000D03*
%TD*%
D27*
%TO.P,R32,1*%
%TO.N,Net-(R27-Pad2)*%
X154772000Y-72009000D03*
%TO.P,R32,2*%
%TO.N,/GPIO8*%
X154132000Y-72009000D03*
%TD*%
D25*
%TO.P,C2,1*%
%TO.N,Net-(U4-SS)*%
X134850000Y-62230000D03*
%TO.P,C2,2*%
%TO.N,GND*%
X131900000Y-62230000D03*
%TD*%
D27*
%TO.P,R30,1*%
%TO.N,Net-(J1-SHIELD)*%
X121895000Y-116840000D03*
%TO.P,R30,2*%
%TO.N,GND*%
X121255000Y-116840000D03*
%TD*%
D25*
%TO.P,C11,1*%
%TO.N,VCC*%
X107467000Y-81280000D03*
%TO.P,C11,2*%
%TO.N,GND*%
X104517000Y-81280000D03*
%TD*%
%TO.P,C1,1*%
%TO.N,Net-(C1-Pad1)*%
X141327000Y-59690000D03*
%TO.P,C1,2*%
%TO.N,GND*%
X138377000Y-59690000D03*
%TD*%
D29*
%TO.P,R10,1*%
%TO.N,GND*%
X132740000Y-68199000D03*
%TO.P,R10,2*%
%TO.N,Net-(U3-TS)*%
X129815000Y-68199000D03*
%TD*%
D23*
%TO.P,R16,1*%
%TO.N,Net-(R1-Pad2)*%
X137972000Y-78232000D03*
%TO.P,R16,2*%
%TO.N,Net-(D1-K)*%
X138612000Y-78232000D03*
%TD*%
D30*
%TO.P,R5,1*%
%TO.N,Net-(IC2-VDD)*%
X117638100Y-64617600D03*
%TO.P,R5,2*%
%TO.N,/battery/BAT+*%
X120563100Y-64617600D03*
%TD*%
D26*
%TO.P,JP8,1,A*%
%TO.N,VCC*%
X153219000Y-65024000D03*
%TO.P,JP8,2,B*%
%TO.N,Net-(JP8-B)*%
X151919000Y-65024000D03*
%TD*%
D28*
%TO.P,R11,1*%
%TO.N,GND*%
X112867000Y-65720000D03*
%TO.P,R11,2*%
%TO.N,Net-(U5-EN{slash}UVLO)*%
X112867000Y-66360000D03*
%TD*%
D27*
%TO.P,R24,1*%
%TO.N,GND*%
X146812000Y-57785000D03*
%TO.P,R24,2*%
%TO.N,Net-(JP7-B)*%
X146172000Y-57785000D03*
%TD*%
D25*
%TO.P,C6,1*%
%TO.N,Net-(SW3-B)*%
X137451500Y-68199000D03*
%TO.P,C6,2*%
%TO.N,GND*%
X134501500Y-68199000D03*
%TD*%
D31*
%TO.P,R7,1*%
%TO.N,Net-(U3-PRETERM)*%
X122936000Y-63754000D03*
%TO.P,R7,2*%
%TO.N,GND*%
X122936000Y-60829000D03*
%TD*%
D32*
%TO.P,C8,1*%
%TO.N,Net-(U3-IN)*%
X114417300Y-58474400D03*
%TO.P,C8,2*%
%TO.N,GND*%
X114417300Y-55524400D03*
%TD*%
D26*
%TO.P,JP4,1,A*%
%TO.N,VCC*%
X109021000Y-101600000D03*
%TO.P,JP4,2,B*%
%TO.N,Net-(JP4-B)*%
X107721000Y-101600000D03*
%TD*%
D23*
%TO.P,R1,1*%
%TO.N,Net-(U4-FB)*%
X134452000Y-80010000D03*
%TO.P,R1,2*%
%TO.N,Net-(R1-Pad2)*%
X135092000Y-80010000D03*
%TD*%
%TO.P,R31,1*%
%TO.N,Net-(R18-Pad2)*%
X112710000Y-75438000D03*
%TO.P,R31,2*%
%TO.N,/GPIO5*%
X113350000Y-75438000D03*
%TD*%
D27*
%TO.P,R3,1*%
%TO.N,GND*%
X129697000Y-78105000D03*
%TO.P,R3,2*%
%TO.N,Net-(U4-FB)*%
X129057000Y-78105000D03*
%TD*%
%TO.P,R26,1*%
%TO.N,VCC*%
X150114000Y-54483000D03*
%TO.P,R26,2*%
%TO.N,Net-(U2-~{RESET})*%
X149474000Y-54483000D03*
%TD*%
D32*
%TO.P,C3,1*%
%TO.N,Net-(D1-K)*%
X109347000Y-67997600D03*
%TO.P,C3,2*%
%TO.N,GND*%
X109347000Y-65047600D03*
%TD*%
D27*
%TO.P,R23,1*%
%TO.N,VCC*%
X111211000Y-91694000D03*
%TO.P,R23,2*%
%TO.N,Net-(U1-~{RESET})*%
X110571000Y-91694000D03*
%TD*%
D28*
%TO.P,R19,1*%
%TO.N,VCC*%
X113309000Y-78740000D03*
%TO.P,R19,2*%
%TO.N,Net-(R19-Pad2)*%
X113309000Y-79380000D03*
%TD*%
D33*
%TO.P,R12,1*%
%TO.N,GND*%
X105943000Y-66269000D03*
%TO.P,R12,2*%
%TO.N,Net-(U5-ILM)*%
X105943000Y-65629000D03*
%TD*%
D27*
%TO.P,R4,1*%
%TO.N,Net-(C1-Pad1)*%
X143946000Y-62992000D03*
%TO.P,R4,2*%
%TO.N,Net-(U4-COMP)*%
X143306000Y-62992000D03*
%TD*%
D26*
%TO.P,JP5,1,A*%
%TO.N,VCC*%
X109021000Y-104394000D03*
%TO.P,JP5,2,B*%
%TO.N,Net-(JP5-B)*%
X107721000Y-104394000D03*
%TD*%
D27*
%TO.P,R29,1*%
%TO.N,GND*%
X157637000Y-55245000D03*
%TO.P,R29,2*%
%TO.N,Net-(JP6-A)*%
X156997000Y-55245000D03*
%TD*%
%TO.P,R17,1*%
%TO.N,Net-(R13-Pad2)*%
X107010600Y-60071000D03*
%TO.P,R17,2*%
%TO.N,Net-(U5-ILM)*%
X106370600Y-60071000D03*
%TD*%
%TO.P,R27,1*%
%TO.N,VCC*%
X157231000Y-72009000D03*
%TO.P,R27,2*%
%TO.N,Net-(R27-Pad2)*%
X156591000Y-72009000D03*
%TD*%
D34*
%TO.N,GND*%
X135580500Y-68034600D03*
X129090500Y-61102800D03*
X150188400Y-64268900D03*
X131417700Y-78004800D03*
%TO.N,Net-(SW3-B)*%
X136939100Y-81919100D03*
X109829600Y-85022800D03*
X136939100Y-66786100D03*
X143718400Y-67223000D03*
X152907300Y-52386800D03*
%TO.N,Net-(U4-FB)*%
X129046300Y-78815300D03*
%TO.N,Net-(U4-COMP)*%
X135952000Y-62992000D03*
%TO.N,Net-(U5-EN{slash}UVLO)*%
X113330500Y-66997900D03*
%TO.N,Net-(D1-K)*%
X111963200Y-67997600D03*
%TO.N,Net-(D1-A)*%
X137880800Y-73034900D03*
X111391500Y-74935900D03*
%TO.N,Net-(U5-ILM)*%
X104811500Y-65629000D03*
X105596600Y-60640400D03*
%TO.N,Net-(12V1-A)*%
X119027000Y-54727000D03*
%TO.N,Net-(U4-SS)*%
X138192000Y-61774800D03*
%TO.N,Net-(JP6-A)*%
X157294500Y-58384300D03*
%TO.N,Net-(JP5-B)*%
X104749100Y-76516100D03*
X106052700Y-92280300D03*
X101029200Y-77998800D03*
X101653200Y-104394000D03*
%TO.N,Net-(JP4-B)*%
X108438300Y-102853200D03*
%TO.N,Net-(JP3-A)*%
X110537500Y-96546200D03*
%TO.N,Net-(U1-~{RESET})*%
X104779200Y-95616600D03*
%TO.N,Net-(JP7-B)*%
X149069200Y-60096100D03*
%TO.N,Net-(JP8-B)*%
X148463200Y-65024000D03*
%TO.N,Net-(U2-~{RESET})*%
X151578500Y-57060100D03*
%TO.N,/OLED_SCL*%
X107868300Y-112990800D03*
%TO.N,/SENSOR_SDA*%
X113856900Y-51578900D03*
%TO.N,/I2C_PINOUT11/SCL*%
X110444500Y-111760000D03*
%TO.N,/I2C_PINOUT9/SDA*%
X105211600Y-85582600D03*
%TO.N,/I2C_PINOUT10/SCL*%
X109452900Y-96338000D03*
%TO.N,/I2C_PINOUT10/SDA*%
X108913800Y-95708400D03*
%TO.N,/OLED_SDA*%
X107507800Y-106965400D03*
%TO.N,/I2C_PINOUT9/SCL*%
X107091300Y-90507300D03*
%TO.N,/SENSOR_SCL*%
X108684800Y-52186700D03*
%TO.N,/I2C_PINOUT11/SDA*%
X112615100Y-102698500D03*
%TO.N,/US_SDA*%
X103342500Y-58939400D03*
%TO.N,/US_SCL*%
X102855200Y-58266800D03*
%TO.N,/I2C_PINOUT4/SCL*%
X156693000Y-65311600D03*
%TO.N,/I2C_PINOUT4/SDA*%
X156049500Y-64701500D03*
%TO.N,/GPIO8*%
X120368000Y-69880000D03*
X154456500Y-68040500D03*
%TO.N,/I2C_PINOUT2/SDA*%
X156178300Y-88415900D03*
%TO.N,/I2C_PINOUT1/SDA*%
X154254800Y-76200000D03*
%TO.N,/GPIO9*%
X154504500Y-68976800D03*
X154941500Y-78308600D03*
%TO.N,/I2C_PINOUT1/SCL*%
X153653100Y-73660000D03*
%TO.N,/I2C_PINOUT5/SCL*%
X157371700Y-72725900D03*
%TO.N,/I2C_PINOUT5/SDA*%
X156453200Y-74115800D03*
%TO.N,/GPIO1*%
X121013500Y-117564400D03*
%TO.N,/GPIO2*%
X120114400Y-116160600D03*
X119588300Y-73690000D03*
%TO.N,Net-(IC2-VDD)*%
X133350000Y-66222500D03*
%TO.N,Net-(U5-DVDT)*%
X113722400Y-65470200D03*
%TO.N,Net-(CHG1-A)*%
X140589800Y-87564200D03*
%TO.N,Net-(PG1-A)*%
X118913900Y-79976800D03*
%TO.N,Net-(U3-ISET)*%
X124612300Y-59055000D03*
%TO.N,Net-(U3-PRETERM)*%
X125664100Y-63754000D03*
%TO.N,VCC*%
X108723300Y-105737800D03*
X101933100Y-60985400D03*
X112853100Y-91694000D03*
X111837300Y-54918500D03*
%TO.N,/battery/BAT-*%
X130913700Y-69130600D03*
%TO.N,/battery/BAT+*%
X153115100Y-84337000D03*
X121042600Y-56220000D03*
X131293600Y-60590800D03*
X128444600Y-81317300D03*
X122642100Y-62676000D03*
%TO.N,Net-(U3-IN)*%
X124594900Y-58207300D03*
X117910400Y-58474400D03*
%TD*%
D35*
%TO.N,GND*%
X132304700Y-54703300D02*
X132180000Y-54828000D01*
X127828600Y-59840900D02*
X129090500Y-61102800D01*
X111272000Y-88646000D02*
X109806700Y-88646000D01*
X107279000Y-91173700D02*
X107279000Y-91694000D01*
X146177000Y-61750700D02*
X145846000Y-61419700D01*
X144780000Y-55855000D02*
X145355900Y-55855000D01*
X113464900Y-97349600D02*
X115205300Y-99090000D01*
X99847000Y-66040000D02*
X100998700Y-66040000D01*
X103052000Y-98806000D02*
X104189900Y-98806000D01*
X107279000Y-91173700D02*
X101265000Y-91173700D01*
X103027000Y-102111700D02*
X103027000Y-101600000D01*
X156587000Y-116550000D02*
X150087000Y-116550000D01*
X114664300Y-120954400D02*
X113620400Y-121998300D01*
X109806700Y-88646000D02*
X109574900Y-88877800D01*
X114627000Y-120917100D02*
X114664300Y-120954400D01*
X145579400Y-60947400D02*
X145579400Y-58467500D01*
X126837000Y-53340000D02*
X126837000Y-53671000D01*
X131900000Y-59864800D02*
X138202200Y-59864800D01*
X118907000Y-114300000D02*
X117755300Y-114300000D01*
X117755300Y-114300000D02*
X117755300Y-113777400D01*
X143737000Y-116550000D02*
X150087000Y-116550000D01*
X122477500Y-57462600D02*
X118254600Y-57462600D01*
X137237000Y-116550000D02*
X143737000Y-116550000D01*
X104806000Y-81280000D02*
X104517000Y-81280000D01*
X138377000Y-59690000D02*
X139599500Y-58467500D01*
X104218300Y-121998300D02*
X104140000Y-121920000D01*
X145355900Y-55855000D02*
X145931700Y-55855000D01*
X145846000Y-61419700D02*
X145846000Y-61214000D01*
X122598700Y-114777100D02*
X121255000Y-116120800D01*
X112194600Y-65047600D02*
X112867000Y-65720000D01*
X165862000Y-68580000D02*
X160782000Y-68580000D01*
X122936000Y-60829000D02*
X126840500Y-60829000D01*
X128614500Y-59055000D02*
X131090200Y-59055000D01*
X109347000Y-65047600D02*
X108125600Y-66269000D01*
X127994000Y-54828000D02*
X126837000Y-53671000D01*
X107346000Y-78740000D02*
X104806000Y-81280000D01*
X103729000Y-66796100D02*
X102436000Y-66796100D01*
X104068000Y-66457100D02*
X103729000Y-66796100D01*
X146177000Y-64135000D02*
X150054500Y-64135000D01*
X134665900Y-68034600D02*
X134501500Y-68199000D01*
X117755300Y-113777400D02*
X118403400Y-113129300D01*
X114417300Y-55524400D02*
X106324400Y-55524400D01*
X131090200Y-59055000D02*
X131900000Y-59864800D01*
X99847000Y-91440000D02*
X100998700Y-91440000D01*
X146561000Y-57282900D02*
X146812000Y-57533900D01*
X145931700Y-57282900D02*
X146561000Y-57282900D01*
X157637000Y-55245000D02*
X160655000Y-55245000D01*
X104517000Y-81280000D02*
X104517000Y-83820000D01*
X157637000Y-55245000D02*
X157637000Y-55008000D01*
X160655000Y-55245000D02*
X162560000Y-53340000D01*
X144780000Y-50800000D02*
X145931700Y-50800000D01*
X104068000Y-66294000D02*
X105918000Y-66294000D01*
X107279000Y-91173700D02*
X109574900Y-88877800D01*
X138202200Y-59864800D02*
X138377000Y-59690000D01*
X114417300Y-55524400D02*
X116316400Y-55524400D01*
X122598700Y-113822900D02*
X122598700Y-114777100D01*
X146947700Y-51816000D02*
X145931700Y-50800000D01*
X145931700Y-57282900D02*
X145931700Y-55855000D01*
X100998700Y-104140000D02*
X103027000Y-102111700D01*
X160782000Y-106680000D02*
X165862000Y-106680000D01*
X118403400Y-113129300D02*
X121905100Y-113129300D01*
X129697000Y-78004800D02*
X129697000Y-78105000D01*
X145846000Y-61214000D02*
X145579400Y-60947400D01*
X101754800Y-66796100D02*
X100998700Y-66040000D01*
X109347000Y-65047600D02*
X112194600Y-65047600D01*
X121905100Y-113129300D02*
X122598700Y-113822900D01*
X122936000Y-60829000D02*
X115650200Y-60829000D01*
X116357000Y-99090000D02*
X115205300Y-99090000D01*
X126837000Y-53671000D02*
X125680000Y-54828000D01*
X106324400Y-55524400D02*
X104140000Y-53340000D01*
X146812000Y-57533900D02*
X146812000Y-57785000D01*
X128614500Y-59055000D02*
X127828600Y-59840900D01*
X131900000Y-62230000D02*
X134665900Y-64995900D01*
X144204200Y-54703300D02*
X132304700Y-54703300D01*
X116316400Y-55524400D02*
X117012000Y-56220000D01*
X105918000Y-66294000D02*
X105943000Y-66269000D01*
X146177000Y-64135000D02*
X146177000Y-61750700D01*
X132180000Y-54828000D02*
X127994000Y-54828000D01*
X157637000Y-55008000D02*
X156369900Y-53740900D01*
X153382900Y-53740900D02*
X151458000Y-51816000D01*
X150054500Y-64135000D02*
X150188400Y-64268900D01*
X99847000Y-104140000D02*
X100998700Y-104140000D01*
X120577000Y-120969800D02*
X120577000Y-120845200D01*
X105646300Y-97349600D02*
X113464900Y-97349600D01*
X113620400Y-121998300D02*
X104218300Y-121998300D01*
X129697000Y-78004800D02*
X131417700Y-78004800D01*
X120032500Y-121514300D02*
X120577000Y-120969800D01*
X132740000Y-68199000D02*
X134501500Y-68199000D01*
X160807000Y-81280000D02*
X165862000Y-81280000D01*
X109574900Y-88877800D02*
X104517000Y-83820000D01*
X145579400Y-58467500D02*
X145579400Y-57558100D01*
X135580500Y-68034600D02*
X134665900Y-68034600D01*
X156908700Y-93980000D02*
X160782000Y-93980000D01*
X156369900Y-53740900D02*
X153382900Y-53740900D01*
X125680000Y-54828000D02*
X125112100Y-54828000D01*
X150647000Y-99090000D02*
X151798700Y-99090000D01*
X128852000Y-73660000D02*
X129697000Y-74505000D01*
X129697000Y-74505000D02*
X129697000Y-78004800D01*
X165862000Y-93980000D02*
X160782000Y-93980000D01*
X131900000Y-59864800D02*
X131900000Y-62230000D01*
X114664300Y-120954400D02*
X115224200Y-121514300D01*
X126840500Y-60829000D02*
X127828600Y-59840900D01*
X115650200Y-60829000D02*
X115493800Y-60985400D01*
X104189900Y-98806000D02*
X105646300Y-97349600D01*
X145579400Y-57558100D02*
X145854600Y-57282900D01*
X115224200Y-121514300D02*
X120032500Y-121514300D01*
X121255000Y-116120800D02*
X121255000Y-116840000D01*
X145355900Y-55855000D02*
X144204200Y-54703300D01*
X108125600Y-66269000D02*
X105943000Y-66269000D01*
X101265000Y-91173700D02*
X100998700Y-91440000D01*
X104068000Y-66294000D02*
X104068000Y-66457100D01*
X102436000Y-70866000D02*
X102436000Y-66796100D01*
X143027000Y-99090000D02*
X150647000Y-99090000D01*
X125112100Y-54828000D02*
X122477500Y-57462600D01*
X151458000Y-51816000D02*
X146947700Y-51816000D01*
X145854600Y-57282900D02*
X145931700Y-57282900D01*
X116357000Y-99090000D02*
X123977000Y-99090000D01*
X118254600Y-57462600D02*
X117012000Y-56220000D01*
X151798700Y-99090000D02*
X156908700Y-93980000D01*
X114627000Y-120845200D02*
X114627000Y-120917100D01*
X123977000Y-99090000D02*
X143027000Y-99090000D01*
X102436000Y-66796100D02*
X101754800Y-66796100D01*
X134665900Y-64995900D02*
X134665900Y-68034600D01*
X139599500Y-58467500D02*
X145579400Y-58467500D01*
%TO.N,Net-(R1-Pad2)*%
X135092000Y-80010000D02*
X136194000Y-80010000D01*
X136194000Y-80010000D02*
X137972000Y-78232000D01*
%TO.N,Net-(SW3-B)*%
X153837200Y-52386800D02*
X152907300Y-52386800D01*
X154408000Y-51816000D02*
X153837200Y-52386800D01*
X109829600Y-85022800D02*
X128800300Y-85022800D01*
X136939100Y-66786100D02*
X137376000Y-67223000D01*
X137376000Y-67223000D02*
X137451500Y-67223000D01*
X137451500Y-68199000D02*
X137451500Y-67223000D01*
X128800300Y-85022800D02*
X131904000Y-81919100D01*
X137451500Y-67223000D02*
X143718400Y-67223000D01*
X131904000Y-81919100D02*
X136939100Y-81919100D01*
%TO.N,Net-(U4-FB)*%
X132435400Y-78216600D02*
X132547000Y-78105000D01*
X134452000Y-80010000D02*
X134228800Y-80010000D01*
X132044900Y-78607100D02*
X132435400Y-78216600D01*
X129276900Y-78584700D02*
X129046300Y-78815300D01*
X129057000Y-78105000D02*
X129057000Y-78364900D01*
X129276900Y-78584700D02*
X129299200Y-78607100D01*
X134228800Y-80010000D02*
X132435400Y-78216600D01*
X129057000Y-78364900D02*
X129276900Y-78584700D01*
X129299200Y-78607100D02*
X132044900Y-78607100D01*
%TO.N,Net-(C1-Pad1)*%
X143946000Y-62309000D02*
X141327000Y-59690000D01*
X143946000Y-62992000D02*
X143946000Y-62309000D01*
%TO.N,Net-(U4-COMP)*%
X143306000Y-62992000D02*
X135952000Y-62992000D01*
%TO.N,Net-(U5-EN{slash}UVLO)*%
X113330500Y-66823500D02*
X113330500Y-66997900D01*
X112867000Y-66360000D02*
X113330500Y-66823500D01*
%TO.N,Net-(D1-K)*%
X130588200Y-72446200D02*
X131802000Y-73660000D01*
X109347000Y-67997600D02*
X111963200Y-67997600D01*
X135912000Y-74295000D02*
X135277000Y-73660000D01*
X138612000Y-76995000D02*
X135912000Y-74295000D01*
X111963200Y-68504400D02*
X115905000Y-72446200D01*
X138612000Y-78232000D02*
X138612000Y-76995000D01*
X115905000Y-72446200D02*
X130588200Y-72446200D01*
X135912000Y-75380000D02*
X135912000Y-74295000D01*
X135277000Y-73660000D02*
X131802000Y-73660000D01*
X133187000Y-78105000D02*
X135912000Y-75380000D01*
X111963200Y-67997600D02*
X111963200Y-68504400D01*
%TO.N,Net-(J1-SHIELD)*%
X121927000Y-116872000D02*
X121927000Y-120475200D01*
X113277000Y-123855200D02*
X113277000Y-122703500D01*
X121895000Y-116840000D02*
X121927000Y-116872000D01*
X121927000Y-123855200D02*
X121927000Y-122703500D01*
X121927000Y-122703500D02*
X113277000Y-122703500D01*
%TO.N,Net-(D1-A)*%
X115205300Y-76472100D02*
X113669100Y-74935900D01*
X115893700Y-77426500D02*
X115205300Y-76738100D01*
X115205300Y-76738100D02*
X115205300Y-76472100D01*
X137880800Y-73034900D02*
X137880800Y-73463800D01*
X125966600Y-77426500D02*
X115893700Y-77426500D01*
X138712000Y-74295000D02*
X139156000Y-74739000D01*
X137178600Y-80513900D02*
X134157200Y-80513900D01*
X113669100Y-74935900D02*
X111391500Y-74935900D01*
X133549400Y-79906100D02*
X128446200Y-79906100D01*
X134157200Y-80513900D02*
X133549400Y-79906100D01*
X137880800Y-73463800D02*
X138712000Y-74295000D01*
X139156000Y-78536500D02*
X137178600Y-80513900D01*
X139156000Y-74739000D02*
X139156000Y-78536500D01*
X128446200Y-79906100D02*
X125966600Y-77426500D01*
%TO.N,Net-(U5-ILM)*%
X106166000Y-60071000D02*
X106370600Y-60071000D01*
X105596600Y-60640400D02*
X106166000Y-60071000D01*
X105943000Y-65629000D02*
X104811500Y-65629000D01*
%TO.N,Net-(R13-Pad2)*%
X106713100Y-59543700D02*
X107010600Y-59841200D01*
X102394000Y-66294000D02*
X99206900Y-63106900D01*
X99206900Y-63106900D02*
X99206900Y-61336500D01*
X100999700Y-59543700D02*
X106713100Y-59543700D01*
X99206900Y-61336500D02*
X100999700Y-59543700D01*
X107010600Y-59841200D02*
X107010600Y-60071000D01*
X103428000Y-66294000D02*
X102394000Y-66294000D01*
%TO.N,Net-(12V1-A)*%
X122192400Y-54727000D02*
X119027000Y-54727000D01*
X123372000Y-53340000D02*
X126197000Y-53340000D01*
X123372000Y-53340000D02*
X123372000Y-53547400D01*
X123372000Y-53547400D02*
X122192400Y-54727000D01*
%TO.N,Net-(U4-SS)*%
X134850000Y-62230000D02*
X137736800Y-62230000D01*
X137736800Y-62230000D02*
X138192000Y-61774800D01*
%TO.N,Net-(JP6-A)*%
X156997000Y-55245000D02*
X156997000Y-58384300D01*
X153219000Y-59436000D02*
X153219000Y-58384300D01*
X153219000Y-58384300D02*
X156997000Y-58384300D01*
X156997000Y-58384300D02*
X157294500Y-58384300D01*
%TO.N,Net-(JP5-B)*%
X107721000Y-104394000D02*
X101653200Y-104394000D01*
X104749100Y-76516100D02*
X103266400Y-77998800D01*
X103266400Y-77998800D02*
X101029200Y-77998800D01*
X106639000Y-91694000D02*
X106052700Y-92280300D01*
%TO.N,Net-(JP4-B)*%
X107520600Y-101600000D02*
X107520600Y-101935500D01*
X107520600Y-101935500D02*
X108438300Y-102853200D01*
X102727600Y-101031900D02*
X102387000Y-101372500D01*
X107520600Y-101600000D02*
X106919300Y-101600000D01*
X106351200Y-101031900D02*
X102727600Y-101031900D01*
X107721000Y-101600000D02*
X107520600Y-101600000D01*
X102387000Y-101372500D02*
X102387000Y-101600000D01*
X106919300Y-101600000D02*
X106351200Y-101031900D01*
%TO.N,Net-(JP3-A)*%
X109036000Y-98806000D02*
X109036000Y-97754300D01*
X105186100Y-97241800D02*
X105480000Y-96947900D01*
X102412000Y-98806000D02*
X102412000Y-98647200D01*
X105553000Y-99312300D02*
X102742100Y-99312300D01*
X109036000Y-97754300D02*
X107111000Y-97754300D01*
X102412000Y-98647200D02*
X103817400Y-97241800D01*
X103817400Y-97241800D02*
X105186100Y-97241800D01*
X107111000Y-97754300D02*
X105553000Y-99312300D01*
X102742100Y-99312300D02*
X102412000Y-98982200D01*
X105480000Y-96947900D02*
X110135800Y-96947900D01*
X102412000Y-98982200D02*
X102412000Y-98806000D01*
X110135800Y-96947900D02*
X110537500Y-96546200D01*
%TO.N,Net-(U1-~{RESET})*%
X106648400Y-95616600D02*
X110571000Y-91694000D01*
X104779200Y-95616600D02*
X106648400Y-95616600D01*
%TO.N,Net-(JP7-B)*%
X148251100Y-60096100D02*
X149069200Y-60096100D01*
X146172000Y-57785000D02*
X146172000Y-58017000D01*
X146172000Y-58017000D02*
X148251100Y-60096100D01*
X149069200Y-60096100D02*
X149069200Y-60183900D01*
X149069200Y-60183900D02*
X151115300Y-62230000D01*
X151917000Y-62230000D02*
X151115300Y-62230000D01*
%TO.N,Net-(JP8-B)*%
X145537000Y-64135000D02*
X145537000Y-64352000D01*
X146209000Y-65024000D02*
X148463200Y-65024000D01*
X145537000Y-64352000D02*
X146209000Y-65024000D01*
X151919000Y-65024000D02*
X148463200Y-65024000D01*
%TO.N,Net-(U2-~{RESET})*%
X149474000Y-54483000D02*
X149474000Y-54955600D01*
X149474000Y-54955600D02*
X151578500Y-57060100D01*
%TO.N,/OLED_SCL*%
X112872300Y-112990800D02*
X107868300Y-112990800D01*
X115333200Y-115451700D02*
X112872300Y-112990800D01*
X121447000Y-114300000D02*
X120295300Y-114300000D01*
X120295300Y-114588000D02*
X119431600Y-115451700D01*
X119431600Y-115451700D02*
X115333200Y-115451700D01*
X120295300Y-114300000D02*
X120295300Y-114588000D01*
%TO.N,/SENSOR_SDA*%
X113929500Y-51651500D02*
X113856900Y-51578900D01*
X135156800Y-51651500D02*
X113929500Y-51651500D01*
X137160000Y-50800000D02*
X136008300Y-50800000D01*
X136008300Y-50800000D02*
X135156800Y-51651500D01*
%TO.N,/I2C_PINOUT11/SCL*%
X99847000Y-111760000D02*
X110444500Y-111760000D01*
%TO.N,/I2C_PINOUT9/SDA*%
X99847000Y-83820000D02*
X100998700Y-83820000D01*
X105211600Y-85582600D02*
X102761300Y-85582600D01*
X102761300Y-85582600D02*
X100998700Y-83820000D01*
%TO.N,/I2C_PINOUT10/SCL*%
X109244700Y-96546200D02*
X109452900Y-96338000D01*
X99847000Y-99060000D02*
X100998700Y-99060000D01*
X105313700Y-96546200D02*
X109244700Y-96546200D01*
X100998700Y-99060000D02*
X103218600Y-96840100D01*
X105019800Y-96840100D02*
X105313700Y-96546200D01*
X103218600Y-96840100D02*
X105019800Y-96840100D01*
%TO.N,/GPIO6*%
X116357000Y-83850000D02*
X123977000Y-83850000D01*
X113237000Y-83850000D02*
X116357000Y-83850000D01*
X113182000Y-83795000D02*
X113237000Y-83850000D01*
%TO.N,/I2C_PINOUT10/SDA*%
X101080300Y-96438400D02*
X104853500Y-96438400D01*
X100998700Y-96520000D02*
X101080300Y-96438400D01*
X105147400Y-96144500D02*
X108477700Y-96144500D01*
X104853500Y-96438400D02*
X105147400Y-96144500D01*
X108477700Y-96144500D02*
X108913800Y-95708400D01*
X99847000Y-96520000D02*
X100998700Y-96520000D01*
%TO.N,/OLED_SDA*%
X110490000Y-108854000D02*
X108601400Y-106965400D01*
X111269000Y-110373200D02*
X110490000Y-109594200D01*
X120060200Y-110373200D02*
X111269000Y-110373200D01*
X123987000Y-114300000D02*
X120060200Y-110373200D01*
X110490000Y-109594200D02*
X110490000Y-108854000D01*
X108601400Y-106965400D02*
X107507800Y-106965400D01*
%TO.N,/I2C_PINOUT9/SCL*%
X99847000Y-86360000D02*
X100998700Y-86360000D01*
X105146000Y-90507300D02*
X107091300Y-90507300D01*
X100998700Y-86360000D02*
X105146000Y-90507300D01*
%TO.N,/SENSOR_SCL*%
X138548300Y-51591800D02*
X137953400Y-52186700D01*
X138548300Y-50800000D02*
X138548300Y-51591800D01*
X137953400Y-52186700D02*
X108684800Y-52186700D01*
X139700000Y-50800000D02*
X138548300Y-50800000D01*
%TO.N,/GPIO5*%
X113350000Y-77439300D02*
X113350000Y-75438000D01*
X116357000Y-80158300D02*
X116069000Y-80158300D01*
X116069000Y-80158300D02*
X113350000Y-77439300D01*
X123977000Y-81310000D02*
X116357000Y-81310000D01*
X116357000Y-81310000D02*
X116357000Y-80158300D01*
%TO.N,/I2C_PINOUT11/SDA*%
X112615100Y-102698500D02*
X108972500Y-106341100D01*
X108972500Y-106341100D02*
X103877600Y-106341100D01*
X103877600Y-106341100D02*
X100998700Y-109220000D01*
X99847000Y-109220000D02*
X100998700Y-109220000D01*
%TO.N,/US_SDA*%
X102691800Y-57569000D02*
X102247400Y-58013400D01*
X116106600Y-57569000D02*
X102691800Y-57569000D01*
X102247400Y-58563600D02*
X102623200Y-58939400D01*
X102623200Y-58939400D02*
X103342500Y-58939400D01*
X102247400Y-58013400D02*
X102247400Y-58563600D01*
X136008300Y-55855000D02*
X135637600Y-56225700D01*
X137160000Y-55855000D02*
X136008300Y-55855000D01*
X135637600Y-56225700D02*
X124353000Y-56225700D01*
X122714200Y-57864500D02*
X116402100Y-57864500D01*
X124353000Y-56225700D02*
X122714200Y-57864500D01*
X116402100Y-57864500D02*
X116106600Y-57569000D01*
%TO.N,/US_SCL*%
X138548300Y-56646800D02*
X138188400Y-57006700D01*
X128943800Y-57006700D02*
X126751500Y-59199000D01*
X138548300Y-55855000D02*
X138548300Y-56646800D01*
X110582900Y-59570400D02*
X109279300Y-58266800D01*
X109279300Y-58266800D02*
X102855200Y-58266800D01*
X123617200Y-59570400D02*
X110582900Y-59570400D01*
X126226600Y-60240000D02*
X124286800Y-60240000D01*
X139700000Y-55855000D02*
X138548300Y-55855000D01*
X126751500Y-59715100D02*
X126226600Y-60240000D01*
X126751500Y-59199000D02*
X126751500Y-59715100D01*
X124286800Y-60240000D02*
X123617200Y-59570400D01*
X138188400Y-57006700D02*
X128943800Y-57006700D01*
%TO.N,/I2C_PINOUT4/SCL*%
X155434300Y-64972900D02*
X155773000Y-65311600D01*
X165862000Y-60960000D02*
X164710300Y-60960000D01*
X164710300Y-60960000D02*
X163558600Y-62111700D01*
X163558600Y-62111700D02*
X157769600Y-62111700D01*
X155773000Y-65311600D02*
X156693000Y-65311600D01*
X155434300Y-64447000D02*
X155434300Y-64972900D01*
X157769600Y-62111700D02*
X155434300Y-64447000D01*
%TO.N,/I2C_PINOUT4/SDA*%
X165862000Y-63500000D02*
X164710300Y-63500000D01*
X164710300Y-63500000D02*
X163508800Y-64701500D01*
X163508800Y-64701500D02*
X156049500Y-64701500D01*
%TO.N,/GPIO8*%
X153591100Y-71468100D02*
X153591100Y-69880000D01*
X116357000Y-88930000D02*
X123977000Y-88930000D01*
X154132000Y-72009000D02*
X153591100Y-71468100D01*
X120368000Y-69880000D02*
X153591100Y-69880000D01*
X153591100Y-68905900D02*
X154456500Y-68040500D01*
X153591100Y-69880000D02*
X153591100Y-68905900D01*
%TO.N,/I2C_PINOUT2/SDA*%
X160782000Y-88900000D02*
X159630300Y-88900000D01*
X156178300Y-88415900D02*
X159146200Y-88415900D01*
X159146200Y-88415900D02*
X159630300Y-88900000D01*
%TO.N,/I2C_PINOUT1/SDA*%
X160807000Y-76200000D02*
X154254800Y-76200000D01*
%TO.N,/GPIO9*%
X156624700Y-78308600D02*
X158111500Y-79795400D01*
X153543500Y-90199900D02*
X153543500Y-90200000D01*
X123977000Y-91470000D02*
X125128700Y-91470000D01*
X126666800Y-93008100D02*
X125128700Y-91470000D01*
X155929200Y-87814200D02*
X153543500Y-90199900D01*
X154137000Y-69344300D02*
X154504500Y-68976800D01*
X137860300Y-93008100D02*
X126666800Y-93008100D01*
X153543500Y-90200000D02*
X140668400Y-90200000D01*
X158111500Y-79795400D02*
X158111500Y-85891500D01*
X116357000Y-91470000D02*
X123977000Y-91470000D01*
X140668400Y-90200000D02*
X137860300Y-93008100D01*
X154137000Y-69845000D02*
X154137000Y-69344300D01*
X154941500Y-78308600D02*
X156624700Y-78308600D01*
X158111500Y-85891500D02*
X156188800Y-87814200D01*
X156188800Y-87814200D02*
X155929200Y-87814200D01*
%TO.N,/I2C_PINOUT1/SCL*%
X159509400Y-73514100D02*
X153799000Y-73514100D01*
X153799000Y-73514100D02*
X153653100Y-73660000D01*
X160807000Y-73660000D02*
X159655300Y-73660000D01*
X159655300Y-73660000D02*
X159509400Y-73514100D01*
%TO.N,/I2C_PINOUT5/SCL*%
X163556600Y-72506300D02*
X157591300Y-72506300D01*
X165862000Y-73660000D02*
X164710300Y-73660000D01*
X157591300Y-72506300D02*
X157371700Y-72725900D01*
X164710300Y-73660000D02*
X163556600Y-72506300D01*
%TO.N,/I2C_PINOUT5/SDA*%
X157207400Y-74870000D02*
X163380300Y-74870000D01*
X156453200Y-74115800D02*
X157207400Y-74870000D01*
X165862000Y-76200000D02*
X164710300Y-76200000D01*
X163380300Y-74870000D02*
X164710300Y-76200000D01*
%TO.N,/GPIO19*%
X150647000Y-94010000D02*
X143027000Y-94010000D01*
%TO.N,/GPIO18*%
X150647000Y-96550000D02*
X143027000Y-96550000D01*
%TO.N,/GPIO24*%
X150647000Y-81310000D02*
X143027000Y-81310000D01*
X156587000Y-112050000D02*
X150087000Y-112050000D01*
%TO.N,/GPIO26*%
X150647000Y-76230000D02*
X143027000Y-76230000D01*
%TO.N,/GPIO27*%
X150647000Y-73690000D02*
X143027000Y-73690000D01*
%TO.N,/GPIO28*%
X150647000Y-71150000D02*
X143027000Y-71150000D01*
%TO.N,/GPIO25*%
X150647000Y-78770000D02*
X143027000Y-78770000D01*
%TO.N,/GPIO23*%
X150647000Y-83850000D02*
X143027000Y-83850000D01*
X143737000Y-112050000D02*
X137237000Y-112050000D01*
%TO.N,/GPIO15*%
X150647000Y-104170000D02*
X143027000Y-104170000D01*
%TO.N,/GPIO20*%
X150647000Y-91470000D02*
X143027000Y-91470000D01*
X132180000Y-50328000D02*
X125680000Y-50328000D01*
%TO.N,/GPIO21*%
X150647000Y-88930000D02*
X143027000Y-88930000D01*
%TO.N,/GPIO22*%
X150647000Y-86390000D02*
X143027000Y-86390000D01*
%TO.N,/GPIO29*%
X150647000Y-68610000D02*
X143027000Y-68610000D01*
%TO.N,/GPIO0*%
X116357000Y-68610000D02*
X123977000Y-68610000D01*
%TO.N,/GPIO10*%
X116357000Y-94010000D02*
X123977000Y-94010000D01*
%TO.N,/GPIO14*%
X116357000Y-104170000D02*
X123977000Y-104170000D01*
%TO.N,/GPIO3*%
X116357000Y-76230000D02*
X123977000Y-76230000D01*
%TO.N,/GPIO1*%
X110371700Y-115091800D02*
X112844300Y-117564400D01*
X116357000Y-71150000D02*
X123977000Y-71150000D01*
X110371700Y-114300000D02*
X110371700Y-115091800D01*
X112844300Y-117564400D02*
X121013500Y-117564400D01*
X109220000Y-114300000D02*
X110371700Y-114300000D01*
%TO.N,/GPIO4*%
X116357000Y-78770000D02*
X123977000Y-78770000D01*
%TO.N,/GPIO7*%
X116357000Y-86390000D02*
X123977000Y-86390000D01*
%TO.N,/GPIO13*%
X116357000Y-101630000D02*
X123977000Y-101630000D01*
%TO.N,/GPIO2*%
X119588300Y-73690000D02*
X116357000Y-73690000D01*
X114772300Y-116160600D02*
X120114400Y-116160600D01*
X111760000Y-114300000D02*
X112911700Y-114300000D01*
X112911700Y-114300000D02*
X114772300Y-116160600D01*
X123977000Y-73690000D02*
X119588300Y-73690000D01*
%TO.N,/GPIO11*%
X116357000Y-96550000D02*
X123977000Y-96550000D01*
%TO.N,Net-(IC2-VDD)*%
X119243000Y-66222500D02*
X133350000Y-66222500D01*
X117638100Y-64617600D02*
X119243000Y-66222500D01*
X103571100Y-62751500D02*
X103049600Y-62230000D01*
X115772000Y-62751500D02*
X103571100Y-62751500D01*
X117638100Y-64617600D02*
X115772000Y-62751500D01*
%TO.N,Net-(U5-DVDT)*%
X105386000Y-70139500D02*
X108405600Y-67119900D01*
X113617800Y-67612300D02*
X113932300Y-67297800D01*
X113932300Y-65680100D02*
X113722400Y-65470200D01*
X105386000Y-70866000D02*
X105386000Y-70139500D01*
X112561900Y-67119900D02*
X113054300Y-67612300D01*
X113932300Y-67297800D02*
X113932300Y-65680100D01*
X108405600Y-67119900D02*
X112561900Y-67119900D01*
X113054300Y-67612300D02*
X113617800Y-67612300D01*
%TO.N,Net-(CHG1-A)*%
X154715300Y-87564200D02*
X140589800Y-87564200D01*
X157189500Y-85090000D02*
X154715300Y-87564200D01*
%TO.N,Net-(PG1-A)*%
X155990000Y-79445500D02*
X157189500Y-80645000D01*
X118913900Y-79976800D02*
X124593400Y-79976800D01*
X124593400Y-79976800D02*
X125130500Y-80513900D01*
X125130500Y-80513900D02*
X133553400Y-80513900D01*
X133955100Y-80915600D02*
X137544900Y-80915600D01*
X153619900Y-79445500D02*
X155990000Y-79445500D01*
X138420400Y-80040100D02*
X153025300Y-80040100D01*
X153025300Y-80040100D02*
X153619900Y-79445500D01*
X137544900Y-80915600D02*
X138420400Y-80040100D01*
X133553400Y-80513900D02*
X133955100Y-80915600D01*
%TO.N,Net-(U3-ISET)*%
X125689500Y-59055000D02*
X124612300Y-59055000D01*
%TO.N,Net-(U3-PRETERM)*%
X122936000Y-63754000D02*
X125664100Y-63754000D01*
%TO.N,Net-(R18-Pad2)*%
X110073000Y-75438000D02*
X110175700Y-75540700D01*
X110175700Y-75540700D02*
X112607300Y-75540700D01*
X112607300Y-75540700D02*
X112710000Y-75438000D01*
%TO.N,Net-(R19-Pad2)*%
X113309000Y-79380000D02*
X113182000Y-79507000D01*
X113182000Y-79507000D02*
X113182000Y-83155000D01*
%TO.N,Net-(R27-Pad2)*%
X156591000Y-72009000D02*
X154772000Y-72009000D01*
%TO.N,Net-(R28-Pad2)*%
X154782000Y-69850000D02*
X156616000Y-69850000D01*
X154777000Y-69845000D02*
X154782000Y-69850000D01*
%TO.N,VCC*%
X109021000Y-104994800D02*
X108723300Y-105292500D01*
X110493800Y-60985400D02*
X109192100Y-60985400D01*
X145006100Y-52682900D02*
X143391700Y-51068500D01*
X140699400Y-100454100D02*
X109115200Y-100454100D01*
X111211000Y-91694000D02*
X111211000Y-91168200D01*
X153217000Y-63281700D02*
X148553700Y-63281700D01*
X106294800Y-93980000D02*
X99847000Y-93980000D01*
X105090800Y-60985400D02*
X105347500Y-61242100D01*
X105240900Y-75438000D02*
X109433000Y-75438000D01*
X148553700Y-63281700D02*
X146486000Y-61214000D01*
X143027000Y-101630000D02*
X150647000Y-101630000D01*
X100998700Y-71195800D02*
X105240900Y-75438000D01*
X157256000Y-69850000D02*
X157256000Y-71984000D01*
X109220000Y-109220000D02*
X108068300Y-109220000D01*
X100998700Y-81280000D02*
X103538700Y-78740000D01*
X109115200Y-100454100D02*
X109021000Y-100548300D01*
X107736000Y-98806000D02*
X107736000Y-99857700D01*
X153219000Y-65024000D02*
X153219000Y-63972300D01*
X106484000Y-76802000D02*
X104546000Y-78740000D01*
X160782000Y-66040000D02*
X160782000Y-67191700D01*
X99847000Y-81280000D02*
X100998700Y-81280000D01*
X165862000Y-91440000D02*
X160782000Y-91440000D01*
X116367000Y-114300000D02*
X115215300Y-114300000D01*
X106224000Y-108047200D02*
X105528300Y-108742900D01*
X154020700Y-65024000D02*
X155036700Y-66040000D01*
X152526400Y-60487700D02*
X153217000Y-61178300D01*
X150114000Y-54483000D02*
X150114000Y-54238300D01*
X109021000Y-101600000D02*
X109021000Y-100548300D01*
X109021000Y-103342300D02*
X109067000Y-103296300D01*
X108426600Y-100548300D02*
X109021000Y-100548300D01*
X100998700Y-70595400D02*
X100998700Y-71195800D01*
X108068300Y-109220000D02*
X108068300Y-108932100D01*
X107736000Y-99857700D02*
X108426600Y-100548300D01*
X111211000Y-91168200D02*
X109106600Y-91168200D01*
X165862000Y-66040000D02*
X160782000Y-66040000D01*
X103538700Y-78740000D02*
X104546000Y-78740000D01*
X109067000Y-103296300D02*
X109067000Y-101646000D01*
X160206200Y-104140000D02*
X159630300Y-104140000D01*
X157256000Y-71984000D02*
X157231000Y-72009000D01*
X111912000Y-88265000D02*
X111912000Y-88646000D01*
X143027000Y-101630000D02*
X141875300Y-101630000D01*
X150114000Y-54483000D02*
X152231400Y-56600400D01*
X111211000Y-91168200D02*
X111912000Y-90467200D01*
X107467000Y-81280000D02*
X110007000Y-78740000D01*
X108069000Y-76802000D02*
X109433000Y-75438000D01*
X160782000Y-66040000D02*
X159630300Y-66040000D01*
X153217000Y-63970300D02*
X153219000Y-63972300D01*
X159914300Y-67191700D02*
X160782000Y-67191700D01*
X150114000Y-54238300D02*
X148558600Y-52682900D01*
X105528300Y-108742900D02*
X105528300Y-109697100D01*
X151919000Y-59436000D02*
X151919000Y-60487700D01*
X109067000Y-101646000D02*
X109021000Y-101600000D01*
X108935400Y-61242100D02*
X109192100Y-60985400D01*
X152231400Y-56600400D02*
X152231400Y-58071900D01*
X99847000Y-69731700D02*
X100135000Y-69731700D01*
X108069000Y-76802000D02*
X110007000Y-78740000D01*
X148558600Y-52682900D02*
X145006100Y-52682900D01*
X107183400Y-108047200D02*
X106224000Y-108047200D01*
X153219000Y-65024000D02*
X154020700Y-65024000D01*
X101940900Y-105737800D02*
X108723300Y-105737800D01*
X109021000Y-104394000D02*
X109021000Y-104994800D01*
X122732000Y-53340000D02*
X113415800Y-53340000D01*
X111211000Y-91694000D02*
X112853100Y-91694000D01*
X108723300Y-105292500D02*
X108723300Y-105737800D01*
X122732000Y-53122900D02*
X122732000Y-53340000D01*
X143391700Y-51068500D02*
X143391700Y-50800000D01*
X151919000Y-59436000D02*
X151919000Y-58384300D01*
X160206200Y-104140000D02*
X160782000Y-104140000D01*
X142240000Y-50800000D02*
X143391700Y-50800000D01*
X99847000Y-68580000D02*
X99847000Y-69731700D01*
X105347500Y-61242100D02*
X108935400Y-61242100D01*
X111912000Y-90467200D02*
X111912000Y-88646000D01*
X109021000Y-104394000D02*
X109021000Y-103342300D01*
X157256000Y-69850000D02*
X159914300Y-67191700D01*
X160807000Y-78740000D02*
X165862000Y-78740000D01*
X160782000Y-104140000D02*
X165862000Y-104140000D01*
X109106600Y-91168200D02*
X106294800Y-93980000D01*
X155036700Y-66040000D02*
X159630300Y-66040000D01*
X106606100Y-110774900D02*
X111690200Y-110774900D01*
X123099800Y-52755100D02*
X122732000Y-53122900D01*
X111690200Y-110774900D02*
X115215300Y-114300000D01*
X107467000Y-83820000D02*
X111912000Y-88265000D01*
X101933100Y-60985400D02*
X105090800Y-60985400D01*
X141875300Y-101630000D02*
X140699400Y-100454100D01*
X105528300Y-109697100D02*
X106606100Y-110774900D01*
X143391700Y-51068500D02*
X141705100Y-52755100D01*
X110007000Y-78740000D02*
X113309000Y-78740000D01*
X100135000Y-69731700D02*
X100998700Y-70595400D01*
X108068300Y-108932100D02*
X107183400Y-108047200D01*
X108069000Y-76802000D02*
X106484000Y-76802000D01*
X153217000Y-62230000D02*
X153217000Y-63281700D01*
X150647000Y-101630000D02*
X157120300Y-101630000D01*
X157120300Y-101630000D02*
X159630300Y-104140000D01*
X99847000Y-106680000D02*
X100998700Y-106680000D01*
X100998700Y-106680000D02*
X101940900Y-105737800D01*
X153217000Y-63281700D02*
X153217000Y-63970300D01*
X151919000Y-60487700D02*
X152526400Y-60487700D01*
X113415800Y-53340000D02*
X111837300Y-54918500D01*
X152231400Y-58071900D02*
X151919000Y-58384300D01*
X153217000Y-62230000D02*
X153217000Y-61178300D01*
X107467000Y-81280000D02*
X107467000Y-83820000D01*
X141705100Y-52755100D02*
X123099800Y-52755100D01*
%TO.N,/battery/BAT-*%
X100099600Y-62230000D02*
X101389600Y-63520000D01*
X127068500Y-69383900D02*
X130660400Y-69383900D01*
X112893600Y-63520000D02*
X116141900Y-66768300D01*
X130660400Y-69383900D02*
X130913700Y-69130600D01*
X124452900Y-66768300D02*
X127068500Y-69383900D01*
X101389600Y-63520000D02*
X112893600Y-63520000D01*
X116141900Y-66768300D02*
X124452900Y-66768300D01*
%TO.N,/battery/BAT+*%
X120563100Y-64334800D02*
X120563100Y-64617600D01*
X140137800Y-82489800D02*
X138965300Y-81317300D01*
X131293600Y-60590800D02*
X130177700Y-61706700D01*
X122221900Y-62676000D02*
X120563100Y-64334800D01*
X138965300Y-81317300D02*
X128444600Y-81317300D01*
X122642100Y-62676000D02*
X122221900Y-62676000D01*
X154264500Y-85090000D02*
X154264500Y-84337000D01*
X150282300Y-122682000D02*
X149180600Y-121580300D01*
X154264500Y-82489800D02*
X154264500Y-80645000D01*
X154264500Y-84337000D02*
X153115100Y-84337000D01*
X154264500Y-82489800D02*
X140137800Y-82489800D01*
X151384000Y-122682000D02*
X150282300Y-122682000D01*
X123611400Y-61706700D02*
X122642100Y-62676000D01*
X130177700Y-61706700D02*
X123611400Y-61706700D01*
X121042600Y-56220000D02*
X119962000Y-56220000D01*
X149180600Y-121580300D02*
X139320300Y-121580300D01*
X154264500Y-84337000D02*
X154264500Y-82489800D01*
X139320300Y-121580300D02*
X132040000Y-114300000D01*
%TO.N,Net-(U3-IN)*%
X115477000Y-120726400D02*
X115477000Y-120845200D01*
X119727000Y-119576500D02*
X119133300Y-120170200D01*
X124327800Y-58474400D02*
X124594900Y-58207300D01*
X117910400Y-58474400D02*
X124327800Y-58474400D01*
X119727000Y-119495200D02*
X119727000Y-119576500D01*
X119133300Y-120170200D02*
X116033200Y-120170200D01*
X114417300Y-58474400D02*
X117910400Y-58474400D01*
X116033200Y-120170200D02*
X115477000Y-120726400D01*
%TD*%
M02*
